<?xml version="1.0" encoding="utf-8"?>
<!-- Generator: Adobe Illustrator 25.0.1, SVG Export Plug-In . SVG Version: 6.00 Build 0)  -->
<svg version="1.1" id="Capa_1" xmlns="http://www.w3.org/2000/svg" xmlns:xlink="http://www.w3.org/1999/xlink" x="0px" y="0px"
	 viewBox="0 0 512 512" style="enable-background:new 0 0 512 512;" xml:space="preserve">
<g>
	<g>
		<path d="M344.5,272c-4.4,0-8,3.6-8,8v32c0,4.4,3.6,8,8,8s8-3.6,8-8v-32C352.5,275.6,348.9,272,344.5,272z"/>
		<path d="M440.6,376V232c-0.1-70.7-57.3-127.9-128-128h-224c-26.5,0-48,21.5-48,48v192c0,26.5,21.5,48,48,48h16.6
			c10.4,63.7,100.5,63.5,110.8,0h255.5v-16H440.6z M160.5,424c-22.1,0-40-17.9-40-40c2.1-53.1,77.9-53,80,0
			C200.5,406.1,182.6,424,160.5,424z M248.5,272c0,4.4-3.6,8-8,8h-160c-4.4,0-8-3.6-8-8v-88c0-4.4,3.6-8,8-8h160c4.4,0,8,3.6,8,8
			V272z M360.5,376h-80V201.2c0,0-0.8-25.2,39.6-25.2c40.4,0,40.4,25.2,40.4,25.2V376z"/>
	</g>
</g>
</svg>
