<?xml version="1.0" encoding="utf-8"?>
<!-- Generator: Adobe Illustrator 25.0.1, SVG Export Plug-In . SVG Version: 6.00 Build 0)  -->
<svg version="1.1" id="Capa_1" xmlns="http://www.w3.org/2000/svg" xmlns:xlink="http://www.w3.org/1999/xlink" x="0px" y="0px"
	 viewBox="0 0 512 512" style="enable-background:new 0 0 512 512;" xml:space="preserve">
<style type="text/css">
	.st0{fill:#FFFFFF;stroke:#000000;stroke-miterlimit:10;}
</style>
<path d="M156.8,403.9c19.6-33.1,14.3-75.3-12.9-102.6c-15.9-15.9-37.1-24.7-59.6-24.7c-22.5,0-43.7,8.8-59.6,24.7
	c-27.2,27.2-32.6,69.4-12.9,102.6l72.9,108L156.8,403.9z M427.2,235.3l73-108c19.6-33.1,14.3-75.3-12.9-102.6
	c-32.9-32.9-86.3-32.9-119.2,0c-27.2,27.2-32.6,69.4-12.9,102.6L427.2,235.3z M401.4,190.3H295.8c-46.4,0-87.2,30.7-87.2,95.2
	c0,46.4,45.8,88.2,92.2,88.2h95c29.9,0,47.2,19.3,47.2,49.2c0,29.9-17.3,44.2-47.2,44.2H135l-30.9,45h302.8
	c46.4,0,84.2-42.8,84.2-89.2c0-46.4-34.8-94.2-81.2-94.2l-100-2c-29.9,0-51.2-13.3-51.2-43.2c0-29.9,19.3-48.2,49.2-48.2h119.4
	 M398.1,113.4c-16.3-16.3-16.3-42.9,0-59.2s42.9-16.3,59.2,0h0c16.3,16.3,16.3,42.9,0,59.2c-8.2,8.2-18.9,12.2-29.6,12.2
	C417,125.6,406.3,121.5,398.1,113.4z"/>
<g>
	<g>
		<path class="st0" d="M113.9,330.9c-16.3-16.3-42.9-16.3-59.2,0c-16.3,16.3-16.3,42.9,0,59.2c8.2,8.2,18.9,12.2,29.6,12.2
			s21.4-4.1,29.6-12.2C130.2,373.8,130.2,347.2,113.9,330.9z"/>
	</g>
</g>
</svg>
