<?xml version="1.0" encoding="utf-8"?>
<!-- Generator: Adobe Illustrator 25.2.1, SVG Export Plug-In . SVG Version: 6.00 Build 0)  -->
<svg version="1.1" id="Capa_1" xmlns="http://www.w3.org/2000/svg" xmlns:xlink="http://www.w3.org/1999/xlink" x="0px" y="0px"
	 viewBox="0 0 900 650" style="enable-background:new 0 0 900 650;" xml:space="preserve">
<style type="text/css">
	.st0{fill:#FF9966;}
	.st1{fill:#660066;}
	.st2{fill:#3FA5CB;}
	.st3{fill:#C37900;}
	.st4{fill:#A31129;}
	.st5{fill:#A76000;}
	.st6{fill:#820018;}
	.st7{fill:#FEFEFE;}
</style>
<rect x="134.45" y="69.03" class="st0" width="581.28" height="522.07"/>
<path class="st1" d="M900,4.59c0-3.75-0.84-4.6-4.59-4.59C746.94,0.11,598.47,0.09,450,0.09S153.06,0.11,4.59,0
	C0.84,0,0,0.84,0,4.59C0.1,218.2,0.1,431.8,0,645.41c0,3.75,0.84,4.59,4.59,4.59c57.93-0.02,115.86-0.02,173.79-0.03
	c31.48-0.01,62.95-0.01,94.43-0.02c0.64,0,1.28,0,1.92,0c1.22,0,2.44,0,3.66,0c6.63,0,13.25,0,19.88,0c4.25,0,8.51,0,12.76,0
	c3.85,0,7.7,0,11.55,0c1.01,0,2.03,0,3.04,0c11.26,0,22.52-0.01,33.79-0.01c0.38,0,0.76,0,1.14,0c0.36,0,0.71,0,1.07,0
	c0.1,0,0.2,0,0.29,0c3.16,0,6.32,0,9.49,0c4.22,0,8.43,0,12.65,0c0.65,0,1.29,0,1.94,0c9.18,0,18.35,0,27.53,0c1.07,0,2.15,0,3.22,0
	c1.09,0,2.19,0,3.28,0c7.96,0,15.91,0,23.87,0c1.79,0,3.58,0,5.37,0c29.03,0,58.07,0.01,87.1,0.01c8.63,0,17.25,0,25.88,0
	c0.74,0,1.48,0,2.22,0c48.31,0,96.62,0.02,144.93,0.02c0.71,0,1.41,0,2.12,0c0.43,0,0.85,0,1.28,0
	c60.87,0.01,121.74,0.01,182.61,0.03c3.75,0,4.59-0.84,4.59-4.59C899.89,431.8,899.9,218.2,900,4.59z M552.66,560.01
	c-7.68,3.27-15.58,6.19-23.73,8.73c-1.66,0.52-3.35,1.01-5.03,1.5c-7.9,2.29-16.02,4.25-24.36,5.87c-1.81,0.35-3.63,0.68-5.46,1
	c-2.94,0.51-5.89,0.99-8.88,1.42c-0.16,0.02-0.32,0.04-0.48,0.06c-2.23,0.32-4.46,0.6-6.69,0.86c-2.34,0.27-4.68,0.5-7.02,0.7
	c-4.01,0.35-8.01,0.61-12,0.77c-5.79,0.23-11.55,0.26-17.28,0.1c-1.02-0.03-2.04-0.07-3.06-0.11c-1.16-0.05-2.33-0.1-3.49-0.16
	c-8.57-0.46-17.06-1.36-25.43-2.67c-3.43-0.54-6.83-1.16-10.22-1.83c-0.34-0.07-0.68-0.13-1.02-0.2c-0.07-0.01-0.14-0.03-0.22-0.04
	c-0.48-0.1-0.95-0.19-1.43-0.29c-25.16-5.3-49.14-14.37-71.24-26.67c-1-0.56-1.99-1.11-2.98-1.68
	c-16.64-9.55-32.18-20.96-46.29-33.97c-0.66-0.61-1.32-1.21-1.97-1.82c-0.52-0.49-1.03-0.99-1.55-1.49c-1.2-1.15-2.4-2.32-3.58-3.49
	c-0.39-0.39-0.79-0.79-1.18-1.18c-2.25-2.27-4.46-4.57-6.63-6.93c-0.36-0.39-0.71-0.78-1.06-1.17c-3.55-3.9-7-7.91-10.31-12.04
	c-0.91-1.14-1.81-2.29-2.7-3.44c-0.88-1.14-1.75-2.29-2.62-3.45c-0.65-0.87-1.31-1.74-1.95-2.62
	c-22.8-31.31-38.83-68.25-45.57-108.92c-3.4-20.5-4.58-41.22-2.88-61.76c2.72-32.84,11.05-64.44,26.38-93.91
	c10.95-23.08,25.55-43.66,43.15-62.06c43.33-45.3,96.18-72.28,158.54-78.58c76.58-7.73,144.02,14.23,200.66,65.95
	c0.24,0.22,0.48,0.44,0.72,0.66c0.16,0.15,0.32,0.29,0.48,0.43c0.15,0.14,0.3,0.27,0.45,0.41c0.39,0.36,0.79,0.71,1.18,1.08
	c0.96,0.9,1.91,1.82,2.85,2.73c0.37,0.36,0.75,0.71,1.12,1.07c0.07,0.07,0.14,0.13,0.21,0.2c0.61,0.6,1.21,1.21,1.82,1.82
	c1.02,1.02,2.04,2.04,3.05,3.07c0.41,0.42,0.81,0.85,1.22,1.27c13.61,14.17,25.22,29.4,34.84,45.63c0.66,1.12,1.32,2.24,1.96,3.37
	c0.07,0.17,0.16,0.34,0.28,0.5c0.27,0.48,0.54,0.95,0.81,1.43c0.39,0.7,0.78,1.41,1.17,2.12c0.14,0.26,0.28,0.52,0.42,0.78
	c1.39,2.56,2.74,5.14,4.03,7.75c0.77,1.55,1.52,3.12,2.26,4.69c0.26,0.55,0.51,1.09,0.76,1.64c0.05,0.1,0.09,0.2,0.13,0.29
	c0.3,0.65,0.59,1.3,0.88,1.95c0.09,0.2,0.18,0.39,0.27,0.59c0.81,1.82,1.59,3.64,2.36,5.48c0.24,0.59,0.48,1.18,0.72,1.77
	c0.18,0.44,0.35,0.88,0.52,1.31c0.23,0.58,0.46,1.16,0.69,1.74c0.21,0.54,0.43,1.09,0.64,1.63c0.33,0.87,0.65,1.75,0.98,2.62
	c0.31,0.83,0.61,1.65,0.91,2.48c0.08,0.23,0.16,0.46,0.24,0.69c0.15,0.42,0.29,0.83,0.43,1.25c0.34,0.99,0.7,1.97,1.03,2.96
	c0.13,0.39,0.25,0.78,0.38,1.17c0.27,0.82,0.54,1.65,0.8,2.48c5.25,16.55,8.9,33.89,10.92,51.99c2.34,20.96,2.02,41.73-0.83,62.27
	c-0.09,0.68-0.18,1.36-0.28,2.04c-1.12,7.58-2.59,15.13-4.4,22.65c-0.25,1.04-0.49,2.08-0.75,3.12c-1.07,4.22-2.24,8.42-3.52,12.62
	c-0.19,0.62-0.58,1.18-0.87,1.77c-4.75,17.83-12.33,34.51-21.72,50.26c-0.15,0.26-0.32,0.51-0.47,0.77
	c-0.42,0.7-0.85,1.39-1.28,2.08c-2.84,4.65-5.77,9.18-8.78,13.59c-0.32,0.47-0.64,0.95-0.97,1.42c-2.28,3.3-4.62,6.53-7,9.69
	c-0.33,0.43-0.66,0.87-0.99,1.3c-1.67,2.19-3.36,4.34-5.08,6.46c-0.53,0.66-1.06,1.33-1.59,1.98c-3.37,4.09-6.84,8.04-10.4,11.86
	c-0.5,0.54-1.01,1.06-1.51,1.6c-2.23,2.36-4.5,4.69-6.8,6.95c-0.57,0.56-1.14,1.12-1.72,1.67c-1.39,1.34-2.79,2.67-4.2,3.97
	c-0.6,0.55-1.21,1.08-1.81,1.62c-0.76,0.69-1.53,1.38-2.3,2.06c-0.49,0.43-0.97,0.87-1.46,1.29c-2.73,2.36-5.52,4.64-8.34,6.87
	c-1.08,0.86-2.16,1.71-3.26,2.55C588.47,542.09,571.25,552.1,552.66,560.01z"/>
<path d="M434.12,505.71c-1.45,2.43-3.3,4.52-3.21,7.35c0.04,1.16-0.61,1.97-1.12,2.53c-2.76,3.03-4.21,7.24-8.24,9.15
	c-0.85,0.4-1.45,1.31-2.19,1.96c-1.23,1.09-2.22,3.22-4.29,1.04c-0.11-0.12-0.85,0.26-1.23,0.51c-1.08,0.74-1.94,0.53-3.09-0.11
	c-4.29-2.37-8.79-4.37-11.15-9.14c-0.47-0.95-1.53-1.86-2.53-2.22c-1.68-0.62-3.12-1.88-3.58-3.15c-1.12-3.11-4.01-4.11-6.2-5.73
	c-1.12-0.83-2.72-1.6-3.23-2.69c-1.01-2.18-4.07-2.42-4.34-5.12c-0.06-0.59-1.09-0.53-1.27-0.33c-1.46,1.62-2.66,0.94-4.24,0.02
	c-3.84-2.24-4.46-3.83-3.51-8.42c0.46-2.23,0.86-4.9,0.03-6.84c-0.92-2.14-0.68-4.12-0.78-6.16c-0.13-2.82-0.05-5.66-0.03-8.49
	c0.01-1.45-0.18-2.76-0.93-4.12c-0.65-1.19,0.2-2.73-0.67-4.22c-1.19-2.03,0.36-4.83-1.4-6.9c0.01-4.55-1.57-8.96-1.05-13.58
	c0.28-2.47,0.08-4.99,0.04-7.49c-0.02-1.58,0.06-3.09-0.85-4.66c-0.45-0.78-0.84-1.97-1.12-3.01c-0.27-1.01,1.09-1.4,1.03-2.58
	c-0.17-3.32-0.06-6.66-0.06-9.99c0-1.17-0.25-2.4,0.05-3.48c0.65-2.3,0.62-4.14-0.7-6.44c-1.13-1.98-1.07-5.13,0.01-7.15
	c0.88-1.64-0.38-3.77,1.55-4.9c0.16-0.09,0.02-0.63,0.09-0.94c0.32-1.39-2.46-2.78-0.01-4.17c0-1.67,0-3.33,0-5s0.03-3.33-0.01-5
	c-0.02-0.95,0.25-1.91-0.72-2.72c-0.63-0.53-0.56-1.83-0.1-2.25c1.4-1.27,0.3-2.95,0.9-4.15c0.7-1.39,0-2.48-0.03-3.71
	c-0.11-4.83-0.07-9.66-0.03-14.49c0.01-1.26,0.06-2.15-1.73-2.14c-1.74,0.01-2.17-1.32-2.34-3.02c-0.4-3.92-1.25-7.82-1.72-11.69
	c-0.48-4.01-1.51-7.68-2.88-11.36c-0.11-0.29-0.4-0.66-0.31-0.85c0.84-1.74,1.73-3.27,0.27-5.33c-1.05-1.48,0.27-3.77-1.22-5.5
	c-0.49-0.57-0.08-1.93-0.08-2.93c0-6.83,0.27-13.67-0.08-20.48c-0.35-6.76,0.88-13.38,1.19-20.07c0.15-3.39,1.24-6.81,2.1-10.11
	c0.63-2.42,2.22-4.82,4.36-6.69c2.64-2.3,5.44-4.65,5.69-8.6c3.15-4.28,4.81-9.51,8.47-13.48c0.53-0.58,0.93-1.21,1.32-1.94
	c1.82-3.47,3.49-7.08,6.43-9.85c0.53-0.5,0.95-1.32,1.05-2.04c0.5-3.83,3.25-6.09,5.66-8.67c3.07-3.28,5.19-7.37,8.51-10.44
	c3.22-2.97,4.47-7.23,7.2-10.53c1.08-1.3,1.56-3.14,2.73-4.32c1.84-1.84,1.63-3.79,0.86-5.81c-0.79-2.07-0.95-3.96,0.43-5.86
	c2-2.74,1.93-6.18,2.92-9.27c0.99-3.1,2.26-5.87,4.68-8.06c0.37-0.34,0.72-0.69,1.06-1.06c2.41-2.6,2.43-3.89,0.07-6.58
	c-0.54-0.62-1.3-1.11-1.67-1.82c-0.18-0.34-0.44-2.04,1.01-0.82c0.68,0.57,0.85,0.05,0.91-0.33c0.57-3.84,1.44-7.65,1.02-11.57
	c-0.17-1.56-1.44-2.9-0.11-4.75c0.82-1.13-0.12-2.96,0.97-4.6c0.96-1.44,0.44-3.74,0.66-5.62c0.36-3.07,2.33-5.45,2.67-8.51
	c0.18-1.66,1.12-4.38,4.07-4.21c4.35-3.78,9.63-2.95,14.74-2.99c2-0.02,4,0.05,5.99-0.02c1.09-0.04,2.19,0.31,3.24-0.66
	c0.85-0.78,2.56-0.74,3.23-0.16c2.2,1.88,4.75,1.5,7.24,1.97c1.71,0.32,3.21,1.85,4.75,2.91c2.13,1.46,3.21,4.07,5.88,5.11
	c0.77,0.3,1.67,2.14,1.6,3.69c-0.08,1.66-0.01,3.33-0.02,5c0,1.44,0.05,2.79,0.96,4.11c1.66,2.41,1.65,5.48,1.84,8.15
	c0.23,3.23,1.09,6.34,1.38,9.55c0.37,4.1,1.73,8.21,3.26,12.08c0.86,2.17,0.38,4.64,1.63,6.47c1.71,2.5,0.54,5.11,0.93,7.63
	c0.1,0.63,0.01,1.36,0.3,1.87c2.64,4.7,1.75,9.84,1.53,14.78c-0.08,1.76-0.38,3.83-0.96,5.54c-0.58,1.72-0.25,2.99,0.76,3.92
	c1.46,1.34,1.45,4.13,4.12,4.24c0.73,1.73,1.68,3.31,2.71,4.9c0.98,1.51,2.14,2.78,3.27,4.12c0.81,0.96,1.86,1.61,2.35,3.02
	c0.73,2.1,2.32,3.8,4.01,5.34c1.89,1.73,3.84,3.49,3.88,6.37c2.42,1.57,1.4,4.75,3.16,6.7c1.68,1.86,2.64,4.25,4.11,6.32
	c2.11,2.96,4.23,6.27,3.76,10.41c-0.26,2.3-0.05,4.66-0.05,6.99c2.24,1.54-0.06,4.45,1.91,6.26c0.58,0.53,0.29,2.28,0.05,3.39
	c-0.62,2.85,1.27,5.32,1.06,8.09c-0.02,0.24,0.34,0.75,0.49,0.74c2.09-0.2,1.64,1.43,1.43,2.33c-1.03,4.49-1.06,4.46,0.01,9.19
	c0.22,0.95,0.46,2.42-0.03,2.91c-1.79,1.75-0.9,3.47,0.15,4.68c1.46,1.66-0.07,2.86-0.03,4.23c0.12,3.91-1.8,7.63-1.05,11.58
	c-1.76,5.27-0.83,10.71-0.97,16.07c-0.14,5.33,0.16,10.67-0.11,15.99c-0.13,2.67,1.43,4.91,1.14,7.59c-0.29,2.63,0.02,5.33-0.1,7.99
	c-0.06,1.37,1.17,2.07,1.16,3.59c-0.02,3.45-0.98,6.56-2.4,9.55c-1.79,3.76-3.86,7.39-5.67,11.14c-0.32,0.66-2.13,2.19,0.61,2.33
	c0.55,0.03,0.39,0.87,0.32,1.31c-0.46,2.68,0.83,5.44-0.85,8.16c-0.74,1.2-0.02,3.26-0.15,4.92c-0.16,2.05,0.66,4.21-0.91,6.13
	c-0.41,0.5-0.32,1.73-0.02,2.43c1.55,3.59,0.66,7.02,0.19,10.71c-0.52,4.05-1.15,8.41,0.6,12.61c0.45,1.09-0.66,2.92-1.24,4.34
	c-0.58,1.42-1.28,2.82-2.13,4.1c-0.41,0.62-0.69,1.36-0.41,1.79c1.61,2.45-0.06,4.84-0.17,7.19c-0.27,5.44,1.83,10.66,1.12,16.08
	c-0.24,1.87,0.37,3.74-0.85,5.67c-0.74,1.17-0.65,3.57,0.1,4.78c0.92,1.48,0.58,2.82,0.73,4.22c0.1,0.97,0.03,1.82,0.85,2.67
	c3.24,3.34,2.39,7.47,1.77,11.42c-0.41,2.62-1.91,5.08-1.55,7.81c0.23,1.75-1.22,2.89-1.14,4.59c0.06,1.26-0.68,0.33-1.15,0.04
	c-0.79-0.49-1.67-0.59-1.73,0.63c-0.1,2.06-1.22,3.48-2.4,5.03c-2.27,2.98-3.22,6.68-4.5,10.11c-1.7,4.58-4.15,8.46-7.54,11.88
	c-1.38,1.39-3.39,1.59-4.84,2.8c-0.58,0.49-1.12,0.25-1.71-0.2c-1.87-1.42-4.03-1.69-6.34-1.6c-1.38,0.05-2.98,0.66-4.14-0.86
	c-0.19-0.25-1.1-0.28-1.4-0.05c-1.3,1-3.09,0-3.92,0.53c-1.49,0.95-3.47-0.57-4.51,1.26c-4.2-0.65-8.31,2.89-12.62,0.23
	c-0.72-0.45-2.09,0.24-2.93-0.13c-1.2-0.53-2.46,1.87-2.97,0.22c-0.59-1.9-1.9-0.71-2.68-1.24c-0.54-0.37-1.15-0.84-1.39-1.41
	c-1.37-3.16-4.1-5.28-6.11-7.93C438.46,512.24,436.57,508.99,434.12,505.71z M436.84,216.95c-0.07,0.94,0.57,0.94,1.24,1.02
	c0.5,0.06,0.87,0.37,0.76,0.98c-0.96-0.07-1.19,0.66-0.97,1.25c1.45,3.8,4.88,5.29,8.28,6.68c0.73,0.3,1.79,0.26,2.73-0.43
	c2.09-1.53,4.94-1.8,6.75-3.85c0.93-1.06,2.11-0.51,3.18-0.66c-1.31,1.72-0.47,3.3-0.16,5.19c0.91,5.5,1.18,11.1,2.06,16.63
	c0.63,3.96,0.47,8.03,0.9,12.07c0.87,8.12-0.44,16.39,1.14,24.53c0.34,1.76,0.05,3.65,0.05,5.48c0,1.83-0.63,4.01,0.15,5.4
	c1.07,1.9-0.62,3.12-0.24,4.77c0.4,1.74,0.1,3.64,0.09,5.47c-0.01,0.99,0.11,2.01-0.11,2.95c-1.22,5.17-0.9,5.58-0.06,11.22
	c0.33,2.23,2.56,4.69,0.22,7.18c-0.47,0.5,1,1.2,0.85,1.49c-0.35,0.68-1.45,1.39-0.77,2.04c1.37,1.29,0.77,2.77,0.84,4.17
	c0.48,8.54-1.68,16.99-0.99,25.54c0.11,1.32,0.07,2.66,0,3.99c-0.05,0.94,0.39,1.96-0.5,2.78c-1.09,1.01-0.25,1.71,0.47,2.4
	c0.88,0.83,1.73,1.56,0.37,2.8c-0.79,0.72-0.3,1.89-0.3,2.84c-0.03,15.31-0.03,30.62,0,45.93c0,0.94-0.17,1.86,0.31,2.86
	c0.86,1.79,2.12,3.66-0.17,5.6c-0.58,0.49-0.51,2.23,0.15,3.23c0.37,0.56,0.72,0.99,0.71,1.72c-0.05,2.83,0.26,5.69-0.1,8.48
	c-0.37,2.87,1,5.34,1.12,8.08c0.2,4.86-0.92,9.82,0.96,14.56c-0.72,7.89,1.26,15.68,0.96,23.55c-0.09,2.3,0.14,4.55,1.09,6.55
	c1.27,2.66,1.54,5.61,0.77,8.05c-1.18,3.76-0.43,7.44-0.88,11.11c-0.16,1.33,0.86,2.01,1.05,3.09c-1.08-0.15-2.32,0.45-3.19-0.69
	c-0.37-0.49-1.23-0.41-1.29-0.25c-1.38,3.37-2.4,0.45-3.16-0.3c-1.27-1.27-2.8-2-4.35-2.75c0.19-1.84,0.25-1.93,1.04-1.4
	c0.45,0.31,0.92,0.25,1.33,0.43c3.13,1.39,4.25,0.87,4.6-2.37c0.14-1.32,0.02-2.66,0.02-3.99c0-1-0.17-2.03,0.03-2.99
	c1.47-7.34,1.49-7.84-0.78-13.85c-0.25-0.67-0.21-1.27-0.24-1.89c-0.33-7.19-0.12-14.36-0.74-21.58c-0.61-7.13-1.94-14.3-1.28-21.54
	c0.06-0.63,0.19-1.65-0.53-1.7c-2.9-0.18-1.59-2.78-1.32-3.3c1.05-2.04,1.31-3.9,0.18-5.87c-0.22-0.38-0.16-0.38-0.02-0.74
	c1.57-3.98,0.27-8.14,0.69-12.2c-1.52-1.83-1.16-4.05-0.92-6.07c0.27-2.22-1.16-3.98-1.09-6.09c0.11-3.55,0.55-7.08,0.82-10.59
	c0.57-7.49,1.58-14.97,1.27-22.55c-0.34-8.48-0.11-16.98-0.06-25.47c0.01-1.96-0.61-4.08,0.33-5.84c0.88-1.65,1.13-3-0.05-4.44
	c-0.51-0.62-0.24-1.26-0.29-1.88c-0.21-2.71,0.54-5.5-0.95-8.11c-0.35-0.6-0.32-1.96,0.1-2.36c1.37-1.28,0.85-2.81,0.8-4.18
	c-0.15-3.53,0.11-7.02-0.73-10.63c-0.68-2.93-0.89-6.35,0.64-9.59c0.77-1.63,0.21-3.94,0.11-5.93c-0.09-1.73,1.46-3.18,0.2-5.28
	c-0.66-1.09-0.89-3.44,0.51-5.11c0.74-0.89,0.54-2.28,0.17-3.3c-1.35-3.63-1.88-7.35-1.9-11.21c-0.01-2.38,0.08-4.69-0.75-7.15
	c-0.61-1.81-1.2-4.52,0.72-6.56c0.33-0.36,0.35-1.55,0.02-1.9c-1.87-2.03-0.61-4.43-0.91-6.63c-0.2-1.47,0.52-3.41-0.2-4.38
	c-1.18-1.6-0.94-3.19-0.75-4.68c0.25-1.92-1.41-3.24-1.1-5.09c0.34-2.11-0.28-4.01-1.4-5.53c-2.13,1.01-4.4,1.74-6.26,3.07
	c-1.36,0.97-1.97,0.64-2.83-0.33c-0.54-0.61-1.19-1.45-2.02-0.88c-0.73,0.51-1.53,1.08-1.51,2.35c0.08,3.88-0.02,7.71-0.83,11.6
	c-0.85,4.08,0.66,8.47-1.12,12.54c0.71,6.9-1.22,13.69-0.96,20.56c0.4,10.68-1.09,21.4,0.9,32.06c0.62,3.3-0.65,6.84,1.04,10.07
	c0.14,0.26,0.16,0.81,0,0.97c-1.42,1.32-0.96,3.03-0.96,4.6c-0.03,8.16,0.14,16.32-0.06,24.47c-0.19,8.02,0.22,16.01-0.76,24.08
	c-1.22,10.08,0.25,20.33-1.05,30.54c-1.18,9.26,0.64,18.69-1.02,28.06c-0.74,4.2-0.22,8.64-0.09,12.96c0.07,2.21-0.84,4.6,0.94,6.6
	c0.13,0.15,0.02,0.73-0.16,0.89c-1.23,1.01-0.34,1.73-0.05,2.83c0.36,1.36,1.5,2.89,0.33,4.66c-0.53,0.79-0.53,2.69,0.06,3.32
	c1.27,1.37,0.99,2.87,0.76,4.18c-0.3,1.67,1.27,2.59,1.1,4.1c-0.52,4.74,1.75,9.3,1,14.07c-0.08,0.49-0.22,1.2,0.02,1.46
	c1.71,1.85,0.86,4.07,0.91,6.11c0.05,2.26,1.56,4.2,1.11,6.59c-0.33,1.76,0.24,2.92,2.18,4.19c2.55,1.67,5.28,2.6,7.97,3.76
	c1.17,0.5,0.62,1.33,0.77,2.04c-2.64-0.37-4.74-2.18-7.29-2.79c-2.57-0.61-5.2-1.01-7.7-1.81c-1.14-0.37-0.93,0.19-0.97,0.73
	c-0.04,0.48-0.14,1.1,0.1,1.44c1.97,2.81,2.64,6.45,5.57,8.65c0.51,0.38,1.3,1.03,1.24,1.43c-0.45,2.68,1.75,3.07,3.27,4.06
	c5.17,3.38,10.43,5.07,16.26,1.41c0.61-0.38,1.41-0.92,2.02-1.01c0.82-0.12,2.5-0.99,2.51,1.17c0,0.34,0.21,0.98,0.88,0.34
	c1.32-1.27,2.71-2.47,2.09-4.61c1.9,0.62,3.46,1.9,5.59,2.22c3.28,0.5,6.32-1.3,6.37-4.51c0.05-2.56-0.32-5.05-0.83-7.6
	c-0.64-3.2-0.08-6.63-0.19-9.95c-0.05-1.55-0.13-3.04-0.72-4.67c-0.77-2.14-0.83-4.94,0.12-7.24c1.34-3.23,0.84-6.57,0.47-9.7
	c-0.58-5.01-0.94-4.95,0.14-8.68c0.62-2.14,1.19-4.26,1.05-6.57c-0.28-4.82,0.01-9.55,1.82-14.2c0.56-1.44,0.68-2.91,1.76-4.29
	c1.75-2.23,2.08-5.06,0.82-7.66c-0.57-1.18-0.79-2.64-0.35-3.24c1.46-1.99,0.76-4.11,0.87-6.15c0.13-2.49-0.49-5.15,0.19-7.44
	c0.61-2.08,1.1-4.1,0.77-6.11c-0.37-2.25,0.99-4.02,1.08-6.09c0.22-5.03-0.7-10.13,0.99-15.06c-0.71-3.95,1.62-7.63,1.01-11.57
	c-0.05-0.31-0.08-0.77,0.1-0.94c1.9-1.89,0.6-4.54,1.68-6.82c0.94-1.99,0.43-4.91-0.08-7.29c-0.69-3.24-1.64-6.4-1.75-9.76
	c-0.06-1.71,0.52-3.43-0.82-5.18c-0.64-0.83-0.65-2.94,0.27-4.21c1.23-1.7,1.03-3.89,0.43-5.18c-1.2-2.59-0.59-5.11-0.82-7.65
	c-0.1-1.16,0.43-2.64-0.11-3.43c-1.05-1.52-1.15-3.13-0.82-4.63c0.43-1.98-1.25-3.34-1.06-5.09c0.72-6.58-1.42-13-1.04-19.56
	c0.11-1.99-0.25-4.04,0.09-5.98c0.36-2.1-0.58-3.89-1.23-5.53c-0.76-1.91-0.27-3.91-0.97-5.58c-2-4.76-1.66-9.91-2.77-14.81
	c-0.74-3.25,0.33-6.72-0.98-10.09c-0.67-1.74-0.39-4-0.05-5.93c0.39-2.25-1.22-3.95-1.12-6.09c0.1-2.21,0.59-4.56-0.95-6.57
	c-0.47-7.28-3.15-13.92-6.14-20.41c-0.59-1.28-0.72-2.39-0.86-3.64c-0.08-0.72,0.44-1.79-0.9-1.87c-0.79-0.05-1.59-0.17-2.24,0.62
	c-2.2,2.62-5.17,4.3-7.83,6.37c0.04-1.3-0.27-2.66,1.34-4c-2.2,0-3.77,0-5.34,0c1.05-1.95,1.05-1.98-0.77-1.99
	c-3.07-0.03-6.15-0.01-9.22-0.01c-0.07-0.96,0.59-1,1.27-1c2.3,0,4.6-0.04,6.9,0.01c2.11,0.05,2.89-1.06,2.81-3.01
	c1.44,0.28,2.5,1.55,2.82,2.52c0.41,1.24,0.9,1.24,1.91,1.54c4.7,1.36,4.35-4.69,7.8-5.22c0.67-0.1,1.74-1.05,1.45-2.31
	c-0.04-0.16-0.06-0.36,0-0.49c0.45-0.98,0.81-2.03,1.41-2.91c0.97-1.42,3.11-2.14,2.57-4.43c-0.48-2.06,2.02-2.56,2.19-4.65
	c0.22-2.65,1.88-5.16,2.79-7.77c1.24-3.56,2.54-7.14,1.84-11.08c-1.37-0.17-2.63-0.48-3.81,0.25c-0.15,3.87-0.17,3.88-3.36,5.59
	c-0.42,0.22-0.95,0.56-1.07,0.96c-0.68,2.27-2.82,2.6-4.52,3.42c-2.08,1.01-3.91,2.19-5.18,4.19c-0.52,0.82-1.33,1.49-2.11,2.11
	c-0.31,0.24-0.93,0.3-1.32,0.17c-0.56-0.18-0.38-0.81-0.43-1.29c-0.07-0.69,0.29-1.17,0.61-1.76c1.12-2.09,2.34-4.09,3.92-5.86
	c2.05-2.29,4.74-4.02,6.04-6.98c0.23-0.52,0.76-1.12,1.56-0.97c2.36,0.44,3.23-0.93,4.37-2.77c0.77-1.24,1.3-3.09,3.3-3.64
	c1.54-0.43,1.57-2.32,1.1-3.4c-1.11-2.55-1.26-5.36-2.72-7.89c-0.88-1.54-2.15-1.54-2.51-1.18c-1.3,1.27-2.83,1.13-4.15,0.83
	c-1.71-0.4-2.6,1.33-4.1,1.08c-0.78-0.13-1.7,0.39-2.32-0.41c-0.63-0.82-1.52-0.39-2.25-0.62c-1.47-0.45-2.14,1.32-3.6,1.08
	c-1.26-0.21-2.9-0.39-3.84,0.23c-1.26,0.82-1.87,0.84-2.88-0.17c-0.34-0.34-1.37-0.32-1.9-0.07c-2.43,1.13-4.69,0.47-7.2,0.11
	c-5.48-0.78-10.68-2.15-15.5-4.83c-0.68-0.38-1.44-0.58-2.13-0.93c-2.34-1.17-5.59,0.23-5.58,2.65c0.01,2.43-1.36,3.52-2.65,4.96
	c-1.92,2.15-2.59,4.94-3.42,7.56c-0.63,1.99-0.31,4.39,1.08,5.95c2.56,2.88,4.61,6.13,7.02,9.1c1.78,2.2,4.02,3.56,7.08,3.4
	c2.57-0.13,3.68,1.37,3.74,4.11c0.05,2.02-1.41,2.98-2.69,3.76c-1.31,0.79-2.45-0.35-3.33-1.41c-0.31-0.38-0.74-0.68-0.99-1.09
	c-1.65-2.82-3.26-5.63-7.22-5.46c-0.48,0.02-1.02-0.72-1.49-1.16c-1.47-1.35-2.46-2.99-2.26-5.04c0.14-1.4-0.7-2-1.84-2.8
	c-0.02,2.01-0.27,3.63,0.6,5.66c0.86,2.01,1.78,4.46,1.26,7c-0.26,1.28-0.15,2.66-0.02,3.98c0.28,2.83,1,5.64,2.93,7.73
	c1.27,1.37,1.92,2.81,2.43,4.52c1.7,5.73,5.76,9.84,9.88,13.86c0.25,0.25,0.92,0.25,1.31,0.12c0.58-0.2,0.55-0.94,0.36-1.28
	c-0.39-0.67-1.54-1.45-0.87-2.03c1.46-1.27,0.97-3.68,2.91-4.54c-0.11,1.19,0.29,2.41-0.83,3.5
	C435.64,214.82,435.01,216.63,436.84,216.95z M383.91,246.92c0.83,0,1.67,0.05,2.5-0.01c1.86-0.13,2.55,1.5,3.39,2.55
	c0.76,0.95-0.84,1.54-1.25,2.36c-0.76,1.52-2.01,2.87-1.67,4.82c0.13,0.74,0.38,1.72-0.48,2.27c-1.69,1.08-1.51,2.74-1.49,4.39
	c0.08,4.57,0.03,4.56-1.44,7.57c-0.75,1.53-1.23,3.16-1.73,4.8c-0.69,2.25-0.3,4.54-0.94,6.6c-0.74,2.39-0.82,4.72-0.9,7.12
	c-0.03,0.78,0.51,2.05-0.35,2.28c-2.65,0.71-1.96,1.95-0.89,3.5c0.22,0.32,0.32,1.05,0.11,1.31c-1.8,2.23-0.77,4.8-0.75,7.16
	c0.01,2.47-1.48,4.56-1.16,7.09c0.31,2.46,0.08,4.99,0.06,7.49c-0.02,2.39,0.22,4.76-1.58,6.87c-0.83,0.97-1.18,2.65-1.29,3.89
	c-0.35,3.81-1.5,7.42-2.13,11.15c-0.32,1.84-0.22,4.31-1.36,5.34c-2.25,2.04-1.33,3.63-0.14,5.28c0.82,1.13,0.54,2.23,0.48,3.3
	c-0.33,5.86,0.86,11.76-0.86,17.6c-0.54,1.83-0.48,4.06,0.64,5.95c-1.55,2.08-0.38,4.47-0.71,6.69c-0.06,0.43,0.17,0.91,0.3,1.36
	c1.07,3.64,0.92,9.96-0.32,13.79c1.01,1.61-1.9,2.65-0.79,3.97c1.3,1.54,0.73,3.14,0.75,4.7c0.09,6.33,0.03,12.66,0.05,18.98
	c0,1.14-0.31,2.81,0.29,3.31c1.55,1.28-0.44,2.43,0.1,3.17c1.14,1.57,0.74,3.27,0.5,4.75c-0.3,1.83,1.54,2.88,1.13,4.6
	c-0.15,0.63,0.18,1.42-0.06,1.98c-2.2,5.11-0.66,9.91,1,14.77c0.95,2.77,1.46,5.69,2.78,8.34c0.41,0.82,0.54,1.61-0.7,1.73
	c-1.24,0.11-1.41,1.09-0.83,1.63c1.23,1.14,0.73,2.47,0.75,3.71c0.07,3.33,0.23,6.68-0.05,9.98c-0.18,2.06,0.74,3.74,1.14,5.57
	c0.46,2.05,2.15,3.05,4.3,3.09c1.83,0.04,3.68,0.16,5.49-0.03c1.86-0.2,2.41,0.47,2.15,2.21c-0.08,0.52,0.32,0.82,0.93,0.85
	c0.61,0.02,1.09-0.3,1-0.77c-0.33-1.71,1.83-3.03,0.97-4.55c-1.41-2.5-1.2-5.41-2.52-7.97c-0.79-1.54-1.42-3.41-1.47-5.4
	c-0.12-4.7,0.4-9.37-0.78-14.11c-0.88-3.52-0.56-7.35-0.97-11.06c-0.75-6.8-0.26-13.69-1.02-20.57c-0.75-6.75-0.34-13.64-0.09-20.46
	c0.12-3.18,1.69-6.44,0.79-9.54c-0.7-2.41-0.92-4.73-0.84-7.12c0.32-9.85-0.82-19.74,0.92-29.57c0.7-3.96-0.88-8.17,1.05-12.07
	c-0.64-5.42,0.92-10.7,0.99-16.07c0.05-3.83-0.01-7.66,0.02-11.49c0.02-2.89,0.06-5.72,0.79-8.63c0.41-1.62,1.77-3.1,1.23-5.04
	c-0.45-1.61,0.56-3.08,0.82-4.6c0.2-1.18,1.19-1.89,1.15-3.06c-0.04-1.33,0.1-2.68-0.04-3.99c-0.18-1.83,0.17-3.54,1.05-5.07
	c2.02-3.5,2.18-7.47,2.9-11.28c0.41-2.17,0.27-4.38,0.87-6.62c0.43-1.6,1.34-3.18,1.26-5.03c-0.14-3.18-0.65-6.48,1.81-9.24
	c0.42-0.47,0.1-1.6,0.13-2.42c0.03-0.8,0.16-1.47,0.57-2.27c2.41-4.7,2.78-9.96,3.33-15.07c0.41-3.8,0.78-7.6,2.16-11.13
	c1.36-3.48,2.4-6.92,1.94-10.69c-0.06-0.48-0.15-1.1,0.08-1.45c1.35-2.05,1.65-4.32,2.01-6.69c0.36-2.36,0.89-4.66,0.99-7.09
	c0.08-1.96,0.79-3.98,1.6-5.79c1.94-4.34,2.57-8.85,2.3-13.54c-0.04-0.67,0-1.41-0.98-1.3c-0.72,0.08-1.77-0.49-2.01,0.76
	c-0.24,1.23-1.62,2.12-1.01,3.58c-1.36,0.48-2.26,1.51-2.63,2.82c-0.53,1.86-1.8,3.26-3.26,4.09c-3.8,2.19-6.28,5.72-9.42,8.57
	c-2.8,2.54-4.01,6.11-4.49,9.57c-0.3,2.21-1.5,4.21-1.24,6.56c0.24,2.21-0.42,4.41-0.76,6.6c-0.5,3.29-1.26,6.46-2.12,9.65
	c-0.28,1.03-0.14,1.81-1.58,1.84c-0.58,0.01-0.75,1.08-0.22,1.6c0.86,0.84,1.07,1.51,0.12,2.46c-0.78,0.78-0.24,1.88,0.62,5.35
	c0-0.16,0.05-0.34-0.01-0.49c-0.37-0.95-0.57-2.26-1.96-2c-2.26,0.43,0.36,1.14-0.02,1.76c-0.24,0.38-0.29,0.88-0.56,1.22
	c-0.39,0.51-1.1,0.86-1.31,1.41c-0.26,0.7-0.45,1.64,0.13,2.27c0.6,0.65,1.53,0.33,2.27,0.2c0.39-0.07,0.7-0.64,1.04-0.99
	c0.12-0.12,0.23-0.23,0.35-0.35C383.36,251.44,385.29,250.47,383.91,246.92z M484.11,190.5c-1.73,5.44-3.6,10.14-5.91,14.7
	c-1.37,2.7-2.2,5.73-0.51,9.03c1.61,3.14,1.68,6.86,2.94,10.25c1.25,3.37,4.03,6.69,2.16,10.78c-0.04,0.08,0.14,0.26,0.21,0.4
	c2.07,3.57,0.86,8.14,3.53,11.52c0.21,0.26,0.05,0.39-0.21,0.73c-1.12,1.46-0.49,3.17-0.51,4.76c-0.02,1.42-0.13,2.82,0.36,4.32
	c0.41,1.27-0.23,2.88-0.41,4.35c-0.08,0.69,0,1.35,0.65,1.72c1.63,0.93,1.34,2.48,1.35,3.95c0,2,0.18,4.02-0.05,5.99
	c-0.2,1.74,0.37,3.45,1.28,4.44c1.65,1.81,2.4,3.24,0.83,5.44c-0.39,0.55-0.41,2,0,2.39c1.51,1.41,0.76,3.09,0.92,4.65
	c0.09,0.82-0.33,2.07,0.08,2.42c2.25,1.93-0.35,4.96,1.71,6.83c-0.64,2.21,0.37,4.36,0.26,6.57c-0.14,2.82-0.03,5.66-0.03,8.49
	c0,2.33,0.26,4.7-0.07,6.98c-0.36,2.54,1.68,4.59,1.08,7.09c-0.16,0.68,0.02,1.3,0.65,1.72c2.29,1.56,1.45,3.98,1.22,5.92
	c-0.25,2.1,1.84,3.57,0.78,5.96c-0.91,2.05-2.14,4.48-1.55,6.78c0.65,2.56,0.95,5.18,1.72,7.74c0.85,2.82,2.74,6.03,0.23,9.15
	c-0.3,0.37-0.21,1.55,0.13,1.85c1.4,1.25,0.94,2.85,0.75,4.18c-0.58,4.04-1.16,8.13-2.39,11.99c-0.53,1.68-0.26,3.19-0.54,4.76
	c-0.25,1.36,1.72,2.17,0.97,3.57c-0.61,1.15-0.66,2.48-1.09,3.55c-0.97,2.38-0.78,4.73-0.89,7.13c-0.06,1.25-0.12,2.39-0.72,3.7
	c-0.71,1.56-1.01,3.89,1.03,5.36c0.24,0.17,1.15,0.64,0.3,0.99c-1.49,0.62,0.66,3.42-2.02,3.19c-0.13-0.01-0.32,0.39-0.42,0.62
	c-0.02,0.06,0.2,0.25,0.33,0.34c1.61,1.14,1.03,2.29,0.66,4c-0.74,3.42,0.18,7.03-1.05,10.58c-0.78,2.24,0.52,4.99-0.55,7.27
	c-1.03,2.17-0.49,4.29-0.68,6.43c-0.29,3.22-1.37,6.38-2.23,9.53c-0.4,1.48-1.58,2.88-1.55,4.31c0.09,5.4-0.93,10.74-0.95,16.07
	c-0.04,9.01-0.94,18.06,0.75,27.08c0.67,3.54,0.06,7.31,0.13,10.97c0.04,2.22-0.28,4.48,0.27,6.91c0.86-0.86,1.36-1.59,2.05-2.01
	c1.66-1,3.95-0.96,4.69-3.41c0.59-1.97,3.41-2.07,3.97-4.26c0.14-0.57,1.14-0.76,0.98-1.58c-0.6-3.11,1.48-5.36,2.48-7.96
	c0.78-2.03,1.7-4.05,1.55-6.37c-0.14-2.15,0.17-4.35-0.08-6.48c-0.28-2.35,1.74-4.23,1.06-6.59c-0.28-0.98,0.56-1.42,1.01-2.08
	c0.49-0.72,2.07-0.14,1.75-0.99c-0.29-0.79-0.2-1.06,0-1.84c0.81-3.17,0.97-6.49,2.19-9.6c0.28-0.72,0.19-1.68,0.02-2.48
	c-0.98-4.37-0.91-4.35-0.02-9.18c0.34-1.86,0.1-3.73,0.92-5.63c0.56-1.29,0.66-3.3-1.1-4.44c-0.58-0.38-0.7-0.96-0.81-1.67
	c-0.48-3.01,1.23-6.26-0.96-9.08c1.21-0.71,1.12-2.21,1.92-3.22c0.41-0.51,0.17-1.62,0.05-2.44c-0.31-2.1-0.13-4.28,0.61-5.92
	c1.46-3.25,1.35-3.26,1.46-8.08c0.04-1.71-0.63-3.45,0.69-5.21c1.32-1.76-0.69-3.58-0.74-5.45c-0.01-0.3,0.05-0.71,0.25-0.88
	c0.91-0.81,0.65-1.38,0.18-2.47c-0.9-2.09-0.74-4.44-0.07-6.65c0.92-3.04,1.84-6.06,1.65-9.32c-0.15-2.56-0.39-5.05-0.87-7.6
	c-0.68-3.6,0.31-7.46-1.15-11.05c0.45-7.72-1.57-15.31-1.07-23.07c0.35-5.47,0.07-10.98,0.07-16.48c0-1,0.33-2.16-0.05-2.97
	c-3.07-6.46-2.18-13.66-3.92-20.35c-0.36-1.38,0.12-2.82-0.45-4.31c-0.5-1.29,0.4-2.85,0.51-4.34c0.38-5.26-1.11-10.39-0.96-15.57
	c0.09-3-0.83-5.73-1.34-8.52c-0.47-2.56-1.39-5.07-1.9-7.69c-0.5-2.56-1.22-5.15-2-7.65c-0.76-2.44-0.49-5.57-3.35-7.1
	c-0.7-0.38-0.44-1.14-0.53-1.77c-0.29-1.98,0.56-3.58,1.5-4.99c2.73,1.08,2.3,3.98,3.51,5.96c-1.21,4.01,4.04,5.78,3.34,9.62
	c-0.01,0.03,0.26,0.15,0.41,0.17c2.3,0.36,1.35,1.8,0.82,2.86c-0.3,0.59-0.9,1.2-0.45,1.71c2.83,3.21,1.68,7.09,1.86,10.72
	c0.16,3.21-0.45,6.54,1.05,9.56c0.83,1.66,0.92,3.33,1,5.1c0.12,2.71-0.67,5.51,0.91,8.11c0.36,0.6,0.38,1.91-0.03,2.4
	c-2.12,2.53-0.91,5.04,0.35,7.09c1.15,1.88,0.89,2.96-0.54,4.18c-1.2,1.03-0.45,1.14,0.53,1.25c0.26,0.03,0.72,0.37,0.71,0.53
	c-0.19,2.11,0.7,4.38-0.43,6.29c-0.66,1.12-0.6,1.69,0.26,2.46c0.74,0.67,1.48,1.36,2.11,2.12c0.81,0.99-0.95,1.38-0.6,2.41
	c0.65,1.9,1.37,3.83,1.62,5.8c0.28,2.13,0.21,4.33,0.03,6.48c-0.24,2.86,0.27,5.67-0.76,8.65c-0.91,2.64-0.66,6.03,0.1,8.82
	c0.97,3.57,1.93,7.04,1.71,10.77c-0.03,0.54-0.32,1.29,0.68,1.49c2.86-3.55,4.05-7.77,4.24-12.2c0.23-5.48,0.07-10.99,0.05-16.48
	c0-0.97,0.11-2.05-0.26-2.89c-1.68-3.83-0.24-7.81-0.73-11.68c2.08-2.48,0.77-5.39,0.92-8.08c0.14-2.49,0.49-6.45,1.63-8.51
	c0.34-0.62,0.71-1.55,0.2-1.65c-2.91-0.56-1.74-2.79-1.69-4.25c0.25-6.69-0.87-13.43,0.88-20.08c0.98-3.71-1.1-7.33-0.93-11.06
	c0.16-3.57-0.83-6.86-1.68-10.27c-0.56-2.24-1.13-4.59-1.5-6.94c-0.35-2.2-1.96-4.25-1.81-6.69c0.16-2.45-0.44-4.74-0.95-7.09
	c-0.52-2.36-2.85-10.99-4.42-12.63c-1.72-1.78-2.66-3.98-3.5-6.08c-0.89-2.22-2.28-3.81-3.84-5.4c-2.98-3.02-6.04-5.95-8.53-9.43
	c-0.67-0.94-0.68-1.76-0.74-2.71c-0.09-1.39-0.09-1.38-2.31-1.82c-0.24-0.05-0.61-0.18-0.66-0.35
	C488.79,196.15,485.72,194.22,484.11,190.5z M404.88,397.11c-0.86,4.22,0.97,9.32,0.96,14.52c-0.02,4.4,1.76,8.63,1.05,13.07
	c-0.03,0.16-0.08,0.42,0.01,0.49c1.86,1.6,1,3.75,0.89,5.59c-0.12,2.04,1.38,3.58,1.12,5.59c-0.53,4.08,1.6,7.96,0.98,12.07
	c-0.05,0.3-0.05,0.77,0.13,0.93c1.54,1.34,0.96,3.15,0.77,4.64c-0.25,1.93,1.25,3.24,1.15,5.09c-0.11,2.2-0.08,4.36,0.76,6.64
	c0.84,2.28,0.37,4.99,1,7.56c0.58,2.41,0.91,5.05,1.02,7.54c0.17,3.89,1.79,7.61,1.18,11.57c-0.2,1.31,0.78,2.2,2.01,2.27
	c1.06,0.05,1.77,0.74,2.6,0.96c1.4,0.36,2.97,0.12,4.47,0.09c3.51-0.07,6.63,0.79,8.99,3.62c0.64,0.76,1.35,1.48,2.13,2.1
	c0.3,0.24,0.93,0.28,1.32,0.15c0.57-0.19,0.53-0.87,0.38-1.29c-0.24-0.66-2.01-1.36,0.33-1.64c1.03-0.13,0.97-1.16,0.26-1.85
	c-0.86-0.83-0.84-1.95-0.37-2.68c1.11-1.71,1.02-3.08,0.01-4.85c-0.54-0.95-0.65-2.54,0.41-3.64c0.54-0.56,0.62-1.14,0.07-1.7
	c-1.38-1.42-0.79-3.21-0.58-4.7c0.26-1.94-1.36-3.16-1.18-5.1c0.47-4.98-1.54-9.72-1.91-14.65c-1.8-1.97-1.52-4.68-0.83-6.51
	c1.29-3.43,0.89-6.81,0.68-10.13c-0.15-2.33-1-4.65-0.88-7.09c0.11-2.16,0.3-4.37-0.05-6.48c-0.37-2.25,1.19-3.95,1.12-6.09
	c-0.15-4.66,0.27-9.35-0.13-13.97c-0.4-4.59,2.02-9.1,0.12-13.68c-0.24-0.57-0.31-1.58,0.02-1.94c1.42-1.56,1.04-3.41,0.89-5.12
	c-0.2-2.33,0.28-4.54,1.14-6.54c0.74-1.71,0.92-3.36,0.91-5.12c-0.01-3.66,0.74-7.53-0.21-10.93c-0.96-3.46-0.58-6.77-0.75-10.13
	c-0.19-3.65-0.03-7.32-0.05-10.99c0-0.62,0.25-1.32-0.4-1.83c-0.37-0.29-0.45-0.5-0.15-1.08c1.3-2.47,0.64-5.2,0.46-7.74
	c-0.2-2.85,1.61-5.27,1.14-8.09c-0.19-1.13-0.16-2.34,0-3.49c0.19-1.4-1.27-2.12-1.08-3.59c0.57-4.33-0.87-8.8,0.99-13.09
	c0.42-0.98,0.55-2.75-0.03-3.38c-1.66-1.82-0.12-4.03-1-5.61c-1.13-2.05-0.95-4.08-0.87-6.13c0.21-5.19-0.38-10.37,0.81-15.6
	c0.95-4.19-0.48-8.78,1.15-13.04c-0.57-5.68,1.16-11.47-0.94-17.09c-0.38-1.02-0.54-2.87,0.03-3.37c2.04-1.79-0.36-4.73,1.91-6.27
	c0-2.33-0.04-4.66,0.01-6.99c0.06-2.67-1.45-4.49-3.27-6.12c-0.28-0.25-1.16-0.34-1.28-0.16c-1.01,1.41-1.61,0.3-2.14-0.35
	c-0.89-1.1-1.66-2.3-2.49-3.45c-0.36-0.5-0.9-0.36-1.34-0.24c-0.21,0.06-0.43,0.49-0.45,0.77c-0.15,2.06-0.05,4.04-0.86,6.14
	c-0.75,1.95-0.69,4.36-0.99,6.54c-0.57,4.25-1.49,8.47-2.38,12.59c-1.14,5.29-2.35,10.62-3.65,15.9
	c-1.39,5.64-1.74,11.52-3.05,17.22c-0.47,2.05-0.27,4.33-0.02,6.47c0.27,2.34-1.53,4.22-1.08,6.59c0.74,3.92-1.66,7.62-0.97,11.57
	c0.03,0.16,0.08,0.41-0.01,0.49c-1.93,1.78-1.05,4.11-0.87,6.08c0.2,2.24-1.42,3.95-1.12,6.09c0.31,2.3-0.1,4.48-1.51,6.35
	c-0.46,0.61-0.47,1.17-0.48,1.81c-0.04,3.39,0.06,6.73-0.9,10.1c-0.82,2.89,0.18,5.97-0.9,9.11c-1,2.91-0.2,6.3-1.04,9.55
	c-0.83,3.2-0.12,6.66-0.99,10.08c-0.82,3.2-0.55,6.68-0.97,10.06c-0.72,5.79,0.05,11.72-1.12,17.56
	C404.51,391.33,404.88,393.73,404.88,397.11z M411.88,496.31c0-3.16-0.28-5.36,0.07-7.45c0.41-2.41-1.2-4.32-1.08-6.59
	c0.11-2.25,0.15-4.51-1.39-6.41c-0.31-0.38-0.68-0.67-0.61-1.25c0.5-4.42-1.42-8.61-1.07-13.07c0.35-4.42-1.01-8.4-3.63-12.93
	c-0.39-0.67-0.49-1.56-0.24-1.83c1.8-1.94,0.27-4.67,1.82-6.8c0.71-0.98,0.7-3.32-0.01-4.31c-1.28-1.81-0.25-4.03-1.61-5.64
	c1.93-2.02-0.22-3.85-0.23-5.77c-0.02-5.05-1.74-9.97-1.05-15.07c0.09-0.64,0.14-1.38-0.09-1.95c-1.51-3.77-2.01-7.68-1.89-11.7
	c0.06-2.07,0.27-4.05,0.85-6.12c0.65-2.31,0.44-4.99,0.07-7.43c-0.39-2.56,1.2-4.63,1.13-7.09c-0.07-2.37-0.29-4.71,0.8-7.14
	c0.75-1.66,0.34-3.96,0.09-5.92c-0.28-2.19,1.28-3.9,1.12-6.09c-0.25-3.31,0.16-6.67-0.13-9.97c-0.3-3.47,1.74-6.62,1.08-10.08
	c-0.09-0.46-0.08-1.03,0.12-1.44c1.82-3.72,2.01-7.68,1.87-11.71c-0.05-1.33-0.45-2.88,0.07-3.96c2.35-4.86,1.21-10.32,2.86-15.29
	c0.74-2.23-0.26-4.65,0.87-7.14c0.98-2.15-0.26-5.11,1.18-7.49c-0.4-5.84,1.96-11.33,2.17-17.14c0.08-2.28,0.9-4.67,0.83-7.08
	c2.44-1.89-0.42-5.26,2-7.16c-0.41-2.62,0.9-5.08,0.87-7.57c-0.03-2.81,1.85-5.25,1.12-8.07c2.35-1.92-0.41-5.26,1.97-7.17
	c-0.64-2.65,1.39-4.98,0.98-7.56c-0.25-1.59,1.31-2.5,1.1-4.09c-0.2-1.54,0.28-3.05,0.74-4.63c0.64-2.15,0.81-4.81-1.67-6.71
	c-1.31-1-1.96-2.69-2.2-4.55c-0.4-3.03-1.9-5.67-4.23-7.69c-0.65-0.56-1.41-0.51-1.72,0.7c-0.92,3.6-1.89,7.19-2.99,10.74
	c-1.8,5.79-3.28,11.6-2.99,17.74c0.08,1.66,0.01,3.33,0.01,4.99c0,4.81,0,4.81-2.78,10.83c-0.13,0.28-0.31,0.72-0.19,0.89
	c1.69,2.43,1.35,4.49-0.98,6.3c-0.16,0.13-0.13,0.66-0.03,0.96c0.76,2.23-1.77,4.37-0.06,6.7c0.8,1.1-0.9,1.89-0.99,3.04
	c-0.1,1.28-1.25,0.75-1.96,0.77c-0.99,0.03-0.93,0.65-1,1.32c-0.26,2.53,0.75,5.23-0.96,7.59c-0.11,0.15,0.06,0.68,0.25,0.85
	c0.94,0.82,0.68,1.41,0.14,2.48c-0.64,1.29-2.67,2.79-0.46,4.52c0.1,0.08-0.29,1.18-0.47,1.19c-1.9,0.06-1.89,0.77-0.95,2.13
	c0.78,1.13,0.95,2.78,0.13,3.63c-3.18,3.28-2.39,7.7-3.62,11.51c-0.63,1.95,0.4,4.05-0.78,6.19c-0.99,1.81,0.37,4.66-2.22,6.08
	c-0.15,0.08,0,0.63-0.05,0.95c-0.41,2.55,0.58,5.13-0.58,7.75c-1.01,2.27-0.79,4.95-1.24,7.43c-0.65,3.54-0.37,7.31-0.11,10.95
	c0.27,3.79-0.81,7.38-1.05,11.07c-0.35,5.35-0.04,10.69-0.74,16.1c-0.67,5.18-1.37,10.77,0.69,16.04c0.26,0.67,0.3,1.65-0.55,2.24
	c-0.68,0.48-0.62,1.5-0.36,1.78c1.85,1.98,0.3,4.07-0.21,5.66c-1.03,3.23-0.11,6.32,0.58,9.07c0.73,2.9,0.8,5.43-0.52,7.74
	c-1.29,2.25-1.22,4.38-0.43,6.44c0.37,0.97,0.86,2.22,0.39,2.67c-1.36,1.3-0.79,2.79-0.83,4.18c-0.09,3.49-0.15,6.99,0,10.48
	c0.16,3.7-0.81,7.49,0.91,11.1c0.3,0.64,0.25,1.93-0.18,2.34c-1.23,1.15-0.58,2.48-0.77,3.72c-0.61,3.94,1.65,7.63,1.02,11.57
	c-0.04,0.27,0.08,0.69,0.28,0.86c1.41,1.23,0.11,2.98,0.77,4.18c0.83,1.51,1.12,3.01,0.91,4.61c-0.62,4.77,1.6,9.31,1.03,14.07
	c-0.04,0.31-0.03,0.68,0.1,0.95c1.51,3.07,2.1,6.31,1.87,9.7c-0.06,0.92,0.42,1.45,0.9,2.14c1.41,2.03,3.8,2.17,5.3,1.41
	c3-1.52,6.49-0.95,9.36-2.78C409.28,494.26,410.67,494.57,411.88,496.31z M431.85,140.09c0,1.17-0.12,2.19,0.03,3.17
	c0.29,1.9,0.84,3.74,2.69,4.74c3.8,2.05,7.85,3.67,11.95,4.84c1.92,0.55,4.56,1.08,6.61-0.64c2.29,0.67,4.84,1.57,6.92,0.65
	c1.79-0.8,3.97-0.04,5.03-0.97c2.11-1.85,3.56,0.11,5.28,0.13c1.5,0.02,3.07,0.28,4.47-0.09c1.04-0.28,2.84-0.54,2.86-1.85
	c0.05-2.6,2.14-5.09,0.99-7.53c-1.16-2.46-0.17-5.18-1.39-7.42c-1.05-1.92-0.04-3.87-0.64-5.74c-0.99-3.09-1.37-6.53-3.01-9.21
	c-1.85-3.03-0.72-7.05-3.68-9.51c-0.03-0.03,0.22-0.49,0.4-0.67c0.54-0.54,0.65-1.12,0.15-1.71c-1.15-1.37-2.96-1.82-4.26-3.09
	c-0.66-0.65-2.09-0.17-3.05,0.79c-0.3,0.3-1.45,0.18-2.3-0.24c-2.89-1.43-5.91-2.59-8.84-3.95c-2.48-1.15-4.97-2.08-7.76-1.71
	c-2.6,3.17-8.95,2.53-8.75,8.65c0.01,0.41-0.66,1.34-0.94,2.06c-0.62,1.58-1.57,3.14-1.71,4.77c-0.5,5.84,0.79,11.79-1.07,17.56
	C432.96,135.49,431.4,137.88,431.85,140.09z M385.87,223.61c-1.26,0.98-0.63,2.33-2.21,2.42c-1.66,0.09,0.06,2.43-1.15,2.75
	c-3.74,1-4.01,4.57-5.55,7.16c-1.13,1.88-1.72,4.2-4.07,4.94c-0.88,0.28-0.92,0.7-0.96,1.37c-0.2,3.61-2.6,6.34-4.28,9.18
	c-1.53,2.59-4.54,4.24-3.81,8c0.11,0.56-1.15,1.39-1.77,2.1c1.22,0.93,0.87,1.62,0.08,2.82c-0.92,1.39-1.57,3.09-1.25,4.98
	c0.15,0.88,0.23,1.82-0.55,2.77c-0.98,1.2-0.9,3.37-0.26,4.19c1.26,1.6,0.51,3.17,0.87,4.69c0.7,3-1.16,5.63-1.06,8.58
	c0.18,5.49,0.09,10.99,0.04,16.48c-0.03,3.4,0.72,6.77,1.24,10.04c0.75,4.75,1.67,9.57,2.9,14.24c0.74,2.82,0.29,6.04,2.35,8.49
	c1.47-1.88,1.69-1.91,1.46-3.81c-0.38-3.15,0.32-6.31,1.56-8.86c1.29-2.68,1.4-5.18,1.5-7.89c0.09-2.55-0.3-5.1,0.89-7.63
	c0.62-1.32-0.2-3.15,1.03-4.59c0.35-0.41,0.36-1.62-0.48-2.21c-2.29-1.6-1.75-4.37-2.28-6.52c-0.69-2.83-0.42-5.98-0.09-8.94
	c0.26-2.27,1.23-4.46,1.92-6.67c0.64-2.06,1.87-4.12,1.84-6.16c-0.03-2.2,1.31-3.94,1.18-6.08c-0.15-2.32-0.13-4.67,0.01-6.99
	c0.07-1.24,0.02-2.42,0.51-3.77c2-5.5,4.5-10.8,6.58-16.26C384.33,236.49,386.09,230.59,385.87,223.61z M429.84,501.28
	c-2.57-3.31-6.23-4.06-9.88-3.39c-1.89,0.34-3.44,1.08-5.21-0.13c-0.32-0.22-1.24-0.18-1.4,0.06c-1.72,2.6-4.34,1.86-6.72,1.88
	c-1.15,0.01-1.48,0.29-1.88,1.52c-0.78,2.39-3.64,2.2-5.41,3.44c-1.75-1.52-4.16-1.02-6.13-2.05c-3.61-1.9-4.69-2.06-5.08-1.6
	c-0.9,1.07,0.43,3.92,3.15,5.42c1.33,0.73,2.79,1.44,3.29,2.62c0.61,1.45,1.51,2.53,2.62,3.37c1.37,1.04,1.52,2.84,2.79,3.86
	c1.22,0.98,1.9,2.82,3.98,2.45c0.79-0.14,1.39,0.66,1.47,1.1c0.34,1.91,2.15,1.98,3.27,2.88c1.89-1.68,2.83,0.65,4.25,0.98
	c0.47,0.11,1.06,0.16,1.46-0.04c3.29-1.66,7.06-2.44,8.78-6.56c0.81-1.95,3.55-3.04,2.74-5.89c-0.07-0.23,0.63-0.71,1.01-1.04
	c1.89-1.66,2.76-3.35,1.13-5.87C427.11,502.85,427.93,501.56,429.84,501.28z M376.92,266.44c0,1.28,0.01,1.61,0,1.94
	c-0.02,0.64-0.15,1.39,0.76,1.52c1.18,0.17,1.23-0.59,1.27-1.52c0.05-1.11-0.54-3.03,0.36-3.19c2.53-0.43,1.69-2.19,1.53-3.34
	c-0.28-2.06,1.43-3.54,1.22-5.53c-0.05-0.45,1.7-1.13-0.15-1.36c-0.68-0.08-1.75-0.51-1.98,0.75c-0.14,0.77-0.19,1.49-0.47,2.29
	C378.35,261.03,377.57,264.2,376.92,266.44z"/>
<path class="st2" d="M468.8,513.71c-0.19-1.07-1.21-1.76-1.05-3.09c0.45-3.67-0.3-7.36,0.88-11.11c0.77-2.43,0.5-5.39-0.77-8.05
	c-0.95-2-1.18-4.25-1.09-6.55c0.3-7.87-1.68-15.65-0.96-23.55c-1.87-4.75-0.75-9.7-0.96-14.56c-0.11-2.74-1.49-5.21-1.12-8.08
	c0.36-2.78,0.05-5.65,0.1-8.48c0.01-0.73-0.33-1.16-0.71-1.72c-0.66-1-0.73-2.74-0.15-3.23c2.3-1.94,1.03-3.81,0.17-5.6
	c-0.48-1-0.31-1.92-0.31-2.86c-0.03-15.31-0.03-30.62,0-45.93c0-0.95-0.49-2.12,0.3-2.84c1.36-1.24,0.5-1.97-0.37-2.8
	c-0.73-0.69-1.56-1.39-0.47-2.4c0.89-0.82,0.45-1.85,0.5-2.78c0.07-1.33,0.11-2.67,0-3.99c-0.69-8.56,1.47-17,0.99-25.54
	c-0.08-1.4,0.52-2.88-0.84-4.17c-0.69-0.65,0.42-1.36,0.77-2.04c0.15-0.29-1.33-0.99-0.85-1.49c2.35-2.49,0.12-4.95-0.22-7.18
	c-0.84-5.64-1.16-6.05,0.06-11.22c0.22-0.94,0.1-1.97,0.11-2.95c0.01-1.83,0.31-3.73-0.09-5.47c-0.38-1.65,1.31-2.87,0.24-4.77
	c-0.78-1.39-0.15-3.57-0.15-5.4c0-1.83,0.29-3.72-0.05-5.48c-1.58-8.15-0.27-16.42-1.14-24.53c-0.43-4.04-0.27-8.11-0.9-12.07
	c-0.88-5.54-1.15-11.13-2.06-16.63c-0.31-1.89-1.15-3.47,0.16-5.19c1.09-0.24,1.75-0.91,2-2c0.76-0.15,1.91,0.5,2-1
	c2.66-2.06,5.63-3.75,7.83-6.37c0.66-0.78,1.45-0.66,2.24-0.62c1.34,0.08,0.82,1.15,0.9,1.87c0.14,1.25,0.27,2.36,0.86,3.64
	c2.99,6.49,5.67,13.14,6.14,20.41c1.54,2.01,1.05,4.36,0.95,6.57c-0.1,2.14,1.51,3.84,1.12,6.09c-0.34,1.94-0.62,4.19,0.05,5.93
	c1.3,3.38,0.24,6.84,0.98,10.09c1.11,4.9,0.77,10.04,2.77,14.81c0.7,1.67,0.22,3.67,0.97,5.58c0.65,1.64,1.59,3.43,1.23,5.53
	c-0.34,1.94,0.03,3.99-0.09,5.98c-0.38,6.56,1.76,12.98,1.04,19.56c-0.19,1.75,1.48,3.12,1.06,5.09c-0.33,1.5-0.23,3.1,0.82,4.63
	c0.54,0.79,0.01,2.27,0.11,3.43c0.23,2.54-0.39,5.06,0.82,7.65c0.6,1.29,0.8,3.48-0.43,5.18c-0.92,1.27-0.9,3.38-0.27,4.21
	c1.34,1.75,0.77,3.47,0.82,5.18c0.11,3.36,1.06,6.52,1.75,9.76c0.51,2.37,1.02,5.3,0.08,7.29c-1.08,2.28,0.22,4.92-1.68,6.82
	c-0.18,0.17-0.15,0.63-0.1,0.94c0.61,3.94-1.72,7.62-1.01,11.57c-1.69,4.93-0.78,10.03-0.99,15.06c-0.09,2.07-1.45,3.84-1.08,6.09
	c0.33,2.01-0.15,4.03-0.77,6.11c-0.68,2.29-0.06,4.95-0.19,7.44c-0.1,2.05,0.59,4.16-0.87,6.15c-0.44,0.6-0.22,2.06,0.35,3.24
	c1.26,2.59,0.93,5.42-0.82,7.66c-1.09,1.38-1.2,2.85-1.76,4.29c-1.8,4.65-2.1,9.38-1.82,14.2c0.14,2.31-0.44,4.44-1.05,6.57
	c-1.08,3.73-0.72,3.67-0.14,8.68c0.36,3.13,0.86,6.47-0.47,9.7c-0.95,2.3-0.89,5.1-0.12,7.24c0.59,1.63,0.67,3.12,0.72,4.67
	c0.11,3.32-0.45,6.75,0.19,9.95c0.51,2.55,0.87,5.04,0.83,7.6c-0.06,3.21-3.09,5.01-6.37,4.51c-2.14-0.32-3.69-1.6-5.59-2.22
	c-0.09-1.49-1.24-0.85-2-1C469.64,514.95,470.29,513.79,468.8,513.71z"/>
<path class="st2" d="M484.11,190.5c1.61,3.73,4.68,5.65,5.68,8.92c0.05,0.17,0.42,0.3,0.66,0.35c2.22,0.44,2.23,0.43,2.31,1.82
	c0.06,0.95,0.07,1.77,0.74,2.71c2.49,3.48,5.56,6.41,8.53,9.43c1.57,1.59,2.96,3.18,3.84,5.4c0.84,2.1,1.78,4.29,3.5,6.08
	c1.58,1.64,3.91,10.27,4.42,12.63c0.52,2.36,1.11,4.65,0.95,7.09c-0.16,2.44,1.46,4.49,1.81,6.69c0.37,2.35,0.94,4.69,1.5,6.94
	c0.85,3.41,1.85,6.71,1.68,10.27c-0.17,3.73,1.91,7.35,0.93,11.06c-1.76,6.65-0.63,13.39-0.88,20.08c-0.05,1.46-1.22,3.69,1.69,4.25
	c0.51,0.1,0.14,1.03-0.2,1.65c-1.14,2.06-1.49,6.01-1.63,8.51c-0.15,2.69,1.16,5.61-0.92,8.08c0.49,3.87-0.95,7.85,0.73,11.68
	c0.37,0.84,0.25,1.92,0.26,2.89c0.02,5.49,0.19,11-0.05,16.48c-0.19,4.43-1.38,8.65-4.24,12.2c-1.01-0.19-0.71-0.95-0.68-1.49
	c0.22-3.73-0.74-7.19-1.71-10.77c-0.76-2.78-1.01-6.17-0.1-8.82c1.03-2.98,0.52-5.78,0.76-8.65c0.18-2.15,0.25-4.35-0.03-6.48
	c-0.26-1.97-0.97-3.9-1.62-5.8c-0.35-1.03,1.41-1.42,0.6-2.41c-0.63-0.77-1.37-1.46-2.11-2.12c-0.86-0.77-0.92-1.34-0.26-2.46
	c1.13-1.91,0.23-4.18,0.43-6.29c0.01-0.16-0.44-0.5-0.71-0.53c-0.98-0.11-1.73-0.22-0.53-1.25c1.43-1.23,1.69-2.3,0.54-4.18
	c-1.26-2.05-2.47-4.56-0.35-7.09c0.41-0.49,0.4-1.8,0.03-2.4c-1.58-2.6-0.79-5.4-0.91-8.11c-0.08-1.77-0.17-3.44-1-5.1
	c-1.51-3.02-0.89-6.34-1.05-9.56c-0.18-3.64,0.97-7.51-1.86-10.72c-0.45-0.51,0.15-1.12,0.45-1.71c0.53-1.06,1.48-2.5-0.82-2.86
	c-0.15-0.02-0.41-0.14-0.41-0.17c0.71-3.84-4.55-5.61-3.34-9.62c-1.21-1.98-0.78-4.88-3.51-5.96c-0.94,1.42-1.78,3.01-1.5,4.99
	c0.09,0.63-0.17,1.4,0.53,1.77c2.85,1.53,2.59,4.66,3.35,7.1c0.78,2.5,1.49,5.09,2,7.65c0.51,2.63,1.44,5.14,1.9,7.69
	c0.51,2.79,1.43,5.52,1.34,8.52c-0.15,5.18,1.35,10.31,0.96,15.57c-0.11,1.5-1.01,3.05-0.51,4.34c0.58,1.49,0.09,2.93,0.45,4.31
	c1.74,6.7,0.85,13.89,3.92,20.35c0.39,0.81,0.05,1.97,0.05,2.97c0,5.49,0.28,11.01-0.07,16.48c-0.5,7.75,1.52,15.34,1.07,23.07
	c1.46,3.59,0.47,7.44,1.15,11.05c0.48,2.55,0.72,5.05,0.87,7.6c0.2,3.26-0.73,6.27-1.65,9.32c-0.67,2.21-0.83,4.57,0.07,6.65
	c0.47,1.09,0.73,1.66-0.18,2.47c-0.19,0.17-0.26,0.58-0.25,0.88c0.05,1.87,2.06,3.69,0.74,5.45c-1.32,1.76-0.66,3.5-0.69,5.21
	c-0.11,4.82,0,4.82-1.46,8.08c-0.74,1.65-0.92,3.83-0.61,5.92c0.12,0.81,0.35,1.93-0.05,2.44c-0.8,1.01-0.72,2.51-1.92,3.22
	c2.19,2.82,0.48,6.07,0.96,9.08c0.11,0.7,0.23,1.29,0.81,1.67c1.76,1.14,1.65,3.15,1.1,4.44c-0.82,1.9-0.58,3.77-0.92,5.63
	c-0.89,4.83-0.96,4.8,0.02,9.18c0.18,0.79,0.27,1.75-0.02,2.48c-1.22,3.11-1.38,6.43-2.19,9.6c-0.2,0.78-0.29,1.05,0,1.84
	c0.32,0.86-1.27,0.27-1.75,0.99c-0.45,0.66-1.29,1.1-1.01,2.08c0.68,2.35-1.34,4.24-1.06,6.59c0.25,2.13-0.06,4.33,0.08,6.48
	c0.15,2.32-0.77,4.33-1.55,6.37c-1,2.61-3.08,4.85-2.48,7.96c0.16,0.82-0.84,1.02-0.98,1.58c-0.56,2.19-3.37,2.29-3.97,4.26
	c-0.74,2.44-3.03,2.41-4.69,3.41c-0.69,0.41-1.19,1.15-2.05,2.01c-0.55-2.43-0.24-4.69-0.27-6.91c-0.06-3.66,0.54-7.43-0.13-10.97
	c-1.7-9.02-0.79-18.06-0.75-27.08c0.02-5.33,1.04-10.67,0.95-16.07c-0.02-1.42,1.15-2.83,1.55-4.31c0.86-3.15,1.94-6.31,2.23-9.53
	c0.19-2.14-0.35-4.26,0.68-6.43c1.08-2.28-0.22-5.03,0.55-7.27c1.23-3.54,0.31-7.16,1.05-10.58c0.37-1.71,0.95-2.86-0.66-4
	c-0.13-0.09-0.36-0.28-0.33-0.34c0.09-0.24,0.29-0.64,0.42-0.62c2.68,0.23,0.52-2.57,2.02-3.19c0.85-0.36-0.06-0.82-0.3-0.99
	c-2.04-1.47-1.74-3.79-1.03-5.36c0.59-1.3,0.66-2.45,0.72-3.7c0.11-2.4-0.08-4.75,0.89-7.13c0.44-1.07,0.48-2.4,1.09-3.55
	c0.75-1.4-1.22-2.21-0.97-3.57c0.28-1.56,0.01-3.08,0.54-4.76c1.23-3.86,1.81-7.96,2.39-11.99c0.19-1.32,0.65-2.93-0.75-4.18
	c-0.35-0.31-0.43-1.48-0.13-1.85c2.52-3.12,0.62-6.33-0.23-9.15c-0.77-2.56-1.07-5.19-1.72-7.74c-0.58-2.3,0.64-4.73,1.55-6.78
	c1.06-2.39-1.02-3.85-0.78-5.96c0.23-1.94,1.07-4.36-1.22-5.92c-0.62-0.42-0.81-1.04-0.65-1.72c0.6-2.5-1.44-4.55-1.08-7.09
	c0.33-2.28,0.07-4.65,0.07-6.98c0-2.83-0.11-5.67,0.03-8.49c0.11-2.21-0.9-4.36-0.26-6.57c-2.06-1.87,0.55-4.9-1.71-6.83
	c-0.41-0.35,0.01-1.6-0.08-2.42c-0.16-1.56,0.59-3.24-0.92-4.65c-0.41-0.39-0.4-1.84,0-2.39c1.57-2.2,0.81-3.62-0.83-5.44
	c-0.9-0.99-1.48-2.7-1.28-4.44c0.23-1.97,0.05-3.99,0.05-5.99c0-1.47,0.28-3.02-1.35-3.95c-0.65-0.37-0.74-1.03-0.65-1.72
	c0.18-1.46,0.82-3.08,0.41-4.35c-0.49-1.49-0.37-2.9-0.36-4.32c0.02-1.59-0.61-3.3,0.51-4.76c0.26-0.34,0.42-0.46,0.21-0.73
	c-2.67-3.38-1.46-7.95-3.53-11.52c-0.08-0.13-0.25-0.32-0.21-0.4c1.87-4.09-0.91-7.41-2.16-10.78c-1.25-3.39-1.33-7.11-2.94-10.25
	c-1.69-3.3-0.86-6.33,0.51-9.03C480.51,200.64,482.38,195.94,484.11,190.5z"/>
<path class="st2" d="M404.88,397.11c0-3.38-0.37-5.78,0.07-8.02c1.16-5.84,0.39-11.77,1.12-17.56c0.42-3.38,0.15-6.86,0.97-10.06
	c0.87-3.41,0.17-6.88,0.99-10.08c0.84-3.24,0.03-6.64,1.04-9.55c1.09-3.14,0.08-6.22,0.9-9.11c0.96-3.37,0.86-6.71,0.9-10.1
	c0.01-0.64,0.03-1.2,0.48-1.81c1.4-1.87,1.82-4.05,1.51-6.35c-0.29-2.14,1.32-3.85,1.12-6.09c-0.18-1.97-1.06-4.3,0.87-6.08
	c0.08-0.08,0.04-0.33,0.01-0.49c-0.69-3.95,1.71-7.65,0.97-11.57c-0.45-2.37,1.35-4.25,1.08-6.59c-0.24-2.14-0.45-4.41,0.02-6.47
	c1.32-5.7,1.67-11.59,3.05-17.22c1.3-5.28,2.5-10.61,3.65-15.9c0.89-4.12,1.81-8.34,2.38-12.59c0.29-2.18,0.23-4.59,0.99-6.54
	c0.81-2.1,0.7-4.08,0.86-6.14c0.02-0.28,0.24-0.71,0.45-0.77c0.44-0.13,0.98-0.26,1.34,0.24c0.83,1.15,1.6,2.35,2.49,3.45
	c0.53,0.66,1.13,1.77,2.14,0.35c0.13-0.18,1.01-0.09,1.28,0.16c1.82,1.63,3.33,3.45,3.27,6.12c-0.05,2.33-0.01,4.66-0.01,6.99
	c-2.27,1.54,0.13,4.47-1.91,6.27c-0.58,0.51-0.42,2.35-0.03,3.37c2.11,5.62,0.38,11.41,0.94,17.09c-1.63,4.26-0.2,8.84-1.15,13.04
	c-1.19,5.24-0.6,10.41-0.81,15.6c-0.08,2.05-0.27,4.08,0.87,6.13c0.88,1.58-0.66,3.8,1,5.61c0.58,0.64,0.46,2.4,0.03,3.38
	c-1.86,4.29-0.41,8.76-0.99,13.09c-0.19,1.47,1.27,2.2,1.08,3.59c-0.16,1.14-0.19,2.35,0,3.49c0.48,2.82-1.34,5.24-1.14,8.09
	c0.18,2.55,0.84,5.28-0.46,7.74c-0.3,0.58-0.22,0.79,0.15,1.08c0.66,0.51,0.4,1.21,0.4,1.83c0.02,3.66-0.13,7.33,0.05,10.99
	c0.17,3.36-0.21,6.67,0.75,10.13c0.94,3.4,0.2,7.27,0.21,10.93c0,1.76-0.18,3.4-0.91,5.12c-0.86,2.01-1.34,4.22-1.14,6.54
	c0.15,1.71,0.53,3.56-0.89,5.12c-0.33,0.36-0.25,1.37-0.02,1.94c1.9,4.58-0.52,9.09-0.12,13.68c0.4,4.63-0.01,9.32,0.13,13.97
	c0.07,2.14-1.49,3.84-1.12,6.09c0.35,2.11,0.16,4.32,0.05,6.48c-0.12,2.44,0.73,4.76,0.88,7.09c0.21,3.32,0.6,6.7-0.68,10.13
	c-0.69,1.84-0.98,4.54,0.83,6.51c0.37,4.93,2.38,9.67,1.91,14.65c-0.18,1.95,1.44,3.16,1.18,5.1c-0.2,1.5-0.8,3.29,0.58,4.7
	c0.55,0.56,0.47,1.14-0.07,1.7c-1.06,1.1-0.95,2.7-0.41,3.64c1.01,1.77,1.1,3.14-0.01,4.85c-0.47,0.73-0.49,1.85,0.37,2.68
	c0.71,0.68,0.77,1.72-0.26,1.85c-2.34,0.28-0.58,0.98-0.33,1.64c0.15,0.41,0.19,1.09-0.38,1.29c-0.39,0.13-1.01,0.09-1.32-0.15
	c-0.78-0.61-1.49-1.33-2.13-2.1c-2.36-2.82-5.48-3.69-8.99-3.62c-1.5,0.03-3.06,0.27-4.47-0.09c-0.84-0.21-1.54-0.9-2.6-0.96
	c-1.23-0.06-2.21-0.96-2.01-2.27c0.61-3.96-1-7.68-1.18-11.57c-0.11-2.49-0.44-5.14-1.02-7.54c-0.62-2.57-0.16-5.28-1-7.56
	c-0.84-2.28-0.88-4.43-0.76-6.64c0.09-1.86-1.4-3.17-1.15-5.09c0.19-1.49,0.77-3.3-0.77-4.64c-0.18-0.16-0.17-0.62-0.13-0.93
	c0.61-4.11-1.51-7.99-0.98-12.07c0.26-2.01-1.24-3.55-1.12-5.59c0.11-1.83,0.96-3.99-0.89-5.59c-0.08-0.07-0.03-0.32-0.01-0.49
	c0.72-4.44-1.06-8.67-1.05-13.07C405.86,406.43,404.02,401.33,404.88,397.11z"/>
<path class="st2" d="M453.82,507.71c-0.15-0.71,0.4-1.54-0.77-2.04c-2.69-1.16-5.42-2.09-7.97-3.76c-1.94-1.27-2.51-2.43-2.18-4.19
	c0.45-2.39-1.06-4.32-1.11-6.59c-0.05-2.04,0.8-4.26-0.91-6.11c-0.25-0.27-0.1-0.98-0.02-1.46c0.75-4.77-1.52-9.32-1-14.07
	c0.17-1.51-1.4-2.43-1.1-4.1c0.23-1.31,0.51-2.81-0.76-4.18c-0.59-0.63-0.59-2.53-0.06-3.32c1.17-1.76,0.03-3.29-0.33-4.66
	c-0.29-1.1-1.18-1.82,0.05-2.83c0.19-0.15,0.29-0.74,0.16-0.89c-1.77-2-0.87-4.39-0.94-6.6c-0.13-4.32-0.66-8.76,0.09-12.96
	c1.66-9.36-0.16-18.8,1.02-28.06c1.3-10.21-0.18-20.46,1.05-30.54c0.98-8.07,0.56-16.06,0.76-24.08c0.2-8.15,0.03-16.31,0.06-24.47
	c0.01-1.58-0.46-3.28,0.96-4.6c0.17-0.15,0.14-0.7,0-0.97c-1.69-3.24-0.42-6.78-1.04-10.07c-1.99-10.66-0.5-21.38-0.9-32.06
	c-0.26-6.87,1.67-13.65,0.96-20.56c1.78-4.08,0.28-8.47,1.12-12.54c0.81-3.89,0.91-7.72,0.83-11.6c-0.03-1.27,0.77-1.85,1.51-2.35
	c0.83-0.57,1.48,0.27,2.02,0.88c0.85,0.97,1.47,1.3,2.83,0.33c1.85-1.33,4.13-2.06,6.26-3.07c1.12,1.52,1.74,3.42,1.4,5.53
	c-0.3,1.85,1.35,3.17,1.1,5.09c-0.19,1.49-0.43,3.07,0.75,4.68c0.72,0.98,0,2.91,0.2,4.38c0.3,2.2-0.96,4.59,0.91,6.63
	c0.33,0.35,0.31,1.54-0.02,1.9c-1.91,2.04-1.33,4.75-0.72,6.56c0.83,2.46,0.74,4.77,0.75,7.15c0.02,3.86,0.54,7.58,1.9,11.21
	c0.38,1.01,0.58,2.41-0.17,3.3c-1.4,1.67-1.17,4.02-0.51,5.11c1.26,2.1-0.29,3.55-0.2,5.28c0.1,1.99,0.66,4.3-0.11,5.93
	c-1.53,3.23-1.32,6.66-0.64,9.59c0.83,3.61,0.58,7.09,0.73,10.63c0.06,1.38,0.57,2.9-0.8,4.18c-0.43,0.4-0.45,1.76-0.1,2.36
	c1.5,2.61,0.75,5.4,0.95,8.11c0.05,0.63-0.22,1.26,0.29,1.88c1.18,1.44,0.93,2.79,0.05,4.44c-0.94,1.76-0.32,3.88-0.33,5.84
	c-0.05,8.49-0.29,16.99,0.06,25.47c0.31,7.58-0.7,15.06-1.27,22.55c-0.27,3.51-0.71,7.04-0.82,10.59c-0.07,2.11,1.36,3.87,1.09,6.09
	c-0.24,2.02-0.6,4.24,0.92,6.07c-0.42,4.06,0.88,8.22-0.69,12.2c-0.14,0.36-0.2,0.36,0.02,0.74c1.13,1.97,0.87,3.83-0.18,5.87
	c-0.27,0.52-1.58,3.13,1.32,3.3c0.71,0.04,0.58,1.07,0.53,1.7c-0.67,7.24,0.67,14.41,1.28,21.54c0.62,7.22,0.41,14.4,0.74,21.58
	c0.03,0.63-0.01,1.22,0.24,1.89c2.27,6.01,2.24,6.51,0.78,13.85c-0.19,0.96-0.03,1.99-0.03,2.99c0,1.33,0.12,2.68-0.02,3.99
	c-0.36,3.23-1.47,3.75-4.6,2.37c-0.41-0.18-0.88-0.12-1.33-0.43c-0.78-0.53-0.84-0.44-1.04,1.4
	C455.26,509.87,454.21,509.29,453.82,507.71z"/>
<path class="st2" d="M411.88,496.31c-1.21-1.74-2.59-2.05-3.43-1.51c-2.87,1.83-6.36,1.26-9.36,2.78c-1.5,0.76-3.89,0.62-5.3-1.41
	c-0.48-0.69-0.97-1.22-0.9-2.14c0.23-3.39-0.36-6.64-1.87-9.7c-0.13-0.27-0.14-0.64-0.1-0.95c0.57-4.76-1.65-9.3-1.03-14.07
	c0.21-1.6-0.09-3.1-0.91-4.61c-0.66-1.2,0.64-2.95-0.77-4.18c-0.2-0.17-0.32-0.59-0.28-0.86c0.63-3.95-1.62-7.63-1.02-11.57
	c0.19-1.24-0.46-2.57,0.77-3.72c0.43-0.4,0.48-1.7,0.18-2.34c-1.72-3.61-0.75-7.4-0.91-11.1c-0.15-3.49-0.09-6.99,0-10.48
	c0.04-1.39-0.53-2.88,0.83-4.18c0.46-0.44-0.02-1.69-0.39-2.67c-0.79-2.06-0.85-4.19,0.43-6.44c1.32-2.31,1.26-4.84,0.52-7.74
	c-0.7-2.75-1.61-5.84-0.58-9.07c0.51-1.59,2.06-3.68,0.21-5.66c-0.26-0.28-0.33-1.3,0.36-1.78c0.84-0.59,0.81-1.57,0.55-2.24
	c-2.06-5.27-1.36-10.86-0.69-16.04c0.7-5.41,0.38-10.74,0.74-16.1c0.24-3.7,1.32-7.29,1.05-11.07c-0.26-3.64-0.54-7.41,0.11-10.95
	c0.45-2.48,0.23-5.16,1.24-7.43c1.17-2.62,0.18-5.19,0.58-7.75c0.05-0.32-0.09-0.87,0.05-0.95c2.59-1.42,1.23-4.26,2.22-6.08
	c1.17-2.14,0.15-4.24,0.78-6.19c1.23-3.82,0.44-8.23,3.62-11.51c0.82-0.85,0.65-2.49-0.13-3.63c-0.94-1.36-0.94-2.07,0.95-2.13
	c0.18-0.01,0.57-1.1,0.47-1.19c-2.21-1.74-0.19-3.23,0.46-4.52c0.54-1.07,0.8-1.66-0.14-2.48c-0.2-0.17-0.36-0.7-0.25-0.85
	c1.72-2.36,0.7-5.06,0.96-7.59c0.07-0.67,0.02-1.29,1-1.32c0.71-0.02,1.86,0.51,1.96-0.77c0.09-1.15,1.79-1.94,0.99-3.04
	c-1.7-2.33,0.82-4.47,0.06-6.7c-0.1-0.29-0.13-0.83,0.03-0.96c2.33-1.81,2.66-3.87,0.98-6.3c-0.12-0.17,0.06-0.62,0.19-0.89
	c2.78-6.02,2.78-6.02,2.78-10.83c0-1.66,0.07-3.33-0.01-4.99c-0.29-6.14,1.19-11.95,2.99-17.74c1.1-3.55,2.06-7.14,2.99-10.74
	c0.31-1.21,1.08-1.26,1.72-0.7c2.33,2.03,3.83,4.66,4.23,7.69c0.25,1.86,0.9,3.55,2.2,4.55c2.48,1.9,2.3,4.56,1.67,6.71
	c-0.47,1.57-0.94,3.09-0.74,4.63c0.2,1.6-1.35,2.5-1.1,4.09c0.41,2.58-1.62,4.9-0.98,7.56c-2.38,1.91,0.37,5.25-1.97,7.17
	c0.73,2.82-1.15,5.27-1.12,8.07c0.03,2.49-1.28,4.95-0.87,7.57c-2.41,1.9,0.44,5.27-2,7.16c0.07,2.42-0.74,4.8-0.83,7.08
	c-0.21,5.81-2.57,11.3-2.17,17.14c-1.44,2.38-0.21,5.34-1.18,7.49c-1.13,2.49-0.13,4.9-0.87,7.14c-1.65,4.97-0.52,10.43-2.86,15.29
	c-0.52,1.08-0.12,2.63-0.07,3.96c0.14,4.03-0.05,7.99-1.87,11.71c-0.2,0.41-0.21,0.98-0.12,1.44c0.66,3.46-1.38,6.61-1.08,10.08
	c0.29,3.3-0.12,6.67,0.13,9.97c0.17,2.19-1.4,3.89-1.12,6.09c0.25,1.97,0.66,4.26-0.09,5.92c-1.09,2.42-0.87,4.77-0.8,7.14
	c0.07,2.46-1.52,4.53-1.13,7.09c0.37,2.44,0.58,5.12-0.07,7.43c-0.58,2.07-0.79,4.05-0.85,6.12c-0.12,4.02,0.38,7.93,1.89,11.7
	c0.23,0.57,0.18,1.31,0.09,1.95c-0.69,5.1,1.03,10.02,1.05,15.07c0.01,1.92,2.16,3.76,0.23,5.77c1.36,1.61,0.32,3.83,1.61,5.64
	c0.71,1,0.72,3.34,0.01,4.31c-1.55,2.12-0.03,4.86-1.82,6.8c-0.25,0.27-0.15,1.17,0.24,1.83c2.62,4.53,3.98,8.51,3.63,12.93
	c-0.36,4.46,1.57,8.65,1.07,13.07c-0.07,0.58,0.31,0.87,0.61,1.25c1.53,1.9,1.5,4.15,1.39,6.41c-0.12,2.27,1.49,4.18,1.08,6.59
	C411.59,490.95,411.88,493.15,411.88,496.31z"/>
<path class="st2" d="M383.91,246.92c0.14-0.95-0.4-2.05,0.38-2.83c0.95-0.95,0.74-1.61-0.12-2.46c-0.53-0.52-0.36-1.59,0.22-1.6
	c1.45-0.03,1.31-0.82,1.58-1.84c0.86-3.19,1.61-6.36,2.12-9.65c0.34-2.19,1-4.39,0.76-6.6c-0.25-2.35,0.94-4.35,1.24-6.56
	c0.48-3.46,1.69-7.03,4.49-9.57c3.14-2.85,5.62-6.38,9.42-8.57c1.45-0.84,2.73-2.23,3.26-4.09c0.37-1.3,1.26-2.33,2.63-2.82
	c-0.61-1.46,0.77-2.35,1.01-3.58c0.24-1.25,1.29-0.68,2.01-0.76c0.98-0.11,0.94,0.63,0.98,1.3c0.27,4.69-0.36,9.2-2.3,13.54
	c-0.81,1.82-1.52,3.84-1.6,5.79c-0.11,2.43-0.63,4.73-0.99,7.09c-0.36,2.38-0.66,4.65-2.01,6.69c-0.23,0.35-0.14,0.97-0.08,1.45
	c0.46,3.77-0.58,7.21-1.94,10.69c-1.38,3.53-1.75,7.32-2.16,11.13c-0.55,5.11-0.92,10.37-3.33,15.07c-0.41,0.79-0.54,1.47-0.57,2.27
	c-0.03,0.82,0.29,1.95-0.13,2.42c-2.46,2.76-1.95,6.07-1.81,9.24c0.08,1.85-0.83,3.43-1.26,5.03c-0.6,2.24-0.46,4.45-0.87,6.62
	c-0.72,3.8-0.88,7.77-2.9,11.28c-0.88,1.52-1.24,3.24-1.05,5.07c0.13,1.32-0.01,2.66,0.04,3.99c0.04,1.17-0.96,1.87-1.15,3.06
	c-0.25,1.51-1.26,2.99-0.82,4.6c0.54,1.94-0.82,3.43-1.23,5.04c-0.74,2.91-0.77,5.74-0.79,8.63c-0.03,3.83,0.03,7.66-0.02,11.49
	c-0.07,5.37-1.63,10.65-0.99,16.07c-1.93,3.89-0.35,8.1-1.05,12.07c-1.75,9.83-0.6,19.72-0.92,29.57c-0.08,2.39,0.14,4.71,0.84,7.12
	c0.9,3.1-0.67,6.36-0.79,9.54c-0.25,6.82-0.66,13.72,0.09,20.46c0.76,6.88,0.27,13.77,1.02,20.57c0.41,3.71,0.09,7.54,0.97,11.06
	c1.18,4.74,0.66,9.42,0.78,14.11c0.05,1.98,0.68,3.86,1.47,5.4c1.32,2.56,1.11,5.47,2.52,7.97c0.86,1.52-1.3,2.84-0.97,4.55
	c0.09,0.46-0.39,0.79-1,0.77c-0.61-0.02-1.01-0.33-0.93-0.85c0.26-1.75-0.29-2.41-2.15-2.21c-1.81,0.19-3.66,0.07-5.49,0.03
	c-2.15-0.04-3.84-1.04-4.3-3.09c-0.41-1.83-1.32-3.51-1.14-5.57c0.28-3.31,0.12-6.66,0.05-9.98c-0.03-1.24,0.48-2.57-0.75-3.71
	c-0.58-0.54-0.41-1.51,0.83-1.63c1.24-0.11,1.11-0.91,0.7-1.73c-1.33-2.65-1.84-5.57-2.78-8.34c-1.66-4.86-3.19-9.66-1-14.77
	c0.24-0.56-0.09-1.35,0.06-1.98c0.41-1.72-1.43-2.77-1.13-4.6c0.24-1.48,0.64-3.18-0.5-4.75c-0.54-0.75,1.45-1.89-0.1-3.17
	c-0.6-0.5-0.28-2.17-0.29-3.31c-0.02-6.33,0.04-12.66-0.05-18.98c-0.02-1.55,0.54-3.16-0.75-4.7c-1.11-1.32,1.79-2.36,0.79-3.97
	c1.25-3.84,1.39-10.15,0.32-13.79c-0.13-0.45-0.36-0.93-0.3-1.36c0.34-2.22-0.84-4.61,0.71-6.69c-1.12-1.88-1.18-4.11-0.64-5.95
	c1.72-5.84,0.53-11.74,0.86-17.6c0.06-1.07,0.34-2.17-0.48-3.3c-1.19-1.64-2.11-3.24,0.14-5.28c1.14-1.03,1.04-3.5,1.36-5.34
	c0.64-3.73,1.79-7.34,2.13-11.15c0.11-1.24,0.46-2.92,1.29-3.89c1.8-2.1,1.56-4.48,1.58-6.87c0.02-2.5,0.25-5.03-0.06-7.49
	c-0.32-2.53,1.18-4.62,1.16-7.09c-0.01-2.36-1.05-4.93,0.75-7.16c0.2-0.25,0.11-0.98-0.11-1.31c-1.07-1.55-1.76-2.79,0.89-3.5
	c0.86-0.23,0.32-1.5,0.35-2.28c0.08-2.4,0.16-4.73,0.9-7.12c0.64-2.05,0.25-4.35,0.94-6.6c0.5-1.63,0.98-3.27,1.73-4.8
	c1.47-3.01,1.52-2.99,1.44-7.57c-0.03-1.65-0.21-3.31,1.49-4.39c0.86-0.55,0.61-1.53,0.48-2.27c-0.34-1.95,0.91-3.3,1.67-4.82
	c0.41-0.82,2.01-1.41,1.25-2.36c-0.84-1.05-1.53-2.68-3.39-2.55C385.58,246.97,384.75,246.92,383.91,246.92z"/>
<path class="st3" d="M436.84,210.95c-1.94,0.86-1.45,3.27-2.91,4.54c-0.67,0.58,0.48,1.35,0.87,2.03c0.2,0.34,0.23,1.08-0.36,1.28
	c-0.39,0.13-1.06,0.13-1.31-0.12c-4.12-4.03-8.18-8.13-9.88-13.86c-0.51-1.71-1.16-3.15-2.43-4.52c-1.93-2.1-2.66-4.9-2.93-7.73
	c-0.13-1.32-0.24-2.71,0.02-3.98c0.52-2.53-0.4-4.99-1.26-7c-0.87-2.03-0.63-3.65-0.6-5.66c1.15,0.8,1.98,1.41,1.84,2.8
	c-0.2,2.05,0.79,3.68,2.26,5.04c0.47,0.43,1.01,1.18,1.49,1.16c3.96-0.17,5.56,2.65,7.22,5.46c0.24,0.41,0.67,0.72,0.99,1.09
	c0.88,1.06,2.02,2.2,3.33,1.41c1.29-0.78,2.74-1.74,2.69-3.76c-0.07-2.74-1.17-4.24-3.74-4.11c-3.06,0.16-5.3-1.2-7.08-3.4
	c-2.41-2.97-4.45-6.22-7.02-9.1c-1.39-1.56-1.71-3.96-1.08-5.95c0.83-2.62,1.49-5.41,3.42-7.56c1.29-1.44,2.65-2.53,2.65-4.96
	c-0.01-2.43,3.24-3.82,5.58-2.65c0.68,0.34,1.44,0.55,2.13,0.93c4.83,2.68,10.02,4.04,15.5,4.83c2.51,0.36,4.77,1.02,7.2-0.11
	c0.53-0.25,1.56-0.26,1.9,0.07c1.02,1,1.62,0.98,2.88,0.17c0.95-0.61,2.58-0.43,3.84-0.23c1.46,0.24,2.13-1.54,3.6-1.08
	c0.73,0.23,1.63-0.2,2.25,0.62c0.62,0.8,1.54,0.28,2.32,0.41c1.5,0.25,2.39-1.48,4.1-1.08c1.31,0.31,2.85,0.45,4.15-0.83
	c0.36-0.35,1.63-0.35,2.51,1.18c1.46,2.54,1.61,5.34,2.72,7.89c0.47,1.08,0.44,2.97-1.1,3.4c-2,0.55-2.52,2.4-3.3,3.64
	c-1.14,1.84-2.01,3.22-4.37,2.77c-0.8-0.15-1.34,0.45-1.56,0.97c-1.3,2.96-3.99,4.69-6.04,6.98c-1.59,1.77-2.81,3.77-3.92,5.86
	c-0.31,0.59-0.67,1.06-0.61,1.76c0.05,0.48-0.14,1.11,0.43,1.29c0.39,0.13,1.01,0.07,1.32-0.17c0.78-0.62,1.59-1.29,2.11-2.11
	c1.28-2,3.1-3.19,5.18-4.19c1.7-0.82,3.84-1.15,4.52-3.42c0.12-0.39,0.65-0.73,1.07-0.96c3.19-1.7,3.21-1.72,3.36-5.59
	c1.18-0.74,2.44-0.43,3.81-0.25c0.7,3.94-0.6,7.52-1.84,11.08c-0.91,2.61-2.57,5.12-2.79,7.77c-0.17,2.09-2.67,2.59-2.19,4.65
	c0.54,2.29-1.61,3.01-2.57,4.43c-0.6,0.88-0.96,1.93-1.41,2.91c-0.06,0.14-0.04,0.34,0,0.49c0.29,1.27-0.78,2.21-1.45,2.31
	c-3.45,0.53-3.1,6.57-7.8,5.22c-1.01-0.29-1.5-0.29-1.91-1.54c-0.32-0.97-1.37-2.24-2.82-2.52c-2.2-5.16-7.39-3.16-11.12-4.67
	c-0.97-0.39-1.74-0.35-2.7-0.03c-2.83,0.92-5.88,1.43-7.15,4.7C437.75,209.2,437.08,209.86,436.84,210.95z"/>
<path class="st4" d="M431.85,140.09c-0.45-2.21,1.11-4.6,0-6.99c1.86-5.77,0.57-11.72,1.07-17.56c0.14-1.63,1.09-3.19,1.71-4.77
	c0.28-0.72,0.95-1.65,0.94-2.06c-0.19-6.12,6.16-5.49,8.75-8.65c2.79-0.36,5.29,0.57,7.76,1.71c2.93,1.36,5.95,2.52,8.84,3.95
	c0.85,0.42,1.99,0.54,2.3,0.24c0.96-0.95,2.39-1.44,3.05-0.79c1.29,1.28,3.11,1.73,4.26,3.09c0.49,0.59,0.39,1.17-0.15,1.71
	c-0.19,0.19-0.44,0.65-0.4,0.67c2.97,2.46,1.84,6.48,3.68,9.51c1.64,2.68,2.02,6.12,3.01,9.21c0.6,1.87-0.42,3.82,0.64,5.74
	c1.22,2.23,0.22,4.95,1.39,7.42c1.15,2.44-0.94,4.93-0.99,7.53c-0.03,1.31-1.83,1.58-2.86,1.85c-1.4,0.37-2.97,0.1-4.47,0.09
	c-1.72-0.02-3.17-1.98-5.28-0.13c-1.06,0.93-3.24,0.18-5.03,0.97c-2.09,0.93-4.64,0.02-6.92-0.65c-2.04,1.72-4.69,1.19-6.61,0.64
	c-4.1-1.17-8.15-2.79-11.95-4.84c-1.85-1-2.4-2.84-2.69-4.74C431.73,142.28,431.85,141.26,431.85,140.09z"/>
<path class="st2" d="M385.87,223.61c0.22,6.98-1.55,12.88-3.82,18.83c-2.09,5.47-4.58,10.76-6.58,16.26
	c-0.49,1.34-0.44,2.53-0.51,3.77c-0.13,2.32-0.15,4.67-0.01,6.99c0.13,2.14-1.21,3.88-1.18,6.08c0.02,2.05-1.2,4.1-1.84,6.16
	c-0.69,2.21-1.67,4.4-1.92,6.67c-0.33,2.96-0.6,6.11,0.09,8.94c0.53,2.15-0.01,4.91,2.28,6.52c0.84,0.59,0.83,1.8,0.48,2.21
	c-1.23,1.44-0.41,3.27-1.03,4.59c-1.19,2.53-0.8,5.07-0.89,7.63c-0.09,2.7-0.2,5.21-1.5,7.89c-1.23,2.55-1.93,5.71-1.56,8.86
	c0.23,1.9,0.01,1.93-1.46,3.81c-2.07-2.45-1.61-5.66-2.35-8.49c-1.23-4.67-2.15-9.49-2.9-14.24c-0.52-3.27-1.27-6.64-1.24-10.04
	c0.05-5.49,0.14-10.99-0.04-16.48c-0.09-2.95,1.76-5.58,1.06-8.58c-0.36-1.52,0.39-3.09-0.87-4.69c-0.64-0.82-0.73-2.99,0.26-4.19
	c0.78-0.95,0.7-1.89,0.55-2.77c-0.33-1.89,0.33-3.59,1.25-4.98c0.79-1.2,1.14-1.9-0.08-2.82c0.63-0.71,1.88-1.54,1.77-2.1
	c-0.73-3.76,2.28-5.41,3.81-8c1.68-2.85,4.08-5.57,4.28-9.18c0.04-0.67,0.08-1.09,0.96-1.37c2.35-0.74,2.95-3.06,4.07-4.94
	c1.55-2.59,1.81-6.16,5.55-7.16c1.2-0.32-0.51-2.66,1.15-2.75C385.25,225.94,384.62,224.58,385.87,223.61z"/>
<path class="st5" d="M429.84,501.28c-1.91,0.28-2.73,1.58-1.79,3.01c1.63,2.51,0.76,4.2-1.13,5.87c-0.37,0.33-1.07,0.81-1.01,1.04
	c0.81,2.85-1.92,3.94-2.74,5.89c-1.72,4.11-5.49,4.89-8.78,6.56c-0.4,0.2-1,0.15-1.46,0.04c-1.42-0.33-2.36-2.66-4.25-0.98
	c-1.12-0.91-2.93-0.97-3.27-2.88c-0.08-0.43-0.68-1.24-1.47-1.1c-2.08,0.37-2.76-1.47-3.98-2.45c-1.27-1.02-1.42-2.82-2.79-3.86
	c-1.11-0.84-2.01-1.92-2.62-3.37c-0.5-1.18-1.96-1.9-3.29-2.62c-2.73-1.49-4.05-4.35-3.15-5.42c0.39-0.46,1.47-0.3,5.08,1.6
	c1.98,1.04,4.38,0.53,6.13,2.05c1.77-1.24,4.63-1.05,5.41-3.44c0.4-1.23,0.73-1.51,1.88-1.52c2.38-0.02,5,0.72,6.72-1.88
	c0.16-0.24,1.08-0.28,1.4-0.06c1.77,1.21,3.32,0.47,5.21,0.13C423.61,497.22,427.27,497.97,429.84,501.28z"/>
<path class="st3" d="M453.82,507.71c0.39,1.58,1.45,2.16,3,2c1.55,0.75,3.07,1.48,4.35,2.75c0.75,0.75,1.78,3.68,3.16,0.3
	c0.07-0.17,0.92-0.24,1.29,0.25c0.86,1.14,2.11,0.54,3.19,0.69c0.15,0.76-0.5,1.91,1,2c0.09,1.49,1.24,0.85,2,1
	c0.63,2.14-0.77,3.34-2.09,4.61c-0.66,0.64-0.88,0-0.88-0.34c-0.01-2.16-1.69-1.29-2.51-1.17c-0.62,0.09-1.41,0.63-2.02,1.01
	c-5.83,3.66-11.09,1.98-16.26-1.41c-1.52-1-3.72-1.38-3.27-4.06c0.07-0.4-0.73-1.04-1.24-1.43c-2.93-2.2-3.6-5.84-5.57-8.65
	c-0.24-0.34-0.14-0.95-0.1-1.44c0.04-0.55-0.17-1.1,0.97-0.73c2.5,0.81,5.14,1.2,7.7,1.81
	C449.07,505.54,451.17,507.34,453.82,507.71z"/>
<path class="st6" d="M458.81,214.95c1.57,0,3.14,0,5.34,0c-1.61,1.33-1.3,2.7-1.34,4c-0.76,0.15-1.91-0.5-2,1
	c-1.63-0.3-2.3,0.36-2,2c-1.07,0.15-2.24-0.4-3.18,0.66c-1.8,2.05-4.65,2.32-6.75,3.85c-0.94,0.69-2,0.73-2.73,0.43
	c-3.4-1.39-6.83-2.88-8.28-6.68c-0.23-0.59,0.01-1.32,0.97-1.25c0.12,0.28,0.2,0.79,0.35,0.81c4.65,0.66,9.11,0.09,13.36-2.03
	C454.59,216.72,456.32,214.97,458.81,214.95z"/>
<path class="st6" d="M436.84,210.95c0.24-1.09,0.91-1.76,2-2c1.07-0.15,2.11,0.16,3.22-0.58c0.94-0.63,1.95-1.56,3.33-1.42
	c4.03,0.41,8.37-1.21,12.01,1.95c0.47,0.41,1.59,0.06,2.41,0.06c0.08,1.95-0.7,3.06-2.81,3.01c-2.3-0.05-4.6-0.01-6.9-0.01
	c-0.68,0-1.34,0.03-1.27,1c-1.27-0.49-1.94,0.98-3,0.98c-3.36-0.02-6.12,1.65-8.99,3.02c-1.83-0.32-1.2-2.13-0.83-2.49
	C437.13,213.36,436.73,212.14,436.84,210.95z"/>
<path class="st7" d="M436.84,216.95c2.87-1.37,5.63-3.04,8.99-3.02c1.06,0.01,1.72-1.46,3-0.98c3.07,0,6.15-0.02,9.22,0.01
	c1.81,0.01,1.81,0.05,0.77,1.99c-2.49,0.02-4.22,1.77-6.26,2.78c-4.24,2.11-8.71,2.69-13.36,2.03c-0.15-0.02-0.24-0.53-0.35-0.81
	c0.11-0.61-0.26-0.92-0.76-0.98C437.41,217.89,436.77,217.89,436.84,216.95z"/>
<path class="st2" d="M376.92,266.44c0.65-2.24,1.43-5.4,2.53-8.45c0.29-0.79,0.33-1.52,0.47-2.29c0.23-1.26,1.3-0.83,1.98-0.75
	c1.85,0.23,0.1,0.91,0.15,1.36c0.22,1.99-1.5,3.47-1.22,5.53c0.16,1.16,1,2.91-1.53,3.34c-0.9,0.15-0.31,2.08-0.36,3.19
	c-0.04,0.92-0.1,1.68-1.27,1.52c-0.91-0.13-0.77-0.87-0.76-1.52C376.93,268.05,376.92,267.72,376.92,266.44z"/>
<path class="st2" d="M384.91,249.44c0.37,1.03-1.55,2-0.07,3.05c-0.12,0.12-0.23,0.23-0.35,0.35c-0.35,0.35-0.65,0.92-1.04,0.99
	c-0.74,0.13-1.67,0.45-2.27-0.2c-0.57-0.63-0.39-1.57-0.13-2.27c0.21-0.56,0.92-0.9,1.31-1.41c0.27-0.35,0.33-0.85,0.56-1.22
	c0.38-0.62-2.24-1.32,0.02-1.76c1.39-0.27,1.59,1.05,1.96,2C384.96,249.1,384.91,249.28,384.91,249.44z"/>
<path d="M458.81,221.94c-0.3-1.64,0.36-2.3,2-2C460.56,221.04,459.9,221.7,458.81,221.94z"/>
<path d="M460.81,219.95c0.09-1.49,1.24-0.85,2-1C462.72,220.44,461.56,219.8,460.81,219.95z"/>
<path d="M469.79,515.71c-1.49-0.09-0.85-1.24-1-2C470.29,513.79,469.64,514.95,469.79,515.71z"/>
<path d="M471.79,516.71c-0.76-0.15-1.91,0.5-2-1C470.55,515.86,471.71,515.21,471.79,516.71z"/>
<path d="M459.81,208.96c-0.82,0-1.94,0.35-2.41-0.06c-3.64-3.16-7.98-1.54-12.01-1.95c-1.37-0.14-2.39,0.8-3.33,1.42
	c-1.12,0.75-2.15,0.43-3.22,0.58c1.27-3.27,4.32-3.78,7.15-4.7c0.97-0.31,1.74-0.36,2.7,0.03
	C452.42,205.8,457.6,203.79,459.81,208.96z"/>
</svg>
