<?xml version="1.0" encoding="utf-8"?>
<!-- Generator: Adobe Illustrator 25.2.1, SVG Export Plug-In . SVG Version: 6.00 Build 0)  -->
<svg version="1.1" id="Capa_1" xmlns="http://www.w3.org/2000/svg" xmlns:xlink="http://www.w3.org/1999/xlink" x="0px" y="0px"
	 viewBox="0 0 900 650" style="enable-background:new 0 0 900 650;" xml:space="preserve">
<style type="text/css">
	.st0{fill:#DC22B2;}
	.st1{fill:#75A3E5;}
	.st2{fill:#B3764C;}
	.st3{fill:#4ABAA5;}
	.st4{fill:#B66A3E;}
	.st5{fill:#FF8C56;}
	.st6{fill:#DB4741;}
	.st7{fill:#FF9B26;}
	.st8{fill:#A4A7A9;}
	.st9{fill:#F67E4D;}
	.st10{fill:#B37B85;}
	.st11{fill:#A23F56;}
	.st12{fill:#6A3B48;}
</style>
<g>
	<path d="M483.47,21.58c3.65,5.56,6.71,11.32,11.13,16.5l1.34-1.34c4.22,5.76,11.51,9.21,18.61,7.67l0.77-0.77l-5.56-1.34
		c31.08-1.73,59.86,0.77,91.12-2.11c2.49,0.19,7.29-0.58,10.36,0.77c1.92-1.15,4.99-0.58,5.56-3.45c1.34,4.8,9.21,2.3,13.04,2.11
		c9.79,0.96,21.49,0.96,30.5,0l1.34-1.54c9.97,0.96,20.53-1.34,28.97-0.58c1.73,0.96,3.45,1.73,4.8,3.45l-0.77,0.58
		c4.03,2.88-2.3,8.44,0.77,13.24l-1.34,1.34c1.92,1.34-0.58,2.49,0,4.22c3.07,7.29-0.19,14.58,2.69,22.06
		c-0.96,1.15-2.49,1.92-2.69,3.45l0.58,0.58c-2.49,4.03,4.99,7.29,0.77,11.13c-0.58,2.49,1.53,6.33-2.11,7.67
		c0.58,6.33,2.11,13.24,1.34,19.18c0.58,1.54-0.96,6.14,1.54,6.91c2.3,1.15,3.64-1.92,5.37,0c-0.96,0-1.53,1.15-2.69,0.77
		c0.77,4.8-7.48,1.54-3.45,6.91c0.38,10.17-1.15,23.02,1.34,33.19c2.68,0.77,3.84-2.11,6.33-2.11c0,0.77-0.19,1.53,0.58,2.11
		c-2.49,1.34-7.29,0.58-7.48,4.8c0.38,0.38,0.77,0.96,1.34,0.58l0.58-0.58c1.53,0.77,0.38,2.49,0,3.45
		c0.77,12.66,1.53,26.09,2.11,37.98l-0.58,0.58c2.49,12.66-1.53,26.09,4.8,36.64c-0.19,5.37-0.19,12.28,2.68,17.27
		c0.38-0.38,0.96-0.77,0.77-1.34c3.45,1.53-1.15,4.99,1.34,7.67l-1.34-6.33c-1.53,5.56-1.34,12.28-1.34,18.03
		c-0.38,0.38-0.96,0.77-0.77,1.34l0.77,0.77c-0.38,2.11,0.58,6.33-0.77,8.82c0.19,0.96-0.58,2.3,0.77,2.88
		c0.38-0.96,1.15-0.77,1.92-0.77c-3.45,0.38-1.53,4.03-1.92,6.33l0.58,0.58l-0.58,0.77c0.96,16.69,3.84,32.8,2.69,50.45l1.34,1.34
		c-0.96,1.73,2.11,4.6,0,6.91l2.88,18.61c0.58-0.19,0.96,0.38,1.34,0.77c-3.26,6.14,0.19,13.24,0,19.95c1.15,3.07,3.26,0,4.8,0
		c1.34-0.38,1.92,0.58,2.69,1.34c-14,1.15-2.11,16.12-4.8,24.94l-0.58,0.58l1.92,20.72c2.88,0.38,2.11,3.26,1.53,4.99l-1.53,1.34
		c0.96,9.98,0.96,20.72,2.88,30.31l-0.77,0.77c1.15,7.48,1.15,16.5,0,24.17c-0.58,3.26,0.96,7.29,1.34,10.94
		c3.26,25.71,7.29,51.22,12.47,75.97c-1.34,3.07-2.49,4.03-6.14,3.45l-0.77-0.58c-6.14,0.58-11.89,4.41-18.61,1.92
		c-7.29,4.6-15.73-0.19-22.83,3.45c-2.3,0.38-4.99-0.58-6.91,0.77l-0.58-0.77c-17.07-1.15-33.38,5.37-51.22,2.11
		c-11.13,2.49-24.75,0.96-35.87,1.34c-2.11,4.03-6.33,3.07-9.02,5.56c0.38,0.38,0.77,0.96,1.53,0.77
		c-5.18,2.88-13.04,2.49-18.8,5.56c-11.32,2.49-25.13,0.77-36.45,1.34l-0.77-0.77l-0.77,0.77c-9.02,0.58-17.84-4.03-26.09-1.34
		c-1.73,0.19-3.07-1.73-4.22,0.57c-4.99-2.49-9.79-0.38-15.16-2.11c-0.58-0.19,3.65,0.58,4.8-0.58c-7.48-4.8-13.43,2.88-21.49,1.34
		c-3.26-1.34-8.06-0.38-10.94-0.77c-1.53,1.34-3.45,1.73-5.56,1.54c-0.77-1.35-1.92,0.19-2.69,0.57c-0.77,2.11-3.07,0.77-4.22,2.11
		c-5.76-3.84-12.09-1.34-18.03-1.34c-1.34-0.96-3.84,0-5.37,0.58c-0.58-0.77-1.34-0.58-2.11-0.58l-1.34,1.34l-0.77-0.77
		c-10.74,1.53-21.68,2.88-32.42,4.22l0.58,0.77c-0.77,1.15-4.22-3.26-6.91-0.77l0.77,0.77c-0.96,1.92-5.95-1.34-6.14,2.69
		c-5.95,1.34-13.24-5.76-16.69,0.77c-0.77,0-1.53,0.19-2.11-0.77c0.38-0.39,0.96-0.77,0.77-1.35c-1.34-1.15-4.03-1.15-5.56,0
		c-1.15,2.11-2.11-0.96-3.45-0.77c-7.29,3.07-20.91-4.03-23.4,6.33c-0.19-1.73,1.15-3.07,0.77-4.99c-3.26-0.19-6.52-2.5-9.78-0.58
		c-0.38-0.96-1.34-0.77-2.11-0.77l-0.58,0.77c-0.38-0.38-0.77-0.96-1.34-0.77l-0.77,0.77c-3.45,0.19-9.21-0.57-13.04,0.58
		c0.77,2.3,3.07,1.15,4.8,1.53l0.58-0.77c0.58,0.96,1.34,0.77,2.11,0.77l0.77-0.77c1.15,0.57,5.56-1.15,6.14,1.34
		c-2.49,0.19-4.8-1.53-7.48,0l-0.77-0.58c-12.09,2.49-24.75-0.38-36.64,0.58c-0.38-0.38-0.77-0.96-1.34-0.58c-3.84,0-9.98,0-13.81,0
		c-0.96,0.19-1.34-0.96-2.11-1.53c-1.15,0.77-1.73,2.88-3.45,2.11c-0.96-6.14-6.52,1.34-10.36-2.11
		c-11.89,0.58-23.6,0.19-35.11-2.69c-2.69-1.92,2.11-4.03-1.53-5.56c1.34-2.49,0.58-5.95,0.77-9.02
		c-3.26-3.07,0.58-10.55-0.77-15.16l-0.58,0.77c-1.15-0.58-1.15-3.65,0-4.8c0.38-1.92-0.96-4.6-1.34-6.91
		c0.58-4.99,2.11-11.9-1.53-15.92c4.03-9.02-1.34-17.46-0.58-27.05c-1.15-4.8-1.15-10.94,0-15.73c-0.38-1.73-2.3-2.88-3.45-4.22
		h2.69c1.34-16.5-2.3-30.89-2.11-47c-0.38-0.77-1.15-0.58-1.92-0.58c0.77-2.49-2.69-2.3-2.88-4.22c0.19-2.3-0.38-4.6,1.34-6.14
		c1.15,1.34,2.11-1.34,3.45-1.34c-0.19-2.88,0.58-6.14-0.58-8.44c1.53-0.77-0.19-1.73,0-2.69c1.53-15.35-0.19-29.54,1.34-44.89
		c-1.73-2.11-2.49-4.6-2.11-7.67c0.77-0.19,0.96,0.38,1.34,0.77c1.34-1.92-2.49-5.56,0.77-6.91c-1.53-15.73,0.19-27.63-1.34-43.55
		c-1.54-11.13,0-23.41-1.34-34.53c1.73-5.18-0.58-12.85-0.77-17.84c-1.53-16.11-5.37-32.23-4.8-48.34l-1.34-1.53
		c2.49-4.41,0.77-11.32,1.34-15.73l-0.77-0.77c0-1.92,0-6.33,0-8.25c1.34-0.96,0.38-2.49,0-3.45l-1.34-1.34
		c1.73-3.45,2.49-8.25,2.11-11.89c-5.37-14.96,1.53-29.35-0.77-45.47c0.96-18.03,0.77-37.99,2.88-53.91
		c-0.96-0.38-0.77-1.34-0.77-2.11l0.77-0.58c-0.96-1.54,0.77-4.41-0.77-6.33c2.49-5.37-2.11-11.51,1.34-16.5
		c0.38-6.33,2.88-17.07-2.11-19.95l-1.92-13.81c3.26-0.19,0.96-4.03,2.69-5.56l-1.34-2.88c-1.92,1.34-1.73,2.88-4.22,2.88
		c-1.34-2.69,2.3-4.99,2.88-7.67c3.07-1.34,6.14-7.67,9.59-4.03c33.96,0.96,67.91-1.54,102.83,1.34l0.77-0.77
		c0.58,1.34,1.73,0.58,2.69,0.77l0.77-0.77c11.51,0,23.4,3.07,34.53,0c2.88,1.73,7.87,2.49,10.36,0.77v-0.77h0.58
		c0.38,0.77-0.19,0.96-0.58,1.34c0.38,0.96,1.34,0.77,2.11,0.77l0.58-0.77c1.54,1.34,3.45-0.19,4.8-0.58
		c2.3,4.99,7.87,1.73,11.89,2.69l1.34-1.34c25.52,0.96,51.03,3.84,76.55,2.69c0.96,1.73,2.69,1.34,4.22,1.53
		c2.3-1.53,4.41-3.64,7.67-2.88l1.34,1.34l1.34-1.34l-0.77-0.58c1.73-0.19,2.49-2.69,4.22-2.88c-2.3-2.69-1.92-6.52-4.8-9.02
		c-2.3-4.03-6.52-9.02-11.7-8.82c-1.53-4.6-7.29-4.22-8.44-8.44c2.11-0.58,5.18-2.69,6.91,0l1.53,1.54
		c0.38-1.34,1.73-0.58,2.69-0.77c3.84,5.56,12.09,3.64,16.5,9.02c4.41-3.64,6.91,3.84,10.36,2.11c2.88,3.26,6.33,5.56,9.78,7.48
		c1.34-3.07-1.34-6.14-1.34-9.59c-0.19-6.52-4.03-11.32-6.91-16.69C476.95,7.96,480.6,16.21,483.47,21.58z"/>
	<path class="st0" d="M477.34,40.96c8.06,2.49,8.63,14.2,17.84,13.81l4.8,4.03c2.69-2.88,5.37,2.49,8.44,2.88
		c3.07,0.58,6.14,3.45,9.59,1.34c0.58-3.45-4.03-1.53-4.22-4.8c-4.41,1.34-8.25-2.88-12.28-4.22c-6.33-4.22-10.74-8.82-16.69-13.81
		c0.96-0.77,1.15-1.73,1.34-2.69c-4.99-1.73-4.41-8.25-6.14-12.47c3.45-0.96,3.64,3.26,5.56,4.8l-0.77,0.77
		c2.3,3.84,3.64,8.82,6.91,11.7l0.77-0.77c3.26,2.49,2.88,7.67,7.48,8.44c0.58,1.34,2.11,2.88,3.45,3.45l0.77-0.77
		c-0.96-2.11-3.07-3.64-4.22-5.56c0.38-0.38,0.96-0.77,0.77-1.34l-1.34-1.34c8.25,4.6,18.8,4.22,26.28,10.93
		c4.41,0.19,8.63,2.11,10.94,5.56c-1.53-0.38-3.26-2.88-4.8-1.34c1.92,3.45,6.14,4.03,9.59,4.8c0.38-0.38,0.96-0.77,0.77-1.34
		l-0.77-0.77c1.92,4.6,8.06,3.26,9.78,8.44c0.77-0.19,1.53,0,2.11-0.77l-1.54-1.34c6.52,6.91,14.97,13.62,20.72,22.06
		c8.25,4.03,10.17,14.39,15.92,21.49c-0.58,4.22,3.64,6.71,4.8,10.36c1.92,3.84,2.11,9.4,2.88,13.05c0.38,0.38,0.77,0.77,0.58,1.34
		c-0.38-0.38-0.58-0.96-1.34-0.77c-0.19,2.11,0.96,5.18,1.34,7.67l2.88,2.11c-2.88,2.88,2.49,7.87,0.58,11.7
		c2.69,4.99,4.41,10.36,5.56,15.92c-3.84,2.49,1.53,4.6,0.77,7.48c4.03,3.07,0.38,7.1,3.45,10.36c-0.77,0.19-1.73,0-2.11,0.77
		c-0.58,2.69,4.03,4.22,1.34,6.91c1.92,1.34-0.38,2.69-0.58,4.22c6.71,14.39,4.8,32.42,6.14,48.92c-3.07,1.73-0.19,6.71-2.11,9.78
		c-3.84-0.96-5.56-5.56-7.48-7.67h-1.54c0.96-0.38,0.77-1.34,0.77-2.11l-15.16-18.61c-0.19-0.96,1.54-2.11,0-2.69l-0.77,0.58
		c-2.49-2.3-5.37-5.56-6.91-9.02c0.96,0.38,1.34-0.77,2.11-1.34c-1.73-0.96-2.11-0.96-4.22-0.58c0-0.77-0.19-1.73,0.77-2.11
		l-1.34-1.34l-0.77,0.58c-2.68-3.64-6.33-7.87-4.8-12.47c3.45-2.49,0.19-6.91,2.69-9.59c-0.96-2.3-2.11-0.38-3.45,0v0.77
		c-0.96-2.11,2.68-7.1-2.69-6.33l-2.11,8.25c-2.88-2.69-2.5-10.93-6.91-15.16c0-1.34,0.58-4.99-0.58-6.91l-0.77,0.77l-2.11-4.22
		c-2.69,1.15-0.19,2.69,0,4.22c-2.11-2.11-4.41-6.52-3.45-9.78l-1.34,2.11c-0.19-1.15,0.58-2.69-0.77-3.45
		c-0.58-0.19-0.96,0.38-1.34,0.77c-4.99-10.93-13.62-19.18-24.17-25.51c-4.03,0.96-7.67-3.07-10.94-5.56
		c-0.38,0.38-0.96,0.77-0.77,1.34l2.11,2.11c-6.91-2.3-13.24-6.14-20.72-6.91l-1.34,1.34l1.34,1.34c-0.19-0.77-3.26,1.54-5.56,0.77
		l1.34-1.34c-2.88-0.96-6.71,0.38-10.36,0c0.19-1.53-0.19-2.69-1.34-3.45h-2.11c-1.15-2.49,1.92-3.07,2.11-4.8
		c-0.38-0.38-0.77-0.96-1.34-0.77l-2.88,2.69c-2.11-1.73,0.58-2.88-1.34-4.8l-2.11,1.34c-4.22-4.8-6.71-10.36-7.48-16.5
		c-1.73,0.77-1.34,2.49-1.34,4.22c-0.38-1.15-0.58-2.11-1.54-2.88l0.77-0.58c-2.88-1.15-0.96-4.41-3.45-5.56
		c-3.07,4.8,2.3,9.59,3.45,14.39c4.41,2.11,6.71,7.48,6.91,12.47c-1.53,0.77-1.53,2.3-0.77,3.45l1.53,1.34
		c-9.98,13.05-19.95,25.9-23.6,41.44l-1.34,1.34l0.77,0.77l-0.77,0.77c-1.73,1.54-2.49,3.64-2.11,6.14
		c0.38,0.38,0.77,0.96,1.34,0.77c-0.96,3.45-3.26,6.33-3.45,10.36c1.92,1.34-0.38,2.69-0.58,4.03c0.19,5.95-0.58,13.24,0.58,18.03
		c-0.19,3.45,0.58,7.29-0.58,10.36c-2.49-2.3,2.11-5.18-1.34-6.91c-1.34,5.95-0.58,10.17-0.77,16.5c-0.38-0.38-0.77-0.77-1.34-0.58
		l-0.77,0.58c0-1.73-3.07-4.6,0-5.56c-5.76-3.45-4.6-8.25-7.48-13.04c-1.34,0.96-0.58,2.69-0.77,4.22
		c-0.38-0.38-0.77-0.96-1.34-0.77c-0.38,0.38-0.96,0.77-0.77,1.34c1.53-0.77-5.56-3.84-4.03-7.48c0.58,0.38,0.96,1.53,1.92,1.34
		c0.96-2.49-2.88-4.8-3.45-7.67c2.11-3.45-0.96-6.33,0-10.36l0.77,0.77c2.69-1.92,0.58-6.33,1.34-8.25
		c-0.96-4.6,1.15-9.59,1.34-14.58l-1.34-1.34c-1.73,2.69-2.3,5.95-2.11,9.59c-0.19-5.95,0.58-12.28-0.58-17.84
		c1.54-2.3-0.19-7.48,1.34-10.36c0.19-1.34-0.58-4.6,0.77-6.33c-2.69-9.59,1.73-18.8,1.34-27.63l-1.34-1.34
		c-1.73,3.45-0.96,8.06-2.11,11.7c0.77,0.58,0.58,1.34,0.58,2.11l-0.58,0.77c-0.96-7.29,1.15-13.43,3.45-19.38
		c-0.19-2.88,0-5.76,2.11-7.67c-1.92-16.88,10.36-27.82,16.5-41.44l-1.34-1.34c-4.41,4.8-4.99,12.85-11.13,15.16
		c-0.77,1.15-0.19,2.69-1.34,3.45c2.11-5.76,1.34-12.85,3.45-18.61c0.96,1.92,0.77,6.14,2.69,7.67c2.69-4.6-2.11-9.78,1.54-13.81
		c-0.38-0.38-0.77-0.96-1.54-0.77c1.54-7.48,9.78-10.55,15.92-12.47l2.11,2.11l1.34-1.34c-0.58-0.38-0.96-1.73-2.11-1.34
		c3.84-1.73,9.78-2.49,12.47-6.33c-6.52-1.92-3.84-10.55-10.36-13.05c-1.92-3.07-3.84-4.99-6.91-6.91
		C457.38,26.95,470.43,29.25,477.34,40.96z"/>
	<path class="st1" d="M689.32,47.86c2.69,7.87,0.19,17.84,1.92,26.28c-4.22,3.07,4.22,6.14-0.58,9.59c2.88,3.84-3.07,5.95,0,9.59
		c0.19,2.49-0.58,4.8,0.58,7.67c-1.92,8.06,1.15,17.46,0,26.86l-1.92,1.53l1.34,1.92c-11.13,1.15-23.02,3.45-35.3,3.45
		c0.58-3.84-1.15-8.63,1.54-11.7c-0.96-8.06-1.73-19.76,0.58-28.2c-2.3-6.91,1.73-13.81-0.58-20.72c3.07-1.92,0-4.6,0-6.91
		c2.3-8.25,1.53-15.92,0-24.17c9.97-0.58,19.76-2.11,30.31-1.53L689.32,47.86z"/>
	<path class="st2" d="M649.23,43.07c-0.19,11.7,0.58,23.98-1.34,35.87l0.58,0.58c0.58,2.69-0.96,5.95-1.34,9.02
		c1.92,2.11-1.73,5.18,1.34,6.91l0.77-0.58c1.73,6.33-0.77,14.58,2.11,20.72c0.19,1.92-0.58,4.41,0.58,6.14l-1.34,1.34
		c0.96,0.38,0.77,1.34,0.77,2.11c-0.77-1.34-1.92,0.19-2.88,0.77c4.22,8.63-2.88,19.57,3.45,27.43c3.45-3.64,4.22-10.94,9.79-13.04
		c9.4-2.49,20.14-3.84,29.54-4.22c-2.49,4.22,2.11,7.1,1.53,11.13c-0.77,8.44,1.34,15.73,0.58,24.17c-2.11,0.19-6.33-0.58-9.02,0.77
		c-4.99,2.3-10.55,3.65-16.5,4.03c3.07-1.53,7.48-1.73,9.02-5.56c-2.3,0.19-5.56,2.49-8.25,3.45c-9.21,1.54-18.8,6.71-28.97,7.67
		c-2.11-1.34-0.38-4.41-2.88-5.56c-2.11,2.11,1.15,3.84,0,6.33h-1.34c-0.96-7.29-0.77-14.77-2.69-21.49
		c0.19,1.34-0.77,3.26,0.58,4.22c3.07-1.73,0-5.56,0-8.44c-1.92-7.29-1.73-16.5-2.68-23.4c-3.26-9.59,0.77-19.76-3.45-28.97
		c0.96-3.26,1.15-5.18,0-8.25c-4.03,0.19-1.15-4.99-2.88-6.91c-2.3-14.77,2.49-29.93-4.03-42.78c-0.96-3.45,1.15-3.45,3.45-4.22
		C630.81,43.64,640.59,42.68,649.23,43.07z"/>
	<path class="st3" d="M192.83,43.64l0.58-0.58c2.69,5.18,5.56-1.15,9.02,0c3.45,1.92,9.02-1.34,11.7,2.69
		c6.33-1.34,13.81-3.64,20.14-0.77c5.18-3.45,11.51,1.15,17.27-1.34l-0.77-0.58h8.25c-0.38,0.38-0.96,0.58-0.58,1.34
		c2.49,1.34,7.29,0.19,10.93,0c4.99-1.34,10.36,2.69,13.81-0.77c4.8,0.77,11.32,1.54,15.16,0l24.94,0.77
		c2.11,3.45,7.29,1.92,10.36,1.34c16.5-0.38,31.27,3.45,48.34,2.11l1.34-1.34c9.21,1.92,20.72-1.34,28.97,2.69h17.27
		c-0.38,0.38-0.77,0.77-0.58,1.34c1.15,2.88,4.41,0.38,6.14,2.11c-4.41,1.53-2.49,6.71-6.14,9.59c-3.07,7.67-3.26,16.31-6.91,23.6
		c3.45,6.14-3.45,9.59-2.11,15.92c-5.18-15.35-5.95-32.81-15.16-45.66c-1.53-3.84-5.56-1.34-8.44-2.11l-0.58,0.77L395.04,54
		c-12.28,4.8-26.47,5.76-38.56,11.13c-2.11-0.19-5.37,1.34-7.67,2.69c-18.61,4.41-37.79,7.87-55.25,15.16
		c3.84,1.15,8.25-0.96,11.7-2.69c19.38-3.84,40.48-7.29,58.7-15.16c9.4-2.49,19.76-3.07,28.39-7.67c2.49,1.34,5.95,0.58,9.02,0.77
		c-19.38,3.26-37.03,10.36-56.02,14.39l-0.77-0.58c-16.11,6.14-34.34,7.29-51.03,12.47c0.19-0.77-0.38-1.15-0.58-1.54
		c-1.73,1.92-6.91,0-8.44,3.45c-2.3-3.64-5.95,0.96-8.82,1.53c-3.45-0.38-5.95,1.73-9.02,1.92c-16.31,2.49-31.65,11.32-48.34,14.58
		c-6.33,4.03-13.62,5.18-21.49,5.56l-2.69,2.69c7.29,33.76,18.8,65.99,22.06,101.49c3.26,2.49,2.3,6.52,3.45,9.78l-1.34-1.53
		c-2.49,1.92,1.34,4.6,2.11,6.91c-0.38,4.03,0.19,7.48,1.92,10.36l0.77-0.58c3.45,13.04,6.91,26.28,10.36,39.33
		c0,1.73,0.19-0.77-0.77-0.77c-1.73,2.69,0.58,5.18,0.77,7.67c0.58,2.88,0.77,7.48,3.45,10.36c4.8,21.49,9.59,42.78,14.58,64.27
		c-4.03,1.92-0.19,5.76,0.58,8.25c4.22,13.04,5.37,27.63,9.78,40.67c-1.73,3.07,2.88,5.37,3.45,8.44c-3.26,2.88-3.64,6.91-7.67,9.59
		c0.77,0.38,1.15,1.73,2.11,1.34c-2.11,2.49-1.92,5.95-2.88,9.02c-0.58-1.34-1.92,0.19-2.69,0.77l-0.77,0.58l2.88,2.11
		c-1.34,1.34-4.6,1.34-4.22,4.22c4.6,1.15-0.77,8.63,4.8,4.8l6.91,6.91c-1.53,0-2.11-2.88-4.03-2.11l-1.34,1.34
		c2.49,2.49,4.8,5.56,8.25,6.33c-2.88,2.49,1.15,4.22-0.77,6.91c0.96,3.84-1.15,8.06-1.34,12.28c-12.09,3.26-25.71,2.3-38.75,3.45
		c-7.1-1.34-14.96-1.53-22.06-3.45c-3.45-2.11-6.52,1.34-9.59-1.34l0.58-0.58c-1.34-2.49-2.69,1.53-4.03-0.77l0.58-0.77
		c-1.34-5.56,0.19-12.28-1.34-17.84c0.96-3.84,1.15-6.52,0-10.36c0.77-22.06,1.34-41.63,2.11-63.5
		c-1.54-15.54-2.88-31.85-1.34-47.77c-3.64-8.82,1.15-19.18-1.34-27.63l0.58-0.58c-3.07-20.72-2.11-44.12-6.14-63.69l0.58-0.58
		c-0.77-2.69,1.92-7.29-0.58-9.78c0.19-3.65-0.58-9.59,0.58-13.81c-2.88-3.84,3.07-6.52,0-10.36c0.77-4.41,2.88-10.94,0-14.39
		c-0.96-0.38-1.34,0.96-1.92,1.34c-0.19,1.54,0.19,3.26-1.54,4.22c3.07-6.52-0.19-17.07,2.88-25.71c0-13.43,4.03-26.86,0.58-40.67
		l0.77-0.77l-0.77-0.58c1.15-9.78,1.15-20.72,0-30.31c5.76-2.3,0.96-8.44,1.53-12.47c1.73-13.04,2.3-27.24,1.92-40.09l0.77-0.77
		c0,1.34,1.34,1.92,2.11,2.88c1.73-3.07-0.58-6.91,0.58-9.78l-0.58-1.92C191.49,43.07,192.26,42.87,192.83,43.64z"/>
	<path class="st3" d="M614.7,50.55c0.96,18.99,6.14,34.53,6.14,53.14c3.26,6.14,0.77,16.31,3.45,23.6
		c3.26,18.61-0.96,40.29,6.33,57.17c-0.96,3.84,1.15,6.52,3.45,9.02c2.3,0.96,1.53-1.92,2.69-2.69c-1.34-1.15,0-3.26-1.34-4.22
		c1.34-2.3,2.68,1.73,4.22-0.58c1.53,2.3,4.99-1.92,8.25-1.53c14.2-2.88,30.69-4.8,45.47-8.82l1.34,21.29
		c1.54,1.15,3.07,3.26,1.54,4.8c1.53,19.95,2.11,40.09,4.8,59.47c-0.19,1.73,0.19,4.99,1.34,6.91c-0.38,3.26,1.15,7.29-1.34,9.59
		l0.58,0.77c-4.22,1.53-0.38,5.95-0.58,9.02c-0.19,7.1-0.19,14.2,2.68,19.95c-2.3,2.88,1.73,5.56-0.58,8.25
		c0.38,9.21,1.92,16.31,1.34,24.94c2.3,22.64,6.71,46.04,6.91,70.41c-19.95,4.03-37.41,14.2-58.7,15.16
		c-15.54,5.95-33,7.86-49.11,12.47c-2.3-0.38-5.76,0.58-8.25,2.11c-13.04,1.34-24.56,6.33-37.22,8.25
		c-8.25,4.8-19.76,1.34-27.05,8.25h-1.92c-6.71-7.67-12.85-15.73-18.03-24.17c-0.58-3.07-1.54-6.52-4.22-8.25
		c-2.49-8.06-5.95-15.92-8.25-24.17c0.58,2.49,1.53,5.37,4.22,6.33c1.34-4.41-2.11-8.44-4.8-11.89c-4.41-2.3-2.49-8.06-7.67-9.59
		c-5.56,1.73-12.28,0.38-15.15-4.8c0.96-2.3-2.11-3.65,0-5.56l-0.77-0.77c0.77-0.77,1.92-1.34,1.34-2.69
		c-0.38-0.38-0.58-0.96-1.34-0.77l-0.58,0.77c-1.53-6.71-0.77-18.42,1.92-26.28c-0.77-2.68,1.53-4.22,0.77-6.91
		c5.95,4.03,11.13,12.28,18.03,15.16c-0.38,0.58-0.96,0.77-0.77,1.53c2.11-0.77,4.6,1.34,7.67,0.58l0.58-0.58
		c2.88,0.19,5.95-3.84,9.78-3.45c4.6-1.73,3.07-9.59,9.59-6.91c-1.53,0.77-3.64,0.77-4.8,2.69c1.15,2.3,4.6,1.53,6.14,0.77
		c0.38-0.38,0.77-0.96,1.34-0.77l-1.34,1.34c1.73,0.58,2.88,1.92,4.8,1.34l2.11-1.92l20.72-1.53c2.68,3.26,5.95,0,9.02,0
		c-0.77-1.15-2.3-0.38-3.45-0.58c3.07-0.19,7.87-3.07,11.13,0c5.18-3.45,13.24-4.8,19.95-4.22c4.6-4.6,11.89-3.84,16.5-6.91
		l-0.58-0.58c1.53,1.15,3.26-4.99,6.14-3.45l2.11-2.88c1.54,3.45-3.07,5.95,0,8.25c4.41-3.26,3.45-10.17,5.56-15.16
		c-2.11-1.53,2.11-3.26,0-4.8c2.11-13.62,1.15-28.58,3.45-42.21c2.69,0.96,4.99,3.07,7.48,4.22c4.6-0.38,9.78,3.84,13.24,0
		c-1.15-1.34-3.26-0.38-4.8-0.77c1.54,0,4.6,0,5.37-1.92c-4.99-1.92-11.13-0.96-15.73-3.45c0-1.34,3.64-0.19,2.68-2.88
		c-2.3,0.58-5.56-0.58-8.25-1.34c4.41-10.74-3.07-22.64,1.34-32.42c-0.77-8.25-1.34-17.46-2.11-24.94
		c-4.41-10.74-4.99-23.4-10.36-33.76c-0.58-9.21-4.22-17.07-4.8-26.28c-1.73-13.24-4.41-25.9-9.02-37.99h-1.34
		c0.38-1.34-0.58-1.92-1.34-2.69l-0.77,0.58c-5.56-12.28-12.47-24.94-23.41-34.53c-0.38,0.38-0.96,0.77-0.77,1.53
		c-7.29-3.84-12.09-13.62-19.95-15.92c-4.03-2.49-7.48-7.87-11.7-7.67c-5.37-0.96-8.44-9.21-14.58-6.14l-0.77-0.77
		c-0.58,1.73-1.73-0.19-2.69,0c8.63-3.64,22.25,1.34,33.19-0.58v-1.53c19.57-0.58,40.86-1.34,61.39-1.92L614.7,50.55z"/>
	<path class="st4" d="M418.63,107.14c0,4.22-5.37,7.87-1.54,11.89c-1.34,9.4,0.38,20.14-2.69,28.97c3.07,5.18-0.38,11.89,0.77,17.27
		l0.58-0.77c2.11,2.88-0.96,6.52,0,10.36c-0.96,0.38-1.34-0.96-2.11-1.34c-1.34,1.15-3.26,3.84-0.58,4.8
		c0.38-0.38,0.96-0.77,0.58-1.34c3.45,5.95-3.64,11.89,0.77,16.5c0.38,4.22,1.92,8.82,1.34,12.47c-7.67-18.03-7.29-39.33-16.5-56.59
		c-2.88-9.21-2.49-19.76-8.25-27.63c-0.38-2.11-2.49-4.22-0.77-6.14c-2.11-4.99-1.34-11.13-3.45-15.92
		c-0.77,0.77-1.73,1.34-1.34,2.69c-1.34-4.99-2.69-9.78-6.33-13.81c-10.55,7.48-25.13,5.37-37.22,9.78
		c-20.53,1.34-36.64,13.62-57.36,15.16c-8.25,2.88-16.88,5.18-25.51,7.48l2.11-2.69l-1.34-1.34c-9.98,4.6-21.1,6.91-31.08,11.7
		c-0.19,0.58,0.19,0.96,0.58,1.34l5.56-1.34c-1.34,4.8-9.02-1.15-6.91,5.56c5.95,6.14,6.52,15.73,9.02,24.17
		c1.34,9.21,2.69,18.42,4.22,27.63c-3.65,4.03,0.58,8.63,0.58,13.04c2.49,3.26,0.77,8.82,4.22,11.13
		c2.11,13.43,3.26,28.01,9.59,39.33c0.77,1.73-0.58,4.41-2.11,6.14c3.84,7.29,4.03,16.12,7.67,23.6c0.77,8.82,6.71,15.73,5.56,25.51
		c2.49,8.25,7.87,15.35,7.48,24.75c2.49,4.41,2.69,9.59,3.45,14.58c0.38,14.58,14.77,30.69,0.77,43.55
		c-4.8,7.67-7.1,16.69-11.13,24.75c-2.3-7.29-3.26-17.27-6.91-24.17l0.77-0.58c-3.64-17.27-9.4-33.76-11.13-51.8
		c0.77,0.19,0.96-0.38,1.54-0.77c-0.77-2.88-1.34-5.56-4.22-7.48c-3.07-5.95-2.49-13.24-4.8-19.38c1.73-2.49-0.58-5.18-0.77-7.67
		c-6.71-27.24-11.13-55.63-19.95-82.11c-0.19-1.15,0.58-4.6-0.77-6.33l0.77,0.77c0.77-0.38,0.58-1.34,0.58-2.11
		c-0.58-0.38-0.96-1.53-1.92-1.34c1.73-1.54,0-4.99-1.53-6.91c1.53-5.37-2.3-9.59-1.92-13.81c-1.54-9.78-5.37-20.34-6.33-31.08
		c-3.64-1.73,1.54-4.41-2.11-6.14c0.58-2.3-0.77-4.8,0-6.33c-2.88-1.15,0.38-4.99-2.69-6.14c0.38-2.49-0.38-6.14-2.69-8.25
		c-0.58-2.88,1.15-6.52-1.53-8.25c1.15-2.11-1.92-5.18,0-7.67c-2.3-3.84,3.64-0.96,4.99-2.69c26.09-7.67,51.03-18.42,78.66-22.83
		c7.67-2.88,16.5-2.69,24.17-5.56c27.05-8.06,56.21-11.13,82.88-19.95l9.59-2.11C409.81,75.87,413.07,91.99,418.63,107.14z"/>
	<path class="st5" d="M375.08,96.78c-0.38-0.77-1.34-0.58-2.11-0.58l-1.34,1.34c9.59,18.8,14.58,39.52,22.06,59.28
		c2.69,2.11,3.45,6.33,4.22,9.78c-1.53,3.64,2.3,4.99,1.92,8.25c-3.64-2.11-0.19-12.66-6.91-8.25c2.3,9.78,6.52,18.8,9.78,28.2
		c1.34-4.8-2.11-9.21-3.45-13.81l-1.34-6.14c0,2.69,2.3,5.18,3.45,6.91c0.38-0.38,0.77-0.77,0.58-1.34
		c2.88,7.1,0.19,13.81,4.8,19.95l0.77,4.8c-2.11-2.49-1.34-6.33-3.45-8.82c-1.15,4.03,1.92,8.25,2.69,12.28
		c3.84,5.18,4.03,11.89,6.91,17.27l-1.34,1.54c4.22,2.3,3.07,8.25,6.33,11.7c6.71,7.29-1.15,16.31,0.58,24.17
		c-0.58,2.88-1.34,5.95-2.11,9.02c1.54,2.88-2.3,5.56-1.92,8.82c-1.15,9.4-5.76,17.27-7.67,26.28c-4.03-2.49-6.14-5.37-7.67-9.59
		c-7.48,3.45-11.89,13.43-22.06,8.25l-0.58-0.77c-0.58,1.34-1.92,0.58-2.88,0.77c1.15-0.96,3.45-0.77,3.45-2.69
		c-3.07-2.3-6.33,1.53-9.59-0.77l-0.77,0.77c-2.49-0.96-5.56,1.34-9.02,0.58c-1.53-1.53-5.18-2.88-7.48-2.11
		c0,0.77-0.19,1.73,0.58,2.11c-1.73-0.19-3.45,1.73-5.37,0c-2.88,7.87-12.85,1.34-17.27,6.33c-6.71,2.11-13.04,6.71-15.16,13.81
		l0.58,0.58l-0.58,0.77l-1.53-2.11c-3.07,4.41-2.49,7.87-3.45,13.05c-7.29,9.97-13.04,20.53-19.95,30.5
		c-8.25-13.81-6.14-31.65-12.47-46.23c1.15-2.88-2.11-4.6,0-6.91c-5.37-5.37-0.38-16.88-6.91-21.49c-0.38-2.3-1.92-4.99-1.34-6.91
		c-0.96-2.49,2.3-9.78-2.69-10.36c-0.96-3.84,0.19-10.36-2.11-14.58c0.77-0.38,0.58-1.15,0.58-1.92l-0.58-0.77
		c1.53,0.38-3.45-3.26-0.77-5.56l-1.34-1.34c3.26,1.73,7.29,0,9.02-2.69c-0.77-6.71-1.34-13.43-2.11-20.14
		c4.22-3.64-3.45-7.67-2.69-12.47c-2.69-12.28,0-26.86-7.67-37.22c-4.41,1.92-9.98,1.73-13.81,4.8c-0.38-1.73-0.96-3.45-0.77-5.56
		c0.77,0.38,0.96-0.19,1.53-0.58c-6.52-11.7-1.34-25.51-7.67-37.41c1.53-3.07-3.07-3.64-1.34-6.71c14.96-6.33,30.89-10.55,47-14.58
		c1.34-2.69,4.99-0.38,6.91-2.11c14.39-6.14,31.08-7.1,46.23-11.7c3.45,0.58,7.87-0.96,11.7-1.34c9.4-2.11,18.42-5.56,27.63-8.25
		V96.78z"/>
	<path class="st6" d="M478.68,141.1c-0.96,0.19-2.3-0.58-2.88,0.58l2.11,2.88c-8.63,4.99-4.99,16.11-9.59,23.41
		c-1.73,8.25,0.38,15.92,0,22.83c1.73,6.91,4.41,13.43,6.91,19.95c4.41,3.64,9.02,8.06,13.04,11.13l0.77-0.77l-0.77-0.58
		c2.11,0.19,3.65,1.92,6.33,1.34l-0.77,0.58c2.3,4.6,4.6-3.07,6.91,1.53c0.96-1.15,3.07-0.96,4.22,0v0.58
		c-0.77,0-1.73,0.19-2.11-0.58l-1.34,1.34c0.96,2.3,4.03,1.53,5.37,0.58c4.03,1.54,5.18,7.67,9.78,5.56l-1.34-1.34
		c0.58-0.19,0.96,0.38,1.34,0.77l0.58-0.77c-1.53-2.3-4.8-3.45-6.91-6.14c8.25-5.95,18.03-0.38,27.63-2.11
		c1.34-0.58,2.49-2.3,3.45,0c0.58-0.77,1.73-1.15,1.53-2.11l-0.77-0.77c4.8-2.49,7.1,4.8,12.47,2.88c1.54,1.34,4.03,2.49,2.11,4.8
		c-0.38,0.77-0.38,3.07,0.58,4.22l3.45-5.56c2.3,0.38,4.99,1.92,6.91,1.34c-1.54-0.77-2.88-3.65-1.34-5.56l0.77-0.58
		c-0.58-0.96-1.34-0.77-2.11-0.77l0.58-0.77l0.77,0.77c1.92-1.54,1.92-4.22,2.68-6.14l6.33,8.25c-0.77,0.19-0.96-0.38-1.34-0.77
		c-4.03,3.65-3.45,9.59-7.67,12.47c-0.77,2.3-1.92,4.99-4.8,4.8l-1.34-1.34c-7.48,4.8-18.03,12.85-16.69,22.06l0.77,0.77l3.45-2.88
		c-0.19,8.82-2.49,16.69-6.91,23.6c-1.92,0.96-4.99,0.96-6.91,0c-0.58-1.73-1.73-4.99-3.45-6.91l-6.33-6.33
		c-1.92,4.03-3.45-1.34-5.37-1.34l-2.88-5.56c0.77,0.38,0.96-0.19,1.34-0.58h-0.58v-1.34h0.58c-0.19,0.96,0.96,1.34,1.54,1.92
		c1.15-0.38,0.38-1.73,0.58-2.69c-2.11-0.96-0.96-3.07-1.34-4.8c2.3-1.15,4.03-3.84,6.91-3.45c3.26,4.41,7.1,10.36,11.13,14.39
		l1.34-1.34c-3.45-4.99-7.29-10.74-8.25-15.92l-6.33-6.14c-0.96,3.26-7.67,4.6-6.14,8.25l0.58-0.58v1.92l-1.34-1.92
		c-2.5,1.54-0.96,4.99-1.34,7.48l-0.77-0.58c-1.34,0.77-1.53,2.3-0.58,3.45c-0.77,0-1.73-0.19-2.11,0.58
		c0.38,0.77,1.73,1.15,1.34,2.11c-4.6-1.34-9.02-5.18-14.39-2.69c-5.76,2.49-12.66,4.22-15.92,9.59c-1.34,2.69-3.26,1.15-4.8,2.11
		c-2.68-0.58-5.95,3.07-5.56,6.14c2.49,4.41,0.96,11.51,1.34,15.92c4.41,3.64-0.96,8.82,4.8,11.7c1.15,4.6,7.1,6.71,11.13,9.02
		c3.84,2.88,5.76,8.25,10.36,7.67c3.26,3.64,7.1,6.71,10.94,8.82c0.58-0.58,1.73-0.96,1.53-1.92c2.11,0.58,4.41,1.54,6.14,1.34
		c2.49,0.96,5.56-1.34,7.67-3.45c1.53-3.26,7.48-3.84,5.37-7.67c1.15-0.19,1.53,0.96,2.11,1.34c-1.54,4.03-5.18,9.02-8.25,12.47
		c-2.88,1.34-1.34,4.41-4.22,5.56c0.38-0.96-0.77-1.34-1.34-2.11c-1.15,1.92-4.99,3.45-3.45,5.56c-2.88,5.76-8.83,4.03-12.47,8.25
		c-3.07-1.54-3.45,3.07-7.48,1.34c-3.07-1.15-4.22-4.41-5.56-6.91c-0.38,0.38-0.77,0.96-1.34,0.77
		c-9.4-16.69-22.45-31.65-27.05-50.46c-3.45-4.22-3.26-9.98-6.14-14.39c-0.38-0.77,1.15-4.22-1.34-4.99
		c0.19-2.69-1.34-6.52-2.88-9.59c-0.38-6.33-3.64-11.32-3.45-18.03l0.77-0.58c-1.73-1.34-2.49-4.99-2.11-6.91l-1.34-1.34l-0.77,0.58
		c-1.92-8.25,1.15-16.88,0-24.75c-0.58-2.49,0.96-4.22,1.54-6.33c-1.34-0.38-0.58-1.73-0.77-2.69l0.77-0.77
		c-0.58,1.92,2.49,3.26,0.58,4.8c3.26,0.77-0.77,5.76,3.45,4.99c0.38,1.15-0.58,1.92-1.34,2.69c0.77,0.96,2.88,0.96,2.11,2.69
		l-0.77-0.58c-3.07,1.34,0,3.64,0,5.56c1.92,0.38,0.96,1.73,2.11,2.69c-0.96,2.3,0.19,5.37,1.34,7.67
		c2.11,6.33,1.15,14.2,6.33,19.18c1.15-1.54,1.54-3.45,3.45-4.8c15.35-1.73,31.46,0.19,46.81,2.88l1.53-1.54
		c-2.11-4.03-6.91-3.64-9.78-3.45c-0.58,0.38-0.96-0.19-1.34-0.58l-0.77,0.58c-11.51-4.8-27.05-2.49-38.56,0.77
		c-4.41-11.7-4.8-24.94-11.13-35.87c-1.54-6.71-2.11-13.81-4.8-20.14c4.03-2.11,0.58-7.48,4.8-9.59c-1.73-2.3,0.58-4.6,0.77-6.91
		c-0.38,0.96,0.96,1.34,1.34,2.11c-0.19-4.8,5.95-5.95,2.69-11.13l1.53,2.11c0.58-2.49,2.88-4.41,1.92-7.67
		c3.45-2.3,1.53-8.82,6.91-10.36c-1.54-0.58,0.19-1.73,0-2.69l2.11-2.11c0.77,0.58,1.15,1.73,2.11,1.34
		c0.96-0.38,0.77-1.15,0.77-1.92c-0.77-0.58-1.15-1.73-2.11-1.53l3.45-3.45c0.38,0.38,0.77,0.96,1.34,0.77l1.34-2.69
		C475.8,138.79,478.68,139.37,478.68,141.1z"/>
	<path class="st7" d="M529.71,148c8.63,7.86,16.69,16.88,20.72,26.86c-0.58,8.63-1.34,20.72-2.11,31.08
		c-3.07,4.03-6.52,0.19-8.25-2.69c-1.15,0.38-0.38,1.73-0.58,2.69c-2.11-1.92-1.53-5.76-4.22-6.91l-0.77,0.77
		c-2.88-7.67-7.29-14.77-10.93-22.25c1.15-3.26-3.26-5.95-4.8-8.82c-5.18-9.59-15.92-17.65-25.71-22.25l1.53-1.34
		c-3.84-1.92-8.44-1.54-12.47-2.69c0.58-3.07,10.74,3.26,6.14-2.88C504.19,133.42,516.09,144.74,529.71,148z"/>
	<path class="st8" d="M493.83,150.69c5.56,7.48,14.58,8.06,19.38,15.92c8.25,15.54,13.62,30.31,24.17,44.89
		c0.19,0.96-0.58,2.3,0.58,2.69c-1.54,4.8-9.59,2.49-13.81,2.11l-2.69-2.69c-2.49,1.15-4.41-3.07-6.91-3.45l-2.69-4.22l-1.53,1.34
		c-4.41-1.54-2.69-8.25-8.25-9.02c-7.1-10.55-10.74-22.83-17.27-33.76c-1.34-5.76-6.14-14.2-1.34-18.61
		C486.93,147.24,490.57,148.39,493.83,150.69z"/>
	<path class="st7" d="M480.79,167.96c4.8,9.59,9.59,19.38,14.39,28.97l2.88,4.22c0.77-0.38,0.58-1.34,0.58-2.11
		c2.11,2.49,4.22,5.95,6.33,9.02c2.68,3.07,5.56,5.37,8.82,6.91c-4.22,3.26-9.98,2.3-15.15,3.45c-2.11-1.53-5.76-0.58-8.25-2.88
		c-5.37,1.54-1.92-5.18-6.91-4.8c-2.88-4.8-8.44-9.21-6.14-15.16c-3.26,0.19-3.45-2.49-4.22-4.8c4.22-2.69,0.96-7.29,0-10.36
		l-0.77-0.77c-1.15,0.77-0.38,2.3-0.58,3.45c-2.11-3.64,4.03-8.06,0.58-10.94c2.88-1.92,0.38-5.95,2.11-8.44
		c-1.34-3.64,2.49-6.91,2.11-10.93C478.1,157.79,478.87,163.16,480.79,167.96z"/>
	<path d="M510.33,170.64c-0.58,3.45-1.15,7.48-4.8,9.02c-1.73,1.15-2.69-2.11-4.03,0c-0.77-3.07-4.6-5.95-2.11-9.59
		C501.32,164.89,508.61,165.08,510.33,170.64z"/>
	<path class="st6" d="M506.3,170.07c1.34,2.88-2.5,3.64-2.11,6.14c-0.96,0.38-1.34-0.96-2.11-1.34
		C503.43,173.33,503.04,168.34,506.3,170.07z"/>
	<path class="st2" d="M259.02,203.83c-3.45-0.96-7.29-0.96-11.7,0c-0.96-5.95-8.44-14-0.77-18.61c1.92-0.19,3.84-2.49,5.56-0.77
		C257.1,189.83,256.53,197.5,259.02,203.83z"/>
	<path class="st6" d="M560.21,194.81c-0.96,0.58-0.77,1.34-0.77,2.11c4.03,2.3,4.41,7.1,4.22,10.36c0.38-0.38,0.58-0.77,1.34-0.58
		l-2.11,6.14c0,1.73-0.19-0.77,0.77-0.77l-1.53-1.34c-1.92,2.3-1.73,5.18-1.92,7.67c-1.92-1.15-5.56-0.96-5.56-3.45
		c-1.53-0.96-3.45-0.96-4.8-2.11c2.88-4.03,2.5-9.21,5.37-13.04c-3.07-3.26,0-11.13,0-15.35l-0.58-0.58l6.91,13.05L560.21,194.81z"
		/>
	<path class="st2" d="M261.13,211.5l1.34,6.14c-2.49-3.07-7.67-2.11-10.93-1.34l-0.77,0.77c-0.19-2.88-2.49-6.71-1.34-9.78
		C253.07,207.09,259.02,206.9,261.13,211.5z"/>
	<path class="st2" d="M262.47,221.86c1.92,5.37,1.92,13.81,2.88,19.38c-2.88-4.6-8.06,0.77-9.78-4.99l-0.58,0.77
		c-2.69-4.22-3.45-10.36-4.22-15.92c1.15-3.45,6.33-1.92,9.02-1.34C260.55,220.71,261.71,220.71,262.47,221.86z"/>
	<path class="st6" d="M579.4,230.11c-0.96-1.34-2.69-0.38-4.03-0.77l2.68-4.03C579.59,226.47,581.12,228.58,579.4,230.11z"/>
	<path class="st7" d="M582.27,234.91c4.6-1.53,4.8,5.37,8.25,7.67c1.73,5.76,9.98,9.78,7.67,16.5c0.19,3.84-0.38,8.82-2.11,12.47
		c-0.77-3.84-6.91-4.99-5.56-10.36c-0.77-2.88-5.76-1.34-4.8-5.56l-2.11,1.34c0.96-2.11-2.11-3.64,0-5.37
		c-5.18-4.22-3.07-13.81-10.36-15.92v-1.34C576.71,235.48,579.59,231.65,582.27,234.91z"/>
	<path class="st8" d="M572.49,241.81l0.77-0.58c0.96,0.77,2.69,2.49,2.11,4.8c-4.6,1.54-4.22,6.33-4.22,10.36
		c-0.38,2.69,0.19,6.14,3.45,6.14c2.88,1.15,3.65-2.3,5.56-3.45v-2.11c1.92,4.03,3.64,8.25,6.91,11.89
		c-1.73,0.58-3.45,5.76-6.14,3.45c-9.21-4.41-10.17-14.77-13.24-22.83c-1.92-4.6,3.64-5.76,2.11-9.02
		C569.61,235.68,572.68,240.28,572.49,241.81z"/>
	<path class="st6" d="M562.13,246.61c-4.99,3.45-3.07,10.93-5.37,15.92l-0.77,0.77c2.69,1.34,0.38,4.99,2.11,6.91
		c1.92,2.3,1.73,5.37,4.03,7.48c0.96-0.38,0.77-1.15,0.77-1.92l-0.77-0.77c3.84,1.92,5.56,5.95,8.44,9.02
		c1.92-1.34,6.52-0.38,8.82-2.88c1.73-0.19,4.03,0.96,4.99-1.34l-0.77-0.58c4.6-0.96,4.8-3.84,9.02-5.56
		c3.07,1.53,0.96,3.45,0.58,5.56c-4.22,5.95-8.44,17.84-18.61,17.27c0.19-0.77-0.38-0.96-0.58-1.54c-1.15-0.19-1.53,0.96-2.11,1.54
		c0,0.96-0.38,2.88,1.34,2.69h2.69c-1.34-0.19-2.11,2.88-3.45,0.77c-2.69,1.92-6.33-1.53-6.91,2.69c-3.26,0.58-5.37-1.15-8.25-1.34
		c-1.92-4.41,0.77-8.82-0.58-12.47c-0.77,0-1.73-0.19-2.11,0.77v0.58c-1.53-4.41-0.58-11.13-2.88-15.92l-1.92,1.53
		c0.19-0.96,0.38-2.11,1.34-2.88l-0.77-0.58c1.34-0.58,0.58-1.92,0.77-2.88c-0.38-3.84,2.49-8.25,3.45-12.47
		C552.15,252.37,560.02,249.3,562.13,246.61z"/>
	<path class="st7" d="M579.4,275.77l-0.58,0.58c-2.69-2.3-2.69,1.34-4.8,2.11c-2.3-0.38-5.37-1.73-5.56-4.22
		c-0.19-0.58,0.19-0.96,0.58-1.34c-3.07-0.96-5.18-3.07-6.14-6.14c-0.38-1.92,1.15-4.6-1.34-5.56h-0.77
		c2.11-3.84,1.53-8.63,3.45-12.47C565.01,259.46,570.19,269.63,579.4,275.77z"/>
	<path class="st6" d="M575.37,256.97c-1.15-1.53-1.15-4.41,0-6.14C577.29,252.17,577.67,255.05,575.37,256.97z"/>
	<path class="st6" d="M447.6,270.78c5.18,13.04,9.02,26.86,15.16,39.52c3.07,12.47,5.95,27.43,2.69,39.9
		c1.34,0.77,0.58,2.3,0.77,3.45c-1.34-0.38-1.92,0.77-2.69,1.53c0,4.99,6.14,9.4,0,12.28c-4.22-2.3-5.76-8.25-6.91-13.04
		c-3.07-1.92-4.22-5.76-5.56-9.02c1.15-0.77,1.53-1.92,1.34-3.45c-0.38-0.38-0.77-0.96-1.34-0.58l-0.77,0.58
		c-0.77-4.03-4.6-6.71-4.8-10.93c-0.19,0.96,0.96,1.34,1.34,1.92c0.77,0,1.73,0.19,2.11-0.58c-1.73-2.11-3.64-5.37-4.8-8.25
		c0.19-1.15-0.58-2.88,0.58-3.45l-2.69-2.88c1.15,0.96,2.69,0.77,3.45-0.58c0.19-1.53-0.19-2.69-1.34-3.45
		c-0.96,0.38-0.77,1.15-0.77,1.92c-0.96-2.88-3.84-4.99-2.69-8.82c0.77-0.96,2.11-0.96,2.69-2.11c-2.69-3.07-4.8-6.33-4.8-10.36
		l0.77,0.58c2.69-4.22-5.76-8.25-2.11-13.81l-0.77-0.58c0.77,0.19,0.96-0.38,1.34-0.77c-0.38-2.49-1.92-4.6-1.34-7.48
		c0.96,0.19,1.34-0.96,2.11-1.53c-4.8-0.19-2.49-6.71-2.11-9.59c0.77,0,1.73,0.19,2.11-0.77c0-0.77,0.19-1.53-0.77-1.92
		c-0.77,0-1.54-0.19-1.92,0.58l0.58-4.8c0.38,0.38,0.77,0.96,1.34,0.77l0.77-3.45C443.57,255.82,445.68,264.07,447.6,270.78z"/>
	<path class="st9" d="M515.32,270.21l-1.53,1.34c3.26,6.33,9.79,13.62,17.27,13.81c0.96,0.77,0.96,2.11,2.11,2.69
		c0.77,0,1.73,0.19,2.11-0.58c-0.77-0.77-1.73-1.53-1.34-2.88h4.8c0.19,1.54-2.3,1.73-1.34,3.45l1.34,1.53
		c3.07-4.6,7.87-8.25,8.25-13.81c0.19,0.77-0.58,2.11,0.77,2.69c-0.77-0.19-0.96,0.38-1.34,0.77c4.6,6.52,3.45,14.77,2.69,23.4
		c-0.58,5.37-6.52,9.02-11.13,10.36c0.58,1.34,1.92,0.38,2.88,0.77c-1.54,2.3-4.03,2.69-6.33,3.45l-0.58-2.11
		c1.15-0.19,2.69,0.58,3.45-0.77c-1.15-0.96-3.45-0.96-4.22-0.58c-6.52-12.28-18.42-19.38-28.2-29.74l-0.77,0.58
		c-5.95-4.6-11.89-9.21-18.03-13.81l-1.34,1.53c-0.38-0.38-0.77-0.96-1.34-0.77c0.38-2.3,1.92-1.73,3.45-2.69l-0.77-0.77
		c1.34,0,1.92,1.34,2.88,2.11c0.77-1.53-0.77-4.41,2.11-5.56c1.34-0.19,2.11,2.88,3.45,0.77v-1.53c2.49,1.53,4.8-1.34,7.48-1.34
		C508.22,262.15,512.06,265.22,515.32,270.21z"/>
	<path class="st0" d="M612.58,268.86c-0.96,2.88,2.3,5.56-0.58,7.48c-0.38,5.76,0.58,11.89-0.77,17.27l0.77,0.77
		c-1.15,7.48-0.38,16.11-3.45,22.83c2.88,3.07-2.3,4.6-3.45,6.91c-1.73,1.73-5.18-0.77-6.33,1.92c0.19,1.53,2.11,2.3,1.34,4.22
		c-2.49,4.03-6.71-2.11-8.82,2.69c-4.99,0.38-9.98,2.49-14.58,1.53c-7.67,2.49-16.11,3.07-24.17,4.8c-3.26,0.19-7.29-3.84-9.59,0.58
		c-5.18,0.58-13.81-1.15-18.03,1.53h-2.11l6.33-6.91c0,0.96-1.73,1.92,0,2.69h0.58c4.03-7.29,6.52-17.84,15.16-20.72l6.91-9.02
		c0.38,2.11-2.68,3.65-0.58,5.56c3.07-0.19,1.73-4.22,4.03-4.8c8.06,2.88,17.46,0.77,24.17-3.45c-0.77-1.92,1.34-1.53,2.11-2.11
		c4.6-0.77,7.48-5.76,9.02-9.59c2.88-4.41,5.95-8.44,7.67-13.24c1.53,0.19,3.07,2.49,4.8,0.77c-1.15-2.49-2.3-4.99-2.88-7.67
		l3.45-10.36C606.64,264.64,610.28,265.22,612.58,268.86z"/>
	<path class="st9" d="M529.13,313.76c-3.26,2.49-1.73,8.25-6.91,8.82c-17.46,10.55-25.71-13.43-39.52-17.84
		c-2.49-2.11-3.64-4.8-4.03-7.67c3.45-1.53-1.53-3.07,0-5.56c0.38,0.38,0.77,0.96,1.34,0.77l0.77-0.77
		c-1.53-4.22-3.26-8.25-3.45-13.04c0.38-4.03,4.41-1.15,6.14-0.77C500.74,285.94,515.9,298.98,529.13,313.76z"/>
	<path class="st6" d="M419.97,281.14c0.19,15.92,5.56,32.42,5.56,48.34c0.19,8.25,2.69,15.35,4.8,22.83h1.34
		c0.58,10.17,4.41,18.99,6.91,28.39c-13.24-7.29-20.53-19.95-30.31-31.08c2.3-2.3-1.53-6.52-2.11-9.78
		c-0.96-4.03-4.03-7.29-2.88-12.28c0.38,1.15-0.58,2.69,0.77,3.45c1.53-2.11,3.07-6.14,1.34-9.02c2.49-9.02,9.02-16.31,10.36-25.51
		c1.53-0.19,3.07-2.3,1.34-3.45C418.06,289.01,418.06,284.02,419.97,281.14z"/>
	<path class="st10" d="M362.61,308.77c2.49,2.49,7.1,4.99,10.36,4.99l-2.11-2.88c4.22-0.38,8.06,0.38,11.13,2.88v1.92
		c-0.77-0.19-0.96,0.38-1.34,0.77c-0.38,2.11,2.11,0.77,2.69,2.11c6.33,1.53,14.77-4.22,13.81,6.14
		c-0.19,12.28,8.06,18.99,11.13,29.74l4.03,4.22l-0.58,0.58c1.53,3.84,8.06,6.33,6.91,10.36c6.91,4.6,13.04,12.47,19.95,15.92
		c-0.38,0.38-0.96,0.77-0.77,1.34c2.69,2.11,4.41,0.38,6.91,2.88l-1.34,1.34c0.96,2.88,4.22,2.88,6.91,2.68
		c0.38-0.38,0.96-0.77,0.77-1.34c-1.15-1.34-3.26-0.38-4.8-0.77c2.49-2.3,7.29-1.34,10.36-0.58c-1.15-0.38-1.53,0.96-2.11,1.34
		c0.38,1.34,1.73,0.38,2.69,0.77c4.03-0.58,7.87,0.77,12.47,0c6.14,0.58,6.91,8.25,10.36,12.28c5.37,11.51,14.2,22.25,22.83,31.85
		l1.34-1.34l-6.91-9.78c1.73-3.65-2.88-6.33-4.22-9.59c-0.38,0.38-0.77,0.77-0.58,1.34c-5.95-8.06-11.13-17.46-16.69-26.28
		c4.22-1.73,8.44,0.58,12.47,0.77c0.58,2.3,6.52,5.37,1.34,6.91c4.22,7.29,8.44,12.85,11.13,20.72c-3.07,5.18,5.76,9.59,5.56,14.58
		c5.95,5.76,0,14.01,7.48,19.18l3.45,6.33c-5.76-3.45-12.66-4.22-18.61-7.67c0.38-1.73,4.22,0.77,4.22-2.11
		c-1.92-0.96-4.99-0.96-6.91,0c-2.88,1.15-6.14-3.07-9.78-0.58c-1.34-0.19-2.5,0.19-3.45,1.34c1.92,4.03,7.87,0.77,11.13,2.68
		l15.15,7.67c-0.77,0-1.53-0.19-2.11,0.77c2.11,1.92,5.18,1.73,7.67,2.69c8.06,6.14,18.61,6.33,26.86,11.7l-0.58,0.77
		c9.59,11.13,19.18,23.21,23.4,37.22c-0.58-0.96-1.34-2.68-2.68-2.68l-1.34,1.34c7.1,9.02,12.28,18.8,15.16,29.74
		c-0.38-0.38-0.77-0.96-1.34-0.77c-2.69,1.53-0.96,4.6-1.53,6.91l0.77,0.77c-0.19,1.15,0.58,4.6-0.77,6.14
		c1.92,1.73-0.58,4.03,0.77,5.56l-24.17,11.7c-1.15,3.84-6.52,3.65-9.59,5.56c-3.65,3.26-9.02,4.03-11.89,7.48
		c2.3,1.15,4.6-1.73,6.91-2.69l-5.37,4.22c-0.58-0.38-0.77-0.96-1.53-0.77l-0.58,0.77l0.58,0.58c-0.58,1.92-3.45,1.15-4.8,2.88
		c-0.38-2.49,4.8-0.77,2.11-3.45c-2.88,1.34-6.14,2.3-8.25,5.37c0.38,0.38,0.77,0.96,1.34,0.77c-2.88,3.84-8.82-0.19-9.59,6.14
		l-4.99,2.11c0.38-0.58-0.19-0.96-0.58-1.34c-0.96,0.77-0.96,2.11-2.11,2.69c-4.03-0.77-7.29,4.03-11.13,5.56
		c-8.63,1.34-15.35,7.67-22.64,12.47c-4.8,3.84-14.77,4.41-21.49,2.11c0.77-1.15,0.58-2.69,2.11-3.45l-4.22-3.45l0.77-0.77
		c-1.15-2.69-5.18-1.92-5.56-5.56c0.58-1.73,3.45-3.45,1.34-5.37c-1.15-2.11-6.71-1.34-4.03-4.99c-1.92-1.92-3.45-2.3-2.88-5.37
		c1.34,0.57,2.88,1.34,4.22,1.92l0.58-0.58c-9.59-4.22-4.22-17.27-6.91-24.94c-1.15-3.45-1.15-7.86-3.45-10.36l-0.58,0.77
		c-3.84-9.02-1.34-24.75-2.11-35.87c3.45-5.18,1.73-12.47,4.22-18.03c-0.58-0.77-1.34-0.58-2.11-0.77l0.58-0.58l-2.69-2.88
		c-7.1,3.26-0.58,10.55-5.56,15.35c0.58,3.26-2.49,5.95-0.58,8.82c1.92-2.3,1.73-5.37,2.69-8.25c-2.11,4.03,1.73,11.13-3.45,13.24
		c0,20.33,2.11,45.08,6.14,66.19c1.92-3.65-0.38-7.29-0.58-10.94c3.26,6.91,4.6,16.11,6.91,24.17c-2.49,6.52,4.41,9.21,5.56,14.39
		c-15.92-1.35-25.13,5.56-40.1,2.11c-1.34,3.26-5.56,2.3-8.25,3.45c-4.03-3.26-8.44,0.58-13.24-0.77c-5.18,2.3-11.7,1.15-17.27,2.88
		l8.25-13.81c-2.3-3.07,1.54-8.25,2.11-12.47c0.96-3.07,0.38-7.29,3.45-9.02c0-0.77-0.19-1.54,0.77-2.11l-0.77-0.58
		c3.84-13.43,4.22-26.28,4.8-40.1l1.54-2.11c3.45-19.18,7.1-39.13,7.48-58.7c0.96,0,2.11,1.73,2.88,0
		c0.38-4.41-1.15-11.32,1.34-15.73c-0.96-1.92-2.3,0.58-2.88,0.58h-0.58v-4.8h0.58c0.19,0.77,0,1.53,0.77,2.11
		c1.73,0.19,1.34-1.73,1.34-2.88c-2.88-2.3,3.65-9.98-3.45-6.91c0.77,4.22-1.34,9.79-0.58,13.81c-2.88,13.81-2.69,26.28-5.56,40.1
		c0.58,1.92-0.96,4.6-1.34,6.91c-0.58,3.65-3.07,7.29-1.54,11.13c-1.34-6.14-1.15-17.46-6.14-23.6l-1.34-1.34
		c-3.64,5.56,0.96,11.13,1.34,16.5c0.96-2.3,0.96-5.95,0-8.25c1.92,5.56,1.73,13.62,4.8,19.38l0.77-0.77
		c0.77,3.45-2.11,5.37-2.11,8.44h-1.34c-1.34-11.51-2.49-20.91-6.91-30.5c0-2.49,0-6.91,0-10.36c0.58,0.19,0.96-0.19,1.34-0.58
		c0-0.77,0.19-1.73-0.77-2.11c3.84-2.3,0.96-7.1,0.77-10.36c0.19-10.74-0.58-22.06,0.77-32.42c0.38-3.26-1.15-9.21,1.34-12.47
		c0-3.84,0-9.98,0-13.81c-0.19-8.82,2.88-16.12,2.69-24.94c1.92,0.96,2.3-1.34,2.11-2.69c-0.19-1.15,0.58-2.68-0.77-3.45l-0.58,0.77
		c0-9.02,2.3-17.07,3.45-25.71c-1.15-4.03,1.73-8.25,2.69-12.28c-0.58-3.65,0.96-7.87,1.34-11.89c0.58,0.38,0.77,0.96,1.53,0.77
		c1.73-2.68,0.19-4.03,1.34-6.91c1.34,1.15-0.19,3.45,2.11,4.22c2.3-4.41-1.54-7.87-2.11-11.89c-3.26,0-2.3,4.22-3.45,6.33
		c-3.07,5.95-6.71,11.7-9.02,17.84c7.48,4.8-4.6,11.51,1.34,15.92c-6.33,24.17-3.26,47.19-6.91,72.52l-2.11,2.11
		c0.96,9.02,1.73,17.07-0.58,25.51c-2.49,2.11-3.84,4.6-4.22,7.67c5.18,0,3.45,6.14,2.88,8.83c-4.6,9.59,2.3,17.65,1.92,27.05
		c0.96,1.53,0.96,4.22,2.88,4.8c1.34-0.96,0.38-2.68,0.58-4.22l2.11,12.47l-2.69-8.25c-1.34,7.1-0.77,14.2,2.11,21.49l-0.77,0.58
		c0.96,0.58,0.77,1.34,0.77,2.11l-1.54-1.34c-1.92,0.38-2.49,2.49-2.69,4.03l0.77,0.77l0.58-0.77c1.92,4.99,3.07,10.36,3.45,15.92
		c2.11,0,1.92-2.3,2.88-3.45c2.11,5.18-7.48,7.1-2.11,11.7c-1.15,1.73-0.58,3.84-1.34,5.56h-0.77c0.96-4.22-4.8-8.25-2.69-13.04
		c-4.8-8.83-10.17-17.27-12.47-27.05c-1.53-3.64-3.84-6.91-1.34-10.93l-1.54-1.34l-0.58,0.58c-0.38-0.58-1.73-0.96-1.34-2.11
		c1.34-0.58-0.19-1.92-0.77-2.69c1.15,0.19,2.3,2.49,3.45,0.77c-8.06-5.18-7.67-14.96-10.36-22.83c-3.07-2.3-2.88-7.86-2.69-11.13
		c-0.77-0.38-1.15-1.53-2.11-1.34c1.15-1.73,1.15-2.49,0-4.22l-0.77,0.77c-1.73-9.98-7.87-18.99-5.37-29.74
		c-0.38-2.49-2.69-4.99-0.77-7.48c-1.73-0.58-0.77-1.92-2.11-2.88c0.96-24.75-1.92-47,0-73.09c-1.92-8.06,0.77-17.07,1.34-25.51
		l0.77,0.58c0.96-2.3,1.15-5.95,2.11-9.02c-0.96-4.03,1.73-9.78-0.77-13.81c-1.92,4.6-4.8,10.55-4.03,14.58
		c-1.92,1.73-2.49,5.95-2.11,8.25c1.34,0.77-0.19,1.92-0.77,2.88l-0.58,0.58l0.58,0.77l-0.58,0.58c0.19,0.58,0.77,0.77,0.58,1.53
		c0.38,1.73-0.96,5.37,0,7.48c-1.92,3.45,1.34,9.21-2.69,11.7c4.6,3.07-3.45,7.87,2.11,9.02c-1.54,5.18,0,14.2-1.54,19.38
		c1.34,3.26,2.11,7.29,0.77,11.13c-0.38-0.38-0.77-0.96-1.34-0.77c-0.38,0.38-0.96,0.77-0.77,1.34c0.77,0.58,1.15,1.73,2.11,1.34
		l0.77-0.58c0.58,8.63-1.73,18.8,1.92,26.28c-0.19,3.45,0.58,9.02-0.58,13.04c2.11,5.95,4.41,12.85,3.45,19.38
		c1.15,2.68,0.19,6.91,3.45,8.25c0.19,0.96-0.58,2.3,0.58,2.69c-3.07,2.49-7.1-0.96-10.36-2.69c-12.28-8.25-19.57-21.68-31.08-31.08
		l0.77-0.77c-1.34-3.45-5.56-1.15-6.14-4.8c-4.03-0.77-7.67-2.5-11.13-4.8c4.6,0.77,9.02,5.95,13.81,2.11
		c-4.41-1.73-9.21-2.11-13.05-4.8c-3.84-2.69-9.59-3.07-11.13-7.67c-0.58-1.53,0.77-3.07,1.34-3.45c1.15,1.34,0.38,4.03,2.88,4.22
		c-0.38-2.88,3.45-4.6,1.92-6.91l-1.92,1.92c-1.53-5.76,1.92-8.25,5.37-10.94c-0.77-1.53,1.92-5.76,0-6.33l2.88-8.82
		c1.15,1.15,3.07,0.38,4.8,0.58c1.53-2.11,3.07-4.99,1.34-7.48c-3.07,0.58,0.19,4.03-2.69,4.8c-0.38-4.99,4.22-8.06,5.56-12.47
		c7.87-16.69,14.96-34.34,26.09-49.11l0.77-0.58c-1.15-3.07,1.73-5.95,2.69-9.02c3.07-1.34,3.26-7.1,6.91-4.8
		c0.38-0.38,0.96-0.77,0.77-1.34c-0.38-0.38-0.77-0.96-1.34-0.77c1.34-0.96-1.15-4.99,2.11-2.69c1.15-2.69,4.03-4.6,6.14-6.91
		c2.3,0.96,5.95,0.96,8.25,0c-0.77-2.11-3.64-1.92-5.56-2.88c0.19-0.58,2.3-1.73,2.88-0.58c1.34-2.69,4.6-0.96,6.91-1.54
		c-0.77-0.19-0.96,0.38-1.53,0.77c0.58,1.34,1.92,0.38,2.88,0.77c0.77-0.58,0.58-1.34,0.58-2.11h1.54
		c-0.19,0.58,0.19,0.96,0.58,1.34h2.11c-3.07,2.11-8.44,2.49-10.36,4.22c3.84,2.3,6.71-1.73,10.36-1.53
		c3.84-1.34,7.87-4.8,11.7-4.03C357.82,309.15,360.31,308.38,362.61,308.77z"/>
	<path class="st11" d="M713.49,418.69c0,3.45-0.58,9.02,0.58,13.04l1.34,18.61c-3.07,1.34,0,4.6,0,6.91
		c-4.8-0.58-6.91,1.34-10.94,0.77c-16.31,0.77-30.5,6.52-46.24,8.25l-1.34,3.45c-2.69-4.22-4.22,1.92-6.91,1.34
		c0-2.3,5.56-0.96,3.45-4.03c-2.88,0.77-6.91,1.73-7.67,4.8v-1.34c0.58,0.19,0.96-0.38,1.34-0.77c-3.26-2.3-7.29,1.34-10.94,2.11
		c0.58,1.92-1.92,2.11-2.88,2.69h-0.58c-0.38-0.58,0.19-0.96,0.58-1.34c-3.45-1.73-7.48,1.15-10.36,0.77l-1.34,1.34
		c-2.11-2.49-5.76,3.84-8.25,0.77c-2.69,3.45-7.48,1.73-10.36,4.03c-0.19-3.26-4.03-1.53-5.56,0l-2.11,2.11
		c0.38-0.96-0.96-1.34-1.34-2.11c-4.6,3.65-10.36,4.99-15.92,6.33c-6.52,1.34-12.09,5.37-18.61,6.71c-1.53-3.26-5.37-6.91-4.8-11.7
		c-3.26-2.3-4.6-6.14-7.67-7.48c0.96,0.19,1.34-0.96,2.11-1.34c-2.3-2.88-6.91-0.38-9.59-2.11c-1.92-2.68-4.6-6.14-7.67-6.91v-0.77
		c3.07-0.96,4.03,4.6,6.91,2.11c4.99,1.53,11.51,3.26,15.16-1.34c-3.07,0-8.25,3.07-11.7,0c-2.11-1.34-7.1,0-9.59-2.11l-0.77-0.77
		c11.32-4.99,25.32-3.84,36.64-8.83c-3.84,1.34-8.44,2.5-11.13,5.37c2.88,1.15,5.56-1.73,8.25-2.69c4.03-4.22,9.98,1.73,12.47-4.22
		c0.96-0.77,2.69-0.19,3.45-1.34c-0.19,0.96,0.96,1.34,1.34,2.11l8.44-3.45l-0.77-0.77c2.3,1.53,4.8-0.96,6.91-1.92
		c2.11,0.96,4.22-2.3,6.91-2.11l-1.34,1.34l1.34,1.34c10.74-7.67,22.64-10.17,35.87-10.36l-0.58,0.77c3.84,1.15,7.1-3.26,11.7-2.88
		c-3.65,0.38-7.86,2.49-9.02,5.56l0.77,0.77c9.21-5.56,18.61-10.74,29.54-12.47c-0.38,1.34,0.77,1.92,1.54,2.69
		c5.76-5.76,14.39-7.29,22.06-10.36c0,0.77-0.19,1.73,0.58,2.11c3.84-4.03,9.78-3.07,13.81-6.14
		C713.88,413.9,712.53,417.35,713.49,418.69z"/>
	<path class="st6" d="M290.87,465.69c-0.38,3.84,5.95,3.07,4.03,7.48c10.93,8.25,19.57,21.1,32.61,24.94
		c1.53,1.73,2.3,4.99,1.92,6.91l0.77-0.77c4.8,3.84,1.53,9.4,3.45,14.58c1.34,0.96-0.19,3.26,2.11,4.03c-0.96,0.77,0,2.5,0.58,3.45
		l0.77,0.77c2.3-2.88-1.34-6.52-2.11-9.78c4.22,4.99,2.88,12.85,6.14,17.27c2.88,7.86-1.34,16.12-6.91,22.25
		c-0.19,1.34,0.77,3.07-0.58,4.03c0,2.3,0.19,7.1-2.88,8.25c1.73,7.67-9.21,13.43-1.34,20.14c-1.54,4.99,8.44,9.21,2.11,12.47
		c-0.19,1.73-3.26,2.3-2.11,4.8c2.69,3.07-1.92,6.52-1.34,10.36c-1.34,2.49-2.69,4.99-4.03,7.48c0.38,2.49-0.58,5.95-2.11,8.44
		c-1.53,1.73-4.6-0.77-5.56,1.92c-3.64-1.34-8.06,1.35-12.47-0.57c-5.37,0-13.24,0-18.61,0c-7.87,2.49-15.73,0.96-23.41,1.34
		l-0.77,0.77c-4.8-1.54-11.13,0-15.92-1.54c-0.58-8.06,4.03-16.5,1.34-25.51c2.49-8.63,0.19-19.95,6.91-26.28l-0.58-0.57l-2.88,3.45
		c2.11-3.84,4.03-9.4,8.44-10.36c0.58-1.34,1.53-2.49,1.34-4.22c0.38,0.96,1.15,0.77,2.11,0.77c0.58-1.34,1.53-2.5,1.34-4.22
		c0.77,0.58,1.92,2.11,2.69,0.77c-0.58-2.11-1.34-4.22-2.11-6.33c1.92-0.77,4.22-0.77,5.56-2.69c-0.77-1.34-2.3-1.54-3.45-0.77
		l-1.34,1.54c7.1-7.29-2.3-16.12,2.69-24.17c-0.19-1.53-2.49-2.88-0.58-4.22c-0.38-0.38-0.77-0.96-1.34-0.77v-0.58l0.58,0.58
		c4.03-4.22,0.77-11.32,2.88-16.5c-0.58-4.22,0.96-8.25-1.54-12.47c0.96-1.15,0.77-2.49-0.58-3.45l-0.77,0.77
		c-0.38-1.73,0.58-3.07,2.11-3.45c0.38-10.17,4.8-18.42,4.22-28.97l1.92-2.88c-2.3-3.65,1.92-6.52,1.54-10.36
		C282.42,455.34,284.92,462.05,290.87,465.69z"/>
	<path class="st12" d="M715.41,464.16c-0.58,2.3,0.96,5.56,1.53,8.44c-0.77,4.22,1.34,7.29,0.58,11.7c-3.45,2.3,0.19,8.25,0,12.28
		c-0.19,9.97,0.38,18.8,1.34,29.16c4.22,25.71,6.71,52.18,12.47,77.31v2.11c-12.85,0.58-24.94,1.34-38.56,1.92v2.11
		c-3.26,0.38-7.1-0.96-9.02,2.11c-1.34-1.73-3.26,1.34-4.8-0.77c-17.46,2.11-34.53-1.15-51.22,2.88v1.34h-4.03
		c0.58,0.19,0.96-0.38,1.34-0.77c0.19-0.58-0.38-0.96-0.77-1.35c-10.74,3.45-23.02-0.38-33,2.88c-1.15-1.15-3.26-0.96-4.22,0
		l-0.77,0.58c-0.58-1.54-1.73,0.19-2.68,0c-0.77-7.29,4.6-15.54,0.77-23.41c2.5-2.88-1.92-6.14-1.53-9.79l4.22-4.03
		c-0.38-0.38-0.77-0.96-1.34-0.77c2.3-0.38,2.49-3.26,4.03-4.03c0.96,0.77,1.53,1.73,2.88,1.34c2.49-2.68-5.37-8.44,1.34-10.36
		c-1.34-1.15-3.26-1.15-4.8-2.11c-0.19-0.58,0.19-0.96,0.58-1.34c-4.22-3.84-2.5-8.82-6.91-13.24
		c-6.33-15.54-11.7-31.65-19.18-46.81c0.58-1.92-0.96-3.07-2.11-4.22c0.96-2.11,4.22-1.34,6.14-2.68c0.58,1.15,1.92,0.38,2.88,0.58
		l2.68-2.69c1.34,1.92,2.49,1.92,4.22,0.58l1.34-1.34c0.77,1.53,2.3,1.53,3.45,0.77c2.11-6.71,5.76,2.49,8.25-3.45
		c4.8,0.38,7.87-3.45,13.04-2.11c1.92-3.65,4.8,1.73,6.33-2.69c0.38,1.15,1.73,0.38,2.68,0.58c1.15-3.45,5.37-1.53,6.91-1.92
		c-0.38-3.45,3.45-2.11,4.8-4.22c2.11,1.73,4.22-0.38,6.33-0.77c-2.69,1.34-7.29,1.73-9.79,3.45l0.77,0.77
		c5.76-1.34,12.28-2.88,18.03-2.69c2.3-1.53,4.8-1.53,8.25-1.53c0.58-0.38,0.96-1.53,2.11-1.34c3.45,0.19,8.44-2.3,12.28-1.34
		l0.77-0.77c3.65,0.96,8.63-1.73,12.47-0.58l4.03-2.11c-0.19,0.96,0.96,1.34,1.53,2.11l5.37-4.22c-0.19,0.96,0.96,1.34,1.34,2.11
		c2.49,0.77,3.45-4.22,5.56-2.11c2.88-1.15,3.07-3.84,6.33-4.03c0.58,2.3,0.96,4.8,4.03,4.8l2.11-1.34
		c-1.15-1.15-4.8-0.38-3.45-3.45c2.11-1.34,5.18-0.58,7.67-0.77l-0.77,0.77C711.58,467.61,712.53,462.43,715.41,464.16z"/>
	<path class="st11" d="M220.46,490.44c0.38-0.77,1.54-1.15,1.34-2.11l-0.77-0.58c11.89,1.15,22.64,3.45,34.53,0.58
		c-0.38-0.77-1.34-0.58-2.11-0.58c3.45,0,7.1-2.88,11.13-2.88c-2.49,7.67,0,15.73-2.69,23.6c0.96,4.99,0.96,11.51,0,16.5
		c-3.07,0.38-5.56,1.92-9.02,1.34c0.19-0.58-0.38-0.96-0.77-1.34c-2.11-0.58-3.26,0.96-4.8,1.34c-4.22-0.58-9.21,0.96-13.81,1.34
		l-0.77,0.77c-3.84-0.58-8.63,0.96-13.04,1.34c-7.87-1.73-17.46,0.58-26.28,0.77c0.19-2.88-0.58-5.95,0.77-8.25
		c-1.34-0.58-0.58-1.92-0.77-2.88l0.77-0.58c-0.58-2.88,1.15-8.25-1.34-11.13c-1.53-6.52-3.07-16.12-1.53-22.83
		C202.04,484.3,210.87,488.33,220.46,490.44z"/>
	<path class="st12" d="M252.11,572.55c-0.38,1.92-1.92,3.26-1.34,5.56c-6.52,1.54-5.76,8.63-7.67,13.24
		c-5.37,6.91-3.45,16.88-6.91,24.75c0.38,0.38,0.77,0.96,1.53,0.77c0.19-0.39,0.77-0.77,0.58-1.35l1.34,3.45
		c0.38-0.58,0.96-0.77,0.77-1.54h1.34c-0.38,1.15-0.96,2.11-0.58,3.45l-0.77-0.58c-3.07,4.22,0,9.21,0,13.81
		c-7.67,2.11-15.92,0.38-24.94,0c-3.07-0.19-6.33,1.53-9.59-0.77l-5.56-0.58c-4.41-23.4,0.58-50.45-6.91-72.51
		c3.07-7.87-3.07-16.12,0-24.94c7.29-1.34,16.12-0.38,22.83-0.77c1.92,0.58,5.76,0.96,9.02,0.77c3.84,1.73,7.87-3.07,11.7-1.34
		c8.63,0.58,15.16-3.84,23.41-4.22l1.53-1.34C258.64,542.24,266.69,561.81,252.11,572.55z"/>
	<path class="st12" d="M347.46,551.25c-1.73,21.87,26.09,35.68,13.04,57.94c0.58,3.45,0.38,5.56-1.34,8.25
		c0.77,1.15-1.34-2.11-2.11,0c1.53,5.95-2.11,11.51-4.8,16.69c-8.44-2.3-17.84,1.53-25.52-0.77l8.25-19.38
		c-0.19,0.77,0.38,0.96,0.77,1.53c0.96-3.07,3.45-3.84,4.03-6.91l0.77,0.58c2.49-1.92-2.11-5.95,1.34-8.25
		c0.58-0.38,1.53-1.73,2.11-2.69c-1.15-1.15-0.77-3.26,0-4.22l1.34-1.34l-0.77-0.77c-1.73,0.57-2.88,2.49-3.45,4.22
		c-0.38-1.73-2.3-2.88-3.45-4.22c1.53-0.58-0.19-1.92-0.58-2.69c-1.54,0.19-2.69-0.19-3.45-1.34c-0.19-0.77,0.38-0.96,0.58-1.53
		c-1.34-0.38-2.49-1.73-1.92-3.45c4.03-1.34,0.77-6.71,2.69-9.59c3.26-8.82,7.48-17.07,9.59-26.28
		C344.2,549.14,346.5,549.91,347.46,551.25z"/>
	<path d="M276.29,581.57c-0.58,5.18,4.99,5.76,6.91,9.78c2.49,4.22,3.07,10.74,7.67,13.05l-3.45,3.45l5.56,2.69
		c-4.41,2.69-7.87,1.15-11.89-1.34l-1.92,2.88c-2.11-5.76-8.06-4.6-11.89-7.67c1.34-0.39,2.49-1.73,3.45-2.69
		c-2.69-4.03,0-10.17-4.8-13.24c2.69-2.88-0.77-6.52,0-10.36h2.88c-0.38,0.77,0.19,0.96,0.58,1.35c3.07-2.11-0.38-7.1,3.45-8.83
		C273.6,573.51,270.72,580.99,276.29,581.57z"/>
	<path class="st6" d="M580.16,617.44c-1.34,1.35-4.03,0.39-4.22,2.88l0.77,0.58c0.77-1.15,2.11-1.54,3.45-1.34
		c-11.7,9.21-31.27,8.44-45.66,6.33c-8.25-0.77-19.18-1.53-27.62-2.11c-9.21,2.88-19.95,0.58-28.97-1.34
		c3.26-4.8,9.59,1.92,10.36-5.56c0.77,0,1.73,0.19,2.11-0.77l1.34,2.11c7.48-8.25,19.18-10.17,27.63-15.92l-0.58-0.58
		c-0.58,0.38-0.77,0.77-1.54,0.58c1.92-0.96,1.73-3.07,3.45-4.03c-0.19,0.96,0.96,1.35,1.53,1.92c-0.38-4.22,5.95-2.11,4.8-6.91
		c5.95-3.26,11.32-8.44,17.84-10.36l-1.92,2.11l1.92,2.11c1.34-2.69,3.07-6.33,6.33-6.91l-0.77,0.77l0.77,0.58
		c1.92-3.84,6.71-3.45,9.59-6.14c2.49,0.19,5.56-2.49,8.25-3.45h1.54c-1.15-0.38-1.54,0.96-2.11,1.34c0.77,1.35,2.3,0.39,3.45,0
		l2.11-2.68C578.25,585.21,580.16,601.9,580.16,617.44z"/>
	<path class="st6" d="M286.07,601.71c-2.3-0.77-4.8-1.15-6.33-3.45l-0.58-8.44C283.77,591.54,284.53,597.3,286.07,601.71z"/>
	<path class="st6" d="M451.68,220.75h-1.31c-0.19-0.56,0.37-0.93,0.75-1.31l-1.31-1.31c-7.29,4.11-5.05,11.96-5.42,18.88
		c2.99,2.24,0,5.42,0,8.04c1.12,0.56,0.37,1.87,0.56,2.62c0.37,1.31-0.56,4.49,0.75,6.17c0.75,4.49,1.31,8.97,2.06,13.46
		c-0.37,2.43,2.43,5.23,3.36,8.04c4.49,17.76,6.17,36.63,16.82,51.77c3.55,9.35,8.04,19.44,17.38,22.99l2.8,2.62
		c-8.41-2.06-13.64,0.75-21.49-2.06c-4.11-3.18-7.29,3.55-10.84-0.56c-3.74-13.64-6.35-28.41-8.04-41.86l-0.75-0.56l0.75-0.75
		c-3.93-5.8-3.55-14.39-5.42-21.49c-1.5-12.71-5.23-25.61-4.67-38.31c-2.06-1.12,0.93-1.87,0-3.36l1.31-1.31
		c-0.75-0.56-1.12-1.68-2.06-1.49c2.06-10.28,1.12-23.55,6.17-33.64C447.75,210.47,449.62,216.08,451.68,220.75z"/>
</g>
<g>
	<g>
		<path class="st5" d="M900,4.59c0-3.75-0.84-4.6-4.59-4.59C746.94,0.11,598.47,0.09,450,0.09S153.06,0.11,4.59,0
			C0.84,0,0,0.84,0,4.59C0.01,24.75,0.01,44.9,0.01,65.06c0.07,176.36,0.07,352.72,0,529.08c-0.01,17.09,0,34.18-0.01,51.27
			c0,3.75,0.84,4.59,4.59,4.59c57.93-0.02,115.86-0.02,173.79-0.03c31.48-0.01,62.95-0.01,94.43-0.02c0.64,0,1.28,0,1.92,0
			c1.22,0,2.44,0,3.66,0c6.63,0,13.25,0,19.88,0c4.25,0,8.51,0,12.76,0c3.85,0,7.7,0,11.55,0c1.01,0,2.03,0,3.04,0
			c11.26,0,22.52-0.01,33.79-0.01c0.38,0,0.76,0,1.14,0c0.36,0,0.71,0,1.07,0c0.1,0,0.2,0,0.29,0c3.16,0,6.32,0,9.49,0
			c4.22,0,8.43,0,12.65,0c0.65,0,1.29,0,1.94,0c9.18,0,18.35,0,27.53,0c1.07,0,2.15,0,3.22,0c1.09,0,2.19,0,3.28,0
			c7.96,0,15.91,0,23.87,0c1.79,0,3.58,0,5.37,0c29.03,0,58.07,0.01,87.1,0.01c8.63,0,17.25,0,25.88,0c0.74,0,1.48,0,2.22,0
			c48.31,0,96.62,0.02,144.93,0.02c0.71,0,1.41,0,2.12,0c0.43,0,0.85,0,1.28,0c60.87,0.01,121.74,0.01,182.61,0.03
			c3.75,0,4.59-0.84,4.59-4.59C899.9,431.8,899.9,218.2,900,4.59z M703.8,359.81c-0.09,0.68-0.18,1.36-0.28,2.04
			c-1.12,7.58-2.59,15.13-4.4,22.65c-0.25,1.04-0.49,2.08-0.75,3.12c-1.07,4.22-2.24,8.42-3.52,12.62
			c-0.19,0.62-0.58,1.18-0.87,1.77c-4.75,17.83-12.33,34.51-21.72,50.26c-0.15,0.26-0.32,0.51-0.47,0.77
			c-0.42,0.7-0.85,1.39-1.28,2.08c-2.84,4.65-5.77,9.18-8.78,13.59c-0.32,0.47-0.64,0.95-0.97,1.42c-2.28,3.3-4.62,6.53-7,9.69
			c-0.33,0.43-0.66,0.87-0.99,1.3c-1.67,2.19-3.36,4.34-5.08,6.46c-0.53,0.66-1.06,1.33-1.59,1.98c-3.37,4.09-6.84,8.04-10.4,11.86
			c-0.5,0.54-1.01,1.06-1.51,1.6c-2.23,2.36-4.5,4.69-6.8,6.95c-0.57,0.56-1.14,1.12-1.72,1.67c-1.39,1.34-2.79,2.67-4.2,3.97
			c-0.6,0.55-1.21,1.08-1.81,1.62c-0.76,0.69-1.53,1.38-2.3,2.06c-0.49,0.43-0.97,0.87-1.46,1.29c-2.73,2.36-5.52,4.64-8.34,6.87
			c-1.08,0.86-2.16,1.71-3.26,2.55c-15.83,12.09-33.05,22.1-51.64,30.01c-7.68,3.27-15.58,6.19-23.73,8.73
			c-1.66,0.52-3.35,1.01-5.03,1.5c-7.9,2.29-16.02,4.25-24.36,5.87c-1.81,0.35-3.63,0.68-5.46,1c-2.94,0.51-5.89,0.99-8.88,1.42
			c-0.16,0.02-0.32,0.04-0.48,0.06c-2.23,0.32-4.46,0.6-6.69,0.86c-2.34,0.27-4.68,0.5-7.02,0.7c-4.01,0.35-8.01,0.61-12,0.77
			c-5.79,0.23-11.55,0.26-17.28,0.1c-1.02-0.03-2.04-0.07-3.06-0.11c-1.16-0.05-2.33-0.1-3.49-0.16
			c-8.57-0.46-17.06-1.36-25.43-2.67c-3.43-0.54-6.83-1.16-10.22-1.83c-0.34-0.07-0.68-0.13-1.02-0.2
			c-0.07-0.01-0.14-0.03-0.22-0.04c-0.48-0.1-0.95-0.19-1.43-0.29c-25.14-5.3-49.12-14.38-71.22-26.67c-1-0.56-1.99-1.11-2.98-1.68
			c-12.28-7.05-23.96-15.12-34.91-24.09c-3.89-3.18-7.69-6.48-11.38-9.88c-0.66-0.61-1.32-1.21-1.97-1.82
			c-0.52-0.49-1.03-0.99-1.55-1.49c-1.2-1.15-2.4-2.32-3.58-3.49c-0.39-0.39-0.79-0.79-1.18-1.18c-2.25-2.27-4.46-4.57-6.63-6.93
			c-0.36-0.39-0.71-0.78-1.06-1.17c-3.55-3.9-7-7.91-10.31-12.04c-0.91-1.14-1.81-2.29-2.7-3.44c-0.88-1.14-1.75-2.29-2.62-3.45
			c-0.65-0.87-1.31-1.74-1.95-2.62c-22.8-31.31-38.83-68.25-45.57-108.92c-3.4-20.5-4.58-41.22-2.88-61.76
			c2.72-32.84,11.05-64.44,26.38-93.91c10.95-23.08,25.55-43.66,43.15-62.06c42.75-44.7,94.78-71.54,156.06-78.3
			c0.83-0.09,1.65-0.19,2.48-0.28c76.58-7.73,144.02,14.23,200.66,65.95c0.24,0.22,0.48,0.44,0.72,0.66
			c0.16,0.15,0.32,0.29,0.48,0.43c0.15,0.14,0.3,0.27,0.45,0.41c0.39,0.36,0.79,0.71,1.18,1.08c0.96,0.9,1.91,1.82,2.85,2.73
			c0.37,0.36,0.75,0.71,1.12,1.07c0.07,0.07,0.14,0.13,0.21,0.2c0.61,0.6,1.21,1.21,1.82,1.82c1.02,1.02,2.04,2.04,3.05,3.07
			c0.41,0.42,0.81,0.85,1.22,1.27c13.61,14.17,25.22,29.4,34.84,45.63c0.66,1.12,1.32,2.24,1.96,3.37c0.07,0.17,0.16,0.34,0.28,0.5
			c0.27,0.48,0.54,0.95,0.81,1.43c0.39,0.7,0.78,1.41,1.17,2.12c0.14,0.26,0.28,0.52,0.42,0.78c1.39,2.56,2.74,5.14,4.03,7.75
			c0.77,1.55,1.52,3.12,2.26,4.69c0.26,0.55,0.51,1.09,0.76,1.64c0.05,0.1,0.09,0.2,0.13,0.29c0.3,0.65,0.59,1.3,0.88,1.95
			c0.09,0.2,0.18,0.39,0.27,0.59c0.81,1.82,1.59,3.64,2.36,5.48c0.24,0.59,0.48,1.18,0.72,1.77c0.18,0.44,0.35,0.88,0.52,1.31
			c0.23,0.58,0.46,1.16,0.69,1.74c0.21,0.54,0.43,1.09,0.64,1.63c0.33,0.87,0.65,1.75,0.98,2.62c0.31,0.83,0.61,1.65,0.91,2.48
			c0.08,0.23,0.16,0.46,0.24,0.69c0.15,0.42,0.29,0.83,0.43,1.25c0.34,0.99,0.7,1.97,1.03,2.96c0.13,0.39,0.25,0.78,0.38,1.17
			c0.27,0.82,0.54,1.65,0.8,2.48c5.25,16.55,8.9,33.89,10.92,51.99C706.97,318.5,706.65,339.27,703.8,359.81z"/>
	</g>
</g>
</svg>
