<?xml version="1.0" encoding="utf-8"?>
<!-- Generator: Adobe Illustrator 25.2.1, SVG Export Plug-In . SVG Version: 6.00 Build 0)  -->
<svg version="1.1" id="Capa_1" xmlns="http://www.w3.org/2000/svg" xmlns:xlink="http://www.w3.org/1999/xlink" x="0px" y="0px"
	 viewBox="0 0 900 650" style="enable-background:new 0 0 900 650;" xml:space="preserve">
<style type="text/css">
	.st0{fill:none;}
	.st1{fill:#FB6747;}
	.st2{fill:#999999;}
	.st3{fill:#B8E3D0;}
	.st4{fill:#47A888;}
	.st5{fill:#0C2577;}
	.st6{fill:#495458;}
	.st7{fill:#9D024A;}
	.st8{fill:#A65000;}
	.st9{fill:#60AEB7;}
	.st10{fill:#C0E7DA;}
	.st11{fill:#FEE69D;}
	.st12{fill:#CCC6AB;}
	.st13{fill:#FDB362;}
	.st14{fill:#FEA641;}
	.st15{fill:#6C7BB0;}
	.st16{fill:#FFFFFF;}
	.st17{fill:#C8676E;}
	.st18{fill:#A9464E;}
	.st19{fill:#D1EDD4;}
	.st20{fill:#33A555;}
	.st21{fill:#157F7D;}
</style>
<g>
	<path class="st0" d="M784.27,84.48c0.75,0.46,1.5,0.92,2.24,1.4c-0.68-0.77-1.39-1.52-2.2-2.16
		C784.27,83.91,784.27,84.2,784.27,84.48z"/>
	<path class="st1" d="M190.51,371.49c-0.55-8.85-2.21-18.26-1.66-29.33c-33.32-5.19-65.83-12.27-98.32-19.9v27
		c11.91,2.21,24.06,3.82,35.51,7.29L190.51,371.49z"/>
	<path class="st2" d="M687.75,579.57l-2.21-17.99l-1.66-1.38c1.11-4.43,4.15-7.75,4.43-12.17c-4.7,0.55-9.13,0-14.11-1.38
		c-1.38-1.38-1.11-4.43-3.87-3.87l-8.86-13.28c2.77-4.15-6.64-11.34-7.47-17.98l-2.21-2.21c-6.36-0.55-13.01-2.22-18.82-1.66
		l-1.38-1.38c-36.53-1.38-71.39-5.81-106.53-10.51c2.77,6.09,4.15,14.39,4.7,22.41c3.87,2.22,1.93,4.98,0,7.47
		c0,11.35-4.7,21.86-14.39,27.67c-14.66,7.47-36.25,11.9-51.74,4.7c-8.86-6.09-13.28-15.22-13.28-25.46
		c-1.11-4.98,5.26-10.24,0-13.56c0.55-0.28,1.11,0.28,1.38,0.83c2.21-3.32,3.04-7.2,4.43-10.51c-6.09-0.55-13-2.49-18.54-0.83
		l-0.83,12.73l-1.38-6.64c-1.66,6.36-6.64,12.45-12.17,16.32c-6.36-2.49-18.82,3.05-23.24-5.81l-0.55,0.55
		c2.49-2.77-5.26-6.36-0.83-9.68c-0.55-1.38-1.94-0.55-3.04-0.83c4.15-1.94,3.04-6.09,5.26-8.86c-9.68-3.6-21.58-2.49-32.1-3.87
		c-21.31-3.32-42.06-7.75-62.26-13.28h-30.71c-3.32,3.32,0.28,9.41-3.04,12.73c3.32,1.94-1.66,4.15-1.38,6.64
		c0.28,8.3-8.58,13.56-13.56,18.82v-0.83c-7.75,0.55-20.2,5.81-27.67-1.38l0.83-0.83c-4.7-4.15-11.07-9.41-12.73-15.77
		c-1.94-9.41-0.55-16.32,4.43-24.07c-4.43-3.05-8.3-2.22-7.47-8.86c-4.7-10.79,0.55-26.84-7.47-35.14
		c-8.3-20.48-14.11-42.06-15.77-65.3c-5.26-1.38-10.51-3.32-16.6-3.6c-27.48-8.32-56.59-12.46-84.76-19.02v92.83
		c0,77.97,58.26,141.18,130.13,141.18h472.17C691.33,585.31,687.96,582.37,687.75,579.57z"/>
	<path class="st3" d="M715.3,510.85l2.08-0.88c-6.75,0.16-9.8,6.43-13.4,11.37c4.4-1.87,7.71-6.3,12.27-8.46
		c-5.53,3.6-10.79,8.3-15.22,12.73c1.66,3.87,3.04,7.75,6.92,10.51c1.94,0.28,4.43-0.55,5.81,0.83l-2.77,1.38
		c2.49,1.93,5.53,2.77,8.86,2.21c-3.04,1.38-7.47,0.28-8.86,3.87c6.92,0.83,14.11-2.49,20.75-4.43c-3.04-4.7-10.51-4.43-11.9-11.34
		c4.43,0.55,6.64-4.43,10.51-5.26c-2.31-5.4-6.06-9.13-10.36-13.18c-0.89-0.16-1.73-0.25-2.51-0.24
		C716.82,510.35,716.08,510.59,715.3,510.85z"/>
	<path class="st4" d="M721.5,444.81c3.04,11.35,10.79,22.41,16.32,33.76c-8.86-11.9-14.11-26.29-22.41-39.01
		c-38.18-33.48-52.02-77.2-86.05-112.34l-0.83,0.83c-2.49-6.64-6.92-12.17-10.51-17.99l-0.83,3.6c-5.26-4.43-4.15-12.73-9.68-17.99
		h1.66c-0.28,1.11,0.83,1.66,1.38,2.21c-2.21-14.11,1.11-27.95,0-42.61c3.6-3.87,2.49-9.41,3.6-14.11c-0.11,3.13-0.4,6.11-0.73,9.02
		c1.51-3.93,4.26-8.22,1.68-11.78c-0.04,0.37-0.08,0.74-0.12,1.1l-2.21-2.21c-2.49,5.26-0.83,12.45-4.43,17.16v3.87h-1.66
		c2.49-7.19,3.87-14.94,5.26-22.41c4.98-1.11,3.32-4.98,3.88-9.13l-0.83-0.55l-0.83,0.55c0.28-1.66,2.77-8.02,0.83-11.9l-5.81,5.26
		c1.94-1.66-0.55-3.32-1.66-4.43l-6.09,1.38c1.38,0,2.21-1.38,3.05-2.21c0-1.66-1.94-2.49-3.05-3.87l-3.6,1.66
		c-0.55-4.43-5.53-4.43-8.3-6.64c-4.43-4.43-9.13-4.7-14.11-1.66l-2.22,4.43c-1.93-8.02-2.49-16.33-5.26-23.8l-10.51,10.52
		c-3.6-1.94-6.64,4.43-9.13,5.81c-36.8,34.59-76.92,65.3-106.25,105.7c3.04,4.98,4.7-3.04,8.3-1.66
		c22.69-8.02,44.83-17.15,67.24-26.01c4.98,0.55,10.51-4.15,14.94-4.43c9.41-0.28,16.88-9.13,26.29-3.87
		c1.38-0.55,0.55-1.94,0.83-3.04c-0.55-1.38-1.94-0.55-3.05-0.83c-1.93-6.09-4.43-14.39-9.68-19.37c-0.55,0.83-0.28,3.32,0.83,4.43
		h-1.66c-2.21-6.09-4.98-14.67-2.21-20.2l-1.38-1.38l-2.21,3.04c-0.55-5.26,4.43-11.35,4.43-17.99c4.43-2.21-0.55-8.3,5.81-9.68
		c-1.11,8.02-3.87,18.54-0.55,26.01c1.66,4.43,1.94,9.13,5.26,12.73l1.38,7.47c1.11,0.28,1.66-1.11,3.05-0.55
		c1.94,7.47,4.98,16.88,6.09,22.41c5.53,4.15,1.11,10.79,3.6,15.77l3.04,7.47l-3.04,0.55c0.55,3.04,1.66,6.09,3.87,8.3l1.38-1.38
		c0,1.94-2.49,1.94-3.6,3.04c-2.77,11.35,10.51,12.73,16.33,17.99c0.55-1.94,1.66-1.66,3.04-0.83c1.94,4.43,7.47,3.6,10.51,3.6
		c-1.93,6.09,6.64,6.92,10.52,9.96h12.73v-3.87c1.66,0.28,2.21,4.43,5.26,3.05c1.93-2.77-2.22-4.98-0.83-8.3
		c2.22,1.94,0.83,9.13,6.64,7.47c-5.53,1.94,1.11,5.53,0,9.13c-0.55,1.93,3.32,1.11,0.83,2.77c-0.83-0.55-1.66-1.94-3.04-1.38
		l-0.83,0.83l5.26,6.64l0.83-0.83c-0.28,2.49,1.66,5.81,3.87,8.3v1.66c2.21,4.43,0.83,12.45,7.47,13.28
		c0.83,1.66,1.11,3.32,3.04,4.7c0.28-0.55,0.83-0.83,0.55-1.66c3.04,8.58,1.66,25.46,0,24.63c-2.77,2.49-0.83,7.47-1.38,9.96
		c1.38,1.11,0,4.98-1.66,3.6l-2.21,2.22c0,0-0.55,1.93-2.21,0.83c-3.32,0-5.53-6.92-8.86-2.21c-2.49-5.26-8.85-6.64-12.73-11.35
		c-0.55,1.11,0.55,3.6,0.55,5.26c-1.94-1.38-1.94-4.98-2.77-7.47c-1.94-3.32-4.98-8.03-9.13-10.51l-3.6-3.6
		c1.38-3.32-1.11-6.64-2.49-9.68h-1.38c0.28-0.83-0.28-1.11-0.83-1.66c0.83,0,1.93,0.28,2.21-0.83
		c-4.98-3.04-6.36-10.24-12.73-10.24c-3.87-5.53-5.26-11.9-8.85-17.43c-6.37,14.94,4.43,27.67,8.3,42.06
		c14.11,29.88,29.6,59.21,49.25,86.88V483c12.45,16.32,17.15,37.63,33.76,50.08c-1.66,0,0,4.98,1.66,6.92
		c8.02-7.19,15.77-15.77,24.62-21.03c-0.28,0.55-2.77,1.93-0.83,3.04c0.74-0.15,1.44-0.39,2.12-0.67c3.6-4.94,6.65-11.21,13.4-11.37
		l0.59-0.25c0.4-0.31,0.76-0.71,1.04-1.27c-0.83-4.43,1.38-1.93,3.87-3.87c4.98-8.3,14.66-13.01,15.77-22.97l1.38,2.77l2.22-2.77
		C736.72,468.61,730.63,456.16,721.5,444.81z"/>
	<path class="st4" d="M720,510.22c-0.33-0.31-0.65-0.62-0.99-0.93l-1.04,0.43c-0.15,0.11-0.33,0.16-0.49,0.25
		C718.27,509.97,719.11,510.06,720,510.22z"/>
	<path class="st5" d="M613.42,250.18c-0.19,1.68-0.39,3.35-0.61,4.99c0.07,0.22,0.12,0.44,0.22,0.66c-0.11-0.21-0.16-0.44-0.22-0.66
		c-1.22,9.31-2.56,18.14-0.88,28.6h1.66l0.55,6.09h-0.55c3.6,26.29,28.22,46.49,43.99,68.07c2.21-0.28,4.43-1.94,6.09-0.83
		c1.11-0.28,0.83-1.38,0.83-2.22c10.51,5.53,21.86,1.66,32.93,6.09l1.38-1.66c-2.77-27.95,6.36-64.75-22.41-83.84l2.22-2.21
		c-2.22-2.77-1.94-7.19-5.26-8.85c-0.28,2.77-2.77,5.81-0.55,8.85l1.38,1.66c-1.11,1.38-4.7-5.81-2.21-9.13
		c0.28-13.56,21.31-13.28,17.99-27.67c-0.28-6.09-3.6-11.35-8.3-14.94c-2.77-7.19-0.83-16.6-6.64-21.86
		c0-8.02,2.77-14.94,8.03-21.03c0.83-15.5,0.55-31.55-11.07-44c-2.49-4.43-1.11-10.24-6.09-13.56c-24.07,1.66-44.82-4.7-65.03-11.9
		c1.94-1.66-0.55-3.6-0.83-5.26l-1.69,1.69l-1.35,1.35l1.35-1.35c3.17-3.97,1.76-9.82,6.95-13.03l0.83,0.83
		c4.03-10.32,11.49-19.49,18.84-28.78H271.8c-0.7,4.77-1.75,9.37-3.54,13.83l0.83,5.26l0.55-0.83c-4.43,7.47-0.55,15.77-3.6,24.07
		l3.04,2.21c-1.94-0.28-3.04,0.83-4.43,1.38l1.38,1.66c-22.41-2.21-50.64,3.87-74.99,1.38c-15.5,1.66-33.76,0-50.08,1.38
		c-6.16,2.22-14.51,1.81-21.93,2.67c-17.83,24.16-28.52,54.8-28.52,88.15V319.6c6.38,0.6,12.61,1.57,18.35,3.74
		c26.84,3.87,51.47,13.56,79.14,15.22c0.83-8.03,1.66-17.71,2.49-26.29c4.43-19.92,4.98-41.23,17.16-57.83l-3.04-1.38
		c1.66-1.94,4.98,0.83,6.09-2.21c-0.06-0.15-0.14-0.27-0.22-0.37c-0.95-0.07-1.88-0.2-2.82-0.46c0.74,0.25,2.13-0.37,2.82,0.46
		c4.08,0.32,8.34-0.79,13.51-1.01c0,1.11,1.38,1.66,2.49,1.38c0.83-0.28,2.21,0.55,2.77-0.83c-0.55-1.38-1.94-0.55-2.77-0.55
		c3.87-2.49-1.11-4.7-1.66-6.92c-4.43-1.66-8.03-5.26-11.9-8.3c-0.55,1.11-1.38,0.83-2.21,0.83l-3.04-3.6
		c-1.11,0.55-1.11,3.04-3.04,2.21c-3.87-4.15-1.38-11.07-5.26-14.94l-0.83,0.55c-1.38-3.32,5.26-4.98,6.92-8.3
		c27.39-16.33,55.89-29.88,83.01-46.21v-1.66c1.11-0.28,1.66,1.11,2.21,1.66c1.66-2.21,2.49-2.49,5.26-2.21
		c0.83,1.38,1.38,3.04,3.04,4.43c9.41-8.85,19.37-16.05,30.71-20.2c0.28-2.21,1.94-3.6,4.43-3.04c-1.11,0.28-2.21,0.55-3.04,1.38
		c6.64-0.55,16.6,1.94,22.69-2.21c-4.43-2.77-10.79-2.49-15.77-1.38l-1.66,1.38c2.77-3.6,10.79-4.98,16.6-6.64h4.43l-3.6,1.38
		c3.87,3.32,8.86,6.37,13.28,6.09l-1.38-3.04l6.09,6.64c1.94-1.66-1.38-3.04-0.83-5.26c1.38,6.37,7.47,10.24,10.51,16.6
		c-0.83,0-1.94-0.28-2.21,0.83l4.43,3.04l-2.21,0.55c0.83,6.09,3.32,11.35,4.43,17.16c-1.11-1.66-0.83-4.43-3.04-4.98
		c-0.55,4.43,4.43,10.24,1.66,14.94c-0.55,6.37-1.66,19.92-2.49,26.01c0-2.21,0.55-4.98-1.38-6.64l-1.38,1.38
		c0.55-2.21,2.21-4.98,0.55-7.47l-2.77,3.87c0.83-2.21,4.15-4.43,2.77-6.64c-4.15,4.43-8.86,9.68-5.81,16.33
		c-4.43,0.55-3.6,5.53-7.47,7.47l3.6,0.83c-0.28,2.77-5.53,0.55-3.04,3.6h1.66c-1.38,0.83-2.77,0.83-3.87,2.49v4.43l-0.55-0.83
		c0.55,2.49-3.32,5.81-0.83,9.13l0.83-0.83c0.55,0-4.15,4.7,0.55,6.09l0.83-0.83c4.7,2.49,5.81,7.75,9.68,11.07
		c15.17-0.23,28.48-4.72,41.45-9.83c2.31-1.82,5.14-2.17,7.6-3.04c0.34-0.14,0.69-0.27,1.03-0.41c-0.34,0.14-0.69,0.27-1.03,0.41
		c-2.53,1.02-5.06,2.04-7.6,3.04c-0.36,0.29-0.72,0.61-1.05,0.98c8.3,0.55,16.33-3.6,24.07-6.64c23.52-4.98,40.67-24.9,61.43-35.97
		l1.38,2.21c11.62-8.3,24.35-13.56,35.97-21.86l-4.43,3.04c2.77,1.38,5.81-1.11,8.3-3.04c0-3.04-2.21,0.83-2.21-1.38
		c14.11-5.81,26.56-15.77,39.57-24.63c3.04,3.87,7.47,1.11,11.34,4.43c8.86,1.66,18.26,1.94,25.46,8.3
		c-0.83,3.6,1.11,7.19,3.6,10.24c-0.55,0.28-1.11-0.28-1.38-0.55c-0.28,5.81,4.7,11.35,8.3,16.33l-0.83-0.55
		c-9.16,9.7-9.67,24.12-11.22,37.64C617.68,241.96,614.92,246.26,613.42,250.18z"/>
	<path class="st5" d="M785.7,113.05c-13.56,6.36-28.78,8.86-44.83,9.68c-2.22,1.38-2.77-3.6-4.43-0.83
		c-0.55,4.15,8.86,5.26,2.21,9.13l-12.17-0.83c1.11-2.49,2.21-5.26,3.87-7.47c-8.02,2.77-27.12-7.19-23.24,10.52
		c-4.98,8.85-9.41,18.26-7.47,29.88l2.21,2.21c-0.55,0-1.11,0.55-1.38,0.83c-1.11,2.77,2.21,1.38,2.21,3.87
		c-4.15,0.83,3.32,5.53,3.6,8.86c7.75,1.38,6.64,11.34,11.34,16.6c-5.26-0.83,0.83,5.81-2.21,8.85c-2.77,6.36-3.05,15.5-11.35,20.2
		c0.55,8.02,1.94,15.22,2.22,24.07c1.93,3.04,7.47,3.04,10.51,3.04c3.6,4.43,9.41,9.13,6.09,15.5c-1.94,11.9-11.07,20.48-11.35,33.2
		l-0.55-0.83c-5.53,5.81,0.28,12.45,0.55,18.82l-0.55-0.83c-2.21,1.11,0.55,2.49,0.55,3.04c-0.55,0-1.11-0.55-1.38-0.83
		c-1.94,12.17-0.28,24.9,4.43,35.14l-0.83,0.83c-1.93-2.49-1.66-7.2-3.6-10.52c-1.66,6.09-0.28,12.45,1.38,17.99
		c22.14,1.94,45.38,0.55,63.09,12.73c9.13,4.7,21.03,7.47,25.45,18.82h1.38v2.77c-2.77,0-0.55,3.04-2.21,3.87l2.21,0.83
		c-4.43,3.6-5.53,8.58-6.09,14.11c0-0.83,0.28-1.66-0.55-2.21c-1.66,4.7-3.6,9.13-3.87,14.11c18.7,7.41,39.04,10.62,59.58,13.49
		V207.47c0-49.09-23.1-92.31-58.14-117.61c1.18,3.33,0.91,6.48,3.82,9.63C797.04,105.58,790.13,108.9,785.7,113.05z"/>
	<path class="st2" d="M621.06,94.23l-1.66-1.38c14.66,0.28,36.25-6.36,55.62-6.09c29.33-1.94,63.64-3.04,92.14,3.87
		c2.49-0.83,4.98-1.66,7.47-2.21c2.21,1.66-1.38,0.83-0.83,2.77c6.37,1.38,12.73,4.98,18.82,4.7c-1.75-3.5-3.53-7.13-6.1-10.02
		c-0.74-0.48-1.49-0.94-2.24-1.4c0,1.32,0.51,3.36,1.42,4.5c-1,0.14-1.41-2.29-2.15-4.95c-18.7-11.29-40.22-17.74-63.14-17.74
		h-90.76c-5.1,9.26-15.08,18.86-18.28,29.61C613.59,97.55,618.29,95.89,621.06,94.23z"/>
	<path class="st2" d="M759.69,576.52c-4.98-0.83-9.41-4.98-14.39-3.04c-1.38,1.66-4.98,1.66-4.43,4.7c0.55,1.38-0.55,1.94-4.43,2.77
		c-0.27,0.27-4.62,2.61-9.56,5.36c12.25-0.65,24.05-3.17,35.18-7.25C761.23,578.33,760.43,577.51,759.69,576.52z"/>
	<path class="st1" d="M828.59,444.81c-2.49-1.93-4.98-1.93-8.3-3.04c-9.68-1.66-19.65-5.81-29.89-6.64
		c-5.53,13.56-9.96,27.95-16.6,41.23c21.59,4.43,43.44,8.86,65.03,13.28c1.59,0.43,3.15,0.84,4.73,1.27
		c3.98-12.64,6.35-26.07,6.85-40.03C842.86,448.96,836.09,448,828.59,444.81z"/>
	<path class="st2" d="M772.97,480.79c-3.87,3.05-7.47,8.58-6.64,13.56c-7.2,3.04-7.75,11.62-12.73,17.16c-1.66-1.66-3.6-1.66-5.26,0
		c-4.98,0.28-12.73-1.66-13.56,4.43v3.87c4.98,1.66,9.96-3.32,14.94-1.66v2.22c-0.83,0-1.66,0-2.21,0.83
		c0.28,2.49,3.32,1.38,4.43,3.04l22.69-0.83c-2.77,0.28-5.26,0.55-7.47,1.66l1.38,1.38c8.58-0.28,17.43,0.28,24.07,2.22
		c-3.6,1.11-9.13-2.22-13.56,0c3.87,1.93,7.75,6.36,12.73,3.87c-0.29-0.52-0.65-0.85-1.05-1.09c-0.72-0.19-1.43-0.37-2.15-0.55
		c-1.55-0.05-3.2,0.22-4.27-0.85c1.4,0.17,2.83,0.49,4.27,0.85c0.78,0.02,1.51,0.16,2.15,0.55c4.96,1.34,9.99,2.83,14.61,1.09
		l-8.3-2.49c6.92-0.56,11.62,4.15,18.82,3.04c0.8,1.39,2.88,2.2,4.71,2.35c8.77-11.46,15.87-24.46,20.97-38.56
		c-9.29-1.97-17.62-5.9-27.34-7.23C801.75,483.55,785.42,486.87,772.97,480.79z"/>
	<path d="M790.73,531.44c-0.63-0.39-1.37-0.53-2.15-0.55C789.3,531.07,790.02,531.24,790.73,531.44z"/>
	<path d="M207.67,250.02c0.93,0.26,1.87,0.39,2.82,0.46C209.8,249.64,208.4,250.26,207.67,250.02z"/>
	<path d="M788.59,530.89c-1.44-0.36-2.87-0.68-4.27-0.85C785.38,531.11,787.04,530.84,788.59,530.89z"/>
	<path d="M717.97,509.72l-2.67,1.13C716.27,510.53,717.21,510.3,717.97,509.72z"/>
	<path d="M632.13,60.47l-0.55,0.83l-0.83-3.04c0,2.77-2.77,3.04-4.43,4.7l0.83,0.55c-0.72,0.93-1.46,1.85-2.19,2.77h4.69
		C630.73,64.34,631.6,62.4,632.13,60.47z"/>
	<path d="M850.41,450.88c1.64,0.42,3.29,0.86,5.02,1.41c8.3,6.36,11.07,0.55,20.2,4.43c4.98,1.66,10.79,3.04,14.94,4.43v-2.77
		c-5.26,1.11-10.24-4.7-14.11-7.47c0.55-1.66,4.15,2.21,3.04,0l-4.7-2.49l-0.55,2.49c-3.05-1.66-6.09-3.04-9.13-4.7
		c5.53-2.21,10.52,0.83,14.94,3.05l0.83-2.21c2.49,1.11,5.53,0.83,7.47,3.04l-1.38-1.66c0.83-2.49,4.7,1.93,3.04-0.55
		c-12.99-2.6-26.28-4.31-39.48-6.16v3.6C850.54,447.18,850.47,449.03,850.41,450.88z"/>
	<path d="M848.79,497.94c3.87,2.77,10.24,0.83,12.73,3.87c-0.28-0.83,0.28-1.11,0.55-1.66c7.19,4.7,15.49,6.09,23.24,9.13v-2.22h4.7
		c-0.83,1.11-2.21,1.11-3.04,2.22c1.11,0.55,1.94,1.93,3.6,1.38l-0.55-7.47c-15.57-4.02-30.93-8.06-46.46-12.29
		c-0.63,2.01-1.3,3.99-2.02,5.96C843.89,497.37,846.28,497.77,848.79,497.94z"/>
	<path d="M54.1,314.49v3.04c11.62,1.94,22.14,6.09,35.14,4.43c0.43,0.1,0.86,0.2,1.29,0.3v-2.66
		C78.17,318.44,65.23,318.69,54.1,314.49z"/>
	<path d="M692.83,586.49c0.43,0.34,0.73,0.55,0.73,0.55l3.87,3.04c-0.61,0.41,7.33,2.37,9.68,5.26c3.6-2.77,6.92,0.55,6.09-0.83
		c2.43-1.86,8.4-5.26,13.68-8.2c-2.14,0.11-4.3,0.18-6.47,0.18H692.83z"/>
	<path d="M54.1,336.9l0.83,5.26c11.56,4.24,23.5,7.5,35.6,10.31v-3.21C77.69,346.88,65.15,343.79,54.1,336.9z"/>
	<path d="M762.06,579.06c5.02,4.38,11.5,4.46,18.38,4.94c2.21-3.32,9.41-4.71,13.56-8.86c4.7,0,7.47-3.04,10.51-3.04l3.04-3.04
		c0.83,0.55,0.55,1.38,0.55,2.21c4.43-8.58,15.49-10.24,22.69-16.32c-2.21-7.75-1.11-11.35,0.55-14.94c0-0.55-8.86-4.7-8.86-4.7
		c-0.54,0.15-1.22,0.19-1.93,0.14C805.33,555.34,785.14,570.6,762.06,579.06z"/>
	<path d="M784.32,83.72c0.81,0.64,1.52,1.39,2.2,2.16c1.99,1.28,3.96,2.6,5.88,3.99c-0.17-0.48-0.37-0.96-0.61-1.44
		c-2.49-8.3-9.96-17.16-14.11-24.9l-0.83,0.83c-3.05-1.66-3.05-5.81-6.09-6.09c5.81,6.36,9.41,13.84,12.73,21.03l-0.83,0.83
		c-0.83-0.83-1.66-2.21-2.77-2.21c2.01,0.94,2.98,3.62,3.67,6.12c0.24,0.15,0.48,0.3,0.72,0.45
		C784.27,84.2,784.27,83.91,784.32,83.72z"/>
	<path d="M773.8,476.36c6.64-13.28,11.07-27.67,16.6-41.23c10.24,0.83,20.2,4.98,29.89,6.64c3.32,1.11,5.81,1.11,8.3,3.04
		c7.5,3.19,14.27,4.14,21.82,6.07c0.07-1.85,0.13-3.7,0.13-5.57v-3.6c-20.54-2.88-40.88-6.08-59.58-13.49
		c0.28-4.98,2.21-9.41,3.87-14.11c0.83,0.55,0.55,1.38,0.55,2.21c0.55-5.53,1.66-10.51,6.09-14.11l-2.21-0.83
		c1.66-0.83-0.55-3.87,2.21-3.87v-2.77h-1.38c-4.43-11.34-16.32-14.11-25.45-18.82c-17.71-12.18-40.95-10.79-63.09-12.73
		c-1.66-5.53-3.04-11.9-1.38-17.99c1.94,3.32,1.66,8.03,3.6,10.52l0.83-0.83c-4.7-10.24-6.37-22.97-4.43-35.14
		c0.28,0.28,0.83,0.83,1.38,0.83c0-0.55-2.77-1.94-0.55-3.04l0.55,0.83c-0.28-6.36-6.09-13.01-0.55-18.82l0.55,0.83
		c0.28-12.73,9.41-21.31,11.35-33.2c3.32-6.36-2.49-11.07-6.09-15.5c-3.05,0-8.58,0-10.51-3.04c-0.28-8.85-1.66-16.05-2.22-24.07
		c8.3-4.7,8.58-13.84,11.35-20.2c3.04-3.04-3.05-9.68,2.21-8.85c-4.7-5.26-3.6-15.22-11.34-16.6c-0.28-3.32-7.75-8.03-3.6-8.86
		c0-2.49-3.32-1.11-2.21-3.87c0.28-0.28,0.83-0.83,1.38-0.83l-2.21-2.21c-1.94-11.62,2.49-21.03,7.47-29.88
		c-3.87-17.71,15.22-7.75,23.24-10.52c-1.66,2.21-2.77,4.98-3.87,7.47l12.17,0.83c6.64-3.87-2.77-4.98-2.21-9.13
		c1.66-2.77,2.21,2.21,4.43,0.83c16.05-0.83,31.27-3.32,44.83-9.68c4.43-4.15,11.34-7.47,10.51-13.56c-2.9-3.15-2.63-6.29-3.82-9.63
		c-1.92-1.39-3.88-2.71-5.88-3.99c2.56,2.89,4.35,6.52,6.1,10.02c-6.09,0.28-12.45-3.32-18.82-4.7c-0.55-1.94,3.05-1.11,0.83-2.77
		c-2.49,0.55-4.98,1.38-7.47,2.21c-28.5-6.92-62.81-5.81-92.14-3.87c-19.37-0.28-40.95,6.36-55.62,6.09l1.66,1.38
		c-2.77,1.66-7.47,3.32-9.68,1.66c3.2-10.74,13.18-20.35,18.28-29.61h-4.69c-7.36,9.28-14.82,18.46-18.84,28.78l-0.83-0.83
		c-5.19,3.21-3.78,9.06-6.95,13.03l1.69-1.69c0.28,1.66,2.77,3.6,0.83,5.26c20.2,7.19,40.95,13.56,65.03,11.9
		c4.98,3.32,3.6,9.13,6.09,13.56c11.62,12.45,11.9,28.5,11.07,44c-5.26,6.09-8.03,13-8.03,21.03c5.81,5.26,3.88,14.67,6.64,21.86
		c4.7,3.6,8.03,8.85,8.3,14.94c3.32,14.39-17.71,14.11-17.99,27.67c-2.49,3.32,1.11,10.51,2.21,9.13l-1.38-1.66
		c-2.21-3.04,0.28-6.09,0.55-8.85c3.32,1.66,3.04,6.09,5.26,8.85l-2.22,2.21c28.78,19.09,19.65,55.89,22.41,83.84l-1.38,1.66
		c-11.07-4.43-22.41-0.55-32.93-6.09c0,0.83,0.28,1.94-0.83,2.22c-1.66-1.11-3.87,0.55-6.09,0.83
		c-15.77-21.58-40.4-41.78-43.99-68.07h0.55l-0.55-6.09h-1.66c-2.49-15.5,1.66-27.39,2.22-42.61c-1.11,4.7,0,10.24-3.6,14.11
		c1.11,14.67-2.21,28.5,0,42.61c-0.55-0.55-1.66-1.11-1.38-2.21h-1.66c5.53,5.26,4.43,13.56,9.68,17.99l0.83-3.6
		c3.6,5.81,8.03,11.35,10.51,17.99l0.83-0.83c34.03,35.14,47.87,78.86,86.05,112.34c8.3,12.73,13.56,27.12,22.41,39.01
		c-5.53-11.34-13.28-22.41-16.32-33.76c9.13,11.35,15.22,23.8,20.75,36.8l-2.22,2.77l-1.38-2.77c-1.11,9.96-10.79,14.66-15.77,22.97
		c-2.49,1.94-4.7-0.55-3.87,3.87c-0.28,0.56-0.64,0.96-1.04,1.27l1.04-0.43c4.7,4.43,8.86,8.3,11.34,14.11
		c-3.87,0.83-6.09,5.81-10.51,5.26c1.38,6.92,8.86,6.64,11.9,11.34c-6.64,1.93-13.84,5.26-20.75,4.43c1.38-3.6,5.81-2.49,8.86-3.87
		c-3.32,0.56-6.36-0.28-8.86-2.21l2.77-1.38c-1.38-1.38-3.87-0.56-5.81-0.83c-3.87-2.77-5.26-6.64-6.92-10.51
		c4.43-4.43,9.68-9.13,15.22-12.73c-5.26,2.49-8.86,8.02-14.39,9.13c-1.94-1.11,0.55-2.49,0.83-3.04
		c-8.85,5.26-16.6,13.84-24.62,21.03c-1.66-1.94-3.32-6.92-1.66-6.92c-16.6-12.45-21.3-33.76-33.76-50.08v-2.22
		c-19.65-27.67-35.14-57-49.25-86.88c-3.87-14.39-14.67-27.12-8.3-42.06c3.6,5.53,4.98,11.9,8.85,17.43c6.37,0,7.75,7.2,12.73,10.24
		c-0.28,1.11-1.38,0.83-2.21,0.83c0.55,0.55,1.11,0.83,0.83,1.66h1.38c1.38,3.04,3.87,6.36,2.49,9.68l3.6,3.6
		c4.15,2.49,7.19,7.19,9.13,10.51c0.83,2.49,0.83,6.09,2.77,7.47c0-1.66-1.11-4.15-0.55-5.26c3.87,4.7,10.24,6.09,12.73,11.35
		c3.32-4.7,5.53,2.21,8.86,2.21c1.66,1.11,2.21-0.83,2.21-0.83l2.21-2.22c1.66,1.38,3.05-2.49,1.66-3.6
		c0.55-2.49-1.38-7.47,1.38-9.96c1.66,0.83,3.04-16.05,0-24.63c0.28,0.83-0.28,1.11-0.55,1.66c-1.94-1.38-2.21-3.05-3.04-4.7
		c-6.64-0.83-5.26-8.86-7.47-13.28v-1.66c-2.21-2.49-4.15-5.81-3.87-8.3l-0.83,0.83l-5.26-6.64l0.83-0.83
		c1.38-0.55,2.21,0.83,3.04,1.38c2.49-1.66-1.38-0.83-0.83-2.77c1.11-3.6-5.53-7.2,0-9.13c-5.81,1.66-4.43-5.53-6.64-7.47
		c-1.38,3.32,2.77,5.53,0.83,8.3c-3.05,1.38-3.6-2.77-5.26-3.05v3.87h-12.73c-3.87-3.05-12.45-3.87-10.52-9.96
		c-3.04,0-8.58,0.83-10.51-3.6c-1.38-0.83-2.49-1.11-3.04,0.83c-5.81-5.26-19.09-6.64-16.33-17.99c1.11-1.11,3.6-1.11,3.6-3.04
		l-1.38,1.38c-2.21-2.21-3.32-5.26-3.87-8.3l3.04-0.55l-3.04-7.47c-2.49-4.98,1.94-11.62-3.6-15.77
		c-1.11-5.53-4.15-14.94-6.09-22.41c-1.38-0.55-1.94,0.83-3.05,0.55l-1.38-7.47c-3.32-3.6-3.6-8.3-5.26-12.73
		c-3.32-7.47-0.55-17.99,0.55-26.01c-6.37,1.38-1.38,7.47-5.81,9.68c0,6.64-4.98,12.73-4.43,17.99l2.21-3.04l1.38,1.38
		c-2.77,5.53,0,14.11,2.21,20.2h1.66c-1.11-1.11-1.38-3.6-0.83-4.43c5.26,4.98,7.75,13.28,9.68,19.37c1.11,0.28,2.49-0.55,3.05,0.83
		c-0.28,1.11,0.55,2.49-0.83,3.04c-9.41-5.26-16.88,3.6-26.29,3.87c-4.43,0.28-9.96,4.98-14.94,4.43
		c-22.41,8.86-44.55,17.99-67.24,26.01c-3.6-1.38-5.26,6.64-8.3,1.66c29.33-40.4,69.45-71.11,106.25-105.7
		c2.49-1.38,5.53-7.75,9.13-5.81l10.51-10.52c2.77,7.47,3.32,15.77,5.26,23.8l2.22-4.43c4.98-3.04,9.68-2.77,14.11,1.66
		c2.77,2.21,7.75,2.21,8.3,6.64l3.6-1.66c1.11,1.38,3.05,2.21,3.05,3.87c-0.83,0.83-1.66,2.21-3.05,2.21l6.09-1.38
		c1.11,1.11,3.6,2.77,1.66,4.43l5.81-5.26c1.94,3.87-0.55,10.24-0.83,11.9l0.83-0.55l0.83,0.55c-0.55,4.15,1.11,8.02-3.88,9.13
		c-1.38,7.47-2.77,15.22-5.26,22.41h1.66v-3.87c3.6-4.7,1.94-11.9,4.43-17.16l2.21,2.21c1.66-13.84,1.94-28.78,11.34-38.74
		l0.83,0.55c-3.6-4.98-8.58-10.51-8.3-16.33c0.28,0.28,0.83,0.83,1.38,0.55c-2.49-3.04-4.43-6.64-3.6-10.24
		c-7.19-6.36-16.6-6.64-25.46-8.3c-3.87-3.32-8.3-0.55-11.34-4.43c-13.01,8.86-25.46,18.82-39.57,24.63c0,2.21,2.21-1.66,2.21,1.38
		c-2.49,1.94-5.53,4.43-8.3,3.04l4.43-3.04c-11.62,8.3-24.35,13.56-35.97,21.86l-1.38-2.21c-20.75,11.07-37.91,30.99-61.43,35.97
		c-7.75,3.04-15.77,7.19-24.07,6.64c0.34-0.37,0.69-0.69,1.05-0.98c-12.98,5.11-26.29,9.6-41.45,9.83
		c-3.87-3.32-4.98-8.58-9.68-11.07l-0.83,0.83c-4.7-1.38,0-6.09-0.55-6.09l-0.83,0.83c-2.49-3.32,1.38-6.64,0.83-9.13l0.55,0.83
		v-4.43c1.11-1.66,2.49-1.66,3.87-2.49h-1.66c-2.49-3.04,2.77-0.83,3.04-3.6l-3.6-0.83c3.87-1.94,3.04-6.92,7.47-7.47
		c-3.04-6.64,1.66-11.9,5.81-16.33c1.38,2.21-1.94,4.43-2.77,6.64l2.77-3.87c1.66,2.49,0,5.26-0.55,7.47l1.38-1.38
		c1.94,1.66,1.38,4.43,1.38,6.64c0.83-6.09,1.94-19.65,2.49-26.01c2.77-4.7-2.21-10.51-1.66-14.94c2.21,0.55,1.94,3.32,3.04,4.98
		c-1.11-5.81-3.6-11.07-4.43-17.16l2.21-0.55l-4.43-3.04c0.28-1.11,1.38-0.83,2.21-0.83c-3.04-6.36-9.13-10.24-10.51-16.6
		c-0.55,2.21,2.77,3.6,0.83,5.26l-6.09-6.64l1.38,3.04c-4.43,0.28-9.41-2.77-13.28-6.09l3.6-1.38h-4.43
		c-5.81,1.66-13.84,3.04-16.6,6.64l1.66-1.38c4.98-1.11,11.35-1.38,15.77,1.38c-6.09,4.15-16.05,1.66-22.69,2.21
		c0.83-0.83,1.94-1.11,3.04-1.38c-2.49-0.55-4.15,0.83-4.43,3.04c-11.35,4.15-21.31,11.35-30.71,20.2
		c-1.66-1.38-2.21-3.04-3.04-4.43c-2.77-0.28-3.6,0-5.26,2.21c-0.55-0.55-1.11-1.94-2.21-1.66v1.66
		c-27.12,16.33-55.62,29.88-83.01,46.21c-1.66,3.32-8.3,4.98-6.92,8.3l0.83-0.55c3.87,3.87,1.38,10.79,5.26,14.94
		c1.94,0.83,1.94-1.66,3.04-2.21l3.04,3.6c0.83,0,1.66,0.28,2.21-0.83c3.87,3.04,7.47,6.64,11.9,8.3c0.55,2.21,5.53,4.43,1.66,6.92
		c0.83,0,2.21-0.83,2.77,0.55c-0.55,1.38-1.94,0.55-2.77,0.83c-1.11,0.28-2.49-0.28-2.49-1.38c-5.17,0.22-9.42,1.33-13.51,1.01
		c0.09,0.1,0.16,0.22,0.22,0.37c-1.11,3.04-4.43,0.28-6.09,2.21l3.04,1.38c-12.17,16.6-12.73,37.91-17.16,57.83
		c-0.83,8.58-1.66,18.26-2.49,26.29c-27.67-1.66-52.3-11.35-79.14-15.22c-5.74-2.17-11.97-3.14-18.35-3.74v2.66
		c32.5,7.63,65,14.71,98.32,19.9c-0.55,11.07,1.11,20.48,1.66,29.33l-64.47-14.94c-11.45-3.46-23.6-5.07-35.51-7.29v3.21
		c28.18,6.56,57.28,10.69,84.76,19.02c6.09,0.28,11.35,2.22,16.6,3.6c1.66,23.24,7.47,44.82,15.77,65.3
		c8.02,8.3,2.77,24.35,7.47,35.14c-0.83,6.64,3.04,5.81,7.47,8.86c-4.98,7.75-6.36,14.66-4.43,24.07
		c1.66,6.37,8.03,11.62,12.73,15.77l-0.83,0.83c7.47,7.19,19.92,1.94,27.67,1.38v0.83c4.98-5.26,13.84-10.52,13.56-18.82
		c-0.28-2.49,4.7-4.7,1.38-6.64c3.32-3.32-0.28-9.41,3.04-12.73h30.71c20.2,5.53,40.95,9.96,62.26,13.28
		c10.51,1.38,22.41,0.28,32.1,3.87c-2.21,2.77-1.11,6.92-5.26,8.86c1.11,0.28,2.49-0.55,3.04,0.83c-4.43,3.32,3.32,6.92,0.83,9.68
		l0.55-0.55c4.43,8.86,16.88,3.32,23.24,5.81c5.53-3.87,10.52-9.96,12.17-16.32l1.38,6.64l0.83-12.73
		c5.53-1.66,12.45,0.28,18.54,0.83c-1.38,3.32-2.21,7.19-4.43,10.51c-0.28-0.55-0.83-1.11-1.38-0.83c5.26,3.32-1.11,8.58,0,13.56
		c0,10.24,4.43,19.37,13.28,25.46c15.49,7.19,37.08,2.77,51.74-4.7c9.68-5.81,14.39-16.32,14.39-27.67c1.93-2.49,3.87-5.26,0-7.47
		c-0.55-8.02-1.94-16.32-4.7-22.41c35.14,4.7,70.01,9.13,106.53,10.51l1.38,1.38c5.81-0.55,12.45,1.11,18.82,1.66l2.21,2.21
		c0.83,6.64,10.24,13.84,7.47,17.98l8.86,13.28c2.77-0.55,2.49,2.49,3.87,3.87c4.98,1.38,9.41,1.93,14.11,1.38
		c-0.28,4.43-3.32,7.74-4.43,12.17l1.66,1.38l2.21,17.99c0.21,2.8,3.59,5.74,5.08,6.92h27.58c2.17,0,4.33-0.07,6.47-0.18
		c4.95-2.75,9.3-5.09,9.56-5.36c3.87-0.83,4.98-1.38,4.43-2.77c-0.55-3.05,3.04-3.05,4.43-4.7c4.98-1.93,9.41,2.22,14.39,3.04
		c0.75,0.98,1.54,1.81,2.37,2.53c23.08-8.46,43.28-23.72,58.51-43.63c-1.83-0.15-3.91-0.96-4.71-2.35
		c-7.19,1.11-11.9-3.6-18.82-3.04l8.3,2.49c-4.62,1.73-9.65,0.25-14.61-1.09c0.4,0.25,0.76,0.57,1.05,1.09
		c-4.98,2.49-8.85-1.94-12.73-3.87c4.43-2.22,9.96,1.11,13.56,0c-6.64-1.94-15.5-2.49-24.07-2.22l-1.38-1.38
		c2.21-1.11,4.7-1.38,7.47-1.66l-22.69,0.83c-1.11-1.66-4.15-0.55-4.43-3.04c0.55-0.83,1.38-0.83,2.21-0.83v-2.22
		c-4.98-1.66-9.96,3.32-14.94,1.66v-3.87c0.83-6.09,8.58-4.15,13.56-4.43c1.66-1.66,3.6-1.66,5.26,0
		c4.98-5.53,5.53-14.11,12.73-17.16c-0.83-4.98,2.77-10.51,6.64-13.56c12.45,6.09,28.78,2.77,41.23,8.86
		c9.72,1.33,18.05,5.26,27.34,7.23c0.71-1.96,1.38-3.95,2.02-5.96c-1.58-0.43-3.15-0.84-4.73-1.27
		C817.24,485.21,795.38,480.79,773.8,476.36z"/>
	<path d="M785.7,88.98c-0.92-1.14-1.42-3.18-1.42-4.5c-0.24-0.15-0.48-0.3-0.72-0.45C784.29,86.68,784.7,89.12,785.7,88.98z"/>
	<path d="M416.8,249.87c2.54-1,5.07-2.02,7.6-3.04C421.94,247.7,419.11,248.05,416.8,249.87z"/>
	<path d="M424.4,246.83c0.35-0.12,0.7-0.26,1.03-0.41C425.09,246.56,424.74,246.69,424.4,246.83z"/>
	<path class="st6" d="M737.83,87.59c-35.14,1.94-67.79-1.66-102.66,6.09C664.5,85.38,707.94,87.59,737.83,87.59z"/>
	<path class="st6" d="M683.04,90.63c0.83,2.77-0.83,4.7-2.21,6.64c-12.73,2.21-25.18-0.55-37.35-2.21
		C658.69,97,667.82,88.7,683.04,90.63z"/>
	<path class="st7" d="M704.07,95.06c-3.32-0.83-2.21,4.7-5.81,3.04c-3.04-2.77-5.53-6.09-9.13-6.92l-3.6,1.66v-2.21
		C692.17,90.91,699.64,88.98,704.07,95.06z"/>
	<path class="st6" d="M755.81,91.19c-15.49,3.04-32.93,3.6-47.87,5.26l2.21-1.38c-3.87,0.83-5.53-4.15-9.13-4.43L755.81,91.19z"/>
	<path class="st6" d="M787.91,98.66c2.49,0.83-3.87-1.11-3.6,1.66c2.21,0.55,3.87,2.21,6.64,1.38c-0.28,5.81-7.47,7.75-11.9,9.68
		c-11.62,0.55-21.58,4.98-32.93,6.09c-1.66,1.11-3.6,1.11-5.26,1.66l2.21-1.66c-2.21-1.66-4.98,0-6.64,1.66v0.55
		c-4.43-1.94-1.11-8.3-3.04-11.9c3.87-3.04-1.11-6.09-1.66-9.13C750,97.55,771.31,87.59,787.91,98.66z"/>
	<path class="st7" d="M696.6,101.15l-9.68,0.55c0.55-2.49-1.38-5.81,1.38-7.47C691.9,95.06,695.77,97.28,696.6,101.15z"/>
	<path class="st8" d="M214.31,112.22c14.11-6.36,30.44-0.28,46.49-2.21c3.32-1.38-0.55-3.6,2.21-5.26c-3.04-2.77-0.28-5.81,0-8.85
		h-2.21c3.87-6.64,4.7-15.5,5.26-24.07c0.72-1.43,0.51-3.46,0.17-5.53H243.2c-1.16,7.06-2.81,14.54-2.61,21.31h0.83
		c-0.55,3.04-4.15,3.04-3.87,6.64v-3.04c-11.34,0-22.97,3.32-35.14,3.04c-18.26,0-33.76,0-50.08,2.21
		c-3.87-0.04-7.83-0.1-11.83-0.15c-6.58,5.59-12.65,11.86-18.13,18.71C153.72,112.67,184.53,109.96,214.31,112.22z"/>
	<path class="st9" d="M148.45,93.68c27.39-3.6,55.34-5.81,83.84-6.92l3.87-3.04c-1.11,1.11-1.11,2.21-2.21,3.04
		c0.28,1.38,1.94,0.55,2.77,0.83c1.38-0.83,1.66-2.21,1.66-3.87l-0.83-0.55c3.57-4.7,3.44-10.93,3.86-16.88h-20.75
		c-29.3,0-56.34,10.52-78.09,28.25C144.13,93.62,146.28,93.28,148.45,93.68z"/>
	<path class="st10" d="M141.07,95.81c-0.03,0.03-0.06,0.05-0.09,0.08l0,0C141,95.86,141.05,95.84,141.07,95.81z"/>
	<path d="M244.19,58.26h-1.38c-0.89,2.48-1.2,5.22-1.4,8.03h1.8C243.65,63.53,244.04,60.83,244.19,58.26z"/>
	<path d="M141.07,95.81c0.5-0.42,0.99-0.86,1.49-1.27C141.97,94.88,141.46,95.3,141.07,95.81z"/>
	<path d="M140.15,94.23c-26.29,1.66-58.66,0-86.05,1.66v2.77h21.58c19.44-2.81,42.82-2.65,64.82-2.36c0.16-0.14,0.32-0.27,0.48-0.41
		C140.42,95.34,139.87,95.06,140.15,94.23z"/>
	<path d="M202.41,94.23c12.17,0.28,23.8-3.04,35.14-3.04v3.04c-0.28-3.6,3.32-3.6,3.87-6.64h-0.83c-0.2-6.77,1.46-14.24,2.61-21.31
		h-1.8c-0.42,5.94-0.29,12.18-3.86,16.88l0.83,0.55c0,1.66-0.28,3.04-1.66,3.87c-0.83-0.28-2.49,0.55-2.77-0.83
		c1.11-0.83,1.11-1.94,2.21-3.04l-3.87,3.04c-28.5,1.11-56.45,3.32-83.84,6.92c-2.17-0.39-4.32-0.06-5.89,0.86
		c-0.51,0.41-0.99,0.85-1.49,1.27c-0.02,0.03-0.07,0.05-0.09,0.09l0,0c-0.16,0.14-0.32,0.27-0.48,0.41c4,0.05,7.96,0.11,11.83,0.15
		C168.65,94.23,184.15,94.23,202.41,94.23z"/>
	<path d="M54.1,117.48v3.87c20.75-0.55,42.61-2.49,62.26-1.66c0.88-0.15,1.78-0.27,2.69-0.37c1.08-1.46,2.19-2.9,3.32-4.31
		C99.83,116.68,77.01,118.17,54.1,117.48z"/>
	<path d="M272.69,58.26c-9.07-2.56-7.33,2.88-6.47,8.03h5.58C272.18,63.67,272.49,61.01,272.69,58.26z"/>
	<path d="M191.06,115.26c24.35,2.49,52.57-3.6,74.99-1.38l-1.38-1.66c1.38-0.55,2.49-1.66,4.43-1.38l-3.04-2.21
		c3.04-8.3-0.83-16.6,3.6-24.07l-0.55,0.83l-0.83-5.26c1.79-4.46,2.84-9.06,3.54-13.83h-5.58c0.34,2.07,0.55,4.1-0.17,5.53
		c-0.55,8.58-1.38,17.43-5.26,24.07h2.21c-0.28,3.04-3.04,6.09,0,8.85c-2.77,1.66,1.11,3.87-2.21,5.26
		c-16.05,1.94-32.37-4.15-46.49,2.21c-29.78-2.25-60.59,0.45-91.94,2.79c-1.13,1.41-2.24,2.85-3.32,4.31
		c7.42-0.86,15.77-0.45,21.93-2.67C157.31,115.26,175.57,116.92,191.06,115.26z"/>
	<path d="M761.9,95.06c-0.55,1.38-3.04,0.55-4.7,0.83C759.13,96.45,759.96,94.51,761.9,95.06z"/>
	<path class="st6" d="M670.31,102.53c-0.55-0.28-0.83,0.28-1.38,0.83c1.66,2.49,8.3-0.28,6.09,5.26c-2.49,1.94-3.87,4.15-4.7,6.64
		c-4.15,1.38-9.41-2.77-13.28,0h-19.64c0.83-1.11-5.53-0.83-8.02-1.38c-8.86-2.21-18.54-1.94-26.29-6.09
		c9.68-8.02,26.01-13.01,39.57-7.47C652.33,102.26,663.12,102.81,670.31,102.53z"/>
	<path class="st7" d="M683.87,101.7l-3.04,2.21l2.21-5.81C684.42,98.11,683.59,100.6,683.87,101.7z"/>
	<path class="st6" d="M717.63,98.66c-1.66,0.28-3.6-0.28-4.43,1.66c4.43-0.55,11.9,1.11,16.32-1.66c-4.15,5.26,1.94,8.3,0.83,12.17
		c0.55,1.38,1.94,3.6,1.38,5.81c-4.7,1.38-9.13,0.55-12.73,0.83c0.28-0.55-0.28-1.11-0.55-1.38c-1.66,0.28-2.49,2.21-4.7,1.38
		l-1.38-1.38l-1.38,1.38c0.83-6.92-11.62-12.17-3.04-18.82H717.63z"/>
	<path class="st7" d="M703.52,102.53v1.38c-0.83-1.94-3.87-1.38-4.7-1.38v-1.38C700.47,101.43,701.58,102.81,703.52,102.53z"/>
	<path class="st7" d="M693.55,103.36c-2.49,3.6,3.32,1.11,4.7,3.04c1.11,0,1.66-1.38,2.77-0.83c-1.94,6.36,7.19,11.07,3.87,17.99
		c-1.11,0-2.22-1.94-3.05,0c3.6,2.21,1.94,6.36-1.38,7.47l1.38,1.38l-0.83,0.83c0.28-0.83-0.28-1.11-0.55-1.38l-7.47,7.47l1.38,1.38
		l0.83-0.83c1.11,1.94-5.53,2.49-3.05,5.26c1.66-1.11,3.05-1.38,5.26-0.55c-1.38,1.66-1.66,3.6-1.38,5.81
		c2.49,0.83,1.38,6.92,0.55,9.68c1.11,5.81,0.83,9.13,3.04,14.39c-1.11-0.28-1.38,0.83-2.21,1.38c-0.28,0.83,0.28,1.11,0.83,1.66
		l1.38-1.66c2.21,0.83,1.38,4.43,4.43,3.04c5.81,6.64,12.45,14.94,7.47,24.07c-0.28,1.38,0.83,3.32-0.55,4.43
		c0-0.83-0.55-1.11-0.83-1.38h-2.21c0.28-0.83-0.28-1.11-0.83-1.66c-1.38,7.47-5.26,12.45-11.07,17.16
		c-5.81,1.66-9.13-3.87-12.18-7.47c-0.83-2.77-0.28-4.7,2.21-6.64c-0.28-0.55-0.83-1.11-1.38-0.83l-2.21,2.21
		c-2.21-6.36-2.49-13.28,0.55-18.54c-4.43-5.26,6.64-8.58,2.49-12.17c1.38-10.51,4.15-25.18-2.49-34.31
		c2.49-4.43-2.77-8.3-2.21-11.9c-1.38-3.87-3.87-9.96-0.55-12.73c-2.21-2.49-1.11-5.26-3.87-7.75c2.22-3.87,9.96-1.11,9.13-4.98
		l5.81-1.66c-0.28-0.83-1.38-0.55-2.21-0.83C690.23,103.09,692.73,102.81,693.55,103.36z"/>
	<path d="M804.51,106.96v0.83c-1.66,0.83-2.77-1.11-3.05-2.21l2.22,2.21L804.51,106.96z"/>
	<path class="st7" d="M707.94,119.69c2.21-4.43-4.43-5.53-3.04-9.68C704.35,113.88,710.71,115.82,707.94,119.69z"/>
	<path class="st6" d="M664.5,121.35c-11.62,1.11-21.58-2.21-32.37-3.04C642.36,120.24,657.03,120.24,664.5,121.35z"/>
	<path class="st11" d="M734.78,125.78h-2.21c0.28-0.83-0.28-1.11-0.83-1.38l-1.38,2.21c-0.28-3.04,2.22-2.21,3.05-4.7
		C733.96,122.46,735.34,124.12,734.78,125.78z"/>
	<path class="st12" d="M354.32,140.72c1.66,0.83-4.43-1.66-7.47-0.83v-1.38C349.89,137.95,352.38,139.06,354.32,140.72z"/>
	<path d="M672.8,144.59c0.55,1.11-4.15-1.94-2.49-3.87C669.48,142.66,671.97,143.21,672.8,144.59z"/>
	<path class="st7" d="M682.49,150.4l-3.87-8.3C683.87,142.1,681.1,147.64,682.49,150.4z"/>
	<path class="st13" d="M341.04,234.24c0.19-0.64,0.14-1.11-0.03-1.5C340.83,233.1,340.81,233.57,341.04,234.24z"/>
	<path class="st13" d="M370.71,215.16l0.21-0.29C370.86,214.84,370.79,214.96,370.71,215.16z"/>
	<path class="st12" d="M349.97,164.13c6.96-3.14,14.32-5.51,21.78-7.64c0.55-3.04-5.26-4.15-3.04-6.64l1.38,1.38
		c0.83,0.28,1.11-0.28,1.66-0.83c-5.26-2.77-9.96-6.36-15.77-7.47c-0.28,1.94-2.77,4.15-0.83,6.09c-2.49,1.11-2.77,5.81-6.09,3.04
		c-3.6,3.87-11.07,1.38-13.28,7.47c1.38,0.28,2.77,2.77,4.43,0.55c0.36,3.45,3.34,3.21,5.43,3.81
		C346.87,163.45,348.41,163.86,349.97,164.13z"/>
	<path class="st13" d="M374.58,162.15c0.1,0.95-0.07,1.81-1.44,1.81c-0.72-0.58-0.84-1.38-0.83-2.21c0,0,0,0,0,0c0,0,0,0,0,0
		c0.01-0.76,0.13-1.55,0-2.21c-8.02,0.55-15.11,6.6-23.13,4.94c0.26-0.12,0.53-0.22,0.79-0.34c-1.56-0.27-3.1-0.68-4.34-0.24
		c1.1,0.31,1.95,0.85,2.05,2.28c1.94,0.83,4.43,0.28,6.09,1.38c-8.02,4.15-14.39-6.92-21.86-5.81c-1.38,2.77-5.26,2.49-5.26,5.81
		c-17.43,5.53-1.11,21.86-5.26,31.54l-1.38-1.38c0.28,2.77-0.55,5.81,0.83,8.3c0.28-2.21-1.38-4.98,1.38-6.09
		c2.77,4.43-2.77,9.41,4.43,10.52c-1.11,2.21,1.94,4.43,3.04,6.64c-2.49,1.66-3.6-1.94-5.26-3.04l1.38,4.7
		c8.3,5.81,5.26,18.54,11.34,22.97c-0.55,1.38-1.94,0.55-3.04,0.83c1.38,4.7,0.55,10.51,0.83,15.77c-0.28,1.94,4.7,2.49,3.04,2.21
		c0-0.83-0.28-1.66,0.55-2.21c1.66,1.66,2.77,6.92,6.09,3.87c3.87,4.15,11.62,4.15,17.16,2.77c-0.83-9.41-1.66-22.69,0.83-32.93
		c-5.26,0.83-13.28,1.66-18.82,2.21l0.83,0.83c0.28,1.11-0.83,1.38-1.38,2.21c-2.77-0.83-5.81-2.21-6.92-5.26l-0.55,0.83l-1.66-1.38
		c0.28-1.11-0.55-2.49,0.83-3.04l1.38,1.38l0.83-0.83c1.06,2.13,3.25,2.47,3.84,3.76c0.89-1.83,6.34-0.02,8.89-0.71l-8.85-4.43
		c-3.04-0.55-4.15-6.09-6.09-3.04c-2.77-1.11-4.7-4.15-6.09-6.64c1.66-0.28,3.04-2.77,4.7-0.83l-1.66,1.66
		c0.55,0.28,1.11,0.55,0.83,1.38l2.21-2.21l0.83,0.83c0.28,0.55-0.55,0.83-0.83,1.38c3.6,1.66,5.53,6.36,9.68,6.64
		c6.09,1.11,11.07,1.94,14.94-4.43c1.94,2.49-2.49,3.87-3.6,6.09c0.83,0,1.66-0.28,2.21,0.55c0.28,0.83-0.28,1.11-0.83,1.66
		c1.94-0.83,4.43-0.28,6.09-1.66c-0.28-1.94,1.94-6.09,2.21-9.68c3.43,4.65,4.47-2.59,5.05-4.14l-2,2.76
		c-2.49-1.38,1.66-2.49-1.66-3.04c2.21-1.38,2.49-3.6,3.87-5.26c-1.38-14.66,5.26-29.05,3.04-44.27c0.12,0.01,0.19,0.07,0.29,0.09
		C374.25,164.01,375.39,162.76,374.58,162.15z"/>
	<path class="st12" d="M374.52,159.54c-0.61,0.15-0.07,1.46,0.06,2.62c0.81,0.61-0.32,1.85-0.32,3.28c2.48,0.58,0.06,4.64,1.92,5.17
		c2.77,11.34-2.49,22.41-1.66,34.59c2.21-2.77,5.26-4.98,6.09-8.3C380.88,184.44,381.16,169.5,374.52,159.54z"/>
	<path class="st13" d="M330.52,157.32c-9.13,6.92-12.73,20.48-24.9,21.58c-2.77-1.11,0-5.26-3.6-5.26
		c-2.21,3.87,1.38,7.19-3.87,9.68c0.28-4.7-3.87-10.24,0.83-14.11c3.87,1.66,1.94-3.04,4.43-3.87
		c13.84-11.9,30.44-21.31,47.87-19.37v2.21L330.52,157.32z"/>
	<path class="st12" d="M375.35,156.49c-1.66,0.28-1.38-1.94-1.38-3.04C374.79,154.28,375.07,155.38,375.35,156.49z"/>
	<path class="st14" d="M293.72,173.65c-0.55-2.49-3.32-5.26-2.21-7.47C293.17,168.39,294.27,170.6,293.72,173.65z"/>
	<path class="st13" d="M582.04,168.39c-1.11-2.49,1.66-0.55,2.21-2.21l0.83,0.83L582.04,168.39z"/>
	<path class="st14" d="M289.29,167.56c2.77,5.53,4.7,11.35,6.09,17.43c0-0.83-0.55-1.11-0.83-1.66c-4.7,0.55-11.07,4.7-15.77,8.3
		c-1.94,1.11-1.66,3.6-3.87,3.87c-0.83-3.6,6.09-6.09,1.66-8.3c-4.43,4.43-4.43,13.84-12.73,13.56c-0.55,0.55-1.94,1.11-1.66,2.21
		c1.66,0.83,1.38,0.83,0,2.21c-0.55-0.55-1.11-1.94-2.21-1.66c-1.38,0.55-0.55,2.21-0.55,3.04c-5.53,0.83-11.07-8.58-14.39-3.04
		l6.09,3.04c-1.66,0-8.03-3.32-11.35,0c3.04,2.49,7.75,0.83,11.35,2.21v0.83l4.43,0.83c-3.87-1.66-1.38,5.81-5.26,2.21
		c-1.66-0.28-3.6-2.77-5.26-0.83c0.28,2.21,2.77,1.94,0,3.87c-2.77-0.28-5.53-2.77-8.3-0.83c1.94,2.21,4.7,1.94,6.92,3.04
		c-1.66,1.11-2.21,2.77-3.04,4.43c1.38,2.21,2.21-1.11,3.6-0.83c-1.11,2.21-3.04,4.15-3.6,6.92c3.6,0.28,6.92,2.77,10.52,0.55
		c5.81-4.98,16.33-3.04,23.24-1.38c7.75,1.11,14.66,7.19,22.41,6.09c-2.49-4.15-8.86-1.38-11.9-5.26
		c12.45-0.55,24.07,11.35,33.48,18.54v2.49c-1.11-0.28-1.94,1.38-2.77,2.21c5.53-1.94,8.86,2.49,13.28,5.81
		c0.28,1.11-0.55,2.49,0.83,3.04c0.55-0.28,1.11-0.83,0.83-1.38c-0.83,7.19,3.6,1.11,6.64,4.43c9.68,1.38,16.6,9.41,27.67,7.47
		c2.77,0.28-4.7,1.94-2.21,4.43c3.87-1.38,6.36-8.3,10.51-6.64c0-0.83-0.28-1.94,0.83-2.21c1.38,0.28,2.21,1.66,3.6,2.21l1.66-1.66
		c-1.11-0.28-0.83-1.38-0.83-2.21c4.15-3.32,11.9,1.11,14.94-3.6h2.21c0,0.83,0,1.66,0.83,2.21c1.38,0.55,2.21-0.83,3.04-1.38
		c0.28-1.11-1.11-1.66-1.66-2.49c9.68-2.77,24.35,0,34.59-5.26c6.36-4.43,15.49-3.32,22.41-6.64c8.03-3.87,18.82-4.98,23.24-14.11
		c-1.66-1.11-4.43,0-6.09,1.38c11.34-16.05,32.93-18.82,47.32-32.93l6.64-3.87c-5.53,5.53-13.28,7.75-17.99,14.39
		c1.11,0.83,3.04,1.66,3.87,0.83c2.21-4.98,8.3-7.19,12.73-10.52c7.75-2.77,13.28-11.62,20.75-14.94c-0.28-1.11-1.38-0.83-2.21-0.83
		c5.81,1.38,9.96-5.26,15.77-5.26c-4.98,6.92-13.56,10.24-18.54,17.16l0.55,0.83c-18.26,15.77-38.74,30.99-54.51,47.87l-0.83-0.83
		l-6.09,6.09l0.83,0.83c-9.96,11.9-23.8,25.73-35.14,38.74l0.83,0.83c-1.11,0-1.94,0-2.49,0.83c-3.87,6.64-6.36,14.67-13.28,19.37
		l-0.83-0.55c-16.88,12.17-35.14,23.24-50.91,36.53l-0.83-0.83c-6.36,5.81-12.73,9.96-17.99,15.77c-4.98,2.22-9.41,13.56-15.77,6.09
		c-2.21,1.38,1.11,2.21,0.83,3.6c-6.36-2.49-14.39-0.83-21.58-1.38c0-1.38-1.66-1.93-2.21-3.04l-2.49,1.66
		c0.55,0.83,1.38,0.55,2.49,0.55c-1.11,0.83-1.66,1.94-3.04,1.66c0.28-0.83-0.83-1.94-1.66-1.66c-0.83,0.28-2.49-0.55-3.04,0.83
		c-0.28,3.6-5.26,2.49-8.02,3.87l-0.83-9.96c-1.94,1.11-2.49,4.15-2.21,6.92c-0.55-3.6,1.66-9.68-3.87-9.68
		c-3.87-1.11-6.36,1.38-8.86,3.6c2.21-6.92,5.26-13.84,8.86-20.2c-0.28-0.83-1.38-0.55-2.21-0.83c-3.6,7.2-8.3,13.84-11.07,21.03
		c1.11-2.49,2.77-5.81,2.21-8.3l-4.7,5.26l-0.55-0.55l-5.26,13.28c0.28-8.3,5.81-16.88,5.81-25.46l-1.38,2.21
		c0-0.83-0.28-1.66,0.83-2.21l-1.66-1.38c-0.83,2.49-0.83,5.53-2.77,7.47c0.55-2.77,0.83-5.81,2.77-8.3l-2.21-0.83
		c0.83-4.43,5.81-6.64,6.92-11.9c0,1.11-0.83,2.49,0.55,3.05c4.7-2.77-2.77-4.98,0.83-8.3l-1.38-1.38l-0.83,0.83
		c-0.55-4.15-4.15-9.41-6.09-15.22c4.98,5.26,8.02,13.28,13.56,17.99l0.83-0.55c-6.37-9.96-14.94-18.82-16.6-30.71
		c-0.83-8.02-1.38-16.05-2.21-24.07h0.83c1.38-0.83-0.28-2.21-0.83-3.04c-4.15,0.83-1.38,5.53-2.21,8.3
		c-0.28-2.21,0.55-4.98-0.83-6.64h-1.38c-0.28-1.66,0.55-3.6-0.83-4.7l-1.38,1.66c-4.15-3.6-5.53-9.13-9.96-11.9l-1.38,1.38
		l3.04,3.04c-6.09-5.81-13.56-11.07-17.99-17.15c-3.32-1.66-6.36-3.87-9.13-6.92c0.83,0.28,1.11-0.28,1.66-0.83
		c-11.35-4.43-17.43-17.43-25.46-25.46c2.21-3.04,6.92-6.09,10.51-5.81c21.58-14.94,47.04-22.41,68.07-37.63
		c-5.26,0.28-10.51,5.26-15.77,7.47l-11.9,6.09C268.82,180.29,279.61,175.58,289.29,167.56z"/>
	<polygon class="st14" points="272.14,175.86 283.21,168.39 273.52,175.86 	"/>
	<polygon class="st13" points="572.36,170.6 575.4,168.39 574.57,170.6 	"/>
	<path class="st13" d="M612.76,178.9c2.21,8.58,11.34,15.22,6.64,25.46l-9.68,7.47c3.32,1.94,5.81-3.32,9.13-3.6
		c-2.77,2.77-4.15,7.19-8.3,8.03c-2.77-2.49,0.28-4.98-4.43-4.43c-6.92-4.43-9.13-12.17-9.13-20.2c-2.77,1.94-0.83,5.53-1.38,8.3
		c-6.09-6.09-1.66-16.88-9.13-21.86c-0.28,7.19,2.77,14.94,3.87,22.69h0.83v-3.87l3.6,9.13c-4.15-2.77-11.35-4.15-11.07-10.51
		c-2.22-6.36-3.05-13.01,0.55-18.82c0.28-0.83-0.28-1.11-0.55-1.38c-5.81,1.11-1.38,9.41-3.87,13.28c-2.21-0.28-0.83,2.49-2.21,3.04
		c3.87,3.6,2.49,8.3-2.21,10.52c-2.22-2.21,1.38-4.7,0-6.64l-2.22,2.77c-1.11-1.11-0.83-2.77-0.83-4.43
		c4.15-1.66,1.38-9.41,3.6-13.56c3.05-0.83,0-2.77,0.83-4.98c5.53-0.28,11.07-10.79,15.77-1.66c0.83,0.55,1.11,1.94,2.22,1.66
		l0.83-0.83c-1.66-1.66-4.43-3.6-4.43-5.26C596.43,175.03,609.99,165.62,612.76,178.9z"/>
	<path d="M345.46,192.46c1.11,1.38,3.6,0.55,5.26,0.83v1.38c-3.32,1.66-6.92,0-9.68-1.38c2.21-8.02,1.38-14.66,3.6-22.69
		L345.46,192.46z"/>
	<path d="M370.09,174.48c-3.04-1.66-8.86-3.32-13.56-1.66c-1.38,1.66-4.7,1.66-4.43,4.7c-0.55,0.28-1.11-0.55-1.38-0.83
		c0.83-4.43,5.81-2.77,8.3-5.26C363.17,171.43,367.32,171.16,370.09,174.48z"/>
	<path class="st13" d="M574.57,172.82c-3.32,4.7-9.68,1.94-12.73,6.92l-6.64,0.55C561.29,177.52,568.49,174.2,574.57,172.82z"/>
	<path d="M339.38,175.31c-6.37-1.11-13.84,3.87-17.99,7.47c-1.66-3.04,2.77-6.09,5.26-6.92c4.43-0.55,8.02-1.94,12.73-1.38V175.31z"
		/>
	<path d="M600.03,180.29c0.28,3.04-3.32,0.28-3.04,3.04v4.7c-3.32-2.21,0-6.64,0-9.96l1.66-2.21l-0.83,4.43H600.03z"/>
	<path d="M362.62,180.29c0.28,0.83-0.28,1.11-0.83,1.66c-2.49,0.83-1.66-2.21-2.77-3.04C359.02,174.48,363.17,177.52,362.62,180.29z
		"/>
	<polygon class="st14" points="263.84,180.29 267.43,178.07 264.67,181.12 	"/>
	<path d="M332.35,179.4v4.35h-1.73v-5.32C331.31,177.94,332,178.91,332.35,179.4z"/>
	<path class="st5" d="M315.58,223.73c4.15-2.49,0.83-9.96,2.77-14.11c0.55-0.28,1.11-0.83,0.83-1.38h0.83
		c2.49,6.37-1.66,12.73,0.83,19.37c2.21-1.11,1.11-3.32,1.38-5.26c0.55,4.15,5.81,2.49,6.64,6.09c0.55,3.32,1.11,6.64,0.83,10.51
		c-6.92-0.28-14.11-4.98-21.03-7.47h-1.38l3.04-0.83c-6.09-5.81-16.88-5.26-22.69-11.9c-6.92-1.38-12.45-6.36-19.37-8.3
		c4.7-3.6,8.58-11.62,14.11-10.52l-1.38-1.66c1.38-3.6,6.09-2.77,9.68-2.77c4.43,4.7,6.09-0.55,10.51,3.6
		c3.32-4.7,3.04-11.07,3.04-17.16c2.49-0.28,5.81,0.83,7.47-1.66C314.47,196.61,312.81,208.51,315.58,223.73z"/>
	<path class="st12" d="M317.79,201.32h-1.66c1.11-3.32,1.94-5.81-0.55-8.85h0.55c1.66-4.15,0.28-8.58-1.38-12.17
		C319.18,186.1,318.9,195.23,317.79,201.32z"/>
	<path class="st13" d="M571.53,191.63c0.28-2.77,0-5.81-2.21-6.64l2.21-3.04V191.63z"/>
	<polygon class="st12" points="314.75,188.59 313.92,185.54 314.75,185.54 	"/>
	<path class="st7" d="M678.06,201.32c-3.87-3.6,0.28-10.79,2.21-15.77C682.77,191.36,675.29,194.68,678.06,201.32z"/>
	<path class="st14" d="M292.89,187.21l-4.43,2.21l0.83,0.83c-1.94,1.66-4.43,2.21-6.92,3.04l0.83-0.83l-0.83-0.83
		C283.76,190.25,289.02,185.27,292.89,187.21z"/>
	<path class="st14" d="M294.55,192.46c-0.83-0.55-3.32,1.94-5.26,0l3.6-3.04L294.55,192.46z"/>
	<path class="st14" d="M223.44,204.36c4.98-5.53,15.49-9.41,23.24-14.11C240.87,194.4,230.91,200.49,223.44,204.36z"/>
	<path class="st14" d="M299.81,194.68c-0.83-0.55-2.49-2.49-0.83-3.87C299.53,192.19,300.08,193.29,299.81,194.68z"/>
	<path d="M360.41,204.36c-5.81,4.43-15.22,3.32-21.86,7.47l-3.6-0.83C342.97,207.13,351.27,207.4,360.41,204.36z"/>
	<path class="st7" d="M686.08,225.39c-3.87-3.04-4.43-8.58-5.26-13.56C684.98,216.26,682.21,220.96,686.08,225.39z"/>
	<path class="st14" d="M274.9,216.26c-0.83-0.28-6.92-1.94-9.68-1.38c0.55,2.49,4.15,1.38,5.26,3.87c0.55-1.11,1.38-0.83,2.21-0.83
		l-0.55,0.83c0.28,0.28,0.55,0.83,1.38,0.55c0.83-1.94,4.98,0.55,7.47,0.83l2.21,0.83l-0.83,0.55l5.26,3.04
		c-6.36-0.83-12.73-2.77-18.54-5.26l-0.83,0.83c3.6,0.28-0.83,3.32,3.04,3.6c-4.7-1.66-8.58,0.83-12.73-2.21l3.04-2.77
		c1.11,1.11,4.7,2.21,7.47,0.55c-1.66-1.38-4.15-1.38-6.09-2.21C265.22,209.34,271.03,215.15,274.9,216.26z"/>
	<polygon class="st12" points="322.22,220.13 322.22,214.88 324.43,219.3 	"/>
	<path d="M377.56,214.88l-0.55,2.21L377.56,214.88z"/>
	<path class="st14" d="M256.92,219.3c0.55,0.83-2.49,0.28-1.38-1.38L256.92,219.3z"/>
	<path class="st14" d="M248.89,223.73h-0.83c-0.55,1.94-0.55-1.66,0-2.21h0.83V223.73z"/>
	<polygon class="st7" points="690.79,225.39 689.13,223.18 690.79,223.18 	"/>
	<path class="st7" d="M698.81,223.18c-1.66,1.66-1.66,4.15-3.6,5.81l1.38,1.66c0.83-1.11,2.49-1.66,2.21-3.04
		c1.11-0.28,1.66,1.11,2.21,1.38l1.66,20.48c-1.11,0-2.49-0.83-3.04,0.55c4.98,1.94,5.53,4.7,8.3,9.13c1.94-1.94-0.55-3.6-0.83-5.26
		c1.38-3.32,4.98,0,7.47,0c3.32,6.36,3.32,13.84,3.04,21.58l-3.04,3.04c-0.28-1.66,0.55-3.87-0.83-5.26h-0.55l-0.83,8.3l-1.38-0.83
		v3.04l-1.66-1.38c-0.55,0.55-1.66,1.11-1.38,2.21c1.38,0.83,1.66-0.28,1.38,2.21c0.28-0.83-0.28-1.11-0.55-1.66
		c-0.83,2.21-1.94,4.43-1.66,6.92c-0.83,0-1.66,0-2.21-0.83c-0.83,0.55-0.83,1.38-0.83,2.21c3.6,1.38-0.83,3.04,1.66,4.43
		l-0.83-0.55c-2.49,11.35,4.15,22.97,3.04,35.97l1.38,27.67c-1.94,0-6.64,1.38-8.3-2.21c-1.94-8.03-2.21-21.03,0-26.29
		c-1.94-10.79-1.94-19.65-2.77-30.71c1.11-0.28,1.66,1.38,2.77,0.83l0.83-0.83c-0.28-1.94-4.7-1.38-2.21-3.87
		c-3.04-0.55-1.11-6.09-4.43-3.6l-3.05-3.87l0.83-0.55c-4.7-0.55-1.66-7.19-6.92-6.09c-3.04-6.92-8.85-13.01-9.68-21.03
		c3.32-3.32,5.26-8.3,9.68-11.9c0.28,1.11-0.55,3.04,0.83,3.6c2.21,0,1.66-2.77,2.21-4.43c1.66,0.28,2.77,0,3.87-1.38
		C695.49,240.33,686.92,225.11,698.81,223.18z"/>
	<path class="st5" d="M205.45,231.48c-1.94-1.38-2.77-4.15-2.21-6.92C204.9,225.67,205.73,228.71,205.45,231.48z"/>
	<polygon class="st14" points="215.14,231.48 210.71,224.56 215.14,229.82 	"/>
	<path d="M371.75,230.65c-0.55-0.28,0.28-3.32,1.38-4.43L371.75,230.65z"/>
	<path class="st14" d="M302.02,230.65c-1.11-0.83-3.87-1.11-3.04-3.04L302.02,230.65z"/>
	<path class="st14" d="M305.62,229.82h-2.21v-0.83C303.96,230.09,304.79,229.82,305.62,229.82z"/>
	<path class="st14" d="M462.23,237.29c1.38-1.66,8.58-4.98,12.73-7.47C471.09,233.14,467.21,236.46,462.23,237.29z"/>
	<path class="st14" d="M470.53,238.95c-3.6,1.11-6.92,2.49-10.51,2.77C462.51,239.78,466.94,239.78,470.53,238.95z"/>
	<path class="st14" d="M329.69,244.21c-0.28,0.55-4.98,1.38-7.47,2.21l-5.26-5.26C321.67,238.67,325.82,241.99,329.69,244.21z"/>
	<polygon points="435.95,244.21 440.65,241.16 441.2,241.16 	"/>
	<polygon class="st14" points="453.38,243.38 454.76,242.55 456.98,242.55 	"/>
	<path class="st14" d="M446.46,247.8c1.94-2.77,5.81-0.83,8.3-2.21L446.46,247.8z"/>
	<path class="st14" d="M331.08,256.1c-1.38-0.28-2.49-1.94-3.6-3.04l2.21,0.83c1.11-1.38-1.66-4.43-3.04-4.43l3.04-1.66
		L331.08,256.1z"/>
	<polygon class="st14" points="436.78,250.02 439.82,248.63 441.2,248.63 	"/>
	<path class="st15" d="M226.48,255.27c4.98-1.38,9.68,2.49,14.94,3.04c14.11,11.62,22.14,25.73,28.22,40.4l-11.07-11.07l-0.83,0.55
		l11.9,14.39c0,8.02,3.6,16.88,0,24.63c3.87,9.68,2.77,26.29,0.83,35.14c1.94,1.38,2.77,4.7,2.21,7.47c0,5.26-1.38,12.45-2.21,17.43
		h1.66c-2.49,8.86-4.98,17.99-6.09,27.67c-6.64,1.66-13.56,1.94-19.37,5.26c-1.38-21.03-7.19-45.66-3.87-68.35
		c5.53-21.03-5.81-40.95-5.26-62.81c-5.26-11.62-7.19-30.16-23.24-32.1c1.11-6.92,11.07-2.49,16.6-3.87L226.48,255.27z"/>
	<path class="st14" d="M430.13,253.89c-1.38,0.55-3.6,1.94-6.09,1.38C425.98,254.72,427.64,253.34,430.13,253.89z"/>
	<polygon class="st7" points="676.4,259.7 680.27,254.44 678.06,258.32 	"/>
	<path class="st14" d="M369.26,263.57c-0.83,0.28-3.32,2.77-4.98,0.83c3.87-2.21-1.38-4.98,1.38-7.47
		C365.66,260.25,368.15,260.53,369.26,263.57z"/>
	<path class="st7" d="M719.84,271.88v-13.56C725.38,262.47,719.01,267.72,719.84,271.88z"/>
	<path class="st15" d="M237.55,321.13c-0.83,32.93-1.94,67.79,3.87,99.06c-1.94,3.04-6.64,6.09-11.35,5.81l-14.94,12.73
		c1.38-13.84,8.3-25.46,14.11-37.35l-0.55-0.83c-8.58,10.79-13.84,24.07-18.82,36.8c-1.11-18.26,9.68-33.48,17.99-48.7l-1.38-1.38
		c-6.92,13.01-17.99,24.9-18.82,39.57c-15.22-34.31-14.66-78.58-11.9-118.98c3.6-6.36,1.66-14.94,4.43-21.86
		c1.66-9.96,4.7-19.92,11.9-26.84C234.23,271.6,234.51,298.16,237.55,321.13z"/>
	<path d="M331.08,264.96c-0.55,1.11-1.94-1.94-1.38-3.6C329.41,262.74,329.97,264.13,331.08,264.96z"/>
	<path class="st14" d="M370.09,265.79c-0.55,1.38-2.49,1.66-4.43,1.38C367.05,266.62,368.43,265.51,370.09,265.79z"/>
	<path class="st14" d="M362.62,268c-1.38,3.32-4.98,0-7.47,0C357.64,268.28,360.96,267.72,362.62,268z"/>
	<polygon class="st4" points="556.59,274.92 557.42,273.26 560.46,273.26 	"/>
	<path class="st4" d="M564.89,279.9c-1.38,0.55-2.21-0.55-3.04-1.38v-3.04C565.44,274.64,563.23,278.79,564.89,279.9z"/>
	<path class="st16" d="M678.61,275.47l2.21,3.87L678.61,275.47z"/>
	<polygon class="st4" points="534.18,277.13 535,276.3 536.39,276.3 	"/>
	<path class="st4" d="M564.89,282.94c1.38,4.43,0.28,8.86-1.66,12.73c-0.28,3.6,1.38-3.6-1.38-3.04
		c-1.94,4.43,0.83,10.52-2.21,14.39c-1.38-1.11-2.21-2.77-3.87-3.04c-0.55,2.77,3.6,5.53,3.05,9.13l1.66-1.66
		c-2.21,1.66,0.28,3.6,0.55,5.26l0.83-0.83c1.94,0-1.66,10.24,6.64,7.47l-0.55,0.83c1.11,1.94,2.49-0.55,3.6-0.83
		c2.77,1.38,0.55,3.04,0,4.7c3.32,1.66,3.04,6.09,3.04,9.69c-14.66-11.62-32.65-26.29-53.96-27.67
		c-17.71-1.94-30.71,8.02-45.65,13.28c-24.07,11.9-47.04,26.56-70.28,39.84c-18.54,14.94-35.97,30.99-54.79,47.04
		c-6.92-0.55-12.45,4.43-19.37,1.66c-2.21,3.6-5.26-0.55-8.3,0.83c-3.32-0.55-9.41,1.11-12.73-1.66l-1.38,2.21
		c-1.38-2.21-2.49,1.11-3.87,0.83l-12.73-1.38l0.83-0.83c-3.6,0.55-7.19,0.83-10.52,1.38c2.21-1.38,5.81-3.05,8.86-4.43
		c-2.77-0.55-7.19-1.66-5.26-5.26c4.15-5.53,9.41-12.45,14.94-17.16c1.11,1.11,1.11,3.6,3.04,3.6c1.66-1.94-3.32-6.64,1.66-7.47
		l2.21,6.92l0.83-8.3c6.09,1.38,8.3-2.77,14.11-2.21c6.09,1.11,11.35-2.49,17.99-2.21c-1.38,1.66-5.26-0.83-5.26,2.21
		c3.04,3.05,6.64,0.28,9.68,1.38h1.66c-0.55,0.83-1.94,1.11-1.66,2.21c0.55,1.11,1.38,0.83,2.21,0.83c0.55-1.38,1.94-2.49,3.04-3.87
		c6.09,1.66,11.62,6.09,17.16,6.09c-1.66-4.7-8.58-2.77-8.02-8.86c0.55,0,0.83-0.55,1.38-0.83l-2.21-2.21
		c3.04-1.94,6.09,0.55,8.3-2.22c-2.77-1.93-0.28-2.21-3.04-3.04l-2.21,2.21c4.98-6.09,14.11-13.56,23.24-15.77
		c-0.55-1.38-2.21-0.55-3.04-0.83c5.53-0.83,4.98-8.02,11.07-7.47c1.11-2.21,4.43-1.38,3.87-4.43c4.43,2.21,1.66-6.09,6.09-2.21
		c8.3-3.87,15.77-13.28,24.63-14.11l5.26-3.87l0.83,2.21c9.68-10.79,25.73-12.18,38.18-20.2c1.94,2.49,3.6-1.11,4.98-2.21
		c4.43-1.94,8.03,0,10.52-3.87l-0.55,0.83c0.28,1.11,1.38,0.83,2.21,0.83c4.15-4.43,9.96-6.92,14.94-6.92
		c9.41-5.81,21.3-6.36,31.54-11.07c-0.55-1.38-2.21-0.55-3.04-0.83l4.43-1.38c-1.11-0.28-1.38,0.83-2.21,1.38
		c8.58,0.83,16.6-4.15,25.46-4.43C559.35,279.9,562.4,281.01,564.89,282.94z"/>
	<polygon class="st4" points="540.82,278.52 543.86,277.13 545.24,277.13 	"/>
	<polygon class="st4" points="524.49,282.94 525.04,282.39 526.7,282.39 	"/>
	<polygon class="st4" points="517.02,285.16 517.02,284.6 519.23,284.6 	"/>
	<path class="st14" d="M272.69,295.67c-0.83-3.04-1.94-6.09-1.38-9.68C272.14,289.03,272.41,292.35,272.69,295.67z"/>
	<path class="st4" d="M567.1,318.91l0.83-0.55l3.04,2.77c-1.94,1.66-3.87-1.38-6.09-1.38v-4.43
		C566.55,316.15,564.34,319.19,567.1,318.91z"/>
	<path class="st15" d="M540.82,324.17c3.32-1.66,6.92-0.28,9.68,1.66c-1.38,3.6,3.32,0,5.26,2.21c4.15,2.77,8.58,6.92,9.13,11.9
		h0.83c1.11-2.77-1.38-5.81-3.05-8.3c4.98,2.21,8.3,7.47,12.73,11.35c-0.28,17.71,6.09,34.59,11.07,50.91
		c3.6,4.7,6.36,9.68,8.3,14.94c15.22,27.12,31.27,55.06,45.65,81.63c-0.55,4.15,2.77,0,3.05,3.87l-1.38,1.38
		c-1.66-3.04-8.03-0.83-12.18-1.38h-2.77l5.81-1.66c-4.98-1.11-11.07-1.11-15.77,0.83l-0.55-3.05c-3.32-0.28-4.7,3.6-8.3,2.22v-0.83
		l-32.93-0.55l-4.43-2.22l-1.66,2.77c-14.11-2.77-30.44,2.49-44.83-1.38c-11.9-52.57-8.86-111.79-8.3-168.51
		c5.81-4.43,15.49-1.38,22.41,0L540.82,324.17z"/>
	<path class="st15" d="M510.1,321.96c-1.66,56.73-1.11,115.94,7.47,169.9l-9.68,4.7c0-1.38,1.66-2.21,2.21-3.04l-0.55-0.83
		c-4.15,3.32-6.64,6.64-12.73,5.26c0.28-0.28,0.83-0.83,0.55-1.38l-0.55-0.83l-3.04,3.04c-23.52,2.77-44.55,4.43-67.52,1.38
		l-1.38,1.66c-39.57-5.26-81.63-3.6-116.77-18.82l-1.66,1.38c-17.71-0.55-39.29,1.38-56.17-1.38c-2.49-1.66-5.26-1.66-8.85-1.38
		l-17.99-3.05c-5.81-8.86-4.7-17.71-6.92-27.67c8.58-8.02,17.15-19.37,27.67-22.69c5.81-5.81,13.84-6.09,21.86-6.64
		c0.83,2.49,3.32,1.11,3.6,0c26.84-8.03,55.62,3.87,81.63-7.47c1.11,1.38,1.11,3.6,3.04,3.6c-0.28-7.47,10.51-11.07,14.39-17.16
		c36.25-34.86,80.8-50.91,122.02-74.16l14.11-5.26l0.83,2.21l3.04-2.77L510.1,321.96z"/>
	<path class="st4" d="M581.21,324.17l-3.6-0.83C578.72,321.41,580.11,323.9,581.21,324.17z"/>
	<path class="st4" d="M580.66,331.64c-0.28,1.94,0.55,4.43-0.83,6.09l-0.83-6.09H580.66z"/>
	<path class="st17" d="M609.16,344.37c4.43,0.28,4.43,1.66,8.03,0c0-1.94-2.49-1.94-3.6-3.04c2.49,4.98,12.73-3.6,14.11,4.7
		l0.83-0.83l-3.04,1.38c1.11,1.38,3.04,0.55,3.87,2.22c-6.92,0.28-13.56,0.28-18.82-2.77l-1.38,1.38l2.22,1.38
		c-0.83,0-1.11,0.55-1.66,0.83c-0.28,2.77,3.05,0.55,3.87,2.21l-4.43,0.83l1.38,2.21c-1.11,0.28-2.21,0.55-3.04,1.66
		c2.21,3.04,5.81-1.11,8.3,0.55c-0.55,2.77-3.88,0.28-5.26,1.66l3.6,3.6l3.04-3.04c0,1.38,1.66,2.21,2.21,3.04l-4.43-0.83
		c1.11,1.94-2.21,4.7,1.66,6.09c0.83,0,1.66,0.28,2.21-0.83l-2.21-1.38c6.09-0.55,7.47,7.47,11.07,11.34l6.09,5.26l1.38-1.66
		c-2.21-0.83-3.88-3.6-5.81-5.26c1.66,2.49,7.19,4.15,11.9,3.87l0.83,3.6c-0.83-0.28-1.11,0.28-1.66,0.83
		c4.7,7.19,0.55,16.6,0.83,24.62l-1.38,1.66c-0.28-1.11,1.66-2.22,0-3.05c-1.11,0-1.94-0.28-2.49,0.83
		c1.94-3.04-6.36-3.87-5.81-6.92h-1.66c-0.83-3.87-2.77-1.38-5.26-4.43l0.83-0.83c-0.55-0.83-1.38-0.55-2.21-0.55
		c0.83-1.38,0.83-3.04,0.83-4.7l-0.83-0.55l-1.38,2.22c0.55-1.94-1.38-3.87-1.66-3.05c-3.32-18.26-16.6-35.69-34.31-42.61l0.55-6.92
		c0.83,0.28,1.11-0.28,1.66-0.55v-2.49h0.55v-2.77C595.33,337.73,604.46,337.18,609.16,344.37z"/>
	<path d="M298.15,346.59c2.21-2.21-0.55-8.3,4.7-7.47C301.19,341.6,301.19,344.93,298.15,346.59z"/>
	<path d="M286.25,342.16c0.28,3.6-3.04,6.09-3.04,9.68c-2.77-4.43,0.55-7.75,1.66-11.9C283.76,342.16,286.53,341.88,286.25,342.16z"
		/>
	<path class="st4" d="M633.79,346.59c-2.21-0.28-2.77-2.49-3.04-4.43C631.85,343.82,633.79,344.1,633.79,346.59z"/>
	<path d="M284.87,357.1c0.83-3.6,0.83-8.03,2.77-11.07L284.87,357.1z"/>
	<path class="st4" d="M583.71,351.29c-1.38,0.55-0.55,2.49-0.83,3.6l-1.66-5.26C582.32,349.35,582.87,350.74,583.71,351.29z"/>
	<path class="st18" d="M629.91,351.84c-5.53-1.94-10.51,4.98-14.11-0.55L629.91,351.84z"/>
	<polygon class="st18" points="619.4,355.72 620.23,354.89 624.66,354.89 	"/>
	<path class="st4" d="M603.9,373.7c-2.21,1.11-3.6-7.2-8.3-5.26c-4.98-3.87-2.49-7.75-6.09-11.9
		C596.99,359.87,601.69,366.23,603.9,373.7z"/>
	<path class="st18" d="M635.17,361.53c-2.21-1.66-5.53-0.83-8.03-2.21C630.47,359.87,636.56,353.5,635.17,361.53z"/>
	<path class="st18" d="M625.49,358.76h-4.43C622.17,357.65,624.38,357.65,625.49,358.76z"/>
	<path d="M283.21,361.53c-1.38-0.55,0.28-1.94,0.83-2.77L283.21,361.53z"/>
	<path class="st18" d="M632.13,362.36c-1.66,1.94-4.15,1.38-6.64,1.66l-1.38-1.66C626.87,360.14,629.08,363.47,632.13,362.36z"/>
	<path class="st15" d="M710.16,366.79l3.05-1.38c-0.55,0.55-1.11,0.83-0.83,1.38c10.79-2.22,23.52,4.15,35.97,4.7
		c4.98,2.77,11.62,3.05,14.94,8.03c10.51,3.32,22.41,8.03,27.67,19.64c0.55,7.47-0.28,11.9-2.21,18.54
		c-3.6-4.43,1.38-14.11-6.09-17.16l-1.38,1.66c1.94,24.9-1.66,51.47-13.56,72.5c-6.09,0.55-14.39-0.83-20.2-1.38
		c0.28,1.93,2.49,1.93,3.87,3.04l14.94,1.38c-4.15,10.79-9.96,21.03-17.16,30.71c-3.87-0.83-6.09,1.66-9.96,0.83
		c1.38-6.92,3.32-13.56,6.09-19.65c-0.55-0.83-1.38-0.55-2.21-0.55c-1.38,3.6-3.05,7.2-3.87,11.07c1.94-4.7,1.38-17.43,10.51-21.58
		c0-1.11,0.83-2.49-0.55-3.04l-2.22,3.04l-2.49-2.21l-0.55,0.55c-19.09-41.23-60.6-74.43-82.46-115.39
		C676.4,364.57,695.22,361.8,710.16,366.79z"/>
	<path class="st14" d="M299.81,370.66c-0.28,1.11,0.55,2.49-0.83,3.05l-3.04-2.22c-0.83,0.28-0.55,1.38-0.55,2.22
		c-1.94,0.28-3.6-1.94-4.7,0.55l-1.38-1.38l-0.83,0.83c-1.38,0-0.55-1.94-0.83-3.05C290.95,368.17,300.64,360.7,299.81,370.66z"/>
	<path class="st18" d="M637.38,367.62l-1.38,1.66c3.04,0.55,3.32,4.15,3.87,6.64c-2.49-2.49-7.47-3.32-6.92-7.47
		c0.55,1.38,1.93,0.55,3.04,0.83l0.83-0.83c-1.38-0.55-2.21-2.21-3.87-1.66C632.96,364.85,638.49,364.3,637.38,367.62z"/>
	<path class="st18" d="M629.91,367.62c-0.55,3.32,4.7,6.92,7.47,9.13c-4.15-1.11-7.19-4.43-10.24-7.47
		C626.87,367.34,628.81,367.62,629.91,367.62z"/>
	<path class="st4" d="M698.26,417.14c-13.84-14.39-24.07-30.44-33.76-46.49C676.4,385.88,684.98,402.48,698.26,417.14z"/>
	<path class="st14" d="M276.56,404.42c0-5.53,6.09-19.09,8.3-29.33L276.56,404.42z"/>
	<path class="st14" d="M298.98,375.09c-0.55,3.6-0.55,7.47-3.6,9.68C295.38,382.83,295.38,376.19,298.98,375.09z"/>
	<path class="st14" d="M331.9,375.09c-4.43-0.28-8.3,0.55-11.9,2.21C321.39,373.98,327.75,375.64,331.9,375.09z"/>
	<polygon class="st14" points="280.99,397.5 287.08,375.92 284.04,389.47 	"/>
	<path class="st14" d="M294.55,375.92c-0.83,5.81-1.11,12.45-6.92,15.77c0-1.11,1.38-1.66,0.83-3.05l-0.83-0.83
		c-2.21,1.94-1.11,5.53-3.6,7.47c1.94-6.36,3.6-12.73,6.09-18.54c0,4.15-3.6,7.75-1.66,11.9
		C290.4,384.49,290.12,377.85,294.55,375.92z"/>
	<path class="st14" d="M318.35,376.75c-1.94,0.28-3.32,1.94-5.81,1.38C314.75,378.13,316.41,375.09,318.35,376.75z"/>
	<path d="M881.71,387.81c0.28,3.6-1.11,7.75,2.22,9.68l-0.83,30.16h-1.38c-0.28-3.05,1.38-6.92-1.66-9.96
		c-0.28,4.43-1.66,8.03-4.43,11.35c-17.43,2.77-35.42-1.11-49.53-5.26c4.43,1.11,5.81-2.77,6.09-6.09
		c-0.28-11.07-3.05-26.56,2.21-37.35c11.34-5.81,22.97-4.7,35.97-3.6C876.46,378.13,880.05,382.01,881.71,387.81z"/>
	<path class="st14" d="M277.95,386.43l-0.55-5.26c-0.28,0.55,0.28,1.11,0.55,1.38l3.04-5.81
		C278.78,379.51,279.05,383.11,277.95,386.43z"/>
	<path class="st19" d="M865.11,382.01c-0.55-0.28-1.11,0.28-1.38,0.55l11.07,0.83l0.83,14.94h1.38v2.21h-0.55
		c0.28-0.55-0.28-1.11-0.83-1.38l-0.83,23.8c-2.49-0.28-0.83,3.6-1.38,3.04c-4.43,0.28-9.13,2.77-13.56,0.83
		c1.38,0.55,2.21-0.83,3.04-1.38c-8.02-0.28-18.26,0.28-26.29-2.49c-1.38-0.83-0.55-2.77-0.55-4.43h0.55
		c-2.49-11.9-0.83-24.62,0.83-37.35C846.3,375.36,855.7,382.56,865.11,382.01z"/>
	<polygon class="st4" points="588.69,388.64 586.47,383.39 588.69,387.26 	"/>
	<path d="M866.77,399.99c0.28,5.53,2.77,14.11-2.49,18.54c-2.49,2.49-6.36,4.7-11.07,3.87c-7.75-3.87-7.75-13.84-10.51-21.03
		c-0.55-4.98,1.11-9.13,3.87-12.73c3.04-1.66,7.47-3.32,11.07-1.38C862.07,390.03,864.28,395.29,866.77,399.99z"/>
	<path class="st20" d="M854.6,390.86c-0.28,2.22-1.11,4.43-3.6,4.43c3.04,3.87-2.77,9.13-0.83,14.94c-2.49-1.93-1.11-6.64-4.43-8.85
		c0-3.32,3.6-4.43,5.81-5.26l-3.6-1.38C849.89,394.18,851.83,390.58,854.6,390.86z"/>
	<path class="st20" d="M861.51,399.16c0.55,5.26-0.83,9.68-3.87,13.56h-2.22c-2.77-5.26-1.66-12.73,1.38-17.43
		C858.75,395.84,860.96,397.22,861.51,399.16z"/>
	<path d="M858.47,404.42c-0.28,0.83,0.55,2.49-0.83,3.04c-2.22-0.83-1.11-3.87-1.38-6.09C858.19,400.54,858.75,403.03,858.47,404.42
		z"/>
	<path class="st20" d="M856.81,415.49h-0.55l4.43-3.6C862.07,413.27,858.19,414.38,856.81,415.49z"/>
	<path class="st15" d="M212.92,442.6c-3.32-2.49,0-5.53,0-8.3V442.6z"/>
	<path class="st1" d="M859.3,448.41c-3.32-1.11-6.92-4.7-9.13-4.43C853.77,443.99,856.26,446.48,859.3,448.41z"/>
	<path class="st1" d="M872.58,455.33c-2.49-1.66-4.98-3.6-7.47-5.26l-0.83,0.83c-1.38,1.11,1.38-3.32-2.21-3.04
		C865.94,451.46,868.99,451.46,872.58,455.33z"/>
	<polygon class="st1" points="880.88,456.72 881.71,456.16 883.93,456.72 	"/>
	<path class="st8" d="M227.03,492.69c0.28-0.55-0.28-1.11-0.55-1.38l0.55,0.55l6.92-6.64L227.03,492.69z"/>
	<path class="st8" d="M239.76,487.43c2.49,1.66,3.87-2.49,4.43,0.83l0.83-0.83c-0.83,1.38-2.77,2.21-3.04,3.87l0.83,0.55
		c1.66-1.38,3.32-3.6,5.26-4.43l-3.87,5.26l0.83,0.83l6.09-6.09c1.11,0.83-0.83,3.32-2.21,4.43c0.28,0.55,0.83,1.11,1.38,0.83
		l1.66-1.38c-0.28,0.55,0.28,1.11,0.55,1.38c1.94-1.38,2.21-4.15,4.43-4.43l0.83,0.83c-0.55,0.55-1.66,1.11-1.38,2.22l0.55,0.55
		l3.04-2.77c1.66,0-2.49,1.66,0,2.77l2.21-2.21c1.11-0.83-2.21,1.66,0,2.21l3.04-2.77c-0.28,1.11-2.77,2.49-0.55,3.6l2.21-2.22
		c1.11,3.05-6.09,6.64-4.7,10.52c0.28-0.83-0.28-1.11-0.55-1.66l-4.7,5.26c0.55,0.55,0.83,1.11,1.66,0.83l0.83-0.83l-5.26,5.26
		c-0.55-0.83-1.38-0.55-2.21-0.55c-2.49,0.83-1.94,3.87-0.83,5.26l0.83,0.55c6.36-4.98,10.24-12.45,15.5-18.54
		c0,3.87-6.92,8.3-8.02,13.28l1.38,1.66l5.26-6.92c-0.83,4.43-6.09,11.34-10.52,16.6c0.55-1.94,2.77-6.36,5.26-9.13
		c-1.94-1.38-3.04-1.11-4.43,0.83l0.55,0.83c1.11-1.94-6.09,3.6-1.38,3.04c0,0.83-0.55,2.22-1.38,2.22
		c-1.38,1.66,0.55-1.66,0.55-2.22l-0.55-0.83l-3.04,3.05c-1.38-1.66-1.38-3.6-2.21-5.26c2.77-1.11,0.28-3.04,0-4.43
		c-1.66-0.83,10.79-9.13,2.21-6.09l-0.83-0.83c-2.49,2.49-3.87,5.26-7.47,3.04l-2.21-1.38c4.43,2.49,6.36-4.15,8.3-6.92
		c-0.28-1.11-0.55-2.21-1.66-2.77c-1.66,3.87-6.64,5.53-8.85,8.86c1.11-3.87,6.09-6.92,5.81-10.51l-8.03,9.13
		c1.38-1.94,2.77-4.98,2.21-6.92c-1.94,3.32-4.15-0.28-6.09,3.04C231.19,496.84,240.32,491.3,239.76,487.43l-4.43,3.87
		c1.38-1.11,3.6-4.43,5.26-4.7L239.76,487.43z"/>
	<path class="st8" d="M233.12,492.69l-3.04,3.04c-1.66-0.55,3.6-2.21,0.83-3.87l-5.26,5.26l5.81-6.64
		C228.97,493.24,233.12,491.58,233.12,492.69z"/>
	<path class="st21" d="M731.19,502.37c2.49,1.38,1.66,4.98,0.55,6.92c-3.87-0.83-7.75,1.93-8.85-1.66c1.11-0.28,1.38,1.11,2.21,1.66
		c2.21-1.38-1.11-2.49-0.83-3.87l11.34-14.11C735.89,494.07,733.4,499.05,731.19,502.37z"/>
	<polygon points="245.02,504.58 256.37,491.85 246.68,504.58 	"/>
	<path d="M259.96,493.52l1.66-1.66c-2.77,3.05-6.64,10.52-9.13,8.3l1.66-1.38c0.28,0.28,0.83,0.83,1.38,0.55
		c0.55-0.55,1.66-1.11,1.38-2.21c-2.49-0.55,0.83-3.87,2.49-5.26C259.13,492.69,259.69,492.96,259.96,493.52z"/>
	<path d="M248.89,495.73c0.28-0.83-0.28-1.11-0.83-1.38l3.04-1.66L248.89,495.73z"/>
	<polygon class="st8" points="256.92,496.56 259.41,493.52 259.41,494.35 	"/>
	<path class="st1" d="M847.96,493.52c0.28,2.21-2.22,0.83-3.05,2.21C843.81,494.9,846.85,494.35,847.96,493.52z"/>
	<polygon points="257.75,500.99 261.62,495.73 259.41,499.33 	"/>
	<path class="st8" d="M521.45,517.31c-1.11,1.38-3.05,0.55-3.87,2.49l3.87,0.55c0.55,5.81-1.11,10.51-1.66,15.77
		c-3.32-2.21-7.47-6.09-6.64-9.68c-1.94-0.55-2.77-1.11-5.26-1.38c1.38-3.32,5.26-1.93,6.09-4.7l-1.66-0.55
		c2.22-3.6,7.2-6.64,6.09-10.51c-1.38,1.93-3.6,4.98-5.26,7.47c-3.6,7.75-12.45,3.05-16.33,9.68l6.64-9.13l-0.83-0.55
		c-3.6,3.6-6.36,6.37-9.68,9.68l-1.38-1.38c-0.55,1.66-1.93,0.83-3.04,2.22c-1.66-1.94,5.53-2.22,2.21-5.26
		c-3.04,1.11-5.53,5.81-7.47,8.03c1.66,3.32,3.6,1.38,6.09,0.83l0.55-0.83l0.83,3.04c0.83-0.83,1.94-1.38,1.38-3.04l-0.55-0.56
		c1.66-2.49,0.83,1.11,2.77,0.56l4.7-2.22l-0.83-0.55c3.32,0.55,3.32-4.43,6.64-1.66c-2.49,1.66-3.87,4.7-5.26,7.47
		c3.04,2.49,5.26-1.11,7.47-2.22l0.83-0.83c-1.94-1.94-3.04,1.93-5.26,1.66l3.87-5.26c5.53,2.22,8.86,8.86,12.73,12.73
		c-1.93,4.15-4.15,9.41-8.3,11.35l-0.83-0.83c-2.77,4.7-10.79,2.77-15.77,5.81c-8.85,0.28-22.97,4.15-29.88-5.81
		c-4.98,1.66-5.53-5.53-8.3-8.3l-0.55-5.26c1.11-1.66,6.92,0.83,4.43-3.04c3.04-0.28,5.26-1.94,7.47-4.43
		c-3.87-2.49-6.09,3.32-9.68,3.87c-2.49,1.11,0.55,0.83-0.83-0.83c-1.94-4.43,0-4.7,3.87-7.47c0.28-0.55,0.83-0.83,0.55-1.66
		l-0.55-0.55c2.21-4.7,8.86-10.79,12.73-14.39c0,1.11-1.94,2.21,0,3.05c1.38-1.66,2.77-4.98,5.81-3.6c2.77-1.38-1.94,1.38,0,2.22
		c2.77-1.38,4.7-4.98,8.3-3.87c-0.28,0.55-0.83,0.83-0.83,1.66l0.83,0.55c5.53-5.53,13.56-4.98,20.2-8.3
		c0.28,2.21-6.64,5.26-5.26,8.3c4.15-3.32,8.03-9.68,13.56-11.07C518.4,501.82,521.72,509.56,521.45,517.31z"/>
	<path class="st8" d="M223.99,502.37l4.7-1.38c-0.28,2.49,1.38,2.77,2.77,3.6l2.49-0.55c0.28,1.38-3.04,2.21-0.83,3.6l3.6-2.21
		c-0.83,0.55-0.55,1.38-0.55,2.21l0.55,0.83c1.11-2.49,4.43-1.66,6.09-0.83c0.83,0.83,1.11,3.32,3.04,2.21
		c-0.28,4.15,2.21,8.86,4.43,12.73c-6.92,0.83-10.51,2.49-16.33-1.38l-3.04-3.87l-0.83,0.83c-4.98-4.98-8.86-11.62-8.3-19.37
		C224.54,498.5,222.33,501.54,223.99,502.37z"/>
	<path d="M505.68,513.71c3.32-3.87,5.53-8.3,9.13-11.9C513.7,504.86,508.72,509.84,505.68,513.71z"/>
	<path class="st1" d="M885.31,504.58c-0.28,1.11-2.49,1.66-3.6,2.49C882.82,506.8,883.65,504.31,885.31,504.58z"/>
	<polygon points="254.15,509.29 256.92,505.41 256.37,507.07 	"/>
	<path class="st8" d="M424.05,508.46h3.87c-1.11,2.49-4.43,4.98-3.04,7.47l5.26-7.47c-0.28,1.38-2.77,3.05-0.83,4.43l3.04-3.6
		c-2.49,5.53-4.98,11.07-8.3,16.32c-0.28-0.28-0.83-0.83-1.38-0.55c0.55-2.21,3.6-4.15,2.21-6.09L421,523.4
		c0-0.83,0.28-1.66-0.83-2.21c-1.66,2.21-2.21,6.09-4.98,6.64c0.28-0.55,1.66-1.11,1.38-2.21c-3.04-0.55,0.83-1.66-1.38-3.04
		l-3.04,4.7c-1.11-1.94,4.98-8.58,7.47-12.73l-1.66-1.66c-2.49,3.32-5.81,8.02-8.02,8.3c0-0.83-0.55-1.11-0.83-1.38l-2.21,2.77
		c-0.28,2.49,3.6,1.38,3.04,3.87c-1.38,3.04-3.04,0.28-4.7,0c-0.28-2.77,3.6-6.36,3.04-9.13l-3.6,3.87
		c-2.21,2.49,1.38-1.38-1.66-0.83c1.94-4.43,5.26-8.03,8.3-11.9c-0.28,0.83,0.28,1.11,0.83,1.38c0.55-0.28,1.11-1.66,2.21-1.38
		l0.83,0.83C419.9,505.41,418.79,512.06,424.05,508.46z"/>
	<path class="st8" d="M459.19,519.8c-0.55-3.6,4.43-8.86,8.3-11.35L459.19,519.8z"/>
	<path class="st8" d="M427.92,524.23c-0.55-3.04,3.32-7.47,5.26-11.34C432.9,517.31,429.58,520.36,427.92,524.23z"/>
	<path class="st21" d="M731.19,512.89c-0.28,1.94-2.77,4.15-0.83,6.09c-1.11-1.66-4.15-2.49-3.04-5.26
		C728.97,514.54,729.25,512.06,731.19,512.89z"/>
	<path class="st18" d="M743.92,521.19l-0.83-0.83c0.28-1.38,2.77-0.28,3.87-1.38L743.92,521.19z"/>
	<path d="M479.39,527.83c-0.55-2.21,0.83-2.21,2.21-2.77c1.66,0.28,3.87-1.38,5.26-3.04C484.92,524.78,483.54,527.83,479.39,527.83z
		"/>
	<polygon class="st3" points="699.64,525.06 700.47,522.02 700.47,524.23 	"/>
	<path class="st18" d="M746.96,524.23v3.05l-9.13-2.22c1.11,0,2.49-0.28,2.21-1.66C742.26,523.67,744.47,526.17,746.96,524.23z"/>
	<path d="M477.18,525.06c-2.49,0.55-4.7,5.53-8.3,5.81c-0.28-1.38,0.83-1.93,1.66-3.04C473.85,529.21,474.41,524.23,477.18,525.06z"
		/>
	<path class="st18" d="M730.36,528.66c1.94,0,2.22-3.05,4.43-2.22c0.28,0.55-0.28,1.11-0.55,1.38c3.04,0.55,0.83,1.11,3.6,3.04
		c0.28-3.04,2.77-0.28,3.88,0.83c2.77-0.83,0-1.94,3.6-1.66l-3.04,1.66l0.83,0.83c-2.49,2.49-6.09,4.15-10.51,2.77
		C733.12,532.53,723.72,532.25,730.36,528.66c-2.77-1.66-5.53,5.53-8.3,1.38C724.82,530.87,730.63,520.63,730.36,528.66z"/>
	<path class="st18" d="M755.81,526.44c-2.21-0.55-4.15,1.11-6.64-0.83L755.81,526.44z"/>
	<path class="st21" d="M697.43,535.3c-2.21-1.66-1.94-5.81-3.05-8.86C696.05,528.66,697.43,531.98,697.43,535.3z"/>
	<path class="st18" d="M764.11,527.27c2.22,5.81,9.96,0,14.11,5.26h3.87c-4.98,2.49-16.6,0.55-16.6,4.43
		c-5.26-2.49-11.34,1.66-17.99,0.83c6.09-3.87,7.75-9.96,15.77-9.13c-0.83-2.49-3.32-1.11-5.26-1.38
		C759.96,525.06,761.63,528.38,764.11,527.27z"/>
	<path class="st18" d="M750.56,532.53h-2.22c-0.28-0.83,0.28-1.11,0.83-1.66c-0.55-0.83-1.38-0.55-2.22-0.83l1.38-1.38
		C746.96,534.47,754.43,526.72,750.56,532.53z"/>
	<path class="st21" d="M693,541.39c-1.93,0.83-3.32,2.21-5.26,2.21c4.15-1.38,0.83-5.81,3.04-8.3c-1.94-0.28-2.49-1.94-2.49-3.6
		l0.83-0.83c0.83,1.38,1.38,6.09,2.21,9.13c0.55-3.32,2.21-6.09,1.66-9.96C693.55,533.08,697.43,538.34,693,541.39z"/>
	<path class="st21" d="M686.92,542.21c-0.28-1.38-2.77-4.15-0.83-6.09c-0.28-0.28-0.83-0.83-1.38-0.83l1.38-2.21L686.92,542.21z"/>
	<path d="M738.66,534.74c-0.28-1.38-2.77-0.28-0.83-1.66h2.21L738.66,534.74z"/>
	<path class="st18" d="M747.51,533.91c0.28,1.11-0.83,1.38-1.38,2.21v-2.21H747.51z"/>
	<path class="st18" d="M785.7,534.74c-5.26,1.66-10.79,2.49-17.16,2.22c3.87-1.94,9.41,0.83,12.73-2.22
		c1.38,1.38,2.49-0.28,3.87-0.83L785.7,534.74z"/>
	<path class="st17" d="M818.63,540.55c-8.86,12.18-23.52,17.16-37.35,21.03c-13.28,6.09-29.05,6.36-43.44,9.68
		c-0.83,0,1.94-3.05-1.38-2.21c-1.11,5.81-7.47,1.38-9.96,5.26c-0.28,3.87-1.66-4.43-2.77,1.66c0-0.83-0.55-1.11-0.83-1.66
		c-1.66-0.28-2.77,0.28-3.87,1.66v0.55c-1.66-0.83-3.04-1.93-5.26-1.38c-0.83,0.56-0.55,1.38-0.55,2.22
		c-3.32-0.28-6.09,0.28-8.3,2.21c2.49,0-6.09-1.94-3.87,1.38h-1.38l1.38-1.38c-3.32-2.21-8.58,1.94-8.03-4.43
		c-1.66-0.55-2.77-1.93-2.21-3.87c1.11-1.66-2.49-3.05-2.49-5.26c1.11-5.26,0.83-12.45,6.09-14.94c0.28-2.22-2.49-0.55-2.21-1.38
		c0.83-4.15,4.98-2.49,7.47-3.87c-1.38,2.49-2.21,5.81-0.83,8.3c-0.83-11.07,11.62-6.36,17.99-7.47c1.38,3.32,3.6,0,5.26,0
		c3.6,0.55,6.09-1.11,9.13-1.38c-2.77-0.56-0.28-2.22-1.66-3.05l-7.47,2.21c-1.93,0.83,3.6-1.66,5.26-2.21l5.26,0.55
		c1.11,3.04-1.94,3.32-3.05,6.09c2.21,3.32,4.98,0,7.47,0c1.38-2.21,4.43-6.36,7.47-3.59c0.55,0.28,0.83,0.83,1.66,0.55l1.38-1.38
		l-3.04-3.04c6.92-1.66,16.05-3.32,24.07-1.38c2.49,1.11-1.94,2.77,1.38,2.77l1.66-4.43c8.58,0.55,16.88-0.28,24.63-2.22
		c2.49,0.55,0.28,3.87,3.04,3.87c-3.6-7.19,5.53-4.43,8.86-6.09C813.09,534.74,818.07,534.74,818.63,540.55z"/>
	<path class="st3" d="M704.9,537.79V540c-2.77,0.55-2.49-2.49-3.87-3.87C702.96,535.58,703.52,537.23,704.9,537.79z"/>
	<path class="st21" d="M683.04,540c-0.28-1.11-1.38-0.83-2.21-0.83c0-1.11,1.38-2.21,2.21-2.21V540z"/>
	<path class="st18" d="M821.67,537.79v0.56c-1.11,0.28-2.49-0.28-2.22-1.38C820.29,536.96,821.39,536.68,821.67,537.79z"/>
	<path class="st3" d="M713.2,540.55c-1.38,0.28-7.47,4.15-6.09-1.38L713.2,540.55z"/>
	<path class="st21" d="M699.64,542.77h-2.21l1.38-1.38C699.37,541.94,699.92,542.21,699.64,542.77z"/>
	<path class="st18" d="M737.83,542.21c-0.55,1.38-1.94,0.55-3.04,0.55l0.83-1.38L737.83,542.21z"/>
	<polygon class="st17" points="733.4,548.03 736.44,545.81 736.44,546.64 	"/>
	<path class="st18" d="M815.86,563.25c4.7-1.11,2.77-7.75,4.43-11.35c1.11,2.77-2.22,4.43,0,6.64c1.11-2.21,9.68-3.59,8.85-9.68
		C829.69,557.71,821.12,558.54,815.86,563.25z"/>
	<path d="M696.6,560.2c-2.22-1.66,1.93-3.6,1.66-6.09C698.26,556.33,695.77,557.43,696.6,560.2z"/>
	<path class="st18" d="M805.9,555.5c-4.7,0.83-5.81,5.53-11.07,5.26c3.04-2.22,7.47-4.15,11.07-6.64V555.5z"/>
	<path class="st18" d="M782.1,565.46c-3.04,0.28-5.53,2.22-9.13,1.38C776.29,566.84,779.61,562.97,782.1,565.46z"/>
	<path class="st18" d="M762.46,572.1c-0.28,1.38-1.94,0.55-2.77,0.83c-3.05-1.66-6.64,0-10.51-1.66L762.46,572.1z"/>
	<path class="st18" d="M736.44,575.97c-1.38-3.6,4.98-2.49,7.47-3.87C741.42,573.76,738.94,574.86,736.44,575.97z"/>
	<polygon class="st18" points="707.94,581.78 707.11,579.57 708.77,579.57 	"/>
	<path class="st18" d="M710.99,591.47c1.94,2.22,3.05-1.66,5.26-1.38c-1.66,1.66-5.53,3.04-6.09,1.38c0.55-1.11,1.94-3.6,3.6-2.77
		L710.99,591.47z"/>
	<path class="st18" d="M709.33,589.25c-1.11,2.49-2.77,4.15-5.26,2.21C705.18,590.36,707.11,588.7,709.33,589.25z"/>
</g>
<g>
	<g>
		<path class="st4" d="M900,4.59c0-3.75-0.84-4.6-4.59-4.59C746.94,0.11,598.47,0.09,450,0.09S153.06,0.11,4.59,0
			C0.84,0,0,0.84,0,4.59C0.01,24.75,0.01,44.9,0.01,65.06c0.07,176.36,0.07,352.72,0,529.08c-0.01,17.09,0,34.18-0.01,51.27
			c0,3.75,0.84,4.59,4.59,4.59c57.93-0.02,115.86-0.02,173.79-0.03c31.48-0.01,62.95-0.01,94.43-0.02c0.64,0,1.28,0,1.92,0
			c1.22,0,2.44,0,3.66,0c6.63,0,13.25,0,19.88,0c4.25,0,8.51,0,12.76,0c3.85,0,7.7,0,11.55,0c1.01,0,2.03,0,3.04,0
			c11.26,0,22.52-0.01,33.79-0.01c0.38,0,0.76,0,1.14,0c0.36,0,0.71,0,1.07,0c0.1,0,0.2,0,0.29,0c3.16,0,6.32,0,9.49,0
			c4.22,0,8.43,0,12.65,0c0.65,0,1.29,0,1.94,0c9.18,0,18.35,0,27.53,0c1.07,0,2.15,0,3.22,0c1.09,0,2.19,0,3.28,0
			c7.96,0,15.91,0,23.87,0c1.79,0,3.58,0,5.37,0c29.03,0,58.07,0.01,87.1,0.01c8.63,0,17.25,0,25.88,0c0.74,0,1.48,0,2.22,0
			c48.31,0,96.62,0.02,144.93,0.02c0.71,0,1.41,0,2.12,0c0.43,0,0.85,0,1.28,0c60.87,0.01,121.74,0.01,182.61,0.03
			c3.75,0,4.59-0.84,4.59-4.59C899.9,431.8,899.9,218.2,900,4.59z M703.8,359.81c-0.09,0.68-0.18,1.36-0.28,2.04
			c-1.12,7.58-2.59,15.13-4.4,22.65c-0.25,1.04-0.49,2.08-0.75,3.12c-1.07,4.22-2.24,8.42-3.52,12.62
			c-0.19,0.62-0.58,1.18-0.87,1.77c-4.75,17.83-12.33,34.51-21.72,50.26c-0.15,0.26-0.32,0.51-0.47,0.77
			c-0.42,0.7-0.85,1.39-1.28,2.08c-2.84,4.65-5.77,9.18-8.78,13.59c-0.32,0.47-0.64,0.95-0.97,1.42c-2.28,3.3-4.62,6.53-7,9.69
			c-0.33,0.43-0.66,0.87-0.99,1.3c-1.67,2.19-3.36,4.34-5.08,6.46c-0.53,0.66-1.06,1.33-1.59,1.98c-3.37,4.09-6.84,8.04-10.4,11.86
			c-0.5,0.54-1.01,1.06-1.51,1.6c-2.23,2.36-4.5,4.69-6.8,6.95c-0.57,0.56-1.14,1.12-1.72,1.67c-1.39,1.34-2.79,2.67-4.2,3.97
			c-0.6,0.55-1.21,1.08-1.81,1.62c-0.76,0.69-1.53,1.38-2.3,2.06c-0.49,0.43-0.97,0.87-1.46,1.29c-2.73,2.36-5.52,4.64-8.34,6.87
			c-1.08,0.86-2.16,1.71-3.26,2.55c-15.83,12.09-33.05,22.1-51.64,30.01c-7.68,3.27-15.58,6.19-23.73,8.73
			c-1.66,0.52-3.35,1.01-5.03,1.5c-7.9,2.29-16.02,4.25-24.36,5.87c-1.81,0.35-3.63,0.68-5.46,1c-2.94,0.51-5.89,0.99-8.88,1.42
			c-0.16,0.02-0.32,0.04-0.48,0.06c-2.23,0.32-4.46,0.6-6.69,0.86c-2.34,0.27-4.68,0.5-7.02,0.7c-4.01,0.35-8.01,0.61-12,0.77
			c-5.79,0.23-11.55,0.26-17.28,0.1c-1.02-0.03-2.04-0.07-3.06-0.11c-1.16-0.05-2.33-0.1-3.49-0.16
			c-8.57-0.46-17.06-1.36-25.43-2.67c-3.43-0.54-6.83-1.16-10.22-1.83c-0.34-0.07-0.68-0.13-1.02-0.2
			c-0.07-0.01-0.14-0.03-0.22-0.04c-0.48-0.1-0.95-0.19-1.43-0.29c-25.14-5.3-49.12-14.38-71.22-26.67c-1-0.56-1.99-1.11-2.98-1.68
			c-12.28-7.05-23.96-15.12-34.91-24.09c-3.89-3.18-7.69-6.48-11.38-9.88c-0.66-0.61-1.32-1.21-1.97-1.82
			c-0.52-0.49-1.03-0.99-1.55-1.49c-1.2-1.15-2.4-2.32-3.58-3.49c-0.39-0.39-0.79-0.79-1.18-1.18c-2.25-2.27-4.46-4.57-6.63-6.93
			c-0.36-0.39-0.71-0.78-1.06-1.17c-3.55-3.9-7-7.91-10.31-12.04c-0.91-1.14-1.81-2.29-2.7-3.44c-0.88-1.14-1.75-2.29-2.62-3.45
			c-0.65-0.87-1.31-1.74-1.95-2.62c-22.8-31.31-38.83-68.25-45.57-108.92c-3.4-20.5-4.58-41.22-2.88-61.76
			c2.72-32.84,11.05-64.44,26.38-93.91c10.95-23.08,25.55-43.66,43.15-62.06c42.75-44.7,94.78-71.54,156.06-78.3
			c0.83-0.09,1.65-0.19,2.48-0.28c76.58-7.73,144.02,14.23,200.66,65.95c0.24,0.22,0.48,0.44,0.72,0.66
			c0.16,0.15,0.32,0.29,0.48,0.43c0.15,0.14,0.3,0.27,0.45,0.41c0.39,0.36,0.79,0.71,1.18,1.08c0.96,0.9,1.91,1.82,2.85,2.73
			c0.37,0.36,0.75,0.71,1.12,1.07c0.07,0.07,0.14,0.13,0.21,0.2c0.61,0.6,1.21,1.21,1.82,1.82c1.02,1.02,2.04,2.04,3.05,3.07
			c0.41,0.42,0.81,0.85,1.22,1.27c13.61,14.17,25.22,29.4,34.84,45.63c0.66,1.12,1.32,2.24,1.96,3.37c0.07,0.17,0.16,0.34,0.28,0.5
			c0.27,0.48,0.54,0.95,0.81,1.43c0.39,0.7,0.78,1.41,1.17,2.12c0.14,0.26,0.28,0.52,0.42,0.78c1.39,2.56,2.74,5.14,4.03,7.75
			c0.77,1.55,1.52,3.12,2.26,4.69c0.26,0.55,0.51,1.09,0.76,1.64c0.05,0.1,0.09,0.2,0.13,0.29c0.3,0.65,0.59,1.3,0.88,1.95
			c0.09,0.2,0.18,0.39,0.27,0.59c0.81,1.82,1.59,3.64,2.36,5.48c0.24,0.59,0.48,1.18,0.72,1.77c0.18,0.44,0.35,0.88,0.52,1.31
			c0.23,0.58,0.46,1.16,0.69,1.74c0.21,0.54,0.43,1.09,0.64,1.63c0.33,0.87,0.65,1.75,0.98,2.62c0.31,0.83,0.61,1.65,0.91,2.48
			c0.08,0.23,0.16,0.46,0.24,0.69c0.15,0.42,0.29,0.83,0.43,1.25c0.34,0.99,0.7,1.97,1.03,2.96c0.13,0.39,0.25,0.78,0.38,1.17
			c0.27,0.82,0.54,1.65,0.8,2.48c5.25,16.55,8.9,33.89,10.92,51.99C706.97,318.5,706.65,339.27,703.8,359.81z"/>
	</g>
</g>
</svg>
