<?xml version="1.0" encoding="utf-8"?>
<!-- Generator: Adobe Illustrator 25.2.1, SVG Export Plug-In . SVG Version: 6.00 Build 0)  -->
<svg version="1.1" id="Capa_1" xmlns="http://www.w3.org/2000/svg" xmlns:xlink="http://www.w3.org/1999/xlink" x="0px" y="0px"
	 viewBox="0 0 900 650" style="enable-background:new 0 0 900 650;" xml:space="preserve">
<style type="text/css">
	.st0{fill:#FD993A;}
	.st1{fill:#4B67C6;}
	.st2{fill:#AE9E98;}
	.st3{fill:#48AE73;}
	.st4{fill:#DC7043;}
	.st5{fill:#913B43;}
	.st6{fill:#B087C0;}
	.st7{fill:#7A4259;}
	.st8{fill:#625852;}
</style>
<rect x="134.46" y="69.03" class="st0" width="581.28" height="522.07"/>
<path class="st1" d="M900,4.59c0-3.75-0.84-4.6-4.59-4.59C746.94,0.11,598.47,0.09,450,0.09S153.06,0.11,4.59,0
	C0.84,0,0,0.84,0,4.59C0.1,218.2,0.1,431.8,0,645.41c0,3.75,0.84,4.59,4.59,4.59c57.93-0.02,115.86-0.02,173.79-0.03
	c31.48-0.01,62.95-0.01,94.43-0.02c0.64,0,1.28,0,1.92,0c1.22,0,2.44,0,3.66,0c6.63,0,13.25,0,19.88,0c4.25,0,8.51,0,12.76,0
	c3.85,0,7.7,0,11.55,0c1.01,0,2.03,0,3.04,0c11.26,0,22.52-0.01,33.79-0.01c0.38,0,0.76,0,1.14,0c0.36,0,0.71,0,1.07,0
	c0.1,0,0.2,0,0.29,0c3.16,0,6.32,0,9.49,0c4.22,0,8.43,0,12.65,0c0.65,0,1.29,0,1.94,0c9.18,0,18.35,0,27.53,0c1.07,0,2.15,0,3.22,0
	c1.09,0,2.19,0,3.28,0c7.96,0,15.91,0,23.87,0c1.79,0,3.58,0,5.37,0c29.03,0,58.07,0.01,87.1,0.01c8.63,0,17.25,0,25.88,0
	c0.74,0,1.48,0,2.22,0c48.31,0,96.62,0.02,144.93,0.02c0.71,0,1.41,0,2.12,0c0.43,0,0.85,0,1.28,0
	c60.87,0.01,121.74,0.01,182.61,0.03c3.75,0,4.59-0.84,4.59-4.59C899.9,431.8,899.9,218.2,900,4.59z M552.66,560.01
	c-7.68,3.27-15.58,6.19-23.73,8.73c-1.66,0.52-3.35,1.01-5.03,1.5c-7.9,2.29-16.02,4.25-24.36,5.87c-1.81,0.35-3.63,0.68-5.46,1
	c-2.94,0.51-5.89,0.99-8.88,1.42c-0.16,0.02-0.32,0.04-0.48,0.06c-2.23,0.32-4.46,0.6-6.69,0.86c-2.34,0.27-4.68,0.5-7.02,0.7
	c-4.01,0.35-8.01,0.61-12,0.77c-5.79,0.23-11.55,0.26-17.28,0.1c-1.02-0.03-2.04-0.07-3.06-0.11c-1.16-0.05-2.33-0.1-3.49-0.16
	c-8.57-0.46-17.06-1.36-25.43-2.67c-3.43-0.54-6.83-1.16-10.22-1.83c-0.34-0.07-0.68-0.13-1.02-0.2c-0.07-0.01-0.14-0.03-0.22-0.04
	c-0.48-0.1-0.95-0.19-1.43-0.29c-25.14-5.3-49.12-14.38-71.22-26.67c-1-0.56-1.99-1.11-2.98-1.68
	c-16.64-9.55-32.18-20.96-46.29-33.97c-0.66-0.61-1.32-1.21-1.97-1.82c-0.52-0.49-1.03-0.99-1.55-1.49c-1.2-1.15-2.4-2.32-3.58-3.49
	c-0.39-0.39-0.79-0.79-1.18-1.18c-2.25-2.27-4.46-4.57-6.63-6.93c-0.36-0.39-0.71-0.78-1.06-1.17c-3.55-3.9-7-7.91-10.31-12.04
	c-0.91-1.14-1.81-2.29-2.7-3.44c-0.88-1.14-1.75-2.29-2.62-3.45c-0.65-0.87-1.31-1.74-1.95-2.62
	c-22.8-31.31-38.83-68.25-45.57-108.92c-3.4-20.5-4.58-41.22-2.88-61.76c2.72-32.84,11.05-64.44,26.38-93.91
	c10.95-23.08,25.55-43.66,43.15-62.06c43.33-45.3,96.18-72.28,158.54-78.58c76.58-7.73,144.02,14.23,200.66,65.95
	c0.24,0.22,0.48,0.44,0.72,0.66c0.16,0.15,0.32,0.29,0.48,0.43c0.15,0.14,0.3,0.27,0.45,0.41c0.39,0.36,0.79,0.71,1.18,1.08
	c0.96,0.9,1.91,1.82,2.85,2.73c0.37,0.36,0.75,0.71,1.12,1.07c0.07,0.07,0.14,0.13,0.21,0.2c0.61,0.6,1.21,1.21,1.82,1.82
	c1.02,1.02,2.04,2.04,3.05,3.07c0.41,0.42,0.81,0.85,1.22,1.27c13.61,14.17,25.22,29.4,34.84,45.63c0.66,1.12,1.32,2.24,1.96,3.37
	c0.07,0.17,0.16,0.34,0.28,0.5c0.27,0.48,0.54,0.95,0.81,1.43c0.39,0.7,0.78,1.41,1.17,2.12c0.14,0.26,0.28,0.52,0.42,0.78
	c1.39,2.56,2.74,5.14,4.03,7.75c0.77,1.55,1.52,3.12,2.26,4.69c0.26,0.55,0.51,1.09,0.76,1.64c0.05,0.1,0.09,0.2,0.13,0.29
	c0.3,0.65,0.59,1.3,0.88,1.95c0.09,0.2,0.18,0.39,0.27,0.59c0.81,1.82,1.59,3.64,2.36,5.48c0.24,0.59,0.48,1.18,0.72,1.77
	c0.18,0.44,0.35,0.88,0.52,1.31c0.23,0.58,0.46,1.16,0.69,1.74c0.21,0.54,0.43,1.09,0.64,1.63c0.33,0.87,0.65,1.75,0.98,2.62
	c0.31,0.83,0.61,1.65,0.91,2.48c0.08,0.23,0.16,0.46,0.24,0.69c0.15,0.42,0.29,0.83,0.43,1.25c0.34,0.99,0.7,1.97,1.03,2.96
	c0.13,0.39,0.25,0.78,0.38,1.17c0.27,0.82,0.54,1.65,0.8,2.48c5.25,16.55,8.9,33.89,10.92,51.99c2.34,20.96,2.02,41.73-0.83,62.27
	c-0.09,0.68-0.18,1.36-0.28,2.04c-1.12,7.58-2.59,15.13-4.4,22.65c-0.25,1.04-0.49,2.08-0.75,3.12c-1.07,4.22-2.24,8.42-3.52,12.62
	c-0.19,0.62-0.58,1.18-0.87,1.77c-4.75,17.83-12.33,34.51-21.72,50.26c-0.15,0.26-0.32,0.51-0.47,0.77
	c-0.42,0.7-0.85,1.39-1.28,2.08c-2.84,4.65-5.77,9.18-8.78,13.59c-0.32,0.47-0.64,0.95-0.97,1.42c-2.28,3.3-4.62,6.53-7,9.69
	c-0.33,0.43-0.66,0.87-0.99,1.3c-1.67,2.19-3.36,4.34-5.08,6.46c-0.53,0.66-1.06,1.33-1.59,1.98c-3.37,4.09-6.84,8.04-10.4,11.86
	c-0.5,0.54-1.01,1.06-1.51,1.6c-2.23,2.36-4.5,4.69-6.8,6.95c-0.57,0.56-1.14,1.12-1.72,1.67c-1.39,1.34-2.79,2.67-4.2,3.97
	c-0.6,0.55-1.21,1.08-1.81,1.62c-0.76,0.69-1.53,1.38-2.3,2.06c-0.49,0.43-0.97,0.87-1.46,1.29c-2.73,2.36-5.52,4.64-8.34,6.87
	c-1.08,0.86-2.16,1.71-3.26,2.55C588.47,542.09,571.25,552.1,552.66,560.01z"/>
<path d="M410.75,505.16c2.53-3.58,1.47-9.26,2.1-13.05h-0.63c-2.1,1.69,1.68-0.42,1.47-1.47c0.42-12,1.47-22.94,1.05-33.89
	c-1.47-2.74-2.74-5.9-1.47-9.05c-4.63,0.63,0.84-6.52-4.63-4.63c2.1-4.84,1.05-9.05,1.68-14.1c-1.89-5.05-2.53-8.21-4.21-13.68
	l-0.42-4.63h-0.42c-0.84-9.47-2.95-19.16-2.1-28.63c-1.26-2.31-3.37,0-5.05,0v-0.63c-1.68-1.26-2.95,2.32-5.05,1.47
	c-1.47-1.68,0.84-5.68-2.1-5.89l-0.84,0.84c2.53-11.16,5.68-23.15,2.95-35.36c-2.74-5.89,1.26-11.16-1.47-17.05l-0.63,0.42
	c-0.21-2.32,1.26-3.79-0.84-5.47c3.79-4.84-3.58-8.84,0.42-13.68c0.21-6.74-1.47-13.68-1.47-21.26c-0.84-3.16-8.63,0.63-5.05-3.58
	c-1.47-1.26-3.16-1.68-5.05-1.47c-0.21-0.63,0.63-1.05,1.05-1.47c-1.89-1.05-3.37-4.84-5.68-3.58c0.42-0.63-0.84-3.79,1.47-4
	c6.1-13.89,7.37-30.1,19.79-40.84c2.32-5.89,8.21-10.1,12.63-14.31c1.26,0.42,4-0.42,2.53-1.89c-0.63-5.47-5.05-11.79-2.1-18.31
	c-2.74-1.47-5.05,1.05-8.42-0.42c-3.58-1.68-6.31-0.63-9.68-4l-0.42,0.42c-4.21-2.74-0.63-8.84-1.68-12
	c1.68-4.42,5.47-9.47,10.74-9.68c1.26-0.42,1.89,0.63,2.95,1.05c2.53-9.05,5.89-17.68,12.21-25.26c2.32-1.89,4.84-3.37,5.47-6.53
	c-8.21-5.26-12.21-16.42-18.73-23.37c-0.63-1.26-0.42-3.16,1.05-4c6.95,1.26,8.63,10.1,14.1,14.73c2.32,1.47,1.47,5.05,5.05,5.05
	c0.42,1.68,1.26,3.79,3.16,4.42c1.89-7.16,15.37-4.21,11.58-14.1c1.26-3.16-0.42-8.21,1.47-10.52c-0.84-6.53-2.1-14.73,0.63-20.84
	c-1.47-4.42,0.21-9.89,2.53-14.1c1.26-1.68,5.26-1.26,5.47,1.05l-2.1,1.47c0.63,0.63,1.47,1.05,1.05,2.1
	c-3.79,1.26,0.63,4-2.95,5.47c-1.68,7.58-1.26,15.37,0.42,23.15c-2.1,5.47-2.1,12-1.89,18.31c3.16-0.21,3.37,2.32,7.58,1.47
	c0.42,0.42,0.63,1.26,1.47,1.05l1.05-1.05c0.42,3.58,2.95-0.42,4.42,1.47c0,0.63,0,1.26,0.63,1.47c1.68-3.58,5.89-4.42,7.58-8.42
	c7.37-9.05,14.31-16.84,19.58-26.94c1.05-1.89,3.79,0,5.05-0.42c1.47,2.31-0.42,5.68-1.47,8c-4,3.79-6.11,6.53-8.63,11.79
	c-2.74,1.47-4.84,4-6.11,6.53c-5.05,1.68-7.37,7.16-10.52,10.1c0,0.63,0.21,1.26-0.42,1.47c5.47,1.47,2.95,6.52,6.53,9.68
	c0.63,2.53-1.69,6.95,1.89,8c2.95,0.42,5.89,1.05,7.58,2.95c-1.69,2.1,0.84,3.58,1.68,5.05v14.73c-0.63-0.21-0.84,0.21-1.05,0.42
	v1.05c-2.1-0.63-1.05,1.89-2.1,2.53c-3.16,4.42-5.68,6.31-10.1,8.63c-1.05,2.32-1.9,4.63-2.95,7.16c1.68,1.9,0.42,5.68,2.95,6.95
	c4.21-2.53,11.15-5.47,12.21-11.58c0.63-0.84,1.9-1.47,1.9-2.53c1.47,0.84,5.05,1.68,4.21,3.58c-2.74,3.79-6.95,6.74-9.68,10.52
	c-2.1-0.21-4.21,2.95-6.52,3.58c-3.58,1.9,0.21,4.42,0.42,6.53c-1.47,1.05,0.63,1.68,0.63,2.53c-1.9,2.1-2.95,4.84-5.69,6.1
	c1.05,2.1,3.79,0.21,5.05,1.47l0.63-1.9c3.58,0.63,6.31,6.74,10.1,4.42v-1.05c2.95,3.58,5.26,9.47,10.53,9.68
	c0.42,1.26,1.89,2.53,2.95,2.95l0.63-0.42c-1.26-0.84-1.89-2.1-2.1-3.58c2.53,1.89,3.16,6.74,7.16,7.16l-2.1,0.42
	c1.9,1.89,3.16,4.84,4,7.58l4.21,3.16l-2.1,0.42c0.42,7.58,7.58,16.84-1.47,21.68l-3.58,3.58h2.1c-2.53,1.05-4.84,4.21-7.16,4
	l-0.42-3.58c-0.84,0-1.05,0.84-1.69,1.05c-2.1,15.79-5.89,31.15-5.47,47.99l-1.05-2.95l-1.05,1.05c-1.47,8.63,2.53,17.47,3.58,26.1
	c3.16,2.95,1.26,8,6.1,9.68c-0.42,2.31,2.32,4.63,3.58,7.16c-0.63,4.42,3.16,6.95,2.53,11.58l-1.47-1.47l-0.63,4
	c-3.58-1.05-9.05-0.42-13.68-0.63c1.05,7.16-1.68,13.26-1.47,21.26c-2.52,7.37,0.21,17.05,0,24.84c1.05,10.73,4.42,22.52,3.16,34.31
	c1.26,8.21-0.63,16.84,1.47,25.26c1.05,1.05,2.1,2.32,3.58,2.53c0.21-0.21,0.63-0.63,0.42-1.05l-0.42-0.42
	c1.47,0.84,2.53,4.21,4.42,2.53l1.47,1.47l0.63-0.42c4.42,4.21,8.21,9.68,12.63,14.1c4.63,3.37,5.26,8.42,8,12.63l-1.47,0.42
	c3.16,8.21,6.31,16.21,7.16,25.26c3.37,4.63,1.68,10.31,1.9,15.79c-0.84-0.42-1.47,0.42-1.9,0.84c-0.21,0.84,0.63,1.05,0.84,1.68
	l0.63-0.63c0,0.63,0,1.26-0.63,1.47c-1.47-3.79-3.79,1.68-5.89,1.68c-8,2.1-16.84,0.63-22.74-4.63c-2.1,0.63-4-0.84-4.63-2.52
	c-1.26,0.42-2.1,1.68-2.95,2.52v1.47c-6.53,4-14.52,5.47-21.26,2.53c-2.31,1.47-4.21-0.84-6.1-1.47c-4.21,0.84-7.16,4.84-11.16,2.95
	c-1.26,0-2.95-1.89-3.58,0c0.21-0.63-0.63-0.84-0.84-1.47c-1.68,0.63-4.21-0.21-5.05,2.1c-2.32-2.53-5.05-1.26-7.58-1.47
	c-2.74,2.53-6.1-0.84-8.63,0c-1.89-2.32-4.21-5.68-7.16-4.63c0.21,3.16-5.26,4.21-8.63,5.05c-3.79-1.05-6.74,1.68-10.1,1.05
	l-9.05-9.05c-5.05,1.05-9.68,6.11-15.15,3.37l-1.05,1.68c-4.63-7.79-3.79-18.31-2.53-26.94c0.84-1.47,4-2.1,2.53-4.42
	c-0.84,0.42-1.05,2.1-2.53,1.48c4.21-5.69,8.42-11.37,12.63-17.26c0.21,0.84-1.05,1.48,0,2.1c4.84-9.47,16-5.26,20.84-12.63
	c3.16-0.63,5.68,3.37,8.63,0.42"/>
<path class="st2" d="M449.06,135.32l1.05-1.47c0.42,0.42,1.26,1.05,2.1,1.47c-0.21,0.63-1.47,2.74-1.05,4.63
	c1.05,0.84,2.1,3.16,3.58,1.47l1.89-2.53c4.63,2.32,5.89,6.74,5.05,11.58c-3.37-0.21-7.58,0.21-10.52,2.53l-0.42-0.42
	c-4.63,4.21-12,7.37-11.16,14.73c1.26,6.95,0.21,16,9.05,18.52c0.63,3.37,2.74,0.21,4.63,1.68c1.26,1.26,3.16,1.05,4.42,2.53
	c1.05-2.1,1.89-1.05,3.16-0.63c-2.32,2.53,0.84,7.79-5.05,5.68c-2.11-1.47-4.21-1.26-6.74-0.63c-1.47-1.26-4.63-1.68-7.58-1.47
	c-3.16-4.63-4.84,2.32-8,1.05c-2.53,0-5.47,3.58-6.53,6.11c0.42,2.31-1.05,5.05,0.42,6.52c2.74,4.63-6.74,4.21-0.42,6.11
	c1.68,1.68,4.84,3.79,5.05,6.52c1.26,0.42,2.95,0.84,3.58,1.9l-0.63,0.63c1.47,2.32,3.58-0.63,4,2.53c2.1,2.74,4.21,1.05,7.16,1.47
	c2.95,0.42,5.68,3.37,9.05,1.47l1.05,1.05c-1.47,0.42-2.31,2.1-3.58,2.95c0-0.42,0.21-1.05-0.42-1.47c-0.42,0-0.84,0.21-1.05,0.63
	v0.84c-2.32-3.79-6.1,0-9.05-0.42l-1.05-2.53c-2.53,3.37-4.21,0-7.58,1.05c-2.32,1.05-2.53-2.95-5.05-1.47
	c-1.05-2.32-4.21-1.68-4-4.63c-1.47,0.42-2.95,0.63-4,2.1c1.68-3.79-4.63-4.42-3.16-9.26c-6.52-2.1-2.1-10.31-5.05-14.52l1.47-10.74
	c1.68,0.84,0.63,8,5.05,6.74l3.58,1.89c-1.9-4.21-5.68-9.05-6.95-14.1l-3.16-6.11c-0.21,1.26,4.42,3.37,4,6.11
	c0.63,0.21,0.84-0.21,1.05-0.42v-1.05c1.26,0.63-0.21,2.74,1.47,2.53c0.21-2.53,2.32,1.26,2.53,0c1.68,2.31,4-0.21,5.68-0.63
	l1.05,1.05c3.58-2.32,7.37-5.47,7.58-9.47c0.42-0.84,1.89-1.26,1.47-2.53l-0.63-0.63c3.58-0.42-0.42-2.95,1.68-4.42
	c1.26-1.26-0.42-2.53-0.63-3.58c2.95-2.53-1.05-5.68-0.42-9.05c-0.42-1.05-1.26-1.89-2.1-2.53c-2.32,0.63-3.37-1.26-5.47-1.05V153
	c-6.74,0.21-12.84,2.32-16.21,8.63c-0.84,2.53-1.68,4.84-4,6.53c-1.05-4.42,1.47-9.47,4-13.47c2.95-1.47,4-7.16,7.16-6.74
	c-0.42-1.89,0.21-3.58,1.47-5.05c3.16,0.63,4,3.58,7.58,3.16l1.47-1.47c-1.47-2.31-3.37-2.95-3.58-5.68
	c3.16-0.21,5.89-7.58,8.21-3.58l-1.05,1.05c3.58,1.26-1.05,9.89,4,6.53l0.42,0.63c4.21-2.31,0-11.79,5.68-11.16
	C445.48,133.63,446.32,136.16,449.06,135.32z"/>
<path class="st3" d="M471.79,159.74c0.21,5.26,4.21,10.95,0.63,16c-0.84,2.95-2.95,5.47-5.68,7.16c-3.37-0.21-7.16,2.74-9.47,0.42
	c-3.37,0.42-6.31-2.74-9.05-5.05c0.84-1.89-1.68-3.58-2.53-5.47l0.84-5.47l1.68,0.42c-1.05-4.21,3.16-8.21,5.89-10.52
	c0.63,0.84,1.69,0.21,2.53,0.42c3.58-2.32,9.05,2.32,13.26,0L471.79,159.74z"/>
<path class="st3" d="M433.48,163.73c-0.84,6.53-1.68,14.31-8,17.05c-5.05,1.05-7.37-3.79-10.74-6.53
	c-0.84-5.68,1.89-10.31,5.68-13.68c3.37,0.42,4.84-4.21,8-1.47L433.48,163.73z"/>
<path d="M428.01,167.31c-0.42,2.1-0.84,7.16-4.63,4.42c-3.16-0.42-1.68-3.79-2.1-6.11C422.33,161.84,427.59,164.16,428.01,167.31z"
	/>
<path d="M464.21,168.79c0.42,2.53-0.42,4.42-2.53,6.11c-3.58,1.05-5.26-1.47-6.52-4.21c1.05-2.1-0.21-5.68,3.16-6.53
	C461.27,163.1,463.37,166.89,464.21,168.79z"/>
<path class="st2" d="M412.22,177.42l-1.47,0.84c-2.1-2.1-2.1-5.26-2.1-8.42C412.64,170.47,409.27,174.89,412.22,177.42z"/>
<path class="st2" d="M411.8,187.52c-2.1,3.37-7.16,5.68-11.58,4c-3.79-0.84-5.89-4.84-7.16-8.21c1.26-2.95-0.42-7.58,4-9.05
	C404.85,174.05,406.12,183.73,411.8,187.52z"/>
<path d="M404.22,182.89l-1.47,4.63c0-1.26-1.26-2.53-2.1-4.21c-1.47-0.21-1.89,0-2.95,0.63c0.63,1.26,0.63,1.68,0,2.95
	c-1.47-0.63-2.1-2.95-1.05-4.42c1.26-0.63,1.26-2.31,0.42-3.16l-1.9-0.42C398.96,176.36,401.28,180.15,404.22,182.89z"/>
<path class="st4" d="M450.74,198.47c2.95,1.26,8-0.84,8.42,4.63c-1.69,4.42-6.74,1.89-9.47,5.05c-3.58-0.84-6.53-0.42-9.68-0.42
	v1.47h-8c-1.68-1.89,1.47-4-1.05-5.68c1.26-0.63,1.05-1.89,1.05-2.95c2.95-2.1,6.11-6.53,9.47-4.63
	C444.01,199.94,448.22,194.68,450.74,198.47z"/>
<path class="st4" d="M462.32,209.62c0.63,3.79-1.69,6.52-3.16,9.68c-1.47-0.63-3.16,1.05-5.05,1.47h-10.1l-5.89-6.1
	c6.74-0.84,14.94-1.89,21.68-5.05H462.32z"/>
<path class="st1" d="M415.8,223.73c-1.05,2.32,1.68,1.89,2.53,2.53c3.58,3.79,7.37,5.68,12.21,7.58c1.47-1.47,3.16-0.63,5.47-0.84
	c2.74-1.05,5.89,3.16,8.63,0.84c0.21,0.84,1.26,0.84,1.47,0l1.05-0.84c0.42-0.63,1.26,3.79,3.58,1.47c2.95-0.84,7.58-3.16,8.42-7.16
	c0.42-1.89,0.84-3.79,3.16-4.42c1.05-0.42,3.58,0.63,5.47,0.84c1.47,4,6.74,6.31,9.05,9.68c1.68-0.84-0.63-1.47-0.42-2.53
	l-1.47-1.47c2.1,1.26,4.42,5.89,7.58,4.42c-3.16-0.63-3.79-4.21-6.52-5.47c14.1,5.89,23.79,20.84,26.1,35.36
	c-4.63-0.63-9.89-1.26-15.58-1.05c-4.42-6.74-22.94,3.79-17.68-10.1c-2.74-1.47-0.42-6.95-5.05-6.1c-5.68,4.63,2.95,9.68,1.48,15.79
	c5.68,8.21-2.53,16.42,3.16,25.26c3.16,13.68,3.37,27.36,7.58,40.42c3.58,2.31,3.16,10.31,4.42,15.58c1.26,2.74,3.58,4.84,4,7.58
	l-0.84-1.47c-2.31,2.1,1.68,4,2.53,6.1c0.84,3.58,1.68,8.21,5.05,10.11l0.42,1.89l-1.47-2.53c-1.05,4.42,6.52,12-0.63,13.68
	c-7.37-2.31-14.1,2.95-20.21-2.52c-9.89-2.53-19.79,0.84-28.63-1.05c-4.21,2.52-7.37-1.69-11.79,1.05
	c-8.21-0.84-12.21,1.05-19.58,2.52c-1.05-4.84-5.05-0.63-7.58-0.42l-0.63,0.42v-1.47h-1.89c1.26-2.32-2.32-1.47-3.16-2.95
	c0-7.79,0-17.47,0-25.26c2.31-0.63,1.89-6.11,1.68-8.63c0.21-3.16-0.84-6.53,0.84-9.68l0.63,0.63c0.42-4.42,3.16-8.42,1.47-13.26
	c-0.84,0.42-0.42,1.47-0.42,2.1c-1.05-0.84-0.42-2.31-0.63-3.58c1.05-0.63,1.26-1.47,1.05-2.53c-1.68-0.42-1.05-3.37-0.42-4.63
	c1.47-2.53-0.84-4.21,1.89-6.95c-0.21-0.21-0.42-0.63-1.05-0.63l-0.84,1.05c1.26-10.1,4.84-21.05,8.42-28.84
	c0.21-0.42-0.21-0.63-0.42-0.84l-2.1,1.47c-0.21-2.74,3.79-4.21,2.53-6.53l-1.47,1.47c0.63-1.47,1.89-2.53,2.1-4l-1.47-0.63
	l3.37-4.42c-0.21-0.84-1.05-0.84-1.47,0l-1.47,1.47c-0.42-3.79,5.05-6.11,2.95-9.05l-1.47,1.47l3.58-6.53l-1.05-1.05l-0.42,0.42
	c0-1.68-2.1-2.32-2.1-4.42c-2.53,1.05-2.32,4.42-3.58,6.53c-1.68,4.21-0.63,7.79-0.84,12.63c-0.63-0.21-0.84,0.21-1.05,0.42
	c1.47,1.89,0.21,3.58,0,5.68c-2.74,0-4.63,2.1-7.58,1.47c0.21-1.05-0.42-1.47-1.05-2.1l-15.16,1.05c4-7.16,1.9-17.05,9.68-22.73
	c0-7.37,6.95-10.52,10.1-16.63c4.84-2.95,6.74-8.21,10.52-11.58C414.12,219.3,414.54,220.57,415.8,223.73z"/>
<polygon class="st1" points="496.63,243.93 492,237.41 495.16,240.99 "/>
<path class="st0" d="M461.27,253.62c2.52,6.74-6.53,14.1,1.05,17.68c0.42-0.63,1.26-0.84,1.9-1.05v1.47
	c-2.1,1.47-7.16-3.16-7.58,2.1v1.47c-0.42,0.21-0.63-0.21-0.84-0.42l-2.11,2.53c0.63,0.21,0.42,0.84,0.42,1.47
	c-1.26-0.84-2.95-2.32-5.05-2.1c-2.1-2.53-4.21-2.53-6.53,0c-3.37,2.32,1.68,4.84,1.47,7.58c0.84,4,0.84,7.58,0,10.73
	c-4-3.79-2.1-10.1-5.47-14.1l-4,4c1.05,2.53,3.58,4.42,2.95,7.58c-0.84-2.53-5.05-1.26-5.47-3.16c-1.05-0.21-1.47,0.63-2.1,1.05
	c-0.63,6.53,2.74,12.84,5.05,18.73c-0.21,1.05-1.68-0.21-2.53-0.42c-0.21,1.9,1.05,4.84,2.1,6.53c-0.63,1.68-2.95-1.47-2.53,1.47
	c-1.05-2.1-2.1-5.05-3.16-7.58c-1.26-1.47-1.89-3.79-4-4.63c-0.21,1.68-1.26,2.95-1.89,4.21c-2.53-2.1-1.68-6.74-2.53-9.26l-2.1,2.1
	l-0.42-4c-1.89-1.26-4-0.21-5.68,1.05c0.21-1.47,1.68-1.47,2.53-2.1l0.63-3.58l0.42,0.63c1.26-4.21,6.53-1.05,7.58-5.68h1.05v0.63
	c1.05,0.63,2.74,0,4-0.63c-1.68-1.05-2.95-3.58-4-5.05c1.47-0.21,2.31,1.68,3.58,2.53c0.21-2.74-3.37-5.26-2.1-9.05
	c1.89,1.05,2.95,2.1,4,4l0.63-2.53c0.84,1.89,1.47,4,2.95,5.68l4.63-4.63l-1.05-1.05l-0.63,0.63c-0.42-4.42-5.47-8.84-9.05-12.63
	l0.63-0.63c2.95,1.47,4.42,6.53,8.42,5.68c0.84,1.9,2.32,3.79,3.58,5.47c2.1-1.05,2.74-2.32,4.63-4c-1.26-2.74-3.16-6.53-6.1-7.16
	l2.53-1.47c-0.63-0.63-1.05-1.89-0.42-2.53c0.63-0.21,0.84,0.63,1.47,1.05c0.21-0.21,0.42-0.63,1.05-0.63l0.84,1.05
	C449.48,259.09,455.16,255.51,461.27,253.62z"/>
<path class="st5" d="M456.21,268.35c-0.84,1.26-4.84-1.05-4.63,1.89l3.16,1.47l-1.47,4.21c-2.1-4.42-7.16-6.53-8.63-11.16
	c4-2.32,7.79-5.47,12-7.16C458.74,260.98,457.06,264.98,456.21,268.35z"/>
<path class="st0" d="M452.21,263.3c0,1.05-0.21,1.89-1.05,2.53c-0.63,0-1.68-0.42-2.1,0.42c-1.05-0.63-1.05-1.68-0.42-2.53
	C449.48,262.88,451.79,261.19,452.21,263.3z"/>
<path class="st2" d="M487.58,270.88c0.42,1.05-0.63,1.68-1.05,2.53c-1.05-0.84,0-2.53-1.47-3.16c1.47,8.63-0.21,16.63-2.53,24.84
	c1.26,8.21-2.1,14.52-3.16,21.68c0-11.79-5.47-21.47-6.95-32.84c1.47-3.37,1.68-6.31,2.95-8.63c-1.26-1.47-2.1,1.68-3.58,1.47
	c0-1.26,3.16-2.1,1.68-3.37h-1.05c-0.84,0.21,2.95-3.79,1.05-4.63c-0.42-0.84,3.58-1.68,5.47-2.1
	C482.1,267.51,484.84,268.98,487.58,270.88z"/>
<path class="st1" d="M497.68,267.72l-7.58,5.68v-5.05c1.26-0.21,2.95,0.42,4-0.63l-1.05-1.05
	C494.95,266.46,496.21,267.51,497.68,267.72z"/>
<path class="st2" d="M401.7,283.51c1.47-1.89,1.26-5.47,1.89-8.21c1.9,2.32-0.84,6.53-1.47,9.05l-0.42-0.42
	c-1.47,8.63-3.16,15.16-5.68,23.15c2.74,1.26-0.84,3.16,1.05,4.63c0.84,1.89-1.68,5.68,0,7.58c-0.42,6.31-1.05,13.05-1.47,18.73
	c-3.79-9.47-1.26-21.89-2.1-31.78c0.21-7.16-1.68-13.47-0.84-20.84l-0.63,0.63c1.05-2.95,0-7.37,1.05-10.74
	c2.95,0.21,5.68-1.89,8.63-0.42l1.05-1.05C402.33,275.93,401.28,280.56,401.7,283.51z"/>
<path class="st1" d="M388.44,275.93c-0.42,2.31,1.26,3.58,0.63,5.89c-1.05,0-1.68-1.26-2.53-1.89l0.42-1.47
	c-2.1,1.05-1.26-2.95-1.47-3.58C386.54,274.88,387.8,274.67,388.44,275.93z"/>
<path class="st6" d="M460.85,378.86c3.79,1.05,6.95,0.42,10.52,0.63c1.89,1.26,4.42,1.26,6.53,1.89c0.84,16.42-4,36.21-0.42,53.68
	c2.95,16,4.84,31.78,3.58,48.41c-2.74,2.31-6.52-3.37-8.21,1.47c-4.21-4.63-8,2.32-12,3.58c-4,2.74-6.31,6.73-10.1,8.63
	c-0.84,1.9-0.63,4-2.1,5.47c0-4.21,2.31-8.63,0-12.63c1.26-7.16-0.42-15.15-0.42-21.68l-1.05,2.1v-6.74c0,1.9,0.63,3.79,1.89,4.63
	c1.05-7.58-1.68-14.73-1.47-22.74c-1.68-4.21-1.05-11.37-0.42-16.63c0.21-4.84,3.58-11.79,1.05-16.21c0.21-0.42,1.05-0.84,0.84-1.47
	l-1.89-0.63c0.42-1.26,1.89-2.1,1.89-3.37l-1.89-0.63l1.47-4.42c-1.47-0.21-2.53-0.42-2.1-2.53c1.05-0.63,1.26-1.47,1.05-2.53
	c-2.53-1.26,1.68-2.53-0.42-4.21h0.42c0.63-4.21-1.9-8.63-2.53-13.05l-1.47,1.47c-1.26-0.84,0.42-2.95-1.47-3.58
	c-4-0.42-2.32,4.21-5.05,5.68c-0.63,1.68,1.89,1.47,1.89,2.95c-0.84,4,1.89,4.42,1.68,8.63l-1.05,1.05c3.16,3.16,1.89,7.37,2.95,12
	c0.63-0.21,0.42-0.84,0.63-1.47c0.42,0.21,0.63-0.21,0.84-0.42c1.26,1.9-2.1,3.37-0.84,6.11l-1.05-4.63
	c-1.89,8,0.21,17.68-2.53,25.26c0.21,8.63-3.37,19.37,2.95,26.73c1.9,3.37,0.63,8.21,3.16,10.74c-2.74,3.37,1.26,7.37,0,12v23.79
	c-2.31,2.31-1.89,5.68-4.21,8c2.32,2.74-1.89,6.31-1.89,9.26c-4.84-3.37-5.47-8.21-8.63-12.21c-2.31,1.26-4.21-0.84-5.47,0.42
	c-4.21-1.47-6.53-7.58-11.79-6.52c3.16-14.11,2.53-30.52,3.16-45.47c0.63,0.63,1.05,1.68,1.89,1.47c0-4.63-3.37-9.89-1.47-15.58
	l-1.89-0.42c0-0.84,1.68-1.68,0.42-2.52l-2.1,1.89c0.63-6.74-2.32-14.52-1.89-22.73c0.42-2.31,1.47-5.68-1.05-8
	c-1.05-10.52-1.9-21.26-2.1-32.42c9.89,0,18.94-6.1,28.42-2.53c0-1.68,2.1-1.05,2.95-1.89C446.74,379.49,453.9,378.02,460.85,378.86
	z"/>
<path class="st7" d="M496.21,496.53c0.42,2.74,4.84,5.05,5.89,7.58c6.11,2.31,6.11,8.84,8.63,13.26c-1.47,4.63,1.26,8.42,0.63,12.63
	c1.26-0.21,1.26-1.68,1.9-2.52c-0.42,3.37,1.26,7.37-1.47,10.1c-0.84-0.84,0.63-3.58-2.1-2.53c-2.53-1.9-6.53-0.21-8.42-3.58
	c-3.58,2.1-7.58-2.32-11.16-1.48c1.05,0.42,2.1,1.48,3.58,1.48c-2.95,0.84-7.79-1.48-10.73,0c-2.53-0.42-5.68,0.84-7.58-1.05
	c-0.63,0.42-0.42,1.05-0.42,1.47c-9.68-1.9-18.31,1.26-26.31,4.63l-0.42-2.53c-2.1-1.26-2.53,2.1-3.58,2.95c0-2.31,4-6.11,2.53-9.47
	l-2.1,1.05c-1.26-0.84,0.42-2.53,0.63-3.58c-2.95,1.68-2.74-2.95-2.53-4c0.42-4.84,6.95-7.16,5.47-12.63
	c2.31-1.69,3.16-4.63,5.47-6.74l-0.42-0.42c1.89-3.58,5.68-6.52,7.58-10.11c0.84,2.74,2.52-0.84,4-1.05
	C475.79,487.27,488,487.68,496.21,496.53z"/>
<path class="st7" d="M424.43,518.42c1.05,0,1.89,1.69,2.95,0.42v-1.05c4.84,2.73,7.16,6.52,11.16,10.1l0.42-0.42
	c1.68,1.05,1.68,5.26,0,8l-0.42,0.63c-5.89-3.37-11.37-9.26-18.73-7.58l3.16-0.63c-1.26-2.31-4.84-1.47-7.16-2.52
	c-4.63-1.69-9.47-0.42-13.05-2.95c0,0.63-0.21,1.26,0.42,1.47c-1.26-0.21-5.68,0-8,0.42c-4.63,3.58-11.79,1.26-15.15,6.11l-6.1,2.1
	c0.21-0.63,1.05-2.32,0.42-4l0.63,0.42c2.74-1.26,0.84-8.63,5.89-6.1l0.63-0.42c-1.05-0.63-1.26-1.47-1.05-2.52
	c2.32-3.79,7.37-5.05,10.52-6.11c4.21-4.63,11.58-3.37,17.26-5.05C414.33,510.42,419.38,514,424.43,518.42z"/>
<path class="st8" d="M427.38,532.94c3.58,5.47,13.05,6.11,10.1,15.16c0.84,3.58,3.16,8.84,0,11.58c-4.63-1.05-10.95,0.42-15.15-0.42
	c-2.53-1.26-4.42-5.47-7.58-3.58c-3.79-1.05-5.68,2.52-9.05-1.05c-0.63-0.84-0.84-2.1-2.1-2.95c-2.31,1.9,1.47,3.79,2.1,5.47
	c-2.53-0.63-6.31-3.37-9.05-5.89c-1.47,0.84,0.21,1.89,0.42,2.95l-1.9-1.47c-0.63,0.21-0.63,0.84-0.63,1.47
	c-1.26,0.42-2.1-1.26-2.95,0v0.42c-1.47-1.48-3.16-1.26-4-3.37c-3.37,3.79-9.47,3.16-14.31,2.53c0-5.26-2.1-8.63-0.42-13.68
	c-1.68-1.47,0.84-2.53,1.47-3.58c5.26-2.32,10.1-5.68,16.21-6.1c-1.05-3.16,3.79-1.9,5.47-2.95v1.05c5.89,1.9,10.31-3.79,16.21-1.05
	C417.27,527.68,421.9,532.1,427.38,532.94z"/>
<path class="st8" d="M511.79,540.1c1.68,3.37,3.58,7.37,1.05,11.16c4.63,0.42-0.21,4.21,0.42,6.53c-3.16,0.21-6.31,3.58-9.47,1.05
	c-1.47,2.1-2.95-1.26-4.63-1.05c-5.05-2.32-9.47-6.31-15.16-2.53c0,3.16-3.58,5.69-6.1,6.95h-1.48c0.21-0.42-0.42-1.05-1.05-0.84
	c-2.52-0.42-3.79,3.58-6.52,1.47c-3.37-2.95-7.16-6.95-11.58-5.68v1.69c-2.1,0.21-4,1.05-5.68,2.95
	c-1.89-6.74,4.21-13.05,0.63-19.16l-1.05,1.05l-1.05-4.63c3.16-1.69,7.79-0.84,10.1-2.53c-1.26-0.84-2.95-0.42-4.42-0.42
	c7.58-3.16,18.31-0.21,25.68-2.52C492.84,532.73,503.15,533.99,511.79,540.1z"/>
</svg>
