<?xml version="1.0" encoding="utf-8"?>
<!-- Generator: Adobe Illustrator 25.2.1, SVG Export Plug-In . SVG Version: 6.00 Build 0)  -->
<svg version="1.1" id="Capa_1" xmlns="http://www.w3.org/2000/svg" xmlns:xlink="http://www.w3.org/1999/xlink" x="0px" y="0px"
	 viewBox="0 0 900 650" style="enable-background:new 0 0 900 650;" xml:space="preserve">
<style type="text/css">
	.st0{fill:#FF9966;}
	.st1{fill:#660066;}
	.st2{fill:#BE2F38;}
	.st3{fill:#C0373F;}
	.st4{fill:#092138;}
	.st5{fill:#BD3A43;}
	.st6{fill:#092038;}
	.st7{fill:#C03740;}
	.st8{fill:#BD3841;}
	.st9{fill:#231F20;}
	.st10{fill:#003263;}
	.st11{fill:#093968;}
	.st12{fill:#083868;}
	.st13{fill:#0A3A68;}
	.st14{fill:#C13B43;}
	.st15{fill:#C13942;}
	.st16{fill:#BF3A43;}
	.st17{fill:#0B3B69;}
	.st18{fill:#C13840;}
	.st19{fill:#C4434B;}
	.st20{fill:#1B4773;}
	.st21{fill:#132A40;}
	.st22{fill:#C4454D;}
	.st23{fill:#184571;}
	.st24{fill:#7E76B2;}
	.st25{fill:#D85C38;}
	.st26{fill:#BF3440;}
	.st27{fill:#362B61;}
	.st28{fill:#F3D099;}
	.st29{fill:#9A4F29;}
	.st30{fill:#41658A;}
	.st31{fill:#4D6F91;}
	.st32{fill:#597898;}
	.st33{fill:#375D84;}
	.st34{fill:#3C3967;}
	.st35{fill:#345B82;}
	.st36{fill:#3C3966;}
	.st37{fill:#B68844;}
	.st38{fill:#4F7091;}
	.st39{fill:#1F4B75;}
	.st40{fill:#476A8D;}
	.st41{fill:#CD686F;}
	.st42{fill:#496C8F;}
	.st43{fill:#45698C;}
	.st44{fill:#507293;}
	.st45{fill:#365D83;}
	.st46{fill:#CC6A71;}
	.st47{fill:#224D77;}
	.st48{fill:#42668A;}
	.st49{fill:#244E78;}
	.st50{fill:#3C6286;}
	.st51{fill:#517293;}
	.st52{fill:#30577E;}
	.st53{fill:#617E9C;}
	.st54{fill:#65839F;}
	.st55{fill:#3F6488;}
	.st56{fill:#4B6D8F;}
	.st57{fill:#7790A9;}
	.st58{fill:#CC6269;}
	.st59{fill:#164370;}
	.st60{fill:#64819E;}
	.st61{fill:#D07278;}
	.st62{fill:#20364B;}
	.st63{fill:#3B6186;}
	.st64{fill:#3F6388;}
	.st65{fill:#4E7091;}
	.st66{fill:#1F4A74;}
	.st67{fill:#335A80;}
	.st68{fill:#65819E;}
	.st69{fill:#557595;}
	.st70{fill:#CE6A71;}
	.st71{fill:#6E87A0;}
	.st72{fill:#7E96AE;}
	.st73{fill:#30587F;}
	.st74{fill:#C24952;}
	.st75{fill:#4C6E8F;}
	.st76{fill:#456687;}
	.st77{fill:#748DA7;}
	.st78{fill:#CF7177;}
	.st79{fill:#254F78;}
	.st80{fill:#224C75;}
	.st81{fill:#577796;}
	.st82{fill:#3A6085;}
	.st83{fill:#3C6287;}
	.st84{fill:#517192;}
	.st85{fill:#2E567E;}
	.st86{fill:#3A4D5F;}
	.st87{fill:#C16168;}
	.st88{fill:#355B81;}
	.st89{fill:#C1848D;}
	.st90{fill:#375A7E;}
	.st91{fill:#728CA6;}
	.st92{fill:#426689;}
	.st93{fill:#4A6B8C;}
	.st94{fill:#365B80;}
	.st95{fill:#4B5B6B;}
	.st96{fill:#43668A;}
	.st97{fill:#758EA7;}
	.st98{fill:#5C7A99;}
	.st99{fill:#295179;}
	.st100{fill:#2E4255;}
	.st101{fill:#244C74;}
	.st102{fill:#46688A;}
	.st103{fill:#6985A1;}
	.st104{fill:#14426F;}
	.st105{fill:#C4424A;}
	.st106{fill:#C9565D;}
	.st107{fill:#395F84;}
	.st108{fill:#1D4974;}
	.st109{fill:#20354A;}
	.st110{fill:#27517A;}
	.st111{fill:#292423;}
	.st112{fill:#262122;}
	.st113{fill:#2E577E;}
	.st114{fill:#355C82;}
	.st115{fill:#CB5E65;}
	.st116{fill:#C75159;}
	.st117{fill:#304457;}
	.st118{fill:#617F9D;}
</style>
<rect x="134.45" y="69.03" class="st0" width="581.28" height="522.07"/>
<path class="st1" d="M900,4.59c0-3.75-0.84-4.6-4.59-4.59C746.94,0.11,598.47,0.09,450,0.09S153.06,0.11,4.59,0
	C0.84,0,0,0.84,0,4.59C0.1,218.2,0.1,431.8,0,645.41c0,3.75,0.84,4.59,4.59,4.59c57.93-0.02,115.86-0.02,173.79-0.03
	c31.48-0.01,62.95-0.01,94.43-0.02c0.64,0,1.28,0,1.92,0c1.22,0,2.44,0,3.66,0c6.63,0,13.25,0,19.88,0c4.25,0,8.51,0,12.76,0
	c3.85,0,7.7,0,11.55,0c1.01,0,2.03,0,3.04,0c11.26,0,22.52-0.01,33.79-0.01c0.38,0,0.76,0,1.14,0c0.36,0,0.71,0,1.07,0
	c0.1,0,0.2,0,0.29,0c3.16,0,6.32,0,9.49,0c4.22,0,8.43,0,12.65,0c0.65,0,1.29,0,1.94,0c9.18,0,18.35,0,27.53,0c1.07,0,2.15,0,3.22,0
	c1.09,0,2.19,0,3.28,0c7.96,0,15.91,0,23.87,0c1.79,0,3.58,0,5.37,0c29.03,0,58.07,0.01,87.1,0.01c8.63,0,17.25,0,25.88,0
	c0.74,0,1.48,0,2.22,0c48.31,0,96.62,0.02,144.93,0.02c0.71,0,1.41,0,2.12,0c0.43,0,0.85,0,1.28,0
	c60.87,0.01,121.74,0.01,182.61,0.03c3.75,0,4.59-0.84,4.59-4.59C899.89,431.8,899.9,218.2,900,4.59z M552.66,560.01
	c-7.68,3.27-15.58,6.19-23.73,8.73c-1.66,0.52-3.35,1.01-5.03,1.5c-7.9,2.29-16.02,4.25-24.36,5.87c-1.81,0.35-3.63,0.68-5.46,1
	c-2.94,0.51-5.89,0.99-8.88,1.42c-0.16,0.02-0.32,0.04-0.48,0.06c-2.23,0.32-4.46,0.6-6.69,0.86c-2.34,0.27-4.68,0.5-7.02,0.7
	c-4.01,0.35-8.01,0.61-12,0.77c-5.79,0.23-11.55,0.26-17.28,0.1c-1.02-0.03-2.04-0.07-3.06-0.11c-1.16-0.05-2.33-0.1-3.49-0.16
	c-8.57-0.46-17.06-1.36-25.43-2.67c-3.43-0.54-6.83-1.16-10.22-1.83c-0.34-0.07-0.68-0.13-1.02-0.2c-0.07-0.01-0.14-0.03-0.22-0.04
	c-0.48-0.1-0.95-0.19-1.43-0.29c-25.16-5.3-49.14-14.37-71.24-26.67c-1-0.56-1.99-1.11-2.98-1.68
	c-16.64-9.55-32.18-20.96-46.29-33.97c-0.66-0.61-1.32-1.21-1.97-1.82c-0.52-0.49-1.03-0.99-1.55-1.49c-1.2-1.15-2.4-2.32-3.58-3.49
	c-0.39-0.39-0.79-0.79-1.18-1.18c-2.25-2.27-4.46-4.57-6.63-6.93c-0.36-0.39-0.71-0.78-1.06-1.17c-3.55-3.9-7-7.91-10.31-12.04
	c-0.91-1.14-1.81-2.29-2.7-3.44c-0.88-1.14-1.75-2.29-2.62-3.45c-0.65-0.87-1.31-1.74-1.95-2.62
	c-22.8-31.31-38.83-68.25-45.57-108.92c-3.4-20.5-4.58-41.22-2.88-61.76c2.72-32.84,11.05-64.44,26.38-93.91
	c10.95-23.08,25.55-43.66,43.15-62.06c43.33-45.3,96.18-72.28,158.54-78.58c76.58-7.73,144.02,14.23,200.66,65.95
	c0.24,0.22,0.48,0.44,0.72,0.66c0.16,0.15,0.32,0.29,0.48,0.43c0.15,0.14,0.3,0.27,0.45,0.41c0.39,0.36,0.79,0.71,1.18,1.08
	c0.96,0.9,1.91,1.82,2.85,2.73c0.37,0.36,0.75,0.71,1.12,1.07c0.07,0.07,0.14,0.13,0.21,0.2c0.61,0.6,1.21,1.21,1.82,1.82
	c1.02,1.02,2.04,2.04,3.05,3.07c0.41,0.42,0.81,0.85,1.22,1.27c13.61,14.17,25.22,29.4,34.84,45.63c0.66,1.12,1.32,2.24,1.96,3.37
	c0.07,0.17,0.16,0.34,0.28,0.5c0.27,0.48,0.54,0.95,0.81,1.43c0.39,0.7,0.78,1.41,1.17,2.12c0.14,0.26,0.28,0.52,0.42,0.78
	c1.39,2.56,2.74,5.14,4.03,7.75c0.77,1.55,1.52,3.12,2.26,4.69c0.26,0.55,0.51,1.09,0.76,1.64c0.05,0.1,0.09,0.2,0.13,0.29
	c0.3,0.65,0.59,1.3,0.88,1.95c0.09,0.2,0.18,0.39,0.27,0.59c0.81,1.82,1.59,3.64,2.36,5.48c0.24,0.59,0.48,1.18,0.72,1.77
	c0.18,0.44,0.35,0.88,0.52,1.31c0.23,0.58,0.46,1.16,0.69,1.74c0.21,0.54,0.43,1.09,0.64,1.63c0.33,0.87,0.65,1.75,0.98,2.62
	c0.31,0.83,0.61,1.65,0.91,2.48c0.08,0.23,0.16,0.46,0.24,0.69c0.15,0.42,0.29,0.83,0.43,1.25c0.34,0.99,0.7,1.97,1.03,2.96
	c0.13,0.39,0.25,0.78,0.38,1.17c0.27,0.82,0.54,1.65,0.8,2.48c5.25,16.55,8.9,33.89,10.92,51.99c2.34,20.96,2.02,41.73-0.83,62.27
	c-0.09,0.68-0.18,1.36-0.28,2.04c-1.12,7.58-2.59,15.13-4.4,22.65c-0.25,1.04-0.49,2.08-0.75,3.12c-1.07,4.22-2.24,8.42-3.52,12.62
	c-0.19,0.62-0.58,1.18-0.87,1.77c-4.75,17.83-12.33,34.51-21.72,50.26c-0.15,0.26-0.32,0.51-0.47,0.77
	c-0.42,0.7-0.85,1.39-1.28,2.08c-2.84,4.65-5.77,9.18-8.78,13.59c-0.32,0.47-0.64,0.95-0.97,1.42c-2.28,3.3-4.62,6.53-7,9.69
	c-0.33,0.43-0.66,0.87-0.99,1.3c-1.67,2.19-3.36,4.34-5.08,6.46c-0.53,0.66-1.06,1.33-1.59,1.98c-3.37,4.09-6.84,8.04-10.4,11.86
	c-0.5,0.54-1.01,1.06-1.51,1.6c-2.23,2.36-4.5,4.69-6.8,6.95c-0.57,0.56-1.14,1.12-1.72,1.67c-1.39,1.34-2.79,2.67-4.2,3.97
	c-0.6,0.55-1.21,1.08-1.81,1.62c-0.76,0.69-1.53,1.38-2.3,2.06c-0.49,0.43-0.97,0.87-1.46,1.29c-2.73,2.36-5.52,4.64-8.34,6.87
	c-1.08,0.86-2.16,1.71-3.26,2.55C588.47,542.09,571.25,552.1,552.66,560.01z"/>
<g>
	<path class="st2" d="M205.26,249.6c2.67-7.47,4.92-15.11,8.06-22.37c21.7-50.16,55.28-90.33,101.69-119.43
		C343.4,90,374.18,78.24,407.3,72.87c67.77-10.99,130.13,2.97,186.99,41.27c21.45,14.45,40.26,31.91,56,52.53
		c-3.73,1.05-7.68,1.61-11.12,3.26c-3.98,1.91-7.51,4.76-11.24,7.2c-1.82,1.33-3.65,2.67-5.47,4c-0.68-0.72-1.37-1.43-2.05-2.15
		c-0.24-0.39-0.43-0.83-0.73-1.17c-43.48-48.9-97.98-74.95-163.3-77.58c-33.39-1.34-65.72,4.86-96.16,18.74
		c-12.99,5.92-25,14.02-37.45,21.13c-0.65,0.21-1.31,0.41-1.96,0.62c-1.74-0.5-3.5-0.97-5.23-1.51c-8.32-2.6-15.96-0.78-23.22,3.54
		c-0.07,0.04,0.09,0.55,0.2,0.81c0.03,0.08,0.28,0.06,0.44,0.08c-2.68,2.22-5.63,4.19-7.96,6.73c-2.58,2.8-4.6,6.13-6.87,9.22
		c-4.96,3.76-6.48,16.62-2.76,23.17c-0.31,0.61-0.62,1.23-0.92,1.84c-0.39,0.58-0.78,1.17-1.18,1.75
		c-21.78,26.64-35.82,57.03-43.47,90.43c-6.51,28.39-7.52,57.02-2.97,85.84c3.8,24.03,10.95,46.94,22.15,68.56
		c0.72,1.71,1.44,3.41,2.17,5.12c-1.86,7.33,2.46,13.11,5.37,18.96c2.59,5.21,6.11,9.75,2.86,15.83c-1.83,3.15-3.66,6.31-5.49,9.46
		c-0.08-0.29-0.14-0.6-0.26-0.88c-0.05-0.1-0.25-0.13-0.38-0.19c-0.98,3.37-1.95,6.73-2.93,10.1
		c-12.14-14.55-22.28-30.44-30.29-47.55c-5.5-11.73-9.85-24-14.71-36.03c-6.88-22.78-11.12-46.01-11.89-69.82
		C192.51,306.67,196.57,277.81,205.26,249.6z"/>
	<path class="st2" d="M677.32,208.46c1.86,3.5,3.72,7.01,5.58,10.51c5.19,15.07,10.47,30.12,15.53,45.24
		c1.36,4.05,2.08,8.31,3.09,12.48c6.21,33.79,6.18,67.59,0.06,101.38c-2.5,9.17-4.86,18.38-7.54,27.5
		c-9.94,33.78-27.02,63.7-49.8,90.37c-29.81,34.89-66.43,60.03-109.69,75.43c-34.82,12.39-70.7,16.48-107.43,13.33
		c-45.93-3.94-87.58-19.63-125.19-46.19c-1.14-0.8-2.21-1.69-3.31-2.54c3.5-1.52,7.38-2.51,10.42-4.68
		c6.77-4.83,13.44-5.36,20.62-1.33c1.06,0.59,2.29,1,3.49,1.19c4.74,0.73,9.58,3.13,14.1-0.69c0.51,0.03,1.02,0.06,1.54,0.1
		c1.34,0.76,2.63,1.6,4.01,2.27c24.2,11.65,49.7,18.66,76.43,21.09c26.26,2.38,52.18,0.44,77.66-6.53c0.61-0.02,1.23-0.04,1.84-0.05
		c8.8,7.69,19.29,7.77,30.01,6.55c17.34-1.97,35.05-18.91,35.25-36.21c0.62-0.61,1.25-1.22,1.87-1.83
		c23.68-15.41,43.1-35.19,59.12-58.3c21.36-30.8,34.36-64.86,38.81-102.15c2.89-24.16,2.47-48.23-2.67-72.02
		c-2.39-11.03-5.95-21.8-8.97-32.69c-1.53-4.32-3.05-8.65-4.58-12.97c0.37-0.96,0.48-2.17,1.15-2.84c2.62-2.61,5.47-4.98,8.12-7.55
		C672.21,222.07,676.74,216.35,677.32,208.46z"/>
	<path class="st3" d="M347.25,530.45c-4.52,3.82-9.37,1.41-14.1,0.69c-1.2-0.18-2.43-0.6-3.49-1.19c-7.19-4.04-13.85-3.5-20.62,1.33
		c-3.04,2.17-6.92,3.16-10.42,4.68c-1.54-0.95-3.08-1.9-4.62-2.85c-0.36-0.5-0.71-1.01-1.06-1.51c7.46-0.37,14.23-2.69,20.69-6.51
		c2.08-1.23,5.21-1.55,7.67-1.13c7.66,1.3,15.23,3.16,22.83,4.81c0.31-0.02,0.63-0.04,0.94-0.06
		C345.79,529.28,346.52,529.87,347.25,530.45z"/>
	<path class="st4" d="M292.94,531.59c0.35,0.5,0.71,1.01,1.06,1.51c-1.47,0.73-2.96,2.13-4.4,2.08
		c-18.49-0.7-30.53-9.92-36.61-28.41c-1.15-3.5-2.15-7.09-2.8-10.71c-0.26-1.47,0.61-3.15,0.96-4.73c0.88,1.04,1.76,2.09,2.64,3.13
		c-0.09,1.62-0.58,3.35-0.21,4.85c0.85,3.4,2.15,6.68,3.24,10.02c4.12,12.67,17.28,22.71,30.49,23.07c0.98,0.03,1.98-1.21,2.98-1.85
		C291.16,530.89,292.05,531.24,292.94,531.59z"/>
	<path class="st5" d="M253.78,494.46c-0.88-1.04-1.76-2.09-2.64-3.13c-0.26-0.58-0.52-1.17-0.79-1.75c0.98-3.37,1.95-6.73,2.93-10.1
		c0.13,0.06,0.34,0.09,0.38,0.19c0.12,0.28,0.18,0.58,0.26,0.88c0.58,5.2,1.16,10.4,1.75,15.61
		C255.05,495.59,254.41,495.03,253.78,494.46z"/>
	<path class="st6" d="M652.8,169.1c3.33-2.92,6.83-1.09,9.35,0.68c10.92,7.66,18.49,17.45,16.8,33.1c-0.15,1.43-1.21,2.76-1.84,4.14
		c-0.67-0.94-1.34-1.87-2.01-2.81c0.04-0.28,0.08-0.57,0.11-0.85c0.34-1.49,0.92-2.96,1-4.46c0.49-10.05-5.19-17.15-11.73-23.73
		c-3.04-3.06-6.61-5.09-11.2-3.68C653.11,170.69,652.95,169.89,652.8,169.1z"/>
	<path class="st7" d="M675.09,204.21c0.67,0.94,1.34,1.87,2.01,2.81c0.07,0.48,0.15,0.96,0.22,1.43
		c-0.58,7.9-5.11,13.62-10.48,18.84c-2.65,2.58-5.5,4.95-8.12,7.55c-0.66,0.66-0.78,1.88-1.15,2.84c-0.91-1.58-1.83-3.17-2.74-4.75
		c0.01-0.31,0.01-0.62-0.02-0.93C665.1,225.31,672.95,216.84,675.09,204.21z"/>
	<path class="st8" d="M652.8,169.1c0.16,0.79,0.31,1.59,0.47,2.38c-0.11,0.31-0.22,0.62-0.33,0.94c-9.09-2.39-17.12,0.78-25.01,4.72
		c3.73-2.44,7.26-5.3,11.24-7.2c3.44-1.65,7.4-2.21,11.12-3.26C651.12,167.48,651.96,168.29,652.8,169.1z"/>
	<path class="st9" d="M627.92,177.14c7.89-3.94,15.93-7.11,25.01-4.72c0.31,0.59,0.63,1.17,0.94,1.76c0.61,1.17,1.11,2.4,1.84,3.49
		c2.17,3.26,4.43,6.47,6.66,9.7c1.28,7.58-0.46,14.62-3.81,21.37c-0.96,1.18-1.92,2.36-2.88,3.53c-2.5,2.23-5,4.45-7.5,6.68
		c-2.74,1.87-5.48,3.74-8.23,5.61c-1.61,0.26-3.23,0.52-4.84,0.79c-0.28,0.85-1.06,1.95-0.77,2.51c2.02,3.95,4.26,7.79,6.43,11.67
		c1.53,3.47,3.07,6.94,4.6,10.4c-0.24,3.46,0.25,7.19-0.92,10.3c-1.2,3.17,0.54,8.6-5.41,9.02c-1.88,0.53-3.76,1.06-5.64,1.58
		c-6.25,0.98-12.5,1.97-18.75,2.95c-7.69,1.91-15.38,3.83-23.07,5.74c-6.55,2.75-13.1,5.5-19.65,8.25
		c-1.81,1.26-3.62,2.52-5.43,3.79c-16.98,7.9-33.3,16.93-48.58,27.79c-1.21,0.65-2.41,1.29-3.62,1.94
		c-4.66,1.91-6.42,5.35-5.39,10.25c-0.18,1.96-0.06,4.01-0.61,5.86c-1.69,5.69,0.71,9.56,5.13,12.69c0.92,0.69,1.84,1.37,2.76,2.06
		c0.33,0.24,0.65,0.48,0.98,0.72c3.12,2.84,6.25,5.67,9.37,8.51c0.05,0.79-0.19,1.8,0.21,2.32c1.89,2.45,3.95,4.76,5.95,7.12
		c13.57,16.04,23.78,34.21,33.23,52.83c4.18,8.24,7.75,16.8,11.59,25.22c1.84,5.31,3.69,10.61,5.53,15.92
		c-0.81,2.44-1.63,4.88-2.44,7.32c-5.05,4.93-10.09,9.85-15.14,14.78c-10.28,5.58-10.46,5.98-6.46,14.94
		c0.04,0.63,0.08,1.25,0.13,1.88c-0.06,2.44-0.12,4.88-0.18,7.33c-2,8.67-6.1,15.96-13.7,20.99c-1.12,0.74-2.02,1.81-3.02,2.72
		c-2,0.79-4,1.59-6,2.38c-8.32,1.81-16.54,1.59-24.63-1.2c-1.57-1.13-3.15-2.26-4.72-3.39c-2.21-4.34-4.42-8.69-6.63-13.03
		c0.55-2.62,1.09-5.24,1.74-8.31c-6.67,0.59-12.59,1.11-18.52,1.63c-3.33,0.07-6.65,0.15-9.98,0.22c-0.66,0.24-1.32,0.49-1.97,0.73
		c-0.29,0.03-0.57,0.08-0.85,0.17c-1.55-4.36-3.1-8.71-4.66-13.07c-0.61-4.41-0.85-8.92-1.9-13.22c-2.88-11.79-6.11-23.5-9.2-35.24
		c-2.89-8.13-5.75-16.28-8.7-24.39c-0.23-0.65-1.01-1.1-1.54-1.64c-1.55-2.45-3.1-4.9-4.65-7.35c-0.95-1.56-1.9-3.13-2.85-4.69
		c-0.56-0.7-1.12-1.4-1.69-2.1c-0.61-0.86-1.22-1.72-1.83-2.58c-1.65-2.48-3.31-4.95-5.11-7.65c-1.77,1.1-3.15,1.95-4.54,2.81
		c-0.58,0.37-1.17,0.74-1.75,1.11c-0.59,0.39-1.18,0.79-1.77,1.18c-0.67,0.5-1.33,1-2,1.51c-6.22,4.6-12.44,9.19-18.66,13.79
		c-2.74,2.61-5.48,5.22-8.22,7.83c-0.6,0.47-1.34,0.84-1.79,1.43c-8.33,11.1-17.06,21.92-24.77,33.44
		c-5.8,8.67-10.28,18.22-15.35,27.38c-1.28,3.1-2.57,6.19-3.85,9.29c-0.59,1.24-1.18,2.48-1.77,3.72c-0.3,0.94-0.6,1.87-0.89,2.81
		c-0.86,2.74-1.71,5.48-2.67,8.53c-1.6-0.25-3.33-0.25-4.87-0.81c-7.18-2.61-14.31-5.37-21.45-8.08c-1.47-0.88-2.95-1.76-4.48-2.67
		c-0.76,1.49-1.35,2.64-1.94,3.79c-1.51,1.34-3.02,2.68-4.53,4.01c-3.69,1.73-7.23,4.23-11.1,4.97c-4.58,0.88-9.45,0.24-14.19,0.26
		c-2.13-0.55-4.26-1.1-6.4-1.66c-1.54-1.29-3.08-2.58-4.62-3.88c-1.23-1.25-2.46-2.5-3.69-3.74c-1.87-3.37-3.74-6.75-5.61-10.12
		c-0.64-0.92-1.28-1.85-1.93-2.77c-0.58-5.2-1.17-10.4-1.75-15.61c1.83-3.15,3.66-6.31,5.49-9.46c2.48-1.24,4.96-2.47,7.44-3.71
		c1.26-0.79,2.52-1.58,3.78-2.37c-4.05-7.28-8.11-14.55-12.16-21.83c-0.95-2.41-1.76-4.89-2.93-7.19c-0.35-0.68-1.7-0.85-2.6-1.26
		c0.4-1.92,0.3-4.16,1.28-5.7c9.69-15.12,19.4-30.22,29.45-45.09c3.48-5.16,7.7-9.87,11.97-14.43c5.22-5.56,10.79-10.79,16.31-16.05
		c7.24-6.91,14.49-13.8,21.9-20.52c2.87-2.6,6.19-4.69,9.31-7.02c4.04-2.45,8.09-4.9,12.13-7.35c0.61-0.32,1.22-0.64,1.83-0.96
		c0.61-1.56,1.23-3.12,1.84-4.68c-1.21-2.84-1.82-6.24-3.78-8.41c-2.97-3.27-6.87-5.7-10.39-8.46
		c-14.1-11.07-28.25-22.09-42.3-33.23c-5.78-4.58-11.35-9.42-17.01-14.15c-0.37-0.57-0.75-1.14-1.12-1.71
		c-1.47-1.95-2.95-3.91-4.42-5.86c1.86-8,3.73-15.99,5.59-23.99l-0.02,0.03c2.43-3.46,4.85-6.93,7.28-10.39
		c1-1.49,2.01-2.98,3.01-4.47c1.77-1.2,2.22-2.18,0.08-3.71c-2.97-2.11-5.67-4.61-8.48-6.94c-2.85-4.06-5.7-8.11-8.54-12.17
		c-0.08-1.33,0.23-2.86-0.31-3.96c-2.6-5.3-1.92-10.58-0.4-15.93c2.27-3.1,4.29-6.42,6.87-9.22c2.34-2.54,5.29-4.51,7.96-6.73
		c7.38-2.33,14.56-2.48,21.31,2.01c3.36,3.09,6.72,6.19,10.08,9.28c2.45,5.42,4.9,10.83,7.42,16.43c1.7-0.61,3.27-1.18,4.84-1.75
		c1.54-0.63,3.08-1.25,4.62-1.88c2.35-0.62,4.69-1.31,7.06-1.85c7.01-1.61,13.99-3.38,21.06-4.65c2.99-0.54,6.18-0.01,9.27,0.03
		c0.87,1.27,1.73,2.54,2.6,3.81c0.62,1.25,1.23,2.5,1.85,3.75c7.46,12.68,14.92,25.35,22.94,38.98c1.13-2.56,1.79-4.05,2.45-5.54
		c0.33-0.6,0.65-1.2,0.98-1.8c0.59-0.92,1.17-1.84,1.76-2.76c4.21-4.45,9.63-6.49,15.44-7.7c5.41-1.13,10.91-1.91,16.23-3.34
		c5.71-1.53,11.16-4.19,16.92-5.33c4.65-0.92,9.61-0.32,14.43-0.39c-0.26,0.6-0.52,1.19-0.78,1.79c-1.04,0.3-2.06,0.73-3.13,0.88
		c-4.59,0.65-9.19,1.23-13.79,1.83c-2.75,0.95-5.51,1.9-8.26,2.85c0.32,0.92,0.64,1.85,0.95,2.77c4.31,0.8,8.05,6.04,13.03,1.7
		c3.1-0.55,6.21-1.09,9.31-1.64c1.85-0.04,3.7-0.08,5.54-0.12c1.86,0.07,3.72,0.13,5.58,0.2c0.6,0.87,1.2,1.75,1.81,2.62
		c-3.73,0.29-7.46,0.58-11.19,0.87c-1.24,0.33-2.49,0.65-3.73,0.98c-0.94,0.3-1.87,0.6-2.81,0.9c-1.11,0.37-2.22,0.75-3.55,1.2
		c2.39,2.84,4.46,5.3,6.53,7.76c1.68,1.99,3.51,2.39,5.54,0.48c0.61-0.03,1.22-0.07,1.83-0.1c0.93-0.02,1.86-0.03,2.79-0.05
		c1.55,0.02,3.11,0.04,4.66,0.07c1.87,0.03,3.74,0.06,5.62,0.09c0.62,0.61,1.24,1.21,1.86,1.82c-2.79,0.33-5.58,0.66-8.38,0.99
		c-2.52,0.25-5.04,0.51-7.56,0.76c-0.8,0.83-2.42,1.86-2.28,2.46c1.03,4.19,2.42,8.3,3.7,12.43c0.63,0.46,1.25,0.93,1.88,1.39
		c1.67-2.38,3.34-4.76,5-7.14c1-0.81,2-1.63,3-2.44c1.21-0.98,2.42-1.95,3.63-2.93c1.55-1.25,3.1-2.49,4.65-3.74
		c1.24-0.94,2.48-1.87,3.72-2.81c20.9-16.32,44.19-28.73,67.68-40.73c4.33-2.21,9.68-3.75,14.08,0.89
		c9.31,9.86,18.62,19.72,28.14,29.81c1.27-2.06,2.08-3.37,2.88-4.68c3.41-3.65,6.83-7.29,10.24-10.94
		C624.27,179.81,626.1,178.47,627.92,177.14z M302.09,506.65c0.98-1.33,1.96-2.66,2.15-2.92c-8.86-9.94-17.43-19.18-25.52-28.84
		c-2.95-3.52-5.47-4.53-9.25-1.9c-0.76,0.53-1.6,0.93-2.4,1.39c-5.91,3.4-8.39,17.08-4.4,24.23c6.13,10.96,19,17.02,31.14,13.92
		C296.87,511.75,299.35,508.67,302.09,506.65z M306.96,187.59c4.86-3.73,9.82-7.35,14.52-11.28c1.11-0.93,1.91-2.93,1.88-4.42
		c-0.14-5.64-3.31-9.97-6.42-14.49c-7.46-10.81-17.71-10.29-25.88-2.6c-1.57,2.02-4,3.82-4.55,6.08
		c-3.13,12.72,3.92,26.4,16.34,32.04C304.18,191.19,305.57,189.39,306.96,187.59z M550.77,497.36c-2.1,0.34-4.38,0.29-6.28,1.09
		c-11.12,4.68-22.24,9.23-34.31,11c-1.71,0.25-3.79,1.6-4.69,3.06c-2.14,3.47-0.66,10.39,2.38,13.58c2.19,4.07,5.9,5.71,10.2,6.36
		c9.79,1.47,18.4-1.38,26.65-6.61c7.77-4.93,9.79-12.5,10.11-20.64C554.94,502.64,552.21,499.97,550.77,497.36z M654.65,198.59
		c0.35-1.34,0.81-2.66,1.02-4.02c1.67-11.2-2.45-16.72-14.12-14.57c-0.45,0.08-0.92,0.2-1.32,0.41c-6.45,3.25-13.16,6.08-19.25,9.9
		c-5.9,3.7-6.03,13.44-1.09,18.2c2.2,2.12,3.99,4.65,5.96,7c0.54,0.92,1.16,1.8,1.62,2.76c2,4.27,5.05,4.98,8.92,2.6
		c3.92-2.41,7.93-4.7,11.61-7.44C652.86,209.79,655.23,204.79,654.65,198.59z M381.15,272.92c12.43-9,25.3-17.07,41.95-18.85
		c-1.52-2.44-2.66-4.18-3.71-5.98c-3.41-5.83-7.27-11.46-10.09-17.57c-8.7-18.85-17.67-37.52-29.95-54.37
		c-9.04-12.4-10.42-12.63-26.55-7.65c-12.73,3.92-24.71,9.36-35.8,16.76c-4.65,4.65-10.33,8.66-13.73,14.1
		c-6.29,10.05-11.36,20.88-16.64,31.54c-0.76,1.54-0.47,4.34,0.47,5.82c1.6,2.51,4.15,4.4,6.23,6.61c2.92,3.1,5.45,6.65,8.7,9.33
		c13.44,11.08,27.05,21.95,40.69,32.78c3.19,2.53,6.54,5.04,10.22,6.68c2.7,1.21,6.12,0.67,9.08,1.46c3.09,0.83,4.79,0.01,6.3-2.78
		C371.85,284.34,374.76,277.37,381.15,272.92z M590.66,185.56c-2.4-4.58-7.74-5.34-11.02-8.37c-3.69-3.42-6.76-3.45-10.74-1.96
		c-3.18,1.2-6.58,1.99-9.53,3.6c-12.42,6.81-25.63,12.17-37.01,20.94c-4.33,3.34-9.96,4.96-14.48,8.09
		c-15.45,10.71-29.45,23.13-42.06,37.08c-3.46,3.83-6.59,7.95-9.92,11.99c5.2,2.62,9.92,4.6,14.23,7.26
		c11.12,6.86,19.79,16.24,26.76,27.24c3.88,8.5,7.75,17,11.7,25.67c1.27-0.67,2-0.94,2.61-1.39c5.61-4.12,10.84-8.92,16.86-12.29
		c13.64-7.62,27.47-14.96,41.59-21.63c17.7-8.37,36.17-14.09,55.96-15.71c7.48-0.61,13.77-6.86,8.7-15.38
		c-9.32-15.64-18.39-31.45-28.23-46.75C601.79,197.27,595.85,191.66,590.66,185.56z M298.45,485.31
		c8.27,9.99,19.26,15.85,31.12,20.31c3.94,1.48,8.77-0.42,9.86-3.18c2.47-6.27,4.67-12.72,7.9-18.59
		c4.78-8.7,10.08-17.14,15.67-25.35c5.21-7.64,10.97-14.92,16.7-22.18c8.67-10.98,16.69-22.6,29.96-28.99
		c4.6-2.21,8.55-5.75,13.52-9.17c-4.9-1.77-8.95-2.83-12.64-4.65c-12.33-6.06-23.22-14.05-31.95-24.79
		c-1.52-2.13-3.01-4.29-4.56-6.4c-8.18-11.12-14.05-23.21-15.19-37.7c-1.83,0.6-3.38,0.69-4.31,1.48
		c-9.71,8.29-19.48,16.51-28.89,25.14c-4.21,3.87-7.7,8.54-11.39,12.96c-6.95,8.31-14.21,16.41-20.59,25.15
		c-4.36,5.98-7.44,12.91-11.1,19.4c-1.37,2.44-2.76,4.87-3.85,6.79c-1.71,1.2-3.59,1.91-4.48,3.27c-2.4,3.64-4.18,7.69-6.59,11.33
		c-1.92,2.89-1.86,5.49-0.95,8.73C272.04,457.97,286.33,470.88,298.45,485.31z M454.89,394.95c-5.79,1.38-11.58,2.76-17.7,4.22
		c0.43,1.37,0.64,2.58,1.16,3.63c3.91,7.88,8.31,15.55,11.73,23.64c5.03,11.9,9.98,23.91,13.82,36.22
		c3.89,12.48,6.37,25.39,9.51,38.11c1.22,4.96,5.36,8.72,9.24,8.13c4.42-0.68,8.78-1.73,13.16-2.61c0.46,0.05,0.94,0.21,1.38,0.13
		c28.38-5.3,52.18-19.44,73.72-38.03c4.66-4.03,5.11-9.01,2.76-13.93c-3.56-7.45-8.02-14.46-11.88-21.77
		c-4.37-8.29-7.68-17.25-12.87-24.95c-12.06-17.89-24.92-35.25-37.63-52.69c-1.32-1.81-3.8-2.76-6.06-4.33
		c-1.1,1.92-1.88,3.22-2.6,4.56c-4.66,8.64-9.49,17.52-17.1,23.61C476.5,386.08,467.13,393.49,454.89,394.95z M469.77,380.95
		c8.45-2.97,13.74-9.72,19.42-16.07c10.84-12.12,12.25-26.87,12.1-42.1c-0.01-1.04-0.39-2.14-0.83-3.11
		c-9.12-20.4-23.44-36.61-41.24-49.72c-4.45-3.27-10.08-5.39-15.49-6.78c-4.56-1.17-9.58-0.44-14.4-0.69
		c-6.13-0.32-11.92,0.62-17.48,3.4c-4.39,2.19-8.3,5.44-13.46,6.08c-1.41,0.17-2.7,1.43-4.01,2.24c-3.8,2.35-7.58,4.72-11.37,7.08
		c-2.6,2.83-5.67,5.36-7.68,8.57c-2.71,4.33-5.94,9-6.53,13.82c-1.1,8.99-0.48,18.2-0.49,27.32c0,1.35,0.48,2.71,0.83,4.04
		c2.9,11,7.9,20.66,15.05,29.8c9.72,12.45,22.59,19.82,36.52,25.06c12.96,4.88,26.5,2.26,39.23-2.86
		C463.47,385.62,466.51,383.01,469.77,380.95z M452.49,198.79c0.14-0.55,0.28-1.1,0.42-1.64c-2.25,0.34-5.12-0.07-6.64,1.17
		c-6.55,5.34-12.97,10.9-18.86,16.94c-2.1,2.15-4.27,6.73-3.31,8.7c1.11,2.27,5.61,2.92,8.68,4.17c0.68,0.28,1.55,0.21,2.31,0.12
		c2.82-0.33,5.63-0.78,8.46-1.08c3.78-0.4,7.58-0.74,11.37-1.01c0.88-0.06,1.78,0.29,3.6,0.63c-1.51,1.12-1.97,1.5-2.47,1.82
		c-11.17,7.39-22.58,4.3-33.86,0.53c-5.96-1.99-6.33-3.75-2.88-9.2c6.25-9.89,13.43-18.94,23.4-25.43c0.4-0.26,0.58-0.86,0.87-1.3
		c-0.22-0.35-0.44-0.7-0.66-1.04c-2.46,1.13-4.91,2.27-7.5,3.46c-0.52-1.4-0.95-2.59-1.41-3.83c-2.39,0.38-4.58,0.5-6.64,1.1
		c-7.29,2.13-12.76,7.06-15.41,13.77c-3.99,10.08,1.84,26.62,11.03,33.12c4.38,3.1,9.22,5.71,14.15,7.86
		c7.21,3.15,7.32,2.88,12.66-2.89c0.74-0.79,1.47-1.61,2.3-2.29c6.99-5.75,13.99-11.47,21.44-17.57c-0.53-1.51-1.29-3.68-2.07-5.84
		c-0.76-2.12-1.54-4.23-2.43-6.66c-2.29,1.19-4.16,2.16-6.19,3.22c-0.72-1.18-1.36-2.22-2.11-3.44c2.19-1.17,4.27-2.29,6.46-3.47
		c-7.24-8.26-7.24-8.26-15.94-3.29C451.79,202.66,452.14,200.73,452.49,198.79z"/>
	<path class="st10" d="M322.76,140.11c12.45-7.11,24.46-15.2,37.45-21.13c30.44-13.88,62.77-20.08,96.16-18.74
		c65.32,2.63,119.82,28.67,163.3,77.58c0.3,0.34,0.49,0.78,0.73,1.17c-3.94,4.86-6.68,5.25-10.94,1.11
		c-4.31-4.19-8.2-8.83-12.57-12.94c-7.35-6.91-15.84-10.59-25.72-5.96c-11.69,5.47-23.36,11.06-34.57,17.44
		c-10.72,6.1-20.85,13.25-31.21,19.99c-2.74,1.78-5.19,2.76-7.56-0.62c-3.07-4.37-6.37-8.57-9.48-12.91
		c-4.47-6.22-10.22-9.88-18.12-8.87c-5.16,0.66-10.31,1.54-15.39,2.66c-4.75,1.05-9.4,2.51-14.08,3.86
		c-7.52,2.17-15.13,4.11-22.51,6.7c-5.24,1.84-6.89,1.51-9.69-3.32c-4.34-7.47-8.79-14.88-13.43-22.17
		c-2.75-4.33-6.81-7.35-11.96-8.02c-9.95-1.28-19.46,1.75-28.88,4.17c-8.66,2.22-10.31,2.15-15.31-5.13
		c-0.26-0.38-0.55-0.76-0.9-1.06C332.99,149.3,327.87,144.71,322.76,140.11z"/>
	<path class="st10" d="M249.01,431.19c-11.21-21.62-18.36-44.53-22.15-68.56c-4.55-28.82-3.54-57.45,2.97-85.84
		c7.66-33.39,21.69-63.79,43.47-90.43c3.85,6.11,7.67,12.23,11.55,18.32c1.65,2.6,1.53,4.94,0.25,7.82
		c-2.99,6.76-6.25,13.55-8,20.67c-2.25,9.14-2.35,18.58,4.69,26.2c5.12,5.54,10.33,11.11,16.17,15.85
		c13.88,11.25,28.18,21.99,42.24,33.01c2.29,1.8,4.62,3.77,6.21,6.14c0.78,1.16,0.54,3.89-0.35,5.09c-1.51,2.05-3.71,3.76-5.94,5.08
		c-15.81,9.33-27.27,23.59-40.07,36.17c-10.25,10.07-18.95,21.87-27.38,33.59C264.17,406.16,256.85,418.86,249.01,431.19z"/>
	<path class="st11" d="M322.76,140.11c5.11,4.6,10.23,9.2,15.34,13.81c0.34,0.31,0.63,0.68,0.9,1.06c4.99,7.29,6.65,7.36,15.31,5.13
		c9.42-2.42,18.92-5.45,28.88-4.17c5.15,0.66,9.2,3.69,11.96,8.02c4.64,7.29,9.09,14.7,13.43,22.17c2.8,4.83,4.45,5.16,9.69,3.32
		c7.38-2.59,14.98-4.53,22.51-6.7c4.68-1.35,9.33-2.81,14.08-3.86c5.08-1.12,10.23-2.01,15.39-2.66c7.9-1.01,13.65,2.65,18.12,8.87
		c3.11,4.34,6.41,8.54,9.48,12.91c2.37,3.37,4.81,2.4,7.56,0.62c10.36-6.74,20.49-13.89,31.21-19.99
		c11.21-6.38,22.88-11.97,34.57-17.44c9.88-4.62,18.37-0.95,25.72,5.96c4.38,4.11,8.26,8.75,12.57,12.94
		c4.26,4.14,7,3.75,10.94-1.11c0.68,0.72,1.36,1.43,2.05,2.15c-3.41,3.65-6.83,7.3-10.24,10.94c-2.37-2.19-4.86-4.28-7.1-6.6
		c-4.62-4.78-8.76-10.07-13.78-14.36c-2.64-2.26-6.72-2.84-10.14-4.17c-4.41-4.64-9.75-3.1-14.08-0.89
		c-23.49,12-46.77,24.41-67.68,40.73c-2.42-2.18-6.48-4.05-6.96-6.6c-1.73-9.13-9.42-13.04-14.84-18.92
		c-0.57-0.62-2.22-0.25-3.38-0.35c-4.82,0.07-9.78-0.53-14.43,0.39c-5.77,1.14-11.21,3.8-16.92,5.33
		c-5.33,1.43-10.82,2.22-16.23,3.34c-5.81,1.21-11.23,3.24-15.44,7.7c-1.97-2.89-4.03-5.73-5.9-8.69
		c-4.64-7.36-9.05-14.87-13.84-22.13c-3.25-4.92-8.19-6.82-12.82-5.62c-3.1-0.04-6.28-0.57-9.27-0.03
		c-7.07,1.28-14.05,3.04-21.06,4.65c-2.37,0.55-4.71,1.23-7.06,1.85c-6.61-9.41-12.5-19.54-24.05-24c1.19-1,2.39-2.01,3.58-3.01
		C321.45,140.52,322.1,140.31,322.76,140.11z"/>
	<path class="st12" d="M249.01,431.19c7.84-12.33,15.15-25.03,23.66-36.87c8.42-11.73,17.13-23.53,27.38-33.59
		c12.8-12.58,24.26-26.84,40.07-36.17c2.23-1.32,4.43-3.03,5.94-5.08c0.89-1.2,1.13-3.93,0.35-5.09c-1.59-2.37-3.92-4.34-6.21-6.14
		c-14.06-11.03-28.36-21.76-42.24-33.01c-5.84-4.73-11.04-10.31-16.17-15.85c-7.04-7.62-6.94-17.06-4.69-26.2
		c1.75-7.12,5.01-13.91,8-20.67c1.27-2.88,1.4-5.23-0.25-7.82c-3.88-6.09-7.7-12.21-11.55-18.32c0.39-0.58,0.78-1.17,1.18-1.75
		c2.15,3.88,4.2,7.81,6.48,11.61c1.97,3.28,4.36,6.3,6.26,9.61c1.49,2.59,2.25,5.33-0.4,7.96c-0.78,0.77-0.88,2.23-1.28,3.38
		c0,0,0.02-0.03,0.02-0.03c-2.18,5.55-4.67,11-6.42,16.69c-1.1,3.56-1.72,7.51-1.42,11.2c0.77,9.67,6.94,16.05,14.15,21.82
		c15.17,12.14,30.16,24.51,45.21,36.79c3.59,2.93,7.32,5.7,10.69,8.86c4.92,4.61,4.74,4.97-0.79,9.4c-1.43,1.14-2.53,2.68-3.79,4.04
		c-3.12,2.32-6.44,4.42-9.31,7.02c-7.41,6.72-14.67,13.61-21.9,20.52c-5.52,5.27-11.09,10.5-16.31,16.05
		c-4.27,4.55-8.49,9.27-11.97,14.43c-10.05,14.88-19.77,29.98-29.45,45.09c-0.99,1.54-0.88,3.78-1.28,5.7
		c0.02,1.24,0.05,2.49,0.07,3.73c-0.61-0.72-1.23-1.44-1.84-2.16C250.46,434.6,249.74,432.9,249.01,431.19z"/>
	<path class="st13" d="M285.53,217.17c0.41-1.14,0.5-2.61,1.28-3.38c2.65-2.62,1.89-5.37,0.4-7.96c-1.9-3.31-4.29-6.33-6.26-9.61
		c-2.28-3.8-4.33-7.74-6.48-11.61c0.31-0.61,0.62-1.23,0.92-1.84c0.81-0.7,1.61-1.4,2.42-2.1c1.18,2.62,2.11,5.38,3.57,7.83
		c3.68,6.17,7.6,12.19,11.42,18.28C290.38,210.24,287.96,213.7,285.53,217.17z"/>
	<path class="st14" d="M251.18,436.31c0.61,0.72,1.23,1.44,1.84,2.16c0.58,1.28,1.16,2.57,1.74,3.85
		c2.24,5.15,4.37,10.35,6.77,15.43c1.57,3.31,3.54,6.43,5.33,9.64c-2.48,1.24-4.96,2.47-7.44,3.71c3.25-6.07-0.27-10.62-2.87-15.83
		C253.64,449.42,249.32,443.64,251.18,436.31z"/>
	<path class="st15" d="M320.8,140.72c-1.19,1-2.39,2.01-3.59,3.01c-0.97,0.64-1.94,1.28-2.91,1.92c-6.74-4.49-13.92-4.34-21.31-2.01
		c-0.15-0.02-0.4-0.01-0.44-0.08c-0.11-0.26-0.28-0.76-0.2-0.81c7.25-4.33,14.9-6.14,23.22-3.54
		C317.3,139.75,319.05,140.22,320.8,140.72z"/>
	<path class="st16" d="M277.82,180.67c-0.81,0.7-1.61,1.4-2.42,2.1c-3.73-6.55-2.2-19.41,2.76-23.17c-1.52,5.35-2.2,10.63,0.4,15.93
		c0.54,1.1,0.23,2.63,0.31,3.96C278.52,179.89,278.17,180.28,277.82,180.67z"/>
	<path class="st10" d="M662.16,250.66c3.03,10.89,6.59,21.66,8.97,32.69c5.15,23.8,5.56,47.86,2.67,72.02
		c-4.45,37.29-17.46,71.35-38.81,102.15c-16.02,23.1-35.45,42.89-59.12,58.3c-2.32-5.74-0.61-12.29,3.57-15.94
		c4.5-3.93,8.91-8.03,12.88-12.48c6.29-7.06,7.58-15.93,5.13-24.44c-5.67-19.68-15.04-37.92-25.04-55.68
		c-6.57-11.66-14.28-22.77-22.32-33.49c-5.97-7.97-13.05-15.16-20.07-22.26c-6.34-6.41-5.63-14.58,2.42-19.23
		c13.38-7.71,26.86-15.25,40.22-22.98c9.35-5.41,18.41-11.44,29.1-14.03c11.82-2.86,23.54-6.61,35.54-8.15
		c15.73-2.02,23.99-10.03,24.08-26C661.41,257.65,661.89,254.15,662.16,250.66z"/>
	<path class="st10" d="M506.9,547.37c-25.48,6.98-51.4,8.91-77.66,6.53c-26.74-2.43-52.23-9.44-76.43-21.09
		c-1.38-0.67-2.68-1.51-4.01-2.27c4.87-2.04,7.46-5.95,9.33-10.7c3.22-8.19,5.83-16.79,10.27-24.28
		c8.17-13.76,17.14-27.1,26.45-40.13c8.01-11.21,18.03-20.6,29.72-28.08c5.98-3.82,8.13-3.55,12,2.62c2.7,4.29,5.26,8.76,7.17,13.44
		c3.26,7.96,6.59,15.98,8.77,24.28c3.71,14.11,6.47,28.47,9.78,42.7c1.78,7.66,4.08,15.36,12.86,17.66
		c4.08,1.07,8.6,0.94,12.87,0.63c4.68-0.34,7.47,1.54,9.79,5.37C500.59,538.63,503.85,542.94,506.9,547.37z"/>
	<path class="st13" d="M662.16,250.66c-0.27,3.5-0.75,6.99-0.77,10.49c-0.09,15.97-8.34,23.98-24.08,26
		c-12,1.54-23.72,5.29-35.54,8.15c-10.7,2.58-19.75,8.61-29.1,14.03c-13.37,7.73-26.85,15.27-40.22,22.98
		c-8.05,4.64-8.76,12.82-2.42,19.23c7.03,7.1,14.1,14.3,20.07,22.26c8.04,10.73,15.75,21.83,22.32,33.49
		c10.01,17.76,19.37,35.99,25.04,55.68c2.45,8.51,1.16,17.38-5.13,24.44c-3.97,4.45-8.38,8.56-12.88,12.48
		c-4.18,3.64-5.89,10.2-3.57,15.94c-0.62,0.61-1.25,1.22-1.87,1.83c-0.94,0.45-1.89,0.9-2.83,1.35c0.05-1.35-0.06-2.73,0.17-4.05
		c0.84-4.79,1-9.92,2.97-14.2c1.4-3.05,5.53-4.75,8.02-7.44c3.95-4.28,8.37-8.46,11.08-13.49c2.79-5.18,2.7-11.51,0.41-17.1
		c-5.67-13.81-10.97-27.85-17.83-41.06c-7.29-14.05-15.64-27.64-24.61-40.69c-6.14-8.93-13.75-16.95-21.35-24.76
		c-11.2-11.51-10.96-18.54,1.92-27.72c0.63-0.45,1.33-0.78,2-1.16c14.08-7.96,28.12-15.99,42.25-23.86
		c6.19-3.45,12.24-7.72,18.92-9.59c15.25-4.27,30.82-7.43,46.32-10.76c7.01-1.5,13.06-4.66,14.96-11.59
		c2.59-9.47,2.62-19.2-2.66-28.19c-2.16-3.69-2.56-7.29,1.1-10.41c0.91,1.58,1.83,3.17,2.74,4.75
		C659.11,242.01,660.63,246.33,662.16,250.66z"/>
	<path class="st17" d="M506.9,547.37c-3.05-4.43-6.31-8.74-9.09-13.33c-2.32-3.83-5.11-5.71-9.79-5.37
		c-4.27,0.31-8.79,0.43-12.87-0.63c-8.78-2.29-11.08-10-12.86-17.66c-3.3-14.22-6.07-28.58-9.78-42.7
		c-2.18-8.29-5.51-16.32-8.77-24.28c-1.92-4.68-4.48-9.14-7.17-13.44c-3.87-6.17-6.02-6.44-12-2.62
		c-11.7,7.48-21.71,16.87-29.72,28.08c-9.31,13.03-18.28,26.37-26.45,40.13c-4.45,7.49-7.05,16.1-10.27,24.28
		c-1.87,4.75-4.46,8.66-9.33,10.7c-0.51-0.03-1.03-0.06-1.54-0.1c-0.73-0.58-1.46-1.17-2.19-1.75c3.17-2.94,7.79-5.3,9.25-8.93
		c5.45-13.51,10.51-27.14,18.63-39.37c0.8-0.71,1.78-1.3,2.38-2.16c6.67-9.46,12.82-19.33,20.02-28.37
		c8.7-10.92,19.15-20.16,31.19-27.43c3.59-2.17,6.18-1.73,9.19,1.67c5.78,6.52,9.69,13.93,12.36,22.06
		c4.22,12.86,8.64,25.69,12.21,38.73c2.76,10.08,4.21,20.51,6.51,30.72c1.11,4.92,4.5,8.35,9.43,9.19
		c5.13,0.88,10.46,0.53,15.62,1.29c2.52,0.37,5.65,1.4,7.1,3.24c4.26,5.38,7.82,11.32,11.66,17.04c-0.62,0.31-1.25,0.62-1.87,0.93
		C508.13,547.33,507.51,547.35,506.9,547.37z"/>
	<path class="st18" d="M508.74,547.31c0.62-0.31,1.25-0.62,1.87-0.93c0.6,0,1.19,0.01,1.79,0.01c1.06,0.62,2.05,1.43,3.18,1.84
		c15.27,5.53,29.47,3.55,42.15-6.69c6.72-5.43,11.79-12.12,12.39-21.26c0.05-0.24,0.11-0.48,0.18-0.72
		c0.29-0.19,0.57-0.38,0.86-0.57c0.94-0.45,1.89-0.9,2.83-1.35c-0.2,17.3-17.9,34.24-35.25,36.21
		C528.04,555.08,517.54,555,508.74,547.31z"/>
	<path class="st19" d="M292.94,531.59c-0.89-0.35-1.77-0.7-2.66-1.05c-0.02-0.24,0-0.48,0.05-0.71c0.46-0.34,0.9-0.95,1.38-0.99
		c7.17-0.6,13.66-2.88,19.81-6.73c4.02-2.51,8.56-2.38,13.22-0.49c4.51,1.83,9.37,2.81,14.08,4.16c0.25,0,0.5-0.01,0.75-0.04
		c0.61,0.33,1.22,0.66,1.83,0.98c0.91,0.68,1.81,1.35,2.72,2.03c-7.6-1.64-15.17-3.5-22.83-4.81c-2.45-0.42-5.58-0.1-7.67,1.13
		C307.17,528.9,300.4,531.22,292.94,531.59z"/>
	<path class="st20" d="M344.12,528.76c-0.91-0.68-1.81-1.35-2.72-2.03c5.21-1.16,9.96-2.73,12.03-8.56
		c2.73-7.68,5.29-15.51,8.95-22.75c3.8-7.51,8.84-14.38,13.34-21.54c-0.93,2.17-1.86,4.34-2.79,6.52
		c-8.12,12.23-13.18,25.86-18.63,39.37c-1.46,3.63-6.08,5.99-9.25,8.93C344.75,528.72,344.43,528.74,344.12,528.76z"/>
	<path class="st21" d="M255.68,496.16c0.64,0.92,1.28,1.85,1.93,2.77c-0.35,1.06-1.19,2.24-0.97,3.17
		c2.3,9.62,7.51,17.6,15.35,23.41c4.91,3.64,10.85,5.64,17.3,4.22c0.35,0.04,0.7,0.08,1.05,0.11c-0.05,0.23-0.07,0.47-0.05,0.71
		c-0.99,0.65-2,1.88-2.98,1.85c-13.21-0.35-26.36-10.4-30.49-23.07c-1.09-3.34-2.38-6.62-3.24-10.02c-0.38-1.5,0.11-3.23,0.21-4.85
		C254.41,495.03,255.05,495.59,255.68,496.16z"/>
	<path class="st22" d="M675.09,204.21c-2.14,12.63-9.99,21.1-20.27,27.79c-0.31-0.31-0.62-0.62-0.93-0.93
		c0.01-0.33,0.02-0.66,0.03-0.98c1.33-1.41,2.51-3,4.01-4.18c8.61-6.76,14.66-14.88,14.46-26.43c0.36,0.29,0.73,0.58,1.09,0.87
		c0.58,1,1.15,2.01,1.73,3.01C675.17,203.64,675.13,203.93,675.09,204.21z"/>
	<path class="st21" d="M675.2,203.36c-0.58-1-1.15-2.01-1.73-3.01c0.25-1.8,1.03-3.7,0.67-5.37c-1.9-8.85-7.53-15.25-14.41-20.67
		c-0.52-0.41-1.98,0.38-3,0.61c-0.95-0.25-1.91-0.5-2.86-0.75c-0.31-0.59-0.63-1.17-0.94-1.76c0.11-0.31,0.22-0.62,0.33-0.94
		c4.6-1.41,8.16,0.62,11.2,3.68c6.54,6.58,12.22,13.68,11.73,23.73C676.12,200.39,675.54,201.87,675.2,203.36z"/>
	<path class="st23" d="M653.89,231.07c0.31,0.31,0.62,0.62,0.93,0.93c0.02,0.31,0.03,0.62,0.02,0.93c-3.66,3.12-3.27,6.72-1.1,10.41
		c5.28,8.99,5.26,18.72,2.66,28.19c-1.9,6.93-7.95,10.08-14.96,11.59c-15.5,3.33-31.07,6.49-46.32,10.76
		c-6.68,1.87-12.73,6.14-18.92,9.59c-14.13,7.87-28.17,15.9-42.25,23.86c-0.67,0.38-1.38,0.72-2,1.16
		c-12.88,9.18-13.12,16.21-1.92,27.72c7.59,7.81,15.21,15.83,21.35,24.76c8.96,13.05,17.31,26.64,24.61,40.69
		c6.86,13.21,12.17,27.25,17.83,41.06c2.29,5.59,2.38,11.92-0.41,17.1c-2.71,5.03-7.12,9.2-11.08,13.49
		c-2.49,2.69-6.61,4.38-8.02,7.44c-1.97,4.29-2.13,9.42-2.97,14.2c-0.23,1.32-0.12,2.7-0.17,4.05c-0.29,0.19-0.57,0.38-0.86,0.57
		c-0.35-2.97-1.3-6.03-0.89-8.9c0.56-3.97,1.43-8.24,3.5-11.55c1.94-3.1,5.98-4.81,8.43-7.69c3.71-4.35,6.85-9.19,10.22-13.83
		c2.1-4.76,1.91-9.69,0.22-14.36c-3.46-9.54-7.04-19.05-11.13-28.33c-2.31-5.25-5.71-10.01-8.61-14.99
		c-0.36-1.33-0.43-2.83-1.12-3.96c-6.54-10.8-12.47-22.07-19.99-32.14c-8.1-10.85-17.61-20.66-26.73-30.71
		c-5.92-6.52-5.96-17.16,1.06-22.19c8.88-6.37,18.12-12.31,27.55-17.83c10.23-5.99,20.86-11.29,31.31-16.9
		c7.17-2.34,14.24-5.07,21.53-6.92c10.59-2.69,21.26-5.21,32.03-6.92c11.1-1.76,17.95-7.19,18.94-16.94
		c0.74-7.37-0.6-14.42-3.82-21.13C650.62,239.71,649.72,235.16,653.89,231.07z"/>
	<path class="st24" d="M383.01,281.28c3.79-2.36,7.57-4.74,11.37-7.08c1.31-0.81,2.6-2.07,4.01-2.24c5.16-0.64,9.07-3.89,13.46-6.08
		c5.57-2.78,11.36-3.73,17.48-3.4c4.81,0.25,9.84-0.48,14.4,0.69c5.41,1.39,11.04,3.5,15.49,6.78
		c17.8,13.11,32.12,29.32,41.24,49.72c0.43,0.97,0.82,2.07,0.83,3.11c0.15,15.22-1.26,29.98-12.1,42.1
		c-5.68,6.35-10.96,13.1-19.42,16.07c-4.55,0.37-9.24,1.63-13.6,0.9c-6.35-1.05-12.61-3.12-18.64-5.46
		c-14.4-5.59-28.97-11.02-38.78-24.12c-7.58-10.11-14.8-20.58-15.62-33.53C382.33,306.3,382.99,293.77,383.01,281.28z"/>
	<path class="st25" d="M454.89,394.95c12.24-1.46,21.61-8.87,30.62-16.09c7.61-6.1,12.44-14.97,17.1-23.61
		c0.72-1.34,1.51-2.64,2.6-4.56c2.26,1.57,4.74,2.53,6.06,4.33c12.71,17.45,25.57,34.8,37.63,52.69c5.19,7.71,8.5,16.67,12.87,24.95
		c3.85,7.32,8.32,14.33,11.88,21.77c2.35,4.92,1.9,9.9-2.76,13.93c-21.54,18.59-45.34,32.74-73.72,38.03
		c-0.44,0.08-0.92-0.08-1.38-0.13c-0.63-4.73-1.5-9.45-1.84-14.2c-1.06-14.92-1.48-29.89-2.98-44.76
		c-1.5-14.81-6.87-28.27-18.16-38.51C467.23,403.75,460.89,399.54,454.89,394.95z"/>
	<path class="st26" d="M378.58,368.72c8.73,10.74,19.62,18.73,31.95,24.79c3.69,1.81,7.74,2.87,12.64,4.65
		c-4.96,3.42-8.92,6.96-13.52,9.17c-13.27,6.39-21.28,18.01-29.96,28.99c-5.74,7.26-11.49,14.54-16.7,22.18
		c-5.59,8.2-10.89,16.65-15.67,25.35c-3.23,5.87-5.43,12.33-7.9,18.59c-1.09,2.77-5.92,4.67-9.86,3.18
		c-11.86-4.46-22.85-10.32-31.12-20.31c2.2-12.58,3.91-25.27,6.75-37.7c2.52-11.03,7.24-21.34,13.85-30.67
		c5.91-8.33,13.43-14.82,22.05-20.24c5.04-3.16,10.36-6.29,14.43-10.51C362.36,379.1,369.95,373.3,378.58,368.72z"/>
	<path class="st25" d="M496.89,291.43c-6.97-11-15.64-20.38-26.76-27.24c-4.31-2.66-9.03-4.64-14.23-7.26
		c3.33-4.05,6.46-8.17,9.92-11.99c12.61-13.95,26.61-26.37,42.06-37.08c4.53-3.14,10.15-4.76,14.48-8.09
		c11.37-8.76,24.59-14.13,37.01-20.94c2.95-1.62,6.35-2.4,9.53-3.6c3.98-1.5,7.05-1.46,10.74,1.96c3.28,3.04,8.62,3.8,11.02,8.37
		c-2.13,14.77-8,28.01-18.19,38.77c-7.05,7.45-15.47,13.6-23.2,20.42c-5.78,5.1-11.3,10.49-17.16,15.5
		c-7.02,6-14.41,11.58-21.37,17.65C505.88,282.14,501.49,286.9,496.89,291.43z"/>
	<path class="st26" d="M496.89,291.43c4.6-4.53,9-9.29,13.85-13.52c6.96-6.07,14.35-11.64,21.37-17.65
		c5.86-5.01,11.38-10.4,17.16-15.5c7.73-6.82,16.14-12.97,23.2-20.42c10.19-10.77,16.07-24,18.19-38.77
		c5.19,6.1,11.13,11.71,15.42,18.39c9.84,15.31,18.91,31.11,28.23,46.75c5.07,8.52-1.22,14.77-8.7,15.38
		c-19.78,1.62-38.26,7.34-55.96,15.71c-14.12,6.68-27.95,14.01-41.59,21.63c-6.03,3.37-11.25,8.16-16.86,12.29
		c-0.6,0.44-1.33,0.72-2.61,1.39C504.64,308.43,500.76,299.93,496.89,291.43z"/>
	<path class="st25" d="M317.01,185.26c11.08-7.4,23.07-12.83,35.8-16.76c16.13-4.97,17.52-4.74,26.55,7.65
		c12.28,16.85,21.25,35.52,29.95,54.37c2.82,6.11,6.68,11.74,10.09,17.57c1.05,1.8,2.19,3.54,3.71,5.98
		c-16.65,1.78-29.52,9.86-41.95,18.85c-1.01-0.84-2.11-1.6-3.03-2.53c-8.88-8.96-17.6-18.08-26.64-26.88
		c-7.4-7.21-15.65-13.6-22.66-21.16C319.26,212.03,317.5,198.74,317.01,185.26z"/>
	<path class="st25" d="M378.58,368.72c-8.62,4.59-16.22,10.38-23.05,17.47c-4.07,4.22-9.38,7.35-14.43,10.51
		c-8.62,5.41-16.14,11.91-22.05,20.24c-6.62,9.33-11.33,19.64-13.85,30.67c-2.84,12.43-4.55,25.12-6.75,37.7
		c-12.12-14.43-26.41-27.34-31.77-46.44c-0.91-3.24-0.97-5.84,0.95-8.73c2.41-3.64,4.19-7.69,6.59-11.33
		c0.9-1.36,2.78-2.07,4.48-3.27c1.09-1.92,2.47-4.35,3.85-6.79c3.66-6.5,6.74-13.42,11.1-19.4c6.37-8.74,13.63-16.84,20.59-25.15
		c3.69-4.41,7.18-9.09,11.39-12.96c9.4-8.63,19.18-16.85,28.89-25.14c0.93-0.8,2.48-0.88,4.31-1.48
		c1.14,14.49,7.02,26.58,15.19,37.7C375.57,364.43,377.06,366.58,378.58,368.72z"/>
	<path class="st26" d="M317.01,185.26c0.49,13.47,2.25,26.76,11.82,37.09c7,7.56,15.25,13.95,22.66,21.16
		c9.03,8.8,17.76,17.92,26.64,26.88c0.92,0.93,2.02,1.69,3.03,2.53c-6.39,4.45-9.3,11.42-12.82,17.9c-1.51,2.79-3.21,3.6-6.3,2.78
		c-2.95-0.79-6.38-0.26-9.08-1.46c-3.67-1.64-7.03-4.16-10.22-6.68c-13.64-10.83-27.25-21.7-40.69-32.78
		c-3.25-2.68-5.79-6.23-8.7-9.33c-2.08-2.21-4.63-4.1-6.23-6.61c-0.95-1.49-1.23-4.28-0.47-5.82c5.27-10.66,10.35-21.49,16.64-31.54
		C306.68,193.93,312.36,189.92,317.01,185.26z"/>
	<path class="st26" d="M454.89,394.95c6,4.59,12.35,8.81,17.93,13.86c11.3,10.24,16.67,23.7,18.16,38.51
		c1.5,14.87,1.92,29.84,2.98,44.76c0.34,4.75,1.21,9.47,1.84,14.2c-4.38,0.89-8.74,1.94-13.16,2.61c-3.88,0.59-8.01-3.16-9.24-8.13
		c-3.14-12.71-5.62-25.63-9.51-38.11c-3.84-12.32-8.79-24.32-13.82-36.22c-3.41-8.09-7.82-15.75-11.73-23.64
		c-0.52-1.05-0.73-2.26-1.16-3.63C443.3,397.71,449.1,396.33,454.89,394.95z"/>
	<path class="st27" d="M383.01,281.28c-0.02,12.49-0.67,25.02,0.12,37.46c0.82,12.95,8.05,23.42,15.62,33.53
		c9.82,13.1,24.38,18.53,38.78,24.12c6.03,2.34,12.29,4.42,18.64,5.46c4.36,0.72,9.05-0.53,13.6-0.9c-3.26,2.06-6.31,4.67-9.83,6.09
		c-12.73,5.13-26.27,7.74-39.23,2.86c-13.93-5.25-26.8-12.62-36.52-25.06c-7.14-9.14-12.14-18.8-15.05-29.8
		c-0.35-1.33-0.83-2.69-0.83-4.04c0-9.12-0.61-18.32,0.49-27.32c0.59-4.82,3.82-9.5,6.53-13.82
		C377.33,286.65,380.41,284.12,383.01,281.28z"/>
	<path class="st28" d="M452.49,198.79c-0.35,1.94-0.7,3.88-1.2,6.62c8.7-4.97,8.7-4.97,15.94,3.29c-2.18,1.17-4.27,2.29-6.46,3.47
		c0.75,1.22,1.38,2.26,2.11,3.44c2.03-1.05,3.9-2.03,6.19-3.22c0.89,2.43,1.67,4.55,2.43,6.66c0.78,2.16,1.53,4.33,2.07,5.84
		c-7.45,6.1-14.46,11.82-21.44,17.57c-0.83,0.69-1.57,1.5-2.3,2.29c-5.35,5.77-5.46,6.03-12.66,2.89
		c-4.93-2.15-9.77-4.76-14.15-7.86c-9.18-6.5-15.01-23.04-11.03-33.12c2.65-6.71,8.12-11.64,15.41-13.77
		c2.05-0.6,4.25-0.72,6.64-1.1c0.45,1.23,0.89,2.42,1.41,3.83c2.58-1.19,5.04-2.33,7.5-3.46c0.22,0.35,0.44,0.7,0.66,1.04
		c-0.28,0.44-0.46,1.04-0.87,1.3c-9.97,6.48-17.15,15.53-23.4,25.43c-3.45,5.45-3.08,7.21,2.88,9.2
		c11.28,3.77,22.69,6.86,33.86-0.53c0.49-0.33,0.96-0.7,2.47-1.82c-1.82-0.33-2.73-0.69-3.6-0.63c-3.8,0.27-7.59,0.61-11.37,1.01
		c-2.83,0.3-5.63,0.76-8.46,1.08c-0.76,0.09-1.63,0.15-2.31-0.12c-3.07-1.25-7.57-1.9-8.68-4.17c-0.96-1.96,1.22-6.54,3.31-8.7
		c5.89-6.04,12.31-11.61,18.86-16.94c1.52-1.24,4.39-0.82,6.64-1.17C452.77,197.69,452.63,198.24,452.49,198.79z M431.82,196.45
		c-6.08-1.02-10.88,4.26-9.04,9.83C425.9,202.89,428.6,199.95,431.82,196.45z M448.86,205.85c-5.74,1.12-7.97,3.64-8.23,8.98
		C445.26,213.65,447.47,210.61,448.86,205.85z"/>
	<path class="st28" d="M625.85,215.51c-1.97-2.35-3.77-4.88-5.96-7c-4.95-4.77-4.81-14.51,1.09-18.2c6.09-3.82,12.8-6.65,19.25-9.9
		c0.41-0.21,0.87-0.33,1.32-0.41c11.66-2.15,15.79,3.37,14.12,14.57c-0.2,1.36-0.67,2.68-1.02,4.02c-1.41,1.97-2.51,4.28-4.27,5.86
		C643.42,210.71,634.94,213.83,625.85,215.51z"/>
	<path class="st29" d="M550.77,497.36c1.44,2.61,4.17,5.28,4.07,7.83c-0.32,8.14-2.35,15.71-10.11,20.64
		c-8.25,5.24-16.86,8.08-26.65,6.61c-4.3-0.65-8.01-2.3-10.2-6.36C522.17,516.5,536.47,506.93,550.77,497.36z"/>
	<path class="st28" d="M291.05,154.81c8.18-7.69,18.43-8.2,25.88,2.6c3.12,4.52,6.28,8.84,6.42,14.49c0.04,1.49-0.76,3.49-1.88,4.42
		c-4.7,3.93-9.65,7.55-14.52,11.28c-1.1-1.24-2.6-2.29-3.25-3.73C299.39,174.22,295.25,164.5,291.05,154.81z"/>
	<path class="st29" d="M302.09,506.65c-2.74,2.02-5.22,5.1-8.28,5.88c-12.14,3.1-25.01-2.96-31.14-13.92
		c-4-7.15-1.52-20.83,4.39-24.23c0.53,0.94,1.05,1.9,1.61,2.83C276.7,490.56,286.89,501.45,302.09,506.65z"/>
	<path class="st30" d="M437.14,414.34c0.95,1.56,1.9,3.13,2.85,4.69c-8.36-5.62-11.52-5.54-19.89,0.51
		c-2.74,1.99-5.56,3.89-8.17,6.04c-12.02,9.91-24.12,19.68-32.26,33.44c-5.87,9.92-12.6,19.33-18.64,29.16
		c-2.64,4.29-4.5,9.06-6.71,13.61c0.89-3.5,1.78-7,2.67-10.5c-0.47-0.34-0.94-0.69-1.4-1.03c-1.67,1.83-3.38,3.62-4.98,5.51
		c-1.66,1.95-3.2,4-4.8,6.01c1.28-3.1,2.57-6.19,3.85-9.29c3.7-5.23,8.12-10.1,10.95-15.77c5.16-10.3,11.93-19.27,19.19-28.1
		c4.58-5.58,7.89-12.21,11.77-18.37c2.74-2.61,5.48-5.22,8.23-7.83c0.04,0.72,0.07,1.44,0.11,2.15c-0.31,0.31-0.62,0.62-0.93,0.93
		c-2.48,3.25-5.06,6.43-7.35,9.8c-0.54,0.79-0.13,2.23-0.15,3.38c1.12-0.15,2.57,0.1,3.3-0.52c3.38-2.85,6.55-5.94,9.8-8.94
		c1.27-1.11,2.45-2.38,3.84-3.32C417.15,420.01,424.32,410.14,437.14,414.34z"/>
	<path class="st31" d="M566.49,291.55c1.81-1.26,3.62-2.52,5.43-3.79c6.05-1.99,12.12-3.93,18.12-6.04
		c0.68-0.24,1.03-1.45,1.53-2.21c7.69-1.91,15.38-3.83,23.07-5.74c2.17,0.55,4.33,1.11,7.96,2.04c-2.34,1.51-3.47,2.63-4.82,3.04
		c-7.01,2.18-14.02,4.38-21.13,6.2c-9.73,2.5-18.28,6.99-25.55,13.93c-1.66,1.1-3.26,2.3-4.98,3.29
		c-13.41,7.72-27.06,15.05-40.17,23.26c-6.36,3.98-11.16,9.84-9.77,18.49c0.47,2.92,0.65,5.88,0.97,8.83
		c-0.33-0.24-0.65-0.48-0.98-0.72c-2-6.56-2.7-13.11,0.03-19.66c0.01-0.61,0.02-1.22,0.02-1.84c0.93-0.48,1.95-0.85,2.78-1.47
		c5.25-3.92,10.42-7.95,15.71-11.81c1.98-1.44,4.23-2.5,6.36-3.73c6.87-3.98,13.73-7.97,20.6-11.94c3.99-2.3,8.07-4.47,11.95-6.95
		c0.95-0.61,1.27-2.21,1.89-3.35c-1.2-0.25-2.42-0.75-3.61-0.69C570.1,290.78,568.3,291.25,566.49,291.55z"/>
	<path class="st32" d="M566.49,291.55c1.81-0.31,3.61-0.77,5.43-0.86c1.19-0.06,2.4,0.44,3.61,0.69c-0.61,1.14-0.93,2.74-1.89,3.35
		c-3.88,2.48-7.96,4.64-11.95,6.95c-6.87,3.97-13.74,7.96-20.6,11.94c-2.13,1.23-4.38,2.29-6.36,3.73
		c-5.3,3.86-10.46,7.89-15.71,11.81c-0.83,0.62-1.85,0.99-2.78,1.47c1.14-1.59,2.18-3.27,3.44-4.75c2.67-3.12,1.66-5.13-1.77-6.54
		C533.19,308.49,549.51,299.45,566.49,291.55z"/>
	<path class="st33" d="M517.15,352.85c-0.32-2.94-0.5-5.91-0.97-8.83c-1.39-8.64,3.41-14.5,9.77-18.49
		c13.1-8.21,26.76-15.54,40.17-23.26c1.72-0.99,3.33-2.19,4.98-3.29c1.39-0.62,2.79-1.21,4.17-1.86c7.32-3.45,14.35-7.85,22-10.19
		c13.9-4.25,27.55-9.85,42.58-9.52c5.64,0.13,10.18-4.26,11.25-9.14c0.01-4.96,0.01-9.92,0.02-14.88c0.3-0.93,0.61-1.86,0.91-2.79
		c2.67,5.4,2.37,11.03,1.1,16.66c-1.41,6.25-5.76,9.99-11.93,11.21c-12.2,2.42-24.47,4.66-36.49,7.78
		c-7.37,1.91-14.36,5.33-21.52,8.07c-4.77,2.85-9.5,5.74-14.3,8.53c-13.84,8.04-27.84,15.8-41.51,24.12
		c-12.49,7.6-11.56,22.21-2.83,29.31c3.7,3.01,6.99,6.57,10.18,10.15c2.73,3.06,5.04,6.49,7.53,9.76c-0.62,0-1.25,0-1.87,0
		c-4.63-4.95-9.25-9.9-13.88-14.84C523.39,358.52,520.27,355.68,517.15,352.85z"/>
	<path class="st34" d="M302.09,506.65c-15.2-5.2-25.39-16.09-33.41-29.44c-0.56-0.93-1.08-1.88-1.61-2.83
		c0.81-0.46,1.65-0.87,2.41-1.4c3.78-2.63,6.3-1.62,9.25,1.9c8.08,9.65,16.66,18.9,25.52,28.84
		C304.05,503.99,303.07,505.32,302.09,506.65z"/>
	<path class="st35" d="M354.33,501.8c2.21-4.55,4.07-9.32,6.71-13.61c6.04-9.83,12.77-19.24,18.64-29.16
		c8.14-13.76,20.24-23.53,32.26-33.44c2.61-2.15,5.43-4.06,8.17-6.04c8.37-6.05,11.53-6.13,19.89-0.51c1.55,2.45,3.1,4.9,4.65,7.35
		c-1.88-1.22-3.77-2.44-5.65-3.66c-4.89-6.14-7.94-7.01-13.02-3.71c-5.04,3.76-10.39,7.17-15.05,11.35
		c-6.13,5.5-11.72,11.61-17.54,17.45c-3.72,4.66-7.44,9.31-11.16,13.97c-1.12,0.94-2.47,1.71-3.31,2.85
		c-2.19,2.95-4.3,5.98-6.17,9.13c-4.23,7.15-8.65,14.23-12.33,21.66c-3.4,6.86-5.95,14.15-8.87,21.26c0-1.24,0-2.49-0.01-3.73
		C352.46,509.23,353.4,505.51,354.33,501.8z"/>
	<path class="st36" d="M550.77,497.36c-14.3,9.57-28.6,19.14-42.9,28.72c-3.04-3.18-4.52-10.1-2.38-13.57
		c0.9-1.46,2.98-2.81,4.69-3.06c12.07-1.77,23.19-6.32,34.31-11C546.4,497.65,548.67,497.7,550.77,497.36z"/>
	<path class="st13" d="M343.17,325.93c1.25-1.36,2.36-2.9,3.79-4.04c5.54-4.43,5.71-4.79,0.79-9.4c-3.37-3.16-7.1-5.93-10.69-8.86
		c-15.06-12.28-30.04-24.66-45.21-36.79c-7.21-5.77-13.38-12.15-14.15-21.82c-0.29-3.69,0.33-7.64,1.42-11.2
		c1.75-5.68,4.24-11.14,6.42-16.69c-1.86,7.99-3.73,15.99-5.59,23.99c0.11,5.5,0.8,10.83,4.9,14.99c3.55,3.61,6.95,7.43,10.84,10.66
		c13.76,11.42,27.7,22.61,41.56,33.9c6.6,5.38,14.56,9.39,18.04,17.91C351.26,321.03,347.22,323.48,343.17,325.93z"/>
	<path class="st37" d="M291.05,154.81c4.2,9.69,8.34,19.41,12.66,29.05c0.65,1.44,2.15,2.5,3.25,3.73c-1.39,1.8-2.78,3.6-4.12,5.33
		c-12.42-5.64-19.48-19.31-16.34-32.04C287.05,158.62,289.48,156.82,291.05,154.81z"/>
	<path class="st38" d="M526.52,361.36c4.63,4.95,9.25,9.9,13.88,14.84c6.72,9.95,13.93,19.61,20.03,29.92
		c6,10.15,10.89,20.96,16.26,31.48c0.27,3.75,0.54,7.5,0.8,11.25c-3.85-8.42-7.41-16.97-11.59-25.22
		c-9.45-18.62-19.66-36.79-33.23-52.83c-2-2.36-4.06-4.67-5.95-7.12C526.32,363.16,526.57,362.14,526.52,361.36z"/>
	<path class="st39" d="M355.3,318.58c-3.48-8.52-11.44-12.53-18.04-17.91c-13.86-11.29-27.8-22.48-41.56-33.9
		c-3.89-3.22-7.29-7.04-10.84-10.66c-4.1-4.17-4.79-9.5-4.9-14.99c1.47,1.95,2.95,3.91,4.42,5.86c1.53,3.14,2.39,6.92,4.69,9.32
		c13.62,14.18,28.8,26.56,44.72,38.11c7.35,5.33,14.08,11.53,20.85,17.6c1.39,1.25,1.69,3.7,2.5,5.6
		C356.52,317.94,355.91,318.26,355.3,318.58z"/>
	<path class="st40" d="M285.5,248.7c5.66,4.72,11.24,9.57,17.01,14.15c14.05,11.14,28.2,22.16,42.3,33.23
		c3.52,2.76,7.42,5.19,10.39,8.46c1.96,2.16,2.57,5.56,3.78,8.41c-1.7-1.76-3.22-3.73-5.12-5.24
		c-15.06-11.98-30.47-23.53-45.17-35.92C300.37,264.77,293.19,256.43,285.5,248.7z"/>
	<path class="st41" d="M277.92,518.33c4.74-0.02,9.61,0.62,14.19-0.26c3.88-0.75,7.41-3.25,11.1-4.97c1.74,2.77,3.76,4.39,7.49,3.65
		c3.85-0.77,7.88-0.69,11.83-0.99c1.26,0.66,2.52,1.32,3.78,1.98c0.65,0.58,1.3,1.17,1.96,1.75c-8.77-3.48-16.72-1.3-24.71,2.92
		c-5.62,2.97-11.86,4.11-18.31,2.85c-0.49-0.15-0.99-0.3-1.48-0.45c-0.63-0.55-1.27-1.11-1.9-1.66
		C280.56,521.53,279.24,519.93,277.92,518.33z"/>
	<path class="st42" d="M577.49,448.85c-0.27-3.75-0.54-7.5-0.8-11.25c1.24,2.17,2.48,4.35,3.71,6.52c0.85,2.94,1.48,5.97,2.61,8.8
		c3.28,8.24,8.01,16.16,4.83,25.61c-4.97,5.17-10.05,10.24-14.87,15.55c-2.42,2.66-4.36,5.75-6.52,8.64
		c-0.99,2.21-1.85,4.5-3.01,6.62c-0.94,1.71-2.02,3.82-4.51,1.67c0.06-2.44,0.12-4.88,0.18-7.33c0.45,0.94,0.89,1.89,1.67,3.52
		c3.74-9.59,11.74-14.91,18.34-21.55c3.06-3.07,5.49-7.07,7.24-11.06c1.9-4.34,0.33-7.6-3.34-9.82
		C581.18,459.46,579.33,454.15,577.49,448.85z"/>
	<path class="st43" d="M651.11,268.28c-1.07,4.88-5.61,9.27-11.25,9.14c-15.04-0.33-28.69,5.27-42.58,9.52
		c-7.66,2.34-14.69,6.73-22,10.19c-1.38,0.65-2.78,1.24-4.17,1.86c7.26-6.94,15.81-11.44,25.55-13.93
		c7.11-1.82,14.12-4.02,21.13-6.2c1.35-0.42,2.48-1.53,4.82-3.04c-3.63-0.93-5.79-1.48-7.96-2.04c6.25-0.98,12.5-1.97,18.75-2.95
		c-1.44,3.24-0.58,4.62,3.15,4.99C643.18,276.46,647.57,273.32,651.11,268.28z"/>
	<path class="st44" d="M398.98,425.51c0.31-0.31,0.62-0.62,0.93-0.93c4.61-3.27,9.37-6.36,13.78-9.88c1.96-1.57,3.2-4.02,4.77-6.07
		c0.67-0.5,1.33-1,2-1.51c1.17,1.67,2.11,4.51,3.55,4.79c3.7,0.71,7.61,0.29,11.44,0.33c0.56,0.7,1.12,1.4,1.69,2.1
		c-12.82-4.2-19.99,5.67-28.73,11.58c-1.39,0.94-2.56,2.2-3.84,3.32c-1.15,0.68-2.23,1.51-3.45,1.99c-1.39,0.54-2.9,0.76-4.35,1.12
		c0.28-1.35,0.46-2.73,0.87-4.04C397.93,427.33,398.52,426.44,398.98,425.51z"/>
	<path class="st45" d="M285.5,248.7c7.69,7.74,14.88,16.08,23.19,23.08c14.71,12.39,30.12,23.94,45.17,35.92
		c1.9,1.51,3.42,3.48,5.12,5.24c-0.61,1.56-1.23,3.12-1.84,4.68c-0.8-1.9-1.11-4.35-2.5-5.6c-6.77-6.07-13.51-12.27-20.85-17.6
		c-15.92-11.55-31.1-23.94-44.72-38.11c-2.3-2.4-3.16-6.18-4.69-9.32C284.75,247.56,285.12,248.13,285.5,248.7z"/>
	<path class="st37" d="M625.85,215.51c9.09-1.67,17.57-4.79,24.53-11.06c1.76-1.58,2.86-3.89,4.27-5.86
		c0.58,6.2-1.79,11.2-6.66,14.83c-3.67,2.74-7.69,5.03-11.61,7.44c-3.88,2.38-6.92,1.67-8.92-2.6
		C627.01,217.3,626.39,216.42,625.85,215.51z"/>
	<path class="st46" d="M536.2,537.11c2-0.79,4-1.59,6-2.39c4.64-2.09,9.28-4.19,13.92-6.28c-0.52,2.02-0.42,4.63-1.67,5.97
		c-6.55,6.95-18.93,13.68-30.11,8.21C528.3,540.78,532.25,538.94,536.2,537.11z"/>
	<path class="st47" d="M500.22,519.49c2.21,4.34,4.42,8.69,6.63,13.03c0.5,1.55,0.55,3.55,1.58,4.56c2.69,2.65,5.8,4.87,8.74,7.26
		c-1.25,0.35-2.51,0.7-3.76,1.05c-5.24-5-10.09-10.16-12.64-17.25c-1.05-2.92-4.01-4.37-7.6-4.1c-3.99,0.3-8.04-0.12-12.04,0.12
		c-5.36,0.33-9.31-2.41-11.23-6.65c-2.36-5.22-3.3-11.08-4.85-16.66c0.31,0,0.62,0,0.93,0c1.55,4.36,3.1,8.71,4.66,13.07
		c3.14,7.05,8.99,8.6,14.28,8.15c4.32-0.36,8.71,0.09,13.06,0.01c0.49-0.01,0.96-1.13,1.43-1.74
		C499.68,520.07,499.95,519.78,500.22,519.49z"/>
	<path class="st45" d="M391.58,430.25c-3.88,6.16-7.18,12.79-11.77,18.37c-7.26,8.83-14.04,17.8-19.19,28.1
		c-2.83,5.66-7.25,10.54-10.95,15.77c5.07-9.16,9.54-18.71,15.35-27.38c7.71-11.51,16.45-22.34,24.77-33.44
		C390.24,431.09,390.98,430.72,391.58,430.25z"/>
	<path class="st48" d="M581.18,166.95c3.43,1.34,7.5,1.92,10.14,4.17c5.02,4.29,9.17,9.59,13.78,14.36c2.24,2.32,4.72,4.4,7.1,6.6
		c-0.8,1.31-1.61,2.62-2.88,4.68C599.8,186.67,590.49,176.81,581.18,166.95z"/>
	<path class="st49" d="M378.65,161.26c4.64-1.2,9.57,0.7,12.82,5.62c4.79,7.26,9.2,14.77,13.84,22.13c1.87,2.96,3.92,5.79,5.9,8.69
		c-0.58,0.92-1.17,1.84-1.76,2.76c-1.37-1.58-2.99-2.99-4.05-4.75c-5.04-8.35-9.68-16.96-14.99-25.13
		c-1.93-2.97-4.63-6.17-9.17-5.51C380.38,163.8,379.51,162.53,378.65,161.26z"/>
	<path class="st50" d="M556.12,528.44c-4.64,2.09-9.28,4.18-13.92,6.28c1-0.91,1.9-1.98,3.02-2.72c7.6-5.03,11.7-12.32,13.7-20.99
		c2.49,2.15,3.58,0.04,4.51-1.67c1.16-2.12,2.02-4.4,3.01-6.62c-0.77,4.96-1.65,9.9-2.26,14.87c-0.22,1.82,0.22,3.73,0.37,5.6
		c-0.63,0.54-1.26,1.08-1.89,1.62C560.49,526.02,558.3,527.23,556.12,528.44z"/>
	<path class="st51" d="M651.11,268.28c-3.54,5.05-7.93,8.18-14.57,7.53c-3.73-0.37-4.59-1.75-3.15-4.99
		c1.88-0.53,3.76-1.06,5.64-1.59c-0.01,0.3-0.01,0.6-0.01,0.9c-0.41,0.6-0.83,1.2-1.24,1.8c1.16,0.61,2.38,1.83,3.48,1.73
		c3.61-0.33,7.1-2.14,7.5-5.79c0.61-5.67,0.99-11.67-0.21-17.16c-1.48-6.79-6.06-12.67-6.22-20.15c-0.04-1.7-3.99-3.32-6.14-4.97
		c-0.36-0.09-0.71-0.17-1.07-0.26c1.61-0.26,3.23-0.52,4.84-0.79c4.21,0.46,6.23,2.53,5.62,7.01c-0.71,5.17,0.52,9.93,3.16,14.49
		c1.26,2.18,1.63,4.88,2.41,7.35C651.12,258.36,651.12,263.32,651.11,268.28z"/>
	<path class="st52" d="M314.3,145.65c0.97-0.64,1.94-1.28,2.91-1.92c11.55,4.46,17.44,14.59,24.05,24
		c-1.54,0.63-3.08,1.25-4.62,1.88c-3.34-4.72-6.64-9.47-10.07-14.12c-0.34-0.47-1.45-0.38-2.19-0.55
		C321.02,151.84,317.66,148.75,314.3,145.65z"/>
	<path class="st53" d="M326.32,517.72c-1.26-0.66-2.52-1.32-3.78-1.98c-1.23-0.91-2.46-1.82-3.68-2.72
		c-1.56-1.69-3.13-3.38-4.69-5.07c7.15,2.71,14.27,5.47,21.46,8.08c1.54,0.56,3.27,0.56,4.87,0.81c0.95-3.05,1.81-5.79,2.67-8.53
		c3.27-0.02,4.86,1.69,4.62,4.87c-0.28,3.66-1.91,6.98-5.82,7.03c-3.85,0.05-7.71-1.31-11.57-2
		C329.04,517.97,327.67,517.88,326.32,517.72z"/>
	<path class="st54" d="M583.02,464.77c3.67,2.22,5.23,5.48,3.34,9.82c-1.75,4-4.18,7.99-7.24,11.06
		c-6.61,6.64-14.61,11.96-18.34,21.55c-0.77-1.64-1.22-2.58-1.67-3.52c-0.04-0.63-0.08-1.25-0.13-1.88c0.32,0,0.64-0.01,0.95-0.01
		c5.21-5.36,10.47-10.68,15.62-16.11c2.21-2.34,4.4-4.75,6.19-7.41c1.44-2.14,1.98-4.64-1.16-6.18
		C581.39,469.65,582.21,467.21,583.02,464.77z"/>
	<path class="st55" d="M500.22,519.49c-0.27,0.29-0.54,0.58-0.82,0.87c-3.41-1.73-6.29-3.1-10.72-1.25
		c-6.51,2.71-13.14,1.81-17.2-5.33c0.66-0.24,1.32-0.49,1.97-0.73c1,1.14,1.89,2.4,3.02,3.38c4.05,3.5,8.22,2.22,10.1-3.18
		c-1.07-0.14-2.11-0.28-3.14-0.42c5.92-0.52,11.85-1.05,18.52-1.63C501.31,514.25,500.77,516.87,500.22,519.49z"/>
	<path class="st56" d="M408.47,202.26c-0.66,1.49-1.31,2.97-2.45,5.54c-8.02-13.63-15.48-26.3-22.94-38.98
		c3.96-1.31,5.04,2.36,6.29,4.35c4.48,7.12,8.24,14.69,12.62,21.87C403.66,197.75,406.29,199.87,408.47,202.26z"/>
	<path class="st57" d="M580.58,472.09c3.14,1.54,2.59,4.04,1.16,6.18c-1.79,2.66-3.97,5.08-6.19,7.41
		c-5.14,5.43-10.4,10.75-15.62,16.11c1.46-2.55,2.83-5.15,4.4-7.63c1.47-2.31,3.33-4.47,1.1-7.3
		C570.49,481.94,575.53,477.01,580.58,472.09z"/>
	<path class="st58" d="M648.18,218.94c2.5-2.23,5-4.45,7.5-6.68c0.15,0.44,0.37,0.86,0.44,1.31c0.25,1.58,0.45,3.17,0.67,4.76
		c1.63-0.6,3.47-0.91,4.87-1.85c6.14-4.17,8.67-14.06,6.21-23.54c0.26,0,0.52,0,0.78-0.01c0.59,0.67,1.17,1.33,1.76,2
		c0.33,0.89,0.65,1.77,0.98,2.66c-0.21,0.41-0.6,0.81-0.6,1.22c-0.18,13.25-8.08,21.28-18.58,27.56
		C650.85,223.9,649.51,221.42,648.18,218.94z"/>
	<path class="st59" d="M474.24,180.93c1.15,0.09,2.8-0.28,3.38,0.35c5.42,5.87,13.11,9.79,14.84,18.92c0.48,2.55,4.55,4.42,6.96,6.6
		c-1.24,0.94-2.48,1.87-3.72,2.81c-1.22-0.59-2.43-1.18-3.65-1.77c-0.62-0.61-1.24-1.21-1.86-1.82c-0.63-2.47-0.96-5.08-1.98-7.38
		c-0.79-1.8-2.44-3.22-3.7-4.81c-0.6-0.87-1.2-1.75-1.81-2.63c-3.08-2.83-6.16-5.65-9.24-8.47
		C473.72,182.12,473.98,181.52,474.24,180.93z"/>
	<path class="st60" d="M636.18,225.59c2.15,1.66,6.11,3.27,6.14,4.97c0.16,7.48,4.73,13.36,6.22,20.15
		c1.2,5.49,0.82,11.49,0.21,17.16c-0.4,3.66-3.89,5.46-7.5,5.79c-1.1,0.1-2.32-1.11-3.48-1.73c0.41-0.6,0.83-1.2,1.24-1.8
		c3.17-0.25,7.75,1.27,8.24-3.45c0.59-5.62-0.21-11.38-0.4-17.08c-0.5,0.1-0.99,0.21-1.49,0.31c-1.53-3.47-3.07-6.94-4.6-10.4
		c0.21-1.23,0.93-2.69,0.52-3.65C639.79,232.35,637.92,229,636.18,225.59z"/>
	<path class="st61" d="M658.56,208.73c3.36-6.75,5.09-13.79,3.81-21.37c0.9,0.92,1.8,1.85,2.71,2.77c0.59,1.59,1.17,3.17,1.76,4.76
		c1.84,4.96,1.15,9.74-1.46,14.17C662.66,213.67,661.26,213.52,658.56,208.73z"/>
	<path class="st62" d="M289.28,529.72c-6.45,1.42-12.39-0.58-17.3-4.22c-7.84-5.81-13.05-13.79-15.35-23.41
		c-0.22-0.93,0.62-2.1,0.97-3.17c1.87,3.37,3.74,6.74,5.61,10.12c-0.15,1.02-0.82,2.5-0.38,2.98c3.71,4.13,7.63,8.08,11.48,12.08
		c0,0,0,0,0,0c3.44,3.49,7.41,4.69,12.1,2.8C287.37,527.86,288.33,528.79,289.28,529.72z"/>
	<path class="st63" d="M408.47,202.26c-2.18-2.39-4.81-4.51-6.47-7.22c-4.39-7.18-8.15-14.75-12.62-21.87
		c-1.25-1.99-2.34-5.66-6.29-4.35c-0.62-1.25-1.23-2.5-1.85-3.75c4.54-0.66,7.24,2.53,9.17,5.51c5.31,8.18,9.95,16.78,14.99,25.13
		c1.06,1.76,2.69,3.18,4.05,4.75C409.13,201.06,408.8,201.66,408.47,202.26z"/>
	<path class="st64" d="M648.18,218.94c1.34,2.48,2.68,4.96,4.02,7.44c-0.07,0.33-0.14,0.67-0.21,1c-4.89,4-5.98,8.1-3.69,13.85
		c1.25,3.13,2.5,6.25,3.75,9.38c-0.3,0.93-0.61,1.86-0.91,2.79c-0.77-2.47-1.14-5.17-2.41-7.35c-2.64-4.56-3.87-9.33-3.16-14.49
		c0.62-4.48-1.41-6.55-5.62-7.01C642.69,222.68,645.43,220.81,648.18,218.94z"/>
	<path class="st65" d="M326.32,517.72c1.35,0.16,2.72,0.25,4.06,0.49c3.86,0.69,7.73,2.05,11.57,2c3.91-0.05,5.54-3.37,5.82-7.03
		c0.24-3.18-1.35-4.89-4.62-4.87c0.3-0.94,0.6-1.87,0.9-2.81c1.26-0.77,2.5-1.59,3.8-2.3c0.74-0.4,1.58-0.63,2.38-0.93
		c0.23,0.92,0.76,1.89,0.63,2.76c-0.61,4.21-1.39,8.39-2.11,12.58c-2.78,4.02-6.12,6.61-11.41,4.83c-0.68-0.23-1.65,0.38-2.49,0.6
		c-2.19-1.19-4.38-2.38-6.57-3.57C327.62,518.89,326.97,518.31,326.32,517.72z"/>
	<path class="st66" d="M465.98,500.86c-0.31,0-0.62,0-0.93,0c-0.31-1.03-0.74-2.04-0.9-3.09c-2.57-16.79-6.04-33.32-13.11-48.91
		c-0.93-2.06-1.23-4.4-1.81-6.61c0.84,1.4,1.72,2.78,2.51,4.21c1.08,1.96,2.1,3.96,3.15,5.94c3.09,11.74,6.32,23.45,9.2,35.24
		C465.13,491.95,465.37,496.45,465.98,500.86z"/>
	<path class="st40" d="M348.75,517.61c0.72-4.19,1.5-8.37,2.11-12.58c0.13-0.87-0.41-1.84-0.63-2.76c-0.8,0.3-1.64,0.53-2.38,0.93
		c-1.3,0.71-2.54,1.53-3.8,2.3c0.59-1.24,1.18-2.48,1.77-3.72c1.59-2.01,3.14-4.06,4.8-6.01c1.6-1.89,3.32-3.68,4.98-5.51
		c0.47,0.34,0.94,0.69,1.4,1.03c-0.89,3.5-1.78,7-2.67,10.5c-0.93,3.72-1.87,7.44-2.8,11.16
		C350.6,514.5,349.67,516.06,348.75,517.61z"/>
	<path class="st67" d="M277.82,180.67c0.35-0.39,0.7-0.78,1.05-1.17c2.85,4.05,5.7,8.11,8.55,12.17c2.8,3.55,5.6,7.1,8.4,10.65
		c-1,1.49-2.01,2.98-3.01,4.47c-3.82-6.08-7.74-12.11-11.42-18.28C279.93,186.05,278.99,183.29,277.82,180.67z"/>
	<path class="st68" d="M517.9,319.34c3.43,1.41,4.43,3.42,1.77,6.54c-1.27,1.48-2.3,3.16-3.44,4.75c-0.01,0.61-0.02,1.23-0.02,1.84
		c-0.62,0.31-1.24,0.62-1.86,0.93c-0.78,0.91-1.41,2.05-2.36,2.7c-3,2.04-2.77,4.25-0.86,6.9c0.95,1.32,1.54,2.89,2.29,4.35
		c0,0.91,0,1.81,0,2.72c-4.42-3.13-6.82-7-5.13-12.69c0.55-1.85,0.43-3.9,0.61-5.86c4.28,1.1,6.41-0.47,8.4-5.85
		c1.13-3.07-0.74-3.81-3.02-4.4C515.49,320.63,516.7,319.99,517.9,319.34z"/>
	<path class="st69" d="M484.42,218.71c-1.67,2.38-3.34,4.76-5,7.14c-0.63-0.46-1.25-0.93-1.88-1.39c-1.28-4.13-2.67-8.24-3.7-12.43
		c-0.15-0.6,1.47-1.63,2.28-2.46c0.64,0.04,1.28,0.09,1.92,0.13C480.17,212.71,482.29,215.71,484.42,218.71z"/>
	<path class="st70" d="M658.56,208.73c2.7,4.79,4.11,4.94,6.82,0.32c2.61-4.43,3.3-9.21,1.46-14.17c-0.59-1.59-1.17-3.17-1.76-4.76
		c0.93,0.94,1.86,1.88,2.78,2.82c2.46,9.48-0.07,19.37-6.21,23.54c-1.4,0.95-3.23,1.25-4.87,1.85c-0.22-1.59-0.42-3.18-0.67-4.76
		c-0.07-0.45-0.29-0.88-0.44-1.31C656.63,211.09,657.59,209.91,658.56,208.73z"/>
	<path class="st71" d="M645.37,249.92c0.5-0.1,0.99-0.21,1.49-0.31c0.19,5.7,0.99,11.46,0.4,17.08c-0.49,4.72-5.07,3.2-8.24,3.45
		c0-0.3,0.01-0.6,0.01-0.9c5.95-0.42,4.21-5.85,5.41-9.02C645.62,257.11,645.13,253.38,645.37,249.92z"/>
	<path class="st72" d="M565.44,486.87c2.23,2.83,0.36,4.98-1.1,7.3c-1.57,2.48-2.94,5.08-4.4,7.63c-0.32,0-0.64,0.01-0.95,0.01
		C554.98,492.84,555.16,492.44,565.44,486.87z"/>
	<path class="st73" d="M477.12,190.99c-1.85,0.04-3.7,0.08-5.54,0.12c-4.38-0.94-8.72-2.16-13.15-2.75
		c-3.33-0.44-6.76-0.09-10.14-0.09c2.75-0.95,5.51-1.9,8.26-2.85c4.54,0.33,9.07,0.69,13.61,0.98
		C473.38,186.61,476.23,187.28,477.12,190.99z"/>
	<path class="st49" d="M477.12,190.99c-0.89-3.71-3.74-4.38-6.97-4.59c-4.54-0.29-9.08-0.65-13.61-0.98c4.6-0.6,9.2-1.18,13.79-1.83
		c1.06-0.15,2.09-0.58,3.13-0.88c3.08,2.82,6.16,5.65,9.24,8.47C480.84,191.12,478.98,191.05,477.12,190.99z"/>
	<path class="st74" d="M266.86,467.39c-1.79-3.21-3.76-6.33-5.33-9.64c-2.4-5.07-4.53-10.28-6.77-15.43
		c0.68,0.89,1.36,1.78,2.03,2.67c4.61,6.68,9.23,13.35,13.84,20.03C269.38,465.81,268.12,466.6,266.86,467.39z"/>
	<path class="st75" d="M324.38,154.93c0.75,0.17,1.85,0.08,2.19,0.55c3.43,4.66,6.73,9.4,10.07,14.12
		c-1.57,0.57-3.14,1.14-4.84,1.75C329.28,165.76,326.83,160.35,324.38,154.93z"/>
	<path class="st76" d="M536.2,537.11c-3.95,1.84-7.9,3.67-11.86,5.51c-1.48,0.3-2.97,0.59-4.45,0.89c-2.77-2.53-5.55-5.06-8.32-7.6
		C519.67,538.69,527.88,538.92,536.2,537.11z"/>
	<path class="st77" d="M514.28,321.28c2.28,0.59,4.15,1.34,3.02,4.4c-1.99,5.38-4.12,6.94-8.4,5.85
		C507.86,326.62,509.62,323.19,514.28,321.28z"/>
	<path class="st78" d="M318.85,513.02c1.23,0.91,2.46,1.82,3.68,2.72c-3.95,0.29-7.97,0.22-11.83,0.99
		c-3.73,0.74-5.76-0.88-7.49-3.65c1.51-1.34,3.02-2.68,4.53-4.01C310.08,514.24,314.79,512.72,318.85,513.02z"/>
	<path class="st35" d="M471.48,513.77c4.06,7.15,10.7,8.05,17.2,5.33c4.43-1.85,7.31-0.48,10.72,1.25
		c-0.48,0.61-0.95,1.73-1.43,1.74c-4.35,0.08-8.74-0.37-13.06-0.01c-5.29,0.45-11.14-1.1-14.28-8.15
		C470.91,513.85,471.19,513.8,471.48,513.77z"/>
	<path class="st79" d="M454.88,452.4c-1.05-1.98-2.06-3.98-3.15-5.94c-0.79-1.43-1.67-2.81-2.51-4.21v0
		c-0.44-1.57-0.59-3.3-1.37-4.67c-2.84-5.02-5.89-9.92-8.86-14.87c1.88,1.22,3.77,2.44,5.65,3.66c0.53,0.54,1.31,0.99,1.54,1.64
		C449.13,436.12,451.99,444.27,454.88,452.4z"/>
	<path class="st80" d="M484.51,193.81c1.27,1.59,2.91,3.02,3.7,4.81c1.02,2.3,1.35,4.9,1.98,7.38c-1.87-0.03-3.74-0.06-5.62-0.09
		c0-1.82-0.16-3.65,0.04-5.45c0.47-4.3-1.15-6.35-5.62-5.67c-1.89-0.04-3.78-0.08-5.67-0.12
		C477.05,194.39,480.78,194.1,484.51,193.81z"/>
	<path class="st81" d="M475.29,205.99c-2.03,1.91-3.86,1.51-5.54-0.48c-2.07-2.45-4.14-4.91-6.53-7.76c1.34-0.45,2.45-0.82,3.55-1.2
		C469.62,199.7,472.45,202.85,475.29,205.99z"/>
	<path class="st82" d="M448.28,188.27c3.39,0,6.82-0.35,10.14,0.09c4.43,0.59,8.77,1.8,13.15,2.75c-3.1,0.55-6.21,1.09-9.31,1.64
		c-0.45-0.75-0.91-2.16-1.36-2.16c-3.89,0.01-7.78,0.27-11.67,0.46C448.92,190.12,448.6,189.19,448.28,188.27z"/>
	<path class="st83" d="M473.32,194.68c1.89,0.04,3.78,0.08,5.67,0.12c0.31,3.68,0.61,7.37,0.92,11.05
		c-0.93,0.02-1.86,0.03-2.79,0.05c-1.08-4.46-1.13-9.69-7.54-10.23C470.83,195.33,472.07,195,473.32,194.68z"/>
	<path class="st40" d="M418.46,408.63c-1.57,2.05-2.82,4.5-4.77,6.07c-4.41,3.53-9.16,6.62-13.78,9.88
		c-0.04-0.72-0.07-1.44-0.11-2.15C406.03,417.82,412.24,413.22,418.46,408.63z"/>
	<path class="st84" d="M483.44,512.82c1.04,0.14,2.07,0.28,3.14,0.42c-1.88,5.4-6.05,6.68-10.1,3.18c-1.14-0.98-2.02-2.25-3.02-3.38
		C476.78,512.97,480.11,512.89,483.44,512.82z"/>
	<path class="st85" d="M479.91,205.84c-0.31-3.68-0.61-7.37-0.92-11.05c4.47-0.68,6.09,1.37,5.62,5.67c-0.2,1.8-0.04,3.63-0.04,5.45
		C483.02,205.89,481.46,205.87,479.91,205.84z"/>
	<path class="st86" d="M281.88,523.13c0.63,0.55,1.27,1.11,1.9,1.66c-3.15-0.23-6.31-0.45-9.46-0.68c0,0,0,0,0,0
		c-2.17-2.33-4.52-4.52-6.43-7.04c-0.81-1.06-0.68-2.83-0.98-4.28c1.54,1.29,3.08,2.58,4.62,3.88
		C273.25,521.2,277.79,524.03,281.88,523.13z"/>
	<path class="st87" d="M667.86,192.95c-0.93-0.94-1.86-1.88-2.78-2.82c-0.9-0.92-1.8-1.85-2.71-2.77c-2.22-3.23-4.48-6.43-6.66-9.7
		c-0.72-1.09-1.23-2.32-1.84-3.49c0.95,0.25,1.91,0.5,2.86,0.75c0.9,1.04,1.8,2.09,2.7,3.13c3.07,4.96,6.13,9.92,9.2,14.89
		C668.38,192.94,668.12,192.94,667.86,192.95z"/>
	<path class="st88" d="M511.57,535.91c2.77,2.53,5.55,5.06,8.32,7.6l0.1,0.29c-0.95,0.3-1.9,0.6-2.86,0.9l0.04-0.35
		c-2.94-2.39-6.06-4.61-8.74-7.26c-1.03-1.01-1.08-3.01-1.58-4.56C508.42,533.65,510,534.78,511.57,535.91z"/>
	<path class="st89" d="M318.85,513.02c-4.06-0.3-8.77,1.22-11.11-3.95c0.59-1.15,1.18-2.31,1.94-3.79c1.53,0.91,3,1.79,4.48,2.67
		C315.72,509.64,317.29,511.33,318.85,513.02z"/>
	<path class="st90" d="M270.64,465.02c-4.61-6.68-9.23-13.35-13.84-20.03c0.56-0.6,1.12-1.2,1.68-1.81
		C262.53,450.46,266.58,457.74,270.64,465.02z"/>
	<path class="st91" d="M636.18,225.59c1.73,3.41,3.61,6.76,5.11,10.27c0.41,0.97-0.32,2.42-0.52,3.65
		c-2.17-3.88-4.41-7.71-6.43-11.67c-0.29-0.56,0.49-1.66,0.77-2.51C635.47,225.42,635.82,225.51,636.18,225.59z"/>
	<path class="st92" d="M591.57,279.52c-0.5,0.76-0.84,1.97-1.53,2.21c-6.01,2.11-12.07,4.05-18.12,6.04
		C578.47,285.01,585.02,282.27,591.57,279.52z"/>
	<path class="st56" d="M469.59,195.66c6.4,0.55,6.45,5.77,7.54,10.23c-0.61,0.03-1.22,0.07-1.83,0.1c-2.84-3.14-5.68-6.29-8.51-9.43
		C467.71,196.26,468.65,195.96,469.59,195.66z"/>
	<path class="st93" d="M449.24,191.04c3.89-0.19,7.78-0.45,11.67-0.46c0.45,0,0.9,1.41,1.36,2.16
		C457.28,197.08,453.55,191.84,449.24,191.04z"/>
	<path class="st94" d="M478.04,209.7c-0.64-0.04-1.28-0.09-1.92-0.13c2.52-0.25,5.04-0.51,7.56-0.76c2.46,1.51,4.92,3.01,7.38,4.52
		c-1.21,0.98-2.42,1.95-3.63,2.93c-1.4-1.3-2.67-2.78-4.22-3.86C481.62,211.31,479.77,210.59,478.04,209.7z"/>
	<path class="st95" d="M281.88,523.13c-4.09,0.9-8.62-1.93-10.35-6.46c2.13,0.55,4.27,1.1,6.4,1.66
		C279.24,519.93,280.56,521.53,281.88,523.13z"/>
	<path class="st96" d="M478.04,209.7c1.73,0.89,3.58,1.6,5.16,2.7c1.55,1.08,2.83,2.56,4.22,3.86c-1,0.82-2,1.63-3,2.44
		C482.29,215.71,480.17,212.71,478.04,209.7z"/>
	<path class="st97" d="M423.98,404.82c1.38-0.86,2.76-1.71,4.54-2.81c1.8,2.69,3.45,5.17,5.11,7.65c0,0-0.32,0.02-0.32,0.02
		C430.19,408.06,427.09,406.44,423.98,404.82z"/>
	<path class="st98" d="M435.45,412.24c-3.83-0.03-7.74,0.39-11.44-0.33c-1.44-0.28-2.38-3.12-3.55-4.79
		c0.59-0.39,1.18-0.79,1.77-1.18c3.81,4.81,6.13,5.59,11.07,3.74c0,0,0.32-0.02,0.32-0.02
		C434.23,410.52,434.84,411.38,435.45,412.24z"/>
	<path class="st99" d="M491.05,213.34c-2.46-1.51-4.92-3.02-7.38-4.52c2.79-0.33,5.58-0.66,8.38-0.99c1.22,0.59,2.43,1.18,3.65,1.77
		C494.15,210.84,492.6,212.09,491.05,213.34z"/>
	<path class="st100" d="M266.91,512.79c0.3,1.45,0.17,3.22,0.98,4.28c1.91,2.53,4.26,4.72,6.43,7.04c-3.85-4-7.77-7.95-11.48-12.08
		c-0.44-0.49,0.23-1.96,0.38-2.98C264.45,510.3,265.68,511.55,266.91,512.79z"/>
	<path class="st32" d="M513.42,350.08c0-0.91,0-1.81,0-2.72c0.31-4.65,0.62-9.3,0.93-13.96c0.62-0.31,1.24-0.62,1.86-0.93
		c-2.73,6.55-2.03,13.1-0.03,19.66C515.25,351.45,514.33,350.76,513.42,350.08z"/>
	<path class="st101" d="M258.48,443.19c-0.56,0.6-1.12,1.2-1.68,1.81c-0.68-0.89-1.36-1.78-2.03-2.67
		c-0.58-1.28-1.16-2.57-1.74-3.85c-0.02-1.24-0.05-2.49-0.07-3.73c0.89,0.41,2.25,0.58,2.6,1.26
		C256.72,438.29,257.53,440.78,258.48,443.19z"/>
	<path class="st102" d="M295.82,202.31c-2.8-3.55-5.6-7.1-8.4-10.65c2.81,2.33,5.51,4.83,8.48,6.94
		C298.04,200.13,297.59,201.11,295.82,202.31z"/>
	<path class="st103" d="M433.3,409.68c-4.94,1.85-7.27,1.07-11.07-3.74c0.58-0.37,1.17-0.74,1.75-1.11
		C427.09,406.44,430.19,408.06,433.3,409.68z"/>
	<path class="st104" d="M449.22,442.25c0.59,2.21,0.88,4.55,1.81,6.61c7.06,15.59,10.54,32.13,13.11,48.91
		c0.16,1.05,0.59,2.06,0.9,3.09c1.55,5.58,2.5,11.44,4.85,16.66c1.92,4.25,5.87,6.98,11.23,6.65c4-0.24,8.05,0.18,12.04-0.12
		c3.6-0.27,6.55,1.18,7.6,4.1c2.56,7.09,7.41,12.26,12.64,17.25c-0.34,0.33-0.67,0.66-1.01,0.99c-0.6,0-1.19-0.01-1.79-0.01
		c-3.84-5.72-7.4-11.66-11.66-17.04c-1.46-1.84-4.59-2.87-7.1-3.24c-5.16-0.76-10.49-0.41-15.62-1.29
		c-4.93-0.84-8.33-4.27-9.43-9.19c-2.3-10.21-3.75-20.64-6.51-30.72c-3.57-13.05-7.99-25.87-12.21-38.73
		c-2.67-8.13-6.57-15.54-12.36-22.06c-3.01-3.4-5.61-3.84-9.19-1.67c-12.04,7.28-22.49,16.51-31.19,27.43
		c-7.2,9.04-13.35,18.9-20.02,28.37c-0.6,0.85-1.58,1.44-2.38,2.16c0.93-2.17,1.86-4.34,2.79-6.52c1.86-2.79,3.72-5.58,5.58-8.38
		c3.93-5.15,7.89-10.28,11.76-15.48c0.39-0.53,0.23-1.47,0.32-2.21c5.82-5.85,11.41-11.95,17.54-17.45
		c4.66-4.18,10.01-7.6,15.05-11.35c6.44-1.21,10.39,2.2,13.47,7.26C442.69,431.6,445.96,436.92,449.22,442.25L449.22,442.25z"/>
	<path class="st105" d="M512.4,546.4c0.34-0.33,0.67-0.66,1.01-0.99c1.25-0.35,2.51-0.7,3.76-1.05c0,0-0.04,0.35-0.04,0.35
		c7.6,6.33,16.46,4.31,24.63,2.63c7.77-1.6,14.37-6.63,19.26-12.93c2.6-3.35,3.66-7.89,5.42-11.89c0.33-0.37,0.66-0.75,0.99-1.12
		c0.9-0.36,1.79-0.73,2.69-1.09c-0.6,9.14-5.67,15.83-12.39,21.26c-12.68,10.23-26.88,12.22-42.15,6.69
		C514.45,547.83,513.46,547.02,512.4,546.4z"/>
	<path class="st49" d="M570.12,520.29c-0.9,0.36-1.79,0.73-2.69,1.09c-0.02-3.43,0.18-6.88-0.1-10.29
		c-0.58-7.06,3.02-11.91,7.71-16.58c5.43-5.41,10.41-11.26,15.59-16.91c0.31,0,0.63,0,0.94,0.01c-3.38,4.63-6.52,9.47-10.22,13.83
		c-2.46,2.88-6.49,4.59-8.43,7.69c-2.07,3.31-2.94,7.58-3.5,11.55c-0.41,2.87,0.55,5.92,0.89,8.9
		C570.24,519.81,570.18,520.05,570.12,520.29z"/>
	<path class="st106" d="M328.27,519.48c2.19,1.19,4.38,2.38,6.57,3.57c1.32,0.91,2.65,1.83,3.97,2.74
		c-4.71-1.35-9.57-2.32-14.08-4.16c-4.66-1.89-9.2-2.02-13.22,0.49c-6.15,3.85-12.64,6.13-19.81,6.73
		c-0.49,0.04-0.93,0.65-1.38,0.99c-0.35-0.04-0.7-0.08-1.04-0.12c-0.95-0.93-1.91-1.87-2.86-2.8c-0.39-0.56-0.77-1.12-1.16-1.68
		c6.45,1.26,12.69,0.12,18.31-2.85C311.55,518.18,319.51,516,328.27,519.48z"/>
	<path class="st49" d="M381.3,465.51c-1.86,2.79-3.72,5.58-5.58,8.38c-4.5,7.15-9.54,14.03-13.34,21.54
		c-3.67,7.24-6.23,15.07-8.95,22.75c-2.07,5.83-6.82,7.4-12.03,8.56c-0.61-0.33-1.22-0.66-1.83-0.98c5.46-1.08,10.5-2.72,11.97-9.06
		c2.92-7.1,5.47-14.39,8.87-21.26c3.68-7.43,8.1-14.51,12.33-21.66c1.87-3.16,3.99-6.18,6.17-9.13c0.85-1.14,2.19-1.91,3.31-2.85
		C381.92,463.02,381.61,464.26,381.3,465.51z"/>
	<path class="st107" d="M351.54,516.68c-1.47,6.34-6.51,7.98-11.97,9.06c-0.25,0.03-0.5,0.04-0.75,0.04
		c-1.32-0.91-2.64-1.83-3.97-2.74c0.84-0.22,1.8-0.83,2.49-0.6c5.29,1.79,8.63-0.81,11.41-4.83c0.93-1.55,1.86-3.11,2.79-4.66
		C351.53,514.19,351.53,515.44,351.54,516.68z"/>
	<path class="st108" d="M653.89,231.07c-4.17,4.09-3.27,8.64-1.08,13.2c3.22,6.71,4.56,13.76,3.82,21.13
		c-0.98,9.75-7.83,15.18-18.94,16.94c-10.78,1.71-21.45,4.23-32.03,6.92c-7.29,1.85-14.36,4.58-21.53,6.92
		c0.31-0.62,0.62-1.24,0.94-1.86c5.54-1.89,10.97-4.22,16.64-5.59c12.69-3.06,25.45-5.93,38.28-8.31
		c9.01-1.67,14.52-7.83,14.96-17.14c0.34-7.32-0.97-14.16-4.19-20.6c-2.58-5.18-1.7-9.49,2.18-13.47c0.33,0.29,0.65,0.58,0.98,0.87
		C653.91,230.42,653.9,230.75,653.89,231.07z"/>
	<path class="st106" d="M653.92,230.09c-0.33-0.29-0.65-0.58-0.98-0.87c-0.32-0.62-0.63-1.23-0.95-1.85c0.07-0.33,0.14-0.67,0.21-1
		c10.49-6.29,18.4-14.32,18.58-27.56c0.01-0.41,0.39-0.81,0.6-1.22c0.34,0.63,0.67,1.25,1.01,1.88c0.2,11.56-5.85,19.67-14.46,26.43
		C656.42,227.09,655.25,228.69,653.92,230.09z"/>
	<path class="st109" d="M672.38,199.47c-0.34-0.63-0.67-1.25-1.01-1.88c-0.33-0.89-0.65-1.77-0.98-2.66
		c0.06-1.34,0.63-2.94,0.1-3.98c-1.72-3.39-3.6-6.76-5.91-9.76c-1.15-1.49-3.39-2.12-5.14-3.15c-0.9-1.04-1.8-2.09-2.7-3.13
		c1.02-0.23,2.48-1.02,3-0.61c6.88,5.41,12.52,11.81,14.41,20.67c0.36,1.66-0.42,3.57-0.67,5.37
		C673.11,200.05,672.75,199.76,672.38,199.47z"/>
	<path class="st110" d="M585.06,294.33c-0.31,0.62-0.62,1.24-0.94,1.86c-10.45,5.6-21.08,10.91-31.31,16.9
		c-9.43,5.53-18.67,11.46-27.55,17.83c-7.02,5.04-6.97,15.67-1.06,22.19c9.12,10.06,18.63,19.87,26.73,30.71
		c7.53,10.07,13.45,21.34,19.99,32.14c0.68,1.13,0.76,2.63,1.12,3.96c-0.32,0-0.63,0-0.95,0.01c-4.52-7.48-8.8-15.12-13.61-22.41
		c-4.8-7.29-10.13-14.23-15.22-21.32c-2.49-3.27-4.8-6.7-7.53-9.76c-3.19-3.57-6.48-7.14-10.18-10.15
		c-8.73-7.11-9.66-21.71,2.83-29.31c13.67-8.32,27.67-16.08,41.51-24.12c4.8-2.79,9.54-5.68,14.3-8.53
		C583.82,294.33,584.44,294.33,585.06,294.33z"/>
	<path class="st110" d="M571.1,419.93c0.32,0,0.63,0,0.95-0.01c2.91,4.98,6.31,9.75,8.61,14.99c4.08,9.28,7.67,18.79,11.13,28.33
		c1.69,4.67,1.88,9.61-0.22,14.36c-0.31,0-0.63,0-0.94-0.01c-0.31-4.65-0.61-9.3-0.92-13.95v0c-3.1-7.75-6.2-15.51-9.3-23.26
		C577.3,433.57,574.2,426.75,571.1,419.93z"/>
	<path class="st111" d="M431.82,196.45c-3.22,3.5-5.92,6.43-9.04,9.83C420.93,200.71,425.74,195.43,431.82,196.45z"/>
	<path class="st112" d="M448.86,205.85c-1.39,4.76-3.6,7.8-8.23,8.98C440.89,209.49,443.13,206.97,448.86,205.85z"/>
	<path class="st40" d="M398.98,425.51c-0.46,0.93-1.05,1.82-1.36,2.8c-0.41,1.31-0.59,2.69-0.87,4.04c1.46-0.36,2.97-0.58,4.35-1.12
		c1.22-0.48,2.31-1.31,3.45-1.99c-3.25,3-6.42,6.09-9.8,8.94c-0.73,0.61-2.18,0.37-3.3,0.52c0.03-1.14-0.39-2.58,0.15-3.38
		C393.93,431.94,396.51,428.76,398.98,425.51z"/>
	<path class="st113" d="M585.06,294.33c-0.62,0-1.24,0-1.86,0c7.16-2.74,14.14-6.16,21.52-8.07c12.03-3.12,24.29-5.36,36.49-7.78
		c6.17-1.23,10.52-4.96,11.93-11.21c1.27-5.63,1.57-11.26-1.1-16.66c-1.25-3.13-2.51-6.25-3.75-9.38
		c-2.29-5.75-1.19-9.85,3.69-13.85c0.32,0.62,0.63,1.23,0.95,1.85c-3.89,3.98-4.77,8.29-2.19,13.47c3.21,6.44,4.53,13.28,4.19,20.6
		c-0.44,9.31-5.95,15.46-14.96,17.14c-12.83,2.38-25.59,5.25-38.28,8.31C596.03,290.11,590.6,292.44,585.06,294.33z"/>
	<path class="st63" d="M571.1,419.93c3.1,6.82,6.21,13.64,9.31,20.46c0,1.24,0,2.48,0,3.72l-0.01,0.01
		c-1.24-2.17-2.48-4.35-3.71-6.52c-5.37-10.52-10.26-21.33-16.26-31.48c-6.1-10.31-13.31-19.97-20.03-29.92c0.62,0,1.25,0,1.87,0
		c5.09,7.09,10.42,14.04,15.22,21.32C562.29,404.81,566.58,412.44,571.1,419.93z"/>
	<path class="st66" d="M449.22,442.25c-3.26-5.33-6.53-10.66-9.78-16c-3.08-5.06-7.02-8.46-13.47-7.26
		c5.07-3.3,8.12-2.43,13.02,3.71c2.97,4.95,6.02,9.85,8.86,14.87C448.63,438.96,448.78,440.69,449.22,442.25z"/>
	<path class="st20" d="M381.3,465.51c0.31-1.24,0.62-2.49,0.93-3.73c3.72-4.66,7.44-9.31,11.16-13.97
		c-0.09,0.75,0.07,1.69-0.32,2.21C389.19,455.22,385.23,460.35,381.3,465.51z"/>
	<path class="st100" d="M285.26,525.24c0.39,0.56,0.77,1.12,1.16,1.68c-4.69,1.88-8.66,0.69-12.1-2.8c3.15,0.23,6.3,0.45,9.46,0.68
		C284.27,524.95,284.76,525.1,285.26,525.24z"/>
	<path class="st114" d="M589.71,463.65c0.31,4.65,0.61,9.3,0.92,13.95c-5.18,5.66-10.16,11.51-15.59,16.91
		c-4.69,4.67-8.29,9.52-7.71,16.58c0.28,3.41,0.08,6.86,0.1,10.29c-0.33,0.37-0.66,0.75-0.99,1.12c-0.63,0.23-1.26,0.45-1.89,0.68
		c-0.14-1.87-0.59-3.77-0.37-5.6c0.6-4.98,1.48-9.92,2.26-14.87c2.16-2.89,4.11-5.98,6.52-8.64c4.82-5.31,9.9-10.38,14.87-15.55
		c0.62-1.49,1.66-2.94,1.78-4.47C589.89,470.61,589.71,467.13,589.71,463.65z"/>
	<path class="st63" d="M589.71,463.65c0,3.47,0.19,6.96-0.08,10.41c-0.12,1.53-1.16,2.98-1.78,4.47c3.17-9.45-1.56-17.37-4.83-25.61
		c-1.13-2.83-1.75-5.86-2.61-8.8c0,0,0.01-0.01,0.01-0.01c0.65,1.18,1.36,2.33,1.93,3.55C584.82,452.98,587.26,458.32,589.71,463.65
		L589.71,463.65z"/>
	<path class="st115" d="M519.89,543.51c1.49-0.3,2.97-0.59,4.45-0.89c11.18,5.47,23.56-1.26,30.11-8.21
		c1.25-1.33,1.15-3.94,1.67-5.97c2.18-1.21,4.36-2.42,6.54-3.63c-0.54,1.71-0.76,3.63-1.68,5.1c-4.52,7.22-11.22,11.91-18.72,15.6
		c-7.52,1.62-14.95,1.04-22.33-0.93c0.01-0.26,0.03-0.52,0.05-0.79L519.89,543.51z"/>
	<path class="st116" d="M519.99,543.8c-0.02,0.26-0.04,0.52-0.05,0.79c7.29,3.91,14.74,4.05,22.33,0.93
		c7.5-3.69,14.2-8.39,18.72-15.6c0.92-1.47,1.14-3.39,1.68-5.1c0.63-0.54,1.26-1.08,1.89-1.62c0.63-0.23,1.26-0.45,1.89-0.68
		c-1.76,4-2.82,8.54-5.42,11.89c-4.89,6.3-11.49,11.34-19.26,12.93c-8.18,1.68-17.03,3.71-24.63-2.63
		C518.08,544.4,519.03,544.1,519.99,543.8z"/>
	<path class="st117" d="M659.43,178.05c1.75,1.02,3.99,1.66,5.14,3.15c2.32,2.99,4.19,6.37,5.91,9.76c0.53,1.04-0.04,2.64-0.1,3.98
		c-0.59-0.66-1.17-1.33-1.76-2C665.57,187.98,662.5,183.01,659.43,178.05z"/>
	<path class="st118" d="M514.35,333.4c-0.31,4.65-0.62,9.3-0.93,13.96c-0.75-1.46-1.34-3.04-2.29-4.35
		c-1.91-2.65-2.14-4.86,0.86-6.9C512.94,335.45,513.57,334.32,514.35,333.4z"/>
	<path class="st114" d="M589.71,463.65c-2.45-5.33-4.89-10.67-7.37-15.99c-0.57-1.22-1.28-2.37-1.93-3.55c0-1.24,0-2.48,0-3.72
		C583.51,448.14,586.61,455.9,589.71,463.65z"/>
	<path class="st116" d="M542.26,545.51c-7.58,3.12-15.03,2.99-22.33-0.93C527.31,546.56,534.74,547.14,542.26,545.51z"/>
</g>
</svg>
