<?xml version="1.0" encoding="utf-8"?>
<!-- Generator: Adobe Illustrator 25.2.1, SVG Export Plug-In . SVG Version: 6.00 Build 0)  -->
<svg version="1.1" id="Capa_1" xmlns="http://www.w3.org/2000/svg" xmlns:xlink="http://www.w3.org/1999/xlink" x="0px" y="0px"
	 viewBox="0 0 900 650" style="enable-background:new 0 0 900 650;" xml:space="preserve">
<style type="text/css">
	.st0{fill:#EE252B;}
	.st1{fill:#131618;}
	.st2{fill:#FCB13B;}
	.st3{fill:#B1E1E3;}
	.st4{fill:#151719;}
	.st5{fill:#161819;}
	.st6{fill:#251F1C;}
	.st7{fill:#292424;}
	.st8{fill:#3F2B23;}
	.st9{fill:#42242A;}
	.st10{fill:#2C2929;}
	.st11{fill:#4E3A38;}
	.st12{fill:#292229;}
	.st13{fill:#452E25;}
	.st14{fill:#452922;}
	.st15{fill:#874A2D;}
	.st16{fill:#EC3693;}
	.st17{fill:#35657A;}
	.st18{fill:#2C3D80;}
	.st19{fill:#9E9E9E;}
	.st20{fill:#FDBB55;}
	.st21{fill:#292A2B;}
	.st22{fill:#356579;}
	.st23{fill:#FCE921;}
	.st24{fill:#B27731;}
	.st25{fill:#FBE921;}
	.st26{fill:#FBBA54;}
	.st27{fill:#F9E723;}
	.st28{fill:#F9E623;}
	.st29{fill:#191F22;}
	.st30{fill:#9C9C9B;}
	.st31{fill:#346174;}
	.st32{fill:#342E24;}
	.st33{fill:#EFDE28;}
	.st34{fill:#4E3433;}
	.st35{fill:#323435;}
	.st36{fill:none;}
	.st37{fill:#3C342A;}
	.st38{fill:#F3B452;}
	.st39{fill:#E8AC4F;}
	.st40{fill:#3D3425;}
	.st41{fill:#2A2729;}
	.st42{fill:#5B492F;}
	.st43{fill:#443928;}
	.st44{fill:#E1A74D;}
	.st45{fill:#393435;}
	.st46{fill:#EAAD50;}
	.st47{fill:#5D492E;}
	.st48{fill:#CC9848;}
	.st49{fill:#818181;}
	.st50{fill:#4D3530;}
	.st51{fill:#FCE722;}
	.st52{fill:#37393A;}
	.st53{fill:#242728;}
	.st54{fill:#6F7070;}
	.st55{fill:#272724;}
	.st56{fill:#F8AF3A;}
	.st57{fill:#F9AF3B;}
	.st58{fill:#28241E;}
	.st59{fill:#9A6A2F;}
	.st60{fill:#261B23;}
	.st61{fill:#3F2532;}
	.st62{fill:#15181B;}
	.st63{fill:#221C1B;}
	.st64{fill:#1A1B1A;}
	.st65{fill:#21201D;}
	.st66{fill:#1D1D1B;}
	.st67{fill:#393125;}
	.st68{fill:#2C2720;}
	.st69{fill:#4B3226;}
	.st70{fill:#BD8C40;}
	.st71{fill:#3F4142;}
	.st72{fill:#606161;}
	.st73{fill:#2C261F;}
	.st74{fill:#FCB939;}
	.st75{fill:#1B1B1A;}
	.st76{fill:#201E1B;}
	.st77{fill:#30291F;}
	.st78{fill:#26221D;}
	.st79{fill:#191A1A;}
	.st80{fill:#1D1C1B;}
	.st81{fill:#23211C;}
	.st82{fill:#201F1C;}
	.st83{fill:#E4262B;}
	.st84{fill:#E8262B;}
	.st85{fill:#AB037E;}
</style>
<path class="st0" d="M676.99,269.21c-3.05,2.97-3.54,8.59-5.14,13.03c-0.32,0.88-0.35,1.87-1.18,2.5
	c-0.86,4.12-2.42,8.07-4.47,11.61c-6.63,11.47-6.21,23.88-6.02,36.45c0.08,5.25,1.88,8.14,6.81,9.3
	c8.53,4.03,17.05,8.06,25.58,12.09c4.19,1.05,7.73,3.28,11.22,5.61c2.85-20.54,3.18-41.31,0.83-62.27
	c-2.02-18.1-5.67-35.44-10.92-51.99c-1.58,3.94-3.78,7.59-6.52,10.96C683.75,260.71,681,265.3,676.99,269.21z"/>
<path class="st0" d="M609.34,148.6c0.03,0.01,0.06,0.02,0.09,0.03c-0.02-0.05-0.03-0.09-0.04-0.14
	C609.36,148.53,609.35,148.57,609.34,148.6z"/>
<path class="st0" d="M243.48,465.62c0.27-1.3,0.37-2.63,1.12-3.78c2.09-7.83,4.7-15.29,12.04-20.01c3.88-2.5,6.24-6.95,10.83-8.59
	c6.23-7.11,12.76-13.88,20.72-19.04c0.74-0.65,1.55-1.21,2.52-1.58c0.31-0.06,0.53-0.24,0.67-0.52c1.65-4.3,5.43-6.36,9.04-8.59
	c6.78-15.88,10.03-33.21,19.51-47.99c2.61-8.15,10.25-11.25,16.25-15.9c2.6-2.02,5.4-4.22,9.01-4.5c7.15-2.23,13.91-0.93,20.44,2.3
	c4.05,0.96,7.31,5.14,12.22,2.91c0.83-1.6,0.91-3.63-0.4-4.68c-6.64-5.29-7.52-12.72-8.03-20.34c-1.31-19.55-2.21-39.12,0.71-58.61
	c4.98-33.33,13.76-65.21,32.66-93.85c9.53-14.44,21.55-26.02,35.22-36.01c12.57-9.18,26.69-10.28,41.17-4.74
	c13.8,5.28,26.17,12.89,36.9,23.16c12.78,12.23,19.85,27.35,21.83,44.64c2.33,20.38,3.47,40.9,1.3,61.39
	c-0.8,7.53-1.03,15.07-1.39,22.61c-0.04,0.96-0.21,1.89-2.24,2.91c-1.18-6.29-0.01-12.44-1.6-18.42
	c-1.13,7.67-2.18,15.36-3.41,23.02c-4.29,26.69-11.57,52.63-19.81,78.32c-2.14,6.65-2.68,13.84-6.63,19.89
	c-0.48,2.83-1.58,5.4-2.97,8.31c-6.59-5.36-13.49-9.49-21.23-13.08c0,6.89-0.34,13.31,0.09,19.67c0.56,8.31,0.67,16.72,3.2,24.8
	c1.55,4.96,3.64,9.58,7.21,13.42c5.54,5.98,9.04,13.18,11.47,20.77c1.24,3.87,2.79,7.72,3.09,12c0.69,9.62-0.22,18.64-6.64,26.66
	c7.97-1.71,15.44-4.38,22.74-8.01c0.57-9.29-1.11-18.31-1.58-27.38c-0.11-2.05-1.85-2.76-3.14-3.8c-1.75-1.42-3.59-2.72-5.52-4.15
	c1-10.77,5.58-20.5,8.17-30.74c5.65-22.35,17.02-42.65,22.59-64.98c0.57-2.3,2.27-2.99,3.95-3.65c8.62-3.39,17.07-7.26,26.59-7.82
	c4.9-0.29,9.66-1.89,14.36-3.46c6.12-2.05,12.35-3.44,18.86-2.12c1.9-3.22,1.72-7.11,3.36-10.41c2.22-13.7,3.41-27.44,2.44-41.34
	c-0.56-7.96-1.81-15.8-3.41-23.6c-0.11-0.56-0.06-1.3-0.39-1.64c-6.05-6.1-6.62-15.16-11.79-21.76c-1.96-2.5-3.94-5.19-3.59-8.73
	c-1.15-5.75-2.47-11.51,1.22-16.92c0.89-1.31,0.11-2.56-0.32-3.76c-0.71-1.95-1.59-3.85-0.7-6.04c1.59-0.94,2.75,0.6,4.14,0.75
	c2.61-2.22,0.82-4.93,0.7-7.39c-0.08-1.6-1.27-3.14-0.33-4.81c1.16-0.44,1.55,0.92,2.78,0.94c-1.8-6.99-3.56-13.94-3.73-21.33
	c2.71,0.89,3.9,4.14,7.26,4.45c0.26-10.51,0.05-21.09,8.38-30.36c1.66,4.72,1.92,8.43,2.25,12.13c1.33-0.2,1.66-1.16,2.11-2.3
	c2.35-5.86,4.74-11.71,7.32-17.48c-56.64-51.72-124.08-73.68-200.66-65.95c-62.36,6.29-115.21,33.27-158.54,78.58
	c-17.6,18.4-32.2,38.99-43.15,62.06c-15.32,29.47-23.65,61.08-26.38,93.91c-1.7,20.53-0.52,41.26,2.88,61.76
	c6.74,40.67,22.77,77.61,45.57,108.92C242.59,472.44,242.76,469.06,243.48,465.62z"/>
<path class="st0" d="M634.07,150.41c0.39-0.79,0.66-1.61,0.89-2.46c-1-1.03-2.02-2.05-3.05-3.07c0.02,0.74,0.04,1.49,0.06,2.23
	C632.01,148.61,631.95,150.22,634.07,150.41z"/>
<path class="st1" d="M613.25,514.11c1.11-2.15,2.23-4.3,3.34-6.44c2.68-4.62,5.37-9.23,8.05-13.85c2.24-4.07,4.47-8.14,6.71-12.21
	c2.43-4,4.86-8,7.28-11.99c1.46-3.13,3.16-1.78,4.76-0.19c3.47,3.44,7.02,6.81,10.34,10.39c2.38-3.16,4.72-6.39,7-9.69
	c-3.22-3.08-6.3-6.32-9.2-9.78c-2.7-3.22-3.63-5.68-1-9.45c4-5.75,7.45-11.87,11.13-17.84c7.41-10.72,14.32-21.81,22.7-31.8
	c4.78-5.69,9.32-11.66,14.73-16.75c1.8-7.52,3.28-15.06,4.4-22.65c0.1-0.68,0.18-1.36,0.28-2.04c-3.49-2.33-7.03-4.56-11.22-5.61
	c-0.42,0.38-0.85,0.75-1.27,1.13c-0.06,0.05-0.11,0.1-0.17,0.15c-0.16,0.53-0.14,1.27-0.5,1.57
	c-15.14,13.19-26.92,29.18-38.25,45.57c-0.64,0.92-1.57,1.63-2.37,2.44c-3.69,6.9-8.54,13.04-12.8,19.56
	c-4.47,6.71-8.94,13.43-13.41,20.14c-3.54,6.01-7.08,12.02-10.61,18.04c-2.52,4.27-5.03,8.54-7.55,12.81
	c-4.14,8.89-8.26,17.8-13.65,26.03c-2.8,6.37-6.87,12.05-10.06,18.2l0,0c-1.65,2.75-3.29,5.5-4.94,8.25
	c-3.72,7.47-8.15,14.5-13.03,21.25c-0.55,0.76-1.36,1.31-2.66,1.25c-3.69-3.59-2.86-8.26-2.18-12.64c0.69-4.46,1.49-9.06,3.25-13.17
	c3.14-7.34,1.68-14.47,0.31-21.71c-0.35-1.85-0.98-3.65-1.46-5.48c-2.12-7.99-3-15.87,2.08-23.22c-0.36-0.36-0.72-0.71-1.09-1.07
	c-3.06,5.17-8.45,7.78-12.6,11.68c-8.15,7.64-15.47,16.19-22.81,24.65c-17.72,20.43-32.81,42.73-46.25,66.18
	c-0.9,1.57-1.7,2.76-2.51,3.63c2.23-0.26,4.46-0.54,6.69-0.86c1.25-2.05,2.14-4.58,2.67-7.62c2.91,1.8,4.9,4,6.69,6.13
	c1.83-0.32,3.65-0.65,5.46-1c-0.54-0.53-1.11-1.08-1.72-1.69c-2.27-2.28-4.9-4.21-7.51-6.43c10.15-17.16,20.03-33.23,32.57-48.88
	c1.18,17.29,1.51,34.26,1.02,51.13c1.68-0.49,3.37-0.98,5.03-1.5c0.21-10.15-0.03-20.32,0.01-30.47c0.03-7.04-0.17-14.08-0.53-21.11
	c-0.1-1.93,0.41-3.26,1.63-4.59c8.12-8.8,16.21-17.63,24.33-26.43c0.34-0.37,0.91-0.55,2.17-1.27c0.16,15.18,3.52,29.64-1.12,44.37
	c-2.76,8.76-3.42,18.09-2.81,27.48c0.07,1.1,0.09,2.2,0.06,3.28c18.59-7.91,35.81-17.92,51.64-30
	C607.04,524.58,609.8,519.16,613.25,514.11z"/>
<path class="st1" d="M446.14,488.36c0.05-0.95,0.04-1.91-0.37-2.8c0.12,1.05,0.24,2.1,0.35,3.15
	C446.13,488.59,446.13,488.48,446.14,488.36z"/>
<path class="st1" d="M461,575.13c-0.42-0.95-1.85,0.81-3.91,0.93c-1.52-12.3-2.07-24.57-4.76-36.51c-0.28,0.04-0.56,0.05-0.85,0.05
	c-0.75,5.71-5.81,4.25-8.87,5.83c-0.59-0.56-1.08-0.82-1.08-1.07c0.01-6.07-3.39-9.17-8.57-11.91
	c-17.35-9.16-33.33-20.46-48.79-32.52c-3.89-3.03-6.11-6.46-7.33-11.51c-1.34-5.57-4.92-10.62-7.57-15.87
	c-11.43-22.6-20.92-45.96-28.29-70.22c-1.73-5.69-1.07-9.75,2.89-14.38c11.36-13.29,22.19-27.04,33.14-40.69
	c1.76-2.2,3.74-3.52,6.54-4.02c4.49-0.79,8.87-1.98,12.93-4.26c4.01-2.24,6.38-5.79,7.99-9.54c1.95-0.48,3.13,0.17,4.01,1.2
	c5.48,6.43,13.03,8.91,20.77,11.14c6.79,1.95,12.61,5.32,15.93,12.15c-3.27,6.08-8.63,10.88-11.95,17.13
	c2.41,1.62,2.99-0.55,3.92-1.77c3.94-5.15,8.1-10.08,13.87-13.83c4.69,2.22,9.68,3.95,14.64,5.74c7.78,2.8,8.91,9.88,9.76,16.62
	c1.41,11.13,2.39,22.32,3.18,33.5c0.33,4.7,1.56,9.37,1,14.43c-17.59,1.52-33.11,6.79-42.46,23.66
	c-3.98-11.23-3.63-23.28-7.32-34.79c-0.08-0.02-0.16-0.03-0.23-0.04c-2.8,1.96-2.05,3.99-1.82,5.65c1.62,11.28,3.39,22.54,5.12,33.8
	c0.41,2.65,0.7,5.28-0.12,7.91c-0.44,1.4-1.16,2.91,0.56,4.08c3.84-3.76,2.59-9.7,6.54-14.77c1.42,14.11,2.52,27.18,4.52,40.13
	c0.04,0.02,0.08,0.03,0.12,0.05c1.8-1.65,0.46-4.01,1.26-5.89c-0.03-9.68-0.05-19.35-0.12-29.03c-0.01-1.28,0.64-2.85-0.53-3.78
	c-3.41-2.73-1.96-5.55,0.1-7.83c8.07-8.93,18.39-11.84,30.04-11.14c5.46,27.69,8.01,55.19,9.29,82.83c0.7,0.77,1.39,1.54,2.09,2.31
	c0.29-2.45,1.1-4.98,0.78-7.35c-0.85-6.31,2.71-9.27,7.65-11.72c12.25-6.08,24.43-12.31,36.61-18.52c1.06-0.54,2.77-0.47,2.74-2.35
	c-0.43-0.08-0.85-0.16-1.28-0.24c-2.73,1.18-5.47,2.35-8.59,3.69c-0.69-8.55-1.64-16.69-1.3-24.92c3.36-1.05,6.07,1.36,9.06,0.89
	c0.69,0.13,1.08,0.54,1.22,1.23c0.72,0.29,1.44,0.58,2.17,0.87c0.04-0.94-0.08-1.92,0.16-2.81c0.39-1.5,1.12-2.98,2.96-2.88
	c2.39,0.13,1.18,2.33,1.78,3.52c1.51-1.15,0.21-3.48,1.9-4.56l0,0c0.8-1.91,1.6-3.83,2.4-5.74c0.69-1.4,2.33-1.39,3.38-2.27
	c0.5-0.6,1.19-1.09,1.31-1.92c-0.04-0.1-0.09-0.2-0.15-0.3c-3.76-0.09-6.06,2.49-8.47,4.82c-0.53,0.51-0.75,1.33-1.23,1.91
	c-5.18,6.32-8.02,6.58-14.6,1.73c-3.23-2.38-6.03-5.13-8.64-8.16c3.24-8.3,5.7-16.71,9.69-24.52c0.43-0.85,1.04-1.74,1.08-2.63
	c0.52-12.19,6.62-22.47,11.27-33.23c3.55-8.21,6.36-16.65,8.75-25.24c0.98-3.51,3.08-5.85,6.48-7.41
	c13.07-5.97,26.93-8.97,40.99-11.28c1.49-0.25,3-0.43,4.47-0.81c2.99-0.76,5.24-0.12,6.37,3c0.36-0.39,0.72-0.78,1.08-1.17
	c0.06-0.28,0.1-0.56,0.1-0.85c-0.24-1.07-0.05-2.3-0.8-3.17c-0.15-0.18-0.33-0.35-0.58-0.49c-6.51-1.32-12.73,0.08-18.86,2.12
	c-4.7,1.57-9.46,3.17-14.36,3.46c-9.53,0.57-17.97,4.44-26.59,7.82c-1.68,0.66-3.38,1.35-3.95,3.65
	c-5.57,22.33-16.94,42.63-22.59,64.98c-2.59,10.24-7.16,19.97-8.17,30.74c1.92,1.44,3.77,2.73,5.52,4.15
	c1.28,1.04,3.03,1.75,3.14,3.8c0.47,9.07,2.15,18.09,1.58,27.38c-7.3,3.62-14.77,6.3-22.74,8.01c6.41-8.02,7.33-17.04,6.64-26.66
	c-0.31-4.29-1.86-8.13-3.09-12c-2.43-7.58-5.93-14.79-11.47-20.77c-3.56-3.84-5.65-8.47-7.21-13.42c-2.53-8.09-2.64-16.49-3.2-24.8
	c-0.43-6.37-0.09-12.79-0.09-19.67c7.74,3.59,14.64,7.72,21.23,13.08c1.38-2.9,2.49-5.48,2.97-8.31c3.94-6.05,4.49-13.23,6.63-19.89
	c8.25-25.69,15.52-51.63,19.81-78.32c1.23-7.66,2.28-15.34,3.41-23.02c1.59,5.98,0.42,12.14,1.6,18.42
	c2.02-1.02,2.19-1.95,2.24-2.91c0.35-7.54,0.59-15.08,1.39-22.61c2.17-20.5,1.02-41.01-1.3-61.39
	c-1.97-17.29-9.05-32.41-21.83-44.64c-10.73-10.27-23.1-17.88-36.9-23.16c-14.48-5.54-28.6-4.44-41.17,4.74
	c-13.67,9.99-25.69,21.56-35.22,36.01c-18.89,28.64-27.67,60.53-32.66,93.85c-2.91,19.49-2.02,39.05-0.71,58.61
	c0.51,7.61,1.39,15.05,8.03,20.34c1.31,1.04,1.23,3.08,0.4,4.68c-4.92,2.23-8.18-1.95-12.22-2.91c-6.54-3.22-13.29-4.52-20.44-2.3
	c0.66,0.85,1.59,0.88,2.5,0.97c0.36,0.04,0.72,0.09,1.06,0.2c2.16,0.47,4.32,0.94,7.17,1.56c-16,18.93-30.12,38.84-48.11,55.57
	c3.57-10.17,6.71-20.44,11.59-30.04c0.86-1.69,1.82-3.35,1.89-5.33c-0.13-0.5-0.21-1.03-0.4-1.5c-0.17-0.42-0.44-0.79-0.94-1.04
	c-9.48,14.78-12.73,32.11-19.51,47.99c0.36,0.05,0.72,0.09,1.07,0.14c0.09,0.01,0.18,0.02,0.27,0.03
	c5.78-3.24,11.83-4.68,18.55-3.79c4.67,0.62,9.47-0.43,14.65,0.38c5.37,17.49,12.14,34.55,19.45,52.03
	c-6.51,2.13-12.75,4.17-18.99,6.2c-1.8,0.58-3.61,1.17-5.44,1.64c-8.47,2.18-15.52,6.56-21.69,12.8
	c-4.93,4.98-10.39,9.45-15.83,13.88c-4.82,3.93-8.03,9-11.27,14.14c-2.24,3.55-4.5,7.08-6.78,10.61c0.65,0.61,1.31,1.22,1.97,1.82
	c4.29-6.64,8.47-13.35,13.03-19.8c2.34-3.31,5.83-5.95,9.19-8.35c5.88-4.19,11.2-9.05,16.6-13.77c4.64-4.06,9.84-5.85,15.52-7.62
	c8.1-2.53,15.97-5.82,24.76-7.74c5.12,10.9,10.82,21.47,17.29,32.84c-3.04-1.17-4.65-4.51-8.11-2.15
	c3.93,6.36,10.45,10.32,16.3,16.26c-8.58,2.04-16.01,3.97-23.52,5.52c-3.63,0.75-6.4,1.91-8.97,5.02
	c-9.05,10.94-17.63,22.21-25.8,33.77c0.99,0.57,1.99,1.12,2.98,1.68c7.2-10.18,14.51-20.29,21.79-30.42
	c2.18-3.03,5.19-4.32,8.51-5.28c9.3-2.68,19.04-3.49,28.24-6.57c2.82-0.94,4.33,1.14,6.02,2.38c10.41,7.65,20.86,15.25,31.8,22.13
	c3.69,2.32,7.45,4.59,11.32,6.58c3.65,1.87,4.54,4.97,4.31,8.56c-0.22,3.43-3.27,3.84-5.76,4.51c-4.03,1.08-8.05,2.35-12.29,2.26
	c-6.87-0.14-12.21,2.1-14.97,8.91c-1,2.45-2.36,4.76-3.56,7.14c0.04,0.9,0.19,1.75,1.08,2.24l0,0l0,0c1.52-2.59,3.1-5.14,4.55-7.76
	c3.29-5.92,8.07-8.34,15.53-7.6c-3.93,7.5-8.43,14.61-12.44,21.97c8.37,1.31,16.86,2.2,25.43,2.67c0.83-2.01,1.94-3.91,3.49-5.65
	c0,1.87,0,3.82,0,5.81c1.02,0.04,2.04,0.08,3.06,0.11c0.13-1.33,0.21-2.66,0.25-3.99c0.1-4.03,1.24-6.51,5.54-7.1
	c1.36-0.19,2.6-1.27,4.23-2.12c1.4,5.57,3.66,10.1,7.25,13.12c3.99-0.16,7.99-0.42,12-0.77c-0.59-0.27-1.21-0.58-1.89-0.96
	C466.48,577.74,462.63,578.86,461,575.13z M430.91,339.46c-8.53-3.52-15.92-8.6-21.69-15.91c-1.1-1.4-1.99-2.75-1.5-4.64
	c2.11-8.18,4.19-16.36,6.57-25.64c2.83,17.3,9.58,31.78,18.7,44.84C432.4,339.46,431.56,339.73,430.91,339.46z M459.48,354.88
	c-10.42-2.88-16.24-10.34-21.99-18.37c-10.98-15.34-19.27-31.74-21.07-50.93c-0.54-5.77,0.41-11.37,0.65-17.06
	c0.15-3.72,1.1-7.59-1.76-10.9c-0.72-0.83,0.5-1.71,0.58-2.63c0.01-0.71,0.01-1.42,0.02-2.13c-1.68-0.16-2.78-0.76-2.75-2.75
	c0.08-4.53-0.36-9.12,1.65-13.41c0.17-3.7,1.73-6.93,3.44-10.11c0.33-1.34,1.1-2.18,2.53-2.31c4.71-0.34,5.06,3.34,5.44,6.42
	c0.69,5.68,0.25,11.41-0.39,17.08c-1.52,13.51-1.01,26.93,1.36,40.3c0.31,1.74-0.11,4.17,3.08,3.45c1.03-2,0.44-4.1,0.22-6.13
	c-2.04-19.26,1.15-37.54,10.64-54.48c5.52-9.86,12.69-18.44,21.79-25.3c1.67-1.26,3.6-2.36,4.82-3.98
	c4.45-5.92,10.28-5.51,15.87-3.02c7.45,3.31,14.35,7.53,19.21,14.62c4.61,6.72,9.66,13.14,13.75,20.22
	c1.55,2.69,2.12,4.91-0.16,7.69c-1.87,2.27-2.91,5.24-4.46,8.17c-10.21-3.83-18.38,0.64-26.79,6.4c4.08,2.8,6.97-0.12,10.04-1.19
	c3.32-1.16,6.4-3.31,10.54-2.45c0.9,5.02,2.13,9.67-1.51,14.44c-3.61,4.72-5,10.09-4.37,16.51c1.13,11.64-3.79,21.89-10.08,31.39
	c-7.27,10.97-12.55,22.93-17.59,35C469.39,356.11,466.23,356.74,459.48,354.88z M468.74,360.06c7.85-10.39,9.93-22.6,17.17-32.51
	c7.62-10.44,13.55-22.01,15.79-35.05c0.35-2.05,0.89-4.16,0.76-6.2c-0.55-8.14,2.18-15.31,5.98-22.26
	c2.46-4.49,4.98-8.96,6.14-14.05c0.49-2.16,1.59-4.16,3.37-6.17c2.9,7.31,0.36,14.4,0.81,22.47c0.07,0.09,0.14,0.17,0.22,0.26
	c2.88-5.67,3.45-10.83,4.13-15.85c0.79-5.85,0.7-11.79-0.14-17.65c-0.22-1.55-0.17-2.93,0.21-4.37c-2.92-1.92-4.08-5.11-5.69-7.98
	c-5.97-7.61-11.77-15.37-19.66-21.19c-5.44-4.01-11.29-7.36-18.2-7.25c-8.3,0.13-15.97,2.57-21.87,8.86
	c-11.99,12.8-21.03,27.38-26.28,44.21c-0.33,1.06-0.8,2.07-1.25,3.08c-0.05,0.12-0.34,0.14-0.75,0.29
	c0.02-7.29-0.53-14.46-2.21-21.5c-0.63-2.65-1.25-5.3-4.49-5.91c-3.31-0.62-4.87,1.86-6.27,4.03c-5.85,9.09-8.42,19.54-4.87,29.43
	c3.02,8.4,1.86,16,0.55,23.85c-2.91,17.43-6.49,34.74-13.01,51.29c-2.8,7.11-11.98,11.33-18.93,8.5c-0.03-0.2-0.05-0.4-0.08-0.6
	c-1.01-7.13-0.95-14.37-0.53-21.46c1.13-19.27,3.09-38.49,8.52-57.15c1.48-5.11,3.21-10.15,4.4-15.33
	c3.73-16.25,15.27-27.3,25.89-38.84c12.27-13.33,26.22-24.76,41.74-34.21c1.39-0.85,4.54-1.59,1.68-4.75
	c-3.21,1.26-6.39,2.55-9.34,4.72c-17.22,12.65-32.79,27.07-46.79,43.2c-1.06,1.71-2.1,3.43-4.25,5.11c0.33-3.18,1.65-5.38,2.92-7.6
	c8.56-19.77,19.8-38.05,31.45-56.08c3.75-5.81,10.1-9.09,15.14-13.67c2.43-2.21,3.24-4.04,0.32-6.76
	c-25.39,19.08-46.83,41.84-64.12,68.59c11.16-29.03,27.12-54.26,54.14-70.93c0.32-0.2,0.63-0.42,0.96-0.61
	c8.2-4.71,16.41-9.55,24.17,1.94c0.02,0,0.05-0.01,0.07-0.01c1.06-2.77-0.26-4.73,1-6.59c3.14-1.48,6.34-0.31,9.55,0.84
	c14.77,5.3,26,15.47,36.44,26.66c5.31,5.69,10.11,11.82,14.26,19.42c-5.5-2.1-9.3-5.66-13.58-8.37
	c-11.71-7.39-23.04-15.5-36.85-18.77c-2.47-0.58-5.09-1.9-6.57,1.19c0.29,1.31,0.95,1.69,1.69,1.88
	c15.45,3.94,28.3,12.65,40.66,22.24c4.65,3.61,9.14,7.42,13.8,11.03c1.97,1.53,3.01,3.34,2.98,5.82
	c-0.16,11.97,2.33,23.86,0.91,35.88c-0.32,2.74,1.88,5.65-0.72,9.06c-9.68-20.35-20.58-39.36-35.34-55.87
	c-0.46,0.48-0.92,0.96-1.38,1.44c8.8,11.63,17.3,23.46,24.11,36.41c0.52,1,0.91,2.07,1.36,3.11c1.77,2.05,2.97,4.37,3.76,6.88
	c0.26,0.82,0.47,1.67,0.64,2.53c0.35,0.53,0.69,1.07,1.01,1.6c4.88,8.12,6.39,16.69,2.87,26.03c-0.79,2.09-1.16,4.34-1.72,6.51l0,0
	c0.74,1.34,1.55-0.75,2.33,0.09c0.16,1.62,0.51,3.31-1.02,4.6c-5.25,34.14-10.32,68.33-21.7,101.16c-1.16,3.36-2.71,6.59-3.43,10.1
	c-0.05,0.24-0.1,0.47-0.14,0.71c-0.63,0.89-1.26,1.78-2.13,2.99c-6.41-3.84-12.41-8.43-19.09-11.34c-0.77-1.81,0.84-2.65,0.96-3.93
	c-0.38-0.43-0.76-0.86-1.14-1.29c-1.03,0.96-1.88,0.41-2.13-0.58C476.87,361.09,473.94,359.65,468.74,360.06z M376.49,327.38
	c-3.2-5.98-3.31-12.51-3.66-18.83c-1.22-22.06-0.35-44.04,2.71-65.97c1.84-13.21,8.18-24.39,14.54-35.58
	c8.79-15.45,19.76-29.25,33.03-41.29C394.98,216,374.53,268.46,376.49,327.38z M486.91,493.27c-1.85-5.47-1.8-11.26-2.34-16.86
	c-1.24-12.86-1.56-25.81-3.31-38.63c-0.33-2.44-0.98-5.21,3.13-5.97c-0.16-0.09,0.51,0.06,0.79,0.47
	c8.56,12.93,16.09,26.29,16.33,42.4C501.64,483.87,496.15,490.77,486.91,493.27z"/>
<path class="st1" d="M245.62,463.78c-0.07-0.74-0.24-1.44-1.02-1.94c-0.75,1.15-0.84,2.48-1.12,3.78c-0.72,3.44-0.9,6.81-0.67,10.14
	c0.64,0.88,1.3,1.75,1.95,2.62c0.86,1.16,1.74,2.31,2.62,3.45c-1.12-5.24-1.48-10.74-1.52-16.35
	C245.68,464.95,245.67,464.36,245.62,463.78z"/>
<path class="st1" d="M263.67,497.19c-0.9,0.22-1.6,0.7-2.22,1.29c2.17,2.35,4.38,4.66,6.63,6.93
	C269.15,502.61,267.92,500.81,263.67,497.19z"/>
<path class="st1" d="M631.35,481.61c-0.02,0.42,0.05,0.78,0.15,1.11C631.45,482.35,631.41,481.98,631.35,481.61z"/>
<path class="st2" d="M290.71,412.63c-0.97,0.36-1.78,0.93-2.52,1.58C289.02,413.67,289.85,413.13,290.71,412.63z"/>
<path class="st2" d="M292.44,486.82c5.44-4.43,10.91-8.9,15.83-13.88c6.17-6.24,13.23-10.62,21.69-12.8
	c1.83-0.47,3.64-1.05,5.44-1.64c6.24-2.02,12.48-4.07,18.99-6.2c-7.31-17.47-14.07-34.53-19.45-52.03
	c-5.18-0.81-9.98,0.23-14.65-0.38c-6.71-0.88-12.77,0.55-18.55,3.79c-0.18,0.14-0.35,0.28-0.53,0.42c-0.29,0.23-0.58,0.46-0.86,0.69
	c-0.91,0.76-1.79,1.56-2.67,2.36c-0.81,0.73-1.63,1.46-2.46,2.17c-1.21,1.02-2.47,1.98-3.85,2.78c-0.14,0.28-0.36,0.46-0.67,0.52
	c-1.36,1.5-2.72,2.99-4.1,4.46c-4.55,4.85-9.3,9.47-14.74,13.32c-1.42,1.01-2.87,1.98-4.39,2.87c-0.35,0.98-0.9,1.78-1.55,2.49
	c-1.23,1.34-2.83,2.34-4.14,3.56c-7.09,6.58-12.73,13.97-15.25,23.29c-0.25,0.94-0.49,1.89-0.68,2.87c0.05,5.6,0.4,11.1,1.52,16.35
	c0.89,1.15,1.79,2.31,2.7,3.44c3.31,4.13,6.76,8.14,10.31,12.04c0.35,0.39,0.7,0.78,1.06,1.17c0.63-0.59,1.32-1.07,2.22-1.29
	c4.25,3.62,5.48,5.43,4.41,8.22c0.39,0.4,0.78,0.79,1.18,1.18c1.18,1.18,2.38,2.34,3.58,3.49c0.52,0.5,1.03,1,1.55,1.49
	c2.28-3.53,4.54-7.06,6.78-10.61C284.41,495.83,287.62,490.75,292.44,486.82z M281.09,450.49c1.57-2.81,3.01-5.71,4.76-8.4
	c3-4.61,7.03-7.28,12.88-6.61c2.32,0.27,3.85,1.21,4.83,3.79c-4.16-2-7.76-2.35-10.56,2.25c1.8,1.66,5.73-0.08,6.29,3.55
	c0.51,3.31-0.14,6.35-1.85,9.28c-3.1,5.32-8,8.5-13.13,11.39c-2.17,1.22-3.45,0.05-4.26-2.14
	C278.36,459.04,278.74,454.7,281.09,450.49z"/>
<path class="st3" d="M683.25,227.32c1.17-0.59,2.19-1.22,3.1-1.88c-0.76-1.84-1.55-3.66-2.36-5.48c-0.19,1.12-0.42,2.25-0.74,3.36
	C683.25,224.63,683.25,225.92,683.25,227.32z"/>
<path class="st3" d="M619.04,149.96c-1.19,3.01-2.15,6.11-2.77,9.34c0.09,0.64,0,1.35-0.36,2.19c-0.17,1.08,0.03,2.34-1.82,3.05
	c-2.35-4.63-2.73-9.87-4.48-15.3c-0.07-0.21-0.12-0.41-0.19-0.62c-0.03-0.01-0.06-0.02-0.09-0.03c-0.64,1.48-1.2,2.96-1.69,4.44
	c-2.97,8.99-3.19,17.98-1.71,27.3c-2.48-1.87-3.98-4.11-7.16-3.96c0.07,7.04,4.39,12.88,5.39,19.11c-1.49,2.52-2.94,0.41-4.23,0.72
	c-0.08,0.13-0.14,0.27-0.19,0.4c-0.02,0.05-0.04,0.1-0.06,0.15c-0.9,2.53,1.75,5.6-1.12,7.78c-1.07,0.26-2.31-0.03-3.65,1.58
	c3.01,4.41,10.44,4.85,11.44,11.56c1.78-4,1.07-8.17,2.58-11.85c-1.14-6.02,4.93-9.43,4.81-14.21c1.78-1.95,2.51,0.45,3.67-0.39
	c1.06-2.41,1.86-5.1,3.78-7.37c2.21,1.08,1.42,3.03,1.83,4.58c1.25,0.3,1.53-1.55,3.03-1.37c2.38,3.76,3.51,8.69,8.38,11.36
	c0.48-2.12-1.29-4.05,0.12-6.16c3.47,1.61,5.73,5.19,9.2,6.44c2.32-1.01,0.85-3.97,3.05-4.74c2.15,0.72,1.48,3.42,3.46,4.6
	c2.34,0.57,3.91-5.8,7.06-1.23c3.15-2.4,5.89-5.4,10.14-6.18c1.27,2.45-1.4,3.81-1.46,6.02c0.25,0.19,0.53,0.31,0.83,0.39
	c1.54-0.44,2.63-1.98,4.18-2.68c-9.63-16.23-21.24-31.46-34.84-45.63c-0.41-0.42-0.81-0.85-1.22-1.27c-0.23,0.84-0.5,1.67-0.89,2.46
	c0.01,0.26,0.02,0.51,0.02,0.77c-0.01,1.06-0.3,2.02-1.93,2.55c-3.11-3.7-3.58-7.77-3.4-11.93c-0.95-0.91-1.89-1.83-2.85-2.73
	c-0.39-0.37-0.79-0.72-1.18-1.08c-1.83,3.5-3.63,7.01-5.14,10.63C619.41,149.07,619.22,149.52,619.04,149.96z"/>
<path class="st4" d="M678.98,260.95c-1.14-6.44,1.69-12.14,0.64-18.1c-3.71,13.45-6.56,27.09-10.3,40.5
	c0.07,0.07,0.14,0.15,0.22,0.22c0.38,0.39,0.76,0.78,1.13,1.18c0.83-0.63,0.87-1.63,1.18-2.5c1.61-4.45,2.09-10.06,5.14-13.03
	c4.01-3.91,6.76-8.51,10.18-12.7c2.74-3.37,4.94-7.02,6.52-10.96c-0.26-0.83-0.53-1.66-0.8-2.48c-0.13-0.39-0.25-0.79-0.38-1.17
	c-0.78,2.59-2.07,5-3.54,7.34C686.38,253.49,684.1,258.02,678.98,260.95z"/>
<path class="st4" d="M683.25,223.33c-0.49-1.66,0.25-3.53-0.49-5.15c-0.14-0.31-0.33-0.61-0.6-0.89c-0.59,3.14-1.18,6.28-1.93,10.28
	c-8.73-6.12-18.45-6.09-28.27-6.06c-3.89,0.01-7.79-1.2-11.67-1.9c-1.36-0.24-2.4-0.94-2.84-2.33c-3.59,0.37-7.14-0.51-10.49-1.33
	c-5.56-1.37-10.64-1.2-15.87,2.31c-2.38-5.25,1.07-10.04-0.14-14.69c-0.1,0.12-0.21,0.23-0.31,0.35c-0.51,0.56-1.02,1.13-1.52,1.69
	c-0.06,0.07-0.13,0.14-0.19,0.21c-1.5,3.69-0.79,7.86-2.58,11.85c-1-6.72-8.43-7.15-11.44-11.56c1.34-1.61,2.58-1.33,3.65-1.58
	c-0.52-0.45-1.04-0.9-1.56-1.35c-0.02-0.02-0.04-0.03-0.06-0.05c-0.2-0.17-0.4-0.35-0.6-0.52c-1.39-0.15-2.55-1.7-4.14-0.75
	c-0.89,2.19,0,4.09,0.7,6.04c0.44,1.2,1.21,2.45,0.32,3.76c-3.69,5.41-2.36,11.17-1.22,16.92c0.84-1.23,0.99-2.59,0.95-3.98
	c-0.07-2.52-0.74-5.15,1.01-7.36c0.2-0.86,0.11-1.88,1.23-2.24c4.62-0.91,6.65,0.12,8.16,4.24c1.39,3.8,1.95,7.95,4.24,11.65
	c2.11-2.25,0.08-4.39,0.78-6.31c1.53-1.81,3.8-1.51,5.93-2.33c1.85,3.17,1.16,6.65,1.42,9.94c0.55,6.91,3.43,11.69,10.5,13.78
	c4.05,1.2,7,0.67,9.49-2.73c1.92-2.62,3.6-5.37,4.81-8.38c1.13-2.79,2.09-5.65,3.19-8.63c2.12-0.83,3.95,0.13,6.04,0.71
	c0.71,3.99,0.03,7.82,1.12,11.53c1.32,4.49,3.27,8.51,6.65,11.74c5.3,5.07,11.53,4.09,14.88-2.36c1.22-2.36,2.31-4.81,3.17-7.32
	c0.85-2.5,1.33-5.14,1.98-7.72c2.02-0.72,2.12,1.96,3.86,1.94c2.13-1.09,3.26-3.4,4.94-5.14c0.41-0.42,0.82-0.8,1.26-1.11
	c-0.17-0.44-0.35-0.88-0.52-1.31c-0.24-0.59-0.48-1.18-0.72-1.77c-0.91,0.66-1.93,1.29-3.1,1.88
	C683.25,225.92,683.25,224.63,683.25,223.33z M638.75,228.48c-0.38,2.48-1.05,4.82-1.93,7.14c-1.4,3.71-3.17,6.95-7.92,6.9
	c-3.47-0.03-7.84-2.82-9.02-6.72c-1.3-4.3-2.66-8.72-1.4-13.93c6.07-0.36,11.71-1.02,17.2,1.34
	C638.13,224.27,639.17,225.72,638.75,228.48z M672.84,238.91c-0.53,2.02-1.16,4-2.24,5.83c-3.58,6.05-10.56,6.16-13.91-0.1
	c-2.14-4-3.63-8.36-3.34-13.11c0.28-4.51,0.97-5.22,6.18-5.02c1.6,0.29,3.82,0.76,6.07,1.11
	C674.31,228.97,675.12,230.2,672.84,238.91z"/>
<path class="st5" d="M628.23,313.39c1.56,3.11,4.83,1.44,7.05,2.52c7.33,3.58,12.52,0.17,17.42-4.84c1.42-1.45,2.7-3.18,4.78-3.8
	c0.65,0.67,0.6,1.43,0.41,2.14c-2.47,9.5-3.14,19.24-0.79,28.65c2.81,11.26-1.5,16.2-13.2,22.31c-7.08,3.7-14.29,2.56-21.4-0.22
	c-0.8,0.01-1.6,0.03-2.41,0.04c0,0.03,0.01,0.05,0.02,0.08c7.74,6.51,24.03,6.42,31.94-0.57c4.64-4.1,9.15-8.48,11.67-14.39
	c-0.16-1.33,0.51-1.81,1.32-2.15c0.69-0.29,1.49-0.49,1.94-1.03c-4.93-1.15-6.73-4.05-6.81-9.3c-0.19-12.57-0.6-24.98,6.02-36.45
	c2.05-3.55,3.61-7.5,4.47-11.61c-0.38-0.39-0.76-0.78-1.13-1.18c-0.07-0.07-0.14-0.15-0.22-0.22c-0.17,0.24-0.37,0.47-0.56,0.7
	c-0.17,0.22-0.32,0.44-0.38,0.69c-2.91,11.91-11.62,19.37-20.3,26.94c-1.94,1.69-3.67,2.14-6.1,1.66
	c-3.31-0.66-6.59-1.71-10.04-1.35C630.61,312.2,629.09,311.91,628.23,313.39z"/>
<path class="st6" d="M598.77,235.39c-0.11,0.1-0.22,0.2-0.33,0.3l0.34-0.28C598.77,235.4,598.77,235.39,598.77,235.39z"/>
<path class="st6" d="M611.9,316.51c1.31-7.5,1.99-15.26,1.49-23.74c4.35,8.04,9.58,13.92,14.4,20.07c0.14,0.18,0.29,0.36,0.43,0.55
	c0.85-1.48,2.37-1.18,3.7-1.4c-0.8-0.29-1.51-0.66-2.17-1.09c-1.45-0.95-2.64-2.23-3.76-3.76c-7.18-9.79-11.28-20.62-13.76-31.94
	c-0.89-4.05-1.57-8.15-2.11-12.3c-0.27-2.12-0.51-4.26-0.72-6.4c-0.52-5.3,0.33-10.95,0.57-16.44c0.09-2.1,0.81-4.76-2.32-5.67
	c-0.28,5.59,0.39,11.24-0.82,17.71c-5.84-4.64-4.98-11.66-8.42-16.42c-3.19-1.9-4.4-4.89-4.48-8.41c0-0.1,0-0.2,0-0.3
	c-0.06-3.24,0-6.48,0.01-9.73c-1.76,2.21-1.08,4.83-1.01,7.36c0.04,1.39-0.11,2.74-0.95,3.98c-0.34,3.54,1.63,6.23,3.59,8.73
	c5.18,6.59,5.75,15.65,11.79,21.76c0.34,0.34,0.28,1.08,0.39,1.64c1.6,7.8,2.85,15.64,3.41,23.6c0.97,13.9-0.22,27.65-2.44,41.34
	c0.31,0.42,0.62,0.84,0.94,1.26C610.53,323.47,611.29,320.02,611.9,316.51z"/>
<path class="st7" d="M616.27,159.31c-0.14,0.72-0.26,1.45-0.36,2.19C616.27,160.66,616.36,159.95,616.27,159.31z"/>
<path class="st7" d="M597,203.19c0.52,0.45,1.04,0.9,1.56,1.35c2.87-2.17,0.22-5.25,1.12-7.78c0.02-0.05,0.04-0.1,0.06-0.15
	c0.06-0.13,0.11-0.27,0.19-0.4c1.29-0.31,2.74,1.8,4.23-0.72c-1.01-6.23-5.32-12.07-5.39-19.11c3.18-0.15,4.68,2.09,7.16,3.96
	c-1.47-9.32-1.25-18.31,1.71-27.3c0.49-1.48,1.05-2.96,1.69-4.44c0.02-0.04,0.03-0.07,0.04-0.11c0.02,0.05,0.03,0.09,0.04,0.14
	c0.07,0.21,0.13,0.41,0.19,0.62c1.74,5.42,2.13,10.67,4.48,15.3c1.84-0.71,1.65-1.97,1.82-3.05c0.15-1.19-0.27-2.12-0.83-3.01
	c-0.34-0.54-0.73-1.06-1.07-1.6c-0.13-0.21-0.25-0.41-0.36-0.63c-0.33-3.7-0.58-7.41-2.25-12.13c-8.33,9.28-8.12,19.85-8.38,30.36
	c-3.36-0.32-4.56-3.57-7.26-4.45c0.17,7.38,1.93,14.34,3.73,21.33c-1.23-0.02-1.62-1.39-2.78-0.94c-0.94,1.67,0.25,3.21,0.33,4.81
	c0.12,2.46,1.9,5.17-0.7,7.39c0.2,0.17,0.4,0.35,0.6,0.52C596.96,203.16,596.98,203.18,597,203.19z"/>
<path class="st8" d="M267.44,433.27c0.01-0.01,0.01-0.01,0.02-0.02c-4.59,1.64-6.95,6.09-10.83,8.59
	c-7.33,4.72-9.95,12.18-12.04,20.01c0.78,0.49,0.94,1.2,1.02,1.94c0.06,0.57,0.06,1.16,0.24,1.69c0.19-0.98,0.42-1.93,0.68-2.87
	c2.52-9.32,8.16-16.71,15.25-23.29c1.31-1.22,2.9-2.22,4.14-3.56c0.65-0.71,1.2-1.51,1.55-2.49c-0.02,0.01-0.04,0.03-0.06,0.04
	C267.42,433.3,267.43,433.28,267.44,433.27z"/>
<path class="st9" d="M319.93,355.53c0.5,0.25,0.77,0.62,0.94,1.04c0.19,0.47,0.27,1,0.4,1.5c0.26-0.45,0.52-0.88,0.79-1.32
	c5.73-9.44,13.41-16.41,24-19.7c0.88-0.27,1.77-0.53,2.68-0.75c-0.34-0.12-0.7-0.16-1.06-0.2c-0.91-0.09-1.84-0.12-2.5-0.97
	c-3.6,0.28-6.41,2.49-9.01,4.5C330.17,344.28,322.53,347.38,319.93,355.53z"/>
<path class="st10" d="M632.16,153.73c1.63-0.53,1.92-1.49,1.93-2.55c0-0.25-0.01-0.51-0.02-0.77c-2.12-0.2-2.06-1.8-2.09-3.3
	c-0.02-0.74-0.04-1.49-0.06-2.23c-0.61-0.6-1.21-1.21-1.82-1.82c-0.07-0.07-0.14-0.13-0.21-0.2c-0.37-0.36-0.75-0.71-1.12-1.07
	C628.58,145.95,629.05,150.02,632.16,153.73z"/>
<path class="st11" d="M613.65,156.26c0.11,0.21,0.23,0.42,0.36,0.63c0.34,0.54,0.73,1.06,1.07,1.6c0.55,0.88,0.98,1.82,0.83,3.01
	c0.1-0.74,0.23-1.47,0.36-2.19c0.61-3.23,1.58-6.33,2.77-9.34c0.18-0.45,0.37-0.89,0.55-1.34c1.51-3.62,3.31-7.14,5.14-10.63
	c-0.15-0.14-0.3-0.27-0.45-0.41c-0.16-0.15-0.32-0.29-0.48-0.43c-0.24-0.22-0.48-0.44-0.72-0.66c-2.58,5.76-4.97,11.62-7.32,17.48
	C615.3,155.1,614.98,156.06,613.65,156.26z"/>
<path class="st12" d="M665.04,343.14c-0.8,0.34-1.48,0.82-1.32,2.15c0.85-0.73,1.68-0.98,2.51-0.97c1.06,0.01,2.13,0.47,3.26,1.01
	c6.81,3.28,13.67,6.44,20.51,9.63c0.37,0.17,0.74,0.35,1.11,0.52c0.06-0.05,0.11-0.1,0.17-0.15c0.42-0.38,0.85-0.75,1.27-1.13
	c-8.53-4.03-17.05-8.06-25.58-12.09C666.53,342.65,665.74,342.85,665.04,343.14z"/>
<path class="st13" d="M267.46,433.25c-0.01,0.01-0.01,0.01-0.02,0.02c-0.01,0.01-0.02,0.03-0.04,0.04c0.02-0.01,0.04-0.03,0.06-0.04
	c1.52-0.89,2.97-1.86,4.39-2.87c5.44-3.85,10.19-8.46,14.74-13.32c1.38-1.47,2.75-2.96,4.1-4.46c-0.86,0.5-1.69,1.04-2.52,1.58
	C280.23,419.37,273.69,426.14,267.46,433.25z"/>
<path class="st14" d="M608.67,332.28c0.26-1.74,0.52-3.47,0.97-5.16c0.02-0.07,0.03-0.14,0.05-0.21c-0.31-0.42-0.62-0.84-0.94-1.26
	c-1.64,3.3-1.46,7.2-3.36,10.41c0.25,0.14,0.42,0.31,0.58,0.49c0.76,0.87,0.56,2.11,0.8,3.17c0.35-0.76,0.62-1.53,0.85-2.32
	C608.12,335.73,608.41,334.01,608.67,332.28z"/>
<path class="st15" d="M291.38,412.11c1.38-0.8,2.64-1.76,3.85-2.78c0.84-0.7,1.65-1.43,2.46-2.17c0.88-0.8,1.76-1.6,2.67-2.36
	c0.28-0.24,0.57-0.46,0.86-0.69c0.18-0.14,0.35-0.29,0.53-0.42c-0.09-0.01-0.18-0.02-0.27-0.03c-0.36-0.05-0.72-0.09-1.07-0.14
	C296.8,405.75,293.03,407.81,291.38,412.11z"/>
<path class="st16" d="M450.36,530.38c-2.89-4.95-2.28-10.57-3.04-15.92c-1.07-7.62-1.95-15.27-2.91-22.91
	c-0.01-0.05-0.01-0.1-0.02-0.15c-2-12.95-3.1-26.02-4.52-40.13c-3.95,5.06-2.7,11-6.54,14.77c-1.72-1.16-1-2.67-0.56-4.08
	c0.82-2.64,0.52-5.27,0.12-7.91c-1.73-11.26-3.5-22.52-5.12-33.8c-0.24-1.65-0.98-3.68,1.82-5.65c0.06-0.04,0.12-0.09,0.18-0.13
	c0.02,0.06,0.03,0.12,0.05,0.18c3.69,11.51,3.34,23.56,7.32,34.79c9.35-16.87,24.87-22.14,42.46-23.66c0.56-5.06-0.66-9.72-1-14.43
	c-0.79-11.19-1.77-22.38-3.18-33.5c-0.85-6.74-1.98-13.82-9.76-16.62c-4.96-1.78-9.94-3.52-14.64-5.74
	c-5.77,3.75-9.93,8.68-13.87,13.83c-0.94,1.23-1.52,3.39-3.92,1.77c3.32-6.25,8.68-11.05,11.95-17.13
	c-3.32-6.83-9.14-10.2-15.93-12.15c-7.74-2.22-15.29-4.7-20.77-11.14c-0.88-1.03-2.06-1.68-4.01-1.2c-1.61,3.76-3.98,7.3-7.99,9.54
	c-4.06,2.27-8.44,3.46-12.93,4.26c-2.8,0.49-4.77,1.82-6.54,4.02c-10.95,13.64-21.78,27.39-33.14,40.69
	c-3.96,4.63-4.61,8.69-2.89,14.38c7.37,24.26,16.86,47.62,28.29,70.22c2.65,5.25,6.23,10.29,7.57,15.87
	c1.22,5.06,3.45,8.48,7.33,11.51c15.46,12.06,31.44,23.36,48.79,32.52c5.18,2.71,8.58,5.81,8.57,11.87c0,0.25,0.5,0.51,1.08,1.07
	c3.06-1.58,8.12-0.12,8.87-5.83c-0.04-0.15-0.09-0.31-0.13-0.46C450.55,536.27,449.4,533.45,450.36,530.38z M381.94,488.1
	c-3.06-27.72-7.25-55.4-2.48-83.37c-0.1-5.28,1.64-10.21,3.07-15.22c-0.04,7.47-0.33,14.9-1.94,22.23c-1,21.9,1.38,43.7,1.96,65.55
	C382.64,480.89,382.56,484.49,381.94,488.1z"/>
<path class="st17" d="M404.59,562.1c2.77-6.8,8.1-9.05,14.97-8.91c4.24,0.1,8.26-1.17,12.29-2.25c2.5-0.67,5.54-1.08,5.76-4.51
	c0.23-3.59-0.66-6.69-4.31-8.56c-3.88-1.99-7.63-4.25-11.32-6.58c-10.94-6.88-21.38-14.49-31.8-22.13c-1.69-1.24-3.2-3.32-6.02-2.38
	c-9.2,3.08-18.94,3.89-28.24,6.57c-3.31,0.96-6.33,2.24-8.51,5.28c-7.27,10.13-14.59,20.24-21.79,30.42
	c22.1,12.3,46.08,21.37,71.24,26.67c1.32-2.19,2.69-4.36,4.16-6.47C402.23,566.87,403.59,564.56,404.59,562.1z"/>
<path class="st18" d="M669.49,345.33c-1.12-0.54-2.19-0.99-3.26-1.01c-0.83-0.01-1.66,0.24-2.51,0.97
	c-2.52,5.91-7.03,10.29-11.67,14.39c-7.92,6.99-24.21,7.08-31.94,0.57c-0.03-0.03-0.07-0.05-0.1-0.08
	c-7.03-4.22-11.14-10.73-14.24-18.03c-0.06-0.14-0.12-0.27-0.17-0.41c-1.13-3.12-3.39-3.76-6.37-3c-1.46,0.37-2.97,0.56-4.47,0.81
	c-14.06,2.31-27.92,5.31-40.99,11.28c-3.4,1.55-5.5,3.89-6.48,7.41c-2.39,8.6-5.2,17.04-8.75,25.24
	c-4.66,10.76-10.76,21.04-11.27,33.23c-0.04,0.89-0.65,1.78-1.08,2.63c-3.99,7.81-6.45,16.21-9.69,24.52
	c2.6,3.03,5.4,5.78,8.64,8.16c6.58,4.85,9.42,4.58,14.6-1.73c0.48-0.58,0.7-1.4,1.23-1.91c2.41-2.32,4.7-4.91,8.47-4.82
	c0.03,0,0.07,0,0.1,0c0.44-0.41,0.86-0.58,1.28-0.46c2.37-0.86,3.05-0.73,7.79,0.22c-3.07-18.45-2.17-36.81-4.95-55.27
	c5.57,1.22,7.58,3.56,6.8,7.97c-0.71,4.02-1.19,7.86,0.69,11.65c0.57,1.16,0.1,2.25-0.15,3.33c-2.52,10.93-0.88,21.86,0.04,32.76
	c0.31,3.61,4.21,5.9,4,10.01c-0.09,1.8,0.46,3.73,0.39,5.63c1.78,2.04,2,4.76,3.48,7.11c-1.78,2.5-3.47,4.87-5.15,7.24
	c-0.15,0.21-0.3,0.43-0.46,0.64c-5.07,7.35-4.19,15.23-2.08,23.22c0.48,1.83,1.11,3.63,1.46,5.48c1.37,7.24,2.83,14.37-0.31,21.71
	c-1.76,4.11-2.56,8.71-3.25,13.17c-0.68,4.39-1.51,9.05,2.18,12.64c1.3,0.06,2.11-0.49,2.66-1.25c4.88-6.75,9.31-13.78,13.03-21.25
	c-0.25-0.79-0.47-1.58-0.7-2.37c-2.64-9.15-4.23-18.54-6.36-27.8c-1.71-7.44-3-14.84-1.26-22.46c0.3-1.31,0.38-2.65,1.94-3.44
	c2.42,1.58,3.19,4.4,3.08,6.8c-0.35,7.84,3.17,14.76,4.78,22.1c1.19,5.41,2.3,10.8,3.07,16.26c0.13,0.88,0.26,1.76,0.37,2.65
	c3.19-6.16,7.26-11.83,10.06-18.2c-0.27-0.48-0.56-0.93-0.83-1.39c-0.51-0.88-0.94-1.8-1.02-3.11c-0.54-8.88-1.07-17.83-2.64-26.57
	c-1.25-7-2.13-13.81-0.72-20.82c0.18-0.91,0.3-2.01-0.03-2.83c-4.28-10.46,1.03-20.48,1.37-30.72c0.06-1.7,0.72-3.63,2.18-4.49
	c2.46-1.46,3.24-3.78,3.62-6.15c0.97-6.14,4.22-11.04,7.74-15.91c2.43-3.37,5.93-4.81,9.68-5.34c5.04-0.71,9.87,0.04,14.99,1.35
	c4.71,1.21,7.84,3.59,11.02,6.49c2.24,2.04,5.2,2.18,7.96,3.62c0.71,2.93,1.84,5.82,3.82,8.27c0.28,0.34,0.57,0.68,0.89,1.01
	c0.8-0.81,1.73-1.52,2.37-2.44c11.33-16.39,23.11-32.38,38.25-45.57c0.35-0.31,0.34-1.04,0.5-1.57c-0.37-0.17-0.74-0.35-1.11-0.52
	C683.16,351.77,676.3,348.61,669.49,345.33z"/>
<path class="st19" d="M518.46,219.71c0.13-0.13,0.26-0.27,0.39-0.4c-0.45-1.04-0.84-2.11-1.36-3.11
	c-6.81-12.95-15.3-24.78-24.11-36.41c-0.16-0.17-0.31-0.34-0.47-0.51c-6.84-7.41-13.74-14.78-20.49-22.31
	c8.72,5.52,15.71,12.82,21.97,20.9c0.12,0.16,0.25,0.31,0.37,0.47c14.76,16.51,25.66,35.52,35.34,55.87c2.6-3.41,0.4-6.33,0.72-9.06
	c1.42-12.02-1.08-23.91-0.91-35.88c0.03-2.48-1.01-4.29-2.98-5.82c-4.65-3.6-9.15-7.42-13.8-11.03
	c-12.36-9.58-25.21-18.29-40.66-22.24c-0.74-0.19-1.4-0.57-1.69-1.88c1.49-3.09,4.11-1.77,6.57-1.19
	c13.8,3.27,25.14,11.37,36.85,18.77c4.28,2.7,8.08,6.26,13.58,8.37c-4.16-7.59-8.96-13.72-14.26-19.42
	c-10.44-11.17-21.67-21.34-36.44-26.64c-3.21-1.15-6.41-2.32-9.55-0.84c-1.26,1.86,0.06,3.82-1,6.59c-0.01,0.03-0.02,0.05-0.03,0.07
	c-0.01-0.02-0.03-0.04-0.04-0.06c-7.76-11.49-15.97-6.66-24.17-1.94c-0.33,0.19-0.64,0.41-0.96,0.61
	c-27.02,16.68-42.98,41.9-54.14,70.93c17.29-26.75,38.72-49.51,64.12-68.59c2.92,2.71,2.1,4.55-0.32,6.76
	c-5.04,4.58-11.38,7.87-15.14,13.67c-11.64,18.03-22.89,36.31-31.45,56.08c0.11,0.57,0.17,1.17,0.42,1.67
	c0,0.01,0.01,0.02,0.01,0.03c0.18,0.33,0.45,0.62,0.9,0.8c14-16.13,29.57-30.55,46.79-43.2c2.95-2.16,6.13-3.46,9.34-4.72
	c2.86,3.16-0.29,3.9-1.68,4.75c-15.52,9.45-29.47,20.88-41.74,34.21c-10.62,11.54-22.16,22.59-25.89,38.84
	c-1.19,5.17-2.92,10.22-4.4,15.33c-5.42,18.66-7.39,37.88-8.52,57.15c-0.42,7.09-0.48,14.32,0.53,21.46c0.03,0.2,0.05,0.4,0.08,0.6
	c6.95,2.83,16.13-1.39,18.93-8.5c6.53-16.55,10.1-33.85,13.01-51.29c1.31-7.85,2.46-15.45-0.55-23.85
	c-3.55-9.89-0.98-20.34,4.87-29.43c1.4-2.17,2.95-4.65,6.27-4.03c3.25,0.61,3.86,3.26,4.49,5.91c1.68,7.04,2.23,14.21,2.21,21.5
	c0.41-0.15,0.7-0.17,0.75-0.29c0.44-1.02,0.92-2.03,1.25-3.08c5.25-16.83,14.29-31.41,26.28-44.21c5.9-6.3,13.57-8.73,21.87-8.86
	c6.91-0.11,12.76,3.24,18.2,7.25c7.9,5.82,13.7,13.58,19.66,21.19c0.22-0.22,0.44-0.45,0.65-0.67
	C518.25,219.93,518.36,219.82,518.46,219.71z"/>
<path class="st20" d="M472.18,349.42c5.04-12.07,10.32-24.02,17.59-35c6.29-9.5,11.2-19.75,10.08-31.39
	c-0.62-6.42,0.76-11.78,4.37-16.51c3.65-4.77,2.41-9.42,1.51-14.44c-4.14-0.86-7.21,1.29-10.54,2.45
	c-3.06,1.07-5.96,3.99-10.04,1.19c8.41-5.76,16.57-10.23,26.79-6.4c1.55-2.93,2.59-5.89,4.46-8.17c2.29-2.78,1.71-5,0.16-7.69
	c-4.09-7.08-9.13-13.5-13.75-20.22c-4.86-7.08-11.76-11.31-19.21-14.62c-5.6-2.49-11.43-2.9-15.87,3.02
	c-1.22,1.62-3.15,2.72-4.82,3.98c-9.09,6.86-16.27,15.44-21.79,25.3c-9.49,16.94-12.68,35.22-10.64,54.48
	c0.21,2.03,0.81,4.12-0.22,6.13c-3.19,0.72-2.77-1.71-3.08-3.45c-2.37-13.37-2.88-26.79-1.36-40.3c0.64-5.67,1.08-11.4,0.39-17.08
	c-0.37-3.08-0.73-6.75-5.44-6.42c-0.05,3.8,3.72,7,1.58,11.19c-1.42,0.76-1.5-0.96-2.38-1.62c-2.08,1.04-1.43,3.49-2.46,5.05
	c-1.86,0.27-1.51-1.21-1.77-2.19l-0.47-0.02l-0.47,0.01c-2.01,4.29-1.57,8.88-1.65,13.41c-0.03,1.99,1.08,2.6,2.75,2.75
	c-1.72-3.34,0.12-6.59,0.32-9.88c0.07-1.09,1.01-2.06,2.36-1.95c1,0.09,1.82,0.7,2.03,1.68c0.23,1.05,0.47,2.31-1.28,2.43
	c-1.85,0.13-1.44,1.7-1.09,2.46c1.48,3.27-0.89,5.15-2.35,7.38c-0.07,0.92-1.3,1.79-0.58,2.63c2.85,3.31,1.91,7.18,1.76,10.9
	c-0.24,5.68-1.19,11.28-0.65,17.06c1.8,19.19,10.09,35.58,21.07,50.93c5.75,8.03,11.57,15.49,21.99,18.37
	C466.23,356.74,469.39,356.11,472.18,349.42z M501.15,261.06c0.12,1.91,0.68,3.62-1.45,5.07c-2.01-0.43-4.35-1.38-6.95-0.48
	c-0.15,1.96-1.27,3.67-2.05,5.53c-0.78,1.86-1.8,3.45-4.18,2.95c-2.22-0.47-2.98-2.12-3.08-4.2c-0.06-1.13-0.13-2.26-0.21-3.54
	C488.51,262.14,494.41,260.41,501.15,261.06z M479.06,258.52c-2.95,7.92-1.11,15.45,0.46,23.05c1.75,8.47-0.68,12.87-8.05,14.83
	c0.02-2.71,2.25-3.35,3.81-4.35c2.56-1.65,3.42-3.55,2.59-6.68c-1.31-4.95-2.21-10.02-3.07-15.08
	C474.02,265.66,475.22,261.59,479.06,258.52z M459.44,227.11c7.61,6.66,11.94,15.44,15.38,24.73c0.16,0.44-0.08,1.05-0.19,1.58
	c-0.03,0.14-0.25,0.24-0.84,0.77c-6-9.9-8.45-23.31-23.66-24.53C453.32,223.25,454.61,222.89,459.44,227.11z M446.06,244.08
	c6.61-0.04,19.52,10.21,21.61,17.13c-2.9-0.13-6.64-2.63-8.82-5.9c-1.36,0.51-1.5,2.06-2.47,2.91c-0.85,0.74-1.65,1.53-2.44,2.27
	c-4.52-2.89-4.9-5.07-2.17-11.54c-0.52-1-1.49-0.85-2.38-0.98c-0.89-0.14-1.64,1.04-2.57,0.27
	C445.9,246.94,445.18,245.65,446.06,244.08z M466.33,292.69c-3.43-2.22-5.6-4.54-5.87-8.7
	C467.67,286.95,468.26,287.79,466.33,292.69z M455.85,323.5c-3.14-0.65-3.99-3.6-5.72-5.67c-3.29-3.27-3.29-3.27-3.07-7.86
	c4.1-1.12,8.25-2.31,12.42-3.37c1.08-0.27,2.27-0.26,3.39-0.16c8.42,0.76,17.25,11.98,15.96,20.23c-0.52,3.32-4.65,5.51-8.37,4.2
	C465.29,329.04,460.23,326.93,455.85,323.5z"/>
<path class="st20" d="M455.91,321.98c0.03-0.02,0.06-0.04,0.09-0.05c-0.03,0-0.06-0.01-0.08-0.01
	C455.92,321.94,455.91,321.96,455.91,321.98z"/>
<path class="st20" d="M526.78,509.64c7.34-8.46,14.66-17.01,22.81-24.65c4.16-3.9,9.54-6.51,12.6-11.68c0.07-0.18,0.08-0.4,0.2-0.53
	c0.01-0.01,0.01-0.02,0.02-0.02c2.38-2.37,3.51-4.95,3.54-7.72c0.02-1.78-0.41-3.63-1.27-5.56c-0.43-1.83-0.92-3.65-1.28-5.5
	c-0.24-1.25-1-2.62-2.02-3.85c-1.7-2.03-4.14-3.68-6.2-3.81c-0.76-0.05-0.99,1.01-1.23,1.71c-1.48,4.03-5.1,6.35-7.67,9.51
	c1.86,2.73,3.96,1.4,5.93,0.24c1.6-0.94,3.07-2.12,4.95-3.45c0.45,3.01-0.08,5.7,1.71,8.48c-4.4,0.91-7.79,2.76-10.46,5.8
	c-1.59,1.82-3.71,1.33-5.73,1.19c0,0.02,0,0.03,0,0.05c-0.04,0.01-0.08,0.01-0.12,0.02c-0.11,1.43-1.1,1.7-2.3,1.68
	c-5.05-0.1-6.1,2.92-5.86,6.95c0.01,0.17,0.02,0.33,0.03,0.5c0.03,1.87-1.67,1.8-2.74,2.35c-12.18,6.21-24.36,12.44-36.61,18.52
	c-4.94,2.45-8.5,5.41-7.65,11.72c0.32,2.37-0.49,4.89-0.78,7.35l0,0c0.01,0.07,0.01,0.14,0.01,0.21c0.22,2.76,0.15,5.54-0.14,8.78
	c0.02-0.02,0.05-0.02,0.07-0.04c0.37-0.34,0.17,0.1-0.09,0.23c-0.07,0.78-0.15,1.58-0.25,2.42c-1.77-4.41-1.81-8.31-1.73-12.12
	c0.01-0.6,0.03-1.19,0.04-1.79c-1.29-27.64-3.83-55.14-9.29-82.83c-11.65-0.71-21.97,2.21-30.04,11.14c-2.06,2.28-3.51,5.1-0.1,7.83
	c1.16,0.93,0.52,2.5,0.53,3.78c0.06,9.67,0.08,19.35,0.12,29.03c0.41,0.9,0.42,1.85,0.37,2.8c-0.01,0.12-0.01,0.23-0.01,0.35
	c0.08,0.68,0.15,1.36,0.23,2.04c0.85,7.61,1.7,15.22,2.58,22.82c0.36,3.1,0.75,6.2,1.14,9.3c0.32,2.5,0.64,5,0.95,7.5
	c0.02,1.68,0.61,3.29,1.03,4.92c0.33,1.27,0.56,2.55,0.34,3.9c-0.02,0.12-0.03,0.24-0.06,0.36c2.68,11.94,3.24,24.21,4.76,36.51
	c2.06-0.12,3.5-1.88,3.91-0.93c1.63,3.73,5.48,2.61,8.12,4.06c0.68,0.37,1.3,0.69,1.89,0.96c2.34-0.2,4.67-0.43,7.02-0.7
	c0.81-0.86,1.61-2.06,2.51-3.63C493.97,552.37,509.06,530.07,526.78,509.64z M533.1,483.42c-1.66,3.08-4.72,4.17-7.71,5.4
	C527.18,485.99,530.21,484.82,533.1,483.42z"/>
<path class="st21" d="M357.42,508.57c7.51-1.54,14.95-3.48,23.52-5.52c-5.86-5.94-12.37-9.89-16.3-16.26
	c3.46-2.35,5.06,0.98,8.11,2.15c-6.47-11.37-12.17-21.95-17.29-32.84c-8.79,1.92-16.66,5.2-24.76,7.74
	c-5.68,1.77-10.88,3.56-15.52,7.62c-5.39,4.72-10.72,9.58-16.6,13.77c-3.36,2.39-6.85,5.04-9.19,8.35
	c-4.56,6.45-8.74,13.16-13.03,19.8c14.12,13.01,29.65,24.42,46.29,33.97c8.16-11.57,16.75-22.83,25.8-33.77
	C351.02,510.48,353.79,509.32,357.42,508.57z"/>
<path class="st22" d="M406.67,563.71c-1.46,2.62-3.03,5.18-4.55,7.76l0,0c-0.86,1.59-1.72,3.18-2.58,4.77
	c3.39,0.68,6.79,1.3,10.22,1.83c4.02-7.36,8.52-14.47,12.44-21.97C414.74,555.37,409.96,557.79,406.67,563.71z"/>
<path class="st18" d="M684.38,401.25c-8.39,9.99-15.3,21.09-22.7,31.8c0.45,0.31,0.87,0.65,1.25,1.01
	c3.16,2.89,4.36,7.11,5.79,10.79c1.05,2.71,2.06,5.45,3.05,8.18c0.16-0.26,0.32-0.51,0.47-0.77c9.39-15.75,16.98-32.43,21.72-50.26
	c0.29-0.59,0.68-1.15,0.87-1.77c1.28-4.19,2.46-8.4,3.52-12.62c0.26-1.04,0.5-2.08,0.75-3.12
	C693.7,389.59,689.16,395.56,684.38,401.25z"/>
<path class="st19" d="M480.05,365.94c0.2-0.33,0.39-0.66,0.58-0.99c6.39-10.84,12.17-22,17.49-33.4c1.2-4.56-0.43-9.53,2.01-13.92
	c2.58-15.19,5.16-30.38,7.73-45.56c0.01,0.9,0.01,1.81,0,2.71c0.06-0.55,0.12-1.1,0.17-1.66c0.67-0.08,0.04-0.07,0.02,0.16
	c-0.06,0.65-0.14,1.3-0.2,1.95c-0.24,14.83-3.56,29.24-6.35,43.72c-2.02,3.97,1.46,8.77-1.88,12.55
	c-5.03,12.13-10.37,24.1-17.9,34.95c-0.18,0.26-0.35,0.53-0.53,0.79c-0.12,1.28-1.73,2.12-0.96,3.93
	c6.68,2.91,12.68,7.5,19.09,11.34c0.86-1.22,1.5-2.11,2.13-2.99c0.04-0.24,0.1-0.47,0.14-0.71c0.72-3.51,2.26-6.74,3.43-10.1
	c11.38-32.83,16.44-67.01,21.7-101.16c-1.13,1.25-1.8,2.71-2.33,4.23c-0.64,1.83-1.09,3.74-1.87,5.5
	c-1.46,3.28-2.42,6.78-3.77,10.11c-4.13,10.17-8.34,20.31-12.55,30.45c-0.12,0.3-0.52,0.48-1.28,1.15c0.81-4.77,2.83-8.56,4.3-12.54
	c5.03-13.68,10.51-27.19,14.91-41.1c0.2-0.62,0.54-1.19,0.88-1.77c0.14-0.24,0.28-0.47,0.41-0.71l0,0l0,0
	c0.56-2.18,0.94-4.42,1.72-6.51c3.52-9.34,2.01-17.92-2.87-26.03c-0.32-0.54-0.66-1.07-1.01-1.6c0,0.01,0,0.01,0,0.02
	c-0.01-0.01-0.02-0.02-0.04-0.03c-0.01-0.01-0.02-0.02-0.04-0.03c-0.38,1.44-0.43,2.82-0.21,4.37c0.83,5.86,0.93,11.8,0.14,17.65
	c-0.68,5.03-1.25,10.18-4.13,15.85c-0.06,0.12-0.12,0.25-0.18,0.37c-0.02-0.21-0.02-0.42-0.03-0.63
	c-0.45-8.07,2.09-15.17-0.81-22.47c-1.78,2.01-2.88,4.02-3.37,6.17c-1.17,5.09-3.69,9.56-6.14,14.05
	c-3.8,6.95-6.53,14.12-5.98,22.26c0.14,2.04-0.41,4.14-0.76,6.2c-2.24,13.04-8.16,24.61-15.79,35.05
	c-7.23,9.91-9.31,22.13-17.17,32.51c5.2-0.42,8.13,1.03,9.18,5.29C478.17,366.35,479.02,366.9,480.05,365.94z"/>
<path class="st23" d="M639.79,471.18c-0.35-0.53-0.73-1.06-1.16-1.57c-2.43,4-4.86,8-7.28,11.99c0.06,0.37,0.1,0.74,0.15,1.11
	c0.09,0.3,0.23,0.57,0.4,0.81c0.76,1.03,2.21,1.5,3.78,1.99c-3.72,5.15-1.54,10.07-0.35,14.52c0.12,0.46,0.24,0.93,0.36,1.39
	c3.55-3.83,7.02-7.77,10.4-11.86c-0.45-1.35-0.9-2.7-1.33-4.06C643.21,480.62,642.63,475.51,639.79,471.18z"/>
<path class="st23" d="M614.27,515.33c-0.27-0.44-0.59-0.85-1.02-1.22c-3.45,5.04-6.21,10.46-8.96,15.89
	c1.09-0.84,2.18-1.69,3.26-2.55c2.82-2.23,5.61-4.51,8.34-6.87c-0.03-0.1-0.06-0.2-0.09-0.3
	C615.33,518.63,615.18,516.82,614.27,515.33z"/>
<path class="st23" d="M645.3,395.78c-2.76-1.43-5.72-1.58-7.96-3.62c-3.18-2.9-6.31-5.28-11.02-6.49
	c-5.12-1.31-9.95-2.07-14.99-1.35c-3.76,0.53-7.25,1.97-9.68,5.34c-3.51,4.87-6.77,9.77-7.74,15.91c-0.37,2.36-1.16,4.69-3.62,6.15
	c-1.45,0.86-2.12,2.79-2.18,4.49c-0.34,10.24-5.65,20.26-1.37,30.72c0.33,0.82,0.22,1.92,0.03,2.83c-1.4,7.01-0.53,13.82,0.72,20.82
	c1.56,8.74,2.09,17.69,2.64,26.57c0.08,1.3,0.51,2.22,1.02,3.11c0.27,0.46,0.55,0.91,0.83,1.39c5.39-8.24,9.51-17.14,13.65-26.03
	c-0.09-0.82-0.15-1.63-0.23-2.44c-0.47-5.02-0.73-10.02-0.56-15.11c0.26-7.75,0.34-15.52-0.14-23.31
	c-0.5-8.01-0.72-16.17,4.03-23.55c1.96-3.05,1.04-7.52,4.53-10.47c1.64,1.44,3.9,2.54,6.26,3.49c1,0.4,2.46,0.47,2.86,1.66
	c2.3,6.88,9.97,9.73,12.35,16.54c0.21,0.61,0.61,1.09,1.11,1.48c0.4,0.31,0.86,0.56,1.37,0.73c4.27-6.52,9.11-12.66,12.8-19.56
	c-0.31-0.33-0.61-0.66-0.89-1.01C647.13,401.6,646.01,398.71,645.3,395.78z"/>
<path class="st18" d="M643.4,469.43c-1.6-1.59-3.3-2.94-4.76,0.19c0.43,0.51,0.81,1.03,1.16,1.57c2.84,4.33,3.42,9.44,4.96,14.32
	c0.43,1.36,0.88,2.71,1.33,4.06c0.54-0.65,1.06-1.32,1.59-1.98c1.72-2.12,3.41-4.28,5.08-6.46c0.33-0.43,0.66-0.86,0.99-1.3
	C650.41,476.24,646.87,472.87,643.4,469.43z"/>
<path class="st19" d="M552.6,556.72c-0.61-9.39,0.05-18.73,2.81-27.48c4.64-14.73,1.28-29.19,1.12-44.37
	c-1.26,0.73-1.82,0.9-2.17,1.27c-8.12,8.8-16.21,17.63-24.33,26.43c-1.22,1.33-1.73,2.65-1.63,4.59c0.35,7.03,0.56,14.07,0.53,21.11
	c-0.04,10.16,0.2,20.32-0.01,30.47c8.15-2.54,16.05-5.46,23.73-8.73C552.69,558.92,552.67,557.82,552.6,556.72z"/>
<path class="st24" d="M621.24,359.17c0.42,0.32,0.83,0.65,1.26,0.96c7.11,2.79,14.31,3.92,21.4,0.22
	c11.7-6.11,16.01-11.05,13.2-22.31c-2.35-9.42-1.68-19.16,0.79-28.65c0.18-0.71,0.23-1.47-0.41-2.14c-2.08,0.62-3.37,2.36-4.78,3.8
	c-4.9,5.01-10.09,8.42-17.42,4.84c-2.22-1.08-5.49,0.59-7.05-2.52c-0.14-0.18-0.29-0.36-0.43-0.55
	c-4.82-6.14-10.05-12.02-14.4-20.07c0.49,8.48-0.18,16.24-1.49,23.74c-0.61,3.51-1.37,6.96-2.21,10.4
	c-0.02,0.07-0.03,0.14-0.05,0.21c-0.45,1.69-0.71,3.43-0.97,5.16c-0.26,1.73-0.55,3.45-1.04,5.12c-0.23,0.78-0.5,1.56-0.85,2.32
	c0,0.29-0.03,0.57-0.1,0.85c0.13,0.29,0.29,0.57,0.42,0.86C610.46,348.44,615.05,354.46,621.24,359.17z M620.2,310.58
	c0.68,10.22,5.3,19.16,9.98,29.37C623.25,334.98,618.15,319.34,620.2,310.58z"/>
<path class="st0" d="M522.87,519.1c-12.54,15.65-22.42,31.72-32.56,48.88c2.61,2.22,5.24,4.14,7.51,6.43
	c0.61,0.61,1.18,1.17,1.72,1.69c8.34-1.62,16.45-3.58,24.36-5.87C524.38,553.36,524.05,536.4,522.87,519.1z"/>
<path class="st16" d="M487.38,570.97c-0.53,3.04-1.42,5.57-2.67,7.62c0.16-0.02,0.32-0.04,0.48-0.06c2.99-0.43,5.95-0.91,8.88-1.42
	C492.28,574.97,490.29,572.77,487.38,570.97z"/>
<path class="st16" d="M451.76,567.8c-1.63,0.85-2.87,1.93-4.23,2.12c-4.3,0.59-5.44,3.07-5.54,7.1c-0.03,1.33-0.12,2.66-0.25,3.99
	c5.73,0.16,11.49,0.14,17.28-0.1C455.41,577.9,453.16,573.37,451.76,567.8z"/>
<path class="st18" d="M616.73,508.22c-0.03-0.19-0.09-0.37-0.14-0.55c-1.11,2.15-2.23,4.3-3.34,6.44c0.43,0.37,0.76,0.78,1.02,1.22
	c0.91,1.49,1.06,3.29,1.52,4.95c0.03,0.1,0.06,0.2,0.09,0.3c0.49-0.42,0.97-0.86,1.46-1.29c0.77-0.68,1.54-1.37,2.3-2.06
	c-1.3-2.15-2.02-4.59-2.55-7.13C616.96,509.48,616.85,508.85,616.73,508.22z"/>
<path class="st18" d="M635.68,485.52c-1.58-0.49-3.03-0.97-3.78-1.99c-0.17-0.24-0.31-0.5-0.4-0.81c-0.1-0.33-0.16-0.68-0.15-1.11
	c-2.24,4.07-4.47,8.14-6.71,12.21c0.13,0.72,0.25,1.44,0.37,2.17c0.8,4.66,1.53,9.33,2.36,13.99c2.3-2.26,4.57-4.58,6.8-6.95
	c0.5-0.53,1.01-1.06,1.51-1.6c-0.12-0.46-0.23-0.93-0.36-1.39C634.14,495.59,631.97,490.67,635.68,485.52z"/>
<path class="st18" d="M634.73,422.42c-2.38-6.81-10.05-9.66-12.35-16.54c-0.4-1.19-1.86-1.27-2.86-1.66
	c-2.36-0.95-4.63-2.05-6.26-3.49c-3.49,2.95-2.57,7.42-4.53,10.47c-4.75,7.38-4.53,15.54-4.03,23.55
	c0.49,7.79,0.41,15.56,0.14,23.31c-0.17,5.09,0.09,10.1,0.56,15.11c0.08,0.81,0.14,1.63,0.23,2.44c2.52-4.27,5.03-8.54,7.55-12.81
	c-0.35-0.64-0.59-1.28-0.73-1.91c-0.61-2.76,0.57-5.42,1.74-7.73c1.93-3.84,3.9-7.57,4.3-11.75c2.69-0.89,3.5,0.67,4.37,2.1
	c0.28,0.46,0.57,0.91,0.93,1.26c4.47-6.71,8.94-13.43,13.41-20.14c-0.51-0.17-0.97-0.42-1.37-0.73
	C635.34,423.51,634.94,423.03,634.73,422.42z"/>
<path class="st16" d="M485.17,432.28c-0.27-0.41-0.95-0.56-0.79-0.47c-4.11,0.77-3.46,3.53-3.13,5.97
	c1.75,12.83,2.07,25.77,3.31,38.63c0.54,5.61,0.49,11.39,2.34,16.86c9.25-2.5,14.73-9.41,14.6-18.59
	C501.27,458.57,493.74,445.21,485.17,432.28z"/>
<path class="st25" d="M662.93,434.06c-0.39-0.36-0.8-0.69-1.25-1.01c-3.68,5.97-7.13,12.09-11.13,17.84c-2.63,3.78-1.7,6.23,1,9.45
	c2.9,3.46,5.98,6.7,9.2,9.78c0.33-0.47,0.65-0.95,0.97-1.42c3.01-4.41,5.94-8.94,8.78-13.59c0.42-0.7,0.86-1.38,1.28-2.08
	c-0.99-2.74-2-5.47-3.05-8.18C667.29,441.17,666.09,436.95,662.93,434.06z"/>
<path class="st16" d="M322.06,356.75c-0.26,0.44-0.53,0.87-0.79,1.32c-0.06,1.98-1.03,3.64-1.89,5.33
	c-4.88,9.6-8.01,19.87-11.59,30.04c17.99-16.73,32.11-36.64,48.11-55.57c-2.84-0.62-5-1.09-7.17-1.56
	c-0.92,0.22-1.81,0.48-2.68,0.75C335.47,340.34,327.78,347.31,322.06,356.75z"/>
<path class="st26" d="M407.72,318.9c-0.49,1.89,0.4,3.24,1.5,4.64c5.77,7.31,13.16,12.4,21.69,15.91c0.66,0.27,1.49,0,2.08-1.36
	c-9.12-13.06-15.87-27.54-18.7-44.84C411.91,302.54,409.82,310.73,407.72,318.9z"/>
<path class="st27" d="M578.48,500.93c-1.62-7.34-5.14-14.26-4.78-22.1c0.11-2.4-0.67-5.22-3.08-6.8c-1.56,0.79-1.64,2.13-1.94,3.44
	c-1.75,7.62-0.45,15.01,1.26,22.46c2.12,9.27,3.71,18.66,6.36,27.8c0.23,0.79,0.45,1.59,0.7,2.37c1.65-2.75,3.29-5.5,4.94-8.25l0,0
	c-0.11-0.89-0.24-1.77-0.37-2.65C580.78,511.73,579.67,506.34,578.48,500.93z"/>
<path class="st28" d="M624.64,493.82c-2.68,4.62-5.37,9.23-8.05,13.85c0.05,0.18,0.11,0.36,0.14,0.55c0.11,0.63,0.23,1.27,0.36,1.89
	c0.53,2.54,1.25,4.98,2.55,7.13c0.6-0.54,1.21-1.07,1.81-1.62c1.42-1.3,2.81-2.63,4.2-3.97c0.58-0.55,1.15-1.11,1.72-1.67
	c-0.82-4.65-1.56-9.33-2.36-13.99C624.89,495.26,624.77,494.54,624.64,493.82z"/>
<path class="st29" d="M402.12,571.48c-0.9-0.49-1.04-1.34-1.08-2.24c-1.46,2.11-2.84,4.28-4.16,6.47c0.47,0.1,0.95,0.19,1.43,0.29
	c0.07,0.01,0.14,0.03,0.22,0.04c0.34,0.07,0.68,0.13,1.02,0.2C400.4,574.66,401.26,573.07,402.12,571.48L402.12,571.48z"/>
<path class="st30" d="M532.07,460.41c0.05-0.66,0.13-1.33,0.25-2c-2.99,0.47-5.69-1.93-9.06-0.89c-0.33,8.24,0.61,16.37,1.3,24.92
	c3.12-1.34,5.85-2.52,8.59-3.69c0.04-0.28,0.06-0.55,0.09-0.83C533.82,472.05,531.62,466.29,532.07,460.41z"/>
<path class="st31" d="M435.19,580.75c1.16,0.06,2.32,0.11,3.49,0.16c0-1.99,0-3.94,0-5.81
	C437.13,576.84,436.02,578.74,435.19,580.75z"/>
<path class="st32" d="M545.02,456.15c-0.98,1.4-1.19,2.9,0.13,4.08c2.6,2.33,1.76,4.69,0.71,7.38c-0.05,0.14-0.11,0.28-0.16,0.42
	c-0.08-0.09-0.14-0.17-0.21-0.26c-2.77-3.23-2.92-6.83-2.93-10.42c0-1.19,0.01-2.39-0.06-3.56c-1.69,1.08-0.38,3.41-1.9,4.56
	c-0.02,0.11-0.03,0.23-0.04,0.34c-0.48,3.59,1.86,6.66,2.11,10.11c0.02,0.33,0.03,0.67,0.02,1.01c2.02,0.14,4.14,0.63,5.73-1.19
	c2.67-3.04,6.06-4.9,10.46-5.8c-1.79-2.78-1.26-5.47-1.71-8.48c-1.89,1.33-3.35,2.51-4.95,3.45c-1.97,1.15-4.07,2.49-5.93-0.24
	c-0.16-0.18-0.32-0.36-0.48-0.53C545.54,456.72,545.28,456.44,545.02,456.15z"/>
<path class="st33" d="M618.49,441.4c-0.4,4.18-2.37,7.91-4.3,11.75c-1.16,2.31-2.35,4.97-1.74,7.73c0.14,0.63,0.38,1.27,0.73,1.91
	c3.54-6.01,7.08-12.02,10.61-18.04c-0.36-0.35-0.65-0.8-0.93-1.26C621.99,442.08,621.18,440.52,618.49,441.4z"/>
<path class="st34" d="M444.51,491.45c-0.04,0.03-0.06,0.07-0.1,0.1c0.96,7.64,1.84,15.29,2.91,22.91
	c0.75,5.35,0.15,10.98,3.04,15.92c0.11,0,0.22,0,0.33,0c0.11,0,0.22,0,0.33,0c-0.31-2.5-0.63-5-0.95-7.5
	c-0.39-3.1-0.78-6.2-1.14-9.3c-0.88-7.61-1.73-15.21-2.58-22.82c-0.08-0.68-0.15-1.36-0.23-2.04c-0.12-1.05-0.23-2.1-0.35-3.15
	C444.97,487.43,446.31,489.8,444.51,491.45z"/>
<path class="st35" d="M499.62,331.5c-0.25,0.01-0.5,0.02-0.75,0.03c-0.03,0-0.06,0-0.08,0c-0.22,0.01-0.45,0.02-0.67,0.03
	c-5.32,11.4-11.1,22.56-17.49,33.4c-0.19,0.33-0.38,0.66-0.58,0.99c0.38,0.43,0.76,0.86,1.14,1.29c0.18-0.26,0.35-0.53,0.53-0.79
	C489.25,355.6,494.59,343.63,499.62,331.5z M497.87,333.68c-0.58,1.35-1.17,2.7-1.77,4.03C496.7,336.38,497.29,335.03,497.87,333.68
	z"/>
<path class="st36" d="M497.87,333.68c-0.58,1.35-1.17,2.7-1.77,4.03"/>
<path class="st37" d="M540.79,469.53c-1.12-0.9-1.24-3.05-2.77-3.44c-0.58,1.15,0.8,2.58-0.81,3.86c-1.48-1.24-2.44-2.66-3.04-4.21
	c-0.44-1.14-0.66-2.35-0.71-3.63c-0.02-0.4-0.02-0.81,0-1.22c0.02-0.41,0.04-0.83,0.09-1.25c-0.13-0.68-0.53-1.1-1.22-1.23
	c-0.13,0.67-0.2,1.33-0.25,2c-0.45,5.87,1.74,11.64,1.17,17.52c-0.03,0.28-0.05,0.55-0.09,0.83c0.43,0.08,0.85,0.16,1.28,0.24
	c-0.01-0.17-0.02-0.34-0.03-0.5c-0.24-4.03,0.81-7.05,5.86-6.95c1.2,0.02,2.19-0.25,2.3-1.68
	C541.75,470.02,541.2,469.86,540.79,469.53z"/>
<path class="st38" d="M540.56,458.68c0.02-0.11,0.02-0.23,0.04-0.34c-0.6-1.18,0.61-3.38-1.78-3.52c-1.84-0.1-2.57,1.38-2.96,2.88
	c-0.23,0.89-0.12,1.87-0.16,2.81c0.05,0.12,0.11,0.24,0.17,0.36c0.78,1.65,2.04,3.09,2.12,5.03c0,0.06,0.02,0.12,0.02,0.19
	c1.53,0.4,1.65,2.54,2.77,3.44c0.41,0.33,0.97,0.49,1.77,0.34c0.04-0.01,0.08-0.01,0.12-0.02c0-0.02,0-0.03,0-0.05
	c0.02-0.34,0.01-0.67-0.02-1.01C542.41,465.34,540.07,462.27,540.56,458.68z"/>
<path class="st39" d="M545.48,467.77c0.07,0.09,0.14,0.17,0.21,0.26c0.05-0.14,0.11-0.28,0.16-0.42c1.05-2.69,1.89-5.05-0.71-7.38
	c-1.31-1.18-1.11-2.69-0.13-4.08c0.04-0.11,0.08-0.22,0.12-0.33c0.77-2.05,1.77-4.1,0.91-6.12c-0.24-0.55-0.6-1.1-1.16-1.65
	c-0.8,1.91-1.6,3.83-2.4,5.74l0,0c0.07,1.18,0.05,2.37,0.06,3.56C542.56,460.93,542.71,464.54,545.48,467.77z"/>
<path class="st40" d="M416.12,235.68c-0.16,0.34-0.29,0.69-0.37,1.05c0.26,0.98-0.1,2.46,1.77,2.19c1.03-1.55,0.38-4.01,2.46-5.05
	c0.88,0.66,0.96,2.38,2.38,1.62c2.14-4.2-1.63-7.39-1.58-11.19c-1.43,0.12-2.21,0.97-2.53,2.31
	C420.94,230.47,417.44,232.8,416.12,235.68z"/>
<path class="st41" d="M620.02,360.18c0.03,0,0.06,0,0.08,0c0.8-0.01,1.6-0.03,2.41-0.04c-0.44-0.31-0.84-0.64-1.26-0.96
	c-6.19-4.72-10.78-10.73-14.14-17.74c-0.14-0.29-0.29-0.57-0.42-0.86c-0.36,0.39-0.72,0.78-1.08,1.17c0.06,0.14,0.12,0.27,0.17,0.41
	C608.87,349.45,612.98,355.96,620.02,360.18z"/>
<path class="st42" d="M552.94,446.6c-0.17-0.91-0.07-1.97-0.78-2.59c-0.16-0.14-0.35-0.25-0.59-0.34c0.02,0.11,0.03,0.21,0.05,0.31
	c0.53,3.04-0.27,5.57-3.17,7.6c-1.3-1.4-0.88-2.76-0.5-4.08c0.17-0.58,0.33-1.16,0.33-1.73c-1.04,0.88-2.68,0.87-3.38,2.27
	c0.56,0.55,0.93,1.1,1.16,1.65c0.86,2.02-0.15,4.08-0.91,6.12c-0.04,0.11-0.08,0.22-0.12,0.33c0.26,0.29,0.52,0.57,0.78,0.86
	c0.16,0.18,0.32,0.36,0.48,0.53c2.57-3.16,6.18-5.48,7.67-9.51C553.28,447.73,553.05,447.2,552.94,446.6z"/>
<path class="st43" d="M418.25,247.62c-0.34-0.76-0.76-2.34,1.09-2.46c1.75-0.12,1.51-1.37,1.28-2.43c-0.21-0.98-1.03-1.59-2.03-1.68
	c-1.36-0.12-2.3,0.86-2.36,1.95c-0.2,3.28-2.04,6.54-0.32,9.88c-0.01,0.71-0.01,1.42-0.02,2.13
	C417.35,252.77,419.73,250.89,418.25,247.62z"/>
<path class="st44" d="M533.45,462.11c0.05,1.28,0.28,2.49,0.71,3.63c0.59,1.55,1.56,2.97,3.04,4.21c1.62-1.28,0.24-2.71,0.81-3.86
	c0-0.07-0.01-0.13-0.02-0.19c-0.08-1.94-1.34-3.38-2.12-5.03c-0.06-0.12-0.12-0.23-0.17-0.36c-0.72-0.29-1.44-0.58-2.17-0.87
	c-0.05,0.42-0.07,0.84-0.09,1.25C533.43,461.3,533.44,461.71,533.45,462.11z"/>
<path class="st45" d="M568.89,466.49c-1.47-2.34-1.69-5.07-3.48-7.11c-0.1,0.01-0.2,0.02-0.3,0.04c-0.14,0.02-0.28,0.04-0.42,0.05
	c0.86,1.93,1.29,3.78,1.27,5.56c-0.03,2.77-1.16,5.35-3.54,7.72c-0.01,0.01-0.01,0.02-0.02,0.02c-0.12,0.12-0.14,0.35-0.2,0.53
	c0.36,0.36,0.72,0.71,1.09,1.07c0.15-0.21,0.3-0.43,0.46-0.64C565.42,471.37,567.11,468.99,568.89,466.49z"/>
<path class="st46" d="M549.6,443.55L549.6,443.55C549.61,443.55,549.61,443.55,549.6,443.55c0.46-0.18,0.85-0.33,1.21-0.46
	c-0.42-0.13-0.85,0.05-1.28,0.46c-0.02,0.02-0.04,0.03-0.06,0.05L549.6,443.55z"/>
<path class="st46" d="M548.45,451.58c2.9-2.03,3.7-4.56,3.17-7.6c-0.02-0.11-0.03-0.21-0.05-0.31c-0.08,0-0.16,0-0.24-0.01
	c-0.5-0.01-1-0.03-1.5-0.04c-0.08,0-0.15,0-0.23-0.01c0,0.08-0.01,0.17-0.02,0.24c-0.12,0.83-0.81,1.32-1.31,1.92
	c0,0.57-0.16,1.14-0.33,1.73C547.57,448.81,547.15,450.17,548.45,451.58z"/>
<path class="st47" d="M484.52,518.4c-0.08,3.81-0.04,7.7,1.73,12.12c0.1-0.84,0.18-1.64,0.25-2.42c0.01-0.06,0.01-0.12,0.02-0.18
	c0.3-3.24,0.37-6.02,0.14-8.78c-0.01-0.07-0.01-0.14-0.01-0.21l0,0c-0.7-0.77-1.39-1.54-2.09-2.31
	C484.55,517.21,484.54,517.81,484.52,518.4z"/>
<path class="st48" d="M415.75,236.72c0.08-0.36,0.21-0.71,0.37-1.05c1.32-2.88,4.82-5.21,2.13-9.08c-1.71,3.18-3.27,6.41-3.44,10.11
	l0.47-0.01L415.75,236.72z"/>
<path class="st49" d="M523.26,228.74c0-0.01,0-0.01,0-0.02c-0.17-0.86-0.38-1.71-0.64-2.53c-0.79-2.51-1.99-4.83-3.76-6.88
	c-0.13,0.13-0.26,0.27-0.39,0.4c-0.1,0.11-0.21,0.21-0.31,0.32c-0.22,0.22-0.44,0.45-0.65,0.67c1.61,2.87,2.77,6.06,5.69,7.98
	c0.01,0.01,0.02,0.02,0.04,0.03C523.23,228.72,523.24,228.73,523.26,228.74z"/>
<path class="st50" d="M450.36,530.38c-0.96,3.08,0.19,5.9,0.99,8.76c0.04,0.15,0.09,0.31,0.13,0.46c0.28,0,0.57-0.01,0.85-0.05
	c0.03-0.12,0.04-0.24,0.06-0.36c0.22-1.35-0.01-2.63-0.34-3.9c-0.42-1.63-1.01-3.23-1.03-4.92c-0.11,0-0.22,0-0.33,0
	C450.58,530.38,450.47,530.38,450.36,530.38z"/>
<path class="st51" d="M284.3,465.75c5.13-2.89,10.04-6.07,13.13-11.39c1.7-2.93,2.36-5.97,1.85-9.28c-0.56-3.63-4.49-1.88-6.29-3.55
	c2.8-4.6,6.41-4.25,10.56-2.25c-0.98-2.59-2.51-3.53-4.83-3.79c-5.85-0.67-9.89,2-12.88,6.61c-1.75,2.69-3.19,5.59-4.76,8.4
	c-2.35,4.21-2.73,8.55-1.05,13.12C280.85,465.79,282.13,466.97,284.3,465.75z M284.12,451.49c-0.44,3.64,2.01,5.48,4.57,7.21
	c-1.56,2.77-3.66,1.79-5.52,1.8C281.35,457.2,282.62,454.43,284.12,451.49z"/>
<path class="st19" d="M390.08,207.01c-6.37,11.19-12.7,22.38-14.54,35.58c-3.06,21.93-3.93,43.91-2.71,65.97
	c0.35,6.32,0.46,12.85,3.66,18.83c-1.95-58.92,18.5-111.38,46.63-161.66C409.84,177.76,398.87,191.56,390.08,207.01z"/>
<path class="st36" d="M509.13,308.9c1.16-2.9,2.32-5.79,3.45-8.7"/>
<path class="st52" d="M525,263.58c-0.34,0.57-0.69,1.15-0.88,1.77c-4.4,13.91-9.88,27.42-14.91,41.1c-1.46,3.98-3.48,7.77-4.3,12.54
	c0.76-0.67,1.16-0.85,1.28-1.15c4.21-10.14,8.42-20.28,12.55-30.45c1.35-3.33,2.31-6.83,3.77-10.11c0.79-1.76,1.23-3.68,1.87-5.5
	c0.53-1.52,1.2-2.98,2.33-4.23c1.53-1.29,1.18-2.98,1.02-4.6c-0.78-0.84-1.59,1.25-2.33-0.09l0,0
	C525.28,263.11,525.14,263.34,525,263.58z M509.13,308.9c1.16-2.9,2.32-5.79,3.45-8.7C511.45,303.11,510.28,306.01,509.13,308.9z"/>
<path class="st53" d="M472.42,156.98c6.76,7.53,13.65,14.9,20.49,22.31c0.16,0.17,0.31,0.34,0.47,0.51
	c0.46-0.48,0.92-0.96,1.38-1.44c-0.12-0.16-0.25-0.31-0.37-0.47C488.13,169.8,481.14,162.5,472.42,156.98z"/>
<path class="st54" d="M404.82,213.17c0-0.01-0.01-0.02-0.01-0.03c-0.25-0.5-0.3-1.1-0.42-1.67c-1.27,2.22-2.59,4.42-2.92,7.6
	c2.15-1.67,3.2-3.4,4.25-5.11C405.27,213.79,405,213.51,404.82,213.17z"/>
<path class="st55" d="M666.04,197.67c-0.03-0.18-0.04-0.35-0.03-0.52c0.05-2.21,2.73-3.57,1.46-6.02c-4.25,0.78-7,3.78-10.14,6.18
	c-3.15-4.57-4.72,1.8-7.06,1.23c-1.98-1.17-1.31-3.88-3.46-4.6c-2.2,0.77-0.73,3.73-3.05,4.74c-3.47-1.24-5.74-4.83-9.2-6.44
	c-1.41,2.11,0.36,4.05-0.12,6.16c-4.87-2.67-6-7.6-8.38-11.36c-1.5-0.18-1.78,1.66-3.03,1.37c-0.41-1.55,0.38-3.51-1.83-4.58
	c-1.92,2.27-2.72,4.96-3.78,7.37c-1.16,0.85-1.9-1.55-3.67,0.39c0.12,4.78-5.95,8.19-4.81,14.21c0.06-0.07,0.13-0.14,0.19-0.21
	c0.51-0.56,1.02-1.13,1.52-1.69c0.1-0.12,0.21-0.23,0.31-0.35c0-0.05,0.01-0.09,0.01-0.14c0.15-3.26,4.13-4.86,3.68-8.36
	c-0.03-0.22-0.07-0.44-0.13-0.67c0.2,0.04,0.36,0.11,0.5,0.19c1.15,0.66,0.8,2.41,2.57,2.52c1.72-2,2.37-4.7,3.06-7.44
	c1.71,1.29,0.3,3.99,1.63,4.58c2.23,1.45,2.99-0.59,4.35-0.4c2.8,3.85,5.89,7.39,10.81,8.18c2.27-0.98-0.34-2.84,1-3.96
	c0.09,0.02,0.19,0.05,0.28,0.09c0.56,0.21,1.1,0.6,1.63,1.04c2.03,1.66,4.01,4,6.84-0.13c1.37,0.4,1.22,2.4,2.52,3.11
	c5.46-0.89,10.17-3.44,14.39-7.11c-0.83,3.9-3.92,6.65-3.81,11.25c4.28-1.81,6.07-5.89,9.53-8.04c2.32,0.4,1.68,3.8,4.07,4.16
	c0.53,0.09,0.97,0,1.36-0.19c-0.39-0.71-0.78-1.41-1.17-2.12c-0.27-0.48-0.54-0.95-0.81-1.43c-0.12-0.16-0.22-0.33-0.28-0.5
	c-0.64-1.13-1.3-2.25-1.96-3.37c-1.55,0.7-2.65,2.24-4.18,2.68C666.59,197.62,666.32,197.67,666.04,197.67z"/>
<path class="st55" d="M682.16,217.29c0.27,0.29,0.46,0.59,0.6,0.89c0.74,1.61,0,3.49,0.49,5.15c0.33-1.12,0.55-2.24,0.74-3.36
	c-0.09-0.2-0.18-0.39-0.27-0.59c-0.29-0.65-0.58-1.3-0.88-1.95c-0.04-0.1-0.09-0.2-0.13-0.29c-0.25-0.55-0.5-1.1-0.76-1.64
	c0.06,0.57,0.14,1.15,0.2,1.72C682.15,217.24,682.16,217.26,682.16,217.29z"/>
<path class="st24" d="M681.4,234.77c-1.74,0.02-1.84-2.67-3.86-1.94c-0.65,2.59-1.13,5.22-1.98,7.72c-0.85,2.51-1.94,4.96-3.17,7.32
	c-3.35,6.46-9.58,7.43-14.88,2.36c-3.38-3.23-5.33-7.25-6.65-11.74c-1.09-3.71-0.41-7.54-1.12-11.53c-2.09-0.58-3.92-1.55-6.04-0.71
	c-1.09,2.98-2.06,5.84-3.19,8.63c-1.21,3.01-2.89,5.76-4.81,8.38c-2.49,3.4-5.45,3.93-9.49,2.73c-7.08-2.09-9.96-6.87-10.5-13.78
	c-0.26-3.29,0.43-6.78-1.42-9.94c-2.12,0.82-4.4,0.52-5.93,2.33c-0.7,1.92,1.34,4.05-0.78,6.31c-2.29-3.71-2.84-7.85-4.24-11.65
	c-1.51-4.11-3.54-5.15-8.16-4.24c0.5,0.46,1,0.92,1.5,1.38c0.26,0.24,0.53,0.48,0.79,0.73c4.56,3.69,6.34,8.66,7.05,14.97
	c-3.95-2.12-2.83-7.1-6.39-8.59c-2.27,5.73,1.72,10.48,8.04,14.38c0.11,0.07,0.21,0.14,0.32,0.2c0.12-1.32-0.17-2.76,1.18-3.69
	c3.13,0.91,2.41,3.57,2.32,5.67c-0.24,5.49-1.09,11.14-0.57,16.44c0.21,2.14,0.45,4.28,0.72,6.4c0.54,4.15,1.22,8.25,2.11,12.3
	c2.48,11.32,6.58,22.15,13.76,31.94c1.12,1.53,2.3,2.81,3.76,3.76c0.66,0.43,1.37,0.81,2.17,1.09c3.45-0.37,6.74,0.69,10.04,1.35
	c2.44,0.48,4.17,0.04,6.1-1.66c8.67-7.57,17.39-15.03,20.3-26.94c0.06-0.25,0.21-0.47,0.38-0.69c0.18-0.23,0.39-0.46,0.56-0.7
	c3.74-13.41,6.6-27.05,10.3-40.5c1.05,5.95-1.77,11.66-0.64,18.1c5.12-2.93,7.39-7.46,9.99-11.71c-2.51-1.01-2.35,1.65-3.41,2.58
	c-0.21,0.18-0.41,0.38-0.61,0.58c-1.01,1-1.97,1.86-3.67-0.12c1.98-3.9,6.62-5.74,8.36-9.9c0.15-2.01,0.8-4.04-0.34-6.25
	c-3.16,2.23-3.22,6.36-5.78,9.18c-0.51-6.08,1.46-10.77,5.38-13.42c-0.21-0.55-0.42-1.09-0.64-1.63c-0.23-0.58-0.46-1.16-0.69-1.74
	c-0.43,0.31-0.85,0.68-1.26,1.11C684.66,231.38,683.52,233.68,681.4,234.77z M652.39,291.3c-5.81-0.82-11.58-2.19-17.41-2.48
	c-3.36-0.17-6.8,1.21-9.34-2.11c-0.31-0.4-0.4-0.96-1-2.48c11.57,0.59,22.15,4.02,33.76,4.06
	C656.64,292.09,654.41,291.58,652.39,291.3z M633.87,298.96c1.94-6.28,8.39-6.16,18.74-0.92
	C646.2,303.32,640.41,296.26,633.87,298.96z M640.13,259.31c-3.42-0.53-6.56,0.18-8.06-3.78
	C635.97,254.09,638.35,255.09,640.13,259.31z M648.65,255.24c2.3-1.12,3.91,0.06,5.22,4c-3.55-2.01-4.99,1.61-7.84,1.44
	C644.87,257.72,646.68,256.2,648.65,255.24z M646.36,277.2c0.47,3.1-1.27,4.88-3.49,4.76c-2.91-0.16-5-2.14-4.51-5.92
	C640.66,278.79,643.41,277.99,646.36,277.2z"/>
<path class="st24" d="M673.89,202.46c-2.38-0.37-1.75-3.76-4.07-4.16c-3.46,2.15-5.25,6.23-9.53,8.04
	c-0.11-4.6,2.98-7.35,3.81-11.25c-4.23,3.67-8.93,6.22-14.39,7.11c-1.29-0.71-1.14-2.71-2.52-3.11c-2.83,4.13-4.81,1.78-6.84,0.13
	c-0.54-0.44-1.08-0.83-1.63-1.04c-0.09-0.03-0.19-0.07-0.28-0.09c-1.33,1.11,1.28,2.98-1,3.96c-4.92-0.8-8.01-4.33-10.81-8.18
	c-1.37-0.19-2.13,1.85-4.35,0.4c-1.33-0.59,0.08-3.28-1.63-4.58c-0.69,2.74-1.34,5.44-3.06,7.44c-1.77-0.11-1.42-1.87-2.57-2.52
	c-0.14-0.08-0.3-0.15-0.5-0.19c0.06,0.23,0.1,0.45,0.13,0.67c0.45,3.5-3.53,5.11-3.68,8.36c0,0.05-0.01,0.09-0.01,0.14
	c1.21,4.65-2.25,9.43,0.14,14.69c5.23-3.51,10.3-3.68,15.87-2.31c3.35,0.82,6.9,1.7,10.49,1.33c0.44,1.39,1.48,2.09,2.84,2.33
	c3.89,0.7,7.78,1.91,11.67,1.9c9.82-0.04,19.54-0.07,28.27,6.06c0.75-4,1.34-7.14,1.93-10.28c0-0.02-0.01-0.05-0.01-0.07
	c-0.06-0.57-0.13-1.15-0.2-1.72c-0.74-1.57-1.49-3.13-2.26-4.69c-1.29-2.61-2.64-5.19-4.03-7.75c-0.14-0.26-0.28-0.52-0.42-0.78
	C674.85,202.46,674.41,202.55,673.89,202.46z M637.53,217.21c-0.03,0-0.06,0-0.09,0c0.02,0.02,0.05,0.04,0.07,0.06l-0.09-0.06
	c0.01,0,0.01,0,0.02,0c-0.01,0-0.01-0.01-0.02-0.01c-0.57-0.49-1.13-0.98-1.69-1.47c-5.57-4.86-11.16-9.68-19.71-8.75
	c0.3-3.16,3.25-3.23,4.54-5.25c7.38,3.75,14.68,7.21,19.06,14.44c-0.16,0.27-0.33,0.46-0.51,0.61
	C638.6,217.19,638.06,217.2,637.53,217.21z M677.41,222.13c-3.18-8.72-9.2-5.83-14.77-4.58c-2.51,0.57-4.88,1.97-7.59,1.55
	c-0.06-0.62-0.25-1.18-0.1-1.29c5.47-4.02,11.91-5.51,18.4-6.14C677.07,211.3,678.82,215.81,677.41,222.13z"/>
<path class="st56" d="M665.61,227.61c-2.25-0.35-4.48-0.82-6.07-1.11c-5.21-0.19-5.9,0.52-6.18,5.02c-0.29,4.75,1.2,9.11,3.34,13.11
	c3.34,6.26,10.32,6.15,13.91,0.1c1.08-1.83,1.71-3.81,2.24-5.83C675.12,230.2,674.31,228.97,665.61,227.61z M662.5,237.22
	c0.72,2.1,3.16,4.12,1.7,6.98c-5.64-1.15-7.43-3.58-6.18-8.28c1.08-4.08,3.75-5.42,7.8-3.84
	C665.78,234.78,663.03,234.99,662.5,237.22z"/>
<path class="st57" d="M635.68,223.22c-5.49-2.36-11.13-1.71-17.2-1.34c-1.26,5.21,0.1,9.63,1.4,13.93c1.18,3.9,5.55,6.69,9.02,6.72
	c4.75,0.05,6.52-3.19,7.92-6.9c0.87-2.31,1.55-4.66,1.93-7.14C639.17,225.72,638.13,224.27,635.68,223.22z M622.98,234.58
	c-1.31-2.61-1.09-5.53,0.49-8.08c1.14-1.83,2.63-3.3,5.44-1.32c-1.78,3.52-2.82,7.25,1.78,10.89
	C626.77,237.15,624.27,237.15,622.98,234.58z"/>
<path class="st58" d="M689.65,242.37c-1.74,4.16-6.39,6-8.36,9.9c1.7,1.98,2.66,1.11,3.67,0.12c0.2-0.19,0.4-0.39,0.61-0.58
	c1.06-0.93,0.89-3.59,3.41-2.58c1.46-2.34,2.75-4.75,3.54-7.34c-0.33-0.99-0.68-1.98-1.03-2.96c-0.15-0.42-0.29-0.84-0.43-1.25
	c0,0.04,0,0.08,0,0.12C691.05,239.45,691.55,241.23,689.65,242.37z"/>
<path class="st59" d="M593.96,226.98c0,0.1,0,0.2,0,0.3c0.08,3.52,1.29,6.51,4.48,8.41c0.11-0.1,0.22-0.2,0.33-0.3
	c-0.61-1.13-1.12-2.29-1.55-3.47c-0.78-2.14-1.28-4.34-1.59-6.59c-0.23-1.68-0.37-3.39-0.42-5.13c-0.01-0.49,0-0.92,0.07-1.3
	c0.09-0.56,0.3-0.98,0.68-1.28c0.35-0.28,0.83-0.45,1.53-0.5c-0.26-0.24-0.53-0.48-0.79-0.73c-0.5-0.46-1-0.92-1.5-1.38
	c-1.12,0.36-1.03,1.37-1.23,2.24C593.96,220.49,593.89,223.74,593.96,226.98z"/>
<path class="st59" d="M606.16,238.84c-1.02,1.92-2.42,1.82-4.02,0.01c-0.37-0.42-0.7-0.88-1.03-1.33c-0.63-0.85-1.29-1.67-2.33-2.11
	l-0.34,0.28c3.44,4.76,2.59,11.77,8.42,16.42c1.21-6.47,0.54-12.12,0.82-17.71c-1.34,0.93-1.05,2.37-1.18,3.69
	c-0.01,0.03-0.02,0.05-0.03,0.07C606.37,238.41,606.27,238.64,606.16,238.84z"/>
<path class="st60" d="M380.59,411.74c-0.64-2.29,0.87-4.93-1.13-7.01c-4.77,27.97-0.59,55.65,2.48,83.37
	c0.63-3.61,0.71-7.21,0.61-10.81C381.97,455.44,379.58,433.64,380.59,411.74z"/>
<path class="st61" d="M380.59,411.74c1.61-7.32,1.9-14.75,1.94-22.23c-1.43,5.01-3.17,9.93-3.07,15.22
	C381.45,406.81,379.95,409.45,380.59,411.74z"/>
<path class="st62" d="M565.41,459.39c0.07-1.9-0.48-3.83-0.39-5.63c0.21-4.1-3.69-6.4-4-10.01c-0.93-10.91-2.57-21.84-0.04-32.76
	c0.25-1.08,0.72-2.17,0.15-3.33c-1.88-3.78-1.4-7.63-0.69-11.65c0.78-4.41-1.23-6.75-6.8-7.97c2.78,18.46,1.88,36.82,4.95,55.27
	c-4.74-0.95-5.42-1.08-7.79-0.22c-0.36,0.13-0.75,0.28-1.21,0.46l0,0c-0.05,0.02-0.09,0.03-0.13,0.05c0.04,0,0.09,0,0.13,0
	c0.08,0,0.15,0,0.23,0.01c0.5,0.01,1,0.03,1.5,0.04c0.08,0,0.16,0,0.24,0.01c0.25,0.09,0.44,0.2,0.59,0.34
	c0.71,0.62,0.61,1.68,0.78,2.59c0.11,0.6,0.34,1.14,1.01,1.44c0.25-0.7,0.47-1.76,1.23-1.71c2.07,0.12,4.5,1.78,6.2,3.81
	c1.03,1.23,1.78,2.59,2.02,3.85c0.36,1.85,0.85,3.67,1.28,5.5c0.14-0.02,0.28-0.04,0.42-0.05
	C565.21,459.41,565.31,459.4,565.41,459.39z"/>
<path class="st63" d="M478.83,326.67c1.29-8.25-7.54-19.47-15.96-20.23c-1.12-0.1-2.31-0.11-3.39,0.16
	c-4.18,1.06-8.32,2.24-12.42,3.37c-0.22,4.59-0.22,4.59,3.07,7.86c0.41-0.42,0.82-0.83,1.23-1.25c0.08-0.17,0.15-0.48,0.25-0.49
	c7.39-1,18.68,4.67,22.48,11.51c-3.25,1.38-5.88-0.14-8.33-1.67c-3.06-1.91-6.12-3.64-9.77-4.01c-0.03,0.02-0.06,0.04-0.09,0.05
	c-0.02,0.51-0.04,1.01-0.06,1.52c4.38,3.43,9.44,5.54,14.62,7.36C474.19,332.18,478.32,329.99,478.83,326.67z M451,312.26
	c5.22-2.78,10.54-4.46,13.76-1.74c4.1,3.46,12.45,3.91,10.86,13.14C468.9,317.32,460.63,314.72,451,312.26z"/>
<path class="st64" d="M449.4,247.96c0.89,0.14,1.86-0.02,2.38,0.98c-2.74,6.48-2.35,8.65,2.17,11.54c0.79-0.74,1.59-1.53,2.44-2.27
	c0.97-0.85,1.11-2.39,2.47-2.91c2.18,3.28,5.92,5.77,8.82,5.9c-2.09-6.92-15-17.17-21.61-17.13c-0.88,1.58-0.17,2.86,0.76,4.15
	C447.75,249,448.51,247.82,449.4,247.96z"/>
<path class="st65" d="M473.8,254.18c0.59-0.53,0.81-0.63,0.84-0.77c0.11-0.52,0.35-1.13,0.19-1.58
	c-3.44-9.29-7.77-18.07-15.38-24.73c-4.83-4.23-6.12-3.86-9.31,2.54C465.35,230.88,467.8,244.29,473.8,254.18z"/>
<path class="st66" d="M486.52,274.13c2.38,0.5,3.41-1.1,4.18-2.95c0.77-1.86,1.9-3.57,2.05-5.53c2.6-0.9,4.94,0.06,6.95,0.48
	c2.13-1.45,1.57-3.16,1.45-5.07c-6.74-0.65-12.64,1.08-17.92,5.33c0.08,1.28,0.15,2.41,0.21,3.54
	C483.54,272.01,484.31,273.66,486.52,274.13z"/>
<path class="st67" d="M474.81,270.29c0.86,5.06,1.75,10.13,3.07,15.08c0.83,3.13-0.03,5.03-2.59,6.68
	c-1.56,1.01-3.79,1.65-3.81,4.35c7.36-1.97,9.79-6.36,8.05-14.83c-1.57-7.6-3.41-15.14-0.46-23.05
	C475.22,261.59,474.02,265.66,474.81,270.29z"/>
<path class="st68" d="M466.33,292.69c1.93-4.9,1.34-5.75-5.87-8.7C460.72,288.15,462.9,290.48,466.33,292.69z"/>
<path class="st69" d="M455.92,321.92c-1.14-1.34-2.28-2.67-3.42-4.01c-0.38-0.44-0.76-0.88-1.13-1.33l0,0
	c-0.41,0.42-0.82,0.83-1.23,1.25c1.73,2.07,2.58,5.02,5.72,5.67c0.02-0.51,0.04-1.01,0.06-1.52
	C455.91,321.96,455.92,321.94,455.92,321.92z"/>
<path class="st70" d="M533.1,483.42c-2.89,1.41-5.92,2.57-7.71,5.4C528.37,487.58,531.44,486.5,533.1,483.42z"/>
<path class="st71" d="M500.71,318.19c0.26,0.25,0.53,0.5,0.79,0.75c2.79-14.48,6.12-28.89,6.35-43.72c0-0.15,0-0.3,0-0.44
	c0.01-0.9,0.01-1.8,0-2.71c-2.58,15.19-5.16,30.38-7.73,45.56c0.16,0.15,0.32,0.31,0.48,0.46
	C500.64,318.13,500.67,318.16,500.71,318.19z"/>
<path class="st72" d="M498.87,331.52c0.25-0.01,0.5-0.02,0.75-0.03c3.33-3.78-0.14-8.58,1.88-12.55c-0.26-0.25-0.53-0.5-0.79-0.75
	c-0.03-0.03-0.07-0.07-0.1-0.1c-0.16-0.15-0.32-0.31-0.48-0.46c-2.43,4.38-0.81,9.35-2.01,13.92c0.22-0.01,0.45-0.02,0.67-0.03
	C498.81,331.53,498.84,331.53,498.87,331.52z"/>
<path class="st73" d="M630.18,339.96c-4.68-10.21-9.3-19.15-9.98-29.37C618.15,319.34,623.25,334.98,630.18,339.96z"/>
<path class="st74" d="M288.69,458.7c-2.56-1.72-5.01-3.56-4.57-7.21c-1.51,2.94-2.78,5.71-0.95,9.01
	C285.04,460.49,287.13,461.48,288.69,458.7z"/>
<path class="st75" d="M625.64,286.7c2.55,3.32,5.98,1.94,9.34,2.11c5.83,0.29,11.6,1.67,17.41,2.48c2.02,0.28,4.25,0.79,6.01-3.02
	c-11.61-0.04-22.19-3.47-33.76-4.06C625.24,285.74,625.34,286.3,625.64,286.7z"/>
<path class="st76" d="M595.28,218.91c-0.06,0.37-0.08,0.8-0.07,1.3c0.05,1.74,0.19,3.45,0.42,5.13c0.31,2.25,0.81,4.45,1.59,6.59
	c0.43,1.17,0.94,2.33,1.55,3.47c0,0,0,0.01,0.01,0.01c1.05,0.44,1.71,1.26,2.33,2.11c0.33,0.45,0.66,0.91,1.03,1.33
	c1.6,1.81,3,1.91,4.02-0.01c0.11-0.21,0.21-0.43,0.31-0.68c0.01-0.03,0.02-0.05,0.03-0.07c-0.11-0.07-0.21-0.13-0.32-0.2
	c-6.32-3.9-10.3-8.65-8.04-14.38c3.56,1.5,2.44,6.47,6.39,8.59c-0.71-6.31-2.49-11.28-7.05-14.97c-0.69,0.06-1.18,0.23-1.53,0.5
	C595.58,217.92,595.37,218.35,595.28,218.91z"/>
<path class="st75" d="M633.87,298.96c6.54-2.7,12.33,4.37,18.74-0.92C642.25,292.8,635.81,292.68,633.87,298.96z"/>
<path class="st4" d="M683.54,245.31c2.56-2.82,2.62-6.95,5.78-9.18c1.14,2.21,0.49,4.24,0.34,6.25c1.89-1.15,1.4-2.93,1.4-4.58
	c0-0.04,0-0.08,0-0.12c-0.08-0.23-0.16-0.46-0.24-0.69c-0.3-0.83-0.61-1.65-0.91-2.48c-0.32-0.87-0.64-1.75-0.98-2.62
	C685,234.54,683.03,239.23,683.54,245.31z"/>
<path class="st77" d="M638.36,276.04c-0.49,3.78,1.6,5.76,4.51,5.92c2.22,0.12,3.96-1.66,3.49-4.76
	C643.41,277.99,640.66,278.79,638.36,276.04z"/>
<path class="st78" d="M653.87,259.25c-1.31-3.94-2.92-5.12-5.22-4c-1.97,0.96-3.78,2.48-2.62,5.44
	C648.88,260.85,650.32,257.24,653.87,259.25z"/>
<path class="st79" d="M640.13,259.31c-1.77-4.22-4.16-5.22-8.06-3.78C633.56,259.49,636.71,258.78,640.13,259.31z"/>
<path class="st66" d="M673.37,211.66c-6.5,0.63-12.94,2.12-18.4,6.14c-0.15,0.11,0.04,0.67,0.1,1.29c2.71,0.42,5.07-0.98,7.59-1.55
	c5.57-1.25,11.58-4.14,14.77,4.58C678.82,215.81,677.07,211.3,673.37,211.66z"/>
<path class="st80" d="M639.62,216.17c-4.37-7.23-11.67-10.69-19.06-14.44c-1.28,2.02-4.24,2.1-4.54,5.25
	c8.55-0.92,14.15,3.9,19.71,8.75c0.56,0.49,1.13,0.98,1.69,1.47c0.01,0,0.01,0.01,0.02,0.01c0.03,0,0.06,0,0.09,0
	c0.53-0.02,1.07-0.02,1.57-0.44C639.28,216.63,639.45,216.43,639.62,216.17z"/>
<path class="st80" d="M637.52,217.28c-0.02-0.02-0.05-0.04-0.07-0.06c-0.01,0-0.01,0-0.02,0L637.52,217.28z"/>
<path class="st81" d="M658.01,235.91c-1.25,4.71,0.54,7.14,6.18,8.28c1.46-2.86-0.98-4.87-1.7-6.98c0.53-2.24,3.28-2.44,3.32-5.15
	C661.76,230.49,659.09,231.84,658.01,235.91z"/>
<path class="st82" d="M628.92,225.17c-2.81-1.97-4.31-0.51-5.44,1.32c-1.58,2.55-1.8,5.47-0.49,8.08c1.29,2.57,3.78,2.58,7.71,1.48
	C626.1,232.42,627.14,228.69,628.92,225.17z"/>
<path class="st83" d="M464.76,310.53c-3.22-2.72-8.54-1.04-13.76,1.74c9.63,2.45,17.9,5.06,24.62,11.4
	C477.21,314.44,468.85,313.98,464.76,310.53z"/>
<path class="st84" d="M452.49,317.91c1.14,1.34,2.28,2.67,3.42,4.01c0.03,0,0.06,0.01,0.08,0.01c3.65,0.37,6.71,2.1,9.77,4.01
	c2.45,1.53,5.08,3.05,8.33,1.67c-3.81-6.84-15.1-12.52-22.48-11.51c-0.1,0.01-0.17,0.32-0.25,0.49l0,0
	C451.74,317.03,452.12,317.47,452.49,317.91z"/>
<path class="st85" d="M900,4.59c0-3.75-0.84-4.6-4.59-4.59C746.94,0.11,598.47,0.09,450,0.09S153.06,0.11,4.59,0
	C0.84,0,0,0.84,0,4.59C0.1,218.2,0.1,431.8,0,645.41c0,3.75,0.84,4.59,4.59,4.59c57.93-0.02,115.86-0.02,173.79-0.03
	c31.48-0.01,62.95-0.01,94.43-0.02c0.64,0,1.28,0,1.92,0c1.22,0,2.44,0,3.66,0c6.63,0,13.25,0,19.88,0c4.25,0,8.51,0,12.76,0
	c3.85,0,7.7,0,11.55,0c1.01,0,2.03,0,3.04,0c11.26,0,22.52-0.01,33.79-0.01c0.38,0,0.76,0,1.14,0c0.36,0,0.71,0,1.07,0
	c0.1,0,0.2,0,0.29,0c3.16,0,6.32,0,9.49,0c4.22,0,8.43,0,12.65,0c0.65,0,1.29,0,1.94,0c9.18,0,18.35,0,27.53,0c1.07,0,2.15,0,3.22,0
	c1.09,0,2.19,0,3.28,0c7.96,0,15.91,0,23.87,0c1.79,0,3.58,0,5.37,0c29.03,0,58.07,0.01,87.1,0.01c8.63,0,17.25,0,25.88,0
	c0.74,0,1.48,0,2.22,0c48.31,0,96.62,0.02,144.93,0.02c0.71,0,1.41,0,2.12,0c0.43,0,0.85,0,1.28,0
	c60.87,0.01,121.74,0.01,182.61,0.03c3.75,0,4.59-0.84,4.59-4.59C899.89,431.8,899.89,218.19,900,4.59z M552.65,560
	c-7.68,3.27-15.58,6.19-23.73,8.73c-1.66,0.52-3.35,1.01-5.03,1.5c-7.9,2.29-16.02,4.25-24.36,5.87c-1.81,0.35-3.63,0.68-5.46,1
	c-2.94,0.51-5.89,0.99-8.88,1.42c-0.16,0.02-0.32,0.04-0.48,0.06c-2.23,0.32-4.46,0.6-6.69,0.86c-2.34,0.27-4.68,0.5-7.02,0.7
	c-4.01,0.35-8.01,0.61-12,0.77c-5.79,0.23-11.55,0.26-17.28,0.1c-1.02-0.03-2.04-0.07-3.06-0.11c-1.16-0.05-2.33-0.1-3.49-0.16
	c-8.57-0.46-17.06-1.36-25.43-2.67c-3.43-0.54-6.83-1.16-10.22-1.83c-0.34-0.07-0.68-0.13-1.02-0.2c-0.07-0.01-0.14-0.03-0.22-0.04
	c-0.48-0.1-0.95-0.19-1.43-0.29c-25.16-5.3-49.14-14.37-71.24-26.67c-1-0.56-1.99-1.11-2.98-1.68
	c-16.64-9.55-32.18-20.96-46.29-33.97c-0.66-0.61-1.32-1.21-1.97-1.82c-0.52-0.49-1.03-0.99-1.55-1.49c-1.2-1.15-2.4-2.32-3.58-3.49
	c-0.39-0.39-0.79-0.79-1.18-1.18c-2.25-2.27-4.46-4.57-6.63-6.93c-0.36-0.39-0.71-0.78-1.06-1.17c-3.55-3.9-7-7.91-10.31-12.04
	c-0.91-1.14-1.81-2.29-2.7-3.44c-0.88-1.14-1.75-2.29-2.62-3.45c-0.65-0.87-1.31-1.74-1.95-2.62
	c-22.8-31.31-38.83-68.25-45.57-108.92c-3.4-20.5-4.58-41.22-2.88-61.76c2.72-32.84,11.05-64.44,26.38-93.91
	c10.95-23.08,25.55-43.66,43.15-62.06c43.33-45.3,96.18-72.28,158.54-78.58c76.58-7.73,144.02,14.23,200.66,65.95
	c0.24,0.22,0.48,0.44,0.72,0.66c0.16,0.15,0.32,0.29,0.48,0.43c0.15,0.14,0.3,0.27,0.45,0.41c0.39,0.36,0.79,0.71,1.18,1.08
	c0.96,0.9,1.91,1.82,2.85,2.73c0.37,0.36,0.75,0.71,1.12,1.07c0.07,0.07,0.14,0.13,0.21,0.2c0.61,0.6,1.21,1.21,1.82,1.82
	c1.02,1.02,2.04,2.04,3.05,3.07c0.41,0.42,0.81,0.85,1.22,1.27c13.61,14.17,25.22,29.4,34.84,45.63c0.66,1.12,1.32,2.24,1.96,3.37
	c0.07,0.17,0.16,0.34,0.28,0.5c0.27,0.48,0.54,0.95,0.81,1.43c0.39,0.7,0.78,1.41,1.17,2.12c0.14,0.26,0.28,0.52,0.42,0.78
	c1.39,2.56,2.74,5.14,4.03,7.75c0.77,1.55,1.52,3.12,2.26,4.69c0.26,0.55,0.51,1.09,0.76,1.64c0.05,0.1,0.09,0.2,0.13,0.29
	c0.3,0.65,0.59,1.3,0.88,1.95c0.09,0.2,0.18,0.39,0.27,0.59c0.81,1.82,1.59,3.64,2.36,5.48c0.24,0.59,0.48,1.18,0.72,1.77
	c0.18,0.44,0.35,0.88,0.52,1.31c0.23,0.58,0.46,1.16,0.69,1.74c0.21,0.54,0.43,1.09,0.64,1.63c0.33,0.87,0.65,1.75,0.98,2.62
	c0.31,0.83,0.61,1.65,0.91,2.48c0.08,0.23,0.16,0.46,0.24,0.69c0.15,0.42,0.29,0.83,0.43,1.25c0.34,0.99,0.7,1.97,1.03,2.96
	c0.13,0.39,0.25,0.78,0.38,1.17c0.27,0.82,0.54,1.65,0.8,2.48c5.25,16.55,8.9,33.89,10.92,51.99c2.34,20.96,2.02,41.73-0.83,62.27
	c-0.09,0.68-0.18,1.36-0.28,2.04c-1.12,7.58-2.59,15.13-4.4,22.65c-0.25,1.04-0.49,2.08-0.75,3.12c-1.07,4.22-2.24,8.42-3.52,12.62
	c-0.19,0.62-0.58,1.18-0.87,1.77c-4.75,17.83-12.33,34.51-21.72,50.26c-0.15,0.26-0.32,0.51-0.47,0.77
	c-0.42,0.7-0.85,1.39-1.28,2.08c-2.84,4.65-5.77,9.18-8.78,13.59c-0.32,0.47-0.64,0.95-0.97,1.42c-2.28,3.3-4.62,6.53-7,9.69
	c-0.33,0.43-0.66,0.87-0.99,1.3c-1.67,2.19-3.36,4.34-5.08,6.46c-0.53,0.66-1.06,1.33-1.59,1.98c-3.37,4.09-6.84,8.04-10.4,11.86
	c-0.5,0.54-1.01,1.06-1.51,1.6c-2.23,2.36-4.5,4.69-6.8,6.95c-0.57,0.56-1.14,1.12-1.72,1.67c-1.39,1.34-2.79,2.67-4.2,3.97
	c-0.6,0.55-1.21,1.08-1.81,1.62c-0.76,0.69-1.53,1.38-2.3,2.06c-0.49,0.43-0.97,0.87-1.46,1.29c-2.73,2.36-5.52,4.64-8.34,6.87
	c-1.08,0.86-2.16,1.71-3.26,2.55C588.46,542.09,571.25,552.1,552.65,560z"/>
</svg>
