<?xml version="1.0" encoding="utf-8"?>
<!-- Generator: Adobe Illustrator 25.2.1, SVG Export Plug-In . SVG Version: 6.00 Build 0)  -->
<svg version="1.1" id="Capa_1" xmlns="http://www.w3.org/2000/svg" xmlns:xlink="http://www.w3.org/1999/xlink" x="0px" y="0px"
	 viewBox="0 0 134.6 72.5" style="enable-background:new 0 0 134.6 72.5;" xml:space="preserve">
<style type="text/css">
	.st0{fill:#FFC107;}
	.st1{enable-background:new    ;}
</style>
<path class="st0" d="M25.1,45.9c-0.2,1.1-2.3,0.4-2.9,0.7c-0.3-0.1,0.1-0.4,0.2-0.5C23.5,46.4,24.2,45.6,25.1,45.9z"/>
<path class="st0" d="M18,0c0.8,0,1.6,0.1,2.4,0.2c0.9,0,1.8,0.2,2.8,0.4c4,2,4.6,4.6,5.5,6.1c0,1.6,0.6,2.6,0.7,3.9
	c0.5,1.2,0.8,2.5,0.8,3.8c0.4,1.2,0.7,2.4,0.9,3.6c0.2,1.2,0.7,2.5,0.9,4c0.1,0.9-0.1,2.1,0.3,2.8c-0.6,2.4,0.5,3.7,0.7,5.9
	c-0.1,0.7-0.2,1.3-0.3,2c0,0.5,0.4,0.8,0.3,1.3c-0.3,1.4-1.6,0.5-2.9,0.3c-1.3-0.3-2.6,0-3.6,0.8c0.1,0.3,0.1,0.5,0.1,0.8
	c-0.4,0.7,0.1,1.6,0.1,2.5c-0.1,0.5-0.2,1-0.4,1.5c-0.1,0.9,0,1.7,0.1,2.5c0.2,0.7,0.3,1.4,0.3,2.1c0.8,0.3,0.1,1.8,0.4,3.3
	c-2.4,0.7-5,0.9-7.5,0.7c-0.9,1.7,0.4,3.4,0.2,4.9c0.3,0.6,1.2-0.1,1.8-0.1c0.3,0,2.7,0.4,3.8,0.4c2.2,0.7,3,0.7,2.5,1.9
	s-1.9-0.2-2.8-0.3c-0.8-0.1-1.6-0.2-2.4-0.2c-1.6-0.1-2.5,0.5-3.9,0.6c-0.1-0.7-0.3-1.4-0.6-2c0-0.2,0.1,0,0.2,0
	c-0.2-1.3-0.4-2.7-0.4-4c0-0.3-0.3-0.3-0.3-0.4s0.4-0.6,0.2-1c-2.5-0.2-5.1-0.3-7.7-0.2c0.1,0.3,0.1,0.6,0.2,0.8
	c0.1,1.1,0,2.1-0.2,3.2c-0.2,0.8,0,1.6,0.5,2.3c-0.3,0.2-0.5,0.5-0.7,0.9c-1.8-0.4-3.4-0.5-5-0.3c-1.4,0.7-2.7,1.7-3.7,2.9
	c-0.4,0-0.8-0.1-1.1-0.3C0,57.4,0,57.1,0,56.8c0.9-0.8,1.9-1.5,2.9-2.2c1.8-1.5,5.7-0.1,5.9-2.2c0.1-1,0.1-2,0.1-3
	c0-0.2-0.3-0.3-0.3-0.5s0.2-0.7-0.1-1C7.2,48,6,48.2,4.8,48.5c-0.4,0.1-0.6,0.3-0.9-0.5c0-0.1-0.3-1.5-0.3-1.6S3.5,45,3.4,44.5
	c0.2-1.7,0.3-3.5,0.3-5.2c0.3-0.3,1-5.4,1.2-6.2c0.1-0.5,0.2-2,0.4-2.8c0.2-0.7,1.2-2.6,1.3-3c1-0.1,1.3,0.7,2.5,0.4
	c0.2,0.2,0.1,0.3,0.2,0.4c-0.6,0.4-1.1,0.9-1.4,1.5c-0.3,1.1-0.5,2.3-0.7,3.4c-0.1,0.3-0.3,1.2-0.3,1.2c0,1.4-0.9,3.2-0.5,5
	c0,0.1,0.2,0.2,0.3,0.2c0,0.6,0,1.1,0,2.1S5.9,42.2,5,42.1c0,0.3-0.1,1.3-0.1,1.4c0-0.2,0,2.4,0,2.4c0,0.3,0.1,0.7,0.3,1
	c0.5,0,18.7,1.1,19.2,0.5c0.3-0.7-2.6-0.7-3.9-0.9c-1.1-0.2-6.5-0.6-7.8-0.9c-1.7-0.2-3.5-0.3-5.2-0.2c-0.8-0.1-1.6-0.5-2.3-1
	c0.1-0.3,0.3-0.5,0.4-0.8c0.5,0.1,5.4,0.3,8.3,0.7c0.2,0,7.1,1.4,8.4,1.1c0.6-0.1,0.9-0.5,1.5-0.5c0.3,0,0.5,0.1,0.8,0
	c0.1-1.2-0.2-2.6-0.2-3.8c0-0.6,0.1-1.2,0.1-1.8c-0.1-1-0.2-2.1-0.1-3.2c-1.5,0.1-3,0.6-4.2,1.5c-0.2-0.7-0.3-1.5-0.3-2.3
	c-1.1-2.6,0.7-7.1-0.6-9c-2,0.7-4,1-6.1,1c-1.1,0-2.7,0-4.1-0.1c-0.8-0.1-1.5-0.3-2.3-0.5c-0.2-0.1-0.2-0.3-0.5-0.4s-0.8,0-1.1-0.1
	s-1.7-0.4-1.3-2.5c0.5-1.4,1-2.1,1.7-2.2c0.1,0.1,0.4,0.1,0.5,0.2c-0.6-0.7-1.2-1.4-1.9-2.1c0-0.1-0.2-0.3-0.7-1.1
	c-0.5-1-0.6-1.4-0.7-1.6c-0.1-1.2-0.2-2.5-0.1-3.7c0-0.2-0.2-1.2,0.4-1.1c0.4-1.7,1-3.3,1.9-4.7c0.4-0.5,0.8-1,1.2-1.6
	S7.4,5,7.6,4.5C8,4.2,8.3,3.9,8.7,3.6C9.4,3,10.1,2.5,10.9,2c1.3-0.7,2.6-1.3,3.9-1.7C15.9,0.1,16.9,0,18,0z M13.8,2.3
	c-0.1,0.1-1.3,0.8-1.8,1.1c-0.2,0.1-0.5,0.2-0.8,0.3s-1.1,0.9-1.4,1.1C9.4,5,8.9,5.4,8.5,5.7C8.4,5.8,8.2,6,8.2,6
	c-0.4,0.3-0.7,1-1,1.2c0-0.1-0.6,0.6-0.7,1.2C5.9,9.2,5.4,10,5.1,10.9c-1.1,1.4-0.7,2.7-1.2,4c0-0.1-0.4,0.3,0,0.6
	c0.4,0.7,0.7,1.5,0.8,2.3c0.6,0.8,1.1,1.7,2.4,2.1C7.5,19,8,18.1,8.5,17.3c0.4-0.5,0.8-0.7,0.8-0.8c0.7-0.4,1.3-1,1.9-1.6
	c0.2,0.3,0.4,0,0.6,0c0-0.1,0-0.2-0.1-0.3c0.4-0.1,0.8-0.4,1.1-0.7c0.3,0,0.6-0.1,0.9-0.3c0.5-0.5,1.1-0.2,2-0.4
	c0.4,0.2,0.5,0.1,0.8,0.3c1.4,0.2,2.3,0.3,3.8,0.7c0.3,0.5,0.9,0.8,1.5,0.6c0.5,0.5,1,1,1.6,1.4c0.6,0.5,1.1,1,1.6,1.5
	c0.4,0.4,0.7,0.8,0.9,1.3c-0.1,0.9-0.4,1.8-0.9,2.5c-0.4,1.2-1.6,1.6-2,2.6c-0.9,0.7-1.6,0.4-1.6,1.6c0,0.8,0.4,2,0.2,2.8
	c0,0.1-0.3,0.2-0.3,0.3c-0.1,0.7-0.3,3-0.4,3.6c0,0.8,0.3,1.6,0.7,2.4c1.1,0,3-1.4,3.2-1.5s0.6,0.2,1,0.2c0.6-0.1,0.7-0.6,1.3-0.4
	c1.5-1.1,2.9,0.2,4.2-0.7c0-1.3-0.7-8-1-9.7s-0.6-3.5-1-5.5c-0.4-1.2-0.6-2.5-0.8-3.7c0-0.2-0.3-0.5-0.3-0.6
	c-0.2-1.1-0.4-2.1-0.8-3.2c-0.2-0.5-0.1-1.7-0.3-2.3c-0.2-0.5-0.5-0.9-0.9-1.3c-0.4-1.4-3-4-5.7-4.3c-0.2,0-0.6-0.1-0.9-0.2
	c-0.7-0.2-1.4-0.3-2.2-0.2C16.2,1.6,14.9,1.9,13.8,2.3z M9,19.4c-0.4-0.1-0.8,1.3-0.2,1.8c-1,0.9-2,1.8-1.3,2.8
	c-0.2-0.4,0.1,0.7,0.1,0.7c0.4,0.4,1.5,0,2,0.2c0,0,0.1,0.4,0.2,0.6c-0.5,0.1-1.1,0.2-1.6,0.4c0.1,0,0.1,0,0.1,0.1s0.2,0.2,0.4,0.3
	c0.7,0.1,1.4,0.2,2.2,0.2c0.7-0.1,1.4-0.3,2.1-0.5c0.6-0.1,1.8,0.6,2.6,0.3c0.8-0.3,1.6-0.3,2.8-0.6c0-0.1-0.3-0.8-0.2-0.8
	c1.1,0.2,0.1-1.2,0.2-1.9c0.6-0.4,1.4-0.6,2.1-0.4c0.2,0.6,0.5,1.2,0.9,1.8c1.4-1.3,3.3-3.2,3.1-5.6c-1.2-2-3.2-3.3-5.4-3.5
	c-2.3-1.1-5.6-0.2-6.6,0.2C11.9,15.8,9.6,17.4,9,19.4z M7,25.6C6.2,25,6.2,24,5.8,23.2c-1.1-0.2-1.2,0.7-1.1,1.6
	c0.3,0.1,0.5,0.3,0.6,0.6C6,25.2,6.6,25.8,7,25.6z"/>
<path class="st0" d="M17,19.6c0.3,0.1,0.3,0.4,0.4,0.6c0.6,0.1,0.9,0,1.4,0.1c0-0.4,0.2-0.3,0.3-0.4c0.3-1-0.2-2.4-1.3-2.4
	c-0.4,0.5-0.7,1.1-0.9,1.8c0.2,0.1,0.3,0.2,0.4,0.4C17.1,19.8,17,19.4,17,19.6z"/>
<path class="st0" d="M17.2,19.7c-0.1-0.2-0.2-0.3-0.4-0.4c0.2-0.6,0.5-1.2,0.9-1.8c1.1-0.1,1.6,1.4,1.3,2.4c-0.1,0.1-0.3,0-0.3,0.4
	c-0.5-0.1-0.7,0-1.4-0.1c-0.1-0.2-0.1-0.5-0.4-0.6C17,19.4,17.1,19.8,17.2,19.7z"/>
<path class="st0" d="M11.5,19.2c0-0.1,0.1,0,0.1,0c0.4-0.5,0.6-0.7,1.6-0.9c0.3,0.6,0.5,1.2,0.7,1.9c-0.2,0.1-0.4,0.5-0.6,1.1
	C11.5,21.6,12,20.4,11.5,19.2z"/>
<g class="st1">
	<path class="st0" d="M16.9,63.7c0.9,0.8,1.2,1.9,0.8,3.5c-0.2,1.1-0.7,1.9-1.4,2.4c-0.7,0.5-1.2,0.6-2.2,0.6c-2.1,0.1-4-0.3-6.3,0
		c-0.8,0.1-1,0-0.9-0.7c0,0,0.1-0.7,0.1-2.3c0-0.8-0.1-2.8,0-3.8c0-1.3-0.1-1.8,0-2.9c0-0.7,0.1-1.3,0.1-1.3c0-0.7,0.6-1.1,1.2-1.2
		c1,0,1.5,0,2.9,0.2c0.7,0.1,1.7,0,2.4,0.1c0.6,0.1,1,0.3,1.5,0.8c0.4,0.5,0.8,1,0.8,1.6s-0.3,1.2-0.6,1.6c-0.2,0.3-0.3,0.3,0.4,0.5
		C16,63.1,16.6,63.4,16.9,63.7z M8,67.6c0,0.6-0.1,0.9-0.1,1.3s0.2,0.4,1,0.4c1.5-0.1,2.5,0.1,4.1,0.1c1.3,0,2.3-0.1,2.9-0.5
		c0.5-0.4,0.5-1,0.7-1.9c0.3-1.3,0.2-2.3-0.6-2.9c-0.9-0.8-1.7-1-3-1c-1.4,0-1.6,0-3.1,0c-0.3,0-0.7-0.1-1.1-0.1c-0.8,0-1,0.1-1,1.2
		C7.7,65.3,8,66.8,8,67.6z M13.2,62.2c1.1,0,1.4-0.6,1.4-1.3c0-0.4-0.3-0.6-0.5-1c-0.2-0.3-0.5-0.6-0.9-0.7c-0.6-0.1-1.6,0.1-2.3,0
		c-0.6-0.1-1-0.2-1.4-0.2c-0.6,0-1,0.1-1.3,0.3c-0.3,0.3-0.3,0.8-0.3,1.9c-0.1,1,0.1,1.3,1.5,1.2C10.8,62.4,11.8,62.2,13.2,62.2z"/>
</g>
<g class="st1">
	<path class="st0" d="M21.3,68.4c-0.3,0.7-0.3,0.8-0.4,1.5c-0.1,0.6-1.3,0.4-1.2-0.1c0.3-0.7,0.5-1.1,0.7-1.8c0.5-1.4,1-2.6,1.4-3.7
		c0.8-2,1.7-4.4,2.4-5.9c0.1-0.2,1-0.5,1.2-0.2c0.4,0.6,0.6,1.4,1,2.3c0.8,1.5,1.8,2.6,2.4,3.7c0.7,1.2,1.4,2.5,2.2,3.7
		c0.5,0.7,0.7,1.1,1.1,1.9c0.3,0.5-0.8,0.9-1,0.5c-0.5-0.8-0.6-1-1-1.8c-0.1-0.2-0.2-0.3-0.3-0.5c-0.3-0.6-0.4-0.6-0.9-0.6
		c-0.8,0-1.5,0-2.3,0c-1,0-2.5,0-3.2,0c-0.8,0-1.2,0.1-1.7,0.1c-0.2,0-0.3,0.1-0.5,0.5C21.4,68.1,21.4,68.2,21.3,68.4z M28.4,65.3
		c-0.6-1.2-1.9-2.9-2.7-4.3c-0.1-0.3-0.2-0.4-0.3-0.7c-0.4-0.8-0.6-0.6-0.9-0.1c-0.6,1.3-1.2,3.3-1.7,4.6c-0.2,0.5-0.4,1-0.6,1.5
		c-0.1,0.3-0.1,0.4,1,0.4c1.3,0,2.8-0.1,3.9-0.1c0.6,0,1.1,0.1,1.6,0c0.4,0,0.4,0,0.1-0.6C28.7,65.7,28.6,65.5,28.4,65.3z"/>
	<path class="st0" d="M34.6,70.1c0-1.3,0.1-1.5,0.1-2.8c0-1.7,0.1-3.3,0.1-4.7c-0.1-1.4-0.1-4,0.4-4.1c1.8-0.4,2.9-0.1,5.4,0
		c2.9,0.1,5.3,1.1,5.3,4.6c0,1.9-1.8,2.9-4.1,3.2c-0.7,0.1-1.7,0.3-2.4,0.3c-0.5,0-1.9-0.1-1.9,0.1c0,0.3,1.3,0.5,2.1,0.8
		c1,0.3,2.6,0.9,3.5,1.2c1.7,0.5,1.5,0.4,3.2,0.9c0.6,0.2,0.2,1.2-0.4,0.9c-1.8-0.7-2.9-1-4.5-1.5c-0.8-0.3-1.5-0.5-2.6-0.9
		c-0.6-0.2-2.3-1.1-2.9-1c-0.3,0.1-0.3,1.2-0.2,3C35.7,70.5,34.6,70.7,34.6,70.1z M42.3,65.2c1.5-0.4,2.5-1,2.4-2.7
		c-0.1-2.3-1.4-3-3.8-3.1c-1.5-0.1-2.1-0.1-3.2-0.2c-0.9-0.1-1.7-0.1-1.9,0.6c-0.2,0.8-0.1,3.1-0.1,3.9c-0.1,2.2,0,2,1,2
		C38.1,65.7,40.5,65.7,42.3,65.2z"/>
	<path class="st0" d="M55.9,59.6c-1.5,0-2.5-0.2-3.6,0.3c-1,0.5-1.5,1.2-2,2.4c-0.4,1-0.5,1.3-0.3,3c0.1,0.9,0.1,1.6,0.4,2
		c0.5,0.6,0.4,0.8,1,1.4c0.7,0.7,1.1,0.7,2.3,0.8c0.6,0,1.3,0,1.9-0.1c0.6,0,1-0.2,1.7-0.2c0.6,0,1.1,0.1,1.8,0.4
		c0.3,0.1,0.2,0.9-0.5,0.8c-0.8-0.2-2,0-3.3,0c-0.6,0.1-1.2-0.2-1.9-0.1c-1.7,0.1-2-0.4-2.9-1.2c-1.4-1.3-1.6-2.3-1.7-3.9
		c-0.1-1.9,0.4-1.9,0.6-2.9c0.2-0.9,0.5-1.5,0.9-2c1-1.1,2.6-1.6,5.1-1.5c0.9,0,1.8-0.3,2.7,0.5c0.5,0.4,0.3,0.9-0.3,0.8
		C57.2,59.8,56.6,59.6,55.9,59.6z"/>
	<path class="st0" d="M62.9,68.9c0,0.8,1.9,0.5,2.9,0.4c1.3-0.1,1.4-0.1,2.5,0c1,0,1.6,0,2.5,0c0.4,0,0.3,0.9,0.1,1
		c-0.7,0.2-1.7,0-2.4,0c-1,0-1.4,0-2.7,0c-0.9,0-1.9,0.1-2.8,0.1c-1,0.1-1.2-0.6-1.2-1.4c0-3.4-0.1-4.6-0.1-8.2c0-0.9,0.1-0.8,0-1.7
		c-0.1-0.6,0-1.2,0.9-1.2s1.9,0.1,2.8,0.1c1.2,0,1.2,0,2.1-0.1c0.8,0,1.7-0.2,2.7-0.1c0.4,0,0.5,1,0.1,1c-1,0-1.8,0.1-2.6,0.1
		c-1,0.1-0.5,0-1.7,0c-0.6,0-2.1,0.1-2.7,0.1c-0.5,0-0.6,0.1-0.6,1.8c0,1.3-0.1,2.4,0,3.2c0,0.7,0.8,0.6,2.5,0.6
		c1.3,0,1.9-0.1,2.9,0c0.9,0,1.6,0.1,2.8,0c0.3,0,0.5,0.9,0,1c-1.2,0-2.6,0-3.5,0c-1,0-0.8,0-2.1,0c-1.5,0-2.6,0-2.6,0.4
		C62.8,66.8,62.8,67.5,62.9,68.9z"/>
</g>
<g class="st1">
	<path class="st0" d="M84.6,63.9c0.9,0.8,1.4,2.3,0.9,4C85.2,69,84.6,69.5,84,70c-0.7,0.5-1.2,0.6-2.2,0.6c-2.1,0-4.3,0.1-6.1-0.1
		c-0.8-0.1-1-0.2-1.1-0.7c-0.1-0.7,0.1-0.7,0.2-2.3c0-0.8,0.1-2.6,0.1-3.6c0-1.3,0-2,0.1-3.1c0-0.8,0.1-1.8,0.1-1.8
		c0.1-0.7,0.6-0.8,1.2-0.7c1.5,0.1,1.7-0.1,3.1,0c0.7,0,1.7,0.1,2.4,0.2c0.6,0.1,1.2,0.3,1.6,0.9c0.4,0.6,0.7,1.1,0.7,1.8
		c0,0.6-0.5,1.3-0.9,1.7C83,63,83,63.2,83.3,63.3C83.9,63.5,84.3,63.5,84.6,63.9z M75.8,67.7c0,0.6-0.1,0.9,0,1.2
		c0.2,0.3,0.3,0.4,0.8,0.5c1.7,0.4,2.4,0.2,4.1,0.2c1.3,0,2.3-0.1,2.9-0.5s0.8-0.7,0.9-1.6c0.1-1.5,0.1-2.5-0.6-3.1
		c-0.9-0.8-1.7-0.9-3-0.9c-1.4,0-1.6-0.1-3,0c-1.8,0-2.2,0.3-2.2,1.1C75.6,65.5,75.8,66.9,75.8,67.7z M81.5,62.6
		c1.1,0,1.4-0.7,1.4-1.5c0-0.4-0.2-0.8-0.5-1.2c-0.2-0.3-0.6-0.6-1-0.7c-0.6-0.1-1.6-0.1-2.3-0.1c-0.6,0-1.1,0.1-1.6,0.1
		c-0.6,0-1.2-0.1-1.4,0.2c-0.3,0.3-0.2,0.9-0.3,2c-0.1,1,0.1,1,0.3,1.3C76.3,62.9,80.1,62.5,81.5,62.6z"/>
</g>
<g class="st1">
	<path class="st0" d="M88.6,61c0.5-0.8,1.2-1.6,2.1-2.1c1-0.5,2.4-0.6,3.6-0.6s2.4,0.3,3.3,0.8c1.1,0.7,1.9,1.7,2.4,3
		c0.3,0.7,0.4,1.4,0.5,2.2c0,1.7-0.5,3.1-1.5,4.2s-3,1.9-5,1.6c-2-0.2-3.4-0.8-4.3-1.6c-1.2-1-1.6-2.3-1.7-4.3
		C88,62.8,88.1,61.9,88.6,61z M97.5,60.2c-0.8-0.6-1.8-0.8-3-0.9c-1.1,0-2.2,0.1-3,0.5c-0.7,0.4-1.4,1-1.8,1.9
		c-0.3,0.6-0.7,1.5-0.7,2.5c0,1.8,0.3,3.2,1.4,4.1c0.8,0.6,2.1,0.9,4,1.1c0.9,0.1,2.3,0,3-0.5c0.3-0.2,0.9-0.9,1.1-1.1
		c1.1-1,1.1-2,1.1-3.6C99.5,62.4,98.5,61,97.5,60.2z"/>
</g>
<g class="st1">
	<path class="st0" d="M113.7,63.9c0.9,0.8,1.3,2.3,0.9,4c-0.3,1.1-0.9,1.6-1.5,2.1c-0.7,0.5-1.2,0.6-2.2,0.6c-2.1,0-4.3,0.1-6.1-0.1
		c-0.8-0.1-1-0.2-1.1-0.7c-0.1-0.7,0.1-0.7,0.2-2.3c0-0.8,0.1-2.6,0.1-3.6c0-1.3,0-2,0.1-3.1c0.1-0.7,0.1-1.7,0.1-1.7
		c0.1-0.7,0.6-0.8,1.2-0.7c1.5,0.1,1.7-0.1,3.1,0c0.7,0,1.7,0.1,2.4,0.2c0.6,0.1,1.2,0.3,1.6,0.9c0.4,0.6,0.7,1.1,0.7,1.8
		c0,0.6-0.5,1.3-0.9,1.7c-0.2,0.2-0.2,0.4,0.1,0.5C113,63.5,113.3,63.5,113.7,63.9z M104.8,67.7c0,0.6-0.1,0.9,0,1.2
		c0.2,0.3,0.3,0.4,0.8,0.5c1.7,0.4,2.4,0.2,4.1,0.2c1.3,0,2.3-0.1,2.9-0.5s0.8-0.7,0.9-1.6c0.1-1.5,0.1-2.5-0.6-3.1
		c-0.9-0.8-1.7-0.9-3-0.9c-1.4,0-1.6-0.1-3,0c-1.8,0-2.2,0.3-2.2,1.1C104.7,65.5,104.9,66.9,104.8,67.7z M110.6,62.6
		c1.1,0,1.4-0.7,1.4-1.5c0-0.4-0.2-0.8-0.5-1.2c-0.2-0.3-0.6-0.6-1-0.7c-0.6-0.1-1.6-0.1-2.3-0.1c-0.6,0-1.1,0.1-1.6,0.1
		c-0.6,0-1.2-0.1-1.4,0.2c-0.3,0.3-0.2,0.9-0.3,2c-0.1,1,0.1,1,0.3,1.3C105.4,62.9,109.2,62.5,110.6,62.6z"/>
</g>
<g class="st1">
	<path class="st0" d="M118.2,68.4c-0.3,0.7-0.3,0.8-0.4,1.5c-0.1,0.6-1.3,0.4-1.2-0.1c0.3-0.7,0.5-1.1,0.7-1.8
		c0.5-1.4,1-2.6,1.4-3.7c0.8-2,1.7-4.4,2.4-5.9c0.1-0.2,1-0.5,1.2-0.2c0.4,0.6,0.6,1.4,1,2.3c0.8,1.5,1.8,2.6,2.4,3.7
		c0.7,1.2,1.4,2.5,2.2,3.7c0.5,0.7,0.7,1.1,1.1,1.9c0.3,0.5-0.8,0.9-1,0.5c-0.5-0.8-0.6-1-1-1.8c-0.1-0.2-0.2-0.3-0.3-0.5
		c-0.3-0.6-0.4-0.6-0.9-0.6c-0.8,0-1.5,0-2.2,0c-1,0-2.5,0-3.2,0c-0.8,0-1.2,0.1-1.7,0.1c-0.2,0-0.3,0.1-0.5,0.5
		C118.3,68.1,118.2,68.2,118.2,68.4z M125.3,65.3c-0.6-1.2-1.9-2.9-2.7-4.3c-0.1-0.3-0.2-0.4-0.3-0.7c-0.4-0.8-0.6-0.6-0.9-0.1
		c-0.6,1.3-1.2,3.3-1.7,4.6c-0.2,0.5-0.4,1-0.6,1.5c-0.1,0.3-0.1,0.4,1,0.4c1.3,0,2.8-0.1,3.9-0.1c0.6,0,1.1,0.1,1.6,0
		c0.4,0,0.4,0,0.1-0.6C125.5,65.7,125.4,65.5,125.3,65.3z"/>
</g>
<g class="st1">
	<path class="st0" d="M132.3,68.7c0.5,0,0.7,0.4,0.8,0.9c0.1,0.6-0.5,0.9-0.9,0.9s-1-0.4-0.9-0.9C131.5,69,131.9,68.7,132.3,68.7z"
		/>
</g>
</svg>
