<?xml version="1.0" encoding="utf-8"?>
<!-- Generator: Adobe Illustrator 25.0.1, SVG Export Plug-In . SVG Version: 6.00 Build 0)  -->
<svg version="1.1" id="Capa_1" xmlns="http://www.w3.org/2000/svg" xmlns:xlink="http://www.w3.org/1999/xlink" x="0px" y="0px"
	 viewBox="0 0 200 60" style="enable-background:new 0 0 200 60;" xml:space="preserve">
<style type="text/css">
	.st0{opacity:0.31;fill:#FFE17D;enable-background:new    ;}
	.st1{fill:#CC6666;}
	.st2{fill:#3763E5;}
</style>
<rect class="st0" width="200" height="60"/>
<g id="_x32_867e976-0564-4b7f-a664-36caaf08f572" transform="matrix(1.8428447943817412,0,0,1.8428447943817412,40,118.48735375245117)">
	<circle class="st1" cx="-3.9" cy="-44.1" r="3.4"/>
	<circle class="st1" cx="-12.9" cy="-44.1" r="3.4"/>
	<path class="st1" d="M-16.2-55.4h6.7v6.7h-6.7V-55.4z M-7.2-55.4h6.7v6.7h-6.7V-55.4z"/>
</g>
<g id="_x35_5c0f3a9-4e99-4b40-9593-d49c871d41bb" transform="matrix(5.888125304749934,0,0,5.888125304749934,-7.006869085321938,-2.649656283809101)">
	<path class="st2" d="M9.2,3.7v3.8h1.5c0.7,0,1.2-0.3,1.2-1.1c0-0.6-0.3-0.8-0.6-0.9c0.3-0.1,0.5-0.4,0.5-0.9c0-0.7-0.4-1-1.1-1H9.2
		z M10.6,5.7c0.3,0,0.8,0.1,0.8,0.7c0,0.6-0.3,0.7-0.8,0.7h-1V5.7H10.6z M10.6,4c0.5,0,0.7,0.2,0.7,0.6c0,0.5-0.2,0.7-0.7,0.7h-1V4
		H10.6z M14.5,5.6c0-0.6-0.3-0.9-0.9-0.9c-0.5,0-1.1,0.1-1.1,0.1l0,0.3c0,0,0.7-0.1,1-0.1c0.3,0,0.5,0.1,0.5,0.5v0.2l-0.9,0.1
		c-0.6,0.1-0.9,0.3-0.9,0.8c0,0.6,0.3,0.8,0.8,0.8c0.5,0,1-0.2,1-0.2c0.2,0.2,0.4,0.2,0.7,0.2l0-0.3c-0.2,0-0.3-0.1-0.3-0.2V5.6z
		 M14.1,6.1V7c0,0-0.5,0.2-0.9,0.2c-0.3,0-0.4-0.2-0.4-0.5c0-0.3,0.1-0.5,0.5-0.5L14.1,6.1z M15.3,7.5h0.4v-2c0,0,0.5-0.3,1-0.4V4.7
		c-0.5,0.1-1,0.4-1,0.4V4.7h-0.4V7.5z M18.2,4.7c-0.8,0-1.2,0.4-1.2,1.4c0,1.1,0.3,1.5,1.1,1.5c0.3,0,0.8-0.1,0.8-0.1l0-0.3
		c0,0-0.4,0-0.7,0c-0.7,0-0.8-0.3-0.8-1.1c0-0.7,0.2-1,0.8-1c0.2,0,0.7,0,0.7,0l0-0.3C19,4.8,18.5,4.7,18.2,4.7z M20.6,7.2
		c-0.5,0-0.7-0.3-0.7-0.9h1.8l0-0.3c0-0.9-0.4-1.3-1.1-1.3c-0.7,0-1.2,0.4-1.2,1.5c0,0.9,0.3,1.4,1.1,1.4c0.5,0,1.1-0.1,1.1-0.1
		l0-0.3C21.6,7.1,21,7.2,20.6,7.2z M19.9,6c0-0.7,0.3-0.9,0.7-0.9c0.5,0,0.7,0.2,0.7,0.9H19.9z M23.6,4.7c-0.4,0-0.8,0.2-0.8,0.2
		V3.5h-0.4v4c0,0,0.6,0.1,0.9,0.1c1,0,1.3-0.4,1.3-1.5C24.6,5.1,24.4,4.7,23.6,4.7z M23.3,7.2c-0.1,0-0.5,0-0.5,0v-2
		c0,0,0.4-0.2,0.8-0.2c0.5,0,0.6,0.3,0.6,1C24.2,6.9,24.1,7.2,23.3,7.2z M26.4,4.7c-0.9,0-1.2,0.5-1.2,1.4c0,1,0.3,1.5,1.2,1.5
		c0.9,0,1.2-0.5,1.2-1.5C27.5,5.1,27.2,4.7,26.4,4.7z M26.4,7.2c-0.7,0-0.8-0.3-0.8-1.1c0-0.8,0.2-1.1,0.8-1.1
		c0.6,0,0.8,0.3,0.8,1.1C27.1,6.9,27,7.2,26.4,7.2z M29.5,4.7c-0.4,0-0.8,0.2-0.8,0.2V3.5h-0.4v4c0,0,0.6,0.1,0.9,0.1
		c1,0,1.3-0.4,1.3-1.5C30.5,5.1,30.2,4.7,29.5,4.7z M29.1,7.2c-0.2,0-0.5,0-0.5,0v-2c0,0,0.4-0.2,0.8-0.2c0.5,0,0.6,0.3,0.6,1
		C30,6.9,29.9,7.2,29.1,7.2z M33.1,5.6c0-0.6-0.3-0.9-0.9-0.9c-0.5,0-1.1,0.1-1.1,0.1l0,0.3c0,0,0.7-0.1,1-0.1
		c0.3,0,0.5,0.1,0.5,0.5v0.2l-0.9,0.1C31.2,6,31,6.2,31,6.7c0,0.6,0.3,0.8,0.8,0.8c0.5,0,1-0.2,1-0.2c0.2,0.2,0.4,0.2,0.7,0.2l0-0.3
		c-0.2,0-0.3-0.1-0.3-0.2V5.6z M32.7,6.1V7c0,0-0.5,0.2-0.9,0.2c-0.3,0-0.4-0.2-0.4-0.5c0-0.3,0.1-0.5,0.5-0.5L32.7,6.1z"/>
</g>
</svg>
