<?xml version="1.0" encoding="utf-8"?>
<!-- Generator: Adobe Illustrator 25.0.1, SVG Export Plug-In . SVG Version: 6.00 Build 0)  -->
<svg version="1.1" id="Capa_1" xmlns="http://www.w3.org/2000/svg" xmlns:xlink="http://www.w3.org/1999/xlink" x="0px" y="0px"
	 viewBox="0 0 200 60" style="enable-background:new 0 0 200 60;" xml:space="preserve">
<style type="text/css">
	.st0{opacity:0.31;fill:#FFE17D;}
	.st1{fill:#333366;}
	.st2{fill:#CC6666;}
	.st3{fill:#FFCCCC;}
</style>
<rect class="st0" width="200" height="60"/>
<g>
	
		<g id="af59ec77-2c74-4e00-87d9-80786fe514f2" transform="matrix(3.3034805187044,0,0,3.3034805187044,111.97103342021572,115.03064311685993)">
		<path class="st1" d="M-10.8-28.8L-10.8-28.8L-10.8-28.8C-10.8-28.8-10.8-28.7-10.8-28.8L-10.8-28.8L-10.8-28.8c0,0.1,0,0.1,0,0.2
			l0,0l0,0c0,0.1,0,0.1,0,0.2l0,0l0,0c0,0,0.1,0,0.1,0.1l0,0l0,0c0,0,0.1,0.1,0.1,0.1l0,0l0,0c0.2,0.2,0.3,0.6,0.2,1l0,0l0,0
			c0,0.2-0.1,0.4-0.3,0.6l0,0l0,0c-0.1,0.1-0.2,0.2-0.3,0.2l0,0l0,0c0,0-0.1,0-0.1,0l0,0l0,0c-0.1,0-0.1,0-0.2,0l0,0l0,0
			c-0.1,0-0.3,0-0.4,0l0,0l0,0c-0.1,0-0.3,0-0.4,0l0,0l0,0c-0.1,0-0.2,0-0.3,0l0,0l0,0c-0.1,0-0.2,0-0.2,0l0,0l0,0c0,0-0.1,0-0.1,0
			l0,0l0,0c-0.1,0-0.1,0-0.1,0l0,0l0,0l0,0c0,0,0,0,0,0l0,0l0,0c0,0,0,0,0,0l0,0l0,0c0,0,0-0.1,0-0.1l0,0v-0.3v-0.5l0,0
			c0-0.1,0-0.2,0-0.2l0,0l0,0c0-0.1,0-0.2,0-0.2l0,0l0,0c0-0.2,0-0.3,0-0.5l0,0l0,0c0-0.2,0-0.3,0-0.5l0,0l0,0c0-0.1,0-0.2,0-0.3
			l0,0l0,0c0-0.1,0-0.2,0-0.3l0,0l0,0c0,0,0-0.1,0-0.1l0,0l0,0c0,0,0-0.1,0-0.1l0,0l0,0c0,0,0,0,0,0l0,0l0,0c0,0,0.1,0,0.1,0l0,0
			l0,0c0.1,0,0.1,0,0.2,0l0,0l0,0c0,0,0.1,0,0.1,0l0,0l0,0c0,0,0.1,0,0.1,0l0,0l0,0c0.1,0,0.2,0,0.3,0l0,0l0,0c0.1,0,0.2,0,0.3,0
			l0,0l0,0c0.2,0,0.4,0.1,0.6,0.2l0,0l0,0c0.2,0.1,0.3,0.4,0.3,0.7l0,0l0,0C-10.8-29-10.8-28.9-10.8-28.8z M-12.7-27.8v0.4l0,0
			c0,0,0,0.1,0,0.1l0,0l0,0c0,0,0,0.1,0,0.1l0,0l0,0c0,0.1,0,0.2,0.1,0.2l0,0l0,0c0,0,0,0,0.1,0l0,0l0,0c0,0,0.1,0,0.1,0l0,0l0,0
			c0,0,0.1,0,0.1,0l0,0l0,0c0,0,0.1,0,0.1,0l0,0l0,0c0,0,0.1,0,0.1,0l0,0l0,0c0.1,0,0.1,0,0.2,0l0,0l0,0c0.1,0,0.2,0,0.3,0l0,0l0,0
			c0.1,0,0.2,0,0.3-0.1l0,0l0,0c0.2-0.1,0.3-0.2,0.4-0.4l0,0v0l0,0c0,0,0-0.1,0-0.2l0,0l0,0c0-0.1,0-0.1,0-0.2l0,0l0,0
			c0-0.1,0-0.1,0-0.2l0,0l0,0c0-0.1,0-0.1-0.1-0.1l0,0l0,0l0,0c-0.1-0.1-0.1-0.1-0.2-0.1l0,0l0,0c-0.1,0-0.1-0.1-0.2-0.1l0,0l0,0
			c-0.1,0-0.2,0-0.2,0l0,0l0,0c-0.1,0-0.1,0-0.2,0l0,0l0,0c-0.1,0-0.1,0-0.2,0l0,0l0,0c0,0-0.1,0-0.1,0l0,0l0,0c-0.1,0-0.1,0-0.1,0
			l0,0l0,0c0,0-0.1,0-0.1,0l0,0l0,0c-0.1,0-0.2,0-0.3,0.1l0,0l0,0C-12.6-28.1-12.7-28-12.7-27.8L-12.7-27.8z M-11.2-29.1L-11.2-29.1
			L-11.2-29.1L-11.2-29.1c0-0.1-0.1-0.2-0.1-0.3l0,0l0,0c-0.1-0.1-0.1-0.1-0.2-0.1l0,0l0,0c-0.1,0-0.1-0.1-0.2-0.1l0,0l0,0
			c-0.1,0-0.2,0-0.3,0l0,0l0,0c-0.1,0-0.2,0-0.3,0l0,0l0,0c-0.2,0-0.3,0.1-0.3,0.1l0,0l0,0c0,0.1,0,0.1,0,0.2l0,0l0,0
			c0,0.1,0,0.1,0,0.2l0,0l0,0c0,0,0,0.1,0,0.1l0,0l0,0c0,0,0,0.1,0,0.2l0,0l0,0c0,0.1,0,0.2,0,0.2l0,0l0,0c0,0,0.1,0.1,0.1,0.1l0,0
			l0,0c0,0,0.1,0,0.1,0l0,0l0,0c0,0,0.1,0,0.1,0l0,0l0,0c0,0,0.1,0,0.1,0l0,0l0,0c0.1,0,0.1,0,0.2,0l0,0l0,0c0.1,0,0.2,0,0.3,0l0,0
			l0,0c0.2,0,0.3-0.1,0.4-0.2l0,0l0,0c0,0,0.1-0.1,0.1-0.2l0,0l0,0C-11.2-28.9-11.2-29-11.2-29.1L-11.2-29.1L-11.2-29.1z M-5.7-26.7
			L-5.7-26.7L-5.7-26.7c0,0.1,0,0.2-0.1,0.2l0,0l0,0c-0.1,0-0.1,0-0.2-0.1l0,0l0,0c0,0,0-0.1-0.1-0.1l0,0l0,0c0,0,0-0.1,0-0.1l0,0
			l0,0c-0.1-0.1-0.1-0.2-0.1-0.3l0,0l0,0c0-0.1-0.1-0.2-0.1-0.2l0,0l0,0c-0.1-0.1-0.2-0.2-0.3-0.2l0,0l0,0c-0.1,0-0.2,0-0.4,0l0,0
			l0,0c-0.1,0-0.2,0-0.3,0l0,0l0,0c-0.1,0-0.2,0-0.3,0l0,0l0,0c-0.2,0-0.4,0.1-0.5,0.2l0,0l0,0l0,0l0,0c0,0.1-0.1,0.1-0.1,0.2l0,0
			l0,0c0,0.1-0.1,0.1-0.1,0.2l0,0l-0.1,0.2l0,0c-0.1,0.1-0.1,0.1-0.2,0.1l0,0l0,0c0,0-0.1,0-0.1,0l0,0l0,0c0,0,0-0.1,0-0.1l0,0l0,0
			c0,0,0-0.1,0-0.1l0,0l0,0c0,0,0-0.1,0-0.1l0,0l0,0c0,0,0-0.1,0-0.1l0,0l0.1-0.3l0,0c0.1-0.3,0.3-0.5,0.4-0.8l0,0l0,0
			c0.1-0.3,0.2-0.6,0.4-0.8l0,0l0,0c0,0,0-0.1,0.1-0.1l0,0l0,0c0,0,0-0.1,0-0.1l0,0l0,0c0-0.1,0.1-0.2,0.1-0.3l0,0l0,0
			c0-0.1,0.1-0.2,0.1-0.3l0,0l0.1-0.1l0,0c0-0.1,0.1-0.1,0.1-0.1l0,0l0,0c0,0,0.1,0,0.1,0.1l0,0l0,0c0.1,0.1,0.1,0.2,0.2,0.3l0,0
			l0,0c0.1,0.1,0.1,0.2,0.1,0.3l0,0l0,0c0.1,0.3,0.3,0.6,0.4,0.8l0,0l0,0c0.1,0.3,0.2,0.6,0.4,0.8l0,0l0,0c0,0.1,0.1,0.2,0.1,0.2
			l0,0l0,0c0,0.1,0.1,0.2,0.1,0.2l0,0l0,0c0,0.1,0.1,0.1,0.1,0.2l0,0l0,0c0,0,0,0.1,0.1,0.2l0,0l0,0C-5.8-26.8-5.8-26.7-5.7-26.7
			L-5.7-26.7L-5.7-26.7C-5.7-26.7-5.7-26.7-5.7-26.7z M-6.8-28.2L-6.8-28.2L-6.8-28.2c0-0.1-0.1-0.2-0.1-0.3l0,0l0,0
			c0-0.1-0.1-0.2-0.1-0.3l0,0l0,0C-7.2-28.9-7.3-29-7.4-29l0,0l0,0c0,0-0.1,0-0.1,0l0,0l0,0c0,0-0.1,0.1-0.1,0.1l0,0l0,0
			c0,0,0,0.1-0.1,0.1l0,0l0,0c0,0,0,0.1,0,0.1l0,0l0,0c0,0.1-0.1,0.2-0.1,0.3l0,0l0,0c0,0.1-0.1,0.2-0.1,0.4l0,0l0,0
			c0,0.1,0,0.1,0,0.2l0,0l0,0c0,0,0.1,0.1,0.2,0.1l0,0l0,0c0.1,0,0.2,0,0.2,0l0,0l0,0c0.1,0,0.1,0,0.2,0l0,0l0,0c0.1,0,0.2,0,0.3,0
			l0,0l0,0c0.1,0,0.2-0.1,0.2-0.2l0,0l0,0c0-0.1,0-0.1,0-0.2l0,0l0,0C-6.8-28.1-6.8-28.1-6.8-28.2L-6.8-28.2L-6.8-28.2
			C-6.8-28.2-6.8-28.2-6.8-28.2z M-2.1-29.8L-2.1-29.8L-2.1-29.8c0.1,0.1,0.1,0.2,0.2,0.3l0,0l0,0c0,0.1,0.1,0.2,0.1,0.3l0,0l0,0
			c0.1,0.1,0.1,0.2,0,0.3l0,0l0,0c0,0.1-0.1,0.2-0.2,0.3l0,0l0,0c-0.1,0.1-0.2,0.1-0.4,0.2l0,0l0,0c-0.1,0-0.1,0-0.2,0.1l0,0l0,0
			c-0.1,0-0.1,0.1-0.2,0.1l0,0l0,0c0,0.1,0,0.1,0,0.2l0,0l0,0c0,0.1,0.1,0.1,0.1,0.2l0,0l0,0c0,0,0,0.1,0.1,0.1l0,0l0,0
			c0,0,0,0.1,0.1,0.1l0,0l0,0c0,0,0.1,0.1,0.1,0.2l0,0l0,0c0.1,0.1,0.2,0.2,0.3,0.3l0,0l0,0c0.1,0.1,0.2,0.2,0.3,0.3l0,0l0,0l0,0
			c0.1,0.1,0.1,0.2,0,0.2l0,0l0,0c-0.1,0.1-0.2,0.1-0.2,0l0,0l0,0c-0.1-0.1-0.1-0.1-0.2-0.2l0,0l0,0c0,0-0.1-0.1-0.1-0.1l0,0l0,0
			c-0.1-0.1-0.2-0.2-0.3-0.4l0,0l0,0c-0.1-0.1-0.1-0.2-0.2-0.2l0,0l0,0c-0.1-0.1-0.1-0.2-0.2-0.2l0,0l0,0c-0.1-0.3-0.3-0.4-0.5-0.5
			l0,0l0,0c-0.2-0.1-0.4-0.1-0.5,0.1l0,0l0,0c0,0.1,0,0.1,0,0.2l0,0v1.2v0.1l0,0c0,0.1-0.1,0.2-0.2,0.2l0,0l0,0
			c-0.1,0-0.2-0.1-0.2-0.2l0,0l0,0c0-0.1,0-0.2,0-0.3l0,0l0,0c0-0.1,0-0.2,0-0.3l0,0l0,0c0-0.1,0-0.1,0-0.2l0,0l0,0
			c0-0.1,0-0.1,0-0.2l0,0l0,0c0-0.1,0-0.1,0-0.2l0,0l0,0c0-0.1,0-0.1,0-0.2l0,0l0,0c0-0.2,0-0.3,0-0.5l0,0l0,0c0-0.1,0-0.3,0-0.4
			l0,0l0,0c0-0.1,0-0.3,0-0.4l0,0l0,0c0-0.1,0-0.1,0-0.2l0,0l0,0c0-0.1,0-0.2,0-0.2l0,0l0,0c0.1-0.1,0.2-0.1,0.5-0.1l0,0h0.2l0,0
			c0.1,0,0.3,0,0.4,0l0,0l0,0c0.1,0,0.3,0,0.4,0l0,0l0,0C-2.6-30-2.3-29.9-2.1-29.8z M-3.7-28.6L-3.7-28.6L-3.7-28.6
			c0.1,0,0.3,0,0.4,0l0,0l0,0c0.1,0,0.2,0,0.3,0l0,0l0,0c0.1,0,0.1,0,0.2,0l0,0l0,0c0.1,0,0.2,0,0.3,0l0,0l0,0
			c0.2,0,0.4-0.1,0.4-0.3l0,0l0,0c0-0.1,0-0.1,0-0.2l0,0l0,0c0-0.1,0-0.1-0.1-0.2l0,0l0,0c0-0.1-0.1-0.1-0.1-0.1l0,0l0,0
			c-0.1,0-0.1-0.1-0.2-0.1l0,0l0,0c-0.1,0-0.1,0-0.2-0.1l0,0l0,0c-0.2,0-0.3,0-0.5,0l0,0l0,0c-0.2,0-0.3,0-0.5,0l0,0l0,0
			c0,0-0.1,0-0.1,0l0,0l0,0c0,0-0.1,0-0.1,0l0,0l0,0c-0.1,0-0.1,0-0.2,0.1l0,0l0,0c0,0-0.1,0.1,0,0.2l0,0l0,0c0,0,0,0.1,0,0.1l0,0
			l0,0c0,0.1,0,0.1,0,0.2l0,0l0,0c0,0,0,0.1,0,0.2l0,0l0,0c0,0.1,0,0.2,0,0.3l0,0l0,0C-3.9-28.6-3.8-28.6-3.7-28.6z M2-27L2-27L2-27
			c0.2-0.1,0.3-0.1,0.3,0.1l0,0l0,0c0,0.1,0,0.1-0.1,0.2l0,0l0,0c0,0-0.1,0.1-0.1,0.1l0,0l0,0c0,0-0.1,0-0.1,0l0,0l0,0
			c-0.1,0-0.2,0.1-0.2,0.1l0,0l0,0c-0.1,0-0.1,0-0.2,0l0,0l0,0c-0.1,0-0.2,0-0.3,0l0,0l0,0c-0.1,0-0.2,0-0.3,0l0,0l0,0
			c-0.2,0-0.4-0.1-0.6-0.2l0,0l0,0C0.2-26.8,0.1-27,0-27.1l0,0l0,0c-0.1-0.2-0.2-0.3-0.2-0.5l0,0l0,0l0,0c0-0.1,0-0.2,0-0.4l0,0l0,0
			c0-0.1,0-0.3,0-0.4l0,0l0,0c0-0.1,0-0.2,0-0.2l0,0l0,0c0-0.1,0-0.1,0-0.2l0,0l0,0c0-0.1,0.1-0.2,0.2-0.4l0,0l0,0
			c0.1-0.2,0.2-0.3,0.3-0.5l0,0l0,0c0.1-0.1,0.3-0.2,0.5-0.3l0,0l0,0c0.1,0,0.2,0,0.3-0.1l0,0l0,0c0,0,0.1,0,0.1,0l0,0l0,0
			c0,0,0.1,0,0.2,0l0,0l0,0c0,0,0.1,0,0.2,0l0,0l0,0c0.1,0,0.1,0,0.2,0l0,0l0,0c0.1,0,0.2,0.1,0.3,0.1l0,0l0,0
			c0.1,0,0.2,0.1,0.2,0.2l0,0l0,0c0,0,0,0.1,0,0.1l0,0l0,0c0,0.1-0.1,0.1-0.1,0.1l0,0l0,0c0,0-0.1,0-0.1,0l0,0l0,0c0,0-0.1,0-0.1,0
			l0,0l0,0c-0.1,0-0.1-0.1-0.2-0.1l0,0l0,0c-0.1,0-0.1,0-0.2-0.1l0,0l0,0c-0.1,0-0.1,0-0.2,0l0,0l0,0c-0.1,0-0.1,0-0.2,0l0,0l0,0
			c-0.2,0.1-0.3,0.1-0.4,0.1l0,0l0,0c-0.1,0-0.2,0.2-0.3,0.3l0,0l0,0c-0.1,0.1-0.2,0.3-0.2,0.4l0,0l0,0c0,0.1-0.1,0.3-0.1,0.4l0,0
			l0,0c0,0.2,0,0.3,0,0.5l0,0l0,0c0,0.2,0.1,0.3,0.1,0.4l0,0v0h0l0,0c0.2,0.3,0.4,0.5,0.7,0.6l0,0l0,0c0.2,0.1,0.4,0.1,0.5,0l0,0
			l0,0c0,0,0.1,0,0.1,0l0,0l0,0c0,0,0.1,0,0.1,0l0,0l0,0C1.8-26.9,1.9-26.9,2-27z M3.6-26.8L3.6-26.8L3.6-26.8c0-0.2,0-0.5,0-0.7
			l0,0l0,0c0-0.2,0-0.5,0-0.7l0,0v-0.2l0,0c0-0.1,0-0.2,0-0.3l0,0l0,0c0-0.1,0-0.2,0-0.3l0,0l0,0c0-0.1,0-0.2,0-0.3l0,0l0,0
			c0-0.1,0-0.2,0-0.3l0,0l0,0c0-0.1,0-0.2,0.1-0.3l0,0l0,0C3.7-30,3.8-30,4-30l0,0l0,0c0.1,0,0.1,0,0.2,0l0,0l0,0c0,0,0.1,0,0.1,0
			l0,0l0,0c0.1,0,0.3,0,0.4,0l0,0l0,0c0.1,0,0.3,0,0.4,0l0,0l0,0c0.1,0,0.2,0,0.2,0l0,0l0,0c0.1,0,0.2,0,0.2,0l0,0l0.3,0l0,0
			c0,0,0.1,0,0.1,0l0,0l0,0c0,0,0,0,0.1,0l0,0l0,0c0.1,0,0.1,0.1,0.1,0.2l0,0l0,0c0,0,0,0.1,0,0.1l0,0l0,0c0,0,0,0-0.1,0l0,0l0,0
			c0,0-0.1,0-0.1,0l0,0l0,0c0,0-0.1,0-0.1,0l0,0l0,0c-0.2,0-0.4,0-0.7,0l0,0l0,0c0,0,0,0-0.1,0l0,0l0,0c0,0-0.1,0-0.1,0l0,0H4.6l0,0
			c-0.1,0-0.2,0-0.2,0l0,0l0,0c-0.1,0-0.1,0-0.2,0l0,0l0,0c-0.1,0-0.1,0-0.2,0l0,0l0,0c0,0-0.1,0-0.1,0.1l0,0l0,0c0,0,0,0.1,0,0.2
			l0,0l0,0c0,0,0,0.1,0,0.1l0,0l0,0c0,0,0,0,0,0.1l0,0l0,0c0,0,0,0.1,0,0.1l0,0l0,0c0,0,0,0.1,0,0.2l0,0l0,0c0,0.1,0,0.2,0.1,0.3
			l0,0l0,0c0.1,0.1,0.2,0.1,0.4,0.1l0,0l0,0c0.1,0,0.2,0,0.2,0l0,0l0,0c0.1,0,0.2,0,0.2,0l0,0l0,0c0,0,0.1,0,0.1,0l0,0l0,0
			c0.1,0,0.1,0,0.2,0l0,0l0,0c0.1,0,0.2,0,0.3,0.1l0,0l0,0c0,0,0,0.1,0,0.1l0,0l0,0c0,0.1-0.1,0.1-0.2,0.1l0,0l0,0
			c-0.1,0-0.2,0-0.2,0l0,0l0,0c-0.1,0-0.1,0-0.2,0l0,0l0,0c-0.1,0-0.1,0-0.2,0l0,0l0,0c-0.1,0-0.2,0-0.2,0l0,0l0,0
			c-0.1,0-0.2,0-0.3,0l0,0l0,0c0,0,0,0,0,0l0,0l0,0c0,0,0,0,0,0l0,0h0l0,0c0,0-0.1,0-0.1,0l0,0l0,0C4-28.2,4-28.1,4-28l0,0l0,0
			c0,0.1,0,0.2,0,0.3l0,0l0,0c0,0,0,0.1,0,0.1l0,0l0,0c0,0,0,0.1,0,0.1l0,0l0,0c0,0.1,0,0.1,0,0.2l0,0l0,0c0,0.1,0,0.1,0,0.2l0,0
			l0,0c0,0.1,0,0.2,0,0.3l0,0l0,0c0.1,0.1,0.2,0.1,0.3,0.1l0,0l0,0c0.1,0,0.2,0,0.4,0l0,0l0,0c0.1,0,0.3,0,0.4,0l0,0l0,0
			c0.1,0,0.2,0,0.4,0l0,0l0,0c0.1,0,0.2,0,0.4,0l0,0l0,0c0,0,0.1,0,0.2,0l0,0l0,0c0.1,0,0.1,0,0.2,0l0,0l0,0c0,0,0.1,0.1,0.1,0.1
			l0,0l0,0c0,0.1,0,0.2-0.2,0.2l0,0l0,0c-0.2,0-0.5,0-0.7,0l0,0l0,0c-0.2,0-0.5,0-0.7,0l0,0l0,0c0,0,0,0,0,0l0,0l0,0c0,0,0,0,0,0
			l0,0l0,0c-0.1,0-0.2,0-0.2,0l0,0l0,0c-0.1,0-0.1,0-0.2,0l0,0l0,0c0,0-0.1,0-0.1,0l0,0l0,0c0,0-0.1,0-0.1,0l0,0l0,0
			c0,0-0.1,0-0.1,0l0,0l0,0c0,0,0,0-0.1,0l0,0l0,0C3.7-26.5,3.6-26.6,3.6-26.8z M9.7-28.8L9.7-28.8L9.7-28.8
			C9.7-28.8,9.7-28.7,9.7-28.8L9.7-28.8L9.7-28.8c0,0.1,0,0.1,0,0.2l0,0l0,0c0,0.1,0,0.1,0,0.2l0,0l0,0c0,0,0.1,0,0.1,0.1l0,0l0,0
			c0,0,0.1,0.1,0.1,0.1l0,0l0,0c0.2,0.2,0.3,0.6,0.2,1l0,0l0,0c0,0.2-0.1,0.4-0.3,0.6l0,0l0,0c-0.1,0.1-0.2,0.2-0.3,0.2l0,0l0,0
			c0,0-0.1,0-0.1,0l0,0l0,0c-0.1,0-0.1,0-0.2,0l0,0l0,0c-0.1,0-0.3,0-0.4,0l0,0l0,0c-0.1,0-0.3,0-0.4,0l0,0l0,0c-0.1,0-0.2,0-0.3,0
			l0,0l0,0c-0.1,0-0.2,0-0.2,0l0,0l0,0c0,0-0.1,0-0.1,0l0,0l0,0c-0.1,0-0.1,0-0.1,0l0,0l0,0l0,0c0,0,0,0,0,0l0,0l0,0c0,0,0,0,0,0
			l0,0l0,0c0,0,0-0.1,0-0.1l0,0v-0.3v-0.5l0,0c0-0.1,0-0.2,0-0.2l0,0l0,0c0-0.1,0-0.2,0-0.2l0,0l0,0c0-0.2,0-0.3,0-0.5l0,0l0,0
			c0-0.2,0-0.3,0-0.5l0,0l0,0c0-0.1,0-0.2,0-0.3l0,0l0,0c0-0.1,0-0.2,0-0.3l0,0l0,0c0,0,0-0.1,0-0.1l0,0l0,0c0,0,0-0.1,0-0.1l0,0
			l0,0c0,0,0,0,0,0l0,0l0,0c0,0,0.1,0,0.1,0l0,0l0,0c0.1,0,0.1,0,0.2,0l0,0l0,0c0,0,0.1,0,0.1,0l0,0l0,0c0,0,0.1,0,0.1,0l0,0l0,0
			c0.1,0,0.2,0,0.3,0l0,0l0,0c0.1,0,0.2,0,0.3,0l0,0l0,0c0.2,0,0.4,0.1,0.6,0.2l0,0l0,0c0.2,0.1,0.3,0.4,0.3,0.7l0,0l0,0
			C9.7-29,9.7-28.9,9.7-28.8z M7.8-27.8v0.4l0,0c0,0,0,0.1,0,0.1l0,0l0,0c0,0,0,0.1,0,0.1l0,0l0,0c0,0.1,0,0.2,0.1,0.2l0,0l0,0
			c0,0,0,0,0.1,0l0,0l0,0c0,0,0.1,0,0.1,0l0,0l0,0c0,0,0.1,0,0.1,0l0,0l0,0c0,0,0.1,0,0.1,0l0,0l0,0c0,0,0.1,0,0.1,0l0,0l0,0
			c0.1,0,0.1,0,0.2,0l0,0l0,0c0.1,0,0.2,0,0.3,0l0,0l0,0c0.1,0,0.2,0,0.3-0.1l0,0l0,0c0.2-0.1,0.3-0.2,0.4-0.4l0,0v0l0,0
			c0,0,0-0.1,0-0.2l0,0l0,0c0-0.1,0-0.1,0-0.2l0,0l0,0c0-0.1,0-0.1,0-0.2l0,0l0,0c0-0.1,0-0.1-0.1-0.1l0,0l0,0l0,0
			c-0.1-0.1-0.1-0.1-0.2-0.1l0,0l0,0c-0.1,0-0.1-0.1-0.2-0.1l0,0l0,0c-0.1,0-0.2,0-0.2,0l0,0l0,0c-0.1,0-0.1,0-0.2,0l0,0l0,0
			c-0.1,0-0.1,0-0.2,0l0,0l0,0c0,0-0.1,0-0.1,0l0,0l0,0c-0.1,0-0.1,0-0.1,0l0,0l0,0c0,0-0.1,0-0.1,0l0,0l0,0c-0.1,0-0.2,0-0.3,0.1
			l0,0l0,0C7.9-28.1,7.8-28,7.8-27.8L7.8-27.8z M9.3-29.1L9.3-29.1L9.3-29.1L9.3-29.1c0-0.1-0.1-0.2-0.1-0.3l0,0l0,0
			C9.1-29.5,9-29.5,9-29.5l0,0l0,0c-0.1,0-0.1-0.1-0.2-0.1l0,0l0,0c-0.1,0-0.2,0-0.3,0l0,0l0,0c-0.1,0-0.2,0-0.3,0l0,0l0,0
			c-0.2,0-0.3,0.1-0.3,0.1l0,0l0,0c0,0.1,0,0.1,0,0.2l0,0l0,0c0,0.1,0,0.1,0,0.2l0,0l0,0c0,0,0,0.1,0,0.1l0,0l0,0c0,0,0,0.1,0,0.2
			l0,0l0,0c0,0.1,0,0.2,0,0.2l0,0l0,0c0,0,0.1,0.1,0.1,0.1l0,0l0,0c0,0,0.1,0,0.1,0l0,0l0,0c0,0,0.1,0,0.1,0l0,0l0,0
			c0,0,0.1,0,0.1,0l0,0l0,0c0.1,0,0.1,0,0.2,0l0,0l0,0c0.1,0,0.2,0,0.3,0l0,0l0,0c0.2,0,0.3-0.1,0.4-0.2l0,0l0,0
			c0,0,0.1-0.1,0.1-0.2l0,0l0,0C9.3-28.9,9.3-29,9.3-29.1L9.3-29.1L9.3-29.1z M12.7-26.5L12.7-26.5L12.7-26.5
			c-0.1,0-0.2-0.1-0.2-0.1l0,0l0,0c-0.1,0-0.1-0.1-0.2-0.1l0,0l0,0c-0.1,0-0.1-0.1-0.2-0.2l0,0l0,0C12-26.9,12-27,11.9-27l0,0l0,0
			c-0.1-0.1-0.1-0.2-0.1-0.3l0,0l0,0c0-0.1-0.1-0.2-0.1-0.3l0,0l0,0c0-0.1-0.1-0.2-0.1-0.3l0,0l0,0c0,0,0-0.1,0-0.1l0,0l0,0
			c0,0,0-0.1,0-0.1l0,0l0,0c0,0,0-0.1,0-0.1l0,0l0,0c0,0,0-0.1,0-0.1l0,0l0,0c0-0.1,0-0.1,0-0.2l0,0l0,0c0-0.1,0-0.2,0-0.2l0,0l0,0
			c0,0,0-0.1,0-0.1l0,0l0,0c0-0.1,0.1-0.2,0.1-0.3l0,0l0,0c0.1-0.1,0.1-0.2,0.2-0.3l0,0l0,0c0.1-0.2,0.3-0.3,0.6-0.4l0,0l0,0
			c0.1,0,0.2-0.1,0.4-0.1l0,0l0,0c0.1,0,0.2,0,0.2,0l0,0l0,0c0.1,0,0.1,0,0.2,0l0,0l0,0c0,0,0.1,0,0.1,0l0,0l0,0
			c0.3,0,0.5,0.2,0.8,0.4l0,0l0,0c0,0,0.1,0.1,0.1,0.2l0,0l0,0c0,0.1,0.1,0.1,0.1,0.2l0,0l0,0l0,0c0,0,0,0,0,0l0,0l0,0c0,0,0,0,0,0
			l0,0l0,0c0.1,0.1,0.1,0.3,0.2,0.6l0,0l0,0c0,0.2,0.1,0.4,0,0.6l0,0l0,0c0,0.1,0,0.2-0.1,0.3l0,0l0,0c0,0.1-0.1,0.2-0.1,0.3l0,0
			l0,0c-0.1,0.5-0.5,0.8-1,0.9l0,0l0,0l0,0c0,0-0.1,0-0.1,0l0,0l0,0c0,0-0.1,0-0.2,0l0,0l0,0c-0.1,0-0.2,0-0.3,0l0,0l0,0
			C12.9-26.4,12.8-26.4,12.7-26.5z M13.3-29.7L13.3-29.7L13.3-29.7c-0.2,0-0.4,0-0.6,0.1l0,0l0,0c-0.2,0-0.3,0.1-0.4,0.3l0,0l0,0
			C12.1-29.2,12-29,12-28.7l0,0l0,0c0,0.2,0,0.5,0,0.7l0,0l0,0.3l0,0c0,0,0,0.1,0,0.1l0,0l0,0c0,0,0,0.1,0,0.1l0,0l0,0
			c0,0.1,0.1,0.2,0.1,0.2l0,0l0,0c0.1,0.1,0.1,0.1,0.2,0.2l0,0l0,0c0,0,0.1,0.1,0.1,0.1l0,0l0,0c0,0,0.1,0.1,0.1,0.1l0,0l0,0
			c0.1,0,0.1,0.1,0.3,0.1l0,0h0l0,0c0.1,0,0.2,0,0.2,0l0,0l0,0c0.1,0,0.2,0,0.3,0l0,0l0,0c0.1,0,0.1,0,0.2,0l0,0l0,0
			c0.1,0,0.1,0,0.2,0l0,0l0,0c0.1,0,0.3-0.1,0.3-0.2l0,0h0v0l0,0c0.1-0.1,0.1-0.2,0.1-0.3l0,0l0,0c0-0.1,0.1-0.2,0.1-0.2l0,0l0,0
			c0.2-0.4,0.2-0.8,0.1-1.2l0,0l0,0l0,0c0,0,0-0.1,0-0.1l0,0l0,0c0,0,0-0.1-0.1-0.1l0,0l0,0c-0.1-0.2-0.3-0.4-0.5-0.5l0,0l0,0
			c0,0,0,0,0,0l0,0l0,0c0,0-0.1,0-0.1-0.1l0,0l0,0C13.5-29.6,13.4-29.7,13.3-29.7L13.3-29.7z M18.6-28.8L18.6-28.8L18.6-28.8
			C18.5-28.8,18.5-28.7,18.6-28.8L18.6-28.8L18.6-28.8c0,0.1,0,0.1-0.1,0.2l0,0l0,0c0,0.1,0,0.1,0,0.2l0,0l0,0c0,0,0.1,0,0.1,0.1
			l0,0l0,0c0,0,0.1,0.1,0.1,0.1l0,0l0,0c0.2,0.2,0.2,0.6,0.2,1l0,0l0,0c0,0.2-0.1,0.4-0.3,0.6l0,0l0,0c-0.1,0.1-0.2,0.2-0.3,0.2l0,0
			l0,0c0,0-0.1,0-0.1,0l0,0l0,0c-0.1,0-0.1,0-0.2,0l0,0l0,0c-0.1,0-0.3,0-0.4,0l0,0l0,0c-0.1,0-0.3,0-0.4,0l0,0l0,0
			c-0.1,0-0.2,0-0.3,0l0,0l0,0c-0.1,0-0.2,0-0.2,0l0,0l0,0c0,0-0.1,0-0.1,0l0,0l0,0c-0.1,0-0.1,0-0.1,0l0,0l0,0l0,0c0,0,0,0,0,0l0,0
			l0,0c0,0,0,0,0,0l0,0l0,0c0,0,0-0.1,0-0.1l0,0v-0.3v-0.5l0,0c0-0.1,0-0.2,0-0.2l0,0l0,0c0-0.1,0-0.2,0-0.2l0,0l0,0
			c0-0.2,0-0.3,0-0.5l0,0l0,0c0-0.2,0-0.3,0-0.5l0,0l0,0c0-0.1,0-0.2,0-0.3l0,0l0,0c0-0.1,0-0.2,0-0.3l0,0l0,0c0,0,0-0.1,0-0.1l0,0
			l0,0c0,0,0-0.1,0-0.1l0,0l0,0c0,0,0,0,0,0l0,0l0,0c0,0,0.1,0,0.2,0l0,0l0,0c0.1,0,0.1,0,0.2,0l0,0l0,0c0,0,0.1,0,0.1,0l0,0l0,0
			c0,0,0.1,0,0.2,0l0,0l0,0c0.1,0,0.2,0,0.3,0l0,0l0,0c0.1,0,0.2,0,0.3,0l0,0l0,0c0.2,0,0.4,0.1,0.6,0.2l0,0l0,0
			c0.2,0.1,0.3,0.4,0.3,0.7l0,0l0,0C18.6-29,18.6-28.9,18.6-28.8z M16.7-27.8v0.4l0,0c0,0,0,0.1,0,0.1l0,0l0,0c0,0,0,0.1,0,0.1l0,0
			l0,0c0,0.1,0,0.2,0.1,0.2l0,0l0,0c0,0,0,0,0.1,0l0,0l0,0c0,0,0.1,0,0.1,0l0,0l0,0c0,0,0.1,0,0.1,0l0,0l0,0c0,0,0.1,0,0.1,0l0,0
			l0,0c0,0,0.1,0,0.1,0l0,0l0,0c0.1,0,0.1,0,0.2,0l0,0l0,0c0.1,0,0.2,0,0.3,0l0,0l0,0c0.1,0,0.2,0,0.3-0.1l0,0l0,0
			c0.2-0.1,0.3-0.2,0.4-0.4l0,0v0l0,0c0,0,0-0.1,0-0.2l0,0l0,0c0-0.1,0-0.1,0-0.2l0,0l0,0c0-0.1,0-0.1,0-0.2l0,0l0,0
			c0-0.1,0-0.1-0.1-0.1l0,0l0,0l0,0c-0.1-0.1-0.1-0.1-0.2-0.1l0,0l0,0c-0.1,0-0.1-0.1-0.2-0.1l0,0l0,0c-0.1,0-0.2,0-0.2,0l0,0l0,0
			c-0.1,0-0.2,0-0.2,0l0,0l0,0c-0.1,0-0.1,0-0.2,0l0,0l0,0c-0.1,0-0.1,0-0.2,0l0,0l0,0c0,0-0.1,0-0.1,0l0,0l0,0c0,0-0.1,0-0.1,0l0,0
			l0,0c-0.1,0-0.2,0-0.3,0.1l0,0l0,0C16.7-28.1,16.7-28,16.7-27.8L16.7-27.8z M18.2-29.1L18.2-29.1L18.2-29.1L18.2-29.1
			c0-0.1-0.1-0.2-0.1-0.3l0,0l0,0c-0.1-0.1-0.1-0.1-0.2-0.1l0,0l0,0c-0.1,0-0.1-0.1-0.2-0.1l0,0l0,0c-0.1,0-0.2,0-0.3,0l0,0l0,0
			c-0.1,0-0.2,0-0.3,0l0,0l0,0c-0.1,0-0.2,0.1-0.3,0.1l0,0l0,0c0,0.1,0,0.1,0,0.2l0,0l0,0c0,0.1,0,0.1,0,0.2l0,0l0,0
			c0,0,0,0.1,0,0.1l0,0l0,0c0,0,0,0.1,0,0.2l0,0l0,0c0,0.1,0,0.2,0,0.2l0,0l0,0c0,0,0,0.1,0.1,0.1l0,0l0,0c0,0,0.1,0,0.1,0l0,0l0,0
			c0,0,0.1,0,0.1,0l0,0l0,0c0,0,0.1,0,0.1,0l0,0l0,0c0.1,0,0.1,0,0.2,0l0,0l0,0c0.1,0,0.2,0,0.3,0l0,0l0,0c0.2,0,0.3-0.1,0.4-0.2
			l0,0l0,0c0,0,0.1-0.1,0.1-0.2l0,0l0,0C18.2-28.9,18.2-29,18.2-29.1L18.2-29.1L18.2-29.1z M23.6-26.7L23.6-26.7L23.6-26.7
			c0,0.1,0,0.2-0.1,0.2l0,0l0,0c-0.1,0-0.1,0-0.2-0.1l0,0l0,0c0,0,0-0.1-0.1-0.1l0,0l0,0c0,0,0-0.1,0-0.1l0,0l0,0
			c-0.1-0.1-0.1-0.2-0.1-0.3l0,0l0,0c0-0.1-0.1-0.2-0.1-0.2l0,0l0,0c-0.1-0.1-0.2-0.2-0.3-0.2l0,0l0,0c-0.1,0-0.2,0-0.4,0l0,0l0,0
			c-0.1,0-0.2,0-0.3,0l0,0l0,0c-0.1,0-0.2,0-0.3,0l0,0l0,0c-0.2,0-0.4,0.1-0.5,0.2l0,0l0,0l0,0l0,0c0,0.1-0.1,0.1-0.1,0.2l0,0l0,0
			c0,0.1-0.1,0.1-0.1,0.2l0,0l-0.1,0.2l0,0c-0.1,0.1-0.1,0.1-0.2,0.1l0,0l0,0c0,0-0.1,0-0.1,0l0,0l0,0c0,0,0-0.1,0-0.1l0,0l0,0
			c0,0,0-0.1,0-0.1l0,0l0,0c0,0,0-0.1,0-0.1l0,0l0,0c0,0,0-0.1,0-0.1l0,0l0.1-0.3l0,0c0.1-0.3,0.3-0.5,0.4-0.8l0,0l0,0
			c0.1-0.3,0.2-0.6,0.4-0.8l0,0l0,0c0,0,0-0.1,0.1-0.1l0,0l0,0c0,0,0-0.1,0-0.1l0,0l0,0c0-0.1,0.1-0.2,0.1-0.3l0,0l0,0
			c0-0.1,0.1-0.2,0.1-0.3l0,0l0.1-0.1l0,0c0-0.1,0.1-0.1,0.1-0.1l0,0l0,0c0,0,0.1,0,0.1,0.1l0,0l0,0c0.1,0.1,0.1,0.2,0.2,0.3l0,0
			l0,0c0.1,0.1,0.1,0.2,0.1,0.3l0,0l0,0c0.1,0.3,0.3,0.6,0.4,0.8l0,0l0,0c0.1,0.3,0.2,0.6,0.4,0.8l0,0l0,0c0,0.1,0.1,0.2,0.1,0.2
			l0,0l0,0c0,0.1,0.1,0.2,0.1,0.2l0,0l0,0c0,0.1,0,0.1,0.1,0.2l0,0l0,0c0,0,0.1,0.1,0.1,0.2l0,0l0,0C23.6-26.8,23.6-26.7,23.6-26.7
			L23.6-26.7L23.6-26.7C23.6-26.7,23.6-26.7,23.6-26.7z M22.5-28.2L22.5-28.2L22.5-28.2c0-0.1-0.1-0.2-0.1-0.3l0,0l0,0
			c0-0.1-0.1-0.2-0.1-0.3l0,0l0,0C22.2-28.9,22.1-29,22-29l0,0l0,0c0,0-0.1,0-0.1,0l0,0l0,0c0,0-0.1,0.1-0.1,0.1l0,0l0,0
			c0,0,0,0.1-0.1,0.1l0,0l0,0c0,0,0,0.1,0,0.1l0,0l0,0c0,0.1-0.1,0.2-0.1,0.3l0,0l0,0c0,0.1-0.1,0.2-0.1,0.4l0,0l0,0
			c0,0.1,0,0.1,0,0.2l0,0l0,0c0,0,0.1,0.1,0.2,0.1l0,0l0,0c0.1,0,0.2,0,0.2,0l0,0l0,0c0.1,0,0.1,0,0.2,0l0,0l0,0c0.1,0,0.2,0,0.3,0
			l0,0l0,0c0.1,0,0.2-0.1,0.2-0.2l0,0l0,0c0-0.1,0-0.1,0-0.2l0,0l0,0C22.6-28.1,22.6-28.1,22.5-28.2L22.5-28.2L22.5-28.2
			C22.5-28.2,22.5-28.2,22.5-28.2z"/>
	</g>
	
		<g id="_x32_867e976-0564-4b7f-a664-36caaf08f572" transform="matrix(1.8428447943817412,0,0,1.8428447943817412,40,118.48735375245117)">
		<circle class="st2" cx="4.2" cy="-41.5" r="5.7"/>
		<circle class="st2" cx="-10.6" cy="-41.5" r="5.7"/>
		<path class="st2" d="M-16.1-60.2H-5v11.1h-11.1V-60.2z M-1.2-60.2H9.9v11.1H-1.2V-60.2z"/>
	</g>
	
		<g id="_x31_4330467-2c49-4263-97b1-81e371995abb" transform="matrix(0.5600157912440039,0,0,0.5600157912440039,111.7750278799285,155.7645963908516)">
		<path class="st3" d="M-76.6-207.9L-76.6-207.9l0.4,0l0.2,0.7l0,0c0.1,0.3,0.1,0.4,0.1,0.5l0,0l0,0c0,0,0.2,0.1,0.4,0.2l0,0l0,0
			c0.5,0.2,0.9,0.3,1.4,0.3l0,0l0,0c0.4,0,0.8-0.1,1.1-0.4l0,0l0,0c0.3-0.2,0.4-0.6,0.4-1l0,0l0,0c0-0.3-0.1-0.6-0.4-0.9l0,0l0,0
			c-0.3-0.2-0.6-0.5-1.1-0.7l0,0l-0.5-0.3l0,0c-0.4-0.2-0.7-0.4-0.8-0.5l0,0l0,0c-0.2-0.2-0.4-0.4-0.5-0.6l0,0l0,0
			c-0.2-0.3-0.3-0.6-0.3-0.9l0,0l0,0c0-0.6,0.2-1.1,0.7-1.5l0,0l0,0c0.5-0.4,1-0.6,1.6-0.6l0,0l0,0c0.2,0,0.3,0,0.5,0.1l0,0l0,0
			c0.1,0,0.3,0.1,0.4,0.1l0,0l0.2,0.1l0,0c0.1,0,0.1,0,0.1-0.1l0,0l0,0c0-0.1,0-0.1,0-0.1l0,0l0-0.1l0.4,0l0.2,2.1l-0.4,0l-0.1-1
			l0,0c-0.4-0.3-0.9-0.5-1.6-0.5l0,0l0,0c-0.3,0-0.7,0.1-0.9,0.4l0,0l0,0c-0.3,0.2-0.4,0.5-0.4,0.9l0,0l0,0c0,0.3,0.1,0.6,0.4,0.9
			l0,0l0,0c0.2,0.2,0.6,0.5,1.1,0.7l0,0l0.6,0.3l0,0c0.5,0.3,0.9,0.6,1.2,0.9l0,0l0,0c0.3,0.3,0.4,0.7,0.4,1.1l0,0l0,0
			c0,0.6-0.2,1.1-0.7,1.5l0,0l0,0c-0.5,0.4-1.1,0.6-1.9,0.6l0,0l0,0c-0.3,0-0.6,0-0.9-0.1l0,0l0,0c-0.3-0.1-0.4-0.1-0.5-0.1l0,0l0,0
			c-0.1,0-0.2,0.1-0.2,0.2l0,0l0,0.1l-0.4,0l0,0C-76.2-205.9-76.3-206.6-76.6-207.9z M-61.9-206h-3.1v-0.4h0.4l0,0
			c0.2,0,0.3,0,0.4,0l0,0l0,0c0,0,0.1-0.1,0.1-0.3l0,0v-6l0,0c0-0.2,0-0.3-0.1-0.3l0,0l0,0c0,0-0.2-0.1-0.4-0.1l0,0h-0.3l0-0.5h2.4
			l0,0c0.6,0,1.1,0,1.5,0.1l0,0l0,0c0.3,0,0.6,0.2,0.9,0.4l0,0l0,0c0.6,0.5,1,1.2,1,2.1l0,0l0,0c0,0.6-0.2,1.1-0.6,1.5l0,0l0,0
			c-0.4,0.4-1,0.6-1.8,0.6l0,0l0,0c-0.1,0-0.3,0-0.5,0l0,0l0,0c-0.1,0-0.2,0-0.4-0.1l0,0l0,0c-0.2,0-0.3-0.1-0.4-0.1l0,0l0,0
			c-0.2,0-0.2-0.1-0.3-0.1l0,0l-0.1,0v2.5l0,0c0,0.2,0,0.2,0.1,0.3l0,0l0,0c0.1,0,0.3,0,0.7,0l0,0h0.6V-206z M-63.2-212.6v3.1l0,0
			c0.2,0.1,0.5,0.2,1.1,0.2l0,0l0,0c0.6,0,1.1-0.1,1.4-0.4l0,0l0,0c0.3-0.3,0.5-0.7,0.5-1.3l0,0l0,0c0-0.6-0.2-1.1-0.7-1.5l0,0l0,0
			c-0.5-0.4-1.1-0.5-1.9-0.5l0,0l0,0c-0.1,0-0.2,0-0.3,0.1l0,0l0,0C-63.2-213-63.2-212.9-63.2-212.6L-63.2-212.6z M-52.7-206l0-0.4
			h0.1l0,0c0.2,0,0.4,0,0.4-0.1l0,0l0,0c0.1-0.1,0.2-0.3,0.4-0.7l0,0l0.7-1.6l0.5-1.1l0,0c0.1-0.3,0.2-0.5,0.3-0.5l0,0l0,0
			c0-0.1,0.1-0.2,0.1-0.2l0,0l0,0c0,0,0-0.1,0.1-0.1l0,0l0.1-0.2l1.2-2.8h0.2l0,0c0.5,1.2,1.3,3.3,2.5,6.1l0,0l0,0
			c0.2,0.6,0.4,1,0.5,1.1l0,0l0,0c0.1,0.1,0.2,0.2,0.5,0.2l0,0h0.2l0,0.4h-2.6l0-0.4h0.3l0,0c0.3,0,0.5,0,0.5-0.1l0,0l0,0
			c0,0,0-0.2-0.1-0.4l0,0l-0.9-2.1h-2.7l-0.9,2l0,0c-0.1,0.2-0.1,0.3-0.1,0.4l0,0l0,0c0,0.1,0,0.1,0.1,0.2l0,0l0,0
			c0.1,0,0.2,0,0.4,0l0,0h0.5v0.4H-52.7z M-49-212.2l-1.2,2.7h2.2L-49-212.2z M-38.3-213.2h-0.3l0-0.5h2.5l0,0
			c0.9,0,1.6,0.2,2.1,0.5l0,0l0,0c0.4,0.4,0.6,0.8,0.6,1.3l0,0l0,0c0,0.4-0.1,0.7-0.4,1l0,0l0,0c-0.3,0.3-0.6,0.5-1,0.6l0,0l0,0
			c0.6,0.1,1,0.4,1.3,0.8l0,0l0,0c0.3,0.4,0.4,0.9,0.4,1.4l0,0l0,0c0,0.5-0.2,1-0.5,1.3l0,0l0,0c-0.3,0.3-0.8,0.5-1.3,0.6l0,0l0,0
			c-0.5,0.1-1.2,0.1-2,0.1l0,0h-1.6v-0.4h0.3l0,0c0.2,0,0.3,0,0.4-0.1l0,0l0,0c0.1,0,0.1-0.1,0.1-0.3l0,0v-6l0,0
			c0-0.2,0-0.3-0.1-0.3l0,0l0,0C-37.9-213.2-38.1-213.2-38.3-213.2L-38.3-213.2z M-36.8-209.9L-36.8-209.9l0,3.1l0,0
			c0,0.2,0,0.3,0.1,0.3l0,0l0,0c0.1,0,0.3,0.1,0.6,0.1l0,0l0,0c1.2,0,1.8-0.5,1.8-1.5l0,0l0,0c0-0.4-0.1-0.7-0.3-1l0,0l0,0
			c-0.2-0.3-0.4-0.5-0.7-0.6l0,0l0,0c-0.3-0.1-0.6-0.2-0.8-0.3l0,0l0,0C-36.3-209.9-36.5-209.9-36.8-209.9z M-36.8-212.9v2.6h1.1
			l0,0c0.4,0,0.6-0.1,0.9-0.4l0,0l0,0c0.2-0.3,0.3-0.6,0.3-0.9l0,0l0,0c0-0.4-0.2-0.7-0.5-1l0,0l0,0c-0.3-0.3-0.8-0.5-1.5-0.5l0,0
			l0,0C-36.7-213.1-36.8-213-36.8-212.9L-36.8-212.9z M-26.1-213.2h-0.5l0-0.5h2.9v0.5h-0.2l0,0c-0.3,0-0.5,0-0.6,0.1l0,0l0,0
			c-0.1,0-0.1,0.2-0.1,0.4l0,0v5.7l0,0c0,0.3,0,0.4,0.1,0.4l0,0l0,0c0.1,0.1,0.2,0.1,0.5,0.1l0,0h0.5l0,0.4h-2.9l0-0.4h0.3l0,0
			c0.3,0,0.5,0,0.5-0.1l0,0l0,0c0.1-0.1,0.1-0.2,0.1-0.4l0,0v-5.8l0,0c0-0.2,0-0.3-0.1-0.4l0,0l0,0
			C-25.6-213.2-25.8-213.2-26.1-213.2L-26.1-213.2z M-16.7-213.2h-0.4l0-0.5h2.9v0.5h-0.5l0,0c-0.2,0-0.3,0-0.4,0.1l0,0l0,0
			c-0.1,0-0.1,0.2-0.1,0.4l0,0v5.8l0,0c0,0.2,0,0.3,0.1,0.4l0,0l0,0c0,0.1,0.2,0.1,0.3,0.1l0,0l0,0c1.6,0,2.5-0.1,2.9-0.1l0,0l0,0
			c0.1,0,0.2-0.1,0.2-0.2l0,0l0,0c0-0.1,0.1-0.5,0.2-1.1l0,0l0.4,0l-0.4,1.9H-17l0-0.4h0.3l0,0c0.3,0,0.4,0,0.5-0.1l0,0l0,0
			c0,0,0.1-0.2,0.1-0.4l0,0v-5.9l0,0c0-0.2,0-0.3-0.1-0.3l0,0l0,0C-16.3-213.2-16.5-213.2-16.7-213.2L-16.7-213.2z M-4.7-206l0-0.4
			h0.1l0,0c0.2,0,0.4,0,0.4-0.1l0,0l0,0c0.1-0.1,0.2-0.3,0.4-0.7l0,0l0.7-1.6l0.5-1.1l0,0c0.1-0.3,0.2-0.5,0.3-0.5l0,0l0,0
			c0-0.1,0.1-0.2,0.1-0.2l0,0l0,0c0,0,0-0.1,0-0.1l0,0l0.1-0.2l1.2-2.8h0.2l0,0c0.5,1.2,1.3,3.3,2.5,6.1l0,0l0,0
			c0.2,0.6,0.4,1,0.5,1.1l0,0l0,0c0.1,0.1,0.2,0.2,0.5,0.2l0,0H3l0,0.4H0.3l0-0.4h0.3l0,0c0.3,0,0.5,0,0.5-0.1l0,0l0,0
			c0,0,0-0.2-0.1-0.4l0,0L0.2-209h-2.7l-0.9,2l0,0c-0.1,0.2-0.1,0.3-0.1,0.4l0,0l0,0c0,0.1,0,0.1,0.1,0.2l0,0l0,0c0,0,0.2,0,0.4,0
			l0,0h0.5v0.4H-4.7z M-1.1-212.2l-1.2,2.7H0L-1.1-212.2z M9.6-209.7L9.6-209.7L9.6-209.7c0-0.7,0.1-1.2,0.3-1.8l0,0l0,0
			c0.2-0.5,0.5-0.9,0.9-1.3l0,0l0,0c0.4-0.3,0.8-0.6,1.3-0.8l0,0l0,0c0.5-0.2,0.9-0.3,1.5-0.3l0,0l0,0c0.7,0,1.3,0.1,1.9,0.4l0,0
			l0,0c0.6,0.3,1.1,0.7,1.5,1.4l0,0l0,0c0.4,0.6,0.6,1.3,0.6,2.2l0,0l0,0c0,0.8-0.2,1.5-0.6,2.2l0,0l0,0c-0.4,0.6-0.9,1.1-1.5,1.4
			l0,0l-0.7,0.3l0,0c0.3,0.1,0.7,0.4,1.1,0.7l0,0l0,0c0.5,0.4,0.9,0.7,1.3,0.9l0,0l0,0c0.4,0.3,0.7,0.4,0.9,0.4l0,0l0,0
			c0.2,0,0.3,0,0.4-0.1l0,0l0,0c0.1,0,0.2-0.1,0.2-0.1l0,0l0,0c0.1,0,0.1,0,0.1,0.1l0,0l0,0c0,0,0,0.1,0,0.2l0,0l0,0
			c0,0.1-0.1,0.2-0.2,0.2l0,0l0,0c-0.1,0.1-0.2,0.1-0.4,0.2l0,0l0,0c-0.2,0.1-0.4,0.1-0.6,0.1l0,0l0,0c-0.3,0-0.6-0.1-0.9-0.2l0,0
			l0,0c-0.3-0.1-0.6-0.3-0.7-0.4l0,0l0,0c-0.1-0.1-0.4-0.3-0.8-0.6l0,0l0,0c-0.1-0.1-0.2-0.1-0.3-0.2l0,0l0,0
			c-0.1-0.1-0.2-0.1-0.2-0.2l0,0l0,0c0,0-0.1-0.1-0.1-0.1l0,0l0,0c-0.3-0.2-0.5-0.4-0.7-0.5l0,0l0,0c-0.1-0.1-0.3-0.2-0.4-0.2l0,0
			l0,0c-0.1,0-0.2-0.1-0.4-0.1l0,0l0,0c-0.3,0-0.5-0.1-0.5-0.1l0,0l0,0c-0.3-0.1-0.7-0.2-1-0.4l0,0l0,0c-0.3-0.2-0.7-0.5-0.9-0.8
			l0,0l0,0c-0.3-0.3-0.5-0.7-0.7-1.2l0,0l0,0C9.7-208.7,9.6-209.2,9.6-209.7z M10.6-210.1L10.6-210.1L10.6-210.1
			c0,0.6,0.1,1.2,0.4,1.8l0,0l0,0c0.2,0.6,0.6,1,1.1,1.4l0,0l0,0c0.5,0.4,1.1,0.6,1.7,0.6l0,0l0,0c0.8,0,1.4-0.3,1.9-0.8l0,0l0,0
			c0.5-0.6,0.8-1.4,0.8-2.4l0,0l0,0c0-1.2-0.3-2.1-0.9-2.8l0,0l0,0c-0.6-0.7-1.4-1-2.2-1l0,0l0,0c-0.3,0-0.6,0.1-0.9,0.2l0,0l0,0
			c-0.3,0.1-0.6,0.3-0.9,0.5l0,0l0,0c-0.3,0.2-0.5,0.6-0.7,1l0,0l0,0C10.7-211.2,10.6-210.7,10.6-210.1z M24.4-211.8l-0.4,0l0,0
			c0.1-0.6,0.1-1.2,0.2-1.8l0,0h6.6l0,0c0,0.6-0.1,1-0.1,1.2l0,0l0,0c0,0.4,0,0.6,0,0.6l0,0l-0.4,0l0,0c0-0.5,0.1-0.8,0.1-0.9l0,0
			l0,0c0-0.2,0-0.3-0.1-0.3l0,0l0,0c-0.1-0.1-0.2-0.1-0.5-0.1l0,0h-1.3l0,0c-0.3,0-0.4,0-0.5,0.1l0,0l0,0c0,0-0.1,0.2-0.1,0.5l0,0
			v5.6l0,0c0,0.2,0,0.4,0.1,0.4l0,0l0,0c0.1,0.1,0.3,0.1,0.5,0.1l0,0h0.5l0,0.4l-3,0v-0.4H26l0,0c0.4,0,0.6,0,0.7-0.1l0,0l0,0
			c0.1,0,0.1-0.2,0.1-0.4l0,0v-5.6l0,0c0-0.3,0-0.5-0.1-0.6l0,0l0,0c-0.1-0.1-0.2-0.1-0.4-0.1l0,0h-1.2l0,0c-0.1,0-0.2,0-0.2,0l0,0
			l0,0c0,0-0.1,0-0.1,0l0,0l0,0c0,0-0.1,0-0.1,0.1l0,0l0,0c0,0-0.1,0-0.1,0.1l0,0l0,0c0,0,0,0-0.1,0.1l0,0l0,0c0,0,0,0.1,0,0.1l0,0
			l0,0c0,0,0,0.1,0,0.2l0,0l0,0c0,0.1,0,0.2,0,0.2l0,0l0,0c0,0.1,0,0.2,0,0.3l0,0l0,0c0,0,0,0.1,0,0.2l0,0l0,0
			C24.4-211.9,24.4-211.8,24.4-211.8L24.4-211.8z M37.5-213.2h-0.4v-0.5h2.9l0,0.5h-0.6l0,0c-0.2,0-0.3,0-0.3,0.1l0,0l0,0
			c0,0.1,0.1,0.3,0.2,0.5l0,0l2.1,5.3l2.4-5.5l0,0c0-0.1,0.1-0.2,0.1-0.2l0,0l0,0c0-0.1,0-0.1-0.1-0.1l0,0l0,0
			c-0.1,0-0.1-0.1-0.2-0.1l0,0l0,0c0,0-0.1,0-0.3,0l0,0h-0.4l0-0.5h2.3l0,0.5h-0.3l0,0c-0.2,0-0.3,0.1-0.4,0.2l0,0l0,0
			c0,0.1-0.2,0.4-0.4,0.9l0,0l0,0c-0.1,0.3-0.2,0.5-0.2,0.5l0,0l-2.6,5.8H41l-2.7-6.5l0,0c-0.2-0.4-0.3-0.7-0.4-0.8l0,0l0,0
			C37.9-213.1,37.7-213.2,37.5-213.2L37.5-213.2z M51.5-213.2l0-0.5h5.9l0,0c0,0.6,0,1.2,0.1,1.8l0,0l-0.4,0l0,0
			c0-0.3,0-0.6-0.1-0.9l0,0l0,0c0-0.2,0-0.3-0.1-0.4l0,0l0,0c0,0-0.1-0.1-0.1-0.1l0,0l0,0c-0.1,0-0.2,0-0.6,0l0,0h-1.9l0,0
			c-0.3,0-0.5,0-0.6,0.1l0,0l0,0c-0.1,0-0.1,0.2-0.1,0.5l0,0v1.6l0,0c0,0.2,0,0.4,0,0.4l0,0l0,0c0,0,0.1,0.1,0.3,0.1l0,0h1.7l0,0
			c0.2,0,0.3,0,0.4-0.1l0,0l0,0c0-0.1,0.1-0.2,0.1-0.5l0,0v-0.4l0.4,0v2.7h-0.4v-0.6l0,0c0-0.3,0-0.5-0.1-0.5l0,0l0,0
			c0-0.1-0.2-0.1-0.4-0.1l0,0H54l0,0c-0.2,0-0.3,0-0.3,0.1l0,0l0,0c0,0-0.1,0.1-0.1,0.3l0,0v2.7l0,0c0,0.2,0,0.3,0.1,0.4l0,0l0,0
			c0,0.1,0.1,0.1,0.3,0.1l0,0l0,0c1.6,0,2.5,0,2.8-0.1l0,0l0,0c0.3,0,0.4-0.1,0.5-0.3l0,0v0l0,0l0.2-1l0.4,0.1l-0.3,1.8h-5.8v-0.4
			H52l0,0c0.3,0,0.5,0,0.5-0.1l0,0l0,0c0.1,0,0.1-0.2,0.1-0.4l0,0v-5.8l0,0c0-0.2,0-0.4-0.1-0.4l0,0l0,0c-0.1,0-0.3-0.1-0.7-0.1l0,0
			H51.5z M64.6-209.7L64.6-209.7L64.6-209.7c0-0.7,0.1-1.2,0.3-1.8l0,0l0,0c0.2-0.5,0.5-0.9,0.9-1.3l0,0l0,0
			c0.4-0.3,0.8-0.6,1.3-0.8l0,0l0,0c0.5-0.2,0.9-0.3,1.5-0.3l0,0l0,0c0.7,0,1.3,0.1,1.9,0.4l0,0l0,0c0.6,0.3,1.1,0.7,1.5,1.4l0,0
			l0,0c0.4,0.6,0.6,1.3,0.6,2.2l0,0l0,0c0,0.5-0.1,1-0.3,1.5l0,0l0,0c-0.2,0.5-0.4,0.9-0.7,1.3l0,0l0,0c-0.3,0.4-0.7,0.7-1.3,0.9
			l0,0l0,0c-0.5,0.2-1.1,0.3-1.8,0.3l0,0l0,0c-0.6,0-1.2-0.1-1.7-0.3l0,0l0,0c-0.5-0.2-0.9-0.5-1.2-0.9l0,0l0,0
			c-0.3-0.4-0.6-0.8-0.7-1.3l0,0l0,0C64.7-208.8,64.6-209.3,64.6-209.7z M65.6-210.1L65.6-210.1L65.6-210.1c0,0.6,0.1,1.2,0.4,1.8
			l0,0l0,0c0.2,0.6,0.6,1,1.1,1.4l0,0l0,0c0.5,0.4,1.1,0.6,1.7,0.6l0,0l0,0c0.8,0,1.4-0.3,1.9-0.8l0,0l0,0c0.5-0.6,0.8-1.4,0.8-2.4
			l0,0l0,0c0-1.2-0.3-2.1-0.9-2.8l0,0l0,0c-0.6-0.7-1.4-1-2.2-1l0,0l0,0c-0.3,0-0.6,0.1-0.9,0.2l0,0l0,0c-0.3,0.1-0.6,0.3-0.9,0.5
			l0,0l0,0c-0.3,0.2-0.5,0.6-0.7,1l0,0l0,0C65.7-211.2,65.6-210.7,65.6-210.1z M79.5-213.2h-0.4l0-0.5h2.9v0.5h-0.5l0,0
			c-0.2,0-0.3,0-0.4,0.1l0,0l0,0c-0.1,0-0.1,0.2-0.1,0.4l0,0v5.8l0,0c0,0.2,0,0.3,0.1,0.4l0,0l0,0c0,0.1,0.1,0.1,0.3,0.1l0,0l0,0
			c1.6,0,2.5-0.1,2.9-0.1l0,0l0,0c0.1,0,0.2-0.1,0.2-0.2l0,0l0,0c0-0.1,0.1-0.5,0.2-1.1l0,0l0.4,0l-0.4,1.9h-5.5l0-0.4h0.3l0,0
			c0.3,0,0.4,0,0.5-0.1l0,0l0,0c0,0,0.1-0.2,0.1-0.4l0,0v-5.9l0,0c0-0.2,0-0.3-0.1-0.3l0,0l0,0C79.9-213.2,79.8-213.2,79.5-213.2
			L79.5-213.2z M91.5-213.2l0-0.5h5.9l0,0c0,0.6,0,1.2,0.1,1.8l0,0l-0.5,0l0,0c0-0.3,0-0.6,0-0.9l0,0l0,0c0-0.2-0.1-0.3-0.1-0.4l0,0
			l0,0c0,0-0.1-0.1-0.1-0.1l0,0l0,0c-0.1,0-0.2,0-0.6,0l0,0h-1.9l0,0c-0.3,0-0.5,0-0.6,0.1l0,0l0,0c-0.1,0-0.1,0.2-0.1,0.5l0,0v1.6
			l0,0c0,0.2,0,0.4,0,0.4l0,0l0,0c0,0,0.2,0.1,0.3,0.1l0,0h1.7l0,0c0.2,0,0.3,0,0.4-0.1l0,0l0,0c0-0.1,0.1-0.2,0.1-0.5l0,0v-0.4
			l0.4,0v2.7h-0.4v-0.6l0,0c0-0.3,0-0.5-0.1-0.5l0,0l0,0c0-0.1-0.2-0.1-0.4-0.1l0,0H94l0,0c-0.2,0-0.3,0-0.3,0.1l0,0l0,0
			c0,0-0.1,0.1-0.1,0.3l0,0v2.7l0,0c0,0.2,0,0.3,0.1,0.4l0,0l0,0c0,0.1,0.1,0.1,0.3,0.1l0,0l0,0c1.6,0,2.5,0,2.8-0.1l0,0l0,0
			c0.3,0,0.4-0.1,0.5-0.3l0,0l0,0l0,0l0.2-1l0.4,0.1l-0.3,1.8h-5.8v-0.4h0.3l0,0c0.3,0,0.5,0,0.5-0.1l0,0l0,0c0.1,0,0.1-0.2,0.1-0.4
			l0,0v-5.8l0,0c0-0.2,0-0.4-0.1-0.4l0,0l0,0c-0.1,0-0.3-0.1-0.7-0.1l0,0H91.5z M104.3-213.2l0-0.5h1.8l4.7,6.1v-5.2l0,0
			c0-0.2,0-0.3-0.1-0.3l0,0l0,0c-0.1,0-0.2-0.1-0.5-0.1l0,0h-0.4l0-0.5h2.4v0.5h-0.3l0,0c-0.3,0-0.4,0-0.5,0.1l0,0l0,0
			c-0.1,0.1-0.1,0.2-0.1,0.4l0,0v6.6v0.1l0,0c0,0,0,0.1,0,0.1l0,0l0,0c0,0,0,0,0,0.1l0,0l0,0c0,0,0,0-0.1,0l0,0h-0.2h0h0l0,0l0,0
			c0,0,0,0,0,0l0,0l0,0c0,0,0,0,0,0l0,0l0,0c0,0,0,0,0,0l0,0l0,0c0,0,0,0,0-0.1l0,0l0,0c0,0,0,0,0,0l0,0l0,0c0,0,0,0,0,0l0,0l-5-6.4
			l0,5.4l0,0c0,0.2,0,0.4,0.1,0.4l0,0l0,0c0.1,0.1,0.3,0.1,0.7,0.1l0,0h0.2v0.4h-2.4v-0.4h0.3l0,0c0.2,0,0.3,0,0.4-0.1l0,0l0,0
			c0.1-0.1,0.1-0.2,0.1-0.4l0,0v-6.1l-0.1-0.1H104.3z M118.8-211.8l-0.4,0l0,0c0.1-0.6,0.1-1.2,0.2-1.8l0,0h6.6l0,0
			c0,0.6-0.1,1-0.1,1.2l0,0l0,0c0,0.4,0,0.6,0,0.6l0,0l-0.4,0l0,0c0-0.5,0.1-0.8,0.1-0.9l0,0l0,0c0-0.2,0-0.3-0.1-0.3l0,0l0,0
			c-0.1-0.1-0.3-0.1-0.5-0.1l0,0h-1.3l0,0c-0.3,0-0.5,0-0.5,0.1l0,0l0,0c-0.1,0-0.1,0.2-0.1,0.5l0,0v5.6l0,0c0,0.2,0,0.4,0.1,0.4
			l0,0l0,0c0.1,0.1,0.3,0.1,0.5,0.1l0,0h0.5l0,0.4l-3,0v-0.4h0.2l0,0c0.4,0,0.6,0,0.7-0.1l0,0l0,0c0.1,0,0.1-0.2,0.1-0.4l0,0v-5.6
			l0,0c0-0.3,0-0.5-0.1-0.6l0,0l0,0c-0.1-0.1-0.2-0.1-0.4-0.1l0,0h-1.2l0,0c-0.1,0-0.2,0-0.2,0l0,0l0,0c0,0-0.1,0-0.1,0l0,0l0,0
			c0,0-0.1,0-0.1,0.1l0,0l0,0c0,0-0.1,0-0.1,0.1l0,0l0,0c0,0,0,0,0,0.1l0,0l0,0c0,0,0,0.1,0,0.1l0,0l0,0c0,0,0,0.1,0,0.2l0,0l0,0
			c0,0.1,0,0.2,0,0.2l0,0l0,0c0,0.1,0,0.2,0,0.3l0,0l0,0c0,0,0,0.1,0,0.2l0,0l0,0C118.8-211.9,118.8-211.8,118.8-211.8L118.8-211.8z
			 M131.8-209.7L131.8-209.7L131.8-209.7c0-0.7,0.1-1.2,0.3-1.8l0,0l0,0c0.2-0.5,0.5-0.9,0.9-1.3l0,0l0,0c0.4-0.3,0.8-0.6,1.3-0.8
			l0,0l0,0c0.5-0.2,0.9-0.3,1.5-0.3l0,0l0,0c0.7,0,1.3,0.1,1.9,0.4l0,0l0,0c0.6,0.3,1.1,0.7,1.5,1.4l0,0l0,0
			c0.4,0.6,0.6,1.3,0.6,2.2l0,0l0,0c0,0.5-0.1,1-0.3,1.5l0,0l0,0c-0.2,0.5-0.4,0.9-0.7,1.3l0,0l0,0c-0.3,0.4-0.7,0.7-1.3,0.9l0,0
			l0,0c-0.5,0.2-1.1,0.3-1.8,0.3l0,0l0,0c-0.6,0-1.2-0.1-1.7-0.3l0,0l0,0c-0.5-0.2-0.9-0.5-1.2-0.9l0,0l0,0
			c-0.3-0.4-0.6-0.8-0.7-1.3l0,0l0,0C131.9-208.8,131.8-209.3,131.8-209.7z M132.8-210.1L132.8-210.1L132.8-210.1
			c0,0.6,0.1,1.2,0.4,1.8l0,0l0,0c0.2,0.6,0.6,1,1.1,1.4l0,0l0,0c0.5,0.4,1.1,0.6,1.7,0.6l0,0l0,0c0.8,0,1.4-0.3,1.9-0.8l0,0l0,0
			c0.5-0.6,0.8-1.4,0.8-2.4l0,0l0,0c0-1.2-0.3-2.1-0.9-2.8l0,0l0,0c-0.6-0.7-1.4-1-2.2-1l0,0l0,0c-0.3,0-0.6,0.1-0.9,0.2l0,0l0,0
			c-0.3,0.1-0.6,0.3-0.9,0.5l0,0l0,0c-0.3,0.2-0.5,0.6-0.7,1l0,0l0,0C132.9-211.2,132.8-210.7,132.8-210.1z"/>
	</g>
</g>
</svg>
