<?xml version="1.0" encoding="utf-8"?>
<!-- Generator: Adobe Illustrator 25.0.1, SVG Export Plug-In . SVG Version: 6.00 Build 0)  -->
<svg version="1.1" id="Capa_1" xmlns="http://www.w3.org/2000/svg" xmlns:xlink="http://www.w3.org/1999/xlink" x="0px" y="0px"
	 viewBox="0 0 200 60" style="enable-background:new 0 0 200 60;" xml:space="preserve">
<style type="text/css">
	.st0{fill:#CD7598;}
	.st1{fill:#613999;}
	.st2{fill:#9A3960;}
</style>
<g id="_x39_25cbfa5-4a69-480a-89bf-2e2b189b1048" transform="matrix(13.577733526672345,0,0,13.577733526672345,116.65076671799312,-72.62729680023787)">
	<path class="st0" d="M-5.5,7.3L-5.5,7.3L-5.5,7.3C-5.5,7.3-5.5,7.3-5.5,7.3L-5.5,7.3L-5.5,7.3C-5.5,7.3-5.5,7.3-5.5,7.3L-5.5,7.3
		L-5.5,7.3c0,0.1,0,0.1,0,0.1l0,0l0,0c0,0,0,0,0,0l0,0l0,0c0,0,0,0,0,0l0,0l0,0c0.1,0.1,0.1,0.2,0.1,0.3l0,0l0,0
		c0,0.1,0,0.1-0.1,0.2l0,0l0,0c0,0-0.1,0.1-0.1,0.1l0,0l0,0c0,0,0,0,0,0l0,0l0,0c0,0,0,0-0.1,0l0,0l0,0c0,0-0.1,0-0.1,0l0,0l0,0
		c0,0-0.1,0-0.1,0l0,0l0,0c0,0-0.1,0-0.1,0l0,0l0,0c0,0-0.1,0-0.1,0l0,0l0,0c0,0,0,0,0,0l0,0l0,0c0,0,0,0,0,0l0,0l0,0l0,0
		c0,0,0,0,0,0l0,0l0,0c0,0,0,0,0,0l0,0l0,0c0,0,0,0,0,0l0,0V7.9V7.7l0,0c0,0,0-0.1,0-0.1l0,0l0,0c0,0,0-0.1,0-0.1l0,0l0,0
		c0-0.1,0-0.1,0-0.2l0,0l0,0c0-0.1,0-0.1,0-0.2l0,0l0,0c0,0,0-0.1,0-0.1l0,0l0,0c0,0,0-0.1,0-0.1l0,0l0,0c0,0,0,0,0,0l0,0l0,0
		c0,0,0,0,0,0l0,0l0,0c0,0,0,0,0,0l0,0l0,0c0,0,0,0,0,0l0,0l0,0c0,0,0,0,0.1,0l0,0l0,0c0,0,0,0,0,0l0,0l0,0c0,0,0,0,0,0l0,0l0,0
		c0,0,0.1,0,0.1,0l0,0l0,0c0,0,0.1,0,0.1,0l0,0l0,0c0.1,0,0.1,0,0.2,0.1l0,0l0,0C-5.5,7-5.5,7.1-5.5,7.3L-5.5,7.3L-5.5,7.3
		C-5.5,7.2-5.5,7.3-5.5,7.3z M-6.1,7.6v0.1l0,0c0,0,0,0,0,0l0,0l0,0c0,0,0,0,0,0l0,0l0,0c0,0,0,0.1,0,0.1l0,0l0,0c0,0,0,0,0,0l0,0
		l0,0c0,0,0,0,0,0l0,0l0,0c0,0,0,0,0,0l0,0l0,0c0,0,0,0,0,0l0,0l0,0c0,0,0,0,0,0l0,0l0,0c0,0,0,0,0.1,0l0,0l0,0c0,0,0.1,0,0.1,0l0,0
		l0,0c0,0,0.1,0,0.1,0l0,0l0,0c0.1,0,0.1-0.1,0.1-0.1l0,0v0l0,0c0,0,0,0,0-0.1l0,0l0,0c0,0,0,0,0-0.1l0,0l0,0c0,0,0,0,0-0.1l0,0l0,0
		c0,0,0,0,0,0l0,0l0,0l0,0c0,0,0,0-0.1,0l0,0l0,0c0,0,0,0-0.1,0l0,0l0,0c0,0-0.1,0-0.1,0l0,0l0,0c0,0-0.1,0-0.1,0l0,0l0,0
		c0,0,0,0-0.1,0l0,0l0,0c0,0,0,0,0,0l0,0l0,0c0,0,0,0,0,0l0,0l0,0c0,0,0,0,0,0l0,0l0,0C-6,7.5-6.1,7.5-6.1,7.6L-6.1,7.6L-6.1,7.6
		C-6.1,7.5-6.1,7.6-6.1,7.6L-6.1,7.6z M-5.6,7.2L-5.6,7.2L-5.6,7.2L-5.6,7.2C-5.6,7.1-5.6,7.1-5.6,7.2L-5.6,7.2L-5.6,7.2
		C-5.7,7.1-5.7,7.1-5.7,7l0,0l0,0c0,0,0,0-0.1,0l0,0l0,0c0,0-0.1,0-0.1,0l0,0l0,0C-5.9,7-6,7-6,7l0,0l0,0c-0.1,0-0.1,0-0.1,0l0,0
		l0,0c0,0,0,0,0,0.1l0,0l0,0c0,0,0,0,0,0.1l0,0l0,0c0,0,0,0,0,0l0,0l0,0c0,0,0,0,0,0.1l0,0l0,0c0,0,0,0.1,0,0.1l0,0l0,0c0,0,0,0,0,0
		l0,0l0,0c0,0,0,0,0,0l0,0l0,0c0,0,0,0,0,0l0,0l0,0c0,0,0,0,0,0l0,0l0,0c0,0,0,0,0.1,0l0,0l0,0c0,0,0.1,0,0.1,0l0,0l0,0
		c0.1,0,0.1,0,0.1-0.1l0,0l0,0C-5.6,7.3-5.6,7.3-5.6,7.2L-5.6,7.2L-5.6,7.2C-5.6,7.2-5.6,7.2-5.6,7.2L-5.6,7.2L-5.6,7.2z M-3.8,8
		L-3.8,8L-3.8,8C-3.8,8-3.8,8.1-3.8,8L-3.8,8L-3.8,8C-3.8,8.1-3.9,8.1-3.8,8L-3.8,8L-3.8,8c-0.1,0-0.1,0-0.1,0l0,0l0,0c0,0,0,0,0,0
		l0,0l0,0c0,0,0-0.1,0-0.1l0,0l0,0c0,0,0-0.1,0-0.1l0,0l0,0c0,0-0.1-0.1-0.1-0.1l0,0l0,0c0,0-0.1,0-0.1,0l0,0l0,0c0,0-0.1,0-0.1,0
		l0,0l0,0c0,0-0.1,0-0.1,0l0,0l0,0c-0.1,0-0.1,0-0.2,0.1l0,0l0,0l0,0l0,0c0,0,0,0.1,0,0.1l0,0l0,0c0,0,0,0,0,0.1l0,0l0,0.1l0,0
		c0,0,0,0-0.1,0l0,0l0,0c0,0,0,0,0,0l0,0l0,0c0,0,0,0,0,0l0,0l0,0c0,0,0,0,0,0l0,0l0,0c0,0,0,0,0,0l0,0l0,0c0,0,0,0,0,0l0,0l0-0.1
		l0,0c0-0.1,0.1-0.2,0.1-0.3l0,0l0,0c0-0.1,0.1-0.2,0.1-0.3l0,0l0,0c0,0,0,0,0,0l0,0l0,0c0,0,0,0,0,0l0,0l0,0c0,0,0-0.1,0-0.1l0,0
		l0,0c0,0,0-0.1,0-0.1l0,0l0,0l0,0c0,0,0,0,0,0l0,0l0,0c0,0,0,0,0,0l0,0l0,0c0,0,0,0.1,0.1,0.1l0,0l0,0c0,0,0,0.1,0,0.1l0,0l0,0
		c0,0.1,0.1,0.2,0.1,0.3l0,0l0,0C-4,7.5-4,7.6-3.9,7.7l0,0l0,0c0,0,0,0.1,0,0.1l0,0l0,0c0,0,0,0.1,0,0.1l0,0l0,0c0,0,0,0,0,0.1l0,0
		l0,0C-3.8,7.9-3.8,7.9-3.8,8L-3.8,8L-3.8,8C-3.8,8-3.8,8-3.8,8L-3.8,8L-3.8,8C-3.8,8-3.8,8-3.8,8z M-4.1,7.5L-4.1,7.5L-4.1,7.5
		C-4.2,7.5-4.2,7.4-4.1,7.5L-4.1,7.5L-4.1,7.5c0-0.1-0.1-0.2-0.1-0.2l0,0l0,0c0-0.1-0.1-0.1-0.1-0.1l0,0l0,0c0,0,0,0,0,0l0,0l0,0
		c0,0,0,0,0,0l0,0l0,0c0,0,0,0,0,0l0,0l0,0c0,0,0,0,0,0l0,0l0,0c0,0,0,0.1,0,0.1l0,0l0,0c0,0,0,0.1,0,0.1l0,0l0,0c0,0,0,0,0,0.1l0,0
		l0,0c0,0,0,0,0.1,0l0,0l0,0c0,0,0.1,0,0.1,0l0,0l0,0c0,0,0,0,0.1,0l0,0l0,0c0,0,0.1,0,0.1,0l0,0l0,0C-4.2,7.6-4.1,7.6-4.1,7.5
		L-4.1,7.5L-4.1,7.5C-4.1,7.6-4.1,7.5-4.1,7.5L-4.1,7.5L-4.1,7.5C-4.1,7.5-4.1,7.5-4.1,7.5L-4.1,7.5L-4.1,7.5
		C-4.1,7.5-4.1,7.5-4.1,7.5z M-2.5,7L-2.5,7L-2.5,7C-2.5,7-2.5,7-2.5,7L-2.5,7L-2.5,7c0.1,0.1,0.1,0.2,0.1,0.2l0,0l0,0
		c0,0,0,0.1,0,0.1l0,0l0,0c0,0,0,0.1-0.1,0.1l0,0l0,0c0,0-0.1,0-0.1,0.1l0,0l0,0c0,0,0,0-0.1,0l0,0l0,0c0,0,0,0-0.1,0l0,0l0,0
		c0,0,0,0,0,0.1l0,0l0,0c0,0,0,0,0,0.1l0,0l0,0c0,0,0,0,0,0l0,0l0,0c0,0,0,0,0,0l0,0l0,0c0,0,0,0,0,0.1l0,0l0,0c0,0,0.1,0.1,0.1,0.1
		l0,0l0,0c0,0,0.1,0.1,0.1,0.1l0,0l0,0l0,0c0,0,0,0.1,0,0.1l0,0l0,0c0,0-0.1,0-0.1,0l0,0l0,0c0,0,0,0-0.1-0.1l0,0l0,0c0,0,0,0,0,0
		l0,0l0,0c0,0-0.1-0.1-0.1-0.1l0,0l0,0c0,0,0-0.1-0.1-0.1l0,0l0,0c0,0,0-0.1-0.1-0.1l0,0l0,0c0-0.1-0.1-0.2-0.2-0.2l0,0l0,0
		c-0.1,0-0.1,0-0.2,0l0,0l0,0c0,0,0,0,0,0.1l0,0V8v0l0,0c0,0,0,0.1-0.1,0.1l0,0l0,0c0,0-0.1,0-0.1-0.1l0,0l0,0c0,0,0-0.1,0-0.1l0,0
		l0,0c0,0,0-0.1,0-0.1l0,0l0,0c0,0,0,0,0-0.1l0,0l0,0c0,0,0-0.1,0-0.1l0,0l0,0c0,0,0,0,0-0.1l0,0l0,0c0,0,0,0,0-0.1l0,0l0,0
		c0-0.1,0-0.1,0-0.2l0,0l0,0c0,0,0-0.1,0-0.1l0,0l0,0c0,0,0-0.1,0-0.1l0,0l0,0c0,0,0,0,0-0.1l0,0l0,0c0,0,0-0.1,0-0.1l0,0l0,0
		c0,0,0.1,0,0.2,0l0,0h0.1l0,0c0,0,0.1,0,0.1,0l0,0l0,0c0,0,0.1,0,0.1,0l0,0l0,0C-2.7,6.9-2.6,6.9-2.5,7z M-3.1,7.4L-3.1,7.4
		L-3.1,7.4c0,0,0.1,0,0.1,0l0,0l0,0c0,0,0.1,0,0.1,0l0,0l0,0c0,0,0.1,0,0.1,0l0,0l0,0c0,0,0.1,0,0.1,0l0,0l0,0c0.1,0,0.1,0,0.1-0.1
		l0,0l0,0c0,0,0,0,0-0.1l0,0l0,0c0,0,0,0,0-0.1l0,0l0,0c0,0,0,0,0,0l0,0l0,0c0,0,0,0-0.1,0l0,0l0,0c0,0,0,0-0.1,0l0,0l0,0
		c-0.1,0-0.1,0-0.2,0l0,0l0,0C-2.9,7-3,7-3,7l0,0l0,0c0,0,0,0,0,0l0,0l0,0c0,0,0,0,0,0l0,0l0,0c0,0,0,0-0.1,0l0,0l0,0c0,0,0,0,0,0.1
		l0,0l0,0c0,0,0,0,0,0l0,0l0,0c0,0,0,0,0,0.1l0,0l0,0c0,0,0,0,0,0.1l0,0l0,0C-3.2,7.3-3.2,7.3-3.1,7.4L-3.1,7.4L-3.1,7.4
		C-3.1,7.4-3.1,7.4-3.1,7.4z M-1.2,7.9L-1.2,7.9L-1.2,7.9c0.1,0,0.1,0,0.1,0l0,0l0,0c0,0,0,0,0,0.1l0,0l0,0c0,0,0,0,0,0l0,0l0,0
		c0,0,0,0,0,0l0,0l0,0c0,0-0.1,0-0.1,0l0,0l0,0c0,0,0,0-0.1,0l0,0l0,0c0,0-0.1,0-0.1,0l0,0l0,0c0,0-0.1,0-0.1,0l0,0l0,0
		c-0.1,0-0.1,0-0.2-0.1l0,0l0,0c0,0-0.1-0.1-0.1-0.1l0,0l0,0c0-0.1-0.1-0.1-0.1-0.2l0,0l0,0l0,0c0,0,0-0.1,0-0.1l0,0l0,0
		c0,0,0-0.1,0-0.1l0,0l0,0c0,0,0-0.1,0-0.1l0,0l0,0c0,0,0,0,0-0.1l0,0l0,0c0,0,0-0.1,0.1-0.1l0,0l0,0C-1.8,7.1-1.8,7-1.7,7l0,0l0,0
		c0,0,0.1-0.1,0.2-0.1l0,0l0,0c0,0,0.1,0,0.1,0l0,0l0,0c0,0,0,0,0,0l0,0l0,0c0,0,0,0,0.1,0l0,0l0,0c0,0,0,0,0.1,0l0,0l0,0
		c0,0,0,0,0.1,0l0,0l0,0c0,0,0.1,0,0.1,0l0,0l0,0c0,0,0.1,0,0.1,0.1l0,0l0,0c0,0,0,0,0,0l0,0l0,0c0,0,0,0,0,0l0,0l0,0c0,0,0,0,0,0
		l0,0l0,0c0,0,0,0,0,0l0,0l0,0c0,0,0,0-0.1,0l0,0l0,0c0,0,0,0-0.1,0l0,0l0,0c0,0,0,0-0.1,0l0,0l0,0c0,0,0,0-0.1,0l0,0l0,0
		c-0.1,0-0.1,0-0.1,0l0,0l0,0c0,0-0.1,0.1-0.1,0.1l0,0l0,0c0,0-0.1,0.1-0.1,0.1l0,0l0,0c0,0,0,0.1,0,0.1l0,0l0,0c0,0.1,0,0.1,0,0.2
		l0,0l0,0c0,0.1,0,0.1,0,0.1l0,0v0h0l0,0c0.1,0.1,0.1,0.2,0.2,0.2l0,0l0,0c0.1,0,0.1,0,0.2,0l0,0l0,0c0,0,0,0,0,0l0,0l0,0
		c0,0,0,0,0,0l0,0l0,0C-1.2,7.9-1.2,7.9-1.2,7.9z M-0.6,8L-0.6,8L-0.6,8c0-0.1,0-0.2,0-0.2l0,0l0,0c0-0.1,0-0.2,0-0.2l0,0V7.4l0,0
		c0,0,0-0.1,0-0.1l0,0l0,0c0,0,0-0.1,0-0.1l0,0l0,0c0,0,0-0.1,0-0.1l0,0l0,0c0,0,0-0.1,0-0.1l0,0l0,0c0,0,0-0.1,0-0.1l0,0l0,0
		c0,0,0,0,0.1,0l0,0l0,0c0,0,0,0,0.1,0l0,0l0,0c0,0,0,0,0,0l0,0l0,0c0,0,0.1,0,0.1,0l0,0l0,0c0,0,0.1,0,0.1,0l0,0l0,0
		c0,0,0.1,0,0.1,0l0,0l0,0c0,0,0.1,0,0.1,0l0,0l0.1,0l0,0c0,0,0,0,0,0l0,0l0,0c0,0,0,0,0,0l0,0l0,0c0,0,0,0,0,0.1l0,0l0,0
		c0,0,0,0,0,0l0,0l0,0c0,0,0,0,0,0l0,0l0,0c0,0,0,0,0,0l0,0l0,0c0,0,0,0,0,0l0,0l0,0C0.1,7,0,7-0.1,7l0,0l0,0c0,0,0,0,0,0l0,0l0,0
		c0,0,0,0,0,0l0,0h-0.1l0,0c0,0-0.1,0-0.1,0l0,0l0,0c0,0,0,0-0.1,0l0,0l0,0c0,0,0,0-0.1,0l0,0l0,0c0,0,0,0,0,0l0,0l0,0
		c0,0,0,0,0,0.1l0,0l0,0c0,0,0,0,0,0l0,0l0,0c0,0,0,0,0,0l0,0l0,0c0,0,0,0,0,0l0,0l0,0c0,0,0,0,0,0.1l0,0l0,0c0,0,0,0.1,0,0.1l0,0
		l0,0c0,0,0.1,0,0.1,0l0,0l0,0c0,0,0.1,0,0.1,0l0,0l0,0c0,0,0.1,0,0.1,0l0,0l0,0c0,0,0,0,0,0l0,0l0,0c0,0,0,0,0.1,0l0,0l0,0
		c0,0,0.1,0,0.1,0l0,0l0,0c0,0,0,0,0,0l0,0l0,0c0,0,0,0-0.1,0l0,0l0,0c0,0-0.1,0-0.1,0l0,0l0,0c0,0,0,0-0.1,0l0,0l0,0c0,0,0,0-0.1,0
		l0,0l0,0c0,0-0.1,0-0.1,0l0,0l0,0c0,0-0.1,0-0.1,0l0,0l0,0c0,0,0,0,0,0l0,0l0,0c0,0,0,0,0,0l0,0h0l0,0c0,0,0,0,0,0l0,0l0,0
		c0,0,0,0,0,0.1l0,0l0,0c0,0,0,0.1,0,0.1l0,0l0,0c0,0,0,0,0,0l0,0l0,0c0,0,0,0,0,0l0,0l0,0c0,0,0,0,0,0.1l0,0l0,0c0,0,0,0,0,0.1l0,0
		l0,0c0,0,0,0.1,0,0.1l0,0l0,0c0,0,0.1,0,0.1,0l0,0l0,0c0,0,0.1,0,0.1,0l0,0l0,0c0,0,0.1,0,0.1,0l0,0l0,0C-0.1,8,0,8,0,8l0,0l0,0
		c0,0,0.1,0,0.1,0l0,0l0,0c0,0,0,0,0.1,0l0,0l0,0c0,0,0,0,0.1,0l0,0l0,0c0,0,0,0,0,0l0,0l0,0c0,0,0,0.1-0.1,0.1l0,0l0,0
		c-0.1,0-0.2,0-0.2,0l0,0l0,0c-0.1,0-0.2,0-0.2,0l0,0l0,0c0,0,0,0,0,0l0,0l0,0c0,0,0,0,0,0l0,0l0,0c0,0-0.1,0-0.1,0l0,0l0,0
		c0,0,0,0-0.1,0l0,0l0,0c0,0,0,0,0,0l0,0l0,0c0,0,0,0,0,0l0,0l0,0c0,0,0,0,0,0l0,0l0,0c0,0,0,0,0,0l0,0l0,0C-0.6,8.1-0.6,8-0.6,8z
		 M1.4,7.3L1.4,7.3L1.4,7.3C1.4,7.3,1.4,7.3,1.4,7.3L1.4,7.3L1.4,7.3C1.4,7.3,1.4,7.3,1.4,7.3L1.4,7.3L1.4,7.3c0,0.1,0,0.1,0,0.1
		l0,0l0,0c0,0,0,0,0,0l0,0l0,0c0,0,0,0,0,0l0,0l0,0c0.1,0.1,0.1,0.2,0.1,0.3l0,0l0,0c0,0.1,0,0.1-0.1,0.2l0,0l0,0
		c0,0-0.1,0.1-0.1,0.1l0,0l0,0c0,0,0,0,0,0l0,0l0,0c0,0,0,0-0.1,0l0,0l0,0c0,0-0.1,0-0.1,0l0,0l0,0c0,0-0.1,0-0.1,0l0,0l0,0
		c0,0-0.1,0-0.1,0l0,0l0,0c0,0-0.1,0-0.1,0l0,0l0,0c0,0,0,0,0,0l0,0l0,0c0,0,0,0,0,0l0,0l0,0l0,0c0,0,0,0,0,0l0,0l0,0c0,0,0,0,0,0
		l0,0l0,0c0,0,0,0,0,0l0,0V7.9V7.7l0,0c0,0,0-0.1,0-0.1l0,0l0,0c0,0,0-0.1,0-0.1l0,0l0,0c0-0.1,0-0.1,0-0.2l0,0l0,0
		c0-0.1,0-0.1,0-0.2l0,0l0,0c0,0,0-0.1,0-0.1l0,0l0,0c0,0,0-0.1,0-0.1l0,0l0,0c0,0,0,0,0,0l0,0l0,0c0,0,0,0,0,0l0,0l0,0c0,0,0,0,0,0
		l0,0l0,0c0,0,0,0,0,0l0,0l0,0c0,0,0,0,0.1,0l0,0l0,0c0,0,0,0,0,0l0,0l0,0c0,0,0,0,0,0l0,0l0,0c0,0,0.1,0,0.1,0l0,0l0,0
		c0,0,0.1,0,0.1,0l0,0l0,0c0.1,0,0.1,0,0.2,0.1l0,0l0,0C1.4,7,1.4,7.1,1.4,7.3L1.4,7.3L1.4,7.3C1.4,7.2,1.4,7.3,1.4,7.3z M0.8,7.6
		v0.1l0,0c0,0,0,0,0,0l0,0l0,0c0,0,0,0,0,0l0,0l0,0c0,0,0,0.1,0,0.1l0,0l0,0c0,0,0,0,0,0l0,0l0,0c0,0,0,0,0,0l0,0l0,0c0,0,0,0,0,0
		l0,0l0,0c0,0,0,0,0,0l0,0l0,0c0,0,0,0,0,0l0,0l0,0c0,0,0,0,0.1,0l0,0l0,0c0,0,0.1,0,0.1,0l0,0l0,0c0,0,0.1,0,0.1,0l0,0l0,0
		c0.1,0,0.1-0.1,0.1-0.1l0,0v0l0,0c0,0,0,0,0-0.1l0,0l0,0c0,0,0,0,0-0.1l0,0l0,0c0,0,0,0,0-0.1l0,0l0,0c0,0,0,0,0,0l0,0l0,0l0,0
		c0,0,0,0-0.1,0l0,0l0,0c0,0,0,0-0.1,0l0,0l0,0c0,0-0.1,0-0.1,0l0,0l0,0c0,0-0.1,0-0.1,0l0,0l0,0c0,0,0,0-0.1,0l0,0l0,0c0,0,0,0,0,0
		l0,0l0,0c0,0,0,0,0,0l0,0l0,0c0,0,0,0,0,0l0,0l0,0C0.9,7.5,0.9,7.5,0.8,7.6L0.8,7.6L0.8,7.6C0.8,7.5,0.8,7.6,0.8,7.6L0.8,7.6z
		 M1.3,7.2L1.3,7.2L1.3,7.2L1.3,7.2C1.3,7.1,1.3,7.1,1.3,7.2L1.3,7.2L1.3,7.2C1.2,7.1,1.2,7.1,1.2,7l0,0l0,0c0,0,0,0-0.1,0l0,0l0,0
		c0,0-0.1,0-0.1,0l0,0l0,0C1,7,1,7,0.9,7l0,0l0,0c-0.1,0-0.1,0-0.1,0l0,0l0,0c0,0,0,0,0,0.1l0,0l0,0c0,0,0,0,0,0.1l0,0l0,0
		c0,0,0,0,0,0l0,0l0,0c0,0,0,0,0,0.1l0,0l0,0c0,0,0,0.1,0,0.1l0,0l0,0c0,0,0,0,0,0l0,0l0,0c0,0,0,0,0,0l0,0l0,0c0,0,0,0,0,0l0,0l0,0
		c0,0,0,0,0,0l0,0l0,0c0,0,0,0,0.1,0l0,0l0,0c0,0,0.1,0,0.1,0l0,0l0,0c0.1,0,0.1,0,0.1-0.1l0,0l0,0C1.3,7.3,1.3,7.3,1.3,7.2L1.3,7.2
		L1.3,7.2C1.3,7.2,1.3,7.2,1.3,7.2L1.3,7.2L1.3,7.2z M2.5,8.1L2.5,8.1L2.5,8.1C2.4,8.1,2.4,8.1,2.5,8.1L2.5,8.1L2.5,8.1
		C2.4,8,2.3,8,2.3,8l0,0l0,0c0,0,0,0-0.1-0.1l0,0l0,0c0,0,0,0-0.1-0.1l0,0l0,0c0,0,0-0.1,0-0.1l0,0l0,0c0,0,0-0.1,0-0.1l0,0l0,0
		c0,0,0-0.1,0-0.1l0,0l0,0c0,0,0,0,0,0l0,0l0,0c0,0,0,0,0,0l0,0l0,0c0,0,0,0,0,0l0,0l0,0c0,0,0,0,0,0l0,0l0,0c0,0,0,0,0-0.1l0,0l0,0
		c0,0,0-0.1,0-0.1l0,0l0,0c0,0,0,0,0,0l0,0l0,0c0,0,0-0.1,0-0.1l0,0l0,0c0,0,0-0.1,0.1-0.1l0,0l0,0c0-0.1,0.1-0.1,0.2-0.1l0,0l0,0
		c0,0,0.1,0,0.1,0l0,0l0,0c0,0,0.1,0,0.1,0l0,0l0,0c0,0,0,0,0.1,0l0,0l0,0c0,0,0,0,0,0l0,0l0,0C2.8,6.9,2.9,7,3,7l0,0l0,0
		c0,0,0,0,0,0.1l0,0l0,0c0,0,0,0,0,0.1l0,0l0,0l0,0c0,0,0,0,0,0l0,0l0,0c0,0,0,0,0,0l0,0l0,0c0,0,0,0.1,0.1,0.2l0,0l0,0
		c0,0.1,0,0.1,0,0.2l0,0l0,0c0,0,0,0.1,0,0.1l0,0l0,0c0,0,0,0.1,0,0.1l0,0l0,0c0,0.2-0.2,0.3-0.3,0.3l0,0l0,0l0,0c0,0,0,0,0,0l0,0
		l0,0c0,0,0,0-0.1,0l0,0l0,0c0,0-0.1,0-0.1,0l0,0l0,0C2.5,8.1,2.5,8.1,2.5,8.1z M2.7,7L2.7,7L2.7,7C2.6,7,2.5,7,2.5,7l0,0l0,0
		c-0.1,0-0.1,0-0.1,0.1l0,0l0,0C2.3,7.2,2.2,7.2,2.2,7.3l0,0l0,0c0,0.1,0,0.2,0,0.2l0,0l0,0.1l0,0c0,0,0,0,0,0l0,0l0,0c0,0,0,0,0,0
		l0,0l0,0c0,0,0,0.1,0,0.1l0,0l0,0c0,0,0,0,0.1,0.1l0,0l0,0c0,0,0,0,0,0l0,0l0,0c0,0,0,0,0,0l0,0l0,0c0,0,0,0,0.1,0l0,0h0l0,0
		c0,0,0.1,0,0.1,0l0,0l0,0c0,0,0.1,0,0.1,0l0,0l0,0c0,0,0,0,0.1,0l0,0l0,0c0,0,0,0,0.1,0l0,0l0,0c0,0,0.1,0,0.1-0.1l0,0h0v0l0,0
		c0,0,0-0.1,0-0.1l0,0l0,0c0,0,0-0.1,0-0.1l0,0l0,0c0.1-0.1,0.1-0.3,0-0.4l0,0l0,0l0,0c0,0,0,0,0,0l0,0l0,0c0,0,0,0,0,0l0,0l0,0
		c0-0.1-0.1-0.1-0.2-0.2l0,0l0,0c0,0,0,0,0,0l0,0l0,0C2.8,7,2.8,7,2.7,7L2.7,7L2.7,7C2.7,7,2.7,7,2.7,7L2.7,7z M4.4,7.3L4.4,7.3
		L4.4,7.3C4.4,7.3,4.4,7.3,4.4,7.3L4.4,7.3L4.4,7.3C4.4,7.3,4.4,7.3,4.4,7.3L4.4,7.3L4.4,7.3c0,0.1,0,0.1,0,0.1l0,0l0,0c0,0,0,0,0,0
		l0,0l0,0c0,0,0,0,0,0l0,0l0,0c0.1,0.1,0.1,0.2,0.1,0.3l0,0l0,0c0,0.1,0,0.1-0.1,0.2l0,0l0,0c0,0-0.1,0.1-0.1,0.1l0,0l0,0
		c0,0,0,0,0,0l0,0l0,0c0,0,0,0-0.1,0l0,0l0,0c0,0-0.1,0-0.1,0l0,0l0,0c0,0-0.1,0-0.1,0l0,0l0,0c0,0-0.1,0-0.1,0l0,0l0,0
		c0,0-0.1,0-0.1,0l0,0l0,0c0,0,0,0,0,0l0,0l0,0c0,0,0,0,0,0l0,0l0,0l0,0c0,0,0,0,0,0l0,0l0,0c0,0,0,0,0,0l0,0l0,0c0,0,0,0,0,0l0,0
		V7.9V7.7l0,0c0,0,0-0.1,0-0.1l0,0l0,0c0,0,0-0.1,0-0.1l0,0l0,0c0-0.1,0-0.1,0-0.2l0,0l0,0c0-0.1,0-0.1,0-0.2l0,0l0,0
		c0,0,0-0.1,0-0.1l0,0l0,0c0,0,0-0.1,0-0.1l0,0l0,0c0,0,0,0,0,0l0,0l0,0c0,0,0,0,0,0l0,0l0,0c0,0,0,0,0,0l0,0l0,0c0,0,0,0,0.1,0l0,0
		l0,0c0,0,0,0,0.1,0l0,0l0,0c0,0,0,0,0,0l0,0l0,0c0,0,0,0,0.1,0l0,0l0,0c0,0,0.1,0,0.1,0l0,0l0,0c0,0,0.1,0,0.1,0l0,0l0,0
		c0.1,0,0.1,0,0.2,0.1l0,0l0,0C4.4,7,4.4,7.1,4.4,7.3L4.4,7.3L4.4,7.3C4.4,7.2,4.4,7.3,4.4,7.3z M3.8,7.6v0.1l0,0c0,0,0,0,0,0l0,0
		l0,0c0,0,0,0,0,0l0,0l0,0c0,0,0,0.1,0,0.1l0,0l0,0c0,0,0,0,0,0l0,0l0,0c0,0,0,0,0,0l0,0l0,0c0,0,0,0,0,0l0,0l0,0c0,0,0,0,0,0l0,0
		l0,0c0,0,0,0,0,0l0,0l0,0c0,0,0,0,0.1,0l0,0l0,0c0,0,0.1,0,0.1,0l0,0l0,0c0,0,0.1,0,0.1,0l0,0l0,0c0.1,0,0.1-0.1,0.1-0.1l0,0v0l0,0
		c0,0,0,0,0-0.1l0,0l0,0c0,0,0,0,0-0.1l0,0l0,0c0,0,0,0,0-0.1l0,0l0,0c0,0,0,0,0,0l0,0l0,0l0,0c0,0,0,0-0.1,0l0,0l0,0c0,0,0,0-0.1,0
		l0,0l0,0c0,0-0.1,0-0.1,0l0,0l0,0c0,0-0.1,0-0.1,0l0,0l0,0c0,0,0,0-0.1,0l0,0l0,0c0,0,0,0-0.1,0l0,0l0,0c0,0,0,0,0,0l0,0l0,0
		c0,0,0,0,0,0l0,0l0,0C3.9,7.5,3.8,7.5,3.8,7.6L3.8,7.6L3.8,7.6C3.8,7.5,3.8,7.6,3.8,7.6L3.8,7.6z M4.3,7.2L4.3,7.2L4.3,7.2L4.3,7.2
		C4.3,7.1,4.3,7.1,4.3,7.2L4.3,7.2L4.3,7.2C4.2,7.1,4.2,7.1,4.2,7l0,0l0,0c0,0,0,0-0.1,0l0,0l0,0c0,0-0.1,0-0.1,0l0,0l0,0
		c0,0-0.1,0-0.1,0l0,0l0,0c0,0-0.1,0-0.1,0l0,0l0,0c0,0,0,0,0,0.1l0,0l0,0c0,0,0,0,0,0.1l0,0l0,0c0,0,0,0,0,0l0,0l0,0c0,0,0,0,0,0.1
		l0,0l0,0c0,0,0,0.1,0,0.1l0,0l0,0c0,0,0,0,0,0l0,0l0,0c0,0,0,0,0,0l0,0l0,0c0,0,0,0,0,0l0,0l0,0c0,0,0,0,0,0l0,0l0,0c0,0,0,0,0.1,0
		l0,0l0,0c0,0,0.1,0,0.1,0l0,0l0,0c0.1,0,0.1,0,0.1-0.1l0,0l0,0C4.3,7.3,4.3,7.3,4.3,7.2L4.3,7.2L4.3,7.2C4.3,7.2,4.3,7.2,4.3,7.2
		L4.3,7.2L4.3,7.2z M6.1,8L6.1,8L6.1,8C6.1,8,6.1,8.1,6.1,8L6.1,8L6.1,8C6.1,8.1,6.1,8.1,6.1,8L6.1,8L6.1,8C6,8,6,8,6,8l0,0l0,0
		c0,0,0,0,0,0l0,0l0,0c0,0,0-0.1,0-0.1l0,0l0,0c0,0,0-0.1,0-0.1l0,0l0,0c0,0-0.1-0.1-0.1-0.1l0,0l0,0c0,0-0.1,0-0.1,0l0,0l0,0
		c0,0-0.1,0-0.1,0l0,0l0,0c0,0-0.1,0-0.1,0l0,0l0,0c-0.1,0-0.1,0-0.2,0.1l0,0l0,0l0,0l0,0c0,0,0,0.1,0,0.1l0,0l0,0c0,0,0,0,0,0.1
		l0,0l0,0.1l0,0c0,0,0,0-0.1,0l0,0l0,0c0,0,0,0,0,0l0,0l0,0c0,0,0,0,0,0l0,0l0,0c0,0,0,0,0,0l0,0l0,0c0,0,0,0,0,0l0,0l0,0
		c0,0,0,0,0,0l0,0l0-0.1l0,0c0-0.1,0.1-0.2,0.1-0.3l0,0l0,0c0-0.1,0.1-0.2,0.1-0.3l0,0l0,0c0,0,0,0,0,0l0,0l0,0c0,0,0,0,0,0l0,0l0,0
		c0,0,0-0.1,0-0.1l0,0l0,0c0,0,0-0.1,0-0.1l0,0l0,0l0,0c0,0,0,0,0,0l0,0l0,0c0,0,0,0,0,0l0,0l0,0c0,0,0,0.1,0.1,0.1l0,0l0,0
		c0,0,0,0.1,0,0.1l0,0l0,0c0,0.1,0.1,0.2,0.1,0.3l0,0l0,0c0,0.1,0.1,0.2,0.1,0.3l0,0l0,0c0,0,0,0.1,0,0.1l0,0l0,0c0,0,0,0.1,0,0.1
		l0,0l0,0c0,0,0,0,0,0.1l0,0l0,0C6.1,7.9,6.1,7.9,6.1,8L6.1,8L6.1,8C6.1,8,6.1,8,6.1,8L6.1,8L6.1,8C6.1,8,6.1,8,6.1,8z M5.8,7.5
		L5.8,7.5L5.8,7.5C5.8,7.5,5.7,7.4,5.8,7.5L5.8,7.5L5.8,7.5c0-0.1-0.1-0.2-0.1-0.2l0,0l0,0c0-0.1-0.1-0.1-0.1-0.1l0,0l0,0
		c0,0,0,0,0,0l0,0l0,0c0,0,0,0,0,0l0,0l0,0c0,0,0,0,0,0l0,0l0,0c0,0,0,0,0,0l0,0l0,0c0,0,0,0.1,0,0.1l0,0l0,0c0,0,0,0.1,0,0.1l0,0
		l0,0c0,0,0,0,0,0.1l0,0l0,0c0,0,0,0,0.1,0l0,0l0,0c0,0,0.1,0,0.1,0l0,0l0,0c0,0,0,0,0.1,0l0,0l0,0c0,0,0.1,0,0.1,0l0,0l0,0
		C5.8,7.6,5.8,7.6,5.8,7.5L5.8,7.5L5.8,7.5C5.8,7.6,5.8,7.5,5.8,7.5L5.8,7.5L5.8,7.5C5.8,7.5,5.8,7.5,5.8,7.5L5.8,7.5L5.8,7.5
		C5.8,7.5,5.8,7.5,5.8,7.5z"/>
</g>
<g id="d7c658f4-9c46-4284-b353-a960d37d1ced" transform="matrix(3.02033690133878,0,0,3.02033690133878,0.6746095785795205,-6.44676146975133)">
	<circle class="st1" cx="6.7" cy="15.3" r="1.9"/>
	<circle class="st1" cx="1.7" cy="15.3" r="1.9"/>
	<path class="st1" d="M-0.2,9h3.7v3.7h-3.7V9z M4.9,9h3.7v3.7H4.9V9z"/>
</g>
<g id="ef9c6ad3-3cb2-4f8b-a3e1-fe5d79f84256" transform="matrix(1.8413900469367468,0,0,1.8413900469367468,116.00630109327741,54.954590382108464)">
	<path class="st2" d="M-45.6-7.6L-45.6-7.6l0.1,0l0.1,0.2l0,0c0,0.1,0,0.1,0,0.2l0,0l0,0c0,0,0.1,0,0.1,0.1l0,0l0,0
		c0.2,0.1,0.3,0.1,0.5,0.1l0,0l0,0c0.1,0,0.3,0,0.4-0.1l0,0l0,0c0.1-0.1,0.1-0.2,0.1-0.3l0,0l0,0c0-0.1,0-0.2-0.1-0.3l0,0l0,0
		c-0.1-0.1-0.2-0.2-0.4-0.3l0,0l-0.2-0.1l0,0c-0.1-0.1-0.2-0.1-0.3-0.2l0,0l0,0c-0.1-0.1-0.1-0.1-0.2-0.2l0,0l0,0
		c-0.1-0.1-0.1-0.2-0.1-0.3l0,0l0,0c0-0.2,0.1-0.4,0.2-0.5l0,0l0,0c0.2-0.1,0.3-0.2,0.5-0.2l0,0l0,0c0.1,0,0.1,0,0.2,0l0,0l0,0
		c0,0,0.1,0,0.1,0l0,0l0.1,0l0,0c0,0,0,0,0,0l0,0l0,0c0,0,0,0,0,0l0,0l0,0l0.1,0l0.1,0.7l-0.1,0l0-0.3l0,0c-0.1-0.1-0.3-0.2-0.5-0.2
		l0,0l0,0c-0.1,0-0.2,0-0.3,0.1l0,0l0,0c-0.1,0.1-0.1,0.2-0.1,0.3l0,0l0,0c0,0.1,0,0.2,0.1,0.3l0,0l0,0c0.1,0.1,0.2,0.2,0.4,0.3l0,0
		l0.2,0.1l0,0c0.2,0.1,0.3,0.2,0.4,0.3l0,0l0,0c0.1,0.1,0.1,0.2,0.1,0.4l0,0l0,0c0,0.2-0.1,0.4-0.2,0.5l0,0l0,0
		c-0.2,0.1-0.4,0.2-0.6,0.2l0,0l0,0c-0.1,0-0.2,0-0.3,0l0,0l0,0c-0.1,0-0.1,0-0.2,0l0,0l0,0c0,0-0.1,0-0.1,0.1l0,0l0,0l-0.1,0l0,0
		C-45.5-6.9-45.5-7.1-45.6-7.6z M-40.6-6.9h-1v-0.1h0.1l0,0c0.1,0,0.1,0,0.1,0l0,0l0,0c0,0,0,0,0-0.1l0,0v-2l0,0c0-0.1,0-0.1,0-0.1
		l0,0l0,0c0,0-0.1,0-0.1,0l0,0h-0.1l0-0.2h0.8l0,0c0.2,0,0.4,0,0.5,0l0,0l0,0c0.1,0,0.2,0.1,0.3,0.1l0,0l0,0
		c0.2,0.2,0.3,0.4,0.3,0.7l0,0l0,0c0,0.2-0.1,0.4-0.2,0.5l0,0l0,0c-0.1,0.1-0.3,0.2-0.6,0.2l0,0l0,0c0,0-0.1,0-0.2,0l0,0l0,0
		c0,0-0.1,0-0.1,0l0,0l0,0C-40.9-8-41-8-41-8l0,0l0,0c-0.1,0-0.1,0-0.1,0l0,0l0,0v0.8l0,0c0,0.1,0,0.1,0,0.1l0,0l0,0
		c0,0,0.1,0,0.2,0l0,0h0.2V-6.9z M-41.1-9.2v1l0,0c0.1,0,0.2,0.1,0.4,0.1l0,0l0,0c0.2,0,0.4,0,0.5-0.1l0,0l0,0
		c0.1-0.1,0.2-0.2,0.2-0.4l0,0l0,0c0-0.2-0.1-0.4-0.3-0.5l0,0l0,0c-0.2-0.1-0.4-0.2-0.6-0.2l0,0l0,0c0,0-0.1,0-0.1,0l0,0l0,0
		C-41.1-9.3-41.1-9.2-41.1-9.2L-41.1-9.2z M-37.5-6.9l0-0.1h0l0,0c0.1,0,0.1,0,0.1,0l0,0l0,0c0,0,0.1-0.1,0.1-0.2l0,0l0.3-0.6
		l0.2-0.4l0,0c0-0.1,0.1-0.2,0.1-0.2l0,0l0,0c0,0,0-0.1,0-0.1l0,0l0,0c0,0,0,0,0,0l0,0l0-0.1l0.4-1h0.1l0,0c0.2,0.4,0.4,1.1,0.8,2.1
		l0,0l0,0c0.1,0.2,0.1,0.3,0.2,0.4l0,0l0,0c0,0,0.1,0.1,0.2,0.1l0,0h0.1l0,0.1h-0.9l0-0.1h0.1l0,0c0.1,0,0.2,0,0.2,0l0,0l0,0
		c0,0,0-0.1,0-0.1l0,0l-0.3-0.7h-0.9l-0.3,0.7l0,0c0,0.1,0,0.1,0,0.1l0,0l0,0c0,0,0,0,0,0.1l0,0l0,0c0,0,0.1,0,0.1,0l0,0h0.2v0.1
		H-37.5z M-36.3-9l-0.4,0.9h0.8L-36.3-9z M-32.7-9.3h-0.1l0-0.2h0.9l0,0c0.3,0,0.6,0.1,0.7,0.2l0,0l0,0C-31.1-9.2-31-9-31-8.9l0,0
		l0,0c0,0.1,0,0.2-0.1,0.3l0,0l0,0c-0.1,0.1-0.2,0.2-0.3,0.2l0,0l0,0c0.2,0,0.3,0.1,0.4,0.3l0,0l0,0c0.1,0.1,0.1,0.3,0.1,0.5l0,0
		l0,0c0,0.2-0.1,0.3-0.2,0.4l0,0l0,0C-31.2-7-31.4-7-31.5-7l0,0l0,0c-0.2,0-0.4,0-0.7,0l0,0h-0.5v-0.1h0.1l0,0c0.1,0,0.1,0,0.1,0
		l0,0l0,0c0,0,0,0,0-0.1l0,0v-2l0,0c0-0.1,0-0.1,0-0.1l0,0l0,0C-32.6-9.3-32.6-9.3-32.7-9.3L-32.7-9.3z M-32.2-8.2L-32.2-8.2l0,1
		l0,0c0,0.1,0,0.1,0,0.1l0,0l0,0c0,0,0.1,0,0.2,0l0,0l0,0c0.4,0,0.6-0.2,0.6-0.5l0,0l0,0c0-0.1,0-0.2-0.1-0.3l0,0l0,0
		c-0.1-0.1-0.1-0.2-0.2-0.2l0,0l0,0c-0.1,0-0.2-0.1-0.3-0.1l0,0l0,0C-32-8.2-32.1-8.2-32.2-8.2z M-32.2-9.2v0.9h0.4l0,0
		c0.1,0,0.2,0,0.3-0.1l0,0l0,0c0.1-0.1,0.1-0.2,0.1-0.3l0,0l0,0c0-0.1-0.1-0.2-0.2-0.4l0,0l0,0c-0.1-0.1-0.3-0.2-0.5-0.2l0,0l0,0
		C-32.1-9.3-32.2-9.3-32.2-9.2L-32.2-9.2z M-28.6-9.3h-0.2l0-0.2h1v0.2h-0.1l0,0c-0.1,0-0.2,0-0.2,0l0,0l0,0c0,0,0,0.1,0,0.2l0,0
		v1.9l0,0c0,0.1,0,0.1,0,0.2l0,0l0,0c0,0,0.1,0,0.2,0l0,0h0.2l0,0.1h-1l0-0.1h0.1l0,0c0.1,0,0.2,0,0.2,0l0,0l0,0c0,0,0-0.1,0-0.1
		l0,0v-2l0,0c0-0.1,0-0.1,0-0.1l0,0l0,0C-28.4-9.3-28.5-9.3-28.6-9.3L-28.6-9.3z M-25.4-9.3h-0.1l0-0.2h1v0.2h-0.2l0,0
		c-0.1,0-0.1,0-0.1,0l0,0l0,0c0,0,0,0.1,0,0.1l0,0v1.9l0,0c0,0.1,0,0.1,0,0.1l0,0l0,0c0,0,0.1,0,0.1,0l0,0l0,0c0.5,0,0.9,0,1,0l0,0
		l0,0c0,0,0.1,0,0.1-0.1l0,0l0,0c0,0,0-0.2,0.1-0.4l0,0l0.1,0l-0.1,0.6h-1.9l0-0.1h0.1l0,0c0.1,0,0.1,0,0.2,0l0,0l0,0
		c0,0,0-0.1,0-0.1l0,0v-2l0,0c0-0.1,0-0.1,0-0.1l0,0l0,0C-25.3-9.3-25.3-9.3-25.4-9.3L-25.4-9.3z M-21.4-6.9l0-0.1h0l0,0
		c0.1,0,0.1,0,0.1,0l0,0l0,0c0,0,0.1-0.1,0.1-0.2l0,0l0.3-0.6l0.2-0.4l0,0c0-0.1,0.1-0.2,0.1-0.2l0,0l0,0c0,0,0-0.1,0-0.1l0,0l0,0
		c0,0,0,0,0,0l0,0l0-0.1l0.4-1h0.1l0,0c0.2,0.4,0.4,1.1,0.8,2.1l0,0l0,0c0.1,0.2,0.1,0.3,0.2,0.4l0,0l0,0c0,0,0.1,0.1,0.2,0.1l0,0
		h0.1l0,0.1h-0.9l0-0.1h0.1l0,0c0.1,0,0.2,0,0.2,0l0,0l0,0c0,0,0-0.1,0-0.1l0,0l-0.3-0.7h-0.9l-0.3,0.7l0,0c0,0.1,0,0.1,0,0.1l0,0
		l0,0c0,0,0,0,0,0.1l0,0l0,0c0,0,0.1,0,0.1,0l0,0h0.2v0.1H-21.4z M-20.1-9l-0.4,0.9h0.8L-20.1-9z M-16.5-8.2L-16.5-8.2L-16.5-8.2
		c0-0.2,0-0.4,0.1-0.6l0,0l0,0c0.1-0.2,0.2-0.3,0.3-0.4l0,0l0,0c0.1-0.1,0.3-0.2,0.4-0.3l0,0l0,0c0.2-0.1,0.3-0.1,0.5-0.1l0,0l0,0
		c0.2,0,0.4,0,0.6,0.1l0,0l0,0c0.2,0.1,0.4,0.3,0.5,0.5l0,0l0,0c0.1,0.2,0.2,0.4,0.2,0.7l0,0l0,0c0,0.3-0.1,0.5-0.2,0.7l0,0l0,0
		c-0.1,0.2-0.3,0.4-0.5,0.5l0,0l-0.2,0.1l0,0c0.1,0,0.2,0.1,0.4,0.2l0,0l0,0c0.2,0.1,0.3,0.2,0.4,0.3l0,0l0,0
		c0.1,0.1,0.2,0.1,0.3,0.1l0,0l0,0c0.1,0,0.1,0,0.1,0l0,0l0,0c0,0,0.1,0,0.1,0l0,0l0,0c0,0,0,0,0,0l0,0l0,0c0,0,0,0,0,0.1l0,0l0,0
		c0,0,0,0.1-0.1,0.1l0,0l0,0c0,0-0.1,0.1-0.1,0.1l0,0l0,0c-0.1,0-0.1,0-0.2,0l0,0l0,0c-0.1,0-0.2,0-0.3-0.1l0,0l0,0
		c-0.1,0-0.2-0.1-0.2-0.1l0,0l0,0c0,0-0.1-0.1-0.3-0.2l0,0l0,0c0,0-0.1-0.1-0.1-0.1l0,0l0,0c0,0-0.1,0-0.1-0.1l0,0l0,0c0,0,0,0,0,0
		l0,0l0,0c-0.1-0.1-0.2-0.1-0.2-0.2l0,0l0,0c0,0-0.1-0.1-0.1-0.1l0,0l0,0c0,0-0.1,0-0.1,0l0,0l0,0c-0.1,0-0.2,0-0.2,0l0,0l0,0
		c-0.1,0-0.2-0.1-0.3-0.1l0,0l0,0c-0.1-0.1-0.2-0.2-0.3-0.3l0,0l0,0c-0.1-0.1-0.2-0.2-0.2-0.4l0,0l0,0C-16.5-7.8-16.5-8-16.5-8.2z
		 M-16.2-8.3L-16.2-8.3L-16.2-8.3c0,0.2,0,0.4,0.1,0.6l0,0l0,0c0.1,0.2,0.2,0.4,0.4,0.5l0,0l0,0c0.2,0.1,0.4,0.2,0.6,0.2l0,0l0,0
		c0.3,0,0.5-0.1,0.6-0.3l0,0l0,0c0.2-0.2,0.3-0.5,0.3-0.8l0,0l0,0c0-0.4-0.1-0.7-0.3-0.9l0,0l0,0c-0.2-0.2-0.5-0.3-0.7-0.4l0,0l0,0
		c-0.1,0-0.2,0-0.3,0.1l0,0l0,0c-0.1,0-0.2,0.1-0.3,0.2l0,0l0,0C-16-9.1-16-9-16.1-8.8l0,0l0,0C-16.2-8.7-16.2-8.5-16.2-8.3z
		 M-11.5-8.9l-0.1,0l0,0c0-0.2,0-0.4,0.1-0.6l0,0h2.2l0,0c0,0.2,0,0.3,0,0.4l0,0l0,0c0,0.1,0,0.2,0,0.2l0,0l-0.1,0l0,0
		c0-0.2,0-0.3,0-0.3l0,0l0,0c0-0.1,0-0.1,0-0.1l0,0l0,0c0,0-0.1,0-0.2,0l0,0h-0.4l0,0c-0.1,0-0.2,0-0.2,0l0,0l0,0c0,0,0,0.1,0,0.2
		l0,0v1.9l0,0c0,0.1,0,0.1,0,0.1l0,0l0,0c0,0,0.1,0,0.2,0l0,0h0.2l0,0.1l-1,0v-0.1h0.1l0,0c0.1,0,0.2,0,0.2,0l0,0l0,0
		c0,0,0-0.1,0-0.1l0,0v-1.9l0,0c0-0.1,0-0.2,0-0.2l0,0l0,0c0,0-0.1,0-0.1,0l0,0h-0.4l0,0c0,0-0.1,0-0.1,0l0,0l0,0c0,0,0,0,0,0l0,0
		l0,0c0,0,0,0,0,0l0,0l0,0c0,0,0,0,0,0l0,0l0,0c0,0,0,0,0,0l0,0l0,0c0,0,0,0,0,0l0,0l0,0c0,0,0,0,0,0.1l0,0l0,0c0,0,0,0.1,0,0.1l0,0
		l0,0c0,0,0,0.1,0,0.1l0,0l0,0C-11.5-9-11.5-8.9-11.5-8.9L-11.5-8.9L-11.5-8.9C-11.5-8.9-11.5-8.9-11.5-8.9L-11.5-8.9z M-7.1-9.3
		h-0.1v-0.2h1l0,0.2h-0.2l0,0c-0.1,0-0.1,0-0.1,0l0,0l0,0c0,0,0,0.1,0.1,0.2l0,0l0.7,1.8L-5-9.2l0,0c0,0,0-0.1,0-0.1l0,0l0,0
		c0,0,0,0,0,0l0,0l0,0c0,0,0,0-0.1,0l0,0l0,0c0,0,0,0-0.1,0l0,0h-0.1l0-0.2h0.8l0,0.2h-0.1l0,0c-0.1,0-0.1,0-0.1,0.1l0,0l0,0
		c0,0-0.1,0.1-0.1,0.3l0,0l0,0C-5-8.9-5-8.8-5-8.8l0,0l-0.9,1.9h-0.1L-6.8-9l0,0C-6.9-9.2-6.9-9.3-7-9.3l0,0l0,0
		C-7-9.3-7-9.3-7.1-9.3L-7.1-9.3z M-2.4-9.3l0-0.2h2l0,0c0,0.2,0,0.4,0,0.6l0,0l-0.1,0l0,0c0-0.1,0-0.2,0-0.3l0,0l0,0
		c0-0.1,0-0.1,0-0.1l0,0l0,0c0,0,0,0,0,0l0,0l0,0c0,0-0.1,0-0.2,0l0,0h-0.7l0,0c-0.1,0-0.2,0-0.2,0l0,0l0,0c0,0,0,0.1,0,0.2l0,0v0.5
		l0,0c0,0.1,0,0.1,0,0.1l0,0l0,0c0,0,0.1,0,0.1,0l0,0H-1l0,0c0.1,0,0.1,0,0.1,0l0,0l0,0c0,0,0-0.1,0-0.2l0,0v-0.1l0.1,0v0.9h-0.1
		v-0.2l0,0c0-0.1,0-0.2,0-0.2l0,0l0,0c0,0-0.1,0-0.1,0l0,0h-0.6l0,0c-0.1,0-0.1,0-0.1,0l0,0l0,0c0,0,0,0,0,0.1l0,0v0.9l0,0
		c0,0.1,0,0.1,0,0.1l0,0l0,0c0,0,0,0,0.1,0l0,0l0,0c0.5,0,0.9,0,0.9,0l0,0l0,0c0.1,0,0.2,0,0.2-0.1l0,0v0l0,0l0.1-0.3l0.1,0
		l-0.1,0.6h-2v-0.1h0.1l0,0c0.1,0,0.2,0,0.2,0l0,0l0,0c0,0,0-0.1,0-0.1l0,0v-2l0,0c0-0.1,0-0.1,0-0.1l0,0l0,0c0,0-0.1,0-0.2,0l0,0
		H-2.4z M2-8.2L2-8.2L2-8.2c0-0.2,0-0.4,0.1-0.6l0,0l0,0C2.2-9,2.3-9.1,2.4-9.2l0,0l0,0c0.1-0.1,0.3-0.2,0.4-0.3l0,0l0,0
		C3-9.5,3.2-9.5,3.4-9.5l0,0l0,0c0.2,0,0.4,0,0.6,0.1l0,0l0,0c0.2,0.1,0.4,0.3,0.5,0.5l0,0l0,0c0.1,0.2,0.2,0.4,0.2,0.7l0,0l0,0
		c0,0.2,0,0.3-0.1,0.5l0,0l0,0C4.6-7.6,4.5-7.4,4.4-7.3l0,0l0,0C4.2-7.1,4.1-7,3.9-7l0,0l0,0C3.8-6.9,3.6-6.9,3.3-6.9l0,0l0,0
		c-0.2,0-0.4,0-0.6-0.1l0,0l0,0C2.6-7,2.5-7.1,2.4-7.3l0,0l0,0C2.2-7.4,2.2-7.5,2.1-7.7l0,0l0,0C2.1-7.9,2-8,2-8.2z M2.4-8.3
		L2.4-8.3L2.4-8.3c0,0.2,0,0.4,0.1,0.6l0,0l0,0c0.1,0.2,0.2,0.4,0.4,0.5l0,0l0,0C3-7.1,3.2-7,3.4-7l0,0l0,0c0.3,0,0.5-0.1,0.6-0.3
		l0,0l0,0c0.2-0.2,0.3-0.5,0.3-0.8l0,0l0,0C4.3-8.5,4.2-8.8,4-9l0,0l0,0C3.8-9.3,3.6-9.4,3.3-9.4l0,0l0,0c-0.1,0-0.2,0-0.3,0.1l0,0
		l0,0c-0.1,0-0.2,0.1-0.3,0.2l0,0l0,0C2.6-9.1,2.5-9,2.5-8.8l0,0l0,0C2.4-8.7,2.4-8.5,2.4-8.3z M7.1-9.3H6.9l0-0.2h1v0.2H7.8l0,0
		c-0.1,0-0.1,0-0.1,0l0,0l0,0c0,0,0,0.1,0,0.1l0,0v1.9l0,0c0,0.1,0,0.1,0,0.1l0,0l0,0c0,0,0,0,0.1,0l0,0l0,0c0.5,0,0.9,0,1,0l0,0
		l0,0c0,0,0.1,0,0.1-0.1l0,0l0,0c0,0,0-0.2,0.1-0.4l0,0l0.1,0L8.9-6.9H7l0-0.1h0.1l0,0c0.1,0,0.1,0,0.2,0l0,0l0,0c0,0,0-0.1,0-0.1
		l0,0v-2l0,0c0-0.1,0-0.1,0-0.1l0,0l0,0C7.2-9.3,7.2-9.3,7.1-9.3L7.1-9.3z M11.1-9.3l0-0.2h2l0,0c0,0.2,0,0.4,0,0.6l0,0l-0.2,0l0,0
		c0-0.1,0-0.2,0-0.3l0,0l0,0c0-0.1,0-0.1,0-0.1l0,0l0,0c0,0,0,0,0,0l0,0l0,0c0,0-0.1,0-0.2,0l0,0H12l0,0c-0.1,0-0.2,0-0.2,0l0,0l0,0
		c0,0,0,0.1,0,0.2l0,0v0.5l0,0c0,0.1,0,0.1,0,0.1l0,0l0,0c0,0,0.1,0,0.1,0l0,0h0.6l0,0c0.1,0,0.1,0,0.1,0l0,0l0,0c0,0,0-0.1,0-0.2
		l0,0v-0.1l0.1,0v0.9h-0.1v-0.2l0,0c0-0.1,0-0.2,0-0.2l0,0l0,0c0,0-0.1,0-0.1,0l0,0H12l0,0c-0.1,0-0.1,0-0.1,0l0,0l0,0
		c0,0,0,0,0,0.1l0,0v0.9l0,0c0,0.1,0,0.1,0,0.1l0,0l0,0c0,0,0,0,0.1,0l0,0l0,0c0.5,0,0.9,0,0.9,0l0,0l0,0c0.1,0,0.2,0,0.2-0.1l0,0
		l0,0l0,0l0.1-0.3l0.1,0l-0.1,0.6h-2v-0.1h0.1l0,0c0.1,0,0.2,0,0.2,0l0,0l0,0c0,0,0-0.1,0-0.1l0,0v-2l0,0c0-0.1,0-0.1,0-0.1l0,0l0,0
		c0,0-0.1,0-0.2,0l0,0H11.1z M15.4-9.3l0-0.2H16l1.6,2v-1.8l0,0c0-0.1,0-0.1,0-0.1l0,0l0,0c0,0-0.1,0-0.2,0l0,0h-0.1l0-0.2h0.8v0.2
		H18l0,0c-0.1,0-0.1,0-0.2,0l0,0l0,0c0,0,0,0.1,0,0.1l0,0v2.2v0l0,0c0,0,0,0,0,0l0,0l0,0c0,0,0,0,0,0l0,0l0,0c0,0,0,0,0,0l0,0h-0.1
		h0h0l0,0l0,0c0,0,0,0,0,0l0,0l0,0c0,0,0,0,0,0l0,0l0,0c0,0,0,0,0,0l0,0l0,0c0,0,0,0,0,0l0,0l0,0c0,0,0,0,0,0l0,0l0,0c0,0,0,0,0,0
		l0,0l-1.7-2.2l0,1.8l0,0c0,0.1,0,0.1,0,0.2l0,0l0,0c0,0,0.1,0,0.2,0l0,0h0.1v0.1h-0.8v-0.1h0.1l0,0c0.1,0,0.1,0,0.1,0l0,0l0,0
		c0,0,0-0.1,0-0.1l0,0v-2.1l0,0H15.4z M20.3-8.9l-0.1,0l0,0c0-0.2,0-0.4,0.1-0.6l0,0h2.2l0,0c0,0.2,0,0.3,0,0.4l0,0l0,0
		c0,0.1,0,0.2,0,0.2l0,0l-0.1,0l0,0c0-0.2,0-0.3,0-0.3l0,0l0,0c0-0.1,0-0.1,0-0.1l0,0l0,0c0,0-0.1,0-0.2,0l0,0h-0.4l0,0
		c-0.1,0-0.2,0-0.2,0l0,0l0,0c0,0,0,0.1,0,0.2l0,0v1.9l0,0c0,0.1,0,0.1,0,0.1l0,0l0,0c0,0,0.1,0,0.2,0l0,0h0.2l0,0.1l-1,0v-0.1h0.1
		l0,0c0.1,0,0.2,0,0.2,0l0,0l0,0c0,0,0-0.1,0-0.1l0,0v-1.9l0,0c0-0.1,0-0.2,0-0.2l0,0l0,0c0,0-0.1,0-0.1,0l0,0h-0.4l0,0
		c0,0-0.1,0-0.1,0l0,0l0,0c0,0,0,0,0,0l0,0l0,0c0,0,0,0,0,0l0,0l0,0c0,0,0,0,0,0l0,0l0,0c0,0,0,0,0,0l0,0l0,0c0,0,0,0,0,0l0,0l0,0
		c0,0,0,0,0,0.1l0,0l0,0c0,0,0,0.1,0,0.1l0,0l0,0c0,0,0,0.1,0,0.1l0,0l0,0C20.3-9,20.3-8.9,20.3-8.9L20.3-8.9L20.3-8.9
		C20.3-8.9,20.3-8.9,20.3-8.9L20.3-8.9z M24.7-8.2L24.7-8.2L24.7-8.2c0-0.2,0-0.4,0.1-0.6l0,0l0,0C24.9-9,25-9.1,25.1-9.2l0,0l0,0
		c0.1-0.1,0.3-0.2,0.4-0.3l0,0l0,0c0.2-0.1,0.3-0.1,0.5-0.1l0,0l0,0c0.2,0,0.4,0,0.6,0.1l0,0l0,0c0.2,0.1,0.4,0.3,0.5,0.5l0,0l0,0
		c0.1,0.2,0.2,0.4,0.2,0.7l0,0l0,0c0,0.2,0,0.3-0.1,0.5l0,0l0,0c-0.1,0.2-0.1,0.3-0.3,0.4l0,0l0,0C26.9-7.1,26.8-7,26.6-7l0,0l0,0
		c-0.2,0.1-0.4,0.1-0.6,0.1l0,0l0,0c-0.2,0-0.4,0-0.6-0.1l0,0l0,0C25.3-7,25.1-7.1,25-7.3l0,0l0,0c-0.1-0.1-0.2-0.3-0.2-0.4l0,0l0,0
		C24.7-7.9,24.7-8,24.7-8.2z M25.1-8.3L25.1-8.3L25.1-8.3c0,0.2,0,0.4,0.1,0.6l0,0l0,0c0.1,0.2,0.2,0.4,0.4,0.5l0,0l0,0
		C25.7-7.1,25.9-7,26.1-7l0,0l0,0c0.3,0,0.5-0.1,0.6-0.3l0,0l0,0C26.9-7.5,27-7.8,27-8.1l0,0l0,0c0-0.4-0.1-0.7-0.3-0.9l0,0l0,0
		c-0.2-0.2-0.5-0.3-0.7-0.4l0,0l0,0c-0.1,0-0.2,0-0.3,0.1l0,0l0,0c-0.1,0-0.2,0.1-0.3,0.2l0,0l0,0c-0.1,0.1-0.2,0.2-0.2,0.3l0,0l0,0
		C25.1-8.7,25.1-8.5,25.1-8.3z"/>
</g>
</svg>
