<?xml version="1.0" encoding="utf-8"?>
<!-- Generator: Adobe Illustrator 25.2.1, SVG Export Plug-In . SVG Version: 6.00 Build 0)  -->
<svg version="1.1" id="Capa_1" xmlns="http://www.w3.org/2000/svg" xmlns:xlink="http://www.w3.org/1999/xlink" x="0px" y="0px"
	 viewBox="0 0 106 30.2" style="enable-background:new 0 0 106 30.2;" xml:space="preserve">
<style type="text/css">
	.st0{display:none;}
	.st1{display:inline;}
	.st2{display:inline;fill:none;stroke:#000000;stroke-width:12;stroke-linecap:round;stroke-miterlimit:10;}
	.st3{fill:#FFC107;}
	.st4{display:none;fill:#FFFFFF;}
</style>
<g id="Capa_1_1_" class="st0">
	<g class="st1">
		<g>
			<path d="M-295.6-201.2c-0.2,0.4-0.5,0.5-0.7,0.4c0.8,1.1,1.6,2.1,2.4,3.2c3-19,18.6-33.4,29.2-48.5c-1.6-0.4-3.1-0.8-4.7-1.3
				c-1.5,19.9,11.5,39.2,24,53.5c1.2,1.3,3,0.7,3.9-0.5c15-19.8,24.4-43,38.2-63.6c-1.5-0.2-3.1-0.4-4.6-0.6
				c3.6,13.4,7,26.9,10.9,40.3c3.3,11,5.9,24.1,12.8,33.5c1.2,1.6,3.1,1.6,4.3,0c10.8-14.4,17-31.5,26-47.1c2-3.5,3.7-7.3,5.7-10.8
				c1.3-2.3,2.6-4.5,4.2-6.6c1.3-1.8,1.5-2,3.2-1c4,2.4,6.5,8.1,8.5,12c2.7,5.4,5,11,7.1,16.6c3.9,10.1,7,22.9,14.8,30.6
				c0.9,0.9,2.7,1.1,3.5,0c7.9-9.5,11.8-21.3,15.4-32.9c1.9-6,3.7-12.1,5.9-18.1c1.2-3.2,2.7-11.8,7.2-9.7c6.4,3,12,8.3,17.3,12.9
				c5.8,5.1,11.4,10.5,16.8,15.9c11.4,11.5,23.5,22.6,34.3,34.6c-0.1-1-0.3-2-0.4-3c-0.3,0.3-0.5,0.6-0.8,0.8c-2.5,2,1,5.5,3.5,3.5
				c0.8-0.6,1.1-1,1.6-1.8c0.6-1,0.4-2.2-0.4-3C-18-204.8-30.9-216.7-43.2-229c-6.3-6.3-12.8-12.3-19.6-17.9
				c-4.7-3.8-9.9-8.6-15.8-10.3c-3.2-0.9-5.7,1-7.3,3.6c-3.1,4.9-4.8,11.4-6.6,16.9c-4.7,14.3-7.9,30.3-17.7,42.1c1.2,0,2.4,0,3.5,0
				c-5-5-7.5-12.5-10-19c-2-5.1-3.8-10.3-5.9-15.4c-3.5-8.7-8.1-22.9-17.8-26.7c-4.1-1.6-6.8,2.4-8.8,5.3c-3.2,4.6-5.6,9.7-8.1,14.7
				c-8.2,16.2-15.7,33.8-26.7,48.4c1.4,0,2.9,0,4.3,0c-6.6-9.1-9.1-21.7-12.3-32.3c-4-13.3-7.3-26.8-10.9-40.3
				c-0.6-2.2-3.4-2.4-4.6-0.6c-13.8,20.6-23.1,43.8-38.2,63.6c1.3-0.2,2.6-0.3,3.9-0.5c-11.6-13.3-23.9-31.4-22.6-50
				c0.2-2.7-3.4-3.1-4.7-1.3c-10.9,15.5-26.6,30.2-29.7,49.7c-0.2,1.6,0.6,3.1,2.4,3.2c1.4,0,2.1-0.4,3.2-1
				C-290.3-198.5-292.8-202.8-295.6-201.2L-295.6-201.2z"/>
		</g>
	</g>
	<g class="st1">
		<g>
			<path d="M-74.3-199.8c-1.3,0.6-1.7,1.1-2.4,2.2c1.5,0.6,3,1.3,4.6,1.9c5.7-13.6,14.9-25.5,23.8-37.2c4.4-5.7,8.5-11.7,13.1-17.2
				c4.9-5.9,10.4-11.3,15.1-17.3c-1.2,0-2.4,0-3.5,0C-13-258.5-7.8-245-1.8-232.9c6.4,12.9,14.2,25.8,24.3,36.1c1,1,2.6,0.9,3.5,0
				c9.7-9.2,15-21.7,21.4-33.1c8-14.3,20.2-25.7,32.3-36.6c1.1-1,0.8-2.5,0-3.5c-1.5-1.9-3.2-1.9-5.5-1.3c-3.1,0.9-1.8,5.7,1.3,4.8
				c0.2,0,0.4,0,0.6,0c0-1.2,0-2.4,0-3.5c-11.3,10.1-22.7,20.8-30.8,33.7c-7.5,12.1-12.4,26.1-22.9,36c1.2,0,2.4,0,3.5,0
				C15.5-211,7.7-224.6,1.1-238c-5.8-11.7-11.1-24.3-21.3-32.9c-1-0.8-2.6-1.1-3.5,0c-4.8,6-10.1,11.5-15.1,17.3
				s-9.3,12.1-13.9,18.2C-62-223.3-71.1-211.1-77-197c-1.1,2.8,3.1,4.1,4.6,1.9c0.2-0.1,0.4-0.3,0.6-0.4
				C-68.9-196.8-71.4-201.1-74.3-199.8L-74.3-199.8z"/>
		</g>
	</g>
	<g class="st1">
		<g>
			<path d="M89.3-212.4c-1.1,0.4-2.2,0.6-3.4,0.6c0.6,1.4,1.2,2.9,1.8,4.3c11.1-12.1,22.1-24.8,36.1-33.6c-1-0.1-2-0.3-3-0.4
				c8.5,10.7,14.3,23.8,25.1,32.5c0.8,0.7,2.1,1.1,3,0.4c12.3-9.5,15.6-25.6,21.9-39.1c-0.9,0.4-1.9,0.8-2.8,1.2
				c8.3,3.3,14.2,12.4,19.5,19.1c6.5,8.2,13.6,16.3,21.4,23.3c1.3,1.2,2.9,0.8,3.9-0.5c10.1-13.3,21.4-25.6,31.6-38.8
				c-1,0.1-2,0.3-3,0.4c12.2,8.3,16.1,24.3,28.7,32.4c1.8,1.1,3.6-0.4,3.8-2.2c1.2-11.4,1.2-25,8.1-34.8c-1.1,0.3-2.3,0.6-3.4,0.9
				c12.9,6.2,23.6,16.6,34.1,26.1c4.9,4.4,13.7,15.6,21.3,11.3c3.5-1.9,6-5.9,8.3-9.1c2.9-4,5.4-8.2,8.2-12.2
				c4.4-6.1,10.8-11,15.8-16.5c2.3-2.6,4.2-5.4,6.7-7.9c1.6-1.6,2-3.6,1.8-5.8c-0.3-3.2-5.3-3.2-5,0c0.2,2.6-1.8,3.7-3.2,5.5
				c-2.2,3-4.8,5.7-7.4,8.4c-4.2,4.3-9,8.4-12.7,13.2c-4.8,6.4-8.4,15.3-15.1,19.9c-3.8,2.7-16.8-11.9-19.9-14.6
				c-9.6-8.4-18.8-17.3-30.5-22.9c-1.3-0.6-2.6-0.3-3.4,0.9c-7.4,10.5-7.4,25-8.8,37.3c1.2-0.7,2.5-1.4,3.8-2.2
				c-12.5-7.9-16.5-24-28.7-32.4c-0.8-0.6-2.4-0.4-3,0.4c-10.5,13.5-22.1,26.1-32.4,39.8c1.3-0.2,2.6-0.3,3.9-0.5
				c-8.1-7.4-15.5-15.8-22.2-24.5c-5.8-7.3-11.9-15.7-20.8-19.3c-1-0.4-2.4,0.2-2.8,1.2c-5.8,12.3-8.8,28.6-20.1,37.3
				c1,0.1,2,0.3,3,0.4c-10.7-8.7-16.6-21.9-25.1-32.5c-0.7-0.9-2.2-0.9-3-0.4c-14.4,9.1-25.8,22-37.2,34.4c-1.4,1.5-0.5,4.4,1.8,4.3
				c1.6-0.1,3.1-0.4,4.7-0.8C93.7-208.4,92.4-213.2,89.3-212.4L89.3-212.4z"/>
		</g>
	</g>
	<g class="st1">
		<g>
			<path d="M327.9-257.6c-5.8,7.4,6.8,21.4,11,26.6c4.6,5.9,9.5,11.5,14.7,16.8c3.5,3.5,7.3,7.7,11.7,9.9c1,0.5,2.3,0.5,3-0.4
				c10-11.6,17.7-24.9,26.6-37.4c2.8-3.9,6-7.3,9-11c1.8-2.2,5.2-5.8,4.1-8.9c-1-3-5.9-1.7-4.8,1.3c0.4,1.3-5.4,7.1-6.4,8.3
				c-2.9,3.4-5.6,6.9-8.2,10.6c-7.9,11.2-14.8,23.1-23.8,33.6c1-0.1,2-0.3,3-0.4c-3.3-1.7-6.1-4.6-8.7-7.1
				c-4.5-4.3-8.6-8.9-12.6-13.7s-7.9-9.8-11.2-15.2c-1-1.7-5-8.2-3.9-9.5C333.4-256.6,329.9-260.1,327.9-257.6L327.9-257.6z"/>
		</g>
	</g>
	<g class="st1">
		<g>
			<path d="M-109.7-1.7c-0.2-7.1-2.5-13.7-8.6-17.8c-5.4-3.6-12.7-3.4-18.8-2.1c-13.9,3-27.4,14.1-29.4,28.7
				c-2.6,19.4,19.2,31.8,30.7,43.6c20.3,21,4,48.9-14.5,64.6c-1.3,1.1-2.6,2.1-3.9,3.1c0.8,0,1.7,0,2.5,0c-11.1-6-11-18-13-29
				c-0.6-3.2-5.4-1.8-4.8,1.3c2.2,12.6,2.7,25.3,15.3,32c0.7,0.4,1.8,0.5,2.5,0c16.7-12.4,32.9-32.2,30.2-54.3
				c-2.4-19.5-21.1-28.8-32.9-42.3c-5.8-6.6-8.9-15-5.9-23.6c2.4-7,8.9-12.2,15.1-15.7c5.8-3.2,12.9-5.2,19.5-4
				c7.7,1.5,10.7,8.2,11,15.4C-114.6,1.5-109.6,1.6-109.7-1.7L-109.7-1.7z"/>
		</g>
	</g>
	<g class="st1">
		<g>
			<path d="M-101.3-12.1c-13.6-6.9-7.1,28.8-6.4,33.6c4.5,27.5,14.3,53.2,23.2,79.4c1,3,5.9,1.7,4.8-1.3
				c-8.3-24.5-17.5-48.5-22.3-74c-1.2-6.4-2.2-12.8-2.8-19.2c-0.3-3.5-0.5-7-0.2-10.5c0.1-1.1,0.3-2.3,0.6-3.4
				c0.3-0.9,0-0.5,0.4-0.3C-100.9-6.3-98.4-10.6-101.3-12.1L-101.3-12.1z"/>
		</g>
	</g>
	<g class="st1">
		<g>
			<path d="M-102.5,64.3C-125.1,56.2-70.6-1-62.3-9.3c-1.2-1.2-2.4-2.4-3.5-3.5c-6,7.5-13.2,14-20,20.8c-3.6,3.6-7.1,7.5-11,10.7
				c-2.3,1.8-6.6,4.7-7.2,7.7c-1.6,8.7,9.7,15.4,15.8,19.1c8.4,5.1,17.5,8.8,26.5,12.8c15.3,6.8,32,11.7,45.6,21.6
				c-0.2-1.3-0.3-2.6-0.5-3.9c-2.5,2-6.3,1.2-9.2,0.7c-3.1-0.5-4.5,4.3-1.3,4.8c5.1,0.8,9.8,1.4,14-2c1.4-1.1,0.7-3.1-0.5-3.9
				c-12.7-9.2-27.9-13.7-42.1-20c-7.8-3.5-15.6-6.8-23.2-10.7c-4.5-2.3-8.9-4.8-13-7.8c-2.9-2.1-7.2-5.5-7.3-9.4
				c0-0.7,2.7-2.7,3.2-3.1c1.8-1.7,3.7-3.1,5.4-4.8c3.2-3.2,6.5-6.4,9.7-9.6c6.3-6.3,13-12.4,18.6-19.4c2-2.5-1.2-5.9-3.5-3.5
				c-10.8,10.9-69.7,70.6-38,82C-100.8,70.3-99.5,65.4-102.5,64.3L-102.5,64.3z"/>
		</g>
	</g>
	<g class="st1">
		<g>
			<path d="M-32.8,16.7C-21.6,35-13.5,54.9,1.7,70.6c8,8.2,24.6,17.3,33.9,5.9c7.2-8.8,4.8-23.3,3-33.5c-2-11-5.2-21.9-9.4-32.2
				c-1.4,0.8-2.8,1.6-4.2,2.4c0.9,0.9,1.8,1.9,2.5,2.9c1.9,2.5,6.3,0,4.3-2.5c-1-1.4-2.1-2.6-3.3-3.9c-1.6-1.7-5.1,0-4.2,2.4
				c3.5,8.6,6.1,17.6,8.2,26.6c2.2,9.7,5,22.5,0.8,32c-1.8,4-5.2,5.9-9.4,6C15.4,76.9,8.7,70.8,3.3,65C-10.5,50.1-18,31.2-28.4,14.1
				C-30.1,11.4-34.4,13.9-32.8,16.7L-32.8,16.7z"/>
		</g>
	</g>
	<g class="st1">
		<g>
			<path d="M64-8.7L64-8.7c-0.9-0.2-1.7-0.4-2.5-0.6c10.9,13,13.8,31.8,16.6,48c1.8,10,3.5,20.1,5.2,30.2c1.1,6.7,2.3,17.7,8.9,21.6
				c7.5,4.5,17.4-3.8,23.2-7.9c6.5-4.6,17.9-14.6,24.9-5.9c2,2.5,5.5-1,3.5-3.5c-6.3-7.9-15.5-4.9-22.9-0.4
				c-4.4,2.7-8.5,5.9-12.8,8.8c-3.3,2.2-8,5.7-12.2,5c-3.1-0.5-5-6.7-5.9-9.1c-1.5-4.3-1.7-9.2-2.5-13.7c-1.8-10.7-3.6-21.4-5.5-32
				c-2.8-15.5-6.7-32.4-17-44.7c-0.6-0.7-1.6-0.8-2.4-0.6c-1.6,0.3-2.2,0.8-2.9,2.3C58.5-8.3,62.8-5.7,64-8.7L64-8.7z"/>
		</g>
	</g>
	<g class="st1">
		<g>
			<path d="M142.1-5.7c-0.2-0.3-0.4-0.7-0.6-1c-0.8-1.5-2.7-1.5-3.9-0.5c-2.3,2-1,5.4-0.8,8.1c0.4,5.2,0.6,10.4,0.9,15.6
				c0.3,7,0.5,14,0.5,21.1c0.1,12.8,0.2,26.2,5.2,38.3c5.1,12.6,16.3,19.6,29.8,19.5c7.4-0.1,14.7-2.3,21.6-4.7
				c5.1-1.7,9.8-2.3,9.4-8.9c-0.2-3.2-5.2-3.2-5,0c0.2,4-9.8,5.4-13,6.3c-6.4,1.8-13.2,2.9-19.8,1.7c-12-2.1-18.1-12.7-20.8-23.5
				c-2.5-10.1-2.3-20.8-2.3-31.1c0-5.6-0.2-11.1-0.5-16.7c-0.2-3.9-0.3-7.8-0.6-11.7c-0.1-1.2-1.4-10.1-1-10.5
				c-1.3-0.2-2.6-0.3-3.9-0.5c0.2,0.3,0.4,0.7,0.6,1C139.4-0.4,143.7-2.9,142.1-5.7L142.1-5.7z"/>
		</g>
	</g>
	<g class="st1">
		<g>
			<path d="M185.2-80.2c-1.9,0.5-3.8,0.8-5.7,0.7c0.2,1.6,0.4,3.3,0.7,4.9c10.9-4.1,22.7-5.8,34.3-6.1c11.3-0.3,25.1,0.8,33.5,9.3
				c9.6,9.8,6.6,27,5.5,39.2c-1.6,17.8,0.2,35.9,1.9,53.6c0.3,3.2,5.3,3.2,5,0c-1.8-18.7-3.4-37.5-1.7-56.3
				c1.2-13.7,2.6-29-7.2-40.1c-8.1-9.2-22.9-10.7-34.4-10.8c-12.8-0.2-26.3,1.8-38.2,6.3c-2.6,1-2.3,4.9,0.7,4.9
				c2.5,0,4.7-0.4,7.1-0.9C189.6-76.1,188.3-80.9,185.2-80.2L185.2-80.2z"/>
		</g>
	</g>
	<g class="st1">
		<g>
			<path d="M272.9,130.4c-1.5,0.9-3.2,1.2-4.8,1.8c1,0.8,2.1,1.6,3.2,2.4c-0.1-3.2,0-6.4,0-9.6c0-3.2-5-3.2-5,0c0,3.2,0,6.4,0,9.6
				c0,1.5,1.6,3,3.2,2.4c2-0.8,4.2-1.2,6-2.3C278.2,133,275.7,128.7,272.9,130.4L272.9,130.4z"/>
		</g>
	</g>
	<g class="st1">
		<path d="M-225.5-113.7c-2.3,0-2.8-2-4.7-4.8c-4.2-6.1-8-10.4-10.9-12.9l-7.9,7.6c-0.8,0.7-1.5,1.1-2.2,1.1
			c-1.6,0-4.2-3.5-10.4-9.2c-1.3,1.2-4.9,5.5-10.4,12.9c-2.5,3.3-3.5,5.3-5.7,5.3s-4.7-2.2-4.7-4.3c0-0.5,0.1-0.8,0.4-1.1
			c0.9-1.4,1.7-2.3,2-2.7l3.6-4.7c7.7-10,10.8-15.8,13.6-15.8c2.5,0,6,3.4,11.6,9.5c2.3-1.6,4.4-4.1,7.1-7c1.8-1.9,2.9-3.1,4.2-3.1
			s2.6,1.1,4.4,3.4c9.9,12.7,15.3,19.5,15.6,20.9v0.2C-219.9-116.3-222.9-113.7-225.5-113.7z"/>
		<path d="M-182.4-118.6c-2.3,0-2.8-2-4.7-4.8c-4.2-6.1-8-10.4-10.9-12.9l-7.9,7.6c-0.8,0.7-1.5,1.1-2.2,1.1
			c-1.6,0-4.2-3.5-10.4-9.2c-1.3,1.2-4.9,5.5-10.4,12.9c-2.5,3.3-3.5,5.3-5.7,5.3s-4.7-2.2-4.7-4.3c0-0.5,0.1-0.8,0.4-1.1
			c0.9-1.4,1.7-2.3,2-2.7l3.6-4.7c7.7-10,10.8-15.8,13.6-15.8c2.5,0,6,3.4,11.6,9.5c2.3-1.6,4.4-4.1,7.1-7c1.8-1.9,2.9-3.1,4.2-3.1
			s2.6,1.1,4.4,3.4c9.9,12.7,15.3,19.5,15.6,20.9v0.2C-176.8-121.2-179.8-118.6-182.4-118.6z"/>
		<path d="M-148.3-115.2c-2.3,0-2.8-2-4.7-4.8c-4.2-6.1-8-10.4-10.9-12.9l-7.9,7.6c-0.8,0.7-1.5,1.1-2.2,1.1
			c-1.6,0-4.2-3.5-10.4-9.2c-1.3,1.2-4.9,5.5-10.4,12.9c-2.5,3.3-3.5,5.3-5.7,5.3s-4.7-2.2-4.7-4.3c0-0.5,0.1-0.8,0.4-1.1
			c0.9-1.4,1.7-2.3,2-2.7l3.6-4.7c7.7-10,10.8-15.8,13.6-15.8c2.5,0,6,3.4,11.6,9.5c2.3-1.6,4.4-4.1,7.1-7c1.8-1.9,2.9-3.1,4.2-3.1
			s2.6,1.1,4.4,3.4c9.9,12.7,15.3,19.5,15.6,20.9v0.2C-142.7-117.8-145.7-115.2-148.3-115.2z"/>
		<path d="M-114.3-151.8c-7.1,6.5-10.1,11.5-13.4,11.5c-2.5,0-4.7-2-4.7-4.3c0-2.9,26.8-26.9,29.1-26.9c2.4,0,5,2.3,5,4.3
			c0,0.5-0.2,0.9-0.6,1.3C-101.5-163.7-105.1-160.3-114.3-151.8z"/>
		<path d="M-73.7-145.9c0.4,0.4,0.6,0.8,0.6,1.3c0,2-2.6,4.3-5,4.3c-2.3,0-29.1-24-29.1-26.9c0-2.3,2.2-4.3,4.7-4.3
			c3.3,0,6.3,4.9,13.4,11.5C-79.9-151.7-76.4-148.3-73.7-145.9z"/>
		<path d="M-64.1-151.8c-7.1,6.5-10.1,11.5-13.4,11.5c-2.5,0-4.7-2-4.7-4.3c0-2.9,26.8-26.9,29.1-26.9c2.4,0,5,2.3,5,4.3
			c0,0.5-0.2,0.9-0.6,1.3C-51.4-163.7-54.9-160.3-64.1-151.8z"/>
		<path d="M-23.5-145.9c0.4,0.4,0.6,0.8,0.6,1.3c0,2-2.6,4.3-5,4.3c-2.3,0-29.1-24-29.1-26.9c0-2.3,2.2-4.3,4.7-4.3
			c3.3,0,6.3,4.9,13.4,11.5C-29.7-151.7-26.2-148.3-23.5-145.9z"/>
		<path d="M-13.5-151.8c-7.1,6.5-10.1,11.5-13.4,11.5c-2.5,0-4.7-2-4.7-4.3c0-2.9,26.8-26.9,29.1-26.9c2.4,0,5,2.3,5,4.3
			c0,0.5-0.2,0.9-0.6,1.3C-0.8-163.7-4.3-160.3-13.5-151.8z"/>
		<path d="M27.1-145.9c0.4,0.4,0.6,0.8,0.6,1.3c0,2-2.6,4.3-5,4.3c-2.3,0-29.1-24-29.1-26.9c0-2.3,2.2-4.3,4.7-4.3
			c3.3,0,6.3,4.9,13.4,11.5C20.8-151.7,24.4-148.3,27.1-145.9z"/>
		<path d="M36.8-151.8c-7.1,6.5-10.1,11.5-13.4,11.5c-2.5,0-4.7-2-4.7-4.3c0-2.9,26.8-26.9,29.1-26.9c2.4,0,5,2.3,5,4.3
			c0,0.5-0.2,0.9-0.6,1.3C49.5-163.7,46-160.3,36.8-151.8z"/>
		<path d="M61.9-151.8c-7.1,6.5-10.1,11.5-13.4,11.5c-2.5,0-4.7-2-4.7-4.3c0-2.9,26.8-26.9,29.1-26.9c2.4,0,5,2.3,5,4.3
			c0,0.5-0.2,0.9-0.6,1.3C74.7-163.7,71.1-160.3,61.9-151.8z"/>
		<path d="M111.9-151.8c-7.1,6.5-10.1,11.5-13.4,11.5c-2.5,0-4.7-2-4.7-4.3c0-2.9,26.8-26.9,29.1-26.9c2.4,0,5,2.3,5,4.3
			c0,0.5-0.2,0.9-0.6,1.3C124.7-163.7,121.1-160.3,111.9-151.8z"/>
		<path d="M77.4-145.9c0.4,0.4,0.6,0.8,0.6,1.3c0,2-2.6,4.3-5,4.3c-2.3,0-29.1-24-29.1-26.9c0-2.3,2.2-4.3,4.7-4.3
			c3.3,0,6.3,4.9,13.4,11.5C71.1-151.7,74.6-148.3,77.4-145.9z"/>
		<path d="M102.4-145.9c0.4,0.4,0.6,0.8,0.6,1.3c0,2-2.6,4.3-5,4.3c-2.3,0-29.1-24-29.1-26.9c0-2.3,2.2-4.3,4.7-4.3
			c3.3,0,6.3,4.9,13.4,11.5C96.1-151.7,99.7-148.3,102.4-145.9z"/>
		<path d="M-171.2,46.2c1.2,1,1.9,1.9,1.9,3.5c0,2.5-2.8,4.7-5.6,4.7c-0.8,0-1.3-0.2-1.8-0.5c-1.1-0.8-4.8-4.9-11.9-11.3
			c-7,6.6-10.1,11.5-13.4,11.5c-2.5,0-4.7-2-4.7-4.3c0-2.9,4.5-5.9,12.1-12.6c-6.4-6.3-10.1-9.2-10.1-10.7c0-1.8,2.3-3.8,4.5-3.8
			c1.2,0,1.9,0.5,2.8,1.3c1.3,1.2,4.1,3.9,8.9,7.7c6.1-5.3,8.7-8.9,10.9-8.9c2.4,0,5,2.3,5,4.3c0,0.5-0.2,0.9-0.6,1.3
			c-2.7,2.4-5.6,5.5-9.3,8.6C-179.4,39.3-175.8,42.6-171.2,46.2z"/>
		<path d="M-281.4-81.4c-2.8,5.7-5.8,11.5-8.8,17.4c-1.7,3.3-2.5,5.2-2.9,5.6c-1.5,1.7-2.8,2-5.1,2c-4.2,0-6.1-1.5-8.5-5.8
			c-6.5-11.4-10.7-18-11.3-20.4v-0.3c0-2.8,2-4.5,5.1-4.5c1.9,0,3.4,1.2,5.1,4c3.9,6.2,5.7,12.8,9.1,17.4c1.8-3.2,4.2-8.5,7.6-15.8
			c1.5-3.2,2.6-4.9,4.8-4.9c1.9,0,4.6,1.9,4.9,4.6L-281.4-81.4z"/>
		<path d="M-253.4-79.7c-2.8,5.7-5.8,11.5-8.8,17.4c-1.7,3.3-2.5,5.2-2.9,5.6c-1.5,1.7-2.8,2-5.1,2c-4.2,0-6-1.5-8.5-5.8
			c-6.5-11.4-10.7-18-11.3-20.4v-0.3c0-2.8,2-4.5,5.1-4.5c1.9,0,3.4,1.2,5.1,4c3.9,6.2,5.7,12.8,9.1,17.4c1.8-3.2,4.2-8.5,7.6-15.8
			c1.5-3.2,2.6-4.9,4.8-4.9c1.9,0,4.6,1.9,4.9,4.6L-253.4-79.7z"/>
		<path d="M-226.4-79.7c-2.8,5.7-5.8,11.5-8.8,17.4c-1.7,3.3-2.5,5.2-2.9,5.6c-1.5,1.7-2.8,2-5.1,2c-4.2,0-6.1-1.5-8.5-5.8
			c-6.5-11.4-10.7-18-11.3-20.4v-0.3c0-2.8,2-4.5,5.1-4.5c1.9,0,3.4,1.2,5.1,4c3.9,6.2,5.7,12.8,9.1,17.4c1.8-3.2,4.2-8.5,7.6-15.8
			c1.5-3.2,2.6-4.9,4.8-4.9c1.9,0,4.6,1.9,4.9,4.6L-226.4-79.7z"/>
		<path d="M-153.6-78.4c-2.8,5.7-5.8,11.5-8.8,17.4c-1.7,3.3-2.5,5.2-2.9,5.6c-1.5,1.7-2.8,2-5.1,2c-4.2,0-14.2-20.2-15.8-20.8
			c-2.3-1-7.6,14.9-12.7,21.7c-1.9,2.6-5.6,0.9-5.9,0.3c-4-6.9,15.1-25.5,14.7-27.3v-0.3c0-2.8,2-4.5,5.1-4.5c1.9,0,3.4,1.2,5.1,4
			c3.9,6.2,5.7,12.8,9.1,17.4c1.8-3.2,4.2-8.5,7.6-15.7c1.5-3.2,2.6-4.9,4.8-4.9c1.9,0,4.6,1.9,4.9,4.6L-153.6-78.4z"/>
		<path d="M-246.8-59.1c2.8-5.7,5.8-11.5,8.8-17.4c1.7-3.3,2.5-5.2,2.9-5.6c1.5-1.7,2.8-2,5.1-2c4.2,0,6.1,1.5,8.5,5.8
			c6.5,11.4,10.7,18,11.3,20.4v0.3c0,2.8-2,4.5-5.1,4.5c-1.9,0-3.4-1.2-5.1-4c-3.9-6.2-5.7-12.8-9.1-17.4c-1.8,3.2-4.2,8.5-7.6,15.7
			c-1.5,3.2-2.6,4.9-4.8,4.9c-1.9,0-4.6-1.9-4.9-4.6L-246.8-59.1z"/>
		<path d="M-233.7-57.1c2.8-5.7,5.8-11.5,8.8-17.4c1.7-3.3,2.5-5.2,2.9-5.6c1.5-1.7,2.8-2,5.1-2c4.2,0,6.1,1.5,8.5,5.8
			c6.5,11.4,10.7,18,11.3,20.4v0.3c0,2.8-2,4.5-5.1,4.5c-1.9,0-3.4-1.2-5.1-4c-3.9-6.2-5.7-12.8-9.1-17.4c-1.8,3.2-4.2,8.5-7.6,15.7
			c-1.5,3.2-2.6,4.9-4.8,4.9c-1.9,0-4.6-1.9-4.9-4.6L-233.7-57.1z"/>
		<path d="M-334.1-62.1c2.8-5.7,5.8-11.5,8.8-17.4c1.7-3.3,2.5-5.2,2.9-5.6c1.5-1.7,2.8-2,5.1-2c4.2,0,6.1,1.5,8.5,5.8
			c6.5,11.4,10.7,18,11.3,20.4v0.3c0,2.8-2,4.5-5.1,4.5c-1.9,0-3.4-1.2-5.1-4c-3.9-6.2-5.7-12.8-9.1-17.4c-1.8,3.2-4.2,8.5-7.6,15.7
			c-1.5,3.2-2.6,4.9-4.8,4.9c-1.9,0-4.6-1.9-5-4.6L-334.1-62.1z"/>
	</g>
	<line class="st2" x1="-302.7" y1="256.5" x2="-266.5" y2="184.2"/>
	<line class="st2" x1="-266.7" y1="184.3" x2="-230.5" y2="256.6"/>
</g>
<g id="Capa_2_1_" class="st0">
	<text transform="matrix(1 0 0 1 -150.7024 11.9907)" class="st1" style="font-family:'ArialMT'; font-size:12px;"> Barceboba</text>
	<g class="st1">
		<g>
			<path d="M-141.3-40.4c-0.3,1.8-0.3,3.5-0.1,5.3c0.2,1.3,1.9,2.1,3.1,1.8c1.4-0.5,2-1.7,1.8-3.1c0.1,0.3-0.1-0.5-0.1-0.5
				c0-0.3,0-0.6,0-0.9c0-0.3,0-0.6,0-0.9c0-0.5,0,0,0.1-0.5c0.2-1.3-0.4-2.8-1.8-3.1C-139.5-42.4-141.1-41.7-141.3-40.4L-141.3-40.4
				z"/>
		</g>
	</g>
	<g class="st1">
		<g>
			<path d="M-123.3-56.9c-0.1,1.2-0.3,2.4-0.4,3.7c-0.1,0.8,1.2,0.8,1.2,0c0.1-1.2,0.3-2.4,0.4-3.7
				C-121.9-57.7-123.2-57.7-123.3-56.9L-123.3-56.9z"/>
		</g>
	</g>
	<g class="st1">
		<g>
			<path d="M-116.8-42.4c0.3-0.5,0.7-0.9,1-1.4c0,0.4-0.1,0.8-0.1,1.1c0,0.4,0,0.5,0,0.9c0,0.2,0.2,0.4,0.4,0.4
				c1,0.3,1.7-0.5,2.5-1.1c-0.3-0.1-0.6-0.1-0.9-0.2c1,1.5,0.8,1.7,2.8,1c1.3-0.4,0.1-0.3,1.4,0.3c0.3,0.1,0.7,0.1,1,0.1
				c1.6,0.2,2.6-0.4,4.1,0.8c0.6,0.5,1.5-0.4,0.9-0.9c-0.9-0.7-1.9-1.6-3.1-1.6c-1.1,0-2,0.7-2.7-0.3c-0.1-0.2-0.4-0.2-0.6-0.2
				c-1.2,0.2-1.9,1.2-2.6,0.1c-0.2-0.3-0.6-0.4-0.9-0.2s-0.7,0.5-1,0.7c-0.4,0.4-0.5,0.3-0.1-0.2c-0.1-0.4,0.2-0.9,0-1.3
				c-0.1-0.4-0.3-0.7-0.6-0.9c-1.4-0.6-2.6,1.4-2.8,2.4C-118.2-41.9-116.9-41.6-116.8-42.4L-116.8-42.4z"/>
		</g>
	</g>
	<g class="st1">
		<g>
			<path d="M-85.2-43.4c-0.1,1.8-0.2,3.6-0.1,5.4c0,0.8,1.3,0.8,1.2,0c0-1.8,0-3.6,0.1-5.4C-83.9-44.2-85.2-44.2-85.2-43.4
				L-85.2-43.4z"/>
		</g>
	</g>
	<g class="st1">
		<g>
			<path d="M-87-43.9c0.1-0.6,2.4-0.9,2.7-0.5c0.7,0.8-0.6,1.4-1.1,1.6c0.2,0.3,0.5,0.6,0.8,1c1.4-1.2,1.9,1.2,2,1.8
				c0,0.7-0.1,1.5-0.5,2.1c-0.9,1.6-2.7,2.1-4.2,1.2c-0.7-0.4-1.3,0.7-0.6,1.1c2.8,1.6,6-0.2,6.5-3.3c0.4-2.3-1.4-5.9-4-3.8
				c-0.6,0.5,0.2,1.2,0.8,1c1.4-0.6,3.3-2.6,1.2-3.7c-1.5-0.8-4.5-0.5-4.7,1.5C-88.3-43.1-87.1-43.1-87-43.9L-87-43.9z"/>
		</g>
	</g>
	<g class="st1">
		<g>
			<path d="M-78.3-39.5c-0.4-0.6-1.1-0.5-1.6-0.1c-0.8,0.8-0.8,2.1-0.6,3c0.1,0.5,0.7,0.6,1,0.3c0.9-1,1.5-2,1.9-3.2
				c-0.4-0.1-0.8-0.2-1.2-0.3c-0.3,1-0.7,2.6-0.3,3.6c0.3,0.7,1.1,0.9,1.7,0.4c0.8-0.6,1.5-1.8,1.6-2.7c0-0.1-0.1-1.1,0.4-0.8
				c0.2,0.1-0.3,2.4-0.4,2.6c0,0.3,0.3,0.6,0.6,0.6c0.5,0,0.8-0.1,1.1-0.4c0.6-0.5,0-1.5-0.6-1.1c-0.2,0.1-0.4,0.1-0.5,0.2
				c0.2,0.2,0.4,0.4,0.6,0.6c0.1-0.7,0.2-1.5,0.3-2.2c0-0.4,0.2-0.9-0.1-1.3c-0.4-0.6-1.2-0.6-1.8-0.3c-0.9,0.4-0.9,0.9-1,1.7
				c-0.1,0.4-0.2,0.8-0.5,1.1c-0.1,0.2-0.2,0.3-0.4,0.5c-0.2,0.4-0.3,0.4-0.2,0.1c-0.2-0.5,0.3-2,0.4-2.5c0.2-0.8-0.9-1.1-1.2-0.3
				c-0.4,1-0.9,1.9-1.6,2.7c0.4,0.1,0.7,0.2,1,0.3c0-0.3-0.1-1.9,0.4-1.9c-0.2-0.1-0.4-0.2-0.5-0.3l0.1,0.1
				C-79-38.1-77.9-38.8-78.3-39.5L-78.3-39.5z"/>
		</g>
	</g>
	<g class="st1">
		<g>
			<path d="M-70.8-41c-1,1-1.7,2.4-1.7,3.9s1.3,1.8,2.5,1.4c0.8-0.2,0.4-1.5-0.3-1.2c-0.4,0.1-0.7,0.3-0.9-0.2
				c-0.1-0.3,0.1-0.8,0.2-1.1c0.2-0.7,0.6-1.4,1.2-1.9C-69.4-40.7-70.2-41.5-70.8-41L-70.8-41z"/>
		</g>
	</g>
	<g class="st1">
		<g>
			<path d="M-68.4-37.1c1,0,2.5-0.8,2.4-2c-0.2-1.4-1.9-0.7-2.4,0.1s-0.5,2,0.2,2.8c0.8,0.9,2,1.1,3.1,0.8c0.8-0.2,0.5-1.4-0.3-1.2
				c-0.6,0.2-1.5,0.1-1.9-0.6c-0.1-0.2-0.2-0.5-0.1-0.8c0-0.1,0.3-0.7,0.4-0.6c-0.1-0.1-0.2-0.2-0.3-0.4c0.2,0.4-0.9,0.7-1.1,0.7
				C-69.2-38.4-69.2-37.1-68.4-37.1L-68.4-37.1z"/>
		</g>
	</g>
	<g class="st1">
		<g>
			<path d="M-61.3-45.6c-0.4,2.2-0.8,4.4-1.3,6.6c-0.1,0.6,0.6,1.1,1,0.6c0.7-0.8,2.2-0.4,1.7,0.8c-0.4,0.8-1,1.1-1.8,1.3
				c0.3,0.3,0.5,0.5,0.8,0.8c0.2-0.9,1.3-1.8,2.2-1.8c0.5,0,0.5,0.1,0.8,0.3s0.4,0.5,0.8,0.5c1,0.3,2.2-0.8,2.7-1.6
				c0.4-0.7,0.7-1.6-0.2-2.1c-1-0.6-1.9,0.3-2.4,1c-0.5,0.6,0.6,1.3,1.1,0.6c0.7-0.5,0.8-0.5,0.1,0.1c-0.2,0.5-0.6,0.6-1.1,0.5
				c-0.1,0-0.3-0.5-0.4-0.5c-0.4-0.2-0.8-0.2-1.2-0.2c-1.6,0.2-3.3,1.1-3.6,2.8c-0.1,0.5,0.3,0.9,0.8,0.8c1.7-0.4,3.7-2.2,2.9-4.2
				s-3-1.2-4,0c0.4,0.2,0.7,0.4,1,0.6c0.4-2.2,0.8-4.4,1.3-6.6C-59.9-46-61.1-46.4-61.3-45.6L-61.3-45.6z"/>
		</g>
	</g>
	<g class="st1">
		<g>
			<path d="M-50.3-44.3c-0.6,2.3-1.2,4.6-1.9,6.9c-0.2,0.7,0.8,1.1,1.1,0.5c0.2-0.4,0.3-0.8,0.6-1.1c0.2-0.2,0.4-0.4,0.6-0.6
				c-0.3,1.6,0,2,0.9,1.2c0.7-0.4,0.1-1.5-0.6-1.1c-0.8,0.4-2.2,1.5-1.1,2.4c1,0.9,2.7-0.5,3.1-1.5c0.5-1.2-0.2-2.3-1.5-2.5
				c-1.6-0.2-2.4,1.2-3,2.5c0.4,0.2,0.8,0.3,1.1,0.5c0.6-2.3,1.2-4.6,1.9-6.9C-48.9-44.7-50.1-45.1-50.3-44.3L-50.3-44.3z"/>
		</g>
	</g>
	<g class="st1">
		<g>
			<path d="M-46.5-37.7c0.8,0.3,1.5,0,2-0.7c0.3-0.4-0.1-0.9-0.5-0.9c-1.4,0-2.4,0.8-2.9,2c-0.2,0.5,0.5,0.9,0.9,0.7
				c1.1-0.6,2-1.4,2.8-2.5c0.4-0.6-0.5-1.3-1-0.8c-0.6,0.7-0.7,1.7,0,2.5c0.9,1,2.3,0.7,3.5,0.4c0.8-0.2,0.5-1.4-0.3-1.2
				c-0.4,0.1-0.7,0.2-1.1,0.2c-0.3,0-2-0.1-1.2-1c-0.3-0.2-0.6-0.5-1-0.8c-0.6,0.9-1.4,1.5-2.3,2c0.3,0.2,0.6,0.5,0.9,0.7
				c0.3-0.8,0.9-1.1,1.7-1.1c-0.2-0.3-0.4-0.6-0.5-0.9c-0.2,0-0.4,0.1-0.5,0.1C-46.9-39.2-47.2-38-46.5-37.7L-46.5-37.7z"/>
		</g>
	</g>
	<g class="st1">
		<g>
			<path d="M-80.9-51.8c0,0.7-0.1,1.5-0.1,2.2c-0.1,0.8,1.2,0.8,1.2,0c0-0.7,0.1-1.5,0.1-2.2C-79.6-52.6-80.8-52.6-80.9-51.8
				L-80.9-51.8z"/>
		</g>
	</g>
	<g class="st1">
		<g>
			<path d="M-81.7-53.4c0.9-1,1.9-1.6,3.2-1.9c-0.2-0.4-0.4-0.7-0.6-1c-0.3,0.4-0.6,0.7-1,1.1c-0.4,0.5,0,1.1,0.6,1s1.6-0.3,2.2-0.1
				c1.2,0.4,1.3,1.5,1.2,2.5c-0.2,1.8-1.7,2.9-3.5,3c-0.8,0-0.8,1.3,0,1.2c2.6,0,4.8-1.9,4.8-4.6c0-1-0.3-2.3-1.2-3
				c-1-0.7-2.8-0.4-3.9-0.2c0.2,0.4,0.4,0.7,0.6,1c0.3-0.4,0.6-0.7,1-1.1c0.4-0.5,0-1.2-0.6-1c-1.5,0.4-2.7,1.1-3.8,2.2
				C-83.2-53.7-82.3-52.8-81.7-53.4L-81.7-53.4z"/>
		</g>
	</g>
	<g class="st1">
		<g>
			<path d="M-67.4-55.3c0,1,0,1.9,0,2.9c0,0.8,1.2,0.8,1.2,0c0-1,0-1.9,0-2.9C-66.2-56.1-67.4-56.1-67.4-55.3L-67.4-55.3z"/>
		</g>
	</g>
	<g class="st1">
		<g>
			<path d="M-53.2-58.4c0.3,0.1,0.6,0.2,1,0.3c0-0.3,0-0.6,0-0.9c-0.5,0.5-1,1-1.5,1.4s0,1.2,0.6,1c1.9-0.5,3.8-0.4,4.7,1.5
				c0.8,1.7,0.2,3.7-1.5,4.5c-2.2,1-5.2,1.1-7.5,0.2c-0.7-0.3-1.1,0.9-0.3,1.2c3,1.2,9.6,1.2,10.7-2.7c1.2-4.4-2.5-6.9-6.4-5.8
				c0.2,0.4,0.4,0.7,0.6,1c0.5-0.5,1-1,1.5-1.4c0.2-0.2,0.2-0.6,0-0.9c-0.9-0.9-2.2-1.4-2.9,0C-54.7-58.3-53.6-57.7-53.2-58.4
				L-53.2-58.4z"/>
		</g>
	</g>
	<g class="st1">
		<g>
			<path d="M-102.3-3.6c1,0,3.3,0,1.8,1.3c-0.5,0.4,0,1.2,0.6,1c1.8-0.5,2.1,1.9,2,3c0,1.5-0.6,2.5-2,3.1c-1.9,0.8-3.5-0.9-5.1-1.6
				c-0.7-0.3-1.4,0.8-0.6,1.1c1.6,0.7,3.1,2.2,4.9,2.1c1.6,0,3-1.2,3.6-2.7c1-2.4,0.2-7.1-3.2-6.2c0.2,0.4,0.4,0.7,0.6,1
				C-99-2-97.9-3-98.5-4s-2.9-1-3.9-1C-103.1-4.9-103.1-3.6-102.3-3.6L-102.3-3.6z"/>
		</g>
	</g>
	<g class="st1">
		<g>
			<path d="M-82.7-5c1.7-0.2,3.3,0,4.8,0.8c0-0.4,0-0.7,0-1.1c-0.7,0.5-1.4,0.9-2.2,1.1C-80.9-4-80.6-2.8-79.8-3
				c1.4-0.2,2.9,0.7,2.9,2.2c0,0.8-0.6,1.6-1.2,2.1c-0.7,0.6-3.4,2-4.1,0.7c-0.4-0.7-1.5-0.1-1.1,0.6c1.4,2.7,6.1,0.3,7.2-1.6
				c1.6-2.9-0.9-5.8-3.9-5.2c0.1,0.4,0.2,0.8,0.3,1.2c1-0.3,1.7-0.6,2.5-1.2c0.4-0.3,0.5-0.8,0-1.1c-1.7-0.9-3.5-1.2-5.5-1
				C-83.5-6.1-83.5-4.9-82.7-5L-82.7-5z"/>
		</g>
	</g>
	<g class="st1">
		<g>
			<path d="M-184.8-14.9c0.8,0,0.8-1.2,0-1.2C-185.6-16.2-185.6-14.9-184.8-14.9L-184.8-14.9z"/>
		</g>
	</g>
	<g class="st1">
		<g>
			<path d="M-184.3-15.6C-184.3-15.6-184.2-15.7-184.3-15.6c-0.1,0-0.3,0.1-0.5,0.2c0.1,0,1,1.2,1.1,1.4c0.4,0.5,0.9,1,1.3,1.5
				s0.9,1,1.3,1.5c0.2,0.2,1.2,1.1,1.2,1.3c0.1-0.2,0.3-0.4,0.5-0.6h-0.1c0.2,0,0.4,0.1,0.6,0.2c0,0-0.1,0-0.1-0.1
				c0,0.2,0.1,0.5,0.1,0.8c0,0,0,0,0-0.1c0.3-0.7-0.8-1.4-1.1-0.6c0,0,0,0,0,0.1c-0.1,0.2-0.1,0.6,0.1,0.8c0.2,0.2,0.4,0.3,0.8,0.2
				c0.3-0.1,0.4-0.3,0.5-0.6c0-0.5-0.4-0.9-0.7-1.3c-0.7-0.8-1.4-1.6-2.1-2.4c-0.6-0.8-1.3-1.5-1.9-2.2c-0.4-0.5-0.7-1-1.4-1
				c-0.2,0-0.4,0.1-0.5,0.3c0,0,0,0.1-0.1,0.1C-185.7-15.5-184.6-14.9-184.3-15.6L-184.3-15.6z"/>
		</g>
	</g>
	<g class="st1">
		<g>
			<path d="M-186.9-15.2c1.2-2.5,2.9-4.6,5.1-6.4c-0.4-0.1-0.7-0.3-1.1-0.4c0.2,2-1.2,4-2.1,5.6c0.4,0.2,0.7,0.4,1.1,0.6
				c0.5-0.8,1.4-2.8,2.3-3.1c0.6,0.2,1.2,0.3,1.8,0.5c0.2,1,0.1,1.9-0.2,2.9c-0.6,1.9-1.8,3.7-2.8,5.4c-0.4,0.7,0.7,1.3,1.1,0.6
				c1.5-2.5,5-7.4,2.6-10.4c-2.1-2.6-4.9,1.9-5.8,3.5c-0.4,0.7,0.7,1.3,1.1,0.6c1.1-1.8,2.5-4,2.3-6.2c-0.1-0.6-0.6-0.8-1.1-0.4
				c-2.3,1.8-4,4-5.3,6.6C-188.3-15.1-187.2-14.5-186.9-15.2L-186.9-15.2z"/>
		</g>
	</g>
	<g class="st1">
		<g>
			<path d="M-176-9.3c0-1.5,0-2.9,0.1-4.4c0.1-1.2-0.1-3.8,0.9-4.7c-0.3,0-0.6-0.1-1-0.1c2.1,3.5,2.1,8.7,2.6,12.6
				c0.1,0.8,1.4,0.8,1.2,0c-0.1-0.6-0.1-0.7-0.4-1.2c-0.4-0.7-1.5-0.1-1.1,0.6c0.1,0.2,0.1,0.4,0.2,0.6c0.4,0,0.8,0,1.2,0
				c-0.6-4.2-0.6-9.5-2.8-13.3c-0.2-0.4-0.7-0.4-1-0.1c-0.9,0.8-0.8,2.1-1,3.1c-0.3,2.3-0.4,4.5-0.4,6.8C-177.3-8.5-176-8.5-176-9.3
				L-176-9.3z"/>
		</g>
	</g>
	<g class="st1">
		<g>
			<path d="M-175.8-12.6C-175.9-12.6-175.9-12.6-175.8-12.6c0.1,0.1,0.2,0.3,0.4,0.4c-0.2,0.4-0.2,0.5,0.1,0.4c0.1,0,0.2,0,0.3,0
				c0.2,0,0.4,0,0.7,0.1c0.8,0.2,1.1-1,0.3-1.2c-0.6-0.2-1.6-0.3-2.2,0.1c-0.6,0.4-0.6,1.2,0.1,1.4
				C-175.4-11.2-175.1-12.4-175.8-12.6L-175.8-12.6z"/>
		</g>
	</g>
	<g class="st1">
		<g>
			<path d="M-171.3-18.6c0.3,1,0.2,2.4,0.3,3.4c0,1.2,0.1,2.4,0.2,3.5c0.4-0.1,0.8-0.1,1.2-0.2c-0.1-0.3-0.2-0.5-0.3-0.8
				c-0.3-0.8-1.5-0.4-1.2,0.3c0.1,0.3,0.2,0.5,0.3,0.8c0.2,0.6,1.3,0.6,1.2-0.2c-0.2-1.4-0.2-2.7-0.3-4.1c0-1,0-2.2-0.3-3.2
				C-170.3-19.7-171.5-19.4-171.3-18.6L-171.3-18.6z"/>
		</g>
	</g>
	<g class="st1">
		<g>
			<path d="M-171.3-19.5c-0.1-0.2-0.3-0.4-0.4-0.6c-0.1,0.3-0.1,0.6-0.2,0.9c0.5-0.4,3.6-0.3,1.2,0.5c-0.6,0.2-0.6,1,0,1.2
				c1.9,0.6,3.2,3,4.2,4.5s1.8,3.1,2.6,4.7c0.3-0.3,0.6-0.6,0.9-0.9c-0.1-0.1-0.3-0.1-0.4-0.2c-0.7-0.4-1.4,0.7-0.6,1.1
				c0.1,0.1,0.3,0.1,0.4,0.2c0.6,0.3,1.1-0.3,0.9-0.9c-1.1-2.3-2.4-4.5-3.9-6.6c-1-1.4-2-2.7-3.6-3.2c0,0.4,0,0.8,0,1.2
				c1.1-0.4,3-1.1,2-2.5c-0.9-1.4-3.1-1.1-4.2-0.3c-0.2,0.2-0.4,0.6-0.2,0.9c0.1,0.2,0.3,0.4,0.4,0.6
				C-171.9-18.2-170.8-18.9-171.3-19.5L-171.3-19.5z"/>
		</g>
	</g>
	<g class="st1">
		<g>
			<path d="M-159.3-22.8c-3.3,4.6-1,10.4,0.4,15.3c0.2,0.8,1.4,0.4,1.2-0.3c-1.3-4.6-3.6-10-0.6-14.4
				C-157.8-22.8-158.9-23.4-159.3-22.8L-159.3-22.8z"/>
		</g>
	</g>
	<g class="st1">
		<g>
			<path d="M-155.2-21.6c-0.4,0.9-2.5,7.7,0.7,6.1c-0.3-0.3-0.6-0.6-0.9-0.9c-2.3,3,0.1,7.3,1.2,10.4c0.3,0.8,1.5,0.4,1.2-0.3
				c-0.9-2.7-3.2-6.8-1.3-9.4c0.4-0.5-0.4-1.1-0.9-0.9c-0.7,0.4,1.1-4.5,1-4.4C-153.8-21.6-154.9-22.3-155.2-21.6L-155.2-21.6z"/>
		</g>
	</g>
	<g class="st1">
		<g>
			<path d="M-152.8-21.9c1.1,5.2,2.1,10.4,2.9,15.6c0.1,0.8,1.3,0.5,1.2-0.3c-0.8-5.2-1.8-10.4-2.9-15.6
				C-151.8-23-153-22.7-152.8-21.9L-152.8-21.9z"/>
		</g>
	</g>
	<g class="st1">
		<g>
			<path d="M-151.4-22.5c0.6,1,0.7,2.2,0.2,3.4c-0.1,0.8-0.3,1.6-0.6,2.3c-0.2,0.7,0.8,1.1,1.1,0.5c2.2-0.4,3.4,0.5,3.5,2.5
				c0.2,0.8,0.4,1.7,0.5,2.5c0.3,2.2,0.6,6.1-1.8,7.4c-0.7,0.4-0.1,1.4,0.6,1.1c3.9-2,2.9-9.3,1.5-12.5c-0.9-2.1-3.8-4.7-5.4-1.6
				c0.4,0.2,0.8,0.3,1.1,0.5c0.4-1.6,2-6.2,0-7.4c-1.2-0.8-2.2,0.1-2.1,1.4C-152.6-21.7-151.4-21.7-151.4-22.5L-151.4-22.5z"/>
		</g>
	</g>
	<g class="st1">
		<g>
			<path d="M-140.5-10.5c-0.9,0.7-1.2,2.1-0.8,3.2c0.5,1.2,2,2,3,1c2.1-1.9,0.2-6.5-2.7-4.9c-0.7,0.4-0.1,1.5,0.6,1.1
				c1.6-0.9,2.2,1.8,1.4,2.8c-0.6,0.7-1.2-0.3-1.3-0.8c-0.1-0.6,0.2-1.1,0.6-1.4C-139-10.1-139.9-11-140.5-10.5L-140.5-10.5z"/>
		</g>
	</g>
	<g class="st1">
		<g>
			<path d="M-134.1-14.8c0.3,2.8,0.8,5.6,1.4,8.3c0.1,0.5,0.9,0.6,1.1,0.1c0.2-0.5,0.1-0.4,0.5-0.5c0.7,0.1,0.6,0.6-0.3,1.4
				c0,1.2-0.5,1.7-1.4,1.3c-0.8-0.1-0.8,1.2,0,1.2c2.6,0.2,4.5-1,3.4-3.8c-0.2-0.6-0.9-2-1.8-2c-1,0-1.2,1-1.5,1.7
				c0.4,0,0.8,0.1,1.1,0.1c-0.6-2.6-1.1-5.3-1.4-8C-133-15.6-134.2-15.6-134.1-14.8L-134.1-14.8z"/>
		</g>
	</g>
	<g class="st1">
		<g>
			<path d="M-124.4-7.2c0-0.6,0.1-1.3,0.4-1.8c0.3-0.7,0.5-1.1,0.8-0.1c0.3,1.3,0.5,2.5,0.5,3.8c0.4-0.1,0.8-0.1,1.2-0.2
				c-0.6-2.2-3.1-0.9-4.2-0.1c-0.4,0.3-0.4,1,0.1,1.1c1,0.3,2.1,0.2,3.1-0.2c0.7-0.3,0.4-1.5-0.3-1.2c-0.8,0.3-1.5,0.4-2.4,0.2
				c0.1,0.4,0.1,0.8,0.1,1.1c0.3-0.2,2.1-1.6,2.4-0.7c0.2,0.7,1.3,0.5,1.2-0.2c-0.1-1.3-0.2-2.5-0.5-3.8c-0.2-0.7-0.3-1.9-1.2-2.1
				c-1.8-0.5-2.5,2.8-2.5,4C-125.6-6.4-124.4-6.4-124.4-7.2L-124.4-7.2z"/>
		</g>
	</g>
	<g class="st1">
		<g>
			<path d="M-133.8-4.4c-0.9,0-1.1-1.1-1.2-1.8c-0.1-0.4-0.1-0.9,0-1.3c0.1-0.1,0.1-0.2,0.1-0.4c0.4-0.3,0.5-0.4,0.2-0.4
				c-0.1-0.2-0.3-0.4-0.5-0.6c0,0,0,0,0,0.1c0,0.8,1.3,0.8,1.2,0c0,0,0,0,0-0.1c0-0.3-0.2-0.5-0.5-0.6c-2.6-0.7-2.9,6.4,0.5,6.3
				C-133-3.1-133-4.4-133.8-4.4L-133.8-4.4z"/>
		</g>
	</g>
	<g class="st1">
		<g>
			<path d="M-175.1-55.1c-0.4-2.7-4.2,0-4.7,1.5c-1.4,3.9,3.2,6.4,6.4,5.3c3.1-1.1,6.3-6.6,3-9.1c-2.2-1.7-4.6,0.1-4,2.7
				c0.2,0.7,1.2,0.5,1.2-0.2c-0.1-9.3-0.3-18.6-0.5-27.9c0-0.8-1.3-0.8-1.2,0c0.2,9.3,0.4,18.6,0.5,27.9c0.4-0.1,0.8-0.1,1.2-0.2
				c-1,0.1-2,0.2-3.1,0.4C-176.2-54-175-54.3-175.1-55.1L-175.1-55.1z"/>
		</g>
	</g>
	<g class="st1">
		<g>
			<path d="M-163.4-48.7c-1.4,0.6-2.6,2.4-1.9,3.9c0.3,0.6,0.5,0.7,1.1,0.9c0.2,0.1,0.5-0.2,0.8-0.2c2.4,0.5,0.6,2.8-0.3,3.5
				c-0.4,0.4-0.1,1.1,0.4,1.1c-0.2,0.6-0.6,0.8-1.1,0.5c-0.8-0.1-0.8,1.2,0,1.2c1,0.1,3,0.1,3.3-1.2s-1.2-1.7-2.1-1.8
				c0.1,0.4,0.3,0.7,0.4,1.1c1.4-1.1,2.4-3.1,1.5-4.9c-0.3-0.5-0.6-0.9-1.2-1c-0.2,0-0.9,0.2-1,0.1c-1.3-0.5,0-1.8,0.8-2.2
				C-162.1-47.9-162.7-49-163.4-48.7L-163.4-48.7z"/>
		</g>
	</g>
	<g class="st1">
		<g>
			<path d="M-173.5,54.8c-0.4,1-0.4,2.1-0.1,3.2c0.2,0.8,1.4,0.4,1.2-0.3c-0.2-0.9-0.2-1.7,0.1-2.5C-172.1,54.3-173.3,54-173.5,54.8
				L-173.5,54.8z"/>
		</g>
	</g>
	<g class="st1">
		<g>
			<path d="M-176.1,52.5c1.6-1.8,3.3-2.9,5.7-3.4c-0.3-0.3-0.5-0.5-0.8-0.8c-0.3,0.5-0.5,1-0.8,1.5c-0.4,0.4-0.1,1,0.4,1.1
				c6.1,0.8,5.8,8.1,1.7,11.2c-0.6,0.5,0,1.6,0.6,1.1c5.1-3.9,5-12.6-2.4-13.5c0.1,0.4,0.3,0.7,0.4,1.1c0.6-0.7,0.9-1.2,1.1-2
				c0.1-0.5-0.3-0.9-0.8-0.8c-2.5,0.6-4.5,1.8-6.2,3.7C-177.5,52.2-176.6,53.1-176.1,52.5L-176.1,52.5z"/>
		</g>
	</g>
	<g class="st1">
		<g>
			<path d="M-158.7,61.4c0.4-2.4,1.4-4.6,2.9-6.6c0.3-0.4,0.7-1,1.1-1.2c1.5-1,1.7-0.2,2.2,0.8c0.6,1.1,1,2.4,1.3,3.7
				c0.2,0.8,1.4,0.5,1.2-0.3c-0.4-1.9-1.8-7.3-4.7-5.7c-1.3,0.7-2.4,2.3-3.1,3.6c-1,1.7-1.7,3.6-2,5.5
				C-160,61.8-158.8,62.2-158.7,61.4L-158.7,61.4z"/>
		</g>
	</g>
	<g class="st1">
		<g>
			<path d="M-158.1,55.9L-158.1,55.9c0.1,0.1,0.4,0.1,0.6,0.2c0,0,0,0-0.1,0c0.1,0.1,0.1,0.3,0.2,0.4c0,0,0,0,0-0.1
				c-0.1,0.1-0.1,0.3-0.2,0.4c-0.1,0.1,0.3,0,0.3,0c0.2,0,0.3,0,0.5,0c0.4,0,0.7-0.1,1-0.1c0.8-0.1,0.8-1.3,0-1.2
				c-0.4,0-0.9,0.1-1.3,0.1c-0.4,0-0.9,0-1.3,0.2c-0.6,0.4-0.2,1.6,0.6,1.3C-157,56.8-157.3,55.6-158.1,55.9L-158.1,55.9z"/>
		</g>
	</g>
	<g class="st1">
		<g>
			<path d="M-145.5,51c-0.8,0.7-0.2,1.9,0,2.8c0.4,1.6,0.7,3.3,1.1,4.9c0.2,0.8,1.4,0.5,1.2-0.3c-0.2-1.1-0.5-2.2-0.7-3.3
				c-0.1-0.3-0.9-3-0.7-3.2C-144,51.3-144.9,50.4-145.5,51L-145.5,51z"/>
		</g>
	</g>
	<g class="st1">
		<g>
			<path d="M-148,49.4c1.6-1,4.5-0.1,5.7,1.2s0.9,2.9-0.6,3.7c-0.4,0.2-0.4,0.9,0,1.1c3.9,1.8,7.1,4.5,9.5,8.1
				c0.4,0.7,1.5,0,1.1-0.6c-2.5-3.8-5.8-6.6-9.9-8.5c0,0.4,0,0.7,0,1.1c2.2-1.1,4.1-2.4,1.8-4.8c-1.9-2-5.6-3.9-8.2-2.2
				C-149.3,48.7-148.7,49.8-148,49.4L-148,49.4z"/>
		</g>
	</g>
	<g class="st1">
		<g>
			<path d="M-125.5,49.9c0.8,0,0.8-1.2,0-1.2C-126.3,48.6-126.3,49.9-125.5,49.9L-125.5,49.9z"/>
		</g>
	</g>
	<g class="st1">
		<g>
			<path d="M-125.8,48.6c-3.2,2.1-3.9,6.6-2.8,10c1.2,3.8,4.4,6.4,8.3,7.1c0.8,0.1,1.1-1,0.3-1.2c-2.8-0.5-5.3-2-6.7-4.6
				c-1.7-3.1-1.7-8.1,1.5-10.3C-124.5,49.3-125.2,48.2-125.8,48.6L-125.8,48.6z"/>
		</g>
	</g>
	<g class="st1">
		<g>
			<path d="M-118.4,47.8c-0.1,0.7,0,1,0.4,0.8c0.2,0,0.4-0.1,0.5-0.1c0.4-0.1,0.9-0.2,1.3-0.2c0.8-0.1,1.6,0,2.4,0.1
				s1.1-1.1,0.3-1.2c-1.6-0.2-3.6-0.3-5.1,0.3c-0.8,0.3-0.9,1.7,0.1,1.6C-117.7,49-117.6,47.7-118.4,47.8L-118.4,47.8z"/>
		</g>
	</g>
	<g class="st1">
		<g>
			<path d="M-119.6,53.8c1.9-0.7,3.9-0.7,5.8,0.1c0.7,0.3,1.4-0.7,0.6-1.1c-2.2-1-4.5-1.1-6.7-0.3
				C-120.7,52.8-120.4,54.1-119.6,53.8L-119.6,53.8z"/>
		</g>
	</g>
	<g class="st1">
		<g>
			<path d="M-119.2,60.5c1.6-0.4,3.2-0.2,4.7,0.4c0.7,0.3,1.1-0.9,0.3-1.2c-1.7-0.7-3.6-0.8-5.4-0.4
				C-120.3,59.5-120,60.7-119.2,60.5L-119.2,60.5z"/>
		</g>
	</g>
	<g class="st1">
		<g>
			<path d="M-105.5,53.1c0.1,2.2,0.4,4.4,0.7,6.5c0.1,0.8,1.3,0.5,1.2-0.3c-0.3-2.1-0.5-4.1-0.7-6.2
				C-104.3,52.3-105.5,52.3-105.5,53.1L-105.5,53.1z"/>
		</g>
	</g>
	<g class="st1">
		<g>
			<path d="M-107,49.1c2.4-1.4,3.7-0.8,4,2c-0.6,0.2-0.6,1.3,0.2,1.2c5-0.6,6.5,5.7,5.8,9.6c-0.6,3.6-2.6,6.6-6.4,7.4
				c-0.8,0.2-0.5,1.4,0.3,1.2c9.1-1.9,10.8-20.6,0.2-19.4c0.1,0.4,0.1,0.8,0.2,1.2c4.8-1.9-2.5-8-5.4-3.8
				C-108.5,49.2-107.4,49.8-107,49.1L-107,49.1z"/>
		</g>
	</g>
	<g class="st1">
		<g>
			<path d="M-85.8,60.4c0.1-0.2,0.2-0.3,0.2-0.6c0-0.4-0.1-0.6-0.4-0.8c-2.4-0.9-4,2.4-3.7,4.4c0.3,2.4,2.9,3.5,4.9,2.2
				c1.7-1.1,2.8-4,1.2-5.7c-1.8-1.8-5.1-1.3-7.2-0.3c-0.7,0.4-0.1,1.4,0.6,1.1c1.9-1,7.3-1.3,5.8,2.4c-0.6,1.4-2.2,2.6-3.5,1.3
				c-1.1-1.1-0.4-4.9,1.6-4.2c-0.1-0.3-0.3-0.5-0.4-0.8c0,0.1-0.1,0.2-0.1,0.3C-87.3,60.5-86.3,61.1-85.8,60.4L-85.8,60.4z"/>
		</g>
	</g>
	<g class="st1">
		<g>
			<path d="M-87,62.4C-87,62.4-86.9,62.5-87,62.4c0.1,0.2,0.1,0.4,0.1,0.6v-0.1c0.2-0.8-1-1.1-1.2-0.3c-0.1,0.4,0,0.8,0.4,0.9
				C-86.9,63.8-86.3,62.8-87,62.4L-87,62.4z"/>
		</g>
	</g>
	<g class="st1">
		<g>
			<path d="M-75.4,49.5c1.6,1.5,1.8,2.8,0.6,3.8c-0.2,0.2-0.2,0.5-0.1,0.8c1.3,2.2,3,3.5,3.6,6.2c0.4,1.8,0,13.1-5.2,9.5
				c-0.7-0.5-1.3,0.6-0.6,1.1c6.3,4.4,8-8.4,6.7-12.1c-0.5-1.5-1.7-2.5-2.2-3.9c-1-2.3,0.4-1.5,0.6-3.7s-1.7-3.4-3.7-2.9
				C-76.5,48.5-76.2,49.7-75.4,49.5L-75.4,49.5z"/>
		</g>
	</g>
	<g class="st1">
		<g>
			<path d="M-65.4,66.3c0.2-1.2,0.6-3.8,1.6-4.5c1.1-0.8,2.7-0.7,3.5,0.2c0.4,0.5,0.7,1,1.1,1.4c1.6,2,3.4,2.2,5.4,3.6
				c0-0.4,0.1-0.8,0.1-1.1c-1.9,0.4-4.9-1.1-6.6-1.9c-2.2-0.9-4.2-2.1-6.2-3.5c0,0.4-0.1,0.8-0.1,1.1c0.1,0,0.2-0.1,0.4-0.1
				c0.8-0.2,0.4-1.4-0.3-1.2c-0.1,0-0.2,0.1-0.4,0.1c-0.5,0.2-0.6,0.8-0.1,1.1c2.3,1.6,4.7,3,7.3,4c1.9,0.7,4.5,2,6.5,1.5
				c0.6-0.1,0.6-0.9,0.1-1.1c-1.8-1.2-3.7-1.6-5.2-3.4c-0.9-1.1-1.9-2.9-3.4-3.3c-3.2-0.9-4.6,4.5-5,6.6
				C-66.7,66.7-65.5,67.1-65.4,66.3L-65.4,66.3z"/>
		</g>
	</g>
</g>
<text transform="matrix(1 0 0 1 -190.5253 -2.9351)" style="display:none;enable-background:new    ; font-family:'ArialMT'; font-size:35px;">Barceboba</text>
<path class="st0" d="M70.5-91.1c-1.7,0-17.4,13.7-25,21.6c-2.5-2.3-5.8-5.4-11-10.2c-7.1-6.5-10.1-11.5-13.4-11.5
	c-0.1,0-0.1,0-0.2,0s-0.2,0-0.4,0c-0.1,0-0.2,0-0.3,0.1c-1.3,0.2-2.4,1-3.1,2.1c-2.4,1.8-5.8,4.7-9.3,7.8C1.9-86.9-1-91.1-4-91.1
	c-0.1,0-0.2,0-0.3,0c-0.1,0-0.3,0-0.4,0S-5-91-5.2-90.9c-1.1,0.3-2.1,0.9-2.7,1.8C-13.3-85-24-75.5-29.8-69.4
	c-2.5-2.3-5.9-5.4-11.1-10.2C-48-86.1-51-91.1-54.3-91.1c-0.1,0-0.2,0-0.3,0s-0.3,0-0.4,0c-0.1,0-0.3,0.1-0.5,0.2
	c-1.1,0.3-2.1,0.9-2.7,1.8c-5.5,4.1-16.3,13.8-22,19.9c-2.5-2.3-5.9-5.5-11.3-10.4c-7.1-6.5-10.1-11.5-13.4-11.5c-0.1,0-0.2,0-0.3,0
	c-0.1,0-0.3,0-0.4,0s-0.3,0.1-0.5,0.2c-1.1,0.3-2.1,0.9-2.7,1.8c-5.4,4.1-16,13.6-21.9,19.7c-2.5-2.3-5.9-5.4-11.1-10.2
	c-7.1-6.5-10.1-11.5-13.4-11.5c-0.1,0-0.2,0-0.3,0s-0.3,0-0.4,0c-0.1,0-0.3,0.1-0.5,0.2c-1.1,0.3-2.1,0.9-2.7,1.8
	c-7.7,5.8-25.9,22.5-25.9,24.9c0,2.3,2.2,4.3,4.7,4.3c3.3,0,6.3-4.9,13.4-11.5c5.2-4.8,8.6-8,11.1-10.2c5.8,6.1,16.3,15.5,21.7,19.6
	c0.7,1,1.7,1.7,3,2c0.1,0.1,0.3,0.1,0.4,0.1c0.1,0,0.3,0,0.4,0c0.1,0,0.2,0,0.2,0c3.3,0,6.3-4.9,13.4-11.5c5.2-4.8,8.6-8,11.1-10.2
	c6.2,6.5,17.8,16.8,22.8,20.4c0.3,0.3,0.7,0.6,1.1,0.8c0.5,0.3,1,0.5,1.1,0.5c0.2,0,0.4,0,0.5,0c0.2,0,0.3,0,0.5,0
	c3.3,0,6.3-4.9,13.4-11.5c5.2-4.8,8.6-8,11.1-10.2C-49-75.5-38.4-66-33-61.9c0.6,0.9,1.6,1.6,2.8,1.9c0.2,0.1,0.4,0.1,0.5,0.1
	s0.3,0,0.4,0s0.2,0,0.3,0c3.3,0,6.3-4.9,13.4-11.5c5.2-4.8,8.6-8,11.1-10.2c1.7,1.8,3.9,3.9,6.2,6.1C-3.9-70.2-8.6-65.4-8.6-64.1
	c0,2.3,2.2,4.3,4.7,4.3c3,0,5.8-4.2,11.7-9.9c6,5.4,11.7,9.9,12.6,9.9c2.4,0,5-2.3,5-4.3c0-0.5-0.2-0.9-0.6-1.3
	c-2.2-1.9-5-4.5-11-10c2.8-2.6,4.9-4.5,6.6-6.1c5.7,6,16.1,15.3,21.6,19.5c0.7,1,1.8,1.8,3.1,2.1c0.1,0,0.2,0.1,0.3,0.1s0.2,0,0.4,0
	c0.1,0,0.1,0,0.2,0c3.3,0,6.3-4.9,13.4-11.5c9.2-8.4,12.7-11.8,15.5-14.2c0.4-0.4,0.6-0.8,0.6-1.3C75.5-88.8,72.9-91.1,70.5-91.1z"
	/>
<path class="st0" d="M-228.4-249.7c-0.4-1.6-6.2-2.1-10.9-0.8c-1.6,0.4-9,5.4-17.7,11.6c0.1,0-18.1,13.1-25.1,18.6
	c-3.5,2.8,2.1,5.6,7,4.3c6.4-1.8,10.7-5.9,23.2-15.2c3.7-2.8,6.9-5.1,9.6-7.2c-0.1,0,9.8-7.6,12.9-9.8
	C-228.6-248.8-228.3-249.2-228.4-249.7z"/>
<path class="st0" d="M-184.6-260.5c-0.4,1.6-6.2,2.1-10.9,0.8c-1.6-0.5-9-5.4-17.7-11.6c0.1,0-18.1-13.1-25.1-18.6
	c-3.5-2.8,2.1-5.6,7-4.3c6.4,1.8,10.7,5.9,23.2,15.2c3.7,2.8,6.9,5.1,9.6,7.2c-0.1,0,9.8,7.6,12.9,9.8
	C-184.8-261.4-184.5-260.9-184.6-260.5z"/>
<path class="st0" d="M-183.7-217.3c-0.4,1.6-6.2,2.1-10.9,0.8c-1.6-0.4-9-5.4-17.7-11.6c0.1,0-18.1-13.1-25.1-18.6
	c-3.5-2.8,2.1-5.6,7-4.3c6.4,1.8,10.7,5.9,23.2,15.2c3.7,2.8,6.9,5.1,9.6,7.2c-0.1,0,9.8,7.6,12.9,9.8
	C-183.9-218.2-183.6-217.8-183.7-217.3z"/>
<g>
	<g>
		<path class="st3" d="M3.5,11.5C6.8,8.4,10.6,6,14.4,3.7c0.8-0.5,1.6-0.5,2.4-0.1c0.5,0.3,1.1,0.7,1.6,1c2,1.4,3.9,2.9,5.9,4.3
			c1.3,0.9,1.7,0.9,3,0c2.4-1.6,4.8-3.2,7.2-4.9c1.3-0.9,2.5-0.9,3.8,0.1c2.1,1.6,4.2,3.2,6.3,4.7c1.6,1.2,2,1.1,3.7-0.1
			C50.4,7.1,52.7,5.6,55,4c1.5-1,2.3-1,3.7,0.1c2.1,1.5,4.1,3.1,6.2,4.6c1.7,1.3,2,1.2,3.8,0C71,7.1,73.3,5.6,75.6,4
			c1.2-0.8,2.3-0.8,3.5,0c0.6,0.4,1.1,0.8,1.6,1.3c1,0.7,1.9,0.7,2.9,0.1c0.8-0.5,1.5-0.9,2.3-1.5c1.1-0.9,2.2-0.8,3.4,0
			c0.6,0.4,1.3,0.9,1.9,1.4C91.9,6,92.8,6,93.6,5.5c1-0.6,2-1.2,3-1.8c0.6-0.3,1.2-0.5,1.8-0.1c0.4,0.3,1,0.7,1.1,1.2
			c0.1,0.2-0.5,0.7-0.8,1c-0.7,0.6-1.6,1.1-2.3,1.7c-0.7,0.6-0.7,1,0,1.5c0.8,0.6,1.6,1.2,2.4,1.8c0.9,0.7,1.1,1.2,0.7,1.8
			c-0.4,0.8-1.4,1.1-2.3,0.6c-1.1-0.6-2.2-1.3-3.3-1.9c-1.3-0.8-1.8-0.8-3,0.1c-0.7,0.5-1.3,1-2,1.5c-0.8,0.6-1.7,0.6-2.5,0
			c-0.7-0.5-1.5-0.9-2.3-1.4c-1.5-1-2.2-1-3.5,0.1c-0.5,0.4-1,0.9-1.7,1.2c-0.6,0.3-1.3,0.5-1.9,0.4c-0.5-0.1-1.1-0.6-1.4-1
			c-0.4-0.6,0.2-1,0.7-1.4c0.6-0.5,1.2-1,1.8-1.5c0.5-0.4,0.8-0.8,0.5-1.3c-0.2-0.4-0.8-0.8-1.2-0.8c-0.5,0-1.2,0.2-1.6,0.5
			c-2,1.4-4,2.9-6,4.4c-0.3,0.3-0.7,0.5-1,0.8c-1.1,0.7-2.1,0.8-3.2,0c-2.3-1.6-4.7-3.2-7.1-4.8c-1.7-1.2-2.1-1.3-3.8,0
			c-1.8,1.3-3.6,2.7-5.5,4c-0.3,0.2-0.6,0.5-0.9,0.7c-1.1,0.8-2.3,0.9-3.5,0.1c-2.2-1.6-4.5-3.1-6.8-4.6c-0.3-0.2-0.5-0.4-0.8-0.6
			c-1.1-0.7-1.7-0.7-2.7,0c-2,1.5-4,2.9-6,4.4c-0.4,0.3-0.8,0.6-1.2,0.8c-1,0.7-2,0.7-3.1-0.1c-2.4-1.7-4.8-3.3-7.2-4.9
			c-1.5-1.1-2-1.1-3.5,0c-2,1.5-4,2.9-5.9,4.4c-1.4,1.1-2.7,1.4-4.2,0.4C2.8,12.2,3.3,11.7,3.5,11.5z M87.2,7.2
			c-0.8,0-1.6,0.6-1.5,1.2c0.1,0.5,0.9,1.1,1.5,1.1c0.8,0,1.5-0.6,1.5-1.3C88.7,7.6,88.1,7.2,87.2,7.2z"/>
		<path class="st3" d="M103.1,8.3c-0.1,1.2-0.2,2.7-0.3,4.2c-0.1,0.9-0.6,1.3-1.3,1.2c-0.7-0.1-1.2-0.7-1.2-1.4
			c0.1-2.6,0.2-5.1,0.3-7.6c0-1.1,0.4-1.3,1.3-1.3c0.9,0.1,1.3,0.4,1.3,1.4C103.1,5.8,103.1,6.9,103.1,8.3z"/>
	</g>
	<g>
		<path class="st3" d="M4.8,26.2c0,0.3-0.3,0.6-0.6,0.6H3.8c-0.3,0-0.6-0.3-0.6-0.6v-8.1c0-0.3,0.3-0.5,0.6-0.6h0.4
			c0.3,0,0.6,0.3,0.6,0.6C4.8,18.1,4.8,26.2,4.8,26.2z M9.9,24.4c-0.1,1.3-0.9,2.4-2.6,2.4c-0.3,0-0.6-0.3-0.6-0.6v-0.3
			c0-0.3,0.3-0.6,0.6-0.6c0.8,0,1.2-0.7,1.2-1.2c0-0.8-0.6-1.2-1-1.2s-0.7-0.3-0.7-0.8s0.3-0.8,0.7-0.8c0.4,0,1-0.4,1-1.2
			c0-0.5-0.4-1.2-1.2-1.2c-0.3,0-0.6-0.3-0.6-0.6V18c0-0.3,0.3-0.6,0.6-0.6c1.7,0,2.5,1.1,2.6,2.4c0,0.3-0.1,1.2-0.5,1.8
			c-0.1,0.2-0.2,0.3-0.2,0.4s0.2,0.3,0.3,0.4C9.8,23.2,9.9,24.1,9.9,24.4L9.9,24.4z"/>
		<path class="st3" d="M17.3,23.9c0,0.3-0.2,0.6-0.5,0.6l0,0l0,0c-0.3,0-0.6,0.1-0.6,0.5l-0.4,1.4c-0.1,0.3-0.4,0.5-0.7,0.4
			l-0.4-0.1c-0.3-0.1-0.5-0.4-0.4-0.7l0.9-3.3c0.1-0.3,0.4-0.5,0.7-0.4l0.4,0.1c0.2,0.1,0.4,0.2,0.4,0.4c0,0.1,0.1,0.2,0.2,0.3
			c0.2,0.1,0.4,0.3,0.4,0.5V23.9L17.3,23.9L17.3,23.9z M20.9,26c0.1,0.3-0.1,0.6-0.4,0.7l-0.4,0.1c-0.3,0.1-0.6-0.1-0.7-0.4l-2.3-8
			c-0.1-0.3,0.1-0.6,0.4-0.7l0.4-0.1c0.3-0.1,0.6,0.1,0.7,0.4L20.9,26L20.9,26L20.9,26z"/>
		<path class="st3" d="M26.3,26.7h-0.4c-0.3,0-0.6-0.3-0.6-0.6v-8c0-0.3,0.3-0.6,0.6-0.6h0.4c0.3,0,0.6,0.3,0.6,0.6v8
			C26.8,26.5,26.6,26.7,26.3,26.7z M32.3,20.4c0,1.3-0.6,1.8-1.2,2.2c-0.6,0.4-0.4,0.6-0.2,0.9l1.2,2.3c0.1,0.3,0.1,0.6-0.2,0.8
			l-0.3,0.2c-0.3,0.1-0.6,0.1-0.8-0.2l-2-3.8c-0.2-0.3-0.1-0.6,0.2-0.8l0.5-0.2c0.7-0.3,1.1-0.7,1.1-1.4c0-0.5-0.4-1.2-1.2-1.2
			c-0.3,0-0.6-0.3-0.6-0.6v-0.4c0-0.3,0.3-0.6,0.6-0.6C31.1,17.7,32.3,19.1,32.3,20.4L32.3,20.4z"/>
		<path class="st3" d="M38.8,26.6c-0.2,0.2-0.5,0.1-0.8,0c-0.7-0.4-1.3-0.9-1.3-2.1v-4.7c0-1.2,0.6-1.7,1.3-2.1
			c0.3-0.2,0.6-0.3,0.8,0L39,18c0.3,0.3,0.2,0.6-0.1,0.9c-0.2,0.2-0.8,0.6-0.8,1.2v4.3c0,0.6,0.5,1,0.8,1.2c0.2,0.2,0.3,0.6,0.1,0.9
			L38.8,26.6z M42.3,26.6c-0.3,0.1-0.6,0.3-0.8,0l-0.3-0.3c-0.3-0.4-0.2-0.6,0-0.8c0.3-0.2,0.9-0.8,1-1.4c0-0.3,0.1-0.4,0.5-0.4h0.6
			c0.3,0,0.4,0.1,0.4,0.4v0.3C43.6,25,43.1,26.2,42.3,26.6z M43.2,20.5h-0.6c-0.3,0-0.4-0.2-0.5-0.4c-0.1-0.6-0.6-1.2-1-1.4
			c-0.2-0.2-0.3-0.4,0-0.8l0.3-0.3c0.2-0.3,0.5-0.1,0.8,0c0.8,0.4,1.3,1.6,1.3,2.1V20C43.6,20.4,43.5,20.5,43.2,20.5z"/>
		<path class="st3" d="M50.8,22.9H50c-0.3,0-0.5,0.2-0.5,0.5v2.8c0,0.3-0.3,0.6-0.6,0.6h-0.4c-0.3,0-0.6-0.3-0.6-0.6v-8.1
			c0-0.3,0.3-0.6,0.6-0.6H49c0.3,0,0.6,0.3,0.6,0.6v2.7c0,0.3,0.2,0.5,0.5,0.5h0.8c0.3,0,0.6,0.3,0.6,0.6v0.4
			C51.4,22.6,51.1,22.9,50.8,22.9z M54.2,19.1h-2c-0.3,0-0.6-0.3-0.6-0.6v-0.4c0-0.3,0.3-0.6,0.6-0.6h2c0.3,0,0.6,0.3,0.6,0.6v0.4
			C54.8,18.8,54.5,19.1,54.2,19.1z M54.2,26.8h-2c-0.3,0-0.6-0.3-0.6-0.6v-0.4c0-0.3,0.3-0.6,0.6-0.6h2c0.3,0,0.6,0.3,0.6,0.6v0.4
			C54.8,26.5,54.5,26.8,54.2,26.8z"/>
		<path class="st3" d="M60.7,26.2c0,0.3-0.3,0.6-0.6,0.6h-0.4c-0.3,0-0.6-0.3-0.6-0.6v-8.1c0-0.3,0.3-0.5,0.6-0.6h0.4
			c0.3,0,0.6,0.3,0.6,0.6V26.2z M65.8,24.4c-0.1,1.3-0.9,2.4-2.6,2.4c-0.3,0-0.6-0.3-0.6-0.6v-0.3c0-0.3,0.3-0.6,0.6-0.6
			c0.8,0,1.2-0.7,1.2-1.2c0-0.8-0.6-1.2-1-1.2s-0.7-0.3-0.7-0.8s0.3-0.8,0.7-0.8s1-0.4,1-1.2c0-0.5-0.4-1.2-1.2-1.2
			c-0.3,0-0.6-0.3-0.6-0.6V18c0-0.3,0.3-0.6,0.6-0.6c1.7,0,2.5,1.1,2.6,2.4c0,0.3-0.1,1.2-0.5,1.8c-0.1,0.2-0.2,0.3-0.2,0.4
			s0.2,0.3,0.3,0.4C65.7,23.2,65.8,24.1,65.8,24.4L65.8,24.4z"/>
		<path class="st3" d="M72.3,26.7c-0.2,0.2-0.5,0.1-0.8,0c-0.7-0.4-1.3-1-1.3-2.1v-4.7c0-1.2,0.6-1.7,1.3-2.1c0.3-0.2,0.6-0.3,0.8,0
			l0.3,0.3c0.3,0.3,0.2,0.6-0.1,0.9c-0.2,0.2-0.8,0.6-0.8,1.2v4.3c0,0.6,0.5,1,0.8,1.2c0.2,0.2,0.3,0.6,0.1,0.9L72.3,26.7z
			 M75.8,26.6c-0.3,0.2-0.6,0.3-0.8,0l-0.3-0.3c-0.3-0.3-0.2-0.6,0.1-0.9c0.2-0.2,0.8-0.6,0.8-1.2V20c0-0.6-0.5-1-0.8-1.2
			c-0.2-0.2-0.3-0.6-0.1-0.9l0.3-0.3c0.2-0.2,0.5-0.1,0.8,0c0.7,0.4,1.3,1,1.3,2.1v4.7C77.1,25.7,76.5,26.3,75.8,26.6z"/>
		<path class="st3" d="M83.1,26.2c0,0.3-0.3,0.6-0.6,0.6h-0.4c-0.3,0-0.6-0.3-0.6-0.6v-8.1c0-0.3,0.3-0.5,0.6-0.6h0.4
			c0.3,0,0.6,0.3,0.6,0.6V26.2z M88.1,24.4c-0.1,1.3-0.9,2.4-2.6,2.4c-0.3,0-0.6-0.3-0.6-0.6v-0.3c0-0.3,0.3-0.6,0.6-0.6
			c0.8,0,1.2-0.7,1.2-1.2c0-0.8-0.6-1.2-1-1.2S85,22.6,85,22.1s0.3-0.8,0.7-0.8c0.4,0,1-0.4,1-1.2c0-0.5-0.4-1.2-1.2-1.2
			c-0.3,0-0.6-0.3-0.6-0.6V18c0-0.3,0.3-0.6,0.6-0.6c1.7,0,2.5,1.1,2.6,2.4c0,0.3-0.1,1.2-0.5,1.8c-0.1,0.2-0.2,0.3-0.2,0.4
			s0.2,0.3,0.3,0.4C88,23.2,88.1,24.1,88.1,24.4L88.1,24.4z"/>
		<path class="st3" d="M95.5,23.9c0,0.3-0.2,0.6-0.5,0.6l0,0l0,0c-0.3,0-0.6,0.1-0.6,0.5L94,26.4c-0.1,0.3-0.4,0.5-0.7,0.4l-0.4-0.1
			c-0.3-0.1-0.5-0.4-0.4-0.7l0.9-3.3c0.1-0.3,0.4-0.5,0.7-0.4l0.4,0.1c0.2,0.1,0.4,0.2,0.4,0.4c0,0.1,0.1,0.2,0.2,0.3
			c0.2,0.1,0.4,0.3,0.4,0.5V23.9L95.5,23.9L95.5,23.9z M99.1,26c0.1,0.3-0.1,0.6-0.4,0.7l-0.4,0.1c-0.3,0.1-0.6-0.1-0.7-0.4l-2.3-8
			c-0.1-0.3,0.1-0.6,0.4-0.7l0.4-0.1c0.3-0.1,0.6,0.1,0.7,0.4L99.1,26L99.1,26L99.1,26z"/>
	</g>
</g>
<path class="st0" d="M52-20.1c-1.7,0-17.4,13.7-25,21.6c-2.5-2.3-5.8-5.4-11-10.2C8.8-15.1,5.8-20.1,2.5-20.1c-0.1,0-0.1,0-0.2,0
	c-0.1,0-0.2,0-0.4,0c-0.1,0-0.2,0-0.3,0.1c-1.3,0.2-2.4,1-3.1,2.1c-2.4,1.8-5.8,4.7-9.3,7.8c-6-5.8-8.8-10-11.8-10
	c-0.1,0-0.2,0-0.3,0c-0.1,0-0.3,0-0.4,0s-0.3,0.1-0.5,0.2c-1.1,0.3-2.1,0.9-2.7,1.8C-31.8-14-42.4-4.5-48.3,1.6
	c-2.5-2.3-5.9-5.4-11.1-10.2c-7.1-6.5-10.1-11.5-13.4-11.5c-0.1,0-0.2,0-0.3,0c-0.1,0-0.3,0-0.4,0s-0.3,0.1-0.5,0.2
	c-1.1,0.3-2.1,0.9-2.7,1.8C-82.2-14-93-4.3-98.7,1.8c-2.5-2.3-5.9-5.5-11.3-10.4c-7.1-6.5-10.1-11.5-13.4-11.5c-0.1,0-0.2,0-0.3,0
	c-0.1,0-0.3,0-0.4,0s-0.3,0.1-0.5,0.2c-1.1,0.3-2.1,0.9-2.7,1.8c-5.4,4.1-16,13.6-21.9,19.7c-2.5-2.3-5.9-5.4-11.1-10.2
	c-7.1-6.5-10.1-11.5-13.4-11.5c-0.1,0-0.2,0-0.3,0s-0.3,0-0.4,0c-0.1,0-0.3,0.1-0.5,0.2c-1.1,0.3-2.1,0.9-2.7,1.8
	c-7.7,5.8-25.9,22.5-25.9,25c0,2.3,2.2,4.3,4.7,4.3c3.3,0,6.3-5,13.4-11.5c5.2-4.8,8.6-8,11.1-10.2C-168.5-4.4-158,5-152.6,9.1
	c0.7,1,1.7,1.7,3,2c0.1,0.1,0.3,0.1,0.4,0.1c0.1,0,0.3,0,0.4,0c0.1,0,0.2,0,0.2,0c3.3,0,6.3-5,13.4-11.5c5.2-4.8,8.6-8,11.1-10.2
	c6.2,6.5,17.8,16.8,22.8,20.4c0.3,0.3,0.7,0.6,1.1,0.8c0.5,0.3,1,0.5,1.1,0.5c0.2,0,0.4,0,0.5,0c0.2,0,0.3,0,0.5,0
	c3.3,0,6.3-5,13.4-11.5c5.2-4.8,8.6-8,11.1-10.2c6,6,16.7,15.5,22.1,19.6c0.6,0.9,1.6,1.6,2.8,1.9c0.2,0.1,0.4,0.1,0.5,0.1
	s0.3,0,0.4,0c0.1,0,0.2,0,0.3,0c3.3,0,6.3-5,13.4-11.5c5.2-4.8,8.6-8,11.1-10.2c1.7,1.8,3.9,3.9,6.2,6.1
	C-22.5,0.8-27.1,5.6-27.1,6.9c0,2.3,2.2,4.3,4.7,4.3c3,0,5.8-4.2,11.7-9.9c6,5.4,11.7,9.9,12.6,9.9c2.4,0,5-2.3,5-4.3
	c0-0.5-0.2-0.9-0.6-1.3c-2.2-1.9-5-4.5-11-10C-1.8-7,0.3-9,2-10.5C7.7-4.5,18.1,4.8,23.6,9c0.7,1,1.8,1.8,3.1,2.1
	c0.1,0,0.2,0.1,0.3,0.1c0.1,0,0.2,0,0.4,0c0.1,0,0.1,0,0.2,0c3.3,0,6.3-5,13.4-11.5c9.2-8.5,12.7-11.8,15.5-14.2
	c0.4-0.4,0.6-0.8,0.6-1.3C57-17.8,54.3-20.1,52-20.1z"/>
<path class="st0" d="M-70.1-172.3c-1.5,0.2-3.1,0.9-4.8,2.1c-7.2,5.2-14.9,9.9-22.1,15.2c-4,2.9-7.3,2.9-11.2-0.1
	c-6.3-4.9-12.7-9.5-19.1-14.3c-5.4-4.1-7.4-4.3-12.9-0.6c-7.4,4.9-14.9,9.9-22.1,15.1c-3.5,2.5-6.5,2.6-9.9,0
	c-6.7-5.1-13.5-10.1-20.3-15.1c-2.8-2-5.9-4-9.1-1.8c-11.3,7.7-22.5,15.7-33.6,23.7c-3,2.2-1.5,4.4,1.1,5.7c3.6,1.9,6.7,0.2,9.6-2
	c6.8-5,13.6-10,20.3-15.1c3.2-2.4,6.2-2.4,9.5,0c7.3,5.2,14.7,10.1,22.1,15.1c5.7,3.8,7.4,3.8,12.9-0.3c6.2-4.6,12.5-9.2,18.6-14
	c4.1-3.3,7.7-3.3,12,0c6.9,5.2,14.1,9.8,21.3,14.5c5.9,3.8,7.7,3.5,13.4-0.8c6.1-4.6,12.3-9,18.2-13.7c1.8-1.4,3.5-2.2,5.2-2.4
	C-71.1-164.8-70.7-168.5-70.1-172.3z"/>
<path class="st0" d="M-4.8-172.5c-1.7,0.1-3.4,0.7-5.2,2c-7.4,5.3-15.1,10.1-22.5,15.4c-3.7,2.6-6.8,2.8-10.3,0.1
	c-6.6-5-13.3-9.8-19.9-14.8c-2.5-1.9-4.9-2.9-7.4-2.6c-0.6,3.8-1,7.6-0.8,11.4c2.2-0.2,4.4,0.6,6.8,2.4c6.9,5.2,14.3,9.5,21.2,14.6
	c4.6,3.4,8.4,2.7,12.6-0.5c6.4-4.9,13-9.8,19.5-14.5c1.5-1.1,3.4-1.8,5.6-3c0,0,0.1,0.1,0.2,0.1C-5.1-165.4-4.9-168.9-4.8-172.5z"/>
<path class="st0" d="M74.1-146.6c-1.7,0.1-3.4,0.7-5.2,2c-7.4,5.3-15.1,10.1-22.5,15.4c-3.7,2.7-6.8,2.8-10.3,0.1
	c-6.6-5-13.3-9.8-19.9-14.8c-2.5-1.9-4.9-2.9-7.4-2.6c-0.6,3.8-1,7.6-0.8,11.4c2.2-0.2,4.4,0.6,6.8,2.4c6.9,5.2,14.3,9.5,21.2,14.6
	c4.6,3.4,8.4,2.7,12.6-0.5c6.4-4.9,13-9.8,19.5-14.5c1.5-1.1,3.4-1.8,5.6-3c0,0,0.1,0.1,0.2,0.1C73.8-139.5,74-143.1,74.1-146.6z"/>
<path class="st0" d="M59.5-141.7c-1.7-0.1-3.4-0.7-5.2-2c-7.4-5.3-15.1-10.1-22.5-15.4c-3.7-2.6-6.8-2.8-10.3-0.1
	c-6.6,5-13.3,9.8-19.9,14.8c-2.5,1.9-4.9,2.9-7.4,2.6c-0.6-3.8-1-7.6-0.8-11.4c2.2,0.2,4.4-0.6,6.8-2.4c6.9-5.2,14.3-9.5,21.2-14.6
	c4.6-3.4,8.4-2.7,12.6,0.5c6.4,4.9,13,9.8,19.5,14.5c1.5,1.1,3.4,1.8,5.6,3c0,0,0.1-0.1,0.2-0.1C59.2-148.8,59.4-145.2,59.5-141.7z"
	/>
<path class="st0" d="M26.4-168.8L26.4-168.8z"/>
<path class="st4" d="M26.4-168.8L26.4-168.8z"/>
</svg>
